<svg xmlns="http://www.w3.org/2000/svg" viewBox="0 0 16 16"><title>podcast</title>
  <path d="M8.29999999,9.1 L7.70000001,9.1 C6.60000003,9.1 5.70000005,8.2 5.70000005,7.1 L5.70000005,2 C5.70000005,0.9 6.60000003,0 7.70000001,0 L8.29999999,0 C9.39999997,0 10.3,0.9 10.3,2 L10.3,7.1 C10.3,8.2 9.39999997,9.1 8.29999999,9.1 Z M11.3999999,4.6 L11.3999999,7.3 C11.3999999,9 9.99999996,10.4 8.29999999,10.4 L7.70000001,10.4 C6.00000004,10.3 4.60000007,9 4.60000007,7.2 L4.60000007,4.6 L3.4000001,4.6 L3.4000001,7.6 C3.4000001,9.8 5.20000006,11.5 7.40000001,11.5 L8.59999999,11.5 C10.7999999,11.5 12.5999999,9.8 12.5999999,7.6 L12.5999999,4.6 L11.3999999,4.6 Z M8.59999999,10.8 L7.40000001,10.8 L7.40000001,15.4 L8.49999999,15.4 L8.49999999,10.8 L8.59999999,10.8 Z M10.3,14.9 L5.70000005,14.9 L5.70000005,16 L10.3,16 L10.3,14.9 Z"/>
</svg>
