<svg viewBox="0 0 16 16" xmlns="http://www.w3.org/2000/svg"><title>Podcast</title><path d="m8.29999999 9.1h-.59999998c-1.09999998 0-1.99999996-.9-1.99999996-2v-5.1c0-1.1.89999998-2 1.99999996-2h.59999998c1.09999998 0 2.00000001.9 2.00000001 2v5.1c0 1.1-.90000003 2-2.00000001 2zm3.09999991-4.5v2.7c0 1.7-1.39999994 3.1-3.09999991 3.1h-.59999998c-1.69999997-.1-3.09999994-1.4-3.09999994-3.2v-2.6h-1.19999997v3c0 2.2 1.79999996 3.9 3.99999991 3.9h1.19999998c2.19999991 0 3.99999991-1.7 3.99999991-3.9v-3zm-2.79999991 6.2h-1.19999998v4.6h1.09999998v-4.6zm1.70000001 4.1h-4.59999995v1.1h4.59999995z"/></svg>