<svg xmlns="http://www.w3.org/2000/svg" viewBox="0 0 20 20"><title>search</title>
  <path d="M13.2923098,13.9994165 C11.8819612,15.2444908 10.0292099,16 8,16 C3.581722,16 0,12.418278 0,8 C0,3.581722 3.581722,0 8,0 C12.418278,0 16,3.581722 16,8 C16,10.0292099 15.2444908,11.8819612 13.9994165,13.2923098 L19.8535534,19.1464466 L19.1464466,19.8535534 L13.2923098,13.9994165 Z M8,15 C11.8659932,15 15,11.8659932 15,8 C15,4.13400675 11.8659932,1 8,1 C4.13400675,1 1,4.13400675 1,8 C1,11.8659932 4.13400675,15 8,15 Z"/>
</svg>
