<svg viewBox="0 0 16 16" xmlns="http://www.w3.org/2000/svg"><title>Zoom</title><path d="m6.5 6.5v-2.5h1v2.5h2.5v1h-2.5v2.5h-1v-2.5h-2.5v-1zm5.0836288 5.7907356c-1.228061 1.0648567-2.83059017 1.7092644-4.5836288 1.7092644-3.86599325 0-7-3.1340068-7-7 0-3.86599325 3.13400675-7 7-7 3.8659932 0 7 3.13400675 7 7 0 1.75303863-.6444077 3.3555678-1.7092644 4.5836288l3.5628178 3.5628178-.7071068.7071068zm-4.5836288.7092644c3.3137085 0 6-2.6862915 6-6s-2.6862915-6-6-6-6 2.6862915-6 6 2.6862915 6 6 6z"/></svg>