<svg viewBox="0 0 16 16" xmlns="http://www.w3.org/2000/svg"><path d="m15 8.00008c0-3.86611525-3.1338847-7-7-7-3.86611525 0-7 3.13388475-7 7 0 3.8661153 3.13388475 7 7 7 3.8661153 0 7-3.1338847 7-7zm-7.70710678 0-2.56364665 2.5636467.70710678.7071067 2.56364665-2.56364662 2.5635667 2.56356662.7071067-.7071067-2.56356662-2.5635667 2.56364662-2.56364665-.7071067-.70710678-2.5636467 2.56364665-2.56372665-2.56372665-.70710678.70710678zm8.70710678 0c0 4.4184-3.5816 8-8 8s-8-3.5816-8-8 3.5816-8 8-8 8 3.5816 8 8z"/></svg>