<svg viewBox="0 0 16 16" xmlns="http://www.w3.org/2000/svg"><title>Email</title><path d="m15.1588427 4.63447237c.2018754-.18841699.5182698-.17750683.7066868.0243685.188417.20187534.1775068.51826978-.0243685.70668676-2.5860615 2.4136574-5.2020936 3.63447237-7.84115914 3.63447237-2.63906555 0-5.25509763-1.22081497-7.84115913-3.63447237-.20187534-.18841698-.21278549-.50481142-.02436851-.70668676.18841699-.20187533.50481142-.21278549.70668676-.0243685 2.41393851 2.25300927 4.79790643 3.36552763 7.15884088 3.36552763 2.36093444 0 4.74490234-1.11251836 7.15884084-3.36552763zm-14.15884084-1.63447237v10h14.00000004v-10zm14.99999814-1v12h-16v-12z"/></svg>