<svg id="video-logo-light" xmlns="http://www.w3.org/2000/svg" viewBox="0 0 228.3 60"><style>.st0{fill:#FFFFFF;}</style><path id="gentlreman_x27_s_quarterly" class="st0" d="M6 57.5c0 .6 0 1.1-.4 1.6-.4.4-1 .7-1.6.7-1.1 0-2-.7-2-1.9S2.9 56 4 56c.6 0 1.5.3 1.8.9l-1.3.5c-.1-.2-.3-.3-.5-.3-.5 0-.7.4-.7.9 0 .4.3.8.7.8.2 0 .5-.1.5-.3H4v-.9h2zm.4-1.5v3.7h2.5v-1H7.7v-.4h1v-1h-1V57h1.1v-1H6.4zm2.9 3.7h1.3v-1.2c0-.2 0-.5-.1-.7l1.2 1.9H13V56h-1.3v1.1c0 .3.1.6.1.9l-1.2-2H9.3v3.7zm4-3.7v1.2h.7v2.5h1.3v-2.5h.7V56h-2.7zm3.2 0v3.7H19v-1.2h-1.1V56h-1.4zm2.8 0v3.7h2.5v-1h-1.2v-.4h1v-1h-1V57h1.1v-1h-2.4zm2.9 3.7h1.3l.2-1.6v-.4c0 .2 0 .3.1.5l.5 1.6h.8l.5-1.7c0-.1.1-.2.1-.4l.2 2h1.3l-.6-3.7h-1.4l-.4 1.4c0 .2-.1.3-.1.5l-.5-1.9h-1.4l-.6 3.7zm5.4-3.7v3.7h2.5v-1H29v-.4h1v-1h-1V57h1.1v-1h-2.5zm3 3.7h1.3v-1.2c0-.2 0-.5-.1-.7l1.2 1.9h1.3V56H33v1.1c0 .3.1.6.1.9l-1.2-2h-1.3v3.7zm5.1-1.9l.9-1.8h-1.3l-.6 1.8h1zm.8 1.6c.4.2 1 .3 1.4.3.8 0 1.6-.4 1.6-1.3 0-.6-.4-.9-1-1.1l-.3-.1c-.1 0-.3 0-.3-.2s.2-.2.3-.2c.3 0 .5.1.8.3l.4-.9c-.4-.2-.8-.3-1.2-.3-.8 0-1.6.5-1.6 1.4 0 .6.4.9 1 1h.3c.1 0 .3 0 .3.2s-.2.2-.3.2c-.3 0-.6-.2-.8-.3l-.1-.1-.5 1.1zm7.6-.9h-.2c-.4 0-.7-.3-.7-.7 0-.4.2-.7.7-.7.4 0 .7.3.7.7v.2l-.8.2.3.3zm1.6.5c.2-.3.3-.7.3-1.1 0-1.2-.9-1.9-2-1.9s-2 .7-2 1.9c0 1.1.8 1.9 2 1.9.3 0 .7 0 1-.2l.3.5 1.1-.4-.7-.7zm2.7-3v2c0 .3 0 .5-.4.5s-.4-.3-.4-.5v-2h-1.3v2.2c0 1.1.7 1.6 1.7 1.6s1.7-.5 1.7-1.6V56h-1.3zm3.1 2.3l.2-1.1c0 .2 0 .3.1.5l.2.7h-.5zm-.2.9h1l.1.5h1.4L52.5 56H51l-1.3 3.7h1.4l.2-.5zm4.1-2.2h.1c.2 0 .4 0 .4.3s-.2.3-.4.3h-.1V57zm-1.3 2.7h1.3v-1.2l.6 1.2h1.5l-.8-1.2-.2-.2c.5-.2.7-.4.7-1 0-.9-.7-1.3-1.5-1.3h-1.6v3.7zm3.5-3.7v1.2h.7v2.5h1.3v-2.5h.7V56h-2.7zm3.1 0v3.7h2.5v-1H62v-.4h1v-1h-1V57h1.1v-1h-2.4zm4.5 1h.1c.2 0 .4 0 .4.3s-.2.3-.4.3h-.1V57zm-1.4 2.7h1.3v-1.2l.6 1.2h1.5l-.8-1.2-.2-.2c.5-.2.7-.4.7-1 0-.9-.7-1.3-1.5-1.3h-1.6v3.7zm3.8-3.7v3.7h2.5v-1.2H69V56h-1.4zm1.9 0l1.3 2.1v1.6h1.3v-1.6l1.3-2.1h-1.5l-.3.6c0 .1-.1.2-.1.3L71 56h-1.5z"/><path class="st0" d="M54.3 52.6c-8.7 0-15.6-5-17.8-12.7-2.5 8.2-10.8 12.6-17.8 12.6C7.8 52.5 0 44.9 0 34.4c0-10.2 8.2-18.2 18.7-18.2 11.2 0 16.6 7.8 18 12.4 2.4-7.3 9.5-12.3 17.7-12.3 10.5 0 18.7 8 18.7 18.1 0 4.2-1.2 8.1-3.6 11.2l4.7 6-11.2.2-.7-.8c-2.4 1-5.1 1.6-8 1.6zM36 37.6h1c1.5 8.3 8.4 14 17.3 14 2.9 0 5.5-.6 7.9-1.7l.4-.2.9 1.1 8.6-.3-4-5 .2-.3c2.4-3 3.6-6.7 3.6-10.9 0-9.6-7.8-17.1-17.7-17.1-8.8 0-16.1 6.1-17.4 14.4l-.1.4H20.4v7.4h5.3l-.5.8c-.7 1.1-3 2.6-6.5 2.6-4.9 0-8.6-3.6-8.6-8.5s3.7-8.5 8.6-8.5c3.4 0 5 1.3 6.1 2.8h10.8c-1.4-4.3-6.5-11.5-17-11.5C8.7 17.2 1 24.7 1 34.4c0 9.9 7.4 17.1 17.7 17.1 7.1 0 15.7-4.9 17.3-13.9zM18.6 26.8c-4.3 0-7.6 3.2-7.6 7.5s3.3 7.5 7.6 7.5c2.1 0 3.9-.7 4.9-1.4h-4.1V31H36c.1-.5.2-1 .3-1.4h-12l-.1-.2c-1.3-1.6-2.7-2.6-5.6-2.6zm35.7 16.1c-4.8 0-8.5-3.7-8.5-8.5s3.7-8.5 8.5-8.5c4.9 0 8.6 3.6 8.6 8.5 0 1-.1 1.9-.4 2.8l-.3.9-1.7-2.2-8.6.3 5 6.4-.8.2c-.5.1-1.2.1-1.8.1zm0-16c-4.3 0-7.5 3.1-7.5 7.5 0 4.3 3.2 7.5 7.5 7.5h.8l-5.2-6.6 11.1-.4.8 1c.1-.5.1-1 .1-1.6 0-4.2-3.3-7.4-7.6-7.4z"/><path id="video" class="st0" d="M167.5 31.7c.8-4.4 3.4-7.3 7.4-7.3 4.1 0 6.7 2.9 7.2 7.3h-14.6zm8.4 20.6c6.2 0 10.8-2.4 14-6.4l-5.6-4.9c-2.7 2.5-5.1 3.5-8.3 3.5-4.4 0-7.4-2.3-8.4-6.7h23.9c.1-.9.1-1.8.1-2.6 0-9.7-5.3-18.6-16.7-18.6-10 0-17 8.1-17 17.9v.1c.1 10.4 7.7 17.7 18 17.7m-37.8-8.4c-4.5 0-8.4-3.8-8.4-9.5v-.1c0-5.8 3.8-9.5 8.4-9.5 4.5 0 8.3 3.8 8.3 9.5v.1c.1 5.7-3.7 9.5-8.3 9.5m-2.5 8.2c5.1 0 8.3-2.4 10.7-5.6v4.9h9.7V4.8h-9.7v16.9c-2.3-2.8-5.5-5.1-10.7-5.1-8.1 0-15.6 6.3-15.6 17.7v.1c0 11.5 7.6 17.7 15.6 17.7m-27.1-.6h9.7V17.2h-9.7v34.3zm-24 .3h8.8l13.5-34.6H96.7l-7.7 23-7.7-23H71l13.5 34.6zM108.3 0v12.1l12.1-6L108.3 0zm110.3 34.2c0 4.6-3.7 8.3-8.3 8.3-4.6 0-8.3-3.7-8.3-8.3 0-4.6 3.7-8.3 8.3-8.3 4.6.1 8.3 3.8 8.3 8.3m9.7.2c0-9.9-8-17.9-17.9-17.9-9.9 0-17.9 8-17.9 17.9 0 9.9 8 17.9 17.9 17.9 9.9 0 17.9-8 17.9-17.9"/></svg>