<?xml version="1.0" encoding="utf-8"?>
<!-- Generator: Adobe Illustrator 19.2.1, SVG Export Plug-In . SVG Version: 6.00 Build 0)  -->
<svg version="1.1" id="share-googleplus" xmlns="http://www.w3.org/2000/svg" xmlns:xlink="http://www.w3.org/1999/xlink" x="0px"
	 y="0px" viewBox="0 0 16 16" style="enable-background:new 0 0 16 16;" xml:space="preserve">
<g>
	<g>
		<g>
			<path d="M0,7.7c-0.2,2.1,1.2,4.2,3.2,5c2,0.8,4.5,0.2,5.8-1.5c0.8-1.1,1-2.6,0.9-3.9c-1.6,0-3.2,0-4.9,0c0,0.6,0,1.2,0,1.7
				C6.1,9,7,9,8,9c-0.4,2.1-3.3,2.8-4.9,1.4C1.5,9.2,1.6,6.5,3.2,5.4c1.2-0.9,2.8-0.7,4,0.1c0.5-0.4,0.9-0.9,1.3-1.3
				c-1-0.8-2.1-1.3-3.4-1.3C2.5,2.8,0.1,5.1,0,7.7z M13.1,5.8c0,0.5,0,1,0,1.5c-0.5,0-1,0-1.5,0c0,0.5,0,1,0,1.4c0.5,0,1,0,1.5,0
				c0,0.5,0,1,0,1.4c0.5,0,1,0,1.4,0c0-0.5,0-1,0-1.5c0.5,0,1,0,1.5,0c0-0.5,0-1,0-1.4c-0.5,0-1,0-1.5,0c0-0.5,0-1,0-1.5
				C14.1,5.8,13.6,5.8,13.1,5.8z"/>
		</g>
	</g>
	<g>
		<path d="M0,7.7c0-2.6,2.5-4.9,5.1-4.8c1.3-0.1,2.4,0.5,3.4,1.3C8.1,4.6,7.6,5.1,7.2,5.5c-1.2-0.8-2.8-1-4-0.1
			c-1.7,1.1-1.7,3.8-0.1,5.1C4.6,11.9,7.6,11.2,8,9C7,9,6.1,9,5.1,9c0-0.6,0-1.2,0-1.7c1.6,0,3.2,0,4.9,0C10,8.6,9.9,10.1,9,11.2
			c-1.3,1.8-3.8,2.3-5.8,1.5C1.3,12-0.2,9.9,0,7.7z"/>
		<path d="M13.1,5.8c0.5,0,1,0,1.4,0c0,0.5,0,1,0,1.5c0.5,0,1,0,1.5,0c0,0.5,0,1,0,1.4c-0.5,0-1,0-1.5,0c0,0.5,0,1,0,1.5
			c-0.5,0-1,0-1.4,0c0-0.5,0-1,0-1.4c-0.5,0-1,0-1.5,0c0-0.5,0-1,0-1.4c0.5,0,1,0,1.5,0C13.1,6.8,13.1,6.3,13.1,5.8z"/>
	</g>
</g>
</svg>
