<svg viewBox="0 0 16 16" xmlns="http://www.w3.org/2000/svg"><path d="m14.4 4.7v.4a9.26 9.26 0 0 1 -9.3 9.3 8.45 8.45 0 0 1 -5-1.5h.8a6.56 6.56 0 0 0 4.1-1.4 3.44 3.44 0 0 1 -3.1-2.3c.2 0 .4.1.6.1a2.77 2.77 0 0 0 .9-.1 3.13 3.13 0 0 1 -2.8-3.1 3.31 3.31 0 0 0 1.5.4 3.24 3.24 0 0 1 -1.4-2.8 4.71 4.71 0 0 1 .4-1.7 9 9 0 0 0 6.8 3.4 1.08 1.08 0 0 1 -.1-.6 3.33 3.33 0 0 1 3.3-3.3 3.49 3.49 0 0 1 2.4 1 5.39 5.39 0 0 0 2.1-.8 3.19 3.19 0 0 1 -1.4 1.8 4.07 4.07 0 0 0 1.8-.5 5.23 5.23 0 0 1 -1.6 1.7z"/></svg>