<svg xmlns="http://www.w3.org/2000/svg" viewBox="0 0 136 31.8">
  <path class="brand-logo-svg__r brand-logo-svg__lamour" d="M124.1 14.1V5.3s5.8-1.3 5.4 4.8c0 0 .5 4.9-5.4 4m7.5 3.9c5.3-3.7 4.1-9 4.1-9-.2-9.3-8.6-8.6-8.6-8.6h-8.9V31h6V19.3h2.1l3.4 11.7h6.3l-4.4-13z" fill="#231f20"/>
  <path class="brand-logo-svg__u brand-logo-svg__lamour" d="M107.9 26.5c3.5-.2 2.9-3.4 2.9-3.4V.5h-.1 6V21s1.4 11.2-8.6 10.8h-1c-10 .4-8.6-10.8-8.6-10.8V.5h6-.1v22.6s-.6 3.2 2.9 3.4h.6z" fill="#231f20"/>
  <path class="brand-logo-svg__o brand-logo-svg__lamour" d="M90.5 23s-.4 3.3-2.6 3.4h-.1c-2.1-.1-2.6-3.4-2.6-3.4-.3-1-.2-12.2-.2-12.2.2-4.5 2.1-5.1 2.8-5.2h-.3.6-.3c.7.1 2.6.8 2.8 5.2.1-.1.3 11.2-.1 12.2m6.9-7.3C97.4.4 89.4 0 87.9.1c-1.5-.1-9.5.3-9.5 15.6 0 0-.7 17 9.5 16 10.3.9 9.5-16 9.5-16" fill="#231f20"/>
  <path class="brand-logo-svg__m brand-logo-svg__lamour" d="M69.2.5l-4.1 20.2L61.7.5h-9.1v30.6h5.2v-22l5 22h3.7l5-21.9v21.9h6.1V.5z" fill="#231f20"/>
  <path class="brand-logo-svg__a brand-logo-svg__lamour" d="M42.5 8.1L45 19.6h-4.9l2.4-11.5zM39.7.5l-7.2 30.6h5.3l1.5-6.7h6.4l1.2 6.7H53L46.1.5h-6.4z" fill="#231f20"/>
  <path class="brand-logo-svg__l brand-logo-svg__lamour" d="M19.9.5v30.6h12v-5.6H26V.5z" fill="#231f20"/>
  <path class="brand-logo-svg__g" d="M13.6 11.2h5S19.5-.5 10.1 0c0 0-9.3-.3-10 14.2 0 0-1.3 17 8.6 17.3 0 0 5 .4 6.8-3.9l.8 3.4h2.6V15h-9v4.7h3.6s.9 6.6-3.6 6.4c0 0-3.5 1.3-3.7-10.4 0 0-.3-10.5 4.2-10.7-.1 0 3.7.1 3.2 6.2" fill="#231f20"/>
</svg>
