<svg viewBox="0 0 136 31.8" xmlns="http://www.w3.org/2000/svg"><title>Menu</title><g fill="#231f20"><path d="m124.1 14.1v-8.8s5.8-1.3 5.4 4.8c0 0 .5 4.9-5.4 4m7.5 3.9c5.3-3.7 4.1-9 4.1-9-.2-9.3-8.6-8.6-8.6-8.6h-8.9v30.6h6v-11.7h2.1l3.4 11.7h6.3z"/><path d="m107.9 26.5c3.5-.2 2.9-3.4 2.9-3.4v-22.6h-.1 6v20.5s1.4 11.2-8.6 10.8h-1c-10 .4-8.6-10.8-8.6-10.8v-20.5h6-.1v22.6s-.6 3.2 2.9 3.4z"/><path d="m90.5 23s-.4 3.3-2.6 3.4h-.1c-2.1-.1-2.6-3.4-2.6-3.4-.3-1-.2-12.2-.2-12.2.2-4.5 2.1-5.1 2.8-5.2h-.3.6-.3c.7.1 2.6.8 2.8 5.2.1-.1.3 11.2-.1 12.2m6.9-7.3c0-15.3-8-15.7-9.5-15.6-1.5-.1-9.5.3-9.5 15.6 0 0-.7 17 9.5 16 10.3.9 9.5-16 9.5-16"/><path d="m69.2.5-4.1 20.2-3.4-20.2h-9.1v30.6h5.2v-22l5 22h3.7l5-21.9v21.9h6.1v-30.6z"/><path d="m42.5 8.1 2.5 11.5h-4.9zm-2.8-7.6-7.2 30.6h5.3l1.5-6.7h6.4l1.2 6.7h6.1l-6.9-30.6z"/><path d="m19.9.5v30.6h12v-5.6h-5.9v-25z"/><path d="m13.6 11.2h5s.9-11.7-8.5-11.2c0 0-9.3-.3-10 14.2 0 0-1.3 17 8.6 17.3 0 0 5 .4 6.8-3.9l.8 3.4h2.6v-16h-9v4.7h3.6s.9 6.6-3.6 6.4c0 0-3.5 1.3-3.7-10.4 0 0-.3-10.5 4.2-10.7-.1 0 3.7.1 3.2 6.2"/></g></svg>