<svg xmlns="http://www.w3.org/2000/svg" viewBox="0 0 1688.81 273.95"><defs><style>.cls-1{fill:#f6d3d5}</style></defs><path class="cls-1" d="M1251.91 76.31h-18.21l-19.43 122.9h21.62c43 0 67.52-27.2 67.52-73.11-.01-29.64-14.82-49.79-51.5-49.79z"/><path class="cls-1" d="M919.74 0v273.95h769.08V0zm77.64 224.71L966.53 51h32.79l23.07 140.87L1089.91 51h31.33L1035 224.71zm146.46 0h-32.55L1138.73 51h32.55zm92.54 0h-58.53L1205.28 51h47.6c58 0 83.79 30.12 84 74.08.04 58.34-37.12 99.63-100.51 99.63zm239.71-148.16h-75.54l-7.53 47.6h61.2l-3.64 24.29h-61.21l-8.26 50.76h80.64l-4.13 25.5h-112.69L1372.38 51h107.84zm87.68 150.58c-47.36 0-81.12-30.85-81.12-77.24 0-57.32 40.56-101.28 95.45-101.28 49.3 0 80.88 32.55 80.88 77.72.02 58.79-40.57 100.8-95.21 100.8z"/><path class="cls-1" d="M1577.37 74.36c-38.38 0-61.21 35-61.21 74.81 0 32.06 19.43 52.22 49.06 52.22 36.92 0 60.23-33 60.23-74.32.01-29.15-16.26-52.46-48.08-52.71z"/><path d="M179.27 204.07h40.63v38.16h-83V30.59h42.4zm298.2-173.48H535v211.64h-42V90.73l-34.15 151.5H433L398.82 90.3v151.93h-75.63L315 196h-43.82l-10.24 46.26h-36.85l49.56-211.67H318l44.5 200v-200h62.66l23.77 139.94zM310.22 162.72l-17.14-79.51L276.37 163zm627.51 79.51h-43.21L870.75 161h-14.69v81.24H815V30.59h61.37c29.76 0 59.21 15.09 59.21 59.27 0 21.43-.2 42.87-28.09 62zM893.22 96.42c0-34-22.26-34.49-37.17-32.15V125c30.21 4.58 37.17-12.47 37.17-28.58zM67.77 164h25.07a76.86 76.86 0 0 1 .55 11.37c0 21-9.83 34.35-25.62 34.35-11.55 0-25.5-14.62-25.5-73.47 0 0-3.39-72 29-72 0 0 25.93-1.72 22.47 40.78h34.14s6.48-81.1-58.78-77.63c0 0-64.39-2.17-68.71 98.45 0 0-8.62 117.45 59.23 119.62 0 0 34.55 3.11 47.08-26.81l5.62 23.56H130V131.5H67.77zm697.09 22.25c0 9.43-1.33 23.42-20.31 23.42h-3.45c-19 0-20.31-14-20.31-23.42V30.59h-40.63V171c0 26.67.15 74.6 59.21 74.6h6.91c59.06 0 59.21-47.92 59.21-74.6V30.59h-40.63zM672 136.19c0 105.93-55.16 109.31-65.69 109.31s-65.69-3.19-65.69-109.13 55.09-109.13 65.64-109.13S672 30.26 672 136.19zm-46.15 1.28c0-8.36-.21-29.13-.21-29.13 0-23.37-5.18-44.09-19.44-44.09S586.7 85 586.7 108.34c0 0-.21 20.77-.21 29.13s.21 28.13.21 28.13c0 23.37 5.18 44.09 19.44 44.09s19.44-20.72 19.44-44.09c.01.01.22-19.77.22-28.13z" fill="#fff"/></svg>