<svg xmlns="http://www.w3.org/2000/svg" viewBox="0 0 250 37.3"><path d="M30.7.6h-7.2v36.1h14.2v-6.5h-7V.6M54.5.6h-7.6l-8.5 36.1h6.3l1.8-7.9H54l1.4 7.9h7.2L54.5.6zm-7.1 22.6l2.9-13.6 2.9 13.6h-5.8z"/><path d="M62.1 36.7V.6h10.7l4.1 23.9L81.8.6h9.9v36.1h-7.2V10.8l-5.9 25.9h-4.4l-5.9-25.9v25.9h-6.2M155.5 21.3c4.8-3.3 4.8-6.9 4.8-10.6 0-7.5-5-10.1-10.1-10.1h-10.5v36.1h7V22.8h2.5l4.1 13.9h7.4l-5.2-15.4zm-8.8-4.6V6.3c2.6-.4 6.4-.3 6.4 5.5-.1 2.8-1.3 5.7-6.4 4.9M16.1 13.3h5.8S23-.5 11.8 0c0 0-11-.4-11.8 16.8 0 0-1.5 20.1 10.1 20.4 0 0 5.9.5 8.1-4.6l1 4h3V17.7H11.6v5.6h4.3s.1.5.1 1.9c0 3.6-1.7 5.9-4.4 5.9-2 0-4.4-2.5-4.4-12.5 0 0-.6-12.3 5-12.3 0 0 4.4-.3 3.9 7M127.9 37.3c10.1 0 10.1-8.2 10.1-12.7V.6h-7v26.6c0 1.6-.2 4-3.5 4h-.5c-3.3 0-3.5-2.4-3.5-4V.6h-7v24c0 4.6 0 12.7 10.1 12.7h1.3zM115.1 18.6c0 18.1-9.5 18.7-11.3 18.7-1.8 0-11.3-.5-11.3-18.6S102.1 0 103.9 0c1.8 0 11.2.5 11.2 18.6zm-14.6-4.8v9.8c0 4 .9 7.5 3.3 7.5s3.3-3.5 3.3-7.5v-4.8-5c0-4-.9-7.5-3.3-7.5s-3.3 3.6-3.3 7.5zM174.9 26.5h1.2c1.3-3.2 4.6-11.2 5.3-12.8.3-.7.6-1.4 1.3-1.8.4-.2 1-.4 1.5-.4V11H178v.5c1.1.1 2.6.4 2.6 1.1 0 .7-.4 1.7-1.1 3.3-.4 1.1-1.8 4.6-2.8 7-1.4-3.8-3.3-9.3-3.5-10-.1-.2-.1-.4-.1-.6 0-.4.9-.7 2.1-.8V11h-7.6v.5c.5 0 1.1.2 1.5.4.6.3.8.7 1 1.2.5 1.6 3.2 9 4.8 13.4zm12.1-.2h7.6v-.5c-.4 0-1.4-.2-1.6-.4-.5-.2-.7-.6-.7-1.1V12.9c0-.5.1-.9.7-1.1.4-.1 1.2-.3 1.6-.3V11H187v.5c.4 0 1.2.3 1.6.4.5.2.7.6.7 1.1v11.5c0 .5-.2.9-.7 1.1-.3.1-1.2.2-1.6.2v.5zm12 0h7c4.4 0 8.9-2.3 8.9-7.6 0-6.1-5.3-7.8-8.4-7.8H199v.5c.4 0 1 .1 1.5.4.5.2.7.7.7 1.1v11.5c0 .5-.2.9-.7 1.1-.3.1-1.2.2-1.6.2v.6h.1zm7.4-.7c-1.5 0-2.1-.6-2.2-1.6V11.7h1.7c3.4 0 5.5 3 5.5 7.1.1 4-1.5 6.8-5 6.8zm10.8.7h13.6l.3-4.5h-.6c-.3.7-1.1 2.5-1.9 3.3-.5.5-2.1.5-3.5.5-2.2 0-2.5-.2-2.5-2v-5h1.7c1.2 0 1.6.3 1.9.7.3.3.7 1.5.8 2.2h.6v-6.3h-.6c-.1.6-.4 1.7-.8 2.1-.3.3-.7.7-1.9.7h-1.7v-6.4h2.4c.7 0 1.3 0 1.8.1 1.1.2 2.2 2 2.5 3h.6V11h-12.7v.5c.4 0 1.3.2 1.7.4.6.2.7.6.7 1.1v11.4c0 .5-.2.9-.7 1.1-.3.1-1.3.2-1.7.3v.5zm24.8.4c2.3 0 4.1-.8 5.6-2.1 1.6-1.5 2.4-3.7 2.4-6.1 0-2.4-.9-4.4-2.3-5.7-1.6-1.5-3.5-2.2-5.6-2.2-2.2 0-4.1.8-5.6 2.2-1.5 1.4-2.4 3.5-2.4 6 0 2.4.9 4.4 2.4 5.7 1.5 1.4 3.4 2.2 5.5 2.2zm.1-.7c-3.2 0-4.6-3.3-4.6-7.3 0-4.6 1.7-7.4 4.6-7.4 3.4 0 4.5 3.7 4.5 7.3 0 4.1-1.4 7.4-4.5 7.4zM167.6 35.7v1H250v-1h-82.4M166.2.6v1h82.4v-1h-82.4"/></svg>
