<svg viewBox="0 0 133.31 60" xmlns="http://www.w3.org/2000/svg"><title>Gallery</title><path d="m18.08 34.39v-.62h.92c1.71 0 2.48-.1 2.9-.52s.67-1.38.67-5.24v-8.24h-12.35v8.23c0 3.86.1 4.67.67 5.24s1.19.52 2.9.52h.9v.62h-14.37v-.62h.9c1.71 0 2.48-.1 2.9-.52s.67-1.38.67-5.24v-15.8c0-3.86-.1-4.67-.67-5.24s-1.19-.52-2.9-.52h-.9v-.62h14.38v.62h-.9c-1.71 0-2.48.1-2.9.52s-.67 1.38-.67 5.24v6.8h12.32v-6.8c0-3.86-.1-4.67-.67-5.24s-1.18-.52-2.88-.52h-.9v-.62h14.36v.62h-.9c-1.71 0-2.48.1-2.9.52s-.66 1.38-.66 5.24v15.8c0 3.86.1 4.67.67 5.24s1.19.52 2.9.52h.9v.62z"/><path d="m45.74 35c-8.38 0-13.81-6.71-13.81-15.19 0-6.09 4-14.52 13.43-14.52 8.52 0 13.81 6.76 13.81 14.66 0 10.34-6.96 15.05-13.43 15.05zm-.38-29c-5.48 0-7.71 5.9-7.71 13.81 0 9.09 2.29 14.57 8 14.57 5.33 0 7.81-5.62 7.81-15-.01-6.47-2.01-13.47-8.1-13.47z"/><path d="m83.54 13v10.67c0 4.52-.38 6-1.14 7.48s-3.09 3.85-7.81 3.85c-10.43 0-11.47-6.33-11.47-10.28v-10.28c0-5.81-.1-6.62-.67-7.38-.38-.52-1.19-.62-2.48-.62h-1.33v-.62h14.36v.62h-1.31c-1.29 0-2.09.1-2.48.62-.57.76-.67 1.57-.67 7.38v11c0 5.67 2.24 8.71 7 8.71 2.14 0 5-1 6.19-3.43.81-1.67 1-2.86 1-7v-10.72c0-4.52-1.1-6.33-4.52-6.52v-.66h9.9v.62c-3.47.19-4.57 2-4.57 6.56z"/><path d="m99.21 35c-5 0-6.71-2.76-9.19-2.76-1 0-1.67 1-1.76 2.19h-.67v-12.28h.62c.62 5.52 4.19 12.14 10.86 12.14 4.29 0 6.67-2.62 6.67-5.71 0-8.14-17.76-3.71-17.76-15.19a8 8 0 0 1 8.32-8.14c4.43 0 7 2.67 8.57 2.67 1 0 1.43-.76 1.48-2.09h.65v10.27h-.62c-1-6.38-5-10.19-10-10.19-4 0-5.52 2.9-5.52 5 0 7.38 18 4 18 15 .01 3.76-2.8 9.09-9.65 9.09z"/><path d="m109.21 34.39v-.62h.9c1.71 0 2.52-.19 2.9-.62.62-.67.67-1.9.67-5.14v-15.81c0-3.62-.1-4.48-.67-5.14-.38-.43-1.19-.62-2.9-.62h-.9v-.62h23.38v9.38h-.59c-.62-5.43-3.52-8.76-8.81-8.76h-4v12.33h1.24c5.09 0 6.19-2.62 6.57-6.19h.62v13.42h-.62c-.48-5.38-2.52-6.38-6.14-6.38h-1.67v14.15h4.19c5.76 0 9-4.38 9.38-10.24h.62v10.86z"/><path d="m14.39 54.69a4.53 4.53 0 0 1 -3.52-1.79 7.25 7.25 0 0 1 -4.75 1.79c-4.27 0-6.12-2.78-6.12-5.24a5.53 5.53 0 0 1 4.34-5.19 8.19 8.19 0 0 1 -1.58-4.34c-.01-2.22 1.66-3.92 4.8-3.92 2.23 0 3.87 1.41 3.87 3.31 0 1.73-1.14 3.37-3.6 4.34a75.4 75.4 0 0 0 4.83 6.45 8.47 8.47 0 0 0 2-4.51c0-1-.85-1.44-2.26-1.44v-.5h6.18v.5c-2 .12-2.7.7-3.43 2.64a12 12 0 0 1 -2.11 3.78c1.2 1.38 1.76 1.85 2.7 1.85 1.82 0 2.61-2.2 2.64-3.87h.62c-.1 2.75-1.16 6.14-4.61 6.14zm-9.7-9.87a2.71 2.71 0 0 0 -1.52 2.64c0 3.08 2.08 5.95 4.37 5.95a4.34 4.34 0 0 0 2.84-1 77.13 77.13 0 0 1 -5.69-7.59zm3.14-8.23c-1.58 0-2.11 1.2-2.11 2.37 0 .82.26 1.85 1.76 4.16a3.68 3.68 0 0 0 2.52-3.69c0-1.91-1-2.84-2.18-2.84z"/><path d="m38.71 46.87a4.85 4.85 0 0 0 -.41 2.7v4.78h-.67c-.5-1.26-1.26-1.67-1.93-1.67-1.29 0-1.9 2.08-5 2.08-5.19 0-8.2-4.51-8.2-9.23 0-4.92 2.87-9.35 8.58-9.35 2.78 0 4.13 1.64 5 1.64.53 0 .88-.64 1-1.52h.56v6.48h-.59c-.59-3-2.29-6-5.71-6-3.16 0-4.72 3.16-4.72 8.7 0 4.28.67 8.64 4.28 8.64 2.75 0 3.69-2.2 3.69-4.42s-.15-2.55-.38-2.81-.73-.38-1.79-.38h-.26v-.56h8.44v.56c-1.16-.02-1.66.1-1.89.36z"/><path d="m49.75 54.34v-.56h.25c1.05 0 1.64-.29 1.64-.94a3.08 3.08 0 0 0 -.29-1.17l-1.2-2.75h-5.88l-.79 2a5 5 0 0 0 -.35 1.49c0 .85.62 1.35 2.05 1.38v.56h-5.77v-.56c1.93-.06 2.58-.91 3.43-3.11l5.6-14.27h.38l6.12 14.12c1.11 2.58 1.58 3.14 3.22 3.25v.56zm-2.7-12.57-2.55 6.53h5.36z"/><path d="m74.19 54.58a3.31 3.31 0 0 1 -3.66-3.49c0-1.11.18-2 .18-2.87 0-1.93-1-2.93-3.52-2.93h-2.12v2c0 5.33.09 5.71.41 6.09s.73.38 1.79.38h.26v.56h-8.7v-.56h.26c1.05 0 1.55-.12 1.79-.38s.41-.76.41-6.09v-3.5c0-5.33-.09-5.71-.41-6.09s-.73-.38-1.79-.38h-.56v-.56h10.35c5.45 0 6.21 2.87 6.21 4.22s-.38 3.87-5.24 4c2.7.53 4.69 2.26 4.69 4.83 0 1.17-.12 2-.12 2.55s.18 1 .76 1c1.26 0 1.46-1.79 1.46-3.63h.56c0 2.68-.26 4.85-3.01 4.85zm-6.57-17.26c-.67 0-1.76 0-2.55 0v7.33h2.67c2.75 0 3.63-1.52 3.63-3.72a3.46 3.46 0 0 0 -3.75-3.61z"/><path d="m86.84 54.34h-9.34v-.56h.56c1.05 0 1.55-.12 1.79-.38s.41-.76.41-6.09v-3.52c0-5.33-.09-5.71-.41-6.09s-.73-.38-1.79-.38h-.56v-.56h8.82c7.12 0 9.46 5.24 9.46 8.64 0 4.6-2.49 8.94-8.94 8.94zm-.59-17c-.91 0-1.82 0-2.23 0v16.39h2.08c4.13 0 5.71-3.14 5.71-8.35.01-5.45-2.18-8.03-5.55-8.03z"/><path d="m96.42 54.34v-.56h.58c1.05 0 1.55-.12 1.79-.38s.41-.76.41-6.09v-3.52c0-5.33-.09-5.71-.41-6.09s-.79-.38-1.79-.38h-.56v-.56h15.44v6h-.56c-.5-3.6-2.75-5.42-5.63-5.42h-2.69v7.36h.59c2.75 0 3.57-1.73 3.81-4.07h.56v8.88h-.56c-.32-3.37-1.52-4.19-3.69-4.19h-.71v8.44h3c3.22 0 5.27-2.29 5.89-6.48h.53v7.06z"/><path d="m130.56 41.33v13h-1.41l-11.63-14.7v10.14c0 2.72.7 3.9 2.75 4v.56h-6.27v-.56c2.05-.12 2.75-1.29 2.75-4v-11a2.76 2.76 0 0 0 -2.55-1.41v-.56h5.65l9.93 12.63v-8c0-2.9-.73-4-2.87-4.07v-.56h6.36v.56c-2.01.08-2.71 1.25-2.71 3.97z"/></svg>