<svg viewBox="0 0 133.31 60"><title>Gallery</title><path d="M18.08 34.39v-.62H19c1.71 0 2.48-.1 2.9-.52s.67-1.38.67-5.24v-8.24H10.22V28c0 3.86.1 4.67.67 5.24s1.19.52 2.9.52h.9v.62H.32v-.62h.9c1.71 0 2.48-.1 2.9-.52s.67-1.38.67-5.24V12.2c0-3.86-.1-4.67-.67-5.24s-1.19-.52-2.9-.52h-.9v-.62H14.7v.62h-.9c-1.71 0-2.48.1-2.9.52s-.67 1.38-.67 5.24V19h12.32v-6.8c0-3.86-.1-4.67-.67-5.24S20.7 6.44 19 6.44h-.9v-.62h14.36v.62h-.9c-1.71 0-2.48.1-2.9.52S28 8.34 28 12.2V28c0 3.86.1 4.67.67 5.24s1.19.52 2.9.52h.9v.62z"/><path d="M45.74 35c-8.38 0-13.81-6.71-13.81-15.19 0-6.09 4-14.52 13.43-14.52 8.52 0 13.81 6.76 13.81 14.66C59.17 30.29 52.21 35 45.74 35zm-.38-29c-5.48 0-7.71 5.9-7.71 13.81 0 9.09 2.29 14.57 8 14.57 5.33 0 7.81-5.62 7.81-15-.01-6.47-2.01-13.47-8.1-13.47zM83.54 13v10.67c0 4.52-.38 6-1.14 7.48S79.31 35 74.59 35c-10.43 0-11.47-6.33-11.47-10.28V14.44c0-5.81-.1-6.62-.67-7.38-.38-.52-1.19-.62-2.48-.62h-1.33v-.62H73v.62h-1.31c-1.29 0-2.09.1-2.48.62-.57.76-.67 1.57-.67 7.38v11c0 5.67 2.24 8.71 7 8.71 2.14 0 5-1 6.19-3.43.81-1.67 1-2.86 1-7V13c0-4.52-1.1-6.33-4.52-6.52v-.66h9.9v.62c-3.47.19-4.57 2-4.57 6.56zM99.21 35c-5 0-6.71-2.76-9.19-2.76-1 0-1.67 1-1.76 2.19h-.67V22.15h.62c.62 5.52 4.19 12.14 10.86 12.14 4.29 0 6.67-2.62 6.67-5.71 0-8.14-17.76-3.71-17.76-15.19a8 8 0 018.32-8.14c4.43 0 7 2.67 8.57 2.67 1 0 1.43-.76 1.48-2.09h.65V16.1h-.62c-1-6.38-5-10.19-10-10.19-4 0-5.52 2.9-5.52 5 0 7.38 18 4 18 15 .01 3.76-2.8 9.09-9.65 9.09zM109.21 34.39v-.62h.9c1.71 0 2.52-.19 2.9-.62.62-.67.67-1.9.67-5.14V12.2c0-3.62-.1-4.48-.67-5.14-.38-.43-1.19-.62-2.9-.62h-.9v-.62h23.38v9.38H132c-.62-5.43-3.52-8.76-8.81-8.76h-4v12.33h1.24c5.09 0 6.19-2.62 6.57-6.19h.62V26H127c-.48-5.38-2.52-6.38-6.14-6.38h-1.67v14.15h4.19c5.76 0 9-4.38 9.38-10.24h.62v10.86zM14.39 54.69a4.53 4.53 0 01-3.52-1.79 7.25 7.25 0 01-4.75 1.79C1.85 54.69 0 51.91 0 49.45a5.53 5.53 0 014.34-5.19 8.19 8.19 0 01-1.58-4.34C2.75 37.7 4.42 36 7.56 36c2.23 0 3.87 1.41 3.87 3.31 0 1.73-1.14 3.37-3.6 4.34a75.4 75.4 0 004.83 6.45 8.47 8.47 0 002-4.51c0-1-.85-1.44-2.26-1.44v-.5h6.18v.5c-2 .12-2.7.7-3.43 2.64a12 12 0 01-2.11 3.78c1.2 1.38 1.76 1.85 2.7 1.85 1.82 0 2.61-2.2 2.64-3.87H19c-.1 2.75-1.16 6.14-4.61 6.14zm-9.7-9.87a2.71 2.71 0 00-1.52 2.64c0 3.08 2.08 5.95 4.37 5.95a4.34 4.34 0 002.84-1 77.13 77.13 0 01-5.69-7.59zm3.14-8.23c-1.58 0-2.11 1.2-2.11 2.37 0 .82.26 1.85 1.76 4.16A3.68 3.68 0 0010 39.43c0-1.91-1-2.84-2.18-2.84zM38.71 46.87a4.85 4.85 0 00-.41 2.7v4.78h-.67c-.5-1.26-1.26-1.67-1.93-1.67-1.29 0-1.9 2.08-5 2.08-5.19 0-8.2-4.51-8.2-9.23 0-4.92 2.87-9.35 8.58-9.35 2.78 0 4.13 1.64 5 1.64.53 0 .88-.64 1-1.52h.56v6.48h-.59c-.59-3-2.29-6-5.71-6-3.16 0-4.72 3.16-4.72 8.7 0 4.28.67 8.64 4.28 8.64 2.75 0 3.69-2.2 3.69-4.42s-.15-2.55-.38-2.81-.73-.38-1.79-.38h-.26v-.56h8.44v.56c-1.16-.02-1.66.1-1.89.36zM49.75 54.34v-.56H50c1.05 0 1.64-.29 1.64-.94a3.08 3.08 0 00-.29-1.17l-1.2-2.75h-5.88l-.79 2a5 5 0 00-.35 1.49c0 .85.62 1.35 2.05 1.38v.56h-5.77v-.56c1.93-.06 2.58-.91 3.43-3.11l5.6-14.27h.38l6.12 14.12c1.11 2.58 1.58 3.14 3.22 3.25v.56zm-2.7-12.57L44.5 48.3h5.36zM74.19 54.58a3.31 3.31 0 01-3.66-3.49c0-1.11.18-2 .18-2.87 0-1.93-1-2.93-3.52-2.93h-2.12v2c0 5.33.09 5.71.41 6.09s.73.38 1.79.38h.26v.56h-8.7v-.56h.26c1.05 0 1.55-.12 1.79-.38s.41-.76.41-6.09v-3.5c0-5.33-.09-5.71-.41-6.09s-.73-.38-1.79-.38h-.56v-.56h10.35c5.45 0 6.21 2.87 6.21 4.22s-.38 3.87-5.24 4c2.7.53 4.69 2.26 4.69 4.83 0 1.17-.12 2-.12 2.55s.18 1 .76 1c1.26 0 1.46-1.79 1.46-3.63h.56c0 2.68-.26 4.85-3.01 4.85zm-6.57-17.26h-2.55v7.33h2.67c2.75 0 3.63-1.52 3.63-3.72a3.46 3.46 0 00-3.75-3.61zM86.84 54.34H77.5v-.56h.56c1.05 0 1.55-.12 1.79-.38s.41-.76.41-6.09v-3.52c0-5.33-.09-5.71-.41-6.09s-.73-.38-1.79-.38h-.56v-.56h8.82c7.12 0 9.46 5.24 9.46 8.64 0 4.6-2.49 8.94-8.94 8.94zm-.59-17h-2.23v16.39h2.08c4.13 0 5.71-3.14 5.71-8.35.01-5.45-2.18-8.03-5.55-8.03zM96.42 54.34v-.56H97c1.05 0 1.55-.12 1.79-.38s.41-.76.41-6.09v-3.52c0-5.33-.09-5.71-.41-6.09s-.79-.38-1.79-.38h-.56v-.56h15.44v6h-.56c-.5-3.6-2.75-5.42-5.63-5.42H103v7.36h.59c2.75 0 3.57-1.73 3.81-4.07h.56v8.88h-.56c-.32-3.37-1.52-4.19-3.69-4.19H103v8.44h3c3.22 0 5.27-2.29 5.89-6.48h.53v7.06zM130.56 41.33v13h-1.41l-11.63-14.7v10.14c0 2.72.7 3.9 2.75 4v.56H114v-.56c2.05-.12 2.75-1.29 2.75-4v-11a2.76 2.76 0 00-2.55-1.41v-.56h5.65l9.93 12.63v-8c0-2.9-.73-4-2.87-4.07v-.56h6.36v.56c-2.01.08-2.71 1.25-2.71 3.97z"/></svg>