<svg id="video-logo-dark" xmlns="http://www.w3.org/2000/svg" viewBox="0 0 382 60"><path d="M356.954 13.97l-.276-.054-.274.108h-.217l-1.318.33h-1.044l-1.262.495-.277.052-1.316.44-.766.108-.277.276h-.107l-2.357.988-.33.383-.66.495-.273-.165-.442.44-.985.712-.384.49-.716.44-1.976 1.81-.164.44-.384.385-.497.33-2.14 3.237-.493 1.264-.328.437v.384l-.276.44-.22.165v.274l-.164.712-.053.054-.277.824-.22 1.316-.33.714-.164 1.097.057 1.154-.058.547v.22l-.22.054.112.715-.112 1.043.33 1.592.113 1.205-.058.77.714 1.81.11 1.26.22.277.38.933-.05.328.33.22.49.988.222.22.054.11.218.275v.11l.22.547.383.55.22.604 1.1 1.206 1.645 2.086.437.274h.384l.056.33.438.603.277.165.603.054.108.165.275.383.498.44 2.246 1.48.662-.054.217.053.167.11.052.11.277.493 3.946 1.372 1.372.273.44-.274.327.054.112.11.164.384.27-.165h.28l.55.22.6.056 2.69-.112 1.43.11.763-.11 1.428-.437.66-.11.438.054.22-.22.33-.054.277-.22.6.165.22-.22.605-.274h.44l.55-.382 1.754-.77 1.04-.604.442-.493 1.592-.767 1.098-.823.932-.934.767-.986.547-.33.88-.933.11-.383.108-.11v-.166l.878-.82.33-.495.22-.658 1.21-1.755.93-2.414.493-2.47.166-.44v-.054l.277-.44-.22-.33V39.7l.328-.44.057-1.37.164-.66-.33-1.04.22-.166.11-.33-.056-.93-.22-1.21.056-.658-.385-.604.057-.933-.384-.933-.55-1.976-.49-1.207-2.526-4.39-1.046-.824v-.494l-1.59-1.153-1.263-1.535-.438.11-.053-.056-.22-.55-3.075-1.755-2.468-1.208-2.58-.824-2.69-.44-.605-.218-.384.22-.326-.055h-.222l-.273-.164-.33.164h-.165l-.165-.164-.714-.11m.11 1.536l.108-.165.275.22 1.7.274h2.58l.657.11.443.385 2.744.77 2.523 1.37.986.766 1.21.55 2.63 2.36.33.44.604 1.15.44.44.33.164.33.988.385.55.49.438.385 1.262 1.264 2.195-.11.548.274.606v.384l.658 2.523.165 1.318-.053.713-.384 5.215-.164.22-.278 1.26-.217.166.053.932-.384 1.044-.88.986v.33l-.217.495.11.22-1.646 1.976-.492.384.053.33-.164.602-.55.384-1.863 1.92-.99.88-.326.11-1.155.712-.984.88-.277.107-4.775 1.868-1.427.33-2.578.328-2.637.11-4.06-.493-2.306-.658-.6-.276-.498-.386h-.385l-.658-.22-.55-.327-.162-.275-.658-.162-1.21-.605-.548-.44-4.007-3.51-1.59-2.086-1.043-1.7-2.032-4.72-.6-4.5.382-1.042-.27-.823.218-1.264-.112-.384.276-.164.107-.22v-.932l.55-1.7-.055-.275.55-1.263v-.273l.164-.33.33-.164.436-1.372 2.14-3.347.496-.33 1.646-2.03.713-.327.658-.88.605-.383.714-.274 1.587-1.042 1.044-.88 2.305-.6 2.414-1.045h1.262l2.522-.274.77.054m-12.95 38.69l.11-.22.222.11-.112.22m-20.027-39.674h-.607l-.22.165-.272-.056.056-.11-.77-.11-1.372.166-1.483.11h-.054l-.824-.166-.987.11-.606-.11h-2.744l-.602.22-.93-.22-.934.055-.715-.11-1.54.162-.6-.11-.382.166h-.55l-.606-.166-1.753.11-.33-.11-.933.11h-4.83l-1.427-.164-1.262.054-.383.22-.274.054-.492-.384-.605.275-.22.27v1.814l-.106.33.218.713-.22 1.26.053 1.21v1.15l-.11 1.154.11.933.112.22v.714l-.056.165.056.272.056.713-.167.55-.05 1.37.217 1.264-.22 1.59v1.317l.22.438v.44l-.112.22-.107 2.413v2.03l.218.495-.167 2.086v2.69l.167.44-.167.546-.05 1.318.106 1.426-.055 1.317.057.385v.494l-.107.165.05.22v.605l.056.604-.107.822.16.22v.056l.057.548-.22.11.108 1.372-.107 2.743.106.275.056.493-.163.275v.383l.49.384.22-.055-.164-.22.272-.11h.165l.33.22.11.384h1.37l.33-.276h.332l.437.274 1.317-.22.547.22.66-.33h.163l.112.22.27.11.33-.11h1.263l.112-.11.547.055.22.11.715.054.108-.056.165.056.11-.056.658-.054.606-.165.878.275h3.293l.655.11.164-.275.278-.11h.052l.165.22.384.054.385-.165h.44l.383.163.218-.165.825-.056 1.92.22 1.262-.275.933.22 1.977.054 2.742-.11 1.32.22.654-.054.933-.33h.22l1.152.274.383-.55.055-.657-.108-.714-.112-.167.054-.44h.058l.107-.327-.108-2.69v-5.214l-.333-.328-2.193-.054h-1.097l-.277-.054-.22.055h-3.838l-.662-.053-.6.055-3.733-.11-.273.11h-.057l-.71.055-.224-.11-.766-.055-.165.22h-.714l-.714-.22-.766.056h-.053l-.55.165h-.164l-.383-.164-.935.11-1.042-.276-.66.275h-.384l-.22-.66h.11l.11.22.33.055-.112-.383-.55-.44-.053-1.81-.052-.275.22-.22.33-1.316h1.038l.276-.164 2.307-.11 1.313.11.604-.055.165-.107h.442l1.15.164.933-.163h.44l.108.054h.933l.113-.053h.658l.11.054 1.044.22.55-.274 1.426.164 2.028-.055.604.165 1.207-.55.165-.273-.056-1.92-.057-.055v-.658l.11-.055v-3.02l.054-.275-.053-.163v-.714l-.11-2.58-.55-.165v-.056h-.054l-.165-.056-1.206-.164-3.345.11-1.704-.11h-.274l-1.428-.11-.985.11h-5.326l-1.647.055h-.054l-.545-.274-.496.053-.165-.766.33-.274-.385-.714-.053-.11v-1.482l.436-.714-.11-1.096.11-.055.33.164.218-.22.055-.22.383-.165.44.33.986.11.657-.166 1.702.22.713-.22 3.402.11.768-.33h.058l.438.275.276.053.934-.165 3.346.165.547-.22.99.166h.657l.164-.11h.166l.276.11 1.04-.166.99.22 1.37-.22.606-.274.107-.33-.108-1.646h-.058l.222-.822-.165-.165.107-.273-.108-2.8.107-2.908-.166-1.264-.163-.383-1.7-.165-1.593-.056-.327-.276m-8.617 1.755h1.263l1.427-.33 1.756.33h.657l5.38-.11.548.604.272.602v.44l-.272.493.272 2.36-.272 1.152.165 2.03-.112.273-.383.442-1.043.054-1.316-.11-.6.166-.607-.164-3.18.275-.604-.164-1.867-.11-5.377.11-1.208-.274-1.21.33-.27-.167-.992-.164-.384.33-.273-.22h-.164l-.277.22-.55-.33-.383.054-.55.274-.877.824.277.66-.057.657-.22.713.057.384.22.22.108.33-.327 1.317.056.603.27.55-.436 1.096.053.33.22.33 1.372.438 1.534.11 1.592-.054.605-.22h.77l1.7.33.714-.165.22-.164.38.055.608.275 1.59-.274 5.27-.22 1.262.277.492.328v4.17l-.165 2.69-.27.22-.935.273-.71-.055-5.435-.11-2.635-.22-.22.165-.33.055-1.368-.11-.714.22-.332-.22h-.71l-.768.22-.165.165-.33-.165-2.526-.22-.27.164-.33.494-.112 1.81.277.277-.277.328.165.712v.606l.22.22-.385.6.385.825-.22.22.22.22-.385.493.277.605.932.55h3.127l2.522-.164.604-.164.88.165 4.116-.164.218.165.328.055.934-.11h7.792l.165.22.33 1.152V50.9l-.165 1.37.218 2.525-.11 1.372-.327.494h-1.21l-2.634-.22-1.482.33-.933-.055-.22-.165-.875.165-2.69-.054-1.315.11-.714-.055-.66-.275-.653.165-2.032-.165-1.32.22-.93-.22h-1.43l-2.03.33-.214-.33-.384.056-.22.273-.442-.275-.272-.057-.712.22-.277-.22-.987.22-1.867-.22h-.77l-2.082.275-.66-.22-.496-.713-.272-.056.272-.33.165-.55.056-.71-.164-1.538V49.74l.163-2.63.22-1.21-.384-.93.272-.66-.053-.604-.22-.274.22-.274.164-.66-.057-.328-.328-.494.107-.276.112-1.316-.167-2.744.11-1.26.22-.55-.164-.274-.167-.934.275-1.754.057-1.483-.112-.713.112-1.207-.056-.328-.44-.385.385-.44.112-.274-.056-.384-.274-.166-.165-.273.385-.493.112-.77-.056-.767-.164-.55.165-.218.057-.384-.384-.604v-.44l.384-.603-.384-.933.163-.55.056-2.085.164-1.43.218-.547.384-.495.878.22 2.633-.056 1.32.22.932-.494 1.92.11 5.267.11 1.37-.22 2.854.165 1.208.22m-7.904 8.725l.22.33-.11.11h-.22m-2.03 0l.165-.222.662-.11-.058.385-.22.22h-.27m-.113 4.5l-.164-.276.277-.106h.328v.33l-.22.163m-.384 1.373h.278l-.165.383h-.22m2.248.218l-.11-.326.278-.11.33.11-.165.44m-1.976-.113l.11-.326.22.164-.165.273-.277.11m4.448-.11h.273v-.22h-.272m-.277 8.616h.278l-.332.22m-2.086.437l-.384-.437.22-.22.606.11.052.327-.165.274m-2.744-.108l.165-.273.22-.22.33.22-.437.38m2.196 6.202l-.112-.328.277.22.108.383h-.384m2.14.11h.22v-.22h-.22m-52.4-33.08l-.55-.11h-.057l-.55-.11-1.038.163-1.977-.163-.607.054-.492.165h-.22l-.11-.11-.878-.11-1.37.162-1.208-.11-.55.22-.495-.22-.33.056-.986.602v2.03l.27.714-.325 2.634.054.547.33.385v.11l-.33.33.27 1.535v.056l-.27.55.052 2.47v.22l-.053.877.108.44-.11.22.22.33.053.382-.162.33-.11.987.054.55-.053.11.108.6v.166l-.22.933.22.988-.11 3.237.11 2.854.11.44-.054.385-.057.11-.056.6-.053.275.052.275.112.495-.277 1.866v.606l.33 1.262.055.164v.22l-.27.604.217.878v.384l-.165.714-.053 2.03.27 2.47-.27.932.108 2.58-.11.273.494.33.658.165.767.054.608-.22.272.11h2.637l.6.165.55-.22h.496l.764.22 1.976-.274 1.647.274h.712l.55-.275.383.165 4.006.11.277-.33.49.055.11.165.33.11.33-.275h.438l-.053.165.11.22 1.26-.166 2.69-.11 1.26-.22.55-.22.495.112.44-.274.657-.165.768-.055 1.043-.66.33.057 2.03-.77.384-.44v-.11l.164-.11.277.166 1.204-.824 1.098-1.207.33-.22.33-.11 1.976-2.304 1.48-2.25 1.647-3.785.547-2.635.385-.93-.165-.495v-.715l.494-2.632-.052-.714-.22-.494v-.385l.162-.766-.163-1.978-.547-2.58V29.5l-.714-1.483v-.22l-.276-.548-.053-.55-1.317-2.963-.493-.44-.384-.602-.06-.385-.55-.274-.38-.493v-.384l-.88-.606-.77-1.042-1.86-1.372-.605-.273-.386-.33-.713-.22-.11-.22-.496-.383-1.59-.495-.326-.22-.55-.11-.164-.056-.547-.328-1.208-.11-1.867-.494h-.712l-.33.11-.604-.33-.278.166-.93-.11-.33.163-.275-.163h-2.635l-1.21.163-.27-.164-.548-.056-1.263.11-.713-.22-.88-.055m-10.92 42.033l-.22-.55-.22-1.48.165-1.26-.22-1.65.056-1.37.22-.715.054-.658-.216-.712V46.78l.216-2.635-.163-.328-.273-.165.22-.22v-1.04l.217-.606.11-1.754-.162-1.316-.275-.22.328-.935-.11-1.7.11-.66-.216-.162.163-.273.053-1.812.167-.276-.276-.55.11-1.425-.217-1.042.27-.878-.27-2.69.216-1.426-.216-.548.107-1.7-.22-2.636.056-1.316.164-.66v-.657l-.107-.385.27-.44.77-.275h2.966l.6-.22.826.276 2.137.11 2.58-.11.6-.11h4.39l2.69.165.604.166.99-.054 2.36.108 2.524.658.6-.052 1.21.437 1.15.66.33-.057.112-.163.383.44.49.328.66.166.66.767.6.33.385.054.497.77 1.042.658v.495l.49.384.88.986 1.374 2.305.823 1.044-.054.6.274.605.22.165.217 1.26.88 2.196-.054.33-.163.11.384.877.053 1.756.272.822-.326 5.378-.277.495-.386 2.137-.385 1.264-.878 1.592v.658l-.33.165-.22.276-.27.713v.273l-.496.275-.22.274-.275.768-.493.274-.385.495-.165.657-.602.11-.11.603-3.072 1.976-.22.218-.602.714-.276-.054-.163-.165-2.303 1.095-1.317.44-.657-.11-.77.33h-1.095l-.827.494-.327-.166h-1.427l-.604-.222-.492.275-2.03-.054-.55.273-.436-.274h-1.482l-.606.164-1.426-.276h-.714l-2.63.385-.607-.274-.77-.056-.437.33-.604-.274-.713-.057-.66.22-1.15-.22-2.636.22m26.177-39.51l.22.163-.22.165m-26.89 40.006h.277l.053.22h-.328m-37.64-42.904l-2.798-.11-.493.11h-.22l-.11.11-.328.055-.442.328v1.044l-.33.164-.27.33.108.547-.44.385.113.604-.492.767-.716 1.867-.33.548v.658l-.215.222-.277.658v.438l-.44.493v.608l-.436 1.205-.33.55-.44 1.207v.602l-.22.386-.217.384v.11l-.384.822-.218.107-.165 1.048-.497 1.152v.438l-.052.274h-.164l-.164.165v.384l-.497 1.155.054.22-.108.273-.33.22-.22.657v.386l-.44.77-.22.656-.165 1.21-.27.11-.165.217-.165.66-.497 1.098-.107.657.056.384-.056.11-.77.22-.055-.11.053-.22-.055-.33-.38-.546-.278-.11v-.053l.11-.22v-.055l.276.055-.22-.22-.056-.055v-.056l-.66-1.483-.054-.768-.602-1.045-.38-.986v-.22l-.113-.057-.436-1.205-.714-2.42-.33-.49-.604-1.976-.605-.823-.383-1.59-.765-1.703v-.055l.052-.384-.217-.166-.113-.712-.384-.495-.22-.66-.052-.6-.384-.33-.058-.11-.054-.714-.495-.33v-.053l.058-.33-.108-.714-.277-.714-.384-.494.166-.44-.494-.824-.605-1.865-.712-.987h-.492l-1.59-.054-.55-.056-.276.055-1.097-.056-.496-.11-.385.22h-.55l-.106-.11-.33-.055-1.21.163-.55-.22-1.096.22-2.03-.11-1.045.11-.217.328.164 1.1.492 1.26.657 1.1v.44l.277.602.385.494.052.055v.057l.112.932.27.548.442.384 1.04 3.292.166.384v.054l.382.714.388.55.272.493-.165.11-.108.327.107.276.44.494v.055l.163.328v.384l.33.33.164.33-.053.162.166.495.328.547.107.604.608.934-.112.493 1.21 2.635.933 2.524h.55l-.166.273v.77l.713 1.427.052.602.662 1.098 1.425 3.786.655 1.15v.607l.222.22.55 1.204.49 1.868.443.493.272.55-.107.386.49.383.06.164-.06.11.166.658.33.658.22.22.22 1.098.935 1.646.272-.11h.66l.656.164 1.32.11 3.565-.275.494.11.276-.055 1.647.22 1.316-.056.55-.165.546-.33.77-1.866.442-1.646.654-1.15.112-.33.218-.166v-.33l.165-.438v-.55l.055-.11.22-.164 1.65-3.73.053-.99.11-.22.657-.657-.11-.606.057-.165.492-.55.056-.71.437-.22.112-.77.93-2.25.385-1.37.44-.44.604-1.7.38-.55.22-1.098.385-.88.06-.053v-.056l.383-.768-.112-.385v-.053l.548-.604.77-1.92-.166-.495v-.056l.386-.493.82-1.647.278-.713.656-1.753 1.208-2.36-.11-.33.33-.66v-.438l.218-.166.385-.933.222-.22V18.9l.49-.715.164-.603-.054-.055.112-.275h.22v-.328l.548-1.1.053-.548-.11-.383-.55-.163-1.04-.056-2.637.166-.603-.057-.602-.22M200.73 37.33l-.107-.328.108-.384.55-.825.385-1.37.495-.88-.112-.274.058-.55.6-1.205.77-2.688.33-.495.438-.33.058-.438.328-.495-.22-.604.546-.22.165-1.098.55-1.702.278-1.37h.384l.546-.825.22-.765.11-1.317.822-1.81.277-1.154.986-.11 5.49-.11.272.11.165.22.274-.165.714-.055 1.262.11.11.22v1.04l-.33.496-.93 2.415-.603 1.153v.658l-.497.66-.276.548-.054.714-1.097 2.305-.933 2.525-.712.492.113.33-.164.55-.058.767-.714.44.11.714-.33.108.058.662-.877 1.922v.766h-.33l-.33 1.318-1.7 3.237.107.384-.272.55-.33 1.206-.55.384.112.823-1.374 2.963-1.92 4.883-1.205 2.25v.383l-.165.604-.442.328.277.165.11.33h-.494l.053.384-.218.495-.44.22-2.14-.165-2.8.11-1.15-.11-.604.33-.823-.385-.932.165-.66-.33-.55-.822-.436-1.317-.385-.492.22-.604-.113-.33-.82-.933.164-.273v-.604l-.385-.493-.327-.056.053-.274.166-.165-1.373-3.402-.658-1.098.108-.494-.107-.272-.442-.44v-.547l-.817-1.426-.384-.494-.06-.658-.876-1.757-.822-2.523-1.537-3.62-.822-1.705v-.603l-.767-1.482-.933-2.47-1.155-2.304-.107-1.042-.713-1.426.11-.55-1.65-3.786-.328-1.316.22-.164h1.647l.49-.165.992.22 4.17-.11 1.206.384.493.33.713 2.248.93 2.47.443.328.053 1.1.987 2.193.056.714.165.11h.272l.112.33v.767l1.698 3.734.826 2.523.82 1.757v.99l.277.548.88.82-.058.66.824 2.47-.055.658.272-.11.055-.273.22.273v.384l-.33.164 1.537 2.747-.166.986.22.55.385.384.655-.055-.107-.274-.442-.22-.054-.33.33-.054.494.165.056-.603.657-1.866v-.714h.385l.163-.164.274-.934.22-.163-.33-.493h.33l.218-.11v-.33l-.22-.493.55-.33.277-.66.107-.714-.107-.55.22-.108.272.22m-5.983 1.043h.33l-.11.33-.383.055m3.18 3.18l.056-.273.222-.22.327-.108-.108.22h-.277v.603m-1.976-.604h.22v-.218h-.22m-.493.714l.22-.11.272-.11.222.33-.33.11m.82.493h.276l.165-.11.273.327-.714.11m37.263-28.807l-.44.328-.387-.22-.49.22-.606-.273h-1.702l-.713.165-.382-.11-1.48-.056-.608.165-.384.383-.164.603-.056 1.427.056 1.044v.603l.058.657v.934l-.22.603.22.934-.058.33.11.165v3.127l-.165 1.975.056.605.11.274v.056l-.164.22.114.766-.058.66v.328l.058.658-.22.275.107.33.056 1.262v1.866l-.107.382.106.55v.603l.165.66-.22.82v.715l.22.33v.273h-.106l-.22.493.108.66.056 1.92.165.606-.107.274-.165 1.316.164 1.262.107.274v.603l-.107.276-.058 1.263v1.535l-.107 1.044.106.22v2.69l.165 1.15-.165.605v1.428l.11.328v.166l.055.054.33.715h.385l.165-.166.275-.055.327.163h1.428l.605-.165 1.425.22.605-.22 2.36.22.602-.22 1.81.22.55-.11.442-.824v-.657l-.225-.66.386-.712-.162-.272-.06-.604.113-1.373-.276-.88v-.218l.223-.277-.113-.602.112-2.58-.06-1.37-.053-.22v-.933l.166-.767-.055-.605-.113-.274v-.55l.112-.273-.166-1.097-.058-.384.165-.218.06-.44-.224-.548.11-.274.168-1.316-.054-.77-.224-.55.11-.273-.052-.382.165-1.098-.06-.605-.106-.163.272-.55-.166-.44.113-1.043-.054-.712-.166-.55.107-1.37-.053-.11.113-.77-.278-.494.054-.327.11-.165-.11-.437v-.275l.222-.328v-1.263l.162-4.72-.275-1.096.11-2.58-.223-.55v-.053l.223-.602v-.66l-.166-.714-.277-.6-.33-.058-1.425-.163m-4.062 1.753l.604-.273.22-.22.273.22.66.22 2.03-.054.603.22.22.218.108 2.414.165.548-.165.165-.108.33v.88l.108.33.165.164-.217.658v.99l.217.493-.165.658-.108 2.087.108.274.277.166-.164.274-.163.933v1.48l-.167 1.21.166.932-.056 1.864.273 1.702-.165.493-.108 1.59v2.855l.163 1.206.222.55-.385.606.163.878-.107 1.318.052.656.165.33-.165.22v4.006l-.108.604.273.604-.273.712.22.825.053 2.687.112.604-.496.605-1.593.11-2.576-.165-2.91.165-.547-.165-.385-.384-.222-.605-.054-1.37.163-1.427-.05-1.263-.222-.548.22-.22-.057-2.36.11-1.37-.164-1.208-.165-.495v-5.33l.218-2.47-.49-.492.217-.22.382-.11-.163-2.414.164-1.262-.163-.603.164-1.923-.163-1.373.164-.603-.216-.657.166-2.25-.22-.603.108-.713.163-2.635v-5.047l.497-.275.602-.11 1.81.22m-3.402 39.838l.22.11-.11.22h-.217m128.515-32.76l-.66-.056-1.044.66-.547.22-.77.054-.88.93-.49.33-.71.166-2.09 2.03-1.48 2.14.11.66-.44.767-.493 1.207-.386 2.195v2.14l.496 3.127.768 1.426.165.714.162.274 3.515 4.006.328.056 1.703.986.547.055 1.865.66.602.11.384.22h1.757l.714.273 1.81-.165 2.47-.877 1.042-.165.71-.605.387-.108.876-.714.386.11.327-.11.056-.33.056-.384.71-.22.603-.768.934-.877.112-.823.764-.933.66-2.523.494-.823-.162-.493.272-1.92-.11-1.976.11-.658-.986-2.798-.442-.495-.165-.712-.712-1.1-1.37-1.26-.825-.933-1.48-.88-.987-.93-.713.164-.66-.55-1.317-.33-1.428-.16-1.314-.276-.825.22-.55-.275m-6.858 21.072l-.604-.384-.11-.44-.712-.82-.656-.99-1.046-2.47-.435-2.798.055-1.263.216-1.37.22-.44v-.822l.773-1.428.054-.602.984-.933.165-.715 1.757-1.482 2.142-1.59 1.7-.44 1.15-.493h1.32l.218-.22h.988l2.195.548.44-.11.986.44h.387l.548.495.605.054 1.534 1.096.33.056.22.273 1.374 1.592.164.384.383.495.22.11v.274l.112.22v.053l.106.11.33.493.164.714.165.054.167.438.38 1.153v1.1l.165.6.054.055.057.33v.11l-.058.22v.494l-.108.165.107.38v.494l-.273.44-.058 1.316-.055.166-.328.495v.22l-.604.878v.274l-.33.385-.22.88-.494.547-.164.056v.11l-.438.548-.056.054-.493.33-.168.33-.382.384-.548.218-.165.22-.053.275-.112.055h-.495l.056.22-.66.327-1.756.66-.165.163h-.054v.055h-.052v.056l-.165.22-.165-.112-.11-.272-1.317.383-.053.054-.496.054-1.314.11-2.744-.55-1.87-.71h-.382l-.328-.22-.108-.44-.33-.055-1.1-.605h-.215m17.942-3.676l.163-.22.272.054.165.22-.11.273M264.708 24.452l-1.21-.22H260.7l-.33.385-.27.054-.223-.33-1.263-.052-.55.165-.325 1.756.6.492-.33.166-.164.274v1.207l.383.604-.49.548.217.823-.276.22-.053.274.22.164v.383l.11.274-.218 1.043L257.9 34l.163.494-.326.384.106 3.732-.108.603.272.44.054.272-.22.165-.106.276.326.22v5.047l.276 2.525 2.47.11.493-.22.22-.22.164.274.275.165 1.318-.055 2.742.11 2.583-.055 2.744-.658 1.26-.496 1.04-.605.99-.77 1.755-1.81.386-1.042.385-.44.272.055-.054-.385-.274-.438.383-.44.385-1.26.494-1.153-.164-.22-.057-.33.113-1.37-.055-.66-.165-.22.165-.275.055-1.646-.167-.22-.165-.932.22-.11.113-.274-.605-1.32-.22-.217-.165-.66-.768-1.425-1.427-2.03h-.603l-.55-.714-1.042-.66-3.128-1.096-3.732-.276m-4.99 1.043l.6.053-.165.33-.217-.11h-.33m-2.36-.22l.715.11v.385H259m5.927 0l.604.11h2.798l.385.055.714.11.162-.056.22.056.22.274.384-.11.328.056.442.384.712.054 2.028 1.428.88.933v.055l.272.55.548.326.058.06-.11.327.382.495-.165.275.44.767.22.11v.11l-.056.164.056.66.437 1.37.113.878-.054.11.053.055v.494l-.113.274.06.932-.224.22.277.55-.054.548-.224.493.11.66-.438.495v.33l-.44 1.26-1.043 1.538-.27.713-.385.494-2.526 1.702-.604.275-.77.054-.603.44-.986-.053-2.687.165-1.042-.11-.33.22h-.55l-.218-.11-.66-.054-1.427.11-.602-.11-.217-.165-.332.11-.05-.054-.44.274h-.274l-.22-.33-.328-.988.215-.878v-.603l-.216-1.315.105-1.318-.053-.603-.166-.275.165-.55.11-2.085-.11-1.316-.166-.496v-.054l.112-.22.162-1.32-.275-1.04v-.22l.112-.22.105-1.262v-2.58l-.106-.218-.223-.11.223-.218.105-.33v-1.81l.165-.604.22-.22 2.8.11.273-.22 1.703.22m8.67.824h.22v-.22h-.22m1.15.932h.275v-.22h-.275m1.92 2.58h.22v-.22h-.22m-.492 12.732l.218.11-.11.22h-.22m-17.118.712l.165-.22.437.33-.33.11M100.33 5.77h-1.214V3.85h1.214V.985h2.33V3.85h1.408v1.92h-1.408v4.56c0 .56.37.66 1.258.68l.15.004v2.126l-.146.007c-.27.01-.52.02-.752.02-.734 0-1.298-.088-1.775-.45-.688-.504-1.065-1.35-1.065-2.387m-3.615.148c0-.475-.383-.732-1.36-.913-1.993-.383-3.002-1.38-3.002-2.965 0-1.626 1.415-2.9 3.226-2.9 1.522 0 2.496.804 3.077 1.284l.135.112-1.387 1.283-.295-.205c-.656-.454-1.03-.655-1.518-.655-.655 0-1.046.448-1.046.88 0 .612.558.792 1.47 1.013l.006.158.037-.146c1.04.245 2.983.702 2.983 2.74 0 1.114-.73 3-3.465 3-1.967 0-2.925-1.126-3.387-1.67l-.103-.122 1.454-1.12.095.08c.437.37 1.032.88 1.97.88.51 0 1.107-.192 1.107-.732m-7.46-1.983v1.838c-.288.254-.985.848-1.622.848-.39 0-.81-.283-.81-.904 0-1.17 1.62-1.604 2.43-1.78m-4.55 1.948c0 1.62 1.29 2.47 2.564 2.47 1.032 0 1.708-.487 2.108-.85.03.16.067.354.128.593l.028.117h2.177l-.066-.202c-.126-.38-.264-1.176-.264-1.672V6.98c0-2.643-2.015-3.037-3.218-3.037-1.312 0-2.425.554-3.216 1.605l-.083.11 1.366 1.275.1-.15c.493-.73 1.1-1.1 1.804-1.1.684 0 1.124.46 1.124 1.17v.114c-2.897.286-4.554 1.55-4.554 3.482m-7.827 2.564H74.38V.27h2.567l4.342 7.95V.27h2.492v12.745h-2.418l-.043-.08-4.45-8.2M66.094 3.04H64.21L66.44.17h2.86m-4.52 7.16c.15-1.675 1.13-1.81 1.437-1.81.23 0 1.36.09 1.5 1.81m-1.44 5.833c2.232 0 3.1-1.764 3.39-2.348l.07-.142-1.792-.833-.153-.028-.066.135c-.19.39-.54 1.114-1.433 1.114-.422 0-1.398-.205-1.518-2.075h5.05l.008-.143c.05-.835.067-1.605-.216-2.583-.47-1.58-1.78-2.56-3.417-2.56-2.315 0-3.87 1.862-3.87 4.633 0 3.32 2.044 4.83 3.946 4.83M56.52 8.48c0-.973.186-2.61 1.423-2.61.44 0 .85.25 1.255.766v3.607c-.228.283-.627.75-1.24.75-1.397 0-1.437-2.254-1.437-2.512m.63 4.686c.967 0 1.65-.534 2.034-.922v.772h2.33V.086h-2.33v4.53c-.462-.47-1.133-.917-2.02-.917-1.827 0-3.152 1.995-3.152 4.747 0 2.733 1.32 4.717 3.138 4.717m-8.315-.15h-2.33V3.85h2.33v.988c.483-.473 1.338-1.137 2.62-1.137.91 0 1.996.42 1.996 2.418v6.898h-2.33v-6.35c0-.603-.173-.86-.58-.86-.49 0-.955.284-1.706 1.042M40.59 8.432c0-1.35.255-2.96 1.465-2.96 1.318 0 1.422 2.074 1.422 2.71 0 1.39-.252 3.043-1.45 3.043-1.298 0-1.438-1.954-1.438-2.793m1.464 4.73c1.867 0 3.75-1.476 3.75-4.78 0-4.243-2.768-4.7-3.96-4.7-2.178 0-3.584 1.85-3.584 4.717 0 3.29 1.905 4.762 3.795 4.762M28.417 6.85c0-4.15 1.984-6.83 5.055-6.83.018-.002.034-.002.054-.002 3.242 0 4.072 3.17 4.158 3.533l.03.14-2.35.744-.034-.165c-.36-1.678-1.385-1.93-1.964-1.93-2.22 0-2.333 3.674-2.333 4.41 0 1.836.555 3.977 2.124 3.977.496 0 1.718-.205 2.297-2.104l.045-.15 2.32.722-.052.214c-.146.614-.296 1.25-.83 1.993-.605.84-1.704 1.845-3.513 1.845-3.7 0-5.01-3.446-5.01-6.398m17.017 43.46V39.824c0-.014.09-1.326.832-2.148.402-.443 1.817-1.32 3.186-2.163 1.105-.683 2.158-1.333 2.77-1.804v16.18c-.02.217-.386 3.55-3.084 3.587h-.056c-2.9 0-3.62-3.068-3.648-3.165m3.864-35.376c-3.803.075-6.723 1.265-8.68 3.54-3.424 3.985-2.674 9.995-2.666 10.056l.02.13h8.086l-.002-5.838c.005-.04.553-4.098 3.125-4.098 2.565 0 2.914 3.847 2.917 3.874v5.765c-.35.546-2.19 1.944-2.88 2.446-.367.245-.76.52-1.26.877-.856.605-2.027 1.433-3.965 2.733-3.76 2.517-5.463 5.244-5.478 5.27-2.406 3.817-1.745 12.997-.422 15.545.676 1.296 2.734 4.313 7.23 4.313 3.827 0 6.495-2.063 7.315-2.786v2.29h7.648V28.53c0-4.892-1.275-8.56-3.786-10.906-3.096-2.89-7.043-2.7-7.203-2.69m119.448-.35v8h-2.765c-.045.002-5.286.286-5.323 3.83-.03 3.077 0 32.19 0 32.484v.153h-8.21V14.936h7.836v2.33c.98-.728 4.665-3.242 8.333-2.7m-51.2 44.486h7.898V0h-7.9M107.21 59.05h7.9V0h-7.9m28.215 33.977V24.42c0-.036-.053-3.697 1.53-5.312.492-.5 1.097-.755 1.8-.757.166.01 3.215.25 3.334 6.2.11 5.43.025 8.713.004 9.428m9.006 3.79l.008-.144c.49-9.306-1.2-15.94-5.023-19.72-3.348-3.305-7.177-3.094-7.223-3.092-12.934 1.618-12.214 18.535-12.205 18.688-.01.165-.94 16.554 5.493 23.155 1.797 1.844 4.014 2.778 6.594 2.778.13 0 .26 0 .39-.006 3.585-.13 6.425-1.4 8.446-3.777 4.516-5.31 3.414-14.474 3.403-14.566l-.016-.133h-8.628v9.734c-.003.028-.09 2.944-1.515 4.286-.47.444-1.042.668-1.702.668h-.11c-3.185-.118-3.584-4.914-3.587-4.95v-12.92m-45.207-3.79V24.42c0-.036-.056-3.697 1.53-5.312.49-.5 1.094-.755 1.797-.757.168.01 3.216.25 3.334 6.2.11 5.43.028 8.713.006 9.428m9.008 3.79l.007-.144c.494-9.306-1.196-15.94-5.022-19.72-3.348-3.305-7.175-3.094-7.223-3.092C80.718 16.43 81.44 33.346 81.447 33.5c-.01.165-.94 16.554 5.493 23.155 1.797 1.844 4.013 2.778 6.596 2.778.128 0 .258 0 .39-.006 3.582-.13 6.424-1.4 8.445-3.777 4.516-5.31 3.414-14.474 3.403-14.566l-.017-.133h-8.628v9.734c0 .028-.085 2.944-1.512 4.286-.472.444-1.044.668-1.702.668h-.11c-3.186-.118-3.584-4.914-3.587-4.95v-12.92m-7.5-22.156L74.73 59.05h-6.604l-8.523-43.74h8.53l.023.124 4.695 26.86 4.36-26.864h5.54m-45.355-.35l-.13-.02c-3.66-.545-7.353 1.972-8.333 2.7v-2.33h-7.835v43.494h8.208v-.152c0-.288.104-28.788 0-31.867-.117-3.54 5.275-3.823 5.323-3.824h2.767M26.56.486v5.783h-8.75V59.05H9.006V6.268h-9L0 .498"/></svg>