<svg xmlns="http://www.w3.org/2000/svg" viewBox="0 0 270 45.22"><title>HG-Video</title><path d="M16.51 26.62v-.57h.83c1.57 0 2.26-.09 2.65-.48s.61-1.26.61-4.78v-7.53H9.34v7.52c0 3.52.09 4.26.61 4.78s1.09.48 2.65.48h.83v.57H.29v-.57h.83c1.57 0 2.26-.09 2.65-.48s.61-1.26.61-4.78V6.35c0-3.52-.09-4.26-.61-4.78s-1.09-.48-2.65-.48H.29V.52h13.13v.57h-.82c-1.57 0-2.26.09-2.65.48s-.61 1.26-.61 4.78v6.22H20.6V6.35c0-3.52-.09-4.26-.61-4.78s-1.09-.48-2.65-.48h-.83V.52h13.14v.57h-.83c-1.57 0-2.26.09-2.65.48s-.61 1.26-.61 4.78v14.44c0 3.52.09 4.26.61 4.78s1.09.48 2.65.48h.83v.57zm25.27.52c-7.65 0-12.61-6.13-12.61-13.87C29.17 7.7 32.78 0 41.43 0 49.22 0 54 6.18 54 13.39c0 9.49-6.31 13.75-12.22 13.75zM41.43.61c-5 0-7 5.39-7 12.61 0 8.31 2.09 13.31 7.31 13.31 4.87 0 7.13-5.13 7.13-13.74C48.82 7 47 .61 41.43.61zM76.31 7v9.79c0 4.13-.35 5.44-1 6.83s-2.83 3.48-7.13 3.48c-9.52 0-10.48-5.78-10.48-9.39V8.39c0-5.31-.09-6-.61-6.74-.35-.48-1.09-.57-2.26-.57h-1.27V.52H66.7v.57h-1.22c-1.17 0-1.91.09-2.26.57-.52.7-.61 1.44-.61 6.74v10c0 5.18 2 8 6.39 8a6.42 6.42 0 0 0 5.65-3.13c.74-1.52.87-2.61.87-6.39V7c0-4.13-1-5.78-4.13-6V.52h9v.57c-3.08.17-4.08 1.82-4.08 5.91zm14.31 20.14c-4.52 0-6.13-2.52-8.39-2.52-1 0-1.52.87-1.61 2H80V15.44h.57c.57 5 3.83 11.09 9.92 11.09 3.91 0 6.09-2.39 6.09-5.22 0-7.44-16.22-3.39-16.22-13.87A7.34 7.34 0 0 1 88 0c4 0 6.35 2.44 7.83 2.44.91 0 1.3-.7 1.35-1.91h.57v9.39h-.57C96.18 4.09 92.62.61 88 .61a4.67 4.67 0 0 0-5 4.57c0 6.74 16.48 3.7 16.48 13.66a8.37 8.37 0 0 1-8.86 8.3zm9.13-.52v-.57h.83c1.57 0 2.3-.17 2.65-.57.57-.61.61-1.74.61-4.7V6.35c0-3.31-.09-4.09-.61-4.7-.35-.39-1.09-.57-2.65-.57h-.83V.52h21.35v8.57h-.57c-.57-5-3.22-8-8-8h-3.7v11.26h1.13c4.65 0 5.65-2.39 6-5.65h.57V19h-.57c-.43-4.91-2.3-5.83-5.61-5.83h-1.55v12.88h3.83c5.26 0 8.26-4 8.57-9.35h.57v9.92zM13.14 45.17a4.14 4.14 0 0 1-3.21-1.63 6.63 6.63 0 0 1-4.34 1.63c-3.9 0-5.59-2.55-5.59-4.79a5.05 5.05 0 0 1 4-4.74 7.48 7.48 0 0 1-1.45-4c0-2 1.53-3.59 4.39-3.59 2 0 3.53 1.28 3.53 3 0 1.58-1 3.08-3.29 4A68.87 68.87 0 0 0 11.56 41a7.74 7.74 0 0 0 1.85-4.12c0-.91-.78-1.31-2.06-1.31v-.46H17v.46c-1.79.11-2.46.64-3.13 2.41a11 11 0 0 1-1.93 3.45c1.1 1.26 1.61 1.69 2.46 1.69 1.66 0 2.38-2 2.41-3.53h.51c-.06 2.47-1.02 5.58-4.18 5.58zm-8.86-9a2.48 2.48 0 0 0-1.39 2.41c0 2.81 1.9 5.43 4 5.43a4 4 0 0 0 2.6-.94 70.45 70.45 0 0 1-5.21-6.92zm2.86-7.52c-1.45 0-1.93 1.1-1.93 2.17 0 .75.24 1.69 1.61 3.8a3.37 3.37 0 0 0 2.33-3.37c0-1.77-.96-2.62-2-2.62zM35.35 38a4.43 4.43 0 0 0-.35 2.48v4.36h-.62c-.46-1.15-1.15-1.53-1.77-1.53-1.18 0-1.74 1.9-4.6 1.9-4.74 0-7.49-4.12-7.49-8.43 0-4.5 2.62-8.54 7.84-8.54 2.54 0 3.77 1.5 4.55 1.5.48 0 .8-.59.88-1.39h.51v5.91h-.54c-.54-2.7-2.09-5.49-5.22-5.49-2.89 0-4.31 2.89-4.31 7.95 0 3.91.62 7.9 3.91 7.9 2.52 0 3.37-2 3.37-4s-.13-2.33-.35-2.57-.67-.35-1.63-.35h-.24v-.51H37v.51c-1-.03-1.43.08-1.65.3zm10.09 6.82v-.51h.21c1 0 1.5-.27 1.5-.86a2.82 2.82 0 0 0-.27-1.07l-1.1-2.52h-5.34l-.72 1.82a4.53 4.53 0 0 0-.32 1.36c0 .78.56 1.23 1.87 1.26v.51H36v-.51c1.77-.05 2.36-.83 3.13-2.84l5.11-13h.35l5.59 12.9c1 2.36 1.45 2.86 2.94 3v.51zM43 33.36l-2.33 6h4.9zm24.78 11.7a3 3 0 0 1-3.35-3.18c0-1 .16-1.85.16-2.62 0-1.77-.88-2.68-3.21-2.68h-1.94v1.85c0 4.87.08 5.22.37 5.57s.67.35 1.63.35h.24v.51h-7.94v-.51H54c1 0 1.42-.11 1.63-.35s.37-.7.37-5.57v-3.22c0-4.87-.08-5.22-.37-5.57s-.67-.35-1.63-.35h-.51v-.51h9.45c5 0 5.67 2.62 5.67 3.85s-.35 3.53-4.79 3.69c2.46.48 4.28 2.06 4.28 4.42 0 1.07-.11 1.82-.11 2.33s.16.94.7.94C69.82 44 70 42.38 70 40.7h.51c.01 2.38-.23 4.36-2.75 4.36zm-6-15.76h-2.33V36h2.44c2.52 0 3.32-1.39 3.32-3.4a3.16 3.16 0 0 0-3.44-3.3zm17.54 15.55h-8.53v-.51h.51c1 0 1.42-.11 1.63-.35s.37-.7.37-5.57v-3.21c0-4.87-.08-5.22-.37-5.57s-.67-.35-1.63-.35h-.51v-.51h8.06c6.5 0 8.64 4.79 8.64 7.9 0 4.23-2.28 8.17-8.17 8.17zm-.54-15.52h-2v14.95h1.9c3.77 0 5.22-2.86 5.22-7.63-.03-4.97-2.03-7.33-5.11-7.33zm9.29 15.52v-.51h.51c1 0 1.42-.11 1.63-.35s.37-.7.37-5.57v-3.21c0-4.87-.08-5.22-.37-5.57s-.67-.35-1.63-.35h-.51v-.51h14.1v5.49h-.51c-.46-3.29-2.52-5-5.14-5H94V36h.54c2.52 0 3.26-1.58 3.48-3.72h.51v8.11h-.51c-.29-3.08-1.39-3.83-3.37-3.83H94v7.71h2.7c2.94 0 4.82-2.09 5.38-5.91h.48v6.45zM119.25 33v11.85H118l-10.66-13.44v9.26c0 2.49.64 3.56 2.52 3.67v.51h-5.7v-.51c1.87-.11 2.52-1.18 2.52-3.67V30.58a2.52 2.52 0 0 0-2.33-1.28v-.51h5.17l9.07 11.53V33c0-2.65-.67-3.61-2.62-3.72v-.51h5.81v.51c-1.88.12-2.53 1.19-2.53 3.72zm13.87-25.69c-.18-.36 0-.59.36-.59h1.23a.53.53 0 0 1 .5.32l12.26 28.19h.09L160 7a.53.53 0 0 1 .5-.32h1.18c.41 0 .59.27.41.64l-13.98 31.23a.59.59 0 0 1-.54.41h-.23a.6.6 0 0 1-.5-.41zm34.09 0a.6.6 0 0 1 .59-.59h1a.6.6 0 0 1 .59.59v30.6a.61.61 0 0 1-.64.59h-1a.6.6 0 0 1-.59-.59zm11.8 0a.59.59 0 0 1 .55-.59h9.62a15.89 15.89 0 1 1 0 31.78h-9.62a.59.59 0 0 1-.55-.59zm9.81 29.24a13.78 13.78 0 0 0 14.07-14 13.76 13.76 0 0 0-14.06-13.88h-7.67v27.88zm23.7-29.24a.6.6 0 0 1 .59-.59h18.2a.6.6 0 0 1 .59.59v.77a.6.6 0 0 1-.59.59H214.7V21.2h14.4a.6.6 0 0 1 .59.59v.77a.6.6 0 0 1-.59.59h-14.4v13.44h16.62a.6.6 0 0 1 .59.59v.73a.6.6 0 0 1-.59.59h-18.2a.6.6 0 0 1-.59-.59zm41.08-1a16.34 16.34 0 1 1-16.34 16.39 16.32 16.32 0 0 1 16.35-16.43zm0 30.69a14.35 14.35 0 1 0-14.35-14.3A14.32 14.32 0 0 0 253.61 37zM250 17.83v9.55l9.55-4.78z"/></svg>