<svg id="Layer_1" data-name="Layer 1" xmlns="http://www.w3.org/2000/svg" viewBox="0 0 20 14.07"><defs><style>.cls-1{fill:#dfded9;}.cls-1,.cls-2{fill-rule:evenodd;}.cls-2{fill:#231f20;}</style></defs><title>youtube-20x20</title><path class="cls-1" d="M12.67 7.17L7.93 4.01l5.41 2.82-.67.34"/><path class="cls-2" d="M19.8 3.03a4.33 4.33 0 0 0-.8-2 2.86 2.86 0 0 0-2-.85c-2.8-.15-7-.15-7-.15s-4.2 0-7 .2a2.86 2.86 0 0 0-2 .8 4.33 4.33 0 0 0-.8 2A30.25 30.25 0 0 0 0 6.27v1.52a30.25 30.25 0 0 0 .2 3.24 4.33 4.33 0 0 0 .8 2 3.39 3.39 0 0 0 2.21.85c1.59.15 6.79.15 6.79.15s4.2 0 7-.21a2.86 2.86 0 0 0 2-.79 4.33 4.33 0 0 0 .8-2 30.29 30.29 0 0 0 .2-3.24V6.27a30.29 30.29 0 0 0-.2-3.24zM7.94 9.62V4.03l5.4 2.82z"/></svg>