<svg viewBox="0 0 20 20"><title>WhatsApp</title><path d="M14.68 11.74c-.24-.11-1.42-.74-1.68-.74s-.38-.12-.54.12-.62.77-.76.94-.28.18-.52.06a6.62 6.62 0 01-1.94-1.22 7.14 7.14 0 01-1.31-1.66c-.14-.24 0-.37.1-.48l.36-.42a1.61 1.61 0 00.24-.4.44.44 0 000-.42c-.06-.12-.54-1.3-.74-1.76s-.4-.4-.54-.4h-.46a.87.87 0 00-.64.3 2.64 2.64 0 00-.84 2 4.6 4.6 0 001 2.46 9.85 9.85 0 004.11 3.59c2.45 1 2.45.64 2.89.6A2.43 2.43 0 0015 13.15a2 2 0 00.14-1.15c-.06-.08-.22-.14-.46-.26z"/><path d="M10.17 0A9.81 9.81 0 00.36 9.8a9.62 9.62 0 001.41 5L0 20l5.44-1.72A9.84 9.84 0 0020 9.78 9.81 9.81 0 0010.17 0zm-4.5 16.56l-3.17 1 1-3a8 8 0 01-1.57-4.78 8.22 8.22 0 018.21-8.16h.08a8.22 8.22 0 018.25 8.17 8.26 8.26 0 01-12.8 6.81z"/></svg>