<svg id="Layer_66" data-name="Layer 66" xmlns="http://www.w3.org/2000/svg" viewBox="0 0 20 20"><defs><style>.cls-1{fill:#010101;}</style></defs><title>figure-googleplus</title><path class="cls-1" d="M0,9.65A6.34,6.34,0,0,0,11.26,14a7.45,7.45,0,0,0,1.12-4.87H6.27v2.12H10c-.5,2.62-4.12,3.5-6.12,1.75A4,4,0,0,1,4,6.78,4.32,4.32,0,0,1,9,6.9a19.89,19.89,0,0,0,1.62-1.62A6.65,6.65,0,0,0,6.39,3.66,6.41,6.41,0,0,0,0,9.65ZM16.38,7.28V9.15H14.51V10.9h1.87v1.75h1.75V10.78H20V9H18.13V7.15A7.68,7.68,0,0,1,16.38,7.28Z"/><path class="cls-1" d="M0,9.65a6.32,6.32,0,0,1,6.37-6,6,6,0,0,1,4.24,1.62L9,6.9a4.32,4.32,0,0,0-5-.12,4.05,4.05,0,0,0-.12,6.37C5.77,14.9,9.51,14,10,11.27H6.39V9.15h6.12A7.54,7.54,0,0,1,11.26,14,6.18,6.18,0,0,1,4,15.89,6.29,6.29,0,0,1,0,9.65Z"/><path class="cls-1" d="M16.38,7.28h1.75V9.15H20V10.9H18.13v1.87H16.38V11H14.51V9.28h1.87Z"/></svg>