<svg xmlns="http://www.w3.org/2000/svg" viewBox="0 0 20 20"><title>figure-youtube</title><path class="cls-1" d="M12.67,10.14,7.93,7l5.41,2.8-.67.34"/><path d="M19.8,6A4.33,4.33,0,0,0,19,4a2.86,2.86,0,0,0-2-.85C14.2,3,10,3,10,3S5.8,3,3,3.2A2.86,2.86,0,0,0,1,4,4.33,4.33,0,0,0,.2,6,30.25,30.25,0,0,0,0,9.24v1.52A30.25,30.25,0,0,0,.2,14,4.33,4.33,0,0,0,1,16a3.39,3.39,0,0,0,2.21.85C4.8,17,10,17,10,17s4.2,0,7-.21A2.86,2.86,0,0,0,19,16a4.33,4.33,0,0,0,.8-2,30.29,30.29,0,0,0,.2-3.24V9.24A30.29,30.29,0,0,0,19.8,6ZM7.94,12.59V7l5.4,2.82Z"/></svg>