<svg id="Layer_1" data-name="Layer 1" xmlns="http://www.w3.org/2000/svg" viewBox="0 0 20 20"><defs><style>.cls-1{fill:#231f20;fill-rule:evenodd;}</style></defs><title>instagram-20x20</title><path class="cls-1" d="M10,0C7.28,0,6.94,0,5.88.06A7.34,7.34,0,0,0,3.45.53,4.9,4.9,0,0,0,1.68,1.68,4.9,4.9,0,0,0,.52,3.45,7.34,7.34,0,0,0,.06,5.88C0,6.94,0,7.28,0,10s0,3.06.06,4.12a7.34,7.34,0,0,0,.46,2.43,4.9,4.9,0,0,0,1.15,1.77,4.9,4.9,0,0,0,1.77,1.15,7.34,7.34,0,0,0,2.43.46C6.94,20,7.28,20,10,20s3.06,0,4.12-.06a7.34,7.34,0,0,0,2.43-.46,5.11,5.11,0,0,0,2.92-2.92,7.34,7.34,0,0,0,.46-2.43c0-1.07.06-1.41.06-4.12s0-3.06-.06-4.12a7.34,7.34,0,0,0-.46-2.43,4.9,4.9,0,0,0-1.15-1.77A4.9,4.9,0,0,0,16.55.53,7.34,7.34,0,0,0,14.12.06C13.06,0,12.72,0,10,0m0,1.8c2.67,0,3,0,4,.06a5.53,5.53,0,0,1,1.86.34A3.1,3.1,0,0,1,17,3,3.1,3.1,0,0,1,17.8,4.1,5.53,5.53,0,0,1,18.14,6c0,1.05.06,1.37.06,4s0,3-.06,4a5.53,5.53,0,0,1-.34,1.86,3.31,3.31,0,0,1-1.9,1.9,5.53,5.53,0,0,1-1.86.34c-1.05,0-1.37.06-4,.06s-3,0-4-.06A5.53,5.53,0,0,1,4.1,17.8,3.1,3.1,0,0,1,3,17,3.1,3.1,0,0,1,2.2,15.9,5.53,5.53,0,0,1,1.86,14c0-1.05-.06-1.37-.06-4s0-3,.06-4A5.53,5.53,0,0,1,2.2,4.1,3.1,3.1,0,0,1,3,3,3.1,3.1,0,0,1,4.1,2.2,5.53,5.53,0,0,1,6,1.86c1.05,0,1.37-.06,4-.06"/><path class="cls-1" d="M10,13.33A3.33,3.33,0,1,1,13.33,10,3.33,3.33,0,0,1,10,13.33Zm0-8.47A5.14,5.14,0,1,0,15.14,10,5.14,5.14,0,0,0,10,4.86Z"/><path class="cls-1" d="M16.54,4.66a1.2,1.2,0,1,1-1.2-1.2,1.2,1.2,0,0,1,1.2,1.2"/></svg>