<svg id="Layer_1" data-name="Layer 1" xmlns="http://www.w3.org/2000/svg" viewBox="0 0 32.69 28.94"><defs><style>.cls-1{fill:none;clip-rule:evenodd;}.cls-2{clip-path:url(#clip-path);}.cls-3{fill:#131313;}</style><clipPath id="clip-path" transform="translate(6.34 4.47)"><path class="cls-1" d="M18 5.92v.53A11.59 11.59 0 0 1 6.29 18.13 11.62 11.62 0 0 1 0 16.28a8.24 8.24 0 0 0 1 .06 8.22 8.22 0 0 0 5.1-1.76 4.1 4.1 0 0 1-3.83-2.85 4.11 4.11 0 0 0 1.85-.07 4.1 4.1 0 0 1-3.29-4 4.11 4.11 0 0 0 1.86.51 4.11 4.11 0 0 1-1.3-5.55 11.65 11.65 0 0 0 8.46 4.29 4.11 4.11 0 0 1 7-3.74 8.2 8.2 0 0 0 2.61-1 4.11 4.11 0 0 1-1.8 2.27A8.22 8.22 0 0 0 20 3.8a8.31 8.31 0 0 1-2 2.12"/></clipPath></defs><title>twitter-20x20</title><path class="cls-2 cls-3" d="M0 0h32.69v28.94H0z"/></svg>