<svg viewBox="0 0 20 20"><title>WhatsApp</title><path d="M15.14 12c-.06-.1-.22-.16-.46-.28S13.26 11 13 10.93s-.38-.12-.54.12-.62.77-.76.94-.28.18-.52.06a6.62 6.62 0 01-1.94-1.18 7.16 7.16 0 01-1.31-1.66c-.14-.24 0-.37.1-.48s.24-.28.36-.42a1.62 1.62 0 00.24-.4.44.44 0 000-.42c-.06-.12-.54-1.3-.74-1.77s-.4-.4-.54-.4h-.46a.87.87 0 00-.64.3 2.65 2.65 0 00-.84 2 4.62 4.62 0 001 2.47 9.86 9.86 0 004.11 3.6c2.45 1 2.45.64 2.89.6A2.43 2.43 0 0015 13.13a2 2 0 00.14-1.13m-5-10.43a8.23 8.23 0 00-8.21 8.18 8.09 8.09 0 001.57 4.8l-1 3 3.17-1a8.26 8.26 0 0012.8-6.83 8.23 8.23 0 00-8.25-8.19M20 9.75a9.83 9.83 0 01-14.56 8.52L0 20l1.77-5.23a9.67 9.67 0 01-1.41-5A9.82 9.82 0 0120 9.75" fill="#231f20" fill-rule="evenodd"/></svg>