<svg viewBox="0 0 20 20"><title>Pinterest</title><path d="M10 0a10 10 0 00-4 19.16 8.76 8.76 0 01.17-2.3l1.29-5.45a2.36 2.36 0 01-.32-1.58c0-1.48.86-2.59 1.93-2.59a1.34 1.34 0 011.35 1.5 21.53 21.53 0 01-.88 3.55 1.55 1.55 0 001.58 1.93c1.9 0 3.17-2.43 3.17-5.32 0-2.19-1.48-3.83-4.16-3.83a4.74 4.74 0 00-4.95 4.52v.27a2.89 2.89 0 00.66 2 .48.48 0 01.14.56l-.2.8a.34.34 0 01-.38.29h-.12c-1.4-.57-2-2.1-2-3.82 0-2.84 2.4-6.25 7.15-6.25 3.82 0 6.33 2.76 6.33 5.73 0 3.92-2.18 6.85-5.4 6.85a2.87 2.87 0 01-2.49-1.32c-.58 2.3-.58 2.3-.71 2.75a8.4 8.4 0 01-1 2.14A10 10 0 1010 0"/></svg>