<svg xmlns="http://www.w3.org/2000/svg" viewBox="0 0 504.89 75.06"><defs><style>.cls-1{fill:#1d1d1b}</style></defs><path class="cls-1" d="M80.29 28.7c.7-.42 6.93-1.82 6.93-10.15 0-11.41-10.85-12.81-17.78-12.81H37v49.42h31.67c6.65 0 14.7-.07 18.9-6.44a12.9 12.9 0 0 0 2.1-7.35c0-7.28-4.48-11.13-9.38-12.67zM44.07 11.41H68.6c2.73 0 5.6 0 8.05 1.54a7 7 0 0 1 3.29 6 7.83 7.83 0 0 1-1.33 4.48c-2.1 3-5.53 3.08-8.75 3.08H44.07zm36.64 34.5c-2.45 3.15-6.3 3.5-9.94 3.5h-26.7V32.27h26.7c3.78 0 7.77.21 10.15 3.64a8.13 8.13 0 0 1 1.4 5 8 8 0 0 1-1.61 5zm106.44-5.66c0 7.49-5 16.1-24.22 16.1-11.2 0-22.86-3-27.86-11.2l6.54-2.63a18.28 18.28 0 0 0 7.84 5.48 38.81 38.81 0 0 0 14.21 2.38c2.38 0 8.82 0 13.23-3.36a8.43 8.43 0 0 0 3.37-6.68c0-6.3-7-7.35-12.74-7.84l-7.56-.7c-9.66-.91-14.07-1.26-17.71-4.62a10.56 10.56 0 0 1-3.5-8.26 12.33 12.33 0 0 1 6.86-11.2c2.94-1.61 8.31-3.22 16.31-3.22 14.91 0 21.56 5.46 24.71 9.94L180.19 17c-4.41-4.13-9.38-6.72-18.2-6.72-7.35 0-16.24 1.61-16.24 8.26 0 5.32 5 6.16 10 6.65L171 26.67c10.15.98 16.15 5.46 16.15 13.58zM141.41 5.74L116.42 36v19.16h-6.93V35.91L84.85 5.74h9L113 30l19.41-24.26zm241.43 4c-6.16-4-11.76-4-16.94-4h-24.58v49.42h19.75c8.26 0 16.87-.21 23.59-5.88 5.6-4.69 8.33-12 8.33-19.18.01-8.19-3.22-15.82-10.15-20.37zm-3.07 34.72c-4.83 4.27-10.36 4.76-16.38 4.76h-15.07V11.55h17.5a31 31 0 0 1 7.63.7c8.19 2.17 12.25 9.45 12.32 17.57 0 2.38-.35 9.66-6 14.63zm23.81 4.62h40.33v6.09h-47.33V5.74h45.57v6.09h-38.57v14.7h37.59v5.88h-37.59zM505 55.16zM234.51 11.62h-20.23v43.54h-7V11.62h-20.16V5.74h47.39zM329 5.74h6.72v49.42h-6.79l-38.76-40.88s.14 37.24.14 40.88h-6.72V5.74h7.21l38.36 40.81S329 8.26 329 5.74zm-79.8 0l-25.67 49.42h7.91l6-12.18h30.38l6 12.18H282L256.64 5.74zm-8.8 31.57l12.32-24.5 12.11 24.5zm251.67-4.41c7.42-3.08 8-10 8-12.67 0-6.79-3.78-12-10.43-13.72a26.26 26.26 0 0 0-7.84-.77h-33.73v49.42h7.07V35.35h23.93l16.73 19.81h9.11l-18.25-20.93a22.67 22.67 0 0 0 5.41-1.33zm-37-3.36V11.62h27.16c3.85 0 7.14.35 9.24 4.06a9.32 9.32 0 0 1 1.26 4.83 8.08 8.08 0 0 1-1.82 5.39c-2.73 3.5-7.42 3.64-11.41 3.64z" transform="translate(-.08)" id="Layer_1" data-name="Layer 1"/><path d="M37.07 71.88l1 .37-.68.78a7 7 0 0 1-1.85 1 21.11 21.11 0 0 1-2.66-.74 18.67 18.67 0 0 0-2.81-.37c-.51.07-2.07.66-2.51.66s-.74-1.26-.74-1.26V70.4l-.52-1.77-1.63-1.77-3.1-2.66-2.81-3.2-1.36-3.17-.59-4.21-3.81-1.4-2.81 1.11.59 5 .15 7.39.22 1.77 1.33 1.26a18 18 0 0 1 1 2.44c.22.92-1.93 1.62-2.37 1.92a7.92 7.92 0 0 1-2.66 0A4.86 4.86 0 0 1 7.76 72a16.69 16.69 0 0 1 .81-2l-1.14-4.17-2.14-6.65-.22-3.4.69-2.51 1.11-1.78 12.88-3.33.89.07 1 1.77-.07 2.45.67 2.44 2.14 4.66 2.29 4.06 3.1 3.69 1.57 1.55 2.14 1.63.67.52 1 1.18zm2-56.66l-1.29-.81-.07-.74-1-.81 2-2.44V9.9L38 9.83v-.74l-.68-.45v-.47l-1-.59-.22-1-.61-.29-.07-1-.07-.89h-.81l-.54 1 .3 1.55-.52 2.44-.07 1.77.22.81-1 .22-.37.81v1.19l.52 2.29-6.78 2.41.22-.89.55-.93-.37-.48L26 16v-.78l-1.77-.52-1-.89v-.59L24.3 13l1.11-.12.22-.59-.3-.52.22-.37.3-.81.52-.59H27v-.69l-1.51-1.63.22-1.33.36-1.55s-3.83-.59-4.13-.59-6.43 2.29-6.43 2.29l1.36 6.42-10 3.25L4 8.27l-.6-.36 2.67 8.42 16.64 4.33L36.38 19l1.26.22 1 .15.37-.67.15-1.33.07-.59.22-.74z" transform="translate(-.08)" fill="#fffdee" id="Layer_4" data-name="Layer 4"/><path d="M6.14 26.93a1 1 0 0 1 .44-.09 1.46 1.46 0 0 0 .25-.19.53.53 0 0 1 .25.2c0 .09 0 .09-.06.09H6.8a1.37 1.37 0 0 1-.66-.01zm30.37-9.58a3.64 3.64 0 0 0-.8-1 9.34 9.34 0 0 0-2.51-1.55 1 1 0 0 0-1.21.11 12.45 12.45 0 0 1-2.07 2.83 14.19 14.19 0 0 0 1.64.74 7.26 7.26 0 0 1 1.23.71c.81.59 1.12 1.49 1.85 2.07a.93.93 0 0 0 .83-.38c.38-.39.87-.45 1.22-.84a.5.5 0 0 0 .13-.24 3.94 3.94 0 0 0-.31-2.45zm-31 3.14a.32.32 0 0 0 .38 0 3.32 3.32 0 0 1-1.09-1.41c-.09-.23 0-.74.3-.53s.37.74.71 1a4.75 4.75 0 0 0 1.7 1 1.09 1.09 0 0 0 .38.08c-.74-1-1.67-2.09-1.22-3.08a1.45 1.45 0 0 1 .33-.38c.41.14.74.39 1.16.52h.18c.01 0 .15-.45.34-.35s.46.32.71.45a9 9 0 0 1-.11-1.88.16.16 0 0 1 .18-.13h.06a.88.88 0 0 1 .21.37 2.81 2.81 0 0 0 .8.42s.1-.07.06-.1a2.49 2.49 0 0 1-1.3-2.06s-.07-.19-.16-.12a2.86 2.86 0 0 0-.2 1.16c-.12.41.19.91 0 1.26s-.5-.11-.53-.38c0-.07-.26-.87-.27-.9a.1.1 0 0 0-.14 0c-.08.6.22 1.09.13 1.6a.21.21 0 0 1-.24.11 3.57 3.57 0 0 0-1-.49 1 1 0 0 0-.6.9c-.24.48.18 1 0 1.48-.67 0-.9-1-1.12-1.32s-.82.77-.82 1.18a1.92 1.92 0 0 0 1.13 1.6zm5.34-5.61a1.74 1.74 0 0 0-.18-.28.55.55 0 0 0-.32-.18.2.2 0 0 0-.13.3c.03.15.45.36.59.16zm-6.65 9.2a.85.85 0 0 0 .66-.5 16.62 16.62 0 0 1 .94-1.67c.08-.09.14-.39-.06-.41s-1.17.83-1.33.18c-.26.28-.67.51-.93.81a.07.07 0 0 0 0 .1h.05a5.73 5.73 0 0 1 1.25-.34c.23 0 .09.41 0 .65-.07.49-.57.69-.58 1.18zm0-3.08a.62.62 0 0 1 .44.28c.08.13-.16.35 0 .34a1.42 1.42 0 0 0 .36-.44 1.87 1.87 0 0 0-.42-.49 3.57 3.57 0 0 0-.43-.42 10 10 0 0 1-1.59-.56.07.07 0 0 0-.06.08A3.26 3.26 0 0 0 4.15 21zm.06 6.09c.11.06-.14-.09-.14-.09-.26-.27-1-.25-.8-.67a2.22 2.22 0 0 1 .94-.69 4.71 4.71 0 0 0 1.51-1.85.81.81 0 0 0 .1-.41 10 10 0 0 1-3.14 3 3 3 0 0 0 1.48.71zm3-.28a.8.8 0 0 0 .87-.31 19.15 19.15 0 0 0 .83-2.69c0-.35-.35.16-.65.1a.08.08 0 0 0 0-.11 1.52 1.52 0 0 1-.54-.15c-.08-.08.08-.46 0-.55a.57.57 0 0 1-.2-.21 2.41 2.41 0 0 0 0-.49l-.2.12A5.88 5.88 0 0 1 5 26.26v.11a6.58 6.58 0 0 1 .77-.08 2.42 2.42 0 0 1 .87-.29s.06.15.11.17a1.57 1.57 0 0 1 .39 0l.18.18c.06 0 .22 0 .25.07s-.27.29-.37.39zm-.91 2.6c0-.21-.26-.15-.44-.19H5.9a.59.59 0 0 0-.75.35v.18c.49 0 .52.23.76.19a2.78 2.78 0 0 0 .38-.53zM4.53 32.9zm.47-.7c.19-.47.41-.89.64-1.34a.59.59 0 0 0 .14-.42 1.06 1.06 0 0 0-.89-.32 14.06 14.06 0 0 0-1.52 1.55 2.48 2.48 0 0 0-.67.91c.79.08 1.22.24 1.86.32a.85.85 0 0 0 .44-.7zm25.23-12.91A2 2 0 0 1 31 20c.1.18.11.61-.18.47-.69-.33-1-1.18-1.4-1.09s0 .87.15 1.28a5.22 5.22 0 0 0 0-.57c.29-.3.43.21.52.41a7.33 7.33 0 0 1 .46 1.5 2 2 0 0 1 .44.86.24.24 0 0 1-.32.13 4 4 0 0 1-1.34-1.42c-.6-.81-.64-1.85-1.28-2.64-.17-.21-.72-.17-.69.13a4.92 4.92 0 0 0 .48 1 .17.17 0 0 1-.25.23 12.84 12.84 0 0 1-1-1.42 3.15 3.15 0 0 0-.82-.49c-.31-.18-.83.06-1-.27a5.32 5.32 0 0 0-3.45-2.77.48.48 0 0 1-.37-.51c0-.1.13-.08.18 0a1.54 1.54 0 0 0 1 .39.33.33 0 0 0 .17-.35.82.82 0 0 0-.53-.65q-.81-.45-1.66-.81a2.77 2.77 0 0 0-1.6 0 1.14 1.14 0 0 0-.48.26 1.63 1.63 0 0 1-1.5.44.27.27 0 0 0-.25.16 11.26 11.26 0 0 1-2.17 4.11s-.16 0-.17-.06c0-.61.48-1.54-.16-1.84a2.15 2.15 0 0 1-1.27-.76c-.16-.45.46-.88.77-1.31a.07.07 0 0 0 0-.1.82.82 0 0 0-.51.31 16.61 16.61 0 0 0-2.87 6.63c.12 2.13-.84 4.11-1.44 6.1.61.28.25 1.1-.19 1.32a.37.37 0 0 1-.5-.12 13.46 13.46 0 0 0-2.29 4.6 8.53 8.53 0 0 0-.51 4c0 .18.13 0 .14-.06A66.22 66.22 0 0 1 7.74 30a.18.18 0 0 1 .16 0 .87.87 0 0 1-.1.69 8.14 8.14 0 0 0-.73 2.44 34 34 0 0 0-1 9.09c0 .64-.21 1.28-.18 1.93.1 2.48-.13 4.92-.26 7.37a.48.48 0 0 0 .37.38 14.9 14.9 0 0 0 5.51 1.1c.43-1.59.29-3.29 1-4.81 0 0 .1 0 .1.06a24.44 24.44 0 0 1-.35 3.22s.09.1.1.06c.83-2.4.75-4.86 1.46-7.32a.61.61 0 0 1 .25-.48.08.08 0 0 1 .1 0c-.14 2.83-1 5.56-1.25 8.37 0 .29.48.33.77.36a10.75 10.75 0 0 1 3.8.93c.33.17.49-.34.63-.6a6.34 6.34 0 0 0 .2-.69c.17-.44.4-.85.58-1.29.3-.7.45-1.46.78-2.15a19.14 19.14 0 0 0 1.12-3c.52-1.88.92-3.63 1.48-5.48.41-1.38.72-2.67 1-4.07a34.24 34.24 0 0 0 1-9.34c-.11.15 0 .36-.16.5a.38.38 0 0 1-.54 0 1.55 1.55 0 0 1-.26-.57c-.48.88-.75 1.84-1.2 2.74a.12.12 0 0 1-.17 0 .54.54 0 0 1 0-.5 22.9 22.9 0 0 0 .9-4h-.12a4.08 4.08 0 0 0-.85 1 4.2 4.2 0 0 1-.94 1.23c-.07.06-.16-.1-.15-.11.44-1 1.26-1.77 1.28-2.88a.34.34 0 0 0-.22-.24 1.11 1.11 0 0 1-1.06-.9 7.8 7.8 0 0 1 3.4.57 9 9 0 0 1 2.24.88 7.79 7.79 0 0 0 2.25 1.11 5.34 5.34 0 0 0 1.53.12 1.16 1.16 0 0 0 .78-.59 16.14 16.14 0 0 0 1.69-2.37 10.33 10.33 0 0 1 .83-1.09.27.27 0 0 0 0-.24 4 4 0 0 0-1.11-1.58 2.6 2.6 0 0 0-2.17-.56zM3.54 36.14c0-.14-.23-.14-.36-.14a.74.74 0 0 0-.52.23 5 5 0 0 0-.15 1.48c-.09 1-.11 1.9-.12 2.85A16.61 16.61 0 0 0 2.5 43a5.27 5.27 0 0 0 .35-1.31c.17-1 .22-1.88.33-2.83s.32-1.8.36-2.72zm.83-.5a3.2 3.2 0 0 0-.29 1A18.73 18.73 0 0 0 4 39.23c0 .47-.09.93-.06 1.4A8.09 8.09 0 0 0 4.07 42a.87.87 0 0 0 .11-.43 2.38 2.38 0 0 1 .31-.91 1.84 1.84 0 0 0-.13-1c-.21-1.42.39-2.66.01-4.02zm-2.19 9.63c-.41.06-.16-.61-.33-.87a2 2 0 0 0-.24.63 1.31 1.31 0 0 0-.27.69 2 2 0 0 0 1 .74.26.26 0 0 0 .18-.17 5.29 5.29 0 0 0 .27-1.73 1.69 1.69 0 0 1-.61.71zm1.22 1.12a12.34 12.34 0 0 0 .18-1.61c-.35.47-.14 1.11-.56 1.68a.16.16 0 0 0 0 .23H3c.19.09.33-.11.34-.31zm-2.22-4a12.9 12.9 0 0 0-.47 1.48 1.9 1.9 0 0 0 .17.26c.06.13 0 .32.1.44a.53.53 0 0 0 .13-.37 14.37 14.37 0 0 0 .53-3.75c-.19.77-.3 1.46-.46 1.99zm2.09-7.68a.75.75 0 0 0 .58.1.41.41 0 0 0 .22-.45c-.43-.5-1.77-.5-2.4-.48a.54.54 0 0 0-.27.29c.56.4 1.31.23 1.91.54zm-1.08-1.34a4.83 4.83 0 0 1 1.66.3c.13.08.4.23.5 0a.17.17 0 0 0-.08-.23c-.28-.06-.61-.07-.88-.11a5.49 5.49 0 0 0-1.11-.16.33.33 0 0 0-.13.11l.08.09zm2 12.28c-.27 1.31-.66 2.51-.88 3.79a5.88 5.88 0 0 0 1.2.89h-.03c.13.08.38.25.41.07.66-3.46.48-6.84.6-10.26a.67.67 0 0 0 0-.58c-.55 1.99-.84 3.99-1.28 6.09zM24 24.51a3.86 3.86 0 0 0-.36 1.19.59.59 0 0 0-.12.64.44.44 0 0 1 .72-.1 3.51 3.51 0 0 0 .18-1.24c0-.2-.11-.68-.42-.49z" transform="translate(-.08)" fill="#e30613" id="Layer_3" data-name="Layer 3"/><path class="cls-1" d="M9.07 72.54a3.76 3.76 0 0 1 .23-1.24 1.55 1.55 0 0 0-.71 1.28.22.22 0 0 0 .28.14.29.29 0 0 0 .18-.17M34.64 19a.67.67 0 0 0-.71.84c.14.38.74.29 1 0a.47.47 0 0 0-.29-.84M34 18a.7.7 0 0 0-1.08.29.44.44 0 0 0 .35.5.58.58 0 0 0 .64-.15c.16-.19.34-.42.08-.64m-1.73-.65a.44.44 0 0 0-.15-.49.5.5 0 0 0-.44-.08.67.67 0 0 0-.52.79c.1.26.36.22.61.15a.59.59 0 0 0 .46-.36m-20.5 13.18c-.17-.06-.26-.3-.45-.36s-.34-.18-.42-.08c-1.16 1.64-1.58 3.47-2.54 5.13a21 21 0 0 1 2.14 1.51c.74.72 1.27 1.56 1.93 2.32a16.11 16.11 0 0 1 4.94-.64.52.52 0 0 0 .33-.42 33.23 33.23 0 0 1 1.49-3.77.59.59 0 0 0 .07-.55c-.27-.41-.88-.12-1.16-.47-.84-1.06-2.16-1.3-3.34-1.76-1-.39-2-.55-3-.92m12.24-1.1c.15-.37.38-1-.14-1.15a.37.37 0 0 0-.44.17c-.22.36-.41.9 0 1.13a.39.39 0 0 0 .54-.11m-.28 2.32a1.37 1.37 0 0 0 0-1.08c-.12-.26-.36-.21-.55-.07a.86.86 0 0 0 0 1.35.36.36 0 0 0 .49-.15v-.05m-.24 1.68a.67.67 0 0 0-.06-.57.48.48 0 0 0-.81.09.86.86 0 0 0-.22.63.47.47 0 0 0 .42.37.64.64 0 0 0 .66-.52m-.42 2.33a.87.87 0 0 0 0-.83.39.39 0 0 0-.52-.17.94.94 0 0 0-.47 1 .35.35 0 0 0 .36.3.69.69 0 0 0 .64-.33m-5.12 3.9a.51.51 0 0 0-.26-.67h-.09a.53.53 0 0 0-.55 0 .54.54 0 0 0 .33.91.56.56 0 0 0 .57-.26m-5.65.65a.58.58 0 0 0-.93-.63.67.67 0 0 0-.34.69.63.63 0 0 0 .49.39.6.6 0 0 0 .76-.38m-4-4.14a.45.45 0 0 0-.2-.61h-.09a.6.6 0 0 0-.76.66.43.43 0 0 0 .2.36.62.62 0 0 0 .73-.38v-.07m2.54-8.12a.44.44 0 0 0-.54-.3.74.74 0 0 0-.41 1.23.58.58 0 0 0 .95-.14 1.18 1.18 0 0 0 .08-.77M2.3 3.7c.07.13.21.34 0 .44a.14.14 0 0 1 0-.06.28.28 0 0 1 0-.39M3 5.82c.1.28 1.19 2.7 1 2.92a5.68 5.68 0 0 1-.31-.81A6.29 6.29 0 0 1 3 5.82m3.29 9.59l.06.07A25.86 25.86 0 0 0 4.07 9s.21.82.23.88c.59 1.85 1.38 3.67 2 5.51m.06.07a.69.69 0 0 0 .11.39c.16-.12.06-.27 0-.38a.24.24 0 0 0-.12 0m10.43 55.8c-.07.09-.29-.07-.32-.18a.08.08 0 0 1 .06-.05 2.49 2.49 0 0 1 .27.23M21 51.19c0-.06.15-.06.15 0s-.15.07-.15 0m-.39-.07a.22.22 0 0 1 .29 0 .19.19 0 0 1-.14 0h-.16M20.45 49l-.12-.11c-.37.22.07.47.3.56a.07.07 0 0 0 .06-.11 2.14 2.14 0 0 0-.24-.34m3.24-23.3a.59.59 0 0 0-.12.63.44.44 0 0 1 .72-.1 3.49 3.49 0 0 0 .13-1.23c0-.2-.11-.68-.37-.49a3.86 3.86 0 0 0-.36 1.19m-12.92 6.9a1.51 1.51 0 0 1 .3-.6c.09 0 .06.11.06.18s-.55.81-.37.44m1.51 4.13a.1.1 0 0 1 .06-.13 1.07 1.07 0 0 0 .25.39.54.54 0 0 1-.31-.26m-.64-.86a1.91 1.91 0 0 1-.57-.34 1 1 0 0 1-.39-.3.07.07 0 0 1 .1 0l.13.08a3.5 3.5 0 0 1 .68.6M9.93 34.7a.09.09 0 0 1 .14-.11c.22.24.49.37.68.61a.08.08 0 0 1-.11 0l-.12-.08a1 1 0 0 1-.52-.52m-.53-.15c.23-1.43 1.14-2.57 1.62-3.89a2.51 2.51 0 0 1-.48 1.44 11.8 11.8 0 0 1-1.19 2.42m2.8 2.94s-.08.1-.12 0a12.73 12.73 0 0 0-2.33-2.13 1.44 1.44 0 0 1-.67-.43.24.24 0 0 1 .18-.28c.12 0 0 .24.07.27a6.37 6.37 0 0 1 2.72 2.32.31.31 0 0 1 .14.25m.47.71s-.35-.57-.37-.57a.27.27 0 0 0-.11 0 5.68 5.68 0 0 0 .48.52m.07-.76a.08.08 0 0 1 .09-.07s.1.08.05.12a.11.11 0 0 1-.15 0m.74 0c0 .12-.17.11-.23 0a.1.1 0 0 1 .06 0c.07 0 .19 0 .17.06m1.1.5a6.65 6.65 0 0 1-1.43.15 1.37 1.37 0 0 1 .72-.17.88.88 0 0 1 .71 0m1.81 0a11.09 11.09 0 0 1-1.42 0 1.6 1.6 0 0 1 .84 0 .79.79 0 0 1 .58.07m0-.47c-.86-.2-1.65.14-2.46-.07a17 17 0 0 1 2.33-.19.3.3 0 0 0 .19-.24 3.41 3.41 0 0 1 .46-1.13 13.49 13.49 0 0 1-.41 1.52.15.15 0 0 1-.12.11m.68-1.85a16.7 16.7 0 0 1 .72-1.8.21.21 0 0 1 .22-.2h.06a.08.08 0 0 1 .07.09c-.08.13-.14.25-.21.38s-.64 1.27-.8 1.48m1.53-1.78a6 6 0 0 1-.58 1.32 1.4 1.4 0 0 1 .38-1 .37.37 0 0 1 .25-.32M20.07 50a1.3 1.3 0 0 0 .25-.26s0-.08-.11-.06a.64.64 0 0 0-.51.56c0 .1.3.32.3.14a.45.45 0 0 1 .07-.38m.56.54a1.58 1.58 0 0 0 .4-.31 2.84 2.84 0 0 0-1 .22.56.56 0 0 0 .64.09M20 51a1.73 1.73 0 0 0 .58 0 3.46 3.46 0 0 1-.48-.15 1.73 1.73 0 0 0-.54-.2 1.08 1.08 0 0 0-.14.18A1.51 1.51 0 0 0 20 51m-.9.82a.17.17 0 0 0-.07.06.23.23 0 0 0 .3 0 .3.3 0 0 0-.23-.06m1.73.07c-.22 0 .11-.29.09-.26s.32-.2.14-.12a4.44 4.44 0 0 1-.83.3 2.67 2.67 0 0 0-.61 0 .58.58 0 0 0 .39 0 2.45 2.45 0 0 1 .62 0c.11 0 .08.13 0 .34a.07.07 0 0 0 .07.07 1.26 1.26 0 0 0 .38-.3c0-.08-.09-.13-.31-.13M37.79 72a.08.08 0 0 0-.11 0 .23.23 0 0 0 .11.13.08.08 0 0 0 .11 0 .23.23 0 0 0-.11-.13M20.38 54H21a.78.78 0 0 0 .62 0v-.26a1.37 1.37 0 0 0-.8 0 .71.71 0 0 0-.39.1.18.18 0 0 0 0 .23m-3.09.4c.2 0 .44-.13.75-.15a.58.58 0 0 0 .4-.11v-.3c-.4.37-1 0-1.17.21s-.24-.12-.24.08a.24.24 0 0 0 .23.2m1.94-.9c.1 0 .15-.08.24-.09a.54.54 0 0 1 .42.14 1.28 1.28 0 0 0 0 .48 1.18 1.18 0 0 0 0-.46.34.34 0 0 0-.1-.36.71.71 0 0 0-.48.07H19a1 1 0 0 0-.18.56H19s0-.31.22-.34m.56 1.07a.2.2 0 0 0 .21-.08 2.34 2.34 0 0 1-.06-.49c-.19.19 0 .39-.34.43s-.48.1-.64-.21a.94.94 0 0 0 0 .37 2.2 2.2 0 0 0 .87 0M28 70.68a4.82 4.82 0 0 0 1 .15 4.13 4.13 0 0 0 2.09-.11 19 19 0 0 1-1.78-2.27.17.17 0 0 1 0-.24c.19-.09.65 0 .53-.2-1.13-1.63-2.36-2.88-3.44-4.58a44.34 44.34 0 0 1-2.74-5 15.69 15.69 0 0 0-2-4 1.1 1.1 0 0 0-1.22-.06 3.57 3.57 0 0 1 0 .42 8.75 8.75 0 0 1-.89.23 5.4 5.4 0 0 1-.86.17c-.34 0 0-.48-.19-.57a1.24 1.24 0 0 0-1 .33.19.19 0 0 0 0 .13.49.49 0 0 0-.15.26 11.65 11.65 0 0 0 1.9 5.93 9.4 9.4 0 0 0 1.81 2 8.38 8.38 0 0 0 1.68 1.49 7.72 7.72 0 0 1 1.58 1.3c1.3 1.16 2.84 2.4 2.88 4.32 0 .27.48.18.77.27m5.36.55a.59.59 0 0 0 .49-.41c.08-.13-.17-.24-.28-.17a.58.58 0 0 1-.58.2 7.46 7.46 0 0 1-1.26-1c-.11-.12.07-.24.18-.37a.08.08 0 0 0 0-.11c-.2 0-.6.06-.53.2a3.26 3.26 0 0 0 2 1.68m2 2.26a1.65 1.65 0 0 0 1-.29 5 5 0 0 0-2.13.08c-.19 0 .06.09 0 .17h1m-7.87-.67a6.26 6.26 0 0 1-.17-1 .8.8 0 0 0 .09 1.29.08.08 0 0 0 .11 0 .32.32 0 0 0 0-.26M7.15 53.65a.85.85 0 0 0-.88.3 1 1 0 0 0-.12.5.33.33 0 0 0-.26.13c-.08.11.16.12.1.17a.72.72 0 0 0-.22.14.39.39 0 0 1 0 .4.09.09 0 0 0 .11.06 1.38 1.38 0 0 0-.24.69.63.63 0 0 0 .07.47c-.1 0 0 .17-.14.19a.34.34 0 0 1 .1.3s-.11.09-.11.13A16 16 0 0 0 7.42 64a.65.65 0 0 1 0 .24c.42 1.27.84 2.5 1.18 3.81a2.27 2.27 0 0 1 .25.33 9.09 9.09 0 0 1 .09 1.17.9.9 0 0 0 0 .57.68.68 0 0 0 .36.22 4.39 4.39 0 0 0 3-.15c-1.59-2-1.58-3.62-1.68-6.14-.06-1.48 0-2.93 0-4.4a21.28 21.28 0 0 0-.46-4.47 3.1 3.1 0 0 0-.22-.72.61.61 0 0 0-.36-.32 5 5 0 0 0-2.49-.43m-2.61-3.39c.13.08.38.25.41.07.66-3.46.48-6.84.6-10.26a.67.67 0 0 0 0-.58c-.55 2-.84 4-1.28 6.1-.27 1.31-.66 2.51-.88 3.79a5.88 5.88 0 0 0 1.2.89m0-17.42a.85.85 0 0 0 .44-.7c.19-.46.41-.89.64-1.34a.59.59 0 0 0 .14-.42 1.06 1.06 0 0 0-.89-.31 14.14 14.14 0 0 0-1.52 1.55 2.48 2.48 0 0 0-.67.9c.79.08 1.22.24 1.87.32m-2.33.47a4.8 4.8 0 0 1 1.66.3c.13.08.4.23.5 0a.17.17 0 0 0-.08-.23c-.28-.06-.61-.07-.88-.11a5.49 5.49 0 0 0-1.11-.15.32.32 0 0 0-.13.11l.08.09m1.08 1.4a.75.75 0 0 0 .58.1.41.41 0 0 0 .2-.47c-.43-.51-1.77-.5-2.4-.49a.54.54 0 0 0-.27.29c.56.4 1.31.23 1.91.55m-2.23 9.48a14.33 14.33 0 0 0 .53-3.75c-.2.72-.31 1.41-.47 1.94a13.1 13.1 0 0 0-.47 1.48 1.87 1.87 0 0 0 .17.25c.06.13 0 .32.1.44a.53.53 0 0 0 .13-.37m2.27 2.14a12.14 12.14 0 0 0 .18-1.61c-.35.47-.14 1.11-.56 1.67a.16.16 0 0 0 0 .23c.19.09.33-.11.34-.31m-1.2-1.12c-.44.09-.18-.61-.35-.87a2 2 0 0 0-.24.63 1.31 1.31 0 0 0-.27.69 2 2 0 0 0 1 .74.27.27 0 0 0 .18-.17 5.29 5.29 0 0 0 .27-1.73 1.69 1.69 0 0 1-.61.71m2-3.71a2.36 2.36 0 0 1 .32-.9 1.85 1.85 0 0 0-.13-1c-.22-1.4.38-2.66 0-4a3.19 3.19 0 0 0-.29 1 18.74 18.74 0 0 0-.14 2.59c0 .47-.09.93-.06 1.4A8.12 8.12 0 0 0 4.07 42a.87.87 0 0 0 .11-.43m-1-5.57a.74.74 0 0 0-.52.23 4.92 4.92 0 0 0-.15 1.48c-.09 1-.11 1.9-.12 2.85A16.61 16.61 0 0 0 2.5 43a5.35 5.35 0 0 0 .35-1.31c.17-1 .21-1.88.32-2.83s.32-1.84.35-2.77c0-.14-.21-.14-.34-.14m9.89.89a16 16 0 0 0-2.51-2.35A23.12 23.12 0 0 1 12.07 31c1.72.88 4 .77 5.32 2.23a.43.43 0 0 1 .07.42 32.53 32.53 0 0 1-1.39 3.15 6.65 6.65 0 0 0-1.29 0 8.11 8.11 0 0 0-1.62.13M5.9 29.22a.59.59 0 0 0-.75.35c0 .06 0 .18.05.18.49 0 .52.23.76.19a2.7 2.7 0 0 0 .38-.53c0-.21-.26-.15-.44-.19m.9-2.27H7c.05 0 .1 0 .06-.09a.53.53 0 0 0-.25-.2 1.5 1.5 0 0 1-.25.19.94.94 0 0 0-.44.09 1.36 1.36 0 0 0 .66 0m1.28-.44a19.15 19.15 0 0 0 .83-2.69c0-.35-.35.16-.65.1a.08.08 0 0 0 0-.11 1.53 1.53 0 0 1-.54-.15c-.08-.08.08-.46 0-.55a.57.57 0 0 1-.2-.21 2.35 2.35 0 0 0 0-.49l-.2.12A5.87 5.87 0 0 1 5 26.26s0 .12.05.11a6.44 6.44 0 0 1 .77-.08 2.44 2.44 0 0 1 .82-.29s.06.15.11.17a1.52 1.52 0 0 1 .39 0l.18.18c.06 0 .22 0 .25.07s-.27.29-.37.39a.8.8 0 0 0 .87-.31m-3.88-.91a4.71 4.71 0 0 0 1.51-1.85.82.82 0 0 0 .1-.41 10 10 0 0 1-3.14 3 3.06 3.06 0 0 0 1.54.76c.11.06-.13-.09-.13-.14-.26-.27-1-.25-.8-.67a2.22 2.22 0 0 1 .94-.69m0-4.54a.62.62 0 0 1 .44.27c.08.13-.16.35 0 .34a1.41 1.41 0 0 0 .42-.44 1.85 1.85 0 0 0-.42-.49 3.41 3.41 0 0 0-.43-.42 13.06 13.06 0 0 1-1.65-.6.07.07 0 0 0-.06.11A3.27 3.27 0 0 0 4.15 21m.75 2.6a16.64 16.64 0 0 1 .94-1.67c.08-.09.14-.39-.06-.41s-1.17.83-1.33.18c-.26.28-.67.51-.93.82a.07.07 0 0 0 0 .1 5.79 5.79 0 0 1 1.25-.34c.23 0 .09.41 0 .65-.11.45-.61.65-.62 1.14a.85.85 0 0 0 .66-.5m5.73-9a.54.54 0 0 0-.32-.18.2.2 0 0 0-.13.3c.07.15.49.36.63.16a1.73 1.73 0 0 0-.18-.28M7.47 20.5a1.13 1.13 0 0 0 .38.08c-.74-1-1.67-2.09-1.22-3.08a1.45 1.45 0 0 1 .37-.33c.41.14.74.39 1.16.52h.18c.01 0 .15-.45.34-.35s.46.32.71.46a8.93 8.93 0 0 1-.11-1.88.16.16 0 0 1 .18-.13h.06a.89.89 0 0 1 .21.37 2.75 2.75 0 0 0 .8.42s.1-.07.06-.1a2.48 2.48 0 0 1-1.3-2.06s-.08-.19-.16-.12a2.86 2.86 0 0 0-.2 1.16c-.12.41.19.91 0 1.25s-.5-.11-.53-.38c0-.07-.26-.88-.27-.9a.11.11 0 0 0-.15 0c-.08.6.22 1.09.13 1.6a.21.21 0 0 1-.24.11 3.62 3.62 0 0 0-1-.49 1 1 0 0 0-.6.9c-.24.48.18 1 0 1.48-.67 0-.9-1-1.12-1.32s-.82.77-.82 1.18a1.92 1.92 0 0 0 1.18 1.63.31.31 0 0 0 .38 0 3.32 3.32 0 0 1-1.09-1.41c-.09-.23 0-.74.3-.53s.37.74.71 1a4.71 4.71 0 0 0 1.7 1M35.23 5a.77.77 0 0 0-.16-.4.45.45 0 0 0-.7.16.13.13 0 0 0 .06.13.35.35 0 0 1 .63 0c.11.24 0 .52.12.77a.85.85 0 0 0 0-.66M34 11.22a2.89 2.89 0 0 0 .42.66 1.64 1.64 0 0 0 .56.31 2.09 2.09 0 0 1 1.48.42 17.59 17.59 0 0 0 1.86-2c.12-.18.38-.59 0-.58a3.31 3.31 0 0 0-.41.44.3.3 0 0 1-.44-.19c-.11-.42.39-.76.16-1.15a.14.14 0 0 0-.12 0 .1.1 0 0 0-.07.12c-.17 0-.38 0-.43-.15a4.14 4.14 0 0 0 0-.7.18.18 0 0 0-.21-.14c-.33.18-.08.62-.31.79s-.29-.13-.33-.25a4.56 4.56 0 0 0 0-1 9.66 9.66 0 0 0-.49-1.34.75.75 0 0 0-.23.55c.26.66-.12 1.28-.08 1.89a2.7 2.7 0 0 1 0 .39.07.07 0 0 1-.08.06A.63.63 0 0 1 35 9c0-.66.44-1.44-.12-2a.64.64 0 0 0-.26.34 6.94 6.94 0 0 1-.16 1.14c-.15.31-.36.59-.5.91A1 1 0 0 0 34 10a5.51 5.51 0 0 0-.12.89 1 1 0 0 0 .17.33m-1.17 2c.1.28-.12.56 0 .76a1.46 1.46 0 0 0 1 .28 6.6 6.6 0 0 1 1.18.63c.42.23.73.65 1.13.91a1.2 1.2 0 0 1 .71.79c.1.7 1 1 1.22 1.61a.2.2 0 0 1-.12.11 2 2 0 0 1-.38 0c-.24 0-.11.3 0 .35a2.24 2.24 0 0 0 .88.26c.27 0 .26-.46.15-.71a.68.68 0 0 1-.19-.64.81.81 0 0 0 .34-.33c0-.34-.38-.56-.39-.92a.72.72 0 0 1 .58.15.73.73 0 0 0 .14-.83 2.46 2.46 0 0 0-1.55-1c-.31-.15-.08-.51-.13-.81a.76.76 0 0 0-.41-.39c-.17-.12-.45 0-.54-.06a1.73 1.73 0 0 0-1.78-.47 1.78 1.78 0 0 1-.5-.46 1.29 1.29 0 0 0-1.5.22.9.9 0 0 0 .07.68M32 14.86a12.42 12.42 0 0 1-2.07 2.82 14 14 0 0 0 1.64.74 7.37 7.37 0 0 1 1.23.71c.81.6 1.12 1.49 1.85 2.07a.94.94 0 0 0 .83-.38c.38-.39.87-.45 1.22-.84a.5.5 0 0 0 .13-.24 4 4 0 0 0-.31-2.39 3.66 3.66 0 0 0-.8-1 9.3 9.3 0 0 0-2.51-1.55 1 1 0 0 0-1.21.11m-14-1.27a1.63 1.63 0 0 1-1.5.44.27.27 0 0 0-.25.16 11.26 11.26 0 0 1-2.15 4.1s-.16 0-.17-.06c0-.61.48-1.54-.16-1.84a2.16 2.16 0 0 1-1.27-.76c-.16-.45.46-.88.78-1.31a.07.07 0 0 0 0-.1.81.81 0 0 0-.51.31 16.61 16.61 0 0 0-2.78 6.68c.12 2.13-.84 4.11-1.44 6.1.61.28.25 1.1-.19 1.32a.37.37 0 0 1-.5-.12 13.49 13.49 0 0 0-2.28 4.6 8.53 8.53 0 0 0-.51 4c0 .18.13 0 .14-.06A66.29 66.29 0 0 1 7.74 30a.18.18 0 0 1 .16 0 .86.86 0 0 1-.1.69 8.14 8.14 0 0 0-.73 2.44 34 34 0 0 0-1 9.09c0 .64-.21 1.28-.18 1.93.1 2.48-.13 4.92-.26 7.37a.48.48 0 0 0 .37.38 14.9 14.9 0 0 0 5.51 1.1c.43-1.59.29-3.29 1-4.81 0 0 .1 0 .1.06a24.42 24.42 0 0 1-.35 3.22s.09.1.1.06c.83-2.4.75-4.86 1.46-7.32a.6.6 0 0 1 .25-.48.08.08 0 0 1 .1 0c-.14 2.83-1 5.56-1.25 8.37 0 .29.48.33.77.36a10.79 10.79 0 0 1 3.8.93c.33.17.49-.34.63-.6a6.39 6.39 0 0 0 .2-.69c.17-.44.4-.85.58-1.29.3-.7.45-1.46.77-2.15a19.23 19.23 0 0 0 1.12-3c.52-1.88.92-3.63 1.47-5.49.41-1.38.72-2.67 1-4.07a34.23 34.23 0 0 0 1-9.34c-.11.15 0 .36-.16.5a.38.38 0 0 1-.54 0 1.54 1.54 0 0 1-.26-.57c-.48.88-.75 1.84-1.2 2.74a.12.12 0 0 1-.17 0 .54.54 0 0 1 0-.5 23 23 0 0 0 .9-4h-.1a4.07 4.07 0 0 0-.85 1 4.23 4.23 0 0 1-.94 1.23c-.07.06-.16-.1-.15-.11.44-1 1.26-1.77 1.28-2.88a.34.34 0 0 0-.22-.24 1.11 1.11 0 0 1-1.06-.9 7.8 7.8 0 0 1 3.4.57 9 9 0 0 1 2.24.88 7.76 7.76 0 0 0 2.25 1.11 5.27 5.27 0 0 0 1.53.12 1.16 1.16 0 0 0 .78-.59 16.14 16.14 0 0 0 1.69-2.37 10.32 10.32 0 0 1 .83-1.09.27.27 0 0 0 0-.24 4 4 0 0 0-1.11-1.57 2.6 2.6 0 0 0-2.16-.62A2 2 0 0 1 31 20c.1.18.11.61-.18.47-.69-.34-1-1.18-1.4-1.1s0 .87.15 1.28a5.28 5.28 0 0 0 0-.57c.29-.3.43.21.52.4a7.36 7.36 0 0 1 .46 1.52 2 2 0 0 1 .44.86.24.24 0 0 1-.32.13 4 4 0 0 1-1.34-1.42c-.6-.81-.64-1.85-1.27-2.64-.17-.21-.72-.17-.69.13a5 5 0 0 0 .48 1 .17.17 0 0 1-.25.23 12.81 12.81 0 0 1-1-1.42 3.18 3.18 0 0 0-.82-.49c-.31-.18-.83.06-1-.26a5.32 5.32 0 0 0-3.45-2.77.48.48 0 0 1-.37-.51c0-.1.13-.08.18 0a1.53 1.53 0 0 0 1 .39.33.33 0 0 0 .17-.35.82.82 0 0 0-.53-.65q-.81-.45-1.67-.82a2.78 2.78 0 0 0-1.6 0 1.15 1.15 0 0 0-.48.26m3.8-1.23c-.34.19-.65.36-1 .58-.07 0 .06.13.12.16s.47.17.67.28a2 2 0 0 1 1.17.92c.09.28-.15.68 0 .93a2.93 2.93 0 0 0 1.2.84 8 8 0 0 1 1 1.09 2.46 2.46 0 0 0 .33.63 4.69 4.69 0 0 1 .62.18.5.5 0 0 0 .26.1c.22-.07.14-.34.16-.56a.26.26 0 0 1 .26.07.23.23 0 0 0 .12-.3c0-.07-.23-.14-.27-.21a2.36 2.36 0 0 1 0-.36c-.2-.56-1.46-.37-1.62-1.19.33-.08.73.42.91 0-.71-.42-1.5-.65-2.2-1.09-.38-.23-1-.51-.92-1a.47.47 0 0 0 .25 0 2.88 2.88 0 0 0-.73-1.1.24.24 0 0 0-.25 0m2.83-7a.71.71 0 0 0-.7.49 4.33 4.33 0 0 0-.73 2.29s.1.1.09.13a1.62 1.62 0 0 0 .55 1.13s0 .18-.06.17a.68.68 0 0 0-.76.59 2 2 0 0 1-.52 1.91 1.21 1.21 0 0 0 .68.62 18.63 18.63 0 0 0 2 0 .39.39 0 0 0 .26-.29c.11-.31-.35-.53-.2-.84a1.56 1.56 0 0 1 .31-.53s-.21-.08-.26-.08a.59.59 0 0 0-.52.08.11.11 0 0 1-.18-.08c-.09-.72.49-.39.91-.44a.27.27 0 0 0 .19-.17c.17-.59.28-.62.94-.57.18 0 .14-.42.11-.45a10.29 10.29 0 0 1-1.22-1.15c-.12-.17-.2.38-.36.51a.31.31 0 0 1-.39-.19c0-.17.11-.3.08-.43a.93.93 0 0 0-.46-.3c-.16-.09 0-.36.07-.35a.58.58 0 0 0 .7-.33c.14-.42-.77-.47-.64-.8a1 1 0 0 1 .77 0 .21.21 0 0 0 .15-.33 1.84 1.84 0 0 0-.93-.61m-3.41-.48a8.46 8.46 0 0 0-1.62.59 4.36 4.36 0 0 0-2.08 1.8 1.35 1.35 0 0 1-.2.5.12.12 0 0 0 0 .17c-.32.22 0 .43.16.66v.18c.36.45 1 .34 1.33.8s-.47.93-.22 1.26c.13.17.74-.24.76.28a7.2 7.2 0 0 1-.27 1.54.07.07 0 0 0 .07.07 1 1 0 0 1 .66-.17.73.73 0 0 0 .28-.28 2.23 2.23 0 0 0 .77-.13s-.09-.1-.06-.11a2.18 2.18 0 0 0 .56 0 1.72 1.72 0 0 1 .56-.4c0-.07-.16-.1-.12-.2a.63.63 0 0 1 .24-.15c.09-.1-.19-.09-.06-.19a.24.24 0 0 0 0-.43 1.57 1.57 0 0 0-.5-.05s-.07-.15 0-.15a2.41 2.41 0 0 0 .69-.5c-.29-.3.12-.41.12-.45a3.15 3.15 0 0 1 0-.5.36.36 0 0 1-.14-.41.48.48 0 0 1 .18-.19c-.26-.26.06-.34.07-.45a1 1 0 0 1-.16-.19 2.25 2.25 0 0 1 .36-.32 1 1 0 0 0-.14-.18 2.84 2.84 0 0 1 .38-.65 3.47 3.47 0 0 1 .2-.61 1.14 1.14 0 0 1 .2-.25 1.52 1.52 0 0 1 .27-.8 4.68 4.68 0 0 0-2.33-.1m5 .92a1.17 1.17 0 0 0-.14 1.25c.1.26-.23.54-.11.82.27.63 1 .84 1.32 1.44a.65.65 0 0 1-.33.86h-.06a.86.86 0 0 0-.82.68 1 1 0 0 1-.31.84.24.24 0 0 0-.07.29.75.75 0 0 1-.16 1l-.17.09c-.55.25-1.23 0-1.72.39a.37.37 0 0 0 0 .39 8.22 8.22 0 0 0 2.58 1.17c.1.05 0 .57.09.74a4.13 4.13 0 0 0 .69.47c.38.29.73.7.5.89a1.42 1.42 0 0 0-.56 1c0 .09-.28 0-.29.19s.07.11.11.06a1 1 0 0 1 1.55.12c.19.28.48 0 .56-.12s0-.49.08-.69a5.28 5.28 0 0 1 1.37-1.2 10 10 0 0 0 .75-1.06 3.24 3.24 0 0 1 .64-1.06 4.23 4.23 0 0 0 .55-.21c.53-.54-.31-1.41.15-2 .28-.36 1-.25 1.18-.62a5.19 5.19 0 0 1-.19-.81c.16-.57-.29-1.13.07-1.59a2.82 2.82 0 0 0 .63-2 2.25 2.25 0 0 0-.24-.41 2.72 2.72 0 0 1 0-1.28 2 2 0 0 1 .29-1 .85.85 0 0 1 .51-.38.73.73 0 0 1 .86.42 8.84 8.84 0 0 1 .22 1.22 4.36 4.36 0 0 0 .44.56 6.31 6.31 0 0 0 .19 1 3.09 3.09 0 0 0 .94.56 1 1 0 0 1 .27.45c.1.28.52.28.65.56v.37a2.56 2.56 0 0 1 .72.82.92.92 0 0 1-.1.69c-.55.77-1.16 1.39-1.73 2.09a1.81 1.81 0 0 1 1 1.52 3.3 3.3 0 0 1 1.56 1.27 1.75 1.75 0 0 1 .23 1.39.13.13 0 0 1-.1 0c0-.07 0-.25-.06-.22a.6.6 0 0 0-.39.41c-.25.81.13 1.81-.54 2.29-.28.21-.72-.17-1.11-.21a.25.25 0 0 0-.18.24 1.18 1.18 0 0 1-.45.93c-1 .46-1.69 1.13-2.64 1.56a2.27 2.27 0 0 0-.83.7 35 35 0 0 1-2.23 2.92c-1.13 1.26-3 .84-4.35 0a3.13 3.13 0 0 0-1.56-.62c-.3 2-.39 4.12-.7 6.23s-.53 4-1 6.11c-.33 1.43-.66 2.74-1 4.13a45 45 0 0 0-1.5 5.53c-.16 1 .58 2 .84 3s-.3 1.8-.14 2.74a9.66 9.66 0 0 0 .29 1.44c.46 1.39 1.32 2.56 1.84 3.93.3.79.74 1.52 1.11 2.29.23.49.41 1 .68 1.47a18.19 18.19 0 0 0 1.9 2.85 23.71 23.71 0 0 0 2.06 2.45.77.77 0 0 0 .69-.25.24.24 0 0 1 .23 0c.56.82.49 2.11 1.62 2.31a2.2 2.2 0 0 0 1 .91c.07.06.29.06.4.14a6.28 6.28 0 0 1 .79.81 2.34 2.34 0 0 0 1.18.72 9 9 0 0 1 2.44.15.47.47 0 0 1 .3.27 11.67 11.67 0 0 1 .41 1.18.28.28 0 0 1-.25.24 13.58 13.58 0 0 1-2.15.73 14 14 0 0 1-3.43 0c-.77-.08-1.48-.72-2.22-.53a1.08 1.08 0 0 0-.25 1c-1.07.21-2.49.46-3.25-.41-.11-.12-.11-.4-.24-.53a3 3 0 0 1-.55-2.71c.31-1.87-1.12-3.35-2.44-4.56-1.74-1.59-3.56-2.83-5-4.71a9.86 9.86 0 0 1-1.21-2A18.4 18.4 0 0 1 16.59 54a.54.54 0 0 0-.35-.33 13.4 13.4 0 0 0-1.87-.35c-.6-.18-1.26 0-1.85-.2a.75.75 0 0 1-.26-.18c-.13.26 0 .6-.35.67a8.18 8.18 0 0 1-1 0 .16.16 0 0 0-.12.11c.16 1.78.5 3.49.49 5.26 0 1.17-.17 2.32-.12 3.49s.07 2.2.15 3.31a2.67 2.67 0 0 0 .61 1.89 1.43 1.43 0 0 0 .63.28c.4.1.7-.28 1.1-.2a.18.18 0 0 1 .12.13.8.8 0 0 1-.31.58 2.26 2.26 0 0 0-.29 1.3 2 2 0 0 0 1 .54 5.35 5.35 0 0 1 1 .71s.22.32.25.1-.15-.42.13-.5a2.67 2.67 0 0 1 2 0 5.89 5.89 0 0 1 .71.7h.18a.51.51 0 0 1 .22.64 3.35 3.35 0 0 1-1.59 1.36 5.2 5.2 0 0 1-1.82.44c-.92.17-1.74-.32-2.64-.2.09.84-.73 1.16-1.41 1.28a5 5 0 0 1-3-.33c0-1.3-.15-.77-.66-1.61s.48-1.91.62-2.55a4.61 4.61 0 0 0-.4-2.8c-.24-.67-.39-1.37-.64-2A27.79 27.79 0 0 1 5 57.42c-.07-1.62.15-3.23.16-4.84a6.42 6.42 0 0 0-.38-.58 1.28 1.28 0 0 0-.21-.81c-.72-.45-1.86-.58-2-1.47a6.26 6.26 0 0 1 .55-2.17.15.15 0 0 0-.05-.16 2.33 2.33 0 0 1-1.41-.26 2.92 2.92 0 0 1-1-1.21 2.89 2.89 0 0 1-.08-.7c-.08-.35-.59-.53-.49-.92a19.26 19.26 0 0 0 .73-3.09c.14-1.58.31-3.13.44-4.71a4.44 4.44 0 0 0 .19-1.26c-.13-.45-1-.29-1.19-.74s.43-.76.72-1.16C1.6 32.5 2.37 32 3 31.2a24.67 24.67 0 0 0 2.4-2.93 13.42 13.42 0 0 1-1.83-.73 8.1 8.1 0 0 1-1.63-1.09.26.26 0 0 1-.07-.23 9.24 9.24 0 0 0 .6-1.35 2.06 2.06 0 0 0-.23-1.28c-.48-1.38-1.46-2.78-.88-4.23.32-.8 1.3-1 2-1.29a11.24 11.24 0 0 0 1-.59 5.26 5.26 0 0 1 .94-.3 1.28 1.28 0 0 0 .45-.85A6 6 0 0 0 5.51 15c-.72-2.2-1.32-4.38-2.13-6.53A47.88 47.88 0 0 1 1.63 3.6.46.46 0 0 1 2 3.1h.12c.61.34.63 1.14.91 1.75C4.56 8.43 5.63 12.06 7 15.64a3.38 3.38 0 0 1 2.12-2 1.36 1.36 0 0 1 .73.23l.75-.07a10.9 10.9 0 0 0 1.93-1.38c.8-.61 1.78.19 2.66.28a.16.16 0 0 0 .12-.11 1.32 1.32 0 0 0 0-.73c-.33-.42-.77.58-1.14.3a2.32 2.32 0 0 1-.83-1.77.45.45 0 0 1 .26-.05 2 2 0 0 0 1.09.35 1 1 0 0 0 1-.29 3.82 3.82 0 0 1-1.18-.4c-.27-.24.14-.47.26-.69s-.07-.16-.12-.18c-.93-.35-2-.49-2.57-1.42a1.23 1.23 0 0 1 0-1.4 4.92 4.92 0 0 1 2.58-1.92 6.74 6.74 0 0 1-.39-1.11A2.8 2.8 0 0 1 15.62.91a4.73 4.73 0 0 1 3.45-.36 3.08 3.08 0 0 0 1.34-.34c2.43-.57 4.75.1 7.11.8A7.32 7.32 0 0 0 30 1c.31 0 .79-.1.83.22a3 3 0 0 1-1 2.67 11.75 11.75 0 0 1-2.6 1.5 2.5 2.5 0 0 0-.9.39" transform="translate(-.08)" id="Layer_2" data-name="Layer 2"/></svg>