<svg id="Layer_1" data-name="Layer 1" xmlns="http://www.w3.org/2000/svg" xmlns:xlink="http://www.w3.org/1999/xlink" viewBox="0 0 504.93 74.99"><defs><clipPath id="clip-path" transform="translate(-0.93 0)"><rect x="0.93" width="504.93" height="74.99" style="fill:none"/></clipPath></defs><title>BYSTANDER LOGO</title><g style="clip-path:url(#clip-path)"><path d="M456,29.54V11.62h27.16c3.85,0,7.14.35,9.24,4.06a9.32,9.32,0,0,1,1.26,4.83,8.08,8.08,0,0,1-1.82,5.39c-2.73,3.5-7.42,3.64-11.41,3.64H456Zm49.84,25.62L487.59,34.23A22.67,22.67,0,0,0,493,32.9c7.42-3.08,8-10,8-12.67,0-6.79-3.78-12-10.43-13.72a26.26,26.26,0,0,0-7.84-.77H449V55.16h7.07V35.35H480l16.73,19.81h9.17Zm-61,0V49.07H404.51V32.41H442.1V26.53H404.51V11.83h38.57V5.74H397.51V55.16H444.9Zm-95.59-5.95V11.55h17.5a31,31,0,0,1,7.63.7c8.19,2.17,12.25,9.45,12.32,17.57,0,2.38-.35,9.66-6,14.63-4.83,4.27-10.36,4.76-16.38,4.76H349.32Zm-7.07,5.95H362c8.26,0,16.87-.21,23.59-5.88,5.6-4.69,8.33-12,8.33-19.18,0-8.19-3.22-15.82-10.15-20.37-6.16-4-11.76-4-16.94-4H342.25V55.16Zm-5.58,0V5.74h-6.72c0,2.52.21,40.81,0.21,40.81L291.73,5.74h-7.21V55.16h6.72c0-3.64-.14-40.88-0.14-40.88l38.71,40.88h6.86ZM265.76,37.31H241.33l12.32-24.5Zm17.15,17.85L257.57,5.74h-7.49L224.46,55.16h7.91l6-12.18h30.38l6,12.18h8.12ZM235.44,11.62V5.74H188.05v5.88h20.16V55.16h7V11.62h20.23ZM136,45.15c5,8.19,16.66,11.2,27.86,11.2,19.25,0,24.22-8.61,24.22-16.1,0-8.12-6-12.6-16.1-13.58L156.68,25.2c-5-.49-10-1.33-10-6.65,0-6.65,8.89-8.26,16.24-8.26,8.82,0,13.79,2.59,18.2,6.72l6.44-2.59c-3.15-4.48-9.8-9.94-24.71-9.94-8,0-13.37,1.61-16.31,3.22a12.33,12.33,0,0,0-6.86,11.2,10.56,10.56,0,0,0,3.5,8.26c3.64,3.36,8.05,3.71,17.71,4.62l7.56,0.7c5.74,0.49,12.74,1.54,12.74,7.84A8.43,8.43,0,0,1,177.82,47c-4.41,3.36-10.85,3.36-13.23,3.36a38.81,38.81,0,0,1-14.21-2.38,18.28,18.28,0,0,1-7.84-5.46Zm6.34-39.41h-9L113.89,30,94.78,5.74h-9l24.64,30.17V55.16h6.93V36ZM45,49.42V32.27H71.7c3.78,0,7.77.21,10.15,3.64a8.13,8.13,0,0,1,1.4,5,8,8,0,0,1-1.61,5c-2.45,3.15-6.3,3.5-9.94,3.5H45ZM45,26.6V11.41H69.53c2.73,0,5.6,0,8.05,1.54A7,7,0,0,1,80.87,19a7.83,7.83,0,0,1-1.33,4.48c-2.1,3-5.53,3.08-8.75,3.08H45ZM37.89,55.16H69.6c6.65,0,14.7-.07,18.9-6.44a12.9,12.9,0,0,0,2.1-7.35c0-7.28-4.48-11.13-9.38-12.67,0.7-.42,6.93-1.82,6.93-10.15C88.15,7.14,77.3,5.74,70.37,5.74H37.89V55.16Z" transform="translate(-0.93 0)" style="fill:#1d1d1b"/><path d="M6.69,53.27L6,55.78l0.22,3.4,2.14,6.65L9.5,70A16.7,16.7,0,0,0,8.69,72a4.86,4.86,0,0,0,.66,1.11,7.92,7.92,0,0,0,2.66,0c0.44-.3,2.59-1,2.37-1.92a18,18,0,0,0-1-2.44l-1.33-1.26-0.22-1.77-0.15-7.39-0.59-5,2.81-1.11,3.84,1.4,0.59,4.21L19.69,61,22.5,64.2l3.1,2.66,1.63,1.77,0.52,1.77v1.92s0.3,1.26.74,1.26,2-.59,2.51-0.66a18.67,18.67,0,0,1,2.81.37,21.11,21.11,0,0,0,2.66.74,7,7,0,0,0,1.85-1L39,72.25l-1-.37-1.92.3-1-1.18-0.67-.52-2.14-1.63L30.7,67.3l-3.1-3.69-2.29-4.06-2.14-4.66L22.5,52.45,22.57,50l-1-1.77-0.89-.07L7.8,51.49Z" transform="translate(-0.93 0)" style="fill:#fffdee"/><path d="M16.44,6.5s6.13-2.29,6.43-2.29S27,4.8,27,4.8L26.64,6.35,26.42,7.68l1.48,1.63V10L27.3,10l-0.52.59-0.3.81-0.22.37,0.3,0.52-0.22.59L25.23,13l-1.11.22v0.59l1,0.89,1.77,0.52V16l0.74,0.59L28,17.07,27.45,18l-0.22.89L34,16.48l-0.52-2.29V13l0.37-.81,1-.22-0.22-.81,0.07-1.77,0.52-2.44-0.3-1.55,0.52-1h0.81l0.07,0.89,0.07,1L37,6.58l0.22,1,1,0.59V8.64L38.9,9.09V9.83L39.64,9.9v0.52l-2,2.44,1,0.81,0.07,0.74L40,15.22,40.38,16l-0.22.74-0.07.59-0.15,1.33-0.37.67-1-.15-1.26-.22-13.67,1.7L7,16.33,4.33,7.91,4.92,8.27l2.88,7.9,10-3.25Z" transform="translate(-0.93 0)" style="fill:#fffdee"/><path d="M7.74,26.94a1.22,1.22,0,0,0,.21,0c0.05,0,.1,0,0.06-0.09a0.53,0.53,0,0,0-.25-0.2,1.46,1.46,0,0,1-.25.19,1,1,0,0,0-.44.09,1.37,1.37,0,0,0,.66,0" transform="translate(-0.93 0)" style="fill:#e30613"/><path d="M32.92,14.85a12.45,12.45,0,0,1-2.07,2.83,14.2,14.2,0,0,0,1.64.74,7.26,7.26,0,0,1,1.23.71c0.81,0.59,1.12,1.49,1.85,2.07a0.93,0.93,0,0,0,.83-0.38c0.38-.39.87-0.45,1.22-0.84a0.5,0.5,0,0,0,.13-0.24,3.94,3.94,0,0,0-.31-2.39,3.64,3.64,0,0,0-.8-1.05,9.34,9.34,0,0,0-2.51-1.55,1,1,0,0,0-1.21.11" transform="translate(-0.93 0)" style="fill:#e30613"/><path d="M8.4,20.5a1.09,1.09,0,0,0,.38.08c-0.74-1-1.67-2.09-1.22-3.08a1.45,1.45,0,0,1,.35-0.33c0.41,0.14.74,0.39,1.16,0.52,0.06,0,.17,0,0.18-0.05s0.15-.45.34-0.35,0.46,0.32.71,0.45a9,9,0,0,1-.11-1.88,0.16,0.16,0,0,1,.24-0.11,0.88,0.88,0,0,1,.21.37,2.81,2.81,0,0,0,.8.42s0.1-.07.06-0.1a2.49,2.49,0,0,1-1.3-2.06s-0.07-.19-0.16-0.12a2.86,2.86,0,0,0-.2,1.16c-0.12.41,0.19,0.91,0,1.26s-0.5-.11-0.53-0.38c0-.07-0.26-0.87-0.27-0.9a0.1,0.1,0,0,0-.17,0C8.79,16,9.09,16.49,9,17a0.21,0.21,0,0,1-.24.11,3.57,3.57,0,0,0-1-.49,1,1,0,0,0-.6.9C6.92,18,7.34,18.5,7.16,19c-0.67,0-.9-1-1.12-1.32s-0.82.77-.82,1.18A1.92,1.92,0,0,0,6.4,20.49a0.32,0.32,0,0,0,.38,0,3.32,3.32,0,0,1-1.09-1.41c-0.09-.23,0-0.74.3-0.53s0.37,0.74.71,1a4.75,4.75,0,0,0,1.7,1" transform="translate(-0.93 0)" style="fill:#e30613"/><path d="M11.56,14.6a0.55,0.55,0,0,0-.32-0.18,0.2,0.2,0,0,0-.13.3c0.07,0.15.49,0.36,0.63,0.16a1.74,1.74,0,0,0-.18-0.28" transform="translate(-0.93 0)" style="fill:#e30613"/><path d="M5.83,23.6a16.63,16.63,0,0,1,.94-1.67c0.08-.09.14-0.39-0.06-0.41s-1.17.83-1.33,0.18c-0.26.28-.67,0.51-0.93,0.81a0.07,0.07,0,0,0,.05.12,5.73,5.73,0,0,1,1.25-.34c0.23,0,.09.41,0,0.65-0.11.45-.61,0.65-0.62,1.14a0.85,0.85,0,0,0,.66-0.5" transform="translate(-0.93 0)" style="fill:#e30613"/><path d="M5.08,21a0.62,0.62,0,0,1,.44.28c0.08,0.13-.16.35,0,0.34a1.42,1.42,0,0,0,.42-0.44,1.87,1.87,0,0,0-.42-0.49,3.57,3.57,0,0,0-.43-0.42C4.53,20.06,4,20,3.5,19.71a0.07,0.07,0,0,0-.05.11A3.26,3.26,0,0,0,5.08,21" transform="translate(-0.93 0)" style="fill:#e30613"/><path d="M5.13,25.59a4.71,4.71,0,0,0,1.51-1.85,0.81,0.81,0,0,0,.1-0.41,10,10,0,0,1-3.14,3,3,3,0,0,0,1.54.76C5.25,27.15,5,27,5,27c-0.26-.27-1-0.25-0.8-0.67a2.22,2.22,0,0,1,.94-0.69" transform="translate(-0.93 0)" style="fill:#e30613"/><path d="M9,26.5a19.15,19.15,0,0,0,.83-2.69c0-.35-0.35.16-0.65,0.1a0.08,0.08,0,0,0-.06-0.12,1.52,1.52,0,0,1-.54-0.15c-0.08-.08.08-0.46,0-0.55a0.57,0.57,0,0,1-.2-0.21,2.41,2.41,0,0,0,0-.49,1.82,1.82,0,0,0-.2.12,5.88,5.88,0,0,1-2.26,3.75s0,0.12.05,0.11a6.58,6.58,0,0,1,.77-0.08A2.42,2.42,0,0,1,7.57,26s0.06,0.15.11,0.17a1.57,1.57,0,0,1,.39,0,1.74,1.74,0,0,0,.18.18c0.06,0,.22,0,0.25.07s-0.27.29-.37,0.39A0.8,0.8,0,0,0,9,26.5" transform="translate(-0.93 0)" style="fill:#e30613"/><path d="M6.83,29.22a0.59,0.59,0,0,0-.75.35c0,0.06,0,.18,0,0.18,0.49,0,.52.23,0.76,0.19a2.78,2.78,0,0,0,.38-0.53c0-.21-0.26-0.15-0.44-0.19" transform="translate(-0.93 0)" style="fill:#e30613"/><path d="M5.45,32.9a0.85,0.85,0,0,0,.44-0.7c0.19-.47.41-0.89,0.64-1.34a0.59,0.59,0,0,0,.14-0.42,1.06,1.06,0,0,0-.89-0.32,14.05,14.05,0,0,0-1.52,1.55,2.48,2.48,0,0,0-.67.91c0.79,0.08,1.22.24,1.87,0.32" transform="translate(-0.93 0)" style="fill:#e30613"/><path d="M18.92,13.63a1.63,1.63,0,0,1-1.5.44,0.27,0.27,0,0,0-.25.16A11.26,11.26,0,0,1,15,18.34s-0.16,0-.17-0.06c0-.61.48-1.54-0.16-1.84a2.15,2.15,0,0,1-1.27-.76c-0.16-.45.46-0.88,0.77-1.31a0.07,0.07,0,0,0-.05-0.11,0.82,0.82,0,0,0-.51.31c-1.6,2-2.19,4.34-2.78,6.68,0.12,2.13-.84,4.11-1.44,6.1,0.61,0.28.25,1.1-.19,1.32a0.37,0.37,0,0,1-.5-0.12,13.46,13.46,0,0,0-2.29,4.6,8.53,8.53,0,0,0-.51,4c0,0.18.13,0,.14-0.06A66.21,66.21,0,0,1,8.67,30a0.18,0.18,0,0,1,.16,0,0.87,0.87,0,0,1-.1.69A8.14,8.14,0,0,0,8,33.13a34,34,0,0,0-1,9.09c0,0.64-.21,1.28-0.18,1.93,0.1,2.48-.13,4.92-0.26,7.37a0.48,0.48,0,0,0,.36.38A14.9,14.9,0,0,0,12.44,53c0.43-1.59.29-3.29,1-4.81,0,0,.1,0,0.1.06a24.44,24.44,0,0,1-.35,3.22s0.09,0.1.1,0.06c0.83-2.4.75-4.86,1.46-7.32A0.61,0.61,0,0,1,15,43.73a0.08,0.08,0,0,1,.11.07c-0.14,2.83-1,5.56-1.25,8.37,0,0.29.48,0.33,0.77,0.36a10.75,10.75,0,0,1,3.8.93c0.33,0.17.49-.34,0.63-0.6a6.35,6.35,0,0,0,.2-0.69c0.17-.44.4-0.85,0.58-1.29,0.3-.7.45-1.46,0.78-2.15a19.14,19.14,0,0,0,1.12-3c0.52-1.88.92-3.63,1.48-5.48,0.41-1.38.72-2.67,1-4.07a34.24,34.24,0,0,0,1-9.34c-0.11.15-.05,0.36-0.16,0.5a0.38,0.38,0,0,1-.55,0,1.55,1.55,0,0,1-.26-0.57c-0.48.88-.75,1.84-1.2,2.74a0.12,0.12,0,0,1-.18,0,0.54,0.54,0,0,1,0-.5,22.9,22.9,0,0,0,.9-4S23.69,25,23.65,25a4.08,4.08,0,0,0-.85,1,4.2,4.2,0,0,1-.94,1.23c-0.07.06-.16-0.1-0.15-0.11,0.44-1,1.26-1.77,1.28-2.88A0.34,0.34,0,0,0,22.77,24a1.11,1.11,0,0,1-1.06-.9,7.8,7.8,0,0,1,3.4.57,9,9,0,0,1,2.24.88,7.79,7.79,0,0,0,2.25,1.11,5.34,5.34,0,0,0,1.53.12,1.16,1.16,0,0,0,.78-0.59,16.14,16.14,0,0,0,1.69-2.37,10.32,10.32,0,0,1,.83-1.09,0.27,0.27,0,0,0,0-.24,4,4,0,0,0-1.11-1.58,2.6,2.6,0,0,0-2.16-.62,2,2,0,0,1,.74.75c0.1,0.18.11,0.61-.18,0.47-0.69-.33-1-1.18-1.4-1.09s0.05,0.87.15,1.28a5.24,5.24,0,0,0,0-.57c0.29-.3.43,0.21,0.52,0.41A7.33,7.33,0,0,1,31.48,22a2,2,0,0,1,.44.86,0.24,0.24,0,0,1-.36.1,4,4,0,0,1-1.34-1.42c-0.6-.81-0.64-1.85-1.28-2.64-0.17-.21-0.72-0.17-0.69.13a4.92,4.92,0,0,0,.48,1,0.17,0.17,0,0,1-.25.23,12.83,12.83,0,0,1-1-1.42,3.15,3.15,0,0,0-.82-0.49c-0.31-.18-0.83.06-1-0.27a5.32,5.32,0,0,0-3.45-2.77,0.48,0.48,0,0,1-.37-0.51c0-.1.13-0.08,0.18,0a1.54,1.54,0,0,0,1,.39,0.33,0.33,0,0,0,.17-0.35,0.82,0.82,0,0,0-.53-0.65A18.78,18.78,0,0,0,21,13.38a2.77,2.77,0,0,0-1.6,0,1.14,1.14,0,0,0-.48.26" transform="translate(-0.93 0)" style="fill:#e30613"/><path d="M4.11,36a0.74,0.74,0,0,0-.52.23,5,5,0,0,0-.15,1.48c-0.09,1-.11,1.9-0.12,2.85s0,1.65.11,2.49a5.27,5.27,0,0,0,.35-1.31c0.17-1,.22-1.88.33-2.83s0.32-1.85.36-2.77C4.46,36,4.24,36,4.11,36" transform="translate(-0.93 0)" style="fill:#e30613"/><path d="M5.12,41.55a2.38,2.38,0,0,1,.31-0.91,1.84,1.84,0,0,0-.13-1c-0.22-1.4.38-2.66,0-4a3.2,3.2,0,0,0-.29,1,18.73,18.73,0,0,0-.13,2.59c0,0.47-.09.93-0.06,1.4A8.09,8.09,0,0,0,5,42a0.87,0.87,0,0,0,.11-0.43" transform="translate(-0.93 0)" style="fill:#e30613"/><path d="M3.13,45.27c-0.44.09-.18-0.61-0.35-0.87a2,2,0,0,0-.24.63,1.31,1.31,0,0,0-.27.69,2,2,0,0,0,1,.74,0.26,0.26,0,0,0,.18-0.17,5.29,5.29,0,0,0,.27-1.73,1.69,1.69,0,0,1-.61.71" transform="translate(-0.93 0)" style="fill:#e30613"/><path d="M4.33,46.39a12.32,12.32,0,0,0,.18-1.61c-0.35.47-.14,1.11-0.56,1.68a0.16,0.16,0,0,0,0,.24c0.19,0.09.33-.11,0.34-0.31" transform="translate(-0.93 0)" style="fill:#e30613"/><path d="M2.05,44.25a14.37,14.37,0,0,0,.53-3.75c-0.2.72-.31,1.41-0.47,1.94a12.9,12.9,0,0,0-.47,1.48,1.91,1.91,0,0,0,.17.26c0.06,0.13.05,0.32,0.1,0.44a0.53,0.53,0,0,0,.13-0.37" transform="translate(-0.93 0)" style="fill:#e30613"/><path d="M4.2,34.76a0.75,0.75,0,0,0,.58.1A0.41,0.41,0,0,0,5,34.41c-0.43-.5-1.77-0.5-2.4-0.48a0.54,0.54,0,0,0-.27.29c0.56,0.4,1.31.23,1.91,0.54" transform="translate(-0.93 0)" style="fill:#e30613"/><path d="M3.12,33.37a4.83,4.83,0,0,1,1.66.3c0.13,0.08.4,0.23,0.5,0a0.17,0.17,0,0,0-.12-0.24c-0.28-.06-0.61-0.07-0.88-0.11a5.49,5.49,0,0,0-1.11-.16,0.33,0.33,0,0,0-.13.11,0.51,0.51,0,0,0,.08.09" transform="translate(-0.93 0)" style="fill:#e30613"/><path d="M5.41,50.32c0.13,0.08.38,0.25,0.41,0.07,0.66-3.46.48-6.84,0.6-10.26a0.67,0.67,0,0,0,0-.58c-0.55,2-.84,4-1.28,6.1-0.27,1.31-.66,2.51-0.88,3.79a5.88,5.88,0,0,0,1.2.89" transform="translate(-0.93 0)" style="fill:#e30613"/><path d="M10,72.54a3.76,3.76,0,0,1,.23-1.24,1.55,1.55,0,0,0-.71,1.28,0.22,0.22,0,0,0,.3.13A0.29,0.29,0,0,0,10,72.54M35.57,19a0.67,0.67,0,0,0-.71.84c0.14,0.38.74,0.29,1,0A0.47,0.47,0,0,0,35.57,19m-0.68-1a0.7,0.7,0,0,0-1.08.29,0.44,0.44,0,0,0,.35.5,0.58,0.58,0,0,0,.64-0.15c0.16-.19.34-0.42,0.08-0.64m-1.73-.65A0.44,0.44,0,0,0,33,16.86a0.5,0.5,0,0,0-.44-0.08,0.67,0.67,0,0,0-.52.8c0.1,0.26.36,0.22,0.61,0.15a0.59,0.59,0,0,0,.46-0.36M12.65,30.54c-0.17-.06-0.26-0.3-0.45-0.36S11.86,30,11.78,30.1c-1.16,1.64-1.58,3.47-2.54,5.13a21,21,0,0,1,2.14,1.51c0.74,0.72,1.27,1.56,1.93,2.32a16.11,16.11,0,0,1,4.94-.64A0.52,0.52,0,0,0,18.58,38a33.23,33.23,0,0,1,1.49-3.77,0.59,0.59,0,0,0,.07-0.55c-0.27-.41-0.88-0.12-1.16-0.47-0.84-1.06-2.16-1.3-3.34-1.76-1-.39-2-0.55-3-0.92m12.24-1.1c0.15-.37.38-1-0.14-1.15a0.37,0.37,0,0,0-.44.17c-0.22.36-.41,0.9,0,1.13a0.39,0.39,0,0,0,.56-0.15m-0.28,2.32a1.37,1.37,0,0,0,0-1.08c-0.12-.26-0.36-0.21-0.55-0.07a0.86,0.86,0,0,0,0,1.35,0.36,0.36,0,0,0,.51-0.2m-0.24,1.68a0.67,0.67,0,0,0-.06-0.57,0.48,0.48,0,0,0-.81.09,0.86,0.86,0,0,0-.22.63,0.47,0.47,0,0,0,.42.37,0.64,0.64,0,0,0,.66-0.52M23.83,35.8a0.87,0.87,0,0,0,0-.83,0.39,0.39,0,0,0-.56-0.15,0.94,0.94,0,0,0-.47,1,0.35,0.35,0,0,0,.36.3,0.69,0.69,0,0,0,.64-0.33m-5.12,3.9a0.51,0.51,0,0,0-.35-0.7,0.53,0.53,0,0,0-.55,0,0.54,0.54,0,0,0,.33.91,0.56,0.56,0,0,0,.57-0.26m-5.65.65a0.6,0.6,0,0,0-.17-0.63,0.6,0.6,0,0,0-.76,0,0.67,0.67,0,0,0-.34.69,0.63,0.63,0,0,0,.49.39,0.6,0.6,0,0,0,.77-0.41M9,36.19a0.45,0.45,0,0,0-.29-0.64,0.6,0.6,0,0,0-.76.66,0.43,0.43,0,0,0,.2.36A0.62,0.62,0,0,0,9,36.19m2.54-8.12a0.44,0.44,0,0,0-.55-0.3A0.74,0.74,0,0,0,10.52,29a0.58,0.58,0,0,0,.95-0.14,1.18,1.18,0,0,0,.08-0.77M3.23,3.7c0.07,0.13.21,0.34,0,.44a0.14,0.14,0,0,1-.05-0.06,0.28,0.28,0,0,1,0-.39m0.7,2.13c0.1,0.28,1.19,2.7,1,2.92a5.68,5.68,0,0,1-.31-0.81,6.29,6.29,0,0,1-.66-2.11m3.29,9.59a0.24,0.24,0,0,0,.06.07A25.86,25.86,0,0,0,5,9s0.21,0.82.23,0.88c0.59,1.85,1.38,3.67,2,5.51m0.06,0.07a0.69,0.69,0,0,0,.11.39c0.16-.12.06-0.27,0-0.38a0.24,0.24,0,0,0-.12,0m10.43,55.8c-0.07.09-.29-0.07-0.32-0.18a0.08,0.08,0,0,1,.06-0.05,2.49,2.49,0,0,1,.27.23m4.2-20.08c0-.06.15-0.06,0.15,0s-0.15.07-.15,0m-0.39-.07a0.22,0.22,0,0,1,.29,0,0.19,0.19,0,0,1-.14,0c-0.08,0-.17,0-0.15,0M21.38,49a1.61,1.61,0,0,0-.12-0.11c-0.37.22,0.07,0.47,0.3,0.56a0.07,0.07,0,0,0,.06-0.11A2.14,2.14,0,0,0,21.38,49m3.24-23.3a0.59,0.59,0,0,0-.12.63,0.44,0.44,0,0,1,.72-0.1A3.49,3.49,0,0,0,25.35,25c0-.2-0.11-0.68-0.37-0.49a3.86,3.86,0,0,0-.36,1.19M11.7,32.6A1.51,1.51,0,0,1,12,32c0.09,0,.06.11,0.06,0.18s-0.55.81-.37,0.44m1.51,4.13a0.1,0.1,0,0,1,.07-0.13,1.07,1.07,0,0,0,.25.39,0.54,0.54,0,0,1-.31-0.26m-0.64-.86A1.91,1.91,0,0,1,12,35.55a1,1,0,0,1-.39-0.3,0.07,0.07,0,0,1,.11,0l0.13,0.08a3.5,3.5,0,0,1,.68.6m-1.67-1.23A0.07,0.07,0,0,1,11,34.59c0.22,0.24.49,0.37,0.68,0.61a0.08,0.08,0,0,1-.11,0l-0.12-.08a1,1,0,0,1-.56-0.52m-0.53-.15c0.23-1.43,1.14-2.57,1.62-3.89a2.51,2.51,0,0,1-.44,1.47,11.8,11.8,0,0,1-1.19,2.42m2.8,2.94s-0.08.1-.12,0.05a12.73,12.73,0,0,0-2.33-2.13,1.44,1.44,0,0,1-.67-0.43,0.24,0.24,0,0,1,.18-0.28c0.12,0,0,.24.07,0.27A6.37,6.37,0,0,1,13,37.19a0.31,0.31,0,0,1,.14.25m0.47,0.71s-0.35-.57-0.37-0.57a0.27,0.27,0,0,0-.11.05s0.44,0.52.48,0.52m0.07-.76a0.08,0.08,0,0,1,.12-0.06s0.1,0.08.05,0.12a0.11,0.11,0,0,1-.17-0.06m0.74,0c0,0.12-.17.11-0.23,0a0.1,0.1,0,0,1,.06-0.05c0.07,0,.19,0,0.17.06m1.1,0.5a6.65,6.65,0,0,1-1.43.15,1.37,1.37,0,0,1,.72-0.17,0.88,0.88,0,0,1,.71,0m1.81,0a11.09,11.09,0,0,1-1.42,0,1.6,1.6,0,0,1,.84,0,0.79,0.79,0,0,1,.58.07m0-.47c-0.86-.2-1.65.14-2.46-0.07a17,17,0,0,1,2.33-.19,0.3,0.3,0,0,0,.19-0.24,3.41,3.41,0,0,1,.46-1.13c0,0.42-.36,1.15-0.41,1.52a0.15,0.15,0,0,1-.12.11M18,35.63a16.7,16.7,0,0,1,.72-1.8A0.21,0.21,0,0,1,19,33.64a0.08,0.08,0,0,1,.06.12c-0.08.13-.14,0.25-0.21,0.38s-0.64,1.27-.8,1.48m1.53-1.78A6,6,0,0,1,19,35.16a1.4,1.4,0,0,1,.38-1,0.37,0.37,0,0,1,.25-0.32M21,50a1.3,1.3,0,0,0,.25-0.26s-0.05-.08-0.11-0.06a0.64,0.64,0,0,0-.51.56c0,0.1.3,0.32,0.3,0.14A0.45,0.45,0,0,1,21,50m0.56,0.54a1.58,1.58,0,0,0,.4-0.31,2.84,2.84,0,0,0-1,.22,0.56,0.56,0,0,0,.64.09M20.95,51h0a1.73,1.73,0,0,0,.58,0,3.46,3.46,0,0,1-.48-0.15,1.73,1.73,0,0,0-.54-0.2,1.08,1.08,0,0,0-.14.18,1.51,1.51,0,0,0,.54.14m-0.9.82a0.17,0.17,0,0,0-.07.06,0.23,0.23,0,0,0,.3,0,0.3,0.3,0,0,0-.23-0.06m1.73,0.07c-0.22,0,.11-0.29.09-0.26s0.32-.2.14-0.12a4.44,4.44,0,0,1-.83.3,2.67,2.67,0,0,0-.61,0,0.58,0.58,0,0,0,.39.05,2.45,2.45,0,0,1,.62,0c0.11,0,.08.13,0,0.34a0.07,0.07,0,0,0,.11.06,1.26,1.26,0,0,0,.38-0.3c0-.08-0.09-0.13-0.31-0.13m17,20.19a0.08,0.08,0,0,0-.12.05,0.23,0.23,0,0,0,.11.13,0.08,0.08,0,0,0,.12-0.06,0.23,0.23,0,0,0-.11-0.13M21.31,54s0.56,0,.61,0A0.78,0.78,0,0,0,22.54,54c0-.12.05-0.21,0-0.26a1.37,1.37,0,0,0-.8,0,0.71,0.71,0,0,0-.39.1,0.18,0.18,0,0,0,0,.23m-3.09.4c0.2,0,.44-0.13.75-0.15a0.58,0.58,0,0,0,.4-0.11s0-.3,0-0.3c-0.4.37-1,0-1.17,0.21S18,54,18,54.2a0.24,0.24,0,0,0,.23.2m1.94-.9c0.1,0,.15-0.08.24-0.09a0.54,0.54,0,0,1,.42.14,1.28,1.28,0,0,0,.05.48,1.18,1.18,0,0,0,.05-0.46,0.34,0.34,0,0,0-.1-0.36,0.71,0.71,0,0,0-.48.07c-0.13,0-.33,0-0.46,0a1,1,0,0,0-.18.56s0.22,0,.24,0,0-.31.22-0.34m0.56,1.07a0.2,0.2,0,0,0,.21-0.08A2.34,2.34,0,0,1,20.88,54c-0.19.19,0,.39-0.34,0.43s-0.48.1-.64-0.21a0.94,0.94,0,0,0-.05.37,2.2,2.2,0,0,0,.87,0m8.19,16.09a4.82,4.82,0,0,0,1,.15A4.13,4.13,0,0,0,32,70.72a19,19,0,0,1-1.78-2.27,0.17,0.17,0,0,1,.06-0.25c0.19-.09.65,0,0.53-0.2-1.13-1.63-2.36-2.88-3.44-4.58a44.34,44.34,0,0,1-2.74-5,15.69,15.69,0,0,0-2-3.95,1.1,1.1,0,0,0-1.22-.06,3.57,3.57,0,0,1,0,.42,8.75,8.75,0,0,1-.89.23,5.4,5.4,0,0,1-.86.17c-0.34,0,0-.48-0.19-0.57a1.24,1.24,0,0,0-1,.33s0,0.09.05,0.13a0.49,0.49,0,0,0-.15.26,11.65,11.65,0,0,0,1.9,5.93,9.4,9.4,0,0,0,1.81,2,8.38,8.38,0,0,0,1.68,1.49,7.72,7.72,0,0,1,1.58,1.3c1.3,1.16,2.84,2.4,2.88,4.32,0,0.27.48,0.18,0.77,0.27m5.36,0.55a0.59,0.59,0,0,0,.49-0.41c0.08-.13-0.17-0.24-0.28-0.17a0.58,0.58,0,0,1-.58.2,7.46,7.46,0,0,1-1.26-1c-0.11-.12.07-0.24,0.18-0.37a0.08,0.08,0,0,0-.06-0.12c-0.2,0-.6.06-0.53,0.2a3.26,3.26,0,0,0,2,1.68m2,2.26a1.65,1.65,0,0,0,1-.29,5,5,0,0,0-2.13.08c-0.19,0,.06.09,0.05,0.17,0.35,0,.69,0,1,0m-7.87-.67a6.26,6.26,0,0,1-.17-1,0.8,0.8,0,0,0,.09,1.29,0.08,0.08,0,0,0,.12-0.06,0.32,0.32,0,0,0,0-.26M8.08,53.65a0.85,0.85,0,0,0-.88.3,1,1,0,0,0-.12.5,0.33,0.33,0,0,0-.26.13c-0.08.11,0.16,0.12,0.1,0.17a0.72,0.72,0,0,0-.22.14,0.39,0.39,0,0,1,0,.4,0.09,0.09,0,0,0,.11.06,1.38,1.38,0,0,0-.24.69,0.63,0.63,0,0,0,.07.47c-0.1,0,0,.17-0.14.19A0.34,0.34,0,0,1,6.6,57s-0.11.09-.11,0.13a16,16,0,0,0,1.86,6.87,0.65,0.65,0,0,1,0,.24c0.42,1.27.84,2.5,1.18,3.81a2.27,2.27,0,0,1,.25.33,9.09,9.09,0,0,1,.09,1.17,0.9,0.9,0,0,0,0,.57,0.68,0.68,0,0,0,.36.22,4.39,4.39,0,0,0,3-.15c-1.59-2-1.58-3.62-1.68-6.14-0.06-1.48,0-2.93,0-4.4a21.28,21.28,0,0,0-.46-4.47c0-.24-0.15-0.46-0.22-0.72a0.61,0.61,0,0,0-.36-0.32,5,5,0,0,0-2.49-.43M5.41,50.32c0.13,0.08.38,0.25,0.41,0.07,0.66-3.46.48-6.84,0.6-10.26a0.67,0.67,0,0,0,0-.58c-0.55,2-.84,4-1.28,6.1-0.27,1.31-.66,2.51-0.88,3.79a5.88,5.88,0,0,0,1.2.89m0-17.42a0.85,0.85,0,0,0,.44-0.7c0.19-.46.41-0.89,0.64-1.34a0.59,0.59,0,0,0,.14-0.42,1.06,1.06,0,0,0-.89-0.31,14.14,14.14,0,0,0-1.52,1.55,2.48,2.48,0,0,0-.67.9c0.79,0.08,1.22.24,1.87,0.32m-2.33.47a4.8,4.8,0,0,1,1.66.3c0.13,0.08.4,0.23,0.5,0a0.17,0.17,0,0,0-.12-0.24c-0.28-.06-0.61-0.07-0.88-0.11a5.49,5.49,0,0,0-1.11-.15,0.32,0.32,0,0,0-.13.11,0.59,0.59,0,0,0,.08.09m1.08,1.4a0.75,0.75,0,0,0,.58.1A0.41,0.41,0,0,0,5,34.41c-0.43-.51-1.77-0.5-2.4-0.49a0.54,0.54,0,0,0-.27.29c0.56,0.4,1.31.23,1.91,0.55M2.05,44.25a14.33,14.33,0,0,0,.53-3.75c-0.2.72-.31,1.41-0.47,1.94a13.1,13.1,0,0,0-.47,1.48,1.87,1.87,0,0,0,.17.25c0.06,0.13.05,0.32,0.1,0.44a0.53,0.53,0,0,0,.13-0.37m2.27,2.14a12.14,12.14,0,0,0,.18-1.61c-0.35.47-.14,1.11-0.56,1.67a0.16,0.16,0,0,0,0,.24c0.19,0.09.33-.11,0.34-0.31m-1.2-1.12c-0.44.09-.18-0.61-0.35-0.87a2,2,0,0,0-.24.63,1.31,1.31,0,0,0-.27.69,2,2,0,0,0,1,.74,0.27,0.27,0,0,0,.18-0.17,5.29,5.29,0,0,0,.27-1.73,1.69,1.69,0,0,1-.61.71m2-3.71a2.36,2.36,0,0,1,.32-0.9,1.85,1.85,0,0,0-.13-1c-0.22-1.4.38-2.66,0-4a3.19,3.19,0,0,0-.29,1,18.74,18.74,0,0,0-.14,2.59c0,0.47-.09.93-0.06,1.4A8.12,8.12,0,0,0,5,42a0.87,0.87,0,0,0,.11-0.43M4.11,36a0.74,0.74,0,0,0-.52.23,4.92,4.92,0,0,0-.15,1.48c-0.09,1-.11,1.9-0.12,2.85s0,1.65.11,2.49a5.35,5.35,0,0,0,.35-1.31c0.17-1,.21-1.88.32-2.83s0.32-1.84.35-2.77C4.46,36,4.24,36,4.11,36M14,36.89a16,16,0,0,0-2.51-2.35A23.12,23.12,0,0,1,13,31c1.72,0.88,3.95.77,5.32,2.23a0.43,0.43,0,0,1,.07.42A32.53,32.53,0,0,1,17,36.8a6.65,6.65,0,0,0-1.29,0,8.11,8.11,0,0,0-1.62.13M6.83,29.22a0.59,0.59,0,0,0-.75.35c0,0.06,0,.18.05,0.18,0.49,0,.52.23,0.76,0.19a2.7,2.7,0,0,0,.38-0.53c0-.21-0.26-0.15-0.44-0.19m0.9-2.27a1.23,1.23,0,0,0,.21,0c0.05,0,.1,0,0.06-0.09a0.53,0.53,0,0,0-.25-0.2,1.5,1.5,0,0,1-.25.19,0.94,0.94,0,0,0-.44.09,1.36,1.36,0,0,0,.66,0M9,26.5a19.15,19.15,0,0,0,.83-2.69c0-.35-0.35.16-0.65,0.1a0.08,0.08,0,0,0-.06-0.12,1.53,1.53,0,0,1-.54-0.15c-0.08-.08.08-0.46,0-0.55a0.57,0.57,0,0,1-.2-0.21,2.35,2.35,0,0,0,0-.49,1.93,1.93,0,0,0-.2.12,5.87,5.87,0,0,1-2.26,3.75s0,0.12.05,0.11a6.44,6.44,0,0,1,.77-0.08A2.44,2.44,0,0,1,7.57,26s0.06,0.15.11,0.17a1.52,1.52,0,0,1,.39,0,1.73,1.73,0,0,0,.18.18c0.06,0,.22,0,0.25.07s-0.27.29-.37,0.39A0.8,0.8,0,0,0,9,26.5m-3.88-.91a4.71,4.71,0,0,0,1.51-1.85,0.82,0.82,0,0,0,.1-0.41,10,10,0,0,1-3.14,3,3.06,3.06,0,0,0,1.54.76C5.24,27.15,5,27,5,26.95c-0.26-.27-1-0.25-0.8-0.67a2.22,2.22,0,0,1,.94-0.69m0-4.54a0.62,0.62,0,0,1,.44.27c0.08,0.13-.16.35,0,0.34a1.41,1.41,0,0,0,.42-0.44,1.85,1.85,0,0,0-.42-0.49,3.41,3.41,0,0,0-.43-0.42C4.53,20.06,4,20,3.5,19.71a0.07,0.07,0,0,0-.06.11A3.27,3.27,0,0,0,5.08,21M5.83,23.6a16.64,16.64,0,0,1,.94-1.67c0.08-.09.14-0.39-0.06-0.41s-1.17.83-1.33,0.18c-0.26.28-.67,0.51-0.93,0.82a0.07,0.07,0,0,0,.05.11,5.79,5.79,0,0,1,1.25-.34c0.23,0,.09.41,0,0.65-0.11.45-.61,0.65-0.62,1.14a0.85,0.85,0,0,0,.66-0.5m5.73-9a0.54,0.54,0,0,0-.32-0.18,0.2,0.2,0,0,0-.13.3c0.07,0.15.49,0.36,0.63,0.16a1.73,1.73,0,0,0-.18-0.28M8.4,20.5a1.13,1.13,0,0,0,.38.08c-0.74-1-1.67-2.09-1.22-3.08a1.45,1.45,0,0,1,.35-0.33c0.41,0.14.74,0.39,1.16,0.52,0.07,0,.17,0,0.18-0.05s0.15-.45.34-0.35,0.46,0.32.71,0.46a8.93,8.93,0,0,1-.11-1.88,0.16,0.16,0,0,1,.24-0.11,0.89,0.89,0,0,1,.21.37,2.75,2.75,0,0,0,.8.42s0.1-.07.06-0.1a2.48,2.48,0,0,1-1.3-2.06s-0.08-.19-0.16-0.12a2.86,2.86,0,0,0-.2,1.16c-0.12.41,0.19,0.91,0,1.25s-0.5-.11-0.53-0.38c0-.07-0.26-0.88-0.27-0.9a0.11,0.11,0,0,0-.17,0C8.79,16,9.09,16.49,9,17a0.21,0.21,0,0,1-.24.11,3.62,3.62,0,0,0-1-.49,1,1,0,0,0-.6.9C6.92,18,7.34,18.5,7.16,19c-0.67,0-.9-1-1.12-1.32s-0.82.77-.82,1.18A1.92,1.92,0,0,0,6.4,20.49a0.31,0.31,0,0,0,.38,0,3.32,3.32,0,0,1-1.09-1.41c-0.09-.23,0-0.74.3-0.53s0.37,0.74.71,1a4.71,4.71,0,0,0,1.7,1M36.16,5A0.77,0.77,0,0,0,36,4.6a0.45,0.45,0,0,0-.7.16c0,0.05,0,.09.06,0.13a0.35,0.35,0,0,1,.63,0c0.11,0.24,0,.52.12,0.77A0.85,0.85,0,0,0,36.16,5m-1.22,6.22a2.89,2.89,0,0,0,.42.66,1.64,1.64,0,0,0,.56.31,2.09,2.09,0,0,1,1.48.42,17.59,17.59,0,0,0,1.86-2c0.12-.18.38-0.59,0-0.58a3.31,3.31,0,0,0-.41.44,0.3,0.3,0,0,1-.44-0.19c-0.11-.42.39-0.76,0.16-1.15a0.14,0.14,0,0,0-.12,0,0.1,0.1,0,0,0-.07.12c-0.17,0-.38,0-0.43-0.15a4.14,4.14,0,0,0,0-.7,0.18,0.18,0,0,0-.24-0.13c-0.33.18-.08,0.62-0.31,0.79s-0.29-.13-0.33-0.25a4.56,4.56,0,0,0,0-1,9.66,9.66,0,0,0-.49-1.34,0.75,0.75,0,0,0-.23.55c0.26,0.66-.12,1.28-0.08,1.89a2.7,2.7,0,0,1,0,.39,0.07,0.07,0,0,1-.11.05A0.63,0.63,0,0,1,35.88,9c0-.66.44-1.44-0.12-2a0.64,0.64,0,0,0-.26.34,6.94,6.94,0,0,1-.16,1.14c-0.15.31-.36,0.59-0.5,0.91a1,1,0,0,0,.07.58,5.51,5.51,0,0,0-.12.89,1,1,0,0,0,.17.33m-1.17,2c0.1,0.28-.12.56,0,0.76a1.46,1.46,0,0,0,1,.28,6.6,6.6,0,0,1,1.18.63c0.42,0.23.73,0.65,1.13,0.91a1.2,1.2,0,0,1,.71.79c0.1,0.7,1,1,1.22,1.61a0.2,0.2,0,0,1-.12.11,2,2,0,0,1-.38,0c-0.24,0-.11.3,0.05,0.35a2.24,2.24,0,0,0,.88.26c0.27,0,.26-0.46.15-0.71a0.68,0.68,0,0,1-.19-0.64,0.81,0.81,0,0,0,.34-0.33c0-.34-0.38-0.56-0.39-0.92a0.72,0.72,0,0,1,.58.15,0.73,0.73,0,0,0,.14-0.83,2.46,2.46,0,0,0-1.55-1c-0.31-.15-0.08-0.51-0.13-0.81A0.76,0.76,0,0,0,38,13.41c-0.17-.12-0.45,0-0.54-0.06a1.73,1.73,0,0,0-1.78-.47,1.78,1.78,0,0,1-.5-0.46,1.29,1.29,0,0,0-1.5.22,0.9,0.9,0,0,0,.07.68m-0.85,1.54a12.42,12.42,0,0,1-2.07,2.82,14,14,0,0,0,1.64.74,7.37,7.37,0,0,1,1.23.71c0.81,0.6,1.12,1.49,1.85,2.07a0.94,0.94,0,0,0,.83-0.38c0.38-.39.87-0.45,1.22-0.84a0.5,0.5,0,0,0,.13-0.24,4,4,0,0,0-.31-2.39,3.66,3.66,0,0,0-.8-1.05,9.3,9.3,0,0,0-2.51-1.55,1,1,0,0,0-1.21.11m-14-1.22a1.63,1.63,0,0,1-1.5.44,0.27,0.27,0,0,0-.25.16A11.26,11.26,0,0,1,15,18.34s-0.16,0-.17-0.06c0-.61.48-1.54-0.16-1.84a2.16,2.16,0,0,1-1.27-.76c-0.16-.45.46-0.88,0.78-1.31a0.07,0.07,0,0,0-.05-0.11,0.81,0.81,0,0,0-.51.31c-1.6,2-2.19,4.34-2.78,6.68,0.12,2.13-.84,4.11-1.44,6.1,0.61,0.28.25,1.1-.19,1.32a0.37,0.37,0,0,1-.5-0.12,13.49,13.49,0,0,0-2.28,4.6,8.53,8.53,0,0,0-.51,4c0,0.18.13,0,.14-0.06A66.29,66.29,0,0,1,8.67,30a0.18,0.18,0,0,1,.16,0,0.86,0.86,0,0,1-.1.69A8.14,8.14,0,0,0,8,33.13a34,34,0,0,0-1,9.09c0,0.64-.21,1.28-0.18,1.93,0.1,2.48-.13,4.92-0.26,7.37a0.48,0.48,0,0,0,.36.38A14.9,14.9,0,0,0,12.44,53c0.43-1.59.29-3.29,1-4.81,0,0,.1,0,0.1.06a24.42,24.42,0,0,1-.35,3.22s0.09,0.1.1,0.06c0.83-2.4.75-4.86,1.46-7.32A0.6,0.6,0,0,1,15,43.73a0.08,0.08,0,0,1,.11.06c-0.14,2.83-1,5.56-1.25,8.37,0,0.29.48,0.33,0.77,0.36a10.79,10.79,0,0,1,3.8.93c0.33,0.17.49-.34,0.63-0.6a6.39,6.39,0,0,0,.2-0.69c0.17-.44.4-0.85,0.58-1.29,0.3-.7.45-1.46,0.77-2.15a19.23,19.23,0,0,0,1.12-3c0.52-1.88.92-3.63,1.47-5.49,0.41-1.38.72-2.67,1-4.07a34.23,34.23,0,0,0,1-9.34c-0.11.15-.05,0.36-0.16,0.5a0.38,0.38,0,0,1-.55,0,1.54,1.54,0,0,1-.26-0.57c-0.48.88-.75,1.84-1.2,2.74a0.12,0.12,0,0,1-.18,0,0.54,0.54,0,0,1,0-.5,23,23,0,0,0,.9-4S23.69,25,23.65,25a4.07,4.07,0,0,0-.85,1,4.23,4.23,0,0,1-.94,1.23c-0.07.06-.16-0.1-0.15-0.11,0.44-1,1.26-1.77,1.28-2.88A0.34,0.34,0,0,0,22.77,24a1.11,1.11,0,0,1-1.06-.9,7.8,7.8,0,0,1,3.4.57,9.05,9.05,0,0,1,2.24.88,7.76,7.76,0,0,0,2.25,1.11,5.27,5.27,0,0,0,1.53.12,1.16,1.16,0,0,0,.78-0.59,16.14,16.14,0,0,0,1.69-2.37,10.32,10.32,0,0,1,.83-1.09,0.27,0.27,0,0,0,0-.24,4,4,0,0,0-1.11-1.57,2.6,2.6,0,0,0-2.16-.62,2,2,0,0,1,.74.74c0.1,0.18.11,0.61-.18,0.47-0.69-.34-1-1.18-1.4-1.1s0.05,0.87.15,1.28a5.28,5.28,0,0,0,0-.57c0.29-.3.43,0.21,0.52,0.4A7.36,7.36,0,0,1,31.48,22a2,2,0,0,1,.44.86,0.24,0.24,0,0,1-.36.1,4,4,0,0,1-1.34-1.42c-0.6-.81-0.64-1.85-1.27-2.64-0.17-.21-0.72-0.17-0.69.13a5,5,0,0,0,.48,1,0.17,0.17,0,0,1-.25.23,12.81,12.81,0,0,1-1-1.42,3.18,3.18,0,0,0-.82-0.49c-0.31-.18-0.83.06-1-0.26a5.32,5.32,0,0,0-3.45-2.77,0.48,0.48,0,0,1-.37-0.51c0-.1.13-0.08,0.18,0a1.53,1.53,0,0,0,1,.39,0.33,0.33,0,0,0,.17-0.35,0.82,0.82,0,0,0-.53-0.65A18.79,18.79,0,0,0,21,13.38a2.78,2.78,0,0,0-1.6,0,1.15,1.15,0,0,0-.48.26m3.8-1.23c-0.34.19-.65,0.36-1,0.58-0.07,0,.06.13,0.12,0.16,0.21,0.12.47,0.17,0.67,0.28a2,2,0,0,1,1.17.92c0.09,0.28-.15.68-0.05,0.93a2.93,2.93,0,0,0,1.2.84,8,8,0,0,1,1,1.09,2.46,2.46,0,0,0,.33.63,4.69,4.69,0,0,1,.62.18,0.5,0.5,0,0,0,.26.1c0.22-.07.14-0.34,0.16-0.56a0.26,0.26,0,0,1,.26.07,0.23,0.23,0,0,0,.12-0.31c0-.07-0.23-0.14-0.27-0.21a2.36,2.36,0,0,1,0-.36c-0.2-.56-1.46-0.37-1.62-1.19,0.33-.08.73,0.42,0.91,0-0.71-.42-1.5-0.65-2.2-1.09-0.38-.23-1-0.51-0.92-1a0.47,0.47,0,0,0,.25,0A2.88,2.88,0,0,0,23,12.37a0.24,0.24,0,0,0-.25,0m2.83-7a0.71,0.71,0,0,0-.7.49,4.33,4.33,0,0,0-.73,2.29s0.1,0.1.09,0.13a1.62,1.62,0,0,0,.55,1.13s0,0.18-.06.17a0.68,0.68,0,0,0-.76.64,2,2,0,0,1-.52,1.91,1.21,1.21,0,0,0,.68.62,18.63,18.63,0,0,0,2,0,0.39,0.39,0,0,0,.26-0.29c0.11-.31-0.35-0.53-0.2-0.84a1.56,1.56,0,0,1,.31-0.53C26.51,11.1,26.38,11,26.33,11a0.59,0.59,0,0,0-.52.08A0.11,0.11,0,0,1,25.63,11c-0.09-.72.49-0.39,0.91-0.44a0.27,0.27,0,0,0,.19-0.17c0.17-.59.28-0.62,0.94-0.57,0.18,0,.14-0.42.11-0.45a10.29,10.29,0,0,1-1.22-1.15c-0.12-.17-0.2.38-0.36,0.51a0.31,0.31,0,0,1-.39-0.19c0-.17.11-0.3,0.08-0.43a0.93,0.93,0,0,0-.46-0.3c-0.16-.09,0-0.36.07-0.35a0.58,0.58,0,0,0,.7-0.33c0.14-.42-0.77-0.47-0.64-0.8a1.05,1.05,0,0,1,.77,0A0.21,0.21,0,0,0,26.48,6a1.84,1.84,0,0,0-.93-0.61m-3.41-.48a8.46,8.46,0,0,0-1.62.59A4.36,4.36,0,0,0,18.44,7.3a1.35,1.35,0,0,1-.2.5,0.12,0.12,0,0,0,0,.18c-0.32.22,0,.43,0.16,0.66,0,0,0,.14,0,0.18,0.36,0.45,1.05.34,1.33,0.8s-0.47.93-.22,1.26c0.13,0.17.74-.24,0.76,0.28a7.2,7.2,0,0,1-.27,1.54,0.07,0.07,0,0,0,.11.06,1,1,0,0,1,.66-0.17,0.73,0.73,0,0,0,.28-0.28,2.23,2.23,0,0,0,.77-0.13s-0.09-.1-0.06-0.11a2.18,2.18,0,0,0,.56,0,1.72,1.72,0,0,1,.56-0.4c0-.07-0.16-0.1-0.12-0.2A0.63,0.63,0,0,1,23,11.32c0.09-.1-0.19-0.09-0.06-0.19s0.21-.3,0-0.43a1.57,1.57,0,0,0-.5-0.05s-0.07-.15,0-0.15A2.41,2.41,0,0,0,23.13,10c-0.29-.3.12-0.41,0.12-0.45a3.15,3.15,0,0,1,0-.5,0.36,0.36,0,0,1-.14-0.41,0.48,0.48,0,0,1,.18-0.19c-0.26-.26.06-0.34,0.07-0.45a1,1,0,0,1-.16-0.19,2.25,2.25,0,0,1,.36-0.32,1,1,0,0,0-.14-0.18,2.84,2.84,0,0,1,.38-0.65A3.47,3.47,0,0,1,24,6.05a1.14,1.14,0,0,1,.2-0.25A1.52,1.52,0,0,1,24.47,5a4.68,4.68,0,0,0-2.33-.1m5,0.92A1.17,1.17,0,0,0,27,7.07c0.1,0.26-.23.54-0.11,0.82,0.27,0.63,1,.84,1.32,1.44a0.65,0.65,0,0,1-.39.88,0.86,0.86,0,0,0-.82.68,1,1,0,0,1-.31.84,0.24,0.24,0,0,0-.07.29,0.75,0.75,0,0,1-.33,1.14c-0.55.25-1.23,0-1.72,0.39a0.37,0.37,0,0,0,0,.39,8.22,8.22,0,0,0,2.58,1.17c0.1,0.05,0,.57.09,0.74a4.13,4.13,0,0,0,.69.47c0.38,0.29.73,0.7,0.5,0.89a1.42,1.42,0,0,0-.56,1c0,0.09-.28,0-0.29.19s0.07,0.11.11,0.06a1,1,0,0,1,1.55.12c0.19,0.28.48,0,.56-0.12s0-.49.08-0.69a5.28,5.28,0,0,1,1.37-1.2A10.05,10.05,0,0,0,32,15.51a3.24,3.24,0,0,1,.64-1.06,4.23,4.23,0,0,0,.55-0.21c0.53-.54-0.31-1.41.15-2,0.28-.36,1-0.25,1.18-0.62a5.19,5.19,0,0,1-.19-0.81c0.16-.57-0.29-1.13.07-1.59a2.82,2.82,0,0,0,.63-2,2.25,2.25,0,0,0-.24-0.41,2.72,2.72,0,0,1,0-1.28,2,2,0,0,1,.29-1,0.85,0.85,0,0,1,.51-0.38,0.73,0.73,0,0,1,.86.42,8.84,8.84,0,0,1,.22,1.22,4.36,4.36,0,0,0,.44.56,6.31,6.31,0,0,0,.19,1,3.09,3.09,0,0,0,.94.56,1,1,0,0,1,.27.45c0.1,0.28.52,0.28,0.65,0.56,0,0.11,0,.27,0,0.37a2.56,2.56,0,0,1,.72.82,0.92,0.92,0,0,1-.1.69c-0.55.77-1.16,1.39-1.73,2.09a1.81,1.81,0,0,1,1,1.52,3.3,3.3,0,0,1,1.56,1.27A1.75,1.75,0,0,1,40.8,17a0.13,0.13,0,0,1-.1,0c0-.07,0-0.25-0.06-0.22a0.6,0.6,0,0,0-.39.41C40,18,40.38,19,39.71,19.48c-0.28.21-.72-0.17-1.11-0.21a0.25,0.25,0,0,0-.18.24,1.18,1.18,0,0,1-.45.93C37,20.9,36.28,21.57,35.33,22a2.27,2.27,0,0,0-.83.7,35,35,0,0,1-2.23,2.92c-1.13,1.26-3,.84-4.35,0A3.13,3.13,0,0,0,26.36,25c-0.3,2-.39,4.12-0.7,6.23s-0.53,4-1,6.11c-0.33,1.43-.66,2.74-1,4.13A45,45,0,0,0,22.16,47C22,48,22.74,49,23,50s-0.3,1.8-.14,2.74a9.66,9.66,0,0,0,.29,1.44c0.46,1.39,1.32,2.56,1.84,3.93,0.3,0.79.74,1.52,1.11,2.29,0.23,0.49.41,1,.68,1.47a18.19,18.19,0,0,0,1.9,2.85,23.71,23.71,0,0,0,2.06,2.45,0.77,0.77,0,0,0,.69-0.25,0.24,0.24,0,0,1,.23,0c0.56,0.82.49,2.11,1.62,2.31a2.2,2.2,0,0,0,1,.91c0.07,0.06.29,0.06,0.4,0.14a6.28,6.28,0,0,1,.79.81,2.34,2.34,0,0,0,1.18.72,9,9,0,0,1,2.44.15,0.47,0.47,0,0,1,.3.27,11.67,11.67,0,0,1,.41,1.18,0.28,0.28,0,0,1-.25.24,13.58,13.58,0,0,1-2.15.73,14,14,0,0,1-3.43,0c-0.77-.08-1.48-0.72-2.22-0.53a1.08,1.08,0,0,0-.25,1c-1.07.21-2.49,0.46-3.25-.41-0.11-.12-0.11-0.4-0.24-0.53a3,3,0,0,1-.55-2.71c0.31-1.87-1.12-3.35-2.44-4.56-1.74-1.59-3.56-2.83-5-4.71a9.86,9.86,0,0,1-1.21-2,18.4,18.4,0,0,1-1.29-5.91,0.54,0.54,0,0,0-.35-0.33,13.4,13.4,0,0,0-1.87-.35c-0.6-.18-1.26,0-1.85-0.2a0.75,0.75,0,0,1-.26-0.18c-0.13.26,0,.6-0.35,0.67a8.18,8.18,0,0,1-1,0,0.16,0.16,0,0,0-.12.11c0.16,1.78.5,3.49,0.49,5.26,0,1.17-.17,2.32-0.12,3.49s0.07,2.2.15,3.31a2.67,2.67,0,0,0,.61,1.89,1.43,1.43,0,0,0,.63.28c0.4,0.1.7-.28,1.1-0.2a0.18,0.18,0,0,1,.12.13,0.8,0.8,0,0,1-.31.58,2.26,2.26,0,0,0-.29,1.3,2,2,0,0,0,1,.54,5.35,5.35,0,0,1,1,.71s0.22,0.32.25,0.1-0.15-.42.13-0.5a2.67,2.67,0,0,1,2.05,0,5.89,5.89,0,0,1,.71.7s0.13,0,.18,0a0.51,0.51,0,0,1,.22.64,3.35,3.35,0,0,1-1.59,1.36,5.2,5.2,0,0,1-1.82.44c-0.92.17-1.74-.32-2.64-0.2,0.09,0.84-.73,1.16-1.41,1.28a5,5,0,0,1-3-.33c0-1.3-.15-0.77-0.66-1.61S9,71,9.14,70.36a4.61,4.61,0,0,0-.4-2.8c-0.24-.67-0.39-1.37-0.64-2-1-2.66-2-5.31-2.16-8.14-0.07-1.62.15-3.23,0.16-4.84a6.42,6.42,0,0,0-.39-0.61,1.28,1.28,0,0,0-.21-0.81c-0.72-.45-1.86-0.58-2-1.47a6.26,6.26,0,0,1,.55-2.17A0.15,0.15,0,0,0,4,47.36a2.33,2.33,0,0,1-1.41-.26,2.92,2.92,0,0,1-1-1.21,2.89,2.89,0,0,1-.08-0.7c-0.08-.35-0.59-0.53-0.49-0.92a19.26,19.26,0,0,0,.73-3.09c0.14-1.58.31-3.13,0.44-4.71a4.44,4.44,0,0,0,.19-1.26c-0.13-.45-1-0.29-1.19-0.74s0.43-.76.72-1.16c0.62-.81,1.39-1.31,2-2.11a24.67,24.67,0,0,0,2.4-2.93C5.68,28,5,27.87,4.48,27.54a8.1,8.1,0,0,1-1.63-1.09,0.26,0.26,0,0,1-.07-0.23,9.24,9.24,0,0,0,.6-1.35,2.06,2.06,0,0,0-.23-1.28c-0.48-1.38-1.46-2.78-.88-4.23,0.32-.8,1.3-1,2.05-1.29a11.24,11.24,0,0,0,1-.59,5.26,5.26,0,0,1,.94-0.3,1.28,1.28,0,0,0,.45-0.85A6,6,0,0,0,6.44,15c-0.72-2.2-1.32-4.38-2.13-6.53A47.88,47.88,0,0,1,2.56,3.6a0.46,0.46,0,0,1,.53-0.5C3.7,3.44,3.72,4.24,4,4.85c1.49,3.58,2.56,7.21,3.94,10.79a3.38,3.38,0,0,1,2.12-2,1.36,1.36,0,0,1,.73.23l0.75-.07a10.9,10.9,0,0,0,1.93-1.38c0.8-.61,1.78.19,2.66,0.28a0.16,0.16,0,0,0,.12-0.11,1.32,1.32,0,0,0,0-.73c-0.33-.42-0.77.58-1.14,0.3a2.32,2.32,0,0,1-.83-1.77,0.45,0.45,0,0,1,.26-0.05,2,2,0,0,0,1.09.35,1,1,0,0,0,1-.29A3.82,3.82,0,0,1,15.45,10c-0.27-.24.14-0.47,0.26-0.69s-0.07-.16-0.12-0.18c-0.93-.35-2-0.49-2.57-1.42a1.23,1.23,0,0,1,0-1.4,4.92,4.92,0,0,1,2.58-1.92,6.74,6.74,0,0,1-.39-1.11A2.8,2.8,0,0,1,16.55.91,4.73,4.73,0,0,1,20,.55,3.08,3.08,0,0,0,21.34.21c2.43-.57,4.75.1,7.11,0.8a7.32,7.32,0,0,0,2.44,0c0.31,0,.79-0.1.83,0.22a3,3,0,0,1-1,2.67,11.75,11.75,0,0,1-2.6,1.5,2.5,2.5,0,0,0-.9.39" transform="translate(-0.93 0)" style="fill:#1d1d1b"/><path d="M24.62,25.69a0.59,0.59,0,0,0-.12.64,0.44,0.44,0,0,1,.72-0.1A3.51,3.51,0,0,0,25.35,25c0-.2-0.11-0.68-0.37-0.49a3.86,3.86,0,0,0-.36,1.19" transform="translate(-0.93 0)" style="fill:#e30613"/></g><g style="clip-path:url(#clip-path)"><path d="M456,29.54V11.62h27.16c3.85,0,7.14.35,9.24,4.06a9.32,9.32,0,0,1,1.26,4.83,8.08,8.08,0,0,1-1.82,5.39c-2.73,3.5-7.42,3.64-11.41,3.64H456Zm49.84,25.62L487.59,34.23A22.67,22.67,0,0,0,493,32.9c7.42-3.08,8-10,8-12.67,0-6.79-3.78-12-10.43-13.72a26.26,26.26,0,0,0-7.84-.77H449V55.16h7.07V35.35H480l16.73,19.81h9.17Zm-61,0V49.07H404.51V32.41H442.1V26.53H404.51V11.83h38.57V5.74H397.51V55.16H444.9Zm-95.59-5.95V11.55h17.5a31,31,0,0,1,7.63.7c8.19,2.17,12.25,9.45,12.32,17.57,0,2.38-.35,9.66-6,14.63-4.83,4.27-10.36,4.76-16.38,4.76H349.32Zm-7.07,5.95H362c8.26,0,16.87-.21,23.59-5.88,5.6-4.69,8.33-12,8.33-19.18,0-8.19-3.22-15.82-10.15-20.37-6.16-4-11.76-4-16.94-4H342.25V55.16Zm-5.58,0V5.74h-6.72c0,2.52.21,40.81,0.21,40.81L291.73,5.74h-7.21V55.16h6.72c0-3.64-.14-40.88-0.14-40.88l38.71,40.88h6.86ZM265.76,37.31H241.33l12.32-24.5Zm17.15,17.85L257.57,5.74h-7.49L224.46,55.16h7.91l6-12.18h30.38l6,12.18h8.12ZM235.44,11.62V5.74H188.05v5.88h20.16V55.16h7V11.62h20.23ZM136,45.15c5,8.19,16.66,11.2,27.86,11.2,19.25,0,24.22-8.61,24.22-16.1,0-8.12-6-12.6-16.1-13.58L156.68,25.2c-5-.49-10-1.33-10-6.65,0-6.65,8.89-8.26,16.24-8.26,8.82,0,13.79,2.59,18.2,6.72l6.44-2.59c-3.15-4.48-9.8-9.94-24.71-9.94-8,0-13.37,1.61-16.31,3.22a12.33,12.33,0,0,0-6.86,11.2,10.56,10.56,0,0,0,3.5,8.26c3.64,3.36,8.05,3.71,17.71,4.62l7.56,0.7c5.74,0.49,12.74,1.54,12.74,7.84A8.43,8.43,0,0,1,177.82,47c-4.41,3.36-10.85,3.36-13.23,3.36a38.81,38.81,0,0,1-14.21-2.38,18.28,18.28,0,0,1-7.84-5.46Zm6.34-39.41h-9L113.89,30,94.78,5.74h-9l24.64,30.17V55.16h6.93V36ZM45,49.42V32.27H71.7c3.78,0,7.77.21,10.15,3.64a8.13,8.13,0,0,1,1.4,5,8,8,0,0,1-1.61,5c-2.45,3.15-6.3,3.5-9.94,3.5H45ZM45,26.6V11.41H69.53c2.73,0,5.6,0,8.05,1.54A7,7,0,0,1,80.87,19a7.83,7.83,0,0,1-1.33,4.48c-2.1,3-5.53,3.08-8.75,3.08H45ZM37.89,55.16H69.6c6.65,0,14.7-.07,18.9-6.44a12.9,12.9,0,0,0,2.1-7.35c0-7.28-4.48-11.13-9.38-12.67,0.7-.42,6.93-1.82,6.93-10.15C88.15,7.14,77.3,5.74,70.37,5.74H37.89V55.16Z" transform="translate(-0.93 0)" style="fill:#1d1d1b"/><path d="M6.69,53.27L6,55.78l0.22,3.4,2.14,6.65L9.5,70A16.7,16.7,0,0,0,8.69,72a4.86,4.86,0,0,0,.66,1.11,7.92,7.92,0,0,0,2.66,0c0.44-.3,2.59-1,2.37-1.92a18,18,0,0,0-1-2.44l-1.33-1.26-0.22-1.77-0.15-7.39-0.59-5,2.81-1.11,3.84,1.4,0.59,4.21L19.69,61,22.5,64.2l3.1,2.66,1.63,1.77,0.52,1.77v1.92s0.3,1.26.74,1.26,2-.59,2.51-0.66a18.67,18.67,0,0,1,2.81.37,21.11,21.11,0,0,0,2.66.74,7,7,0,0,0,1.85-1L39,72.25l-1-.37-1.92.3-1-1.18-0.67-.52-2.14-1.63L30.7,67.3l-3.1-3.69-2.29-4.06-2.14-4.66L22.5,52.45,22.57,50l-1-1.77-0.89-.07L7.8,51.49Z" transform="translate(-0.93 0)" style="fill:#fffdee"/><path d="M16.44,6.5s6.13-2.29,6.43-2.29S27,4.8,27,4.8L26.64,6.35,26.42,7.68l1.48,1.63V10L27.3,10l-0.52.59-0.3.81-0.22.37,0.3,0.52-0.22.59L25.23,13l-1.11.22v0.59l1,0.89,1.77,0.52V16l0.74,0.59L28,17.07,27.45,18l-0.22.89L34,16.48l-0.52-2.29V13l0.37-.81,1-.22-0.22-.81,0.07-1.77,0.52-2.44-0.3-1.55,0.52-1h0.81l0.07,0.89,0.07,1L37,6.58l0.22,1,1,0.59V8.64L38.9,9.09V9.83L39.64,9.9v0.52l-2,2.44,1,0.81,0.07,0.74L40,15.22,40.38,16l-0.22.74-0.07.59-0.15,1.33-0.37.67-1-.15-1.26-.22-13.67,1.7L7,16.33,4.33,7.91,4.92,8.27l2.88,7.9,10-3.25Z" transform="translate(-0.93 0)" style="fill:#fffdee"/><path d="M7.74,26.94a1.22,1.22,0,0,0,.21,0c0.05,0,.1,0,0.06-0.09a0.53,0.53,0,0,0-.25-0.2,1.46,1.46,0,0,1-.25.19,1,1,0,0,0-.44.09,1.37,1.37,0,0,0,.66,0" transform="translate(-0.93 0)" style="fill:#e30613"/><path d="M32.92,14.85a12.45,12.45,0,0,1-2.07,2.83,14.2,14.2,0,0,0,1.64.74,7.26,7.26,0,0,1,1.23.71c0.81,0.59,1.12,1.49,1.85,2.07a0.93,0.93,0,0,0,.83-0.38c0.38-.39.87-0.45,1.22-0.84a0.5,0.5,0,0,0,.13-0.24,3.94,3.94,0,0,0-.31-2.39,3.64,3.64,0,0,0-.8-1.05,9.34,9.34,0,0,0-2.51-1.55,1,1,0,0,0-1.21.11" transform="translate(-0.93 0)" style="fill:#e30613"/><path d="M8.4,20.5a1.09,1.09,0,0,0,.38.08c-0.74-1-1.67-2.09-1.22-3.08a1.45,1.45,0,0,1,.35-0.33c0.41,0.14.74,0.39,1.16,0.52,0.06,0,.17,0,0.18-0.05s0.15-.45.34-0.35,0.46,0.32.71,0.45a9,9,0,0,1-.11-1.88,0.16,0.16,0,0,1,.24-0.11,0.88,0.88,0,0,1,.21.37,2.81,2.81,0,0,0,.8.42s0.1-.07.06-0.1a2.49,2.49,0,0,1-1.3-2.06s-0.07-.19-0.16-0.12a2.86,2.86,0,0,0-.2,1.16c-0.12.41,0.19,0.91,0,1.26s-0.5-.11-0.53-0.38c0-.07-0.26-0.87-0.27-0.9a0.1,0.1,0,0,0-.17,0C8.79,16,9.09,16.49,9,17a0.21,0.21,0,0,1-.24.11,3.57,3.57,0,0,0-1-.49,1,1,0,0,0-.6.9C6.92,18,7.34,18.5,7.16,19c-0.67,0-.9-1-1.12-1.32s-0.82.77-.82,1.18A1.92,1.92,0,0,0,6.4,20.49a0.32,0.32,0,0,0,.38,0,3.32,3.32,0,0,1-1.09-1.41c-0.09-.23,0-0.74.3-0.53s0.37,0.74.71,1a4.75,4.75,0,0,0,1.7,1" transform="translate(-0.93 0)" style="fill:#e30613"/><path d="M11.56,14.6a0.55,0.55,0,0,0-.32-0.18,0.2,0.2,0,0,0-.13.3c0.07,0.15.49,0.36,0.63,0.16a1.74,1.74,0,0,0-.18-0.28" transform="translate(-0.93 0)" style="fill:#e30613"/><path d="M5.83,23.6a16.63,16.63,0,0,1,.94-1.67c0.08-.09.14-0.39-0.06-0.41s-1.17.83-1.33,0.18c-0.26.28-.67,0.51-0.93,0.81a0.07,0.07,0,0,0,.05.12,5.73,5.73,0,0,1,1.25-.34c0.23,0,.09.41,0,0.65-0.11.45-.61,0.65-0.62,1.14a0.85,0.85,0,0,0,.66-0.5" transform="translate(-0.93 0)" style="fill:#e30613"/><path d="M5.08,21a0.62,0.62,0,0,1,.44.28c0.08,0.13-.16.35,0,0.34a1.42,1.42,0,0,0,.42-0.44,1.87,1.87,0,0,0-.42-0.49,3.57,3.57,0,0,0-.43-0.42C4.53,20.06,4,20,3.5,19.71a0.07,0.07,0,0,0-.05.11A3.26,3.26,0,0,0,5.08,21" transform="translate(-0.93 0)" style="fill:#e30613"/><path d="M5.13,25.59a4.71,4.71,0,0,0,1.51-1.85,0.81,0.81,0,0,0,.1-0.41,10,10,0,0,1-3.14,3,3,3,0,0,0,1.54.76C5.25,27.15,5,27,5,27c-0.26-.27-1-0.25-0.8-0.67a2.22,2.22,0,0,1,.94-0.69" transform="translate(-0.93 0)" style="fill:#e30613"/><path d="M9,26.5a19.15,19.15,0,0,0,.83-2.69c0-.35-0.35.16-0.65,0.1a0.08,0.08,0,0,0-.06-0.12,1.52,1.52,0,0,1-.54-0.15c-0.08-.08.08-0.46,0-0.55a0.57,0.57,0,0,1-.2-0.21,2.41,2.41,0,0,0,0-.49,1.82,1.82,0,0,0-.2.12,5.88,5.88,0,0,1-2.26,3.75s0,0.12.05,0.11a6.58,6.58,0,0,1,.77-0.08A2.42,2.42,0,0,1,7.57,26s0.06,0.15.11,0.17a1.57,1.57,0,0,1,.39,0,1.74,1.74,0,0,0,.18.18c0.06,0,.22,0,0.25.07s-0.27.29-.37,0.39A0.8,0.8,0,0,0,9,26.5" transform="translate(-0.93 0)" style="fill:#e30613"/><path d="M6.83,29.22a0.59,0.59,0,0,0-.75.35c0,0.06,0,.18,0,0.18,0.49,0,.52.23,0.76,0.19a2.78,2.78,0,0,0,.38-0.53c0-.21-0.26-0.15-0.44-0.19" transform="translate(-0.93 0)" style="fill:#e30613"/><path d="M5.45,32.9a0.85,0.85,0,0,0,.44-0.7c0.19-.47.41-0.89,0.64-1.34a0.59,0.59,0,0,0,.14-0.42,1.06,1.06,0,0,0-.89-0.32,14.05,14.05,0,0,0-1.52,1.55,2.48,2.48,0,0,0-.67.91c0.79,0.08,1.22.24,1.87,0.32" transform="translate(-0.93 0)" style="fill:#e30613"/><path d="M18.92,13.63a1.63,1.63,0,0,1-1.5.44,0.27,0.27,0,0,0-.25.16A11.26,11.26,0,0,1,15,18.34s-0.16,0-.17-0.06c0-.61.48-1.54-0.16-1.84a2.15,2.15,0,0,1-1.27-.76c-0.16-.45.46-0.88,0.77-1.31a0.07,0.07,0,0,0-.05-0.11,0.82,0.82,0,0,0-.51.31c-1.6,2-2.19,4.34-2.78,6.68,0.12,2.13-.84,4.11-1.44,6.1,0.61,0.28.25,1.1-.19,1.32a0.37,0.37,0,0,1-.5-0.12,13.46,13.46,0,0,0-2.29,4.6,8.53,8.53,0,0,0-.51,4c0,0.18.13,0,.14-0.06A66.21,66.21,0,0,1,8.67,30a0.18,0.18,0,0,1,.16,0,0.87,0.87,0,0,1-.1.69A8.14,8.14,0,0,0,8,33.13a34,34,0,0,0-1,9.09c0,0.64-.21,1.28-0.18,1.93,0.1,2.48-.13,4.92-0.26,7.37a0.48,0.48,0,0,0,.36.38A14.9,14.9,0,0,0,12.44,53c0.43-1.59.29-3.29,1-4.81,0,0,.1,0,0.1.06a24.44,24.44,0,0,1-.35,3.22s0.09,0.1.1,0.06c0.83-2.4.75-4.86,1.46-7.32A0.61,0.61,0,0,1,15,43.73a0.08,0.08,0,0,1,.11.07c-0.14,2.83-1,5.56-1.25,8.37,0,0.29.48,0.33,0.77,0.36a10.75,10.75,0,0,1,3.8.93c0.33,0.17.49-.34,0.63-0.6a6.35,6.35,0,0,0,.2-0.69c0.17-.44.4-0.85,0.58-1.29,0.3-.7.45-1.46,0.78-2.15a19.14,19.14,0,0,0,1.12-3c0.52-1.88.92-3.63,1.48-5.48,0.41-1.38.72-2.67,1-4.07a34.24,34.24,0,0,0,1-9.34c-0.11.15-.05,0.36-0.16,0.5a0.38,0.38,0,0,1-.55,0,1.55,1.55,0,0,1-.26-0.57c-0.48.88-.75,1.84-1.2,2.74a0.12,0.12,0,0,1-.18,0,0.54,0.54,0,0,1,0-.5,22.9,22.9,0,0,0,.9-4S23.69,25,23.65,25a4.08,4.08,0,0,0-.85,1,4.2,4.2,0,0,1-.94,1.23c-0.07.06-.16-0.1-0.15-0.11,0.44-1,1.26-1.77,1.28-2.88A0.34,0.34,0,0,0,22.77,24a1.11,1.11,0,0,1-1.06-.9,7.8,7.8,0,0,1,3.4.57,9,9,0,0,1,2.24.88,7.79,7.79,0,0,0,2.25,1.11,5.34,5.34,0,0,0,1.53.12,1.16,1.16,0,0,0,.78-0.59,16.14,16.14,0,0,0,1.69-2.37,10.32,10.32,0,0,1,.83-1.09,0.27,0.27,0,0,0,0-.24,4,4,0,0,0-1.11-1.58,2.6,2.6,0,0,0-2.16-.62,2,2,0,0,1,.74.75c0.1,0.18.11,0.61-.18,0.47-0.69-.33-1-1.18-1.4-1.09s0.05,0.87.15,1.28a5.24,5.24,0,0,0,0-.57c0.29-.3.43,0.21,0.52,0.41A7.33,7.33,0,0,1,31.48,22a2,2,0,0,1,.44.86,0.24,0.24,0,0,1-.36.1,4,4,0,0,1-1.34-1.42c-0.6-.81-0.64-1.85-1.28-2.64-0.17-.21-0.72-0.17-0.69.13a4.92,4.92,0,0,0,.48,1,0.17,0.17,0,0,1-.25.23,12.83,12.83,0,0,1-1-1.42,3.15,3.15,0,0,0-.82-0.49c-0.31-.18-0.83.06-1-0.27a5.32,5.32,0,0,0-3.45-2.77,0.48,0.48,0,0,1-.37-0.51c0-.1.13-0.08,0.18,0a1.54,1.54,0,0,0,1,.39,0.33,0.33,0,0,0,.17-0.35,0.82,0.82,0,0,0-.53-0.65A18.78,18.78,0,0,0,21,13.38a2.77,2.77,0,0,0-1.6,0,1.14,1.14,0,0,0-.48.26" transform="translate(-0.93 0)" style="fill:#e30613"/><path d="M4.11,36a0.74,0.74,0,0,0-.52.23,5,5,0,0,0-.15,1.48c-0.09,1-.11,1.9-0.12,2.85s0,1.65.11,2.49a5.27,5.27,0,0,0,.35-1.31c0.17-1,.22-1.88.33-2.83s0.32-1.85.36-2.77C4.46,36,4.24,36,4.11,36" transform="translate(-0.93 0)" style="fill:#e30613"/><path d="M5.12,41.55a2.38,2.38,0,0,1,.31-0.91,1.84,1.84,0,0,0-.13-1c-0.22-1.4.38-2.66,0-4a3.2,3.2,0,0,0-.29,1,18.73,18.73,0,0,0-.13,2.59c0,0.47-.09.93-0.06,1.4A8.09,8.09,0,0,0,5,42a0.87,0.87,0,0,0,.11-0.43" transform="translate(-0.93 0)" style="fill:#e30613"/><path d="M3.13,45.27c-0.44.09-.18-0.61-0.35-0.87a2,2,0,0,0-.24.63,1.31,1.31,0,0,0-.27.69,2,2,0,0,0,1,.74,0.26,0.26,0,0,0,.18-0.17,5.29,5.29,0,0,0,.27-1.73,1.69,1.69,0,0,1-.61.71" transform="translate(-0.93 0)" style="fill:#e30613"/><path d="M4.33,46.39a12.32,12.32,0,0,0,.18-1.61c-0.35.47-.14,1.11-0.56,1.68a0.16,0.16,0,0,0,0,.24c0.19,0.09.33-.11,0.34-0.31" transform="translate(-0.93 0)" style="fill:#e30613"/><path d="M2.05,44.25a14.37,14.37,0,0,0,.53-3.75c-0.2.72-.31,1.41-0.47,1.94a12.9,12.9,0,0,0-.47,1.48,1.91,1.91,0,0,0,.17.26c0.06,0.13.05,0.32,0.1,0.44a0.53,0.53,0,0,0,.13-0.37" transform="translate(-0.93 0)" style="fill:#e30613"/><path d="M4.2,34.76a0.75,0.75,0,0,0,.58.1A0.41,0.41,0,0,0,5,34.41c-0.43-.5-1.77-0.5-2.4-0.48a0.54,0.54,0,0,0-.27.29c0.56,0.4,1.31.23,1.91,0.54" transform="translate(-0.93 0)" style="fill:#e30613"/><path d="M3.12,33.37a4.83,4.83,0,0,1,1.66.3c0.13,0.08.4,0.23,0.5,0a0.17,0.17,0,0,0-.12-0.24c-0.28-.06-0.61-0.07-0.88-0.11a5.49,5.49,0,0,0-1.11-.16,0.33,0.33,0,0,0-.13.11,0.51,0.51,0,0,0,.08.09" transform="translate(-0.93 0)" style="fill:#e30613"/><path d="M5.41,50.32c0.13,0.08.38,0.25,0.41,0.07,0.66-3.46.48-6.84,0.6-10.26a0.67,0.67,0,0,0,0-.58c-0.55,2-.84,4-1.28,6.1-0.27,1.31-.66,2.51-0.88,3.79a5.88,5.88,0,0,0,1.2.89" transform="translate(-0.93 0)" style="fill:#e30613"/><path d="M10,72.54a3.76,3.76,0,0,1,.23-1.24,1.55,1.55,0,0,0-.71,1.28,0.22,0.22,0,0,0,.3.13A0.29,0.29,0,0,0,10,72.54M35.57,19a0.67,0.67,0,0,0-.71.84c0.14,0.38.74,0.29,1,0A0.47,0.47,0,0,0,35.57,19m-0.68-1a0.7,0.7,0,0,0-1.08.29,0.44,0.44,0,0,0,.35.5,0.58,0.58,0,0,0,.64-0.15c0.16-.19.34-0.42,0.08-0.64m-1.73-.65A0.44,0.44,0,0,0,33,16.86a0.5,0.5,0,0,0-.44-0.08,0.67,0.67,0,0,0-.52.8c0.1,0.26.36,0.22,0.61,0.15a0.59,0.59,0,0,0,.46-0.36M12.65,30.54c-0.17-.06-0.26-0.3-0.45-0.36S11.86,30,11.78,30.1c-1.16,1.64-1.58,3.47-2.54,5.13a21,21,0,0,1,2.14,1.51c0.74,0.72,1.27,1.56,1.93,2.32a16.11,16.11,0,0,1,4.94-.64A0.52,0.52,0,0,0,18.58,38a33.23,33.23,0,0,1,1.49-3.77,0.59,0.59,0,0,0,.07-0.55c-0.27-.41-0.88-0.12-1.16-0.47-0.84-1.06-2.16-1.3-3.34-1.76-1-.39-2-0.55-3-0.92m12.24-1.1c0.15-.37.38-1-0.14-1.15a0.37,0.37,0,0,0-.44.17c-0.22.36-.41,0.9,0,1.13a0.39,0.39,0,0,0,.56-0.15m-0.28,2.32a1.37,1.37,0,0,0,0-1.08c-0.12-.26-0.36-0.21-0.55-0.07a0.86,0.86,0,0,0,0,1.35,0.36,0.36,0,0,0,.51-0.2m-0.24,1.68a0.67,0.67,0,0,0-.06-0.57,0.48,0.48,0,0,0-.81.09,0.86,0.86,0,0,0-.22.63,0.47,0.47,0,0,0,.42.37,0.64,0.64,0,0,0,.66-0.52M23.83,35.8a0.87,0.87,0,0,0,0-.83,0.39,0.39,0,0,0-.56-0.15,0.94,0.94,0,0,0-.47,1,0.35,0.35,0,0,0,.36.3,0.69,0.69,0,0,0,.64-0.33m-5.12,3.9a0.51,0.51,0,0,0-.35-0.7,0.53,0.53,0,0,0-.55,0,0.54,0.54,0,0,0,.33.91,0.56,0.56,0,0,0,.57-0.26m-5.65.65a0.6,0.6,0,0,0-.17-0.63,0.6,0.6,0,0,0-.76,0,0.67,0.67,0,0,0-.34.69,0.63,0.63,0,0,0,.49.39,0.6,0.6,0,0,0,.77-0.41M9,36.19a0.45,0.45,0,0,0-.29-0.64,0.6,0.6,0,0,0-.76.66,0.43,0.43,0,0,0,.2.36A0.62,0.62,0,0,0,9,36.19m2.54-8.12a0.44,0.44,0,0,0-.55-0.3A0.74,0.74,0,0,0,10.52,29a0.58,0.58,0,0,0,.95-0.14,1.18,1.18,0,0,0,.08-0.77M3.23,3.7c0.07,0.13.21,0.34,0,.44a0.14,0.14,0,0,1-.05-0.06,0.28,0.28,0,0,1,0-.39m0.7,2.13c0.1,0.28,1.19,2.7,1,2.92a5.68,5.68,0,0,1-.31-0.81,6.29,6.29,0,0,1-.66-2.11m3.29,9.59a0.24,0.24,0,0,0,.06.07A25.86,25.86,0,0,0,5,9s0.21,0.82.23,0.88c0.59,1.85,1.38,3.67,2,5.51m0.06,0.07a0.69,0.69,0,0,0,.11.39c0.16-.12.06-0.27,0-0.38a0.24,0.24,0,0,0-.12,0m10.43,55.8c-0.07.09-.29-0.07-0.32-0.18a0.08,0.08,0,0,1,.06-0.05,2.49,2.49,0,0,1,.27.23m4.2-20.08c0-.06.15-0.06,0.15,0s-0.15.07-.15,0m-0.39-.07a0.22,0.22,0,0,1,.29,0,0.19,0.19,0,0,1-.14,0c-0.08,0-.17,0-0.15,0M21.38,49a1.61,1.61,0,0,0-.12-0.11c-0.37.22,0.07,0.47,0.3,0.56a0.07,0.07,0,0,0,.06-0.11A2.14,2.14,0,0,0,21.38,49m3.24-23.3a0.59,0.59,0,0,0-.12.63,0.44,0.44,0,0,1,.72-0.1A3.49,3.49,0,0,0,25.35,25c0-.2-0.11-0.68-0.37-0.49a3.86,3.86,0,0,0-.36,1.19M11.7,32.6A1.51,1.51,0,0,1,12,32c0.09,0,.06.11,0.06,0.18s-0.55.81-.37,0.44m1.51,4.13a0.1,0.1,0,0,1,.07-0.13,1.07,1.07,0,0,0,.25.39,0.54,0.54,0,0,1-.31-0.26m-0.64-.86A1.91,1.91,0,0,1,12,35.55a1,1,0,0,1-.39-0.3,0.07,0.07,0,0,1,.11,0l0.13,0.08a3.5,3.5,0,0,1,.68.6m-1.67-1.23A0.07,0.07,0,0,1,11,34.59c0.22,0.24.49,0.37,0.68,0.61a0.08,0.08,0,0,1-.11,0l-0.12-.08a1,1,0,0,1-.56-0.52m-0.53-.15c0.23-1.43,1.14-2.57,1.62-3.89a2.51,2.51,0,0,1-.44,1.47,11.8,11.8,0,0,1-1.19,2.42m2.8,2.94s-0.08.1-.12,0.05a12.73,12.73,0,0,0-2.33-2.13,1.44,1.44,0,0,1-.67-0.43,0.24,0.24,0,0,1,.18-0.28c0.12,0,0,.24.07,0.27A6.37,6.37,0,0,1,13,37.19a0.31,0.31,0,0,1,.14.25m0.47,0.71s-0.35-.57-0.37-0.57a0.27,0.27,0,0,0-.11.05s0.44,0.52.48,0.52m0.07-.76a0.08,0.08,0,0,1,.12-0.06s0.1,0.08.05,0.12a0.11,0.11,0,0,1-.17-0.06m0.74,0c0,0.12-.17.11-0.23,0a0.1,0.1,0,0,1,.06-0.05c0.07,0,.19,0,0.17.06m1.1,0.5a6.65,6.65,0,0,1-1.43.15,1.37,1.37,0,0,1,.72-0.17,0.88,0.88,0,0,1,.71,0m1.81,0a11.09,11.09,0,0,1-1.42,0,1.6,1.6,0,0,1,.84,0,0.79,0.79,0,0,1,.58.07m0-.47c-0.86-.2-1.65.14-2.46-0.07a17,17,0,0,1,2.33-.19,0.3,0.3,0,0,0,.19-0.24,3.41,3.41,0,0,1,.46-1.13c0,0.42-.36,1.15-0.41,1.52a0.15,0.15,0,0,1-.12.11M18,35.63a16.7,16.7,0,0,1,.72-1.8A0.21,0.21,0,0,1,19,33.64a0.08,0.08,0,0,1,.06.12c-0.08.13-.14,0.25-0.21,0.38s-0.64,1.27-.8,1.48m1.53-1.78A6,6,0,0,1,19,35.16a1.4,1.4,0,0,1,.38-1,0.37,0.37,0,0,1,.25-0.32M21,50a1.3,1.3,0,0,0,.25-0.26s-0.05-.08-0.11-0.06a0.64,0.64,0,0,0-.51.56c0,0.1.3,0.32,0.3,0.14A0.45,0.45,0,0,1,21,50m0.56,0.54a1.58,1.58,0,0,0,.4-0.31,2.84,2.84,0,0,0-1,.22,0.56,0.56,0,0,0,.64.09M20.95,51h0a1.73,1.73,0,0,0,.58,0,3.46,3.46,0,0,1-.48-0.15,1.73,1.73,0,0,0-.54-0.2,1.08,1.08,0,0,0-.14.18,1.51,1.51,0,0,0,.54.14m-0.9.82a0.17,0.17,0,0,0-.07.06,0.23,0.23,0,0,0,.3,0,0.3,0.3,0,0,0-.23-0.06m1.73,0.07c-0.22,0,.11-0.29.09-0.26s0.32-.2.14-0.12a4.44,4.44,0,0,1-.83.3,2.67,2.67,0,0,0-.61,0,0.58,0.58,0,0,0,.39.05,2.45,2.45,0,0,1,.62,0c0.11,0,.08.13,0,0.34a0.07,0.07,0,0,0,.11.06,1.26,1.26,0,0,0,.38-0.3c0-.08-0.09-0.13-0.31-0.13m17,20.19a0.08,0.08,0,0,0-.12.05,0.23,0.23,0,0,0,.11.13,0.08,0.08,0,0,0,.12-0.06,0.23,0.23,0,0,0-.11-0.13M21.31,54s0.56,0,.61,0A0.78,0.78,0,0,0,22.54,54c0-.12.05-0.21,0-0.26a1.37,1.37,0,0,0-.8,0,0.71,0.71,0,0,0-.39.1,0.18,0.18,0,0,0,0,.23m-3.09.4c0.2,0,.44-0.13.75-0.15a0.58,0.58,0,0,0,.4-0.11s0-.3,0-0.3c-0.4.37-1,0-1.17,0.21S18,54,18,54.2a0.24,0.24,0,0,0,.23.2m1.94-.9c0.1,0,.15-0.08.24-0.09a0.54,0.54,0,0,1,.42.14,1.28,1.28,0,0,0,.05.48,1.18,1.18,0,0,0,.05-0.46,0.34,0.34,0,0,0-.1-0.36,0.71,0.71,0,0,0-.48.07c-0.13,0-.33,0-0.46,0a1,1,0,0,0-.18.56s0.22,0,.24,0,0-.31.22-0.34m0.56,1.07a0.2,0.2,0,0,0,.21-0.08A2.34,2.34,0,0,1,20.88,54c-0.19.19,0,.39-0.34,0.43s-0.48.1-.64-0.21a0.94,0.94,0,0,0-.05.37,2.2,2.2,0,0,0,.87,0m8.19,16.09a4.82,4.82,0,0,0,1,.15A4.13,4.13,0,0,0,32,70.72a19,19,0,0,1-1.78-2.27,0.17,0.17,0,0,1,.06-0.25c0.19-.09.65,0,0.53-0.2-1.13-1.63-2.36-2.88-3.44-4.58a44.34,44.34,0,0,1-2.74-5,15.69,15.69,0,0,0-2-3.95,1.1,1.1,0,0,0-1.22-.06,3.57,3.57,0,0,1,0,.42,8.75,8.75,0,0,1-.89.23,5.4,5.4,0,0,1-.86.17c-0.34,0,0-.48-0.19-0.57a1.24,1.24,0,0,0-1,.33s0,0.09.05,0.13a0.49,0.49,0,0,0-.15.26,11.65,11.65,0,0,0,1.9,5.93,9.4,9.4,0,0,0,1.81,2,8.38,8.38,0,0,0,1.68,1.49,7.72,7.72,0,0,1,1.58,1.3c1.3,1.16,2.84,2.4,2.88,4.32,0,0.27.48,0.18,0.77,0.27m5.36,0.55a0.59,0.59,0,0,0,.49-0.41c0.08-.13-0.17-0.24-0.28-0.17a0.58,0.58,0,0,1-.58.2,7.46,7.46,0,0,1-1.26-1c-0.11-.12.07-0.24,0.18-0.37a0.08,0.08,0,0,0-.06-0.12c-0.2,0-.6.06-0.53,0.2a3.26,3.26,0,0,0,2,1.68m2,2.26a1.65,1.65,0,0,0,1-.29,5,5,0,0,0-2.13.08c-0.19,0,.06.09,0.05,0.17,0.35,0,.69,0,1,0m-7.87-.67a6.26,6.26,0,0,1-.17-1,0.8,0.8,0,0,0,.09,1.29,0.08,0.08,0,0,0,.12-0.06,0.32,0.32,0,0,0,0-.26M8.08,53.65a0.85,0.85,0,0,0-.88.3,1,1,0,0,0-.12.5,0.33,0.33,0,0,0-.26.13c-0.08.11,0.16,0.12,0.1,0.17a0.72,0.72,0,0,0-.22.14,0.39,0.39,0,0,1,0,.4,0.09,0.09,0,0,0,.11.06,1.38,1.38,0,0,0-.24.69,0.63,0.63,0,0,0,.07.47c-0.1,0,0,.17-0.14.19A0.34,0.34,0,0,1,6.6,57s-0.11.09-.11,0.13a16,16,0,0,0,1.86,6.87,0.65,0.65,0,0,1,0,.24c0.42,1.27.84,2.5,1.18,3.81a2.27,2.27,0,0,1,.25.33,9.09,9.09,0,0,1,.09,1.17,0.9,0.9,0,0,0,0,.57,0.68,0.68,0,0,0,.36.22,4.39,4.39,0,0,0,3-.15c-1.59-2-1.58-3.62-1.68-6.14-0.06-1.48,0-2.93,0-4.4a21.28,21.28,0,0,0-.46-4.47c0-.24-0.15-0.46-0.22-0.72a0.61,0.61,0,0,0-.36-0.32,5,5,0,0,0-2.49-.43M5.41,50.32c0.13,0.08.38,0.25,0.41,0.07,0.66-3.46.48-6.84,0.6-10.26a0.67,0.67,0,0,0,0-.58c-0.55,2-.84,4-1.28,6.1-0.27,1.31-.66,2.51-0.88,3.79a5.88,5.88,0,0,0,1.2.89m0-17.42a0.85,0.85,0,0,0,.44-0.7c0.19-.46.41-0.89,0.64-1.34a0.59,0.59,0,0,0,.14-0.42,1.06,1.06,0,0,0-.89-0.31,14.14,14.14,0,0,0-1.52,1.55,2.48,2.48,0,0,0-.67.9c0.79,0.08,1.22.24,1.87,0.32m-2.33.47a4.8,4.8,0,0,1,1.66.3c0.13,0.08.4,0.23,0.5,0a0.17,0.17,0,0,0-.12-0.24c-0.28-.06-0.61-0.07-0.88-0.11a5.49,5.49,0,0,0-1.11-.15,0.32,0.32,0,0,0-.13.11,0.59,0.59,0,0,0,.08.09m1.08,1.4a0.75,0.75,0,0,0,.58.1A0.41,0.41,0,0,0,5,34.41c-0.43-.51-1.77-0.5-2.4-0.49a0.54,0.54,0,0,0-.27.29c0.56,0.4,1.31.23,1.91,0.55M2.05,44.25a14.33,14.33,0,0,0,.53-3.75c-0.2.72-.31,1.41-0.47,1.94a13.1,13.1,0,0,0-.47,1.48,1.87,1.87,0,0,0,.17.25c0.06,0.13.05,0.32,0.1,0.44a0.53,0.53,0,0,0,.13-0.37m2.27,2.14a12.14,12.14,0,0,0,.18-1.61c-0.35.47-.14,1.11-0.56,1.67a0.16,0.16,0,0,0,0,.24c0.19,0.09.33-.11,0.34-0.31m-1.2-1.12c-0.44.09-.18-0.61-0.35-0.87a2,2,0,0,0-.24.63,1.31,1.31,0,0,0-.27.69,2,2,0,0,0,1,.74,0.27,0.27,0,0,0,.18-0.17,5.29,5.29,0,0,0,.27-1.73,1.69,1.69,0,0,1-.61.71m2-3.71a2.36,2.36,0,0,1,.32-0.9,1.85,1.85,0,0,0-.13-1c-0.22-1.4.38-2.66,0-4a3.19,3.19,0,0,0-.29,1,18.74,18.74,0,0,0-.14,2.59c0,0.47-.09.93-0.06,1.4A8.12,8.12,0,0,0,5,42a0.87,0.87,0,0,0,.11-0.43M4.11,36a0.74,0.74,0,0,0-.52.23,4.92,4.92,0,0,0-.15,1.48c-0.09,1-.11,1.9-0.12,2.85s0,1.65.11,2.49a5.35,5.35,0,0,0,.35-1.31c0.17-1,.21-1.88.32-2.83s0.32-1.84.35-2.77C4.46,36,4.24,36,4.11,36M14,36.89a16,16,0,0,0-2.51-2.35A23.12,23.12,0,0,1,13,31c1.72,0.88,3.95.77,5.32,2.23a0.43,0.43,0,0,1,.07.42A32.53,32.53,0,0,1,17,36.8a6.65,6.65,0,0,0-1.29,0,8.11,8.11,0,0,0-1.62.13M6.83,29.22a0.59,0.59,0,0,0-.75.35c0,0.06,0,.18.05,0.18,0.49,0,.52.23,0.76,0.19a2.7,2.7,0,0,0,.38-0.53c0-.21-0.26-0.15-0.44-0.19m0.9-2.27a1.23,1.23,0,0,0,.21,0c0.05,0,.1,0,0.06-0.09a0.53,0.53,0,0,0-.25-0.2,1.5,1.5,0,0,1-.25.19,0.94,0.94,0,0,0-.44.09,1.36,1.36,0,0,0,.66,0M9,26.5a19.15,19.15,0,0,0,.83-2.69c0-.35-0.35.16-0.65,0.1a0.08,0.08,0,0,0-.06-0.12,1.53,1.53,0,0,1-.54-0.15c-0.08-.08.08-0.46,0-0.55a0.57,0.57,0,0,1-.2-0.21,2.35,2.35,0,0,0,0-.49,1.93,1.93,0,0,0-.2.12,5.87,5.87,0,0,1-2.26,3.75s0,0.12.05,0.11a6.44,6.44,0,0,1,.77-0.08A2.44,2.44,0,0,1,7.57,26s0.06,0.15.11,0.17a1.52,1.52,0,0,1,.39,0,1.73,1.73,0,0,0,.18.18c0.06,0,.22,0,0.25.07s-0.27.29-.37,0.39A0.8,0.8,0,0,0,9,26.5m-3.88-.91a4.71,4.71,0,0,0,1.51-1.85,0.82,0.82,0,0,0,.1-0.41,10,10,0,0,1-3.14,3,3.06,3.06,0,0,0,1.54.76C5.24,27.15,5,27,5,26.95c-0.26-.27-1-0.25-0.8-0.67a2.22,2.22,0,0,1,.94-0.69m0-4.54a0.62,0.62,0,0,1,.44.27c0.08,0.13-.16.35,0,0.34a1.41,1.41,0,0,0,.42-0.44,1.85,1.85,0,0,0-.42-0.49,3.41,3.41,0,0,0-.43-0.42C4.53,20.06,4,20,3.5,19.71a0.07,0.07,0,0,0-.06.11A3.27,3.27,0,0,0,5.08,21M5.83,23.6a16.64,16.64,0,0,1,.94-1.67c0.08-.09.14-0.39-0.06-0.41s-1.17.83-1.33,0.18c-0.26.28-.67,0.51-0.93,0.82a0.07,0.07,0,0,0,.05.11,5.79,5.79,0,0,1,1.25-.34c0.23,0,.09.41,0,0.65-0.11.45-.61,0.65-0.62,1.14a0.85,0.85,0,0,0,.66-0.5m5.73-9a0.54,0.54,0,0,0-.32-0.18,0.2,0.2,0,0,0-.13.3c0.07,0.15.49,0.36,0.63,0.16a1.73,1.73,0,0,0-.18-0.28M8.4,20.5a1.13,1.13,0,0,0,.38.08c-0.74-1-1.67-2.09-1.22-3.08a1.45,1.45,0,0,1,.35-0.33c0.41,0.14.74,0.39,1.16,0.52,0.07,0,.17,0,0.18-0.05s0.15-.45.34-0.35,0.46,0.32.71,0.46a8.93,8.93,0,0,1-.11-1.88,0.16,0.16,0,0,1,.24-0.11,0.89,0.89,0,0,1,.21.37,2.75,2.75,0,0,0,.8.42s0.1-.07.06-0.1a2.48,2.48,0,0,1-1.3-2.06s-0.08-.19-0.16-0.12a2.86,2.86,0,0,0-.2,1.16c-0.12.41,0.19,0.91,0,1.25s-0.5-.11-0.53-0.38c0-.07-0.26-0.88-0.27-0.9a0.11,0.11,0,0,0-.17,0C8.79,16,9.09,16.49,9,17a0.21,0.21,0,0,1-.24.11,3.62,3.62,0,0,0-1-.49,1,1,0,0,0-.6.9C6.92,18,7.34,18.5,7.16,19c-0.67,0-.9-1-1.12-1.32s-0.82.77-.82,1.18A1.92,1.92,0,0,0,6.4,20.49a0.31,0.31,0,0,0,.38,0,3.32,3.32,0,0,1-1.09-1.41c-0.09-.23,0-0.74.3-0.53s0.37,0.74.71,1a4.71,4.71,0,0,0,1.7,1M36.16,5A0.77,0.77,0,0,0,36,4.6a0.45,0.45,0,0,0-.7.16c0,0.05,0,.09.06,0.13a0.35,0.35,0,0,1,.63,0c0.11,0.24,0,.52.12,0.77A0.85,0.85,0,0,0,36.16,5m-1.22,6.22a2.89,2.89,0,0,0,.42.66,1.64,1.64,0,0,0,.56.31,2.09,2.09,0,0,1,1.48.42,17.59,17.59,0,0,0,1.86-2c0.12-.18.38-0.59,0-0.58a3.31,3.31,0,0,0-.41.44,0.3,0.3,0,0,1-.44-0.19c-0.11-.42.39-0.76,0.16-1.15a0.14,0.14,0,0,0-.12,0,0.1,0.1,0,0,0-.07.12c-0.17,0-.38,0-0.43-0.15a4.14,4.14,0,0,0,0-.7,0.18,0.18,0,0,0-.24-0.13c-0.33.18-.08,0.62-0.31,0.79s-0.29-.13-0.33-0.25a4.56,4.56,0,0,0,0-1,9.66,9.66,0,0,0-.49-1.34,0.75,0.75,0,0,0-.23.55c0.26,0.66-.12,1.28-0.08,1.89a2.7,2.7,0,0,1,0,.39,0.07,0.07,0,0,1-.11.05A0.63,0.63,0,0,1,35.88,9c0-.66.44-1.44-0.12-2a0.64,0.64,0,0,0-.26.34,6.94,6.94,0,0,1-.16,1.14c-0.15.31-.36,0.59-0.5,0.91a1,1,0,0,0,.07.58,5.51,5.51,0,0,0-.12.89,1,1,0,0,0,.17.33m-1.17,2c0.1,0.28-.12.56,0,0.76a1.46,1.46,0,0,0,1,.28,6.6,6.6,0,0,1,1.18.63c0.42,0.23.73,0.65,1.13,0.91a1.2,1.2,0,0,1,.71.79c0.1,0.7,1,1,1.22,1.61a0.2,0.2,0,0,1-.12.11,2,2,0,0,1-.38,0c-0.24,0-.11.3,0.05,0.35a2.24,2.24,0,0,0,.88.26c0.27,0,.26-0.46.15-0.71a0.68,0.68,0,0,1-.19-0.64,0.81,0.81,0,0,0,.34-0.33c0-.34-0.38-0.56-0.39-0.92a0.72,0.72,0,0,1,.58.15,0.73,0.73,0,0,0,.14-0.83,2.46,2.46,0,0,0-1.55-1c-0.31-.15-0.08-0.51-0.13-0.81A0.76,0.76,0,0,0,38,13.41c-0.17-.12-0.45,0-0.54-0.06a1.73,1.73,0,0,0-1.78-.47,1.78,1.78,0,0,1-.5-0.46,1.29,1.29,0,0,0-1.5.22,0.9,0.9,0,0,0,.07.68m-0.85,1.54a12.42,12.42,0,0,1-2.07,2.82,14,14,0,0,0,1.64.74,7.37,7.37,0,0,1,1.23.71c0.81,0.6,1.12,1.49,1.85,2.07a0.94,0.94,0,0,0,.83-0.38c0.38-.39.87-0.45,1.22-0.84a0.5,0.5,0,0,0,.13-0.24,4,4,0,0,0-.31-2.39,3.66,3.66,0,0,0-.8-1.05,9.3,9.3,0,0,0-2.51-1.55,1,1,0,0,0-1.21.11m-14-1.22a1.63,1.63,0,0,1-1.5.44,0.27,0.27,0,0,0-.25.16A11.26,11.26,0,0,1,15,18.34s-0.16,0-.17-0.06c0-.61.48-1.54-0.16-1.84a2.16,2.16,0,0,1-1.27-.76c-0.16-.45.46-0.88,0.78-1.31a0.07,0.07,0,0,0-.05-0.11,0.81,0.81,0,0,0-.51.31c-1.6,2-2.19,4.34-2.78,6.68,0.12,2.13-.84,4.11-1.44,6.1,0.61,0.28.25,1.1-.19,1.32a0.37,0.37,0,0,1-.5-0.12,13.49,13.49,0,0,0-2.28,4.6,8.53,8.53,0,0,0-.51,4c0,0.18.13,0,.14-0.06A66.29,66.29,0,0,1,8.67,30a0.18,0.18,0,0,1,.16,0,0.86,0.86,0,0,1-.1.69A8.14,8.14,0,0,0,8,33.13a34,34,0,0,0-1,9.09c0,0.64-.21,1.28-0.18,1.93,0.1,2.48-.13,4.92-0.26,7.37a0.48,0.48,0,0,0,.36.38A14.9,14.9,0,0,0,12.44,53c0.43-1.59.29-3.29,1-4.81,0,0,.1,0,0.1.06a24.42,24.42,0,0,1-.35,3.22s0.09,0.1.1,0.06c0.83-2.4.75-4.86,1.46-7.32A0.6,0.6,0,0,1,15,43.73a0.08,0.08,0,0,1,.11.06c-0.14,2.83-1,5.56-1.25,8.37,0,0.29.48,0.33,0.77,0.36a10.79,10.79,0,0,1,3.8.93c0.33,0.17.49-.34,0.63-0.6a6.39,6.39,0,0,0,.2-0.69c0.17-.44.4-0.85,0.58-1.29,0.3-.7.45-1.46,0.77-2.15a19.23,19.23,0,0,0,1.12-3c0.52-1.88.92-3.63,1.47-5.49,0.41-1.38.72-2.67,1-4.07a34.23,34.23,0,0,0,1-9.34c-0.11.15-.05,0.36-0.16,0.5a0.38,0.38,0,0,1-.55,0,1.54,1.54,0,0,1-.26-0.57c-0.48.88-.75,1.84-1.2,2.74a0.12,0.12,0,0,1-.18,0,0.54,0.54,0,0,1,0-.5,23,23,0,0,0,.9-4S23.69,25,23.65,25a4.07,4.07,0,0,0-.85,1,4.23,4.23,0,0,1-.94,1.23c-0.07.06-.16-0.1-0.15-0.11,0.44-1,1.26-1.77,1.28-2.88A0.34,0.34,0,0,0,22.77,24a1.11,1.11,0,0,1-1.06-.9,7.8,7.8,0,0,1,3.4.57,9.05,9.05,0,0,1,2.24.88,7.76,7.76,0,0,0,2.25,1.11,5.27,5.27,0,0,0,1.53.12,1.16,1.16,0,0,0,.78-0.59,16.14,16.14,0,0,0,1.69-2.37,10.32,10.32,0,0,1,.83-1.09,0.27,0.27,0,0,0,0-.24,4,4,0,0,0-1.11-1.57,2.6,2.6,0,0,0-2.16-.62,2,2,0,0,1,.74.74c0.1,0.18.11,0.61-.18,0.47-0.69-.34-1-1.18-1.4-1.1s0.05,0.87.15,1.28a5.28,5.28,0,0,0,0-.57c0.29-.3.43,0.21,0.52,0.4A7.36,7.36,0,0,1,31.48,22a2,2,0,0,1,.44.86,0.24,0.24,0,0,1-.36.1,4,4,0,0,1-1.34-1.42c-0.6-.81-0.64-1.85-1.27-2.64-0.17-.21-0.72-0.17-0.69.13a5,5,0,0,0,.48,1,0.17,0.17,0,0,1-.25.23,12.81,12.81,0,0,1-1-1.42,3.18,3.18,0,0,0-.82-0.49c-0.31-.18-0.83.06-1-0.26a5.32,5.32,0,0,0-3.45-2.77,0.48,0.48,0,0,1-.37-0.51c0-.1.13-0.08,0.18,0a1.53,1.53,0,0,0,1,.39,0.33,0.33,0,0,0,.17-0.35,0.82,0.82,0,0,0-.53-0.65A18.79,18.79,0,0,0,21,13.38a2.78,2.78,0,0,0-1.6,0,1.15,1.15,0,0,0-.48.26m3.8-1.23c-0.34.19-.65,0.36-1,0.58-0.07,0,.06.13,0.12,0.16,0.21,0.12.47,0.17,0.67,0.28a2,2,0,0,1,1.17.92c0.09,0.28-.15.68-0.05,0.93a2.93,2.93,0,0,0,1.2.84,8,8,0,0,1,1,1.09,2.46,2.46,0,0,0,.33.63,4.69,4.69,0,0,1,.62.18,0.5,0.5,0,0,0,.26.1c0.22-.07.14-0.34,0.16-0.56a0.26,0.26,0,0,1,.26.07,0.23,0.23,0,0,0,.12-0.31c0-.07-0.23-0.14-0.27-0.21a2.36,2.36,0,0,1,0-.36c-0.2-.56-1.46-0.37-1.62-1.19,0.33-.08.73,0.42,0.91,0-0.71-.42-1.5-0.65-2.2-1.09-0.38-.23-1-0.51-0.92-1a0.47,0.47,0,0,0,.25,0A2.88,2.88,0,0,0,23,12.37a0.24,0.24,0,0,0-.25,0m2.83-7a0.71,0.71,0,0,0-.7.49,4.33,4.33,0,0,0-.73,2.29s0.1,0.1.09,0.13a1.62,1.62,0,0,0,.55,1.13s0,0.18-.06.17a0.68,0.68,0,0,0-.76.64,2,2,0,0,1-.52,1.91,1.21,1.21,0,0,0,.68.62,18.63,18.63,0,0,0,2,0,0.39,0.39,0,0,0,.26-0.29c0.11-.31-0.35-0.53-0.2-0.84a1.56,1.56,0,0,1,.31-0.53C26.51,11.1,26.38,11,26.33,11a0.59,0.59,0,0,0-.52.08A0.11,0.11,0,0,1,25.63,11c-0.09-.72.49-0.39,0.91-0.44a0.27,0.27,0,0,0,.19-0.17c0.17-.59.28-0.62,0.94-0.57,0.18,0,.14-0.42.11-0.45a10.29,10.29,0,0,1-1.22-1.15c-0.12-.17-0.2.38-0.36,0.51a0.31,0.31,0,0,1-.39-0.19c0-.17.11-0.3,0.08-0.43a0.93,0.93,0,0,0-.46-0.3c-0.16-.09,0-0.36.07-0.35a0.58,0.58,0,0,0,.7-0.33c0.14-.42-0.77-0.47-0.64-0.8a1.05,1.05,0,0,1,.77,0A0.21,0.21,0,0,0,26.48,6a1.84,1.84,0,0,0-.93-0.61m-3.41-.48a8.46,8.46,0,0,0-1.62.59A4.36,4.36,0,0,0,18.44,7.3a1.35,1.35,0,0,1-.2.5,0.12,0.12,0,0,0,0,.18c-0.32.22,0,.43,0.16,0.66,0,0,0,.14,0,0.18,0.36,0.45,1.05.34,1.33,0.8s-0.47.93-.22,1.26c0.13,0.17.74-.24,0.76,0.28a7.2,7.2,0,0,1-.27,1.54,0.07,0.07,0,0,0,.11.06,1,1,0,0,1,.66-0.17,0.73,0.73,0,0,0,.28-0.28,2.23,2.23,0,0,0,.77-0.13s-0.09-.1-0.06-0.11a2.18,2.18,0,0,0,.56,0,1.72,1.72,0,0,1,.56-0.4c0-.07-0.16-0.1-0.12-0.2A0.63,0.63,0,0,1,23,11.32c0.09-.1-0.19-0.09-0.06-0.19s0.21-.3,0-0.43a1.57,1.57,0,0,0-.5-0.05s-0.07-.15,0-0.15A2.41,2.41,0,0,0,23.13,10c-0.29-.3.12-0.41,0.12-0.45a3.15,3.15,0,0,1,0-.5,0.36,0.36,0,0,1-.14-0.41,0.48,0.48,0,0,1,.18-0.19c-0.26-.26.06-0.34,0.07-0.45a1,1,0,0,1-.16-0.19,2.25,2.25,0,0,1,.36-0.32,1,1,0,0,0-.14-0.18,2.84,2.84,0,0,1,.38-0.65A3.47,3.47,0,0,1,24,6.05a1.14,1.14,0,0,1,.2-0.25A1.52,1.52,0,0,1,24.47,5a4.68,4.68,0,0,0-2.33-.1m5,0.92A1.17,1.17,0,0,0,27,7.07c0.1,0.26-.23.54-0.11,0.82,0.27,0.63,1,.84,1.32,1.44a0.65,0.65,0,0,1-.39.88,0.86,0.86,0,0,0-.82.68,1,1,0,0,1-.31.84,0.24,0.24,0,0,0-.07.29,0.75,0.75,0,0,1-.33,1.14c-0.55.25-1.23,0-1.72,0.39a0.37,0.37,0,0,0,0,.39,8.22,8.22,0,0,0,2.58,1.17c0.1,0.05,0,.57.09,0.74a4.13,4.13,0,0,0,.69.47c0.38,0.29.73,0.7,0.5,0.89a1.42,1.42,0,0,0-.56,1c0,0.09-.28,0-0.29.19s0.07,0.11.11,0.06a1,1,0,0,1,1.55.12c0.19,0.28.48,0,.56-0.12s0-.49.08-0.69a5.28,5.28,0,0,1,1.37-1.2A10.05,10.05,0,0,0,32,15.51a3.24,3.24,0,0,1,.64-1.06,4.23,4.23,0,0,0,.55-0.21c0.53-.54-0.31-1.41.15-2,0.28-.36,1-0.25,1.18-0.62a5.19,5.19,0,0,1-.19-0.81c0.16-.57-0.29-1.13.07-1.59a2.82,2.82,0,0,0,.63-2,2.25,2.25,0,0,0-.24-0.41,2.72,2.72,0,0,1,0-1.28,2,2,0,0,1,.29-1,0.85,0.85,0,0,1,.51-0.38,0.73,0.73,0,0,1,.86.42,8.84,8.84,0,0,1,.22,1.22,4.36,4.36,0,0,0,.44.56,6.31,6.31,0,0,0,.19,1,3.09,3.09,0,0,0,.94.56,1,1,0,0,1,.27.45c0.1,0.28.52,0.28,0.65,0.56,0,0.11,0,.27,0,0.37a2.56,2.56,0,0,1,.72.82,0.92,0.92,0,0,1-.1.69c-0.55.77-1.16,1.39-1.73,2.09a1.81,1.81,0,0,1,1,1.52,3.3,3.3,0,0,1,1.56,1.27A1.75,1.75,0,0,1,40.8,17a0.13,0.13,0,0,1-.1,0c0-.07,0-0.25-0.06-0.22a0.6,0.6,0,0,0-.39.41C40,18,40.38,19,39.71,19.48c-0.28.21-.72-0.17-1.11-0.21a0.25,0.25,0,0,0-.18.24,1.18,1.18,0,0,1-.45.93C37,20.9,36.28,21.57,35.33,22a2.27,2.27,0,0,0-.83.7,35,35,0,0,1-2.23,2.92c-1.13,1.26-3,.84-4.35,0A3.13,3.13,0,0,0,26.36,25c-0.3,2-.39,4.12-0.7,6.23s-0.53,4-1,6.11c-0.33,1.43-.66,2.74-1,4.13A45,45,0,0,0,22.16,47C22,48,22.74,49,23,50s-0.3,1.8-.14,2.74a9.66,9.66,0,0,0,.29,1.44c0.46,1.39,1.32,2.56,1.84,3.93,0.3,0.79.74,1.52,1.11,2.29,0.23,0.49.41,1,.68,1.47a18.19,18.19,0,0,0,1.9,2.85,23.71,23.71,0,0,0,2.06,2.45,0.77,0.77,0,0,0,.69-0.25,0.24,0.24,0,0,1,.23,0c0.56,0.82.49,2.11,1.62,2.31a2.2,2.2,0,0,0,1,.91c0.07,0.06.29,0.06,0.4,0.14a6.28,6.28,0,0,1,.79.81,2.34,2.34,0,0,0,1.18.72,9,9,0,0,1,2.44.15,0.47,0.47,0,0,1,.3.27,11.67,11.67,0,0,1,.41,1.18,0.28,0.28,0,0,1-.25.24,13.58,13.58,0,0,1-2.15.73,14,14,0,0,1-3.43,0c-0.77-.08-1.48-0.72-2.22-0.53a1.08,1.08,0,0,0-.25,1c-1.07.21-2.49,0.46-3.25-.41-0.11-.12-0.11-0.4-0.24-0.53a3,3,0,0,1-.55-2.71c0.31-1.87-1.12-3.35-2.44-4.56-1.74-1.59-3.56-2.83-5-4.71a9.86,9.86,0,0,1-1.21-2,18.4,18.4,0,0,1-1.29-5.91,0.54,0.54,0,0,0-.35-0.33,13.4,13.4,0,0,0-1.87-.35c-0.6-.18-1.26,0-1.85-0.2a0.75,0.75,0,0,1-.26-0.18c-0.13.26,0,.6-0.35,0.67a8.18,8.18,0,0,1-1,0,0.16,0.16,0,0,0-.12.11c0.16,1.78.5,3.49,0.49,5.26,0,1.17-.17,2.32-0.12,3.49s0.07,2.2.15,3.31a2.67,2.67,0,0,0,.61,1.89,1.43,1.43,0,0,0,.63.28c0.4,0.1.7-.28,1.1-0.2a0.18,0.18,0,0,1,.12.13,0.8,0.8,0,0,1-.31.58,2.26,2.26,0,0,0-.29,1.3,2,2,0,0,0,1,.54,5.35,5.35,0,0,1,1,.71s0.22,0.32.25,0.1-0.15-.42.13-0.5a2.67,2.67,0,0,1,2.05,0,5.89,5.89,0,0,1,.71.7s0.13,0,.18,0a0.51,0.51,0,0,1,.22.64,3.35,3.35,0,0,1-1.59,1.36,5.2,5.2,0,0,1-1.82.44c-0.92.17-1.74-.32-2.64-0.2,0.09,0.84-.73,1.16-1.41,1.28a5,5,0,0,1-3-.33c0-1.3-.15-0.77-0.66-1.61S9,71,9.14,70.36a4.61,4.61,0,0,0-.4-2.8c-0.24-.67-0.39-1.37-0.64-2-1-2.66-2-5.31-2.16-8.14-0.07-1.62.15-3.23,0.16-4.84a6.42,6.42,0,0,0-.39-0.61,1.28,1.28,0,0,0-.21-0.81c-0.72-.45-1.86-0.58-2-1.47a6.26,6.26,0,0,1,.55-2.17A0.15,0.15,0,0,0,4,47.36a2.33,2.33,0,0,1-1.41-.26,2.92,2.92,0,0,1-1-1.21,2.89,2.89,0,0,1-.08-0.7c-0.08-.35-0.59-0.53-0.49-0.92a19.26,19.26,0,0,0,.73-3.09c0.14-1.58.31-3.13,0.44-4.71a4.44,4.44,0,0,0,.19-1.26c-0.13-.45-1-0.29-1.19-0.74s0.43-.76.72-1.16c0.62-.81,1.39-1.31,2-2.11a24.67,24.67,0,0,0,2.4-2.93C5.68,28,5,27.87,4.48,27.54a8.1,8.1,0,0,1-1.63-1.09,0.26,0.26,0,0,1-.07-0.23,9.24,9.24,0,0,0,.6-1.35,2.06,2.06,0,0,0-.23-1.28c-0.48-1.38-1.46-2.78-.88-4.23,0.32-.8,1.3-1,2.05-1.29a11.24,11.24,0,0,0,1-.59,5.26,5.26,0,0,1,.94-0.3,1.28,1.28,0,0,0,.45-0.85A6,6,0,0,0,6.44,15c-0.72-2.2-1.32-4.38-2.13-6.53A47.88,47.88,0,0,1,2.56,3.6a0.46,0.46,0,0,1,.53-0.5C3.7,3.44,3.72,4.24,4,4.85c1.49,3.58,2.56,7.21,3.94,10.79a3.38,3.38,0,0,1,2.12-2,1.36,1.36,0,0,1,.73.23l0.75-.07a10.9,10.9,0,0,0,1.93-1.38c0.8-.61,1.78.19,2.66,0.28a0.16,0.16,0,0,0,.12-0.11,1.32,1.32,0,0,0,0-.73c-0.33-.42-0.77.58-1.14,0.3a2.32,2.32,0,0,1-.83-1.77,0.45,0.45,0,0,1,.26-0.05,2,2,0,0,0,1.09.35,1,1,0,0,0,1-.29A3.82,3.82,0,0,1,15.45,10c-0.27-.24.14-0.47,0.26-0.69s-0.07-.16-0.12-0.18c-0.93-.35-2-0.49-2.57-1.42a1.23,1.23,0,0,1,0-1.4,4.92,4.92,0,0,1,2.58-1.92,6.74,6.74,0,0,1-.39-1.11A2.8,2.8,0,0,1,16.55.91,4.73,4.73,0,0,1,20,.55,3.08,3.08,0,0,0,21.34.21c2.43-.57,4.75.1,7.11,0.8a7.32,7.32,0,0,0,2.44,0c0.31,0,.79-0.1.83,0.22a3,3,0,0,1-1,2.67,11.75,11.75,0,0,1-2.6,1.5,2.5,2.5,0,0,0-.9.39" transform="translate(-0.93 0)" style="fill:#1d1d1b"/><path d="M24.62,25.69a0.59,0.59,0,0,0-.12.64,0.44,0.44,0,0,1,.72-0.1A3.51,3.51,0,0,0,25.35,25c0-.2-0.11-0.68-0.37-0.49a3.86,3.86,0,0,0-.36,1.19" transform="translate(-0.93 0)" style="fill:#e30613"/></g><g style="clip-path:url(#clip-path)"><path d="M456,29.54V11.62h27.16c3.85,0,7.14.35,9.24,4.06a9.32,9.32,0,0,1,1.26,4.83,8.08,8.08,0,0,1-1.82,5.39c-2.73,3.5-7.42,3.64-11.41,3.64H456Zm49.84,25.62L487.59,34.23A22.67,22.67,0,0,0,493,32.9c7.42-3.08,8-10,8-12.67,0-6.79-3.78-12-10.43-13.72a26.26,26.26,0,0,0-7.84-.77H449V55.16h7.07V35.35H480l16.73,19.81h9.17Zm-61,0V49.07H404.51V32.41H442.1V26.53H404.51V11.83h38.57V5.74H397.51V55.16H444.9Zm-95.59-5.95V11.55h17.5a31,31,0,0,1,7.63.7c8.19,2.17,12.25,9.45,12.32,17.57,0,2.38-.35,9.66-6,14.63-4.83,4.27-10.36,4.76-16.38,4.76H349.32Zm-7.07,5.95H362c8.26,0,16.87-.21,23.59-5.88,5.6-4.69,8.33-12,8.33-19.18,0-8.19-3.22-15.82-10.15-20.37-6.16-4-11.76-4-16.94-4H342.25V55.16Zm-5.58,0V5.74h-6.72c0,2.52.21,40.81,0.21,40.81L291.73,5.74h-7.21V55.16h6.72c0-3.64-.14-40.88-0.14-40.88l38.71,40.88h6.86ZM265.76,37.31H241.33l12.32-24.5Zm17.15,17.85L257.57,5.74h-7.49L224.46,55.16h7.91l6-12.18h30.38l6,12.18h8.12ZM235.44,11.62V5.74H188.05v5.88h20.16V55.16h7V11.62h20.23ZM136,45.15c5,8.19,16.66,11.2,27.86,11.2,19.25,0,24.22-8.61,24.22-16.1,0-8.12-6-12.6-16.1-13.58L156.68,25.2c-5-.49-10-1.33-10-6.65,0-6.65,8.89-8.26,16.24-8.26,8.82,0,13.79,2.59,18.2,6.72l6.44-2.59c-3.15-4.48-9.8-9.94-24.71-9.94-8,0-13.37,1.61-16.31,3.22a12.33,12.33,0,0,0-6.86,11.2,10.56,10.56,0,0,0,3.5,8.26c3.64,3.36,8.05,3.71,17.71,4.62l7.56,0.7c5.74,0.49,12.74,1.54,12.74,7.84A8.43,8.43,0,0,1,177.82,47c-4.41,3.36-10.85,3.36-13.23,3.36a38.81,38.81,0,0,1-14.21-2.38,18.28,18.28,0,0,1-7.84-5.46Zm6.34-39.41h-9L113.89,30,94.78,5.74h-9l24.64,30.17V55.16h6.93V36ZM45,49.42V32.27H71.7c3.78,0,7.77.21,10.15,3.64a8.13,8.13,0,0,1,1.4,5,8,8,0,0,1-1.61,5c-2.45,3.15-6.3,3.5-9.94,3.5H45ZM45,26.6V11.41H69.53c2.73,0,5.6,0,8.05,1.54A7,7,0,0,1,80.87,19a7.83,7.83,0,0,1-1.33,4.48c-2.1,3-5.53,3.08-8.75,3.08H45ZM37.89,55.16H69.6c6.65,0,14.7-.07,18.9-6.44a12.9,12.9,0,0,0,2.1-7.35c0-7.28-4.48-11.13-9.38-12.67,0.7-.42,6.93-1.82,6.93-10.15C88.15,7.14,77.3,5.74,70.37,5.74H37.89V55.16Z" transform="translate(-0.93 0)" style="fill:#1d1d1b"/><path d="M6.69,53.27L6,55.78l0.22,3.4,2.14,6.65L9.5,70A16.7,16.7,0,0,0,8.69,72a4.86,4.86,0,0,0,.66,1.11,7.92,7.92,0,0,0,2.66,0c0.44-.3,2.59-1,2.37-1.92a18,18,0,0,0-1-2.44l-1.33-1.26-0.22-1.77-0.15-7.39-0.59-5,2.81-1.11,3.84,1.4,0.59,4.21L19.69,61,22.5,64.2l3.1,2.66,1.63,1.77,0.52,1.77v1.92s0.3,1.26.74,1.26,2-.59,2.51-0.66a18.67,18.67,0,0,1,2.81.37,21.11,21.11,0,0,0,2.66.74,7,7,0,0,0,1.85-1L39,72.25l-1-.37-1.92.3-1-1.18-0.67-.52-2.14-1.63L30.7,67.3l-3.1-3.69-2.29-4.06-2.14-4.66L22.5,52.45,22.57,50l-1-1.77-0.89-.07L7.8,51.49Z" transform="translate(-0.93 0)" style="fill:#fffdee"/><path d="M16.44,6.5s6.13-2.29,6.43-2.29S27,4.8,27,4.8L26.64,6.35,26.42,7.68l1.48,1.63V10L27.3,10l-0.52.59-0.3.81-0.22.37,0.3,0.52-0.22.59L25.23,13l-1.11.22v0.59l1,0.89,1.77,0.52V16l0.74,0.59L28,17.07,27.45,18l-0.22.89L34,16.48l-0.52-2.29V13l0.37-.81,1-.22-0.22-.81,0.07-1.77,0.52-2.44-0.3-1.55,0.52-1h0.81l0.07,0.89,0.07,1L37,6.58l0.22,1,1,0.59V8.64L38.9,9.09V9.83L39.64,9.9v0.52l-2,2.44,1,0.81,0.07,0.74L40,15.22,40.38,16l-0.22.74-0.07.59-0.15,1.33-0.37.67-1-.15-1.26-.22-13.67,1.7L7,16.33,4.33,7.91,4.92,8.27l2.88,7.9,10-3.25Z" transform="translate(-0.93 0)" style="fill:#fffdee"/><path d="M7.74,26.94a1.22,1.22,0,0,0,.21,0c0.05,0,.1,0,0.06-0.09a0.53,0.53,0,0,0-.25-0.2,1.46,1.46,0,0,1-.25.19,1,1,0,0,0-.44.09,1.37,1.37,0,0,0,.66,0" transform="translate(-0.93 0)" style="fill:#e30613"/><path d="M32.92,14.85a12.45,12.45,0,0,1-2.07,2.83,14.2,14.2,0,0,0,1.64.74,7.26,7.26,0,0,1,1.23.71c0.81,0.59,1.12,1.49,1.85,2.07a0.93,0.93,0,0,0,.83-0.38c0.38-.39.87-0.45,1.22-0.84a0.5,0.5,0,0,0,.13-0.24,3.94,3.94,0,0,0-.31-2.39,3.64,3.64,0,0,0-.8-1.05,9.34,9.34,0,0,0-2.51-1.55,1,1,0,0,0-1.21.11" transform="translate(-0.93 0)" style="fill:#e30613"/><path d="M8.4,20.5a1.09,1.09,0,0,0,.38.08c-0.74-1-1.67-2.09-1.22-3.08a1.45,1.45,0,0,1,.35-0.33c0.41,0.14.74,0.39,1.16,0.52,0.06,0,.17,0,0.18-0.05s0.15-.45.34-0.35,0.46,0.32.71,0.45a9,9,0,0,1-.11-1.88,0.16,0.16,0,0,1,.24-0.11,0.88,0.88,0,0,1,.21.37,2.81,2.81,0,0,0,.8.42s0.1-.07.06-0.1a2.49,2.49,0,0,1-1.3-2.06s-0.07-.19-0.16-0.12a2.86,2.86,0,0,0-.2,1.16c-0.12.41,0.19,0.91,0,1.26s-0.5-.11-0.53-0.38c0-.07-0.26-0.87-0.27-0.9a0.1,0.1,0,0,0-.17,0C8.79,16,9.09,16.49,9,17a0.21,0.21,0,0,1-.24.11,3.57,3.57,0,0,0-1-.49,1,1,0,0,0-.6.9C6.92,18,7.34,18.5,7.16,19c-0.67,0-.9-1-1.12-1.32s-0.82.77-.82,1.18A1.92,1.92,0,0,0,6.4,20.49a0.32,0.32,0,0,0,.38,0,3.32,3.32,0,0,1-1.09-1.41c-0.09-.23,0-0.74.3-0.53s0.37,0.74.71,1a4.75,4.75,0,0,0,1.7,1" transform="translate(-0.93 0)" style="fill:#e30613"/><path d="M11.56,14.6a0.55,0.55,0,0,0-.32-0.18,0.2,0.2,0,0,0-.13.3c0.07,0.15.49,0.36,0.63,0.16a1.74,1.74,0,0,0-.18-0.28" transform="translate(-0.93 0)" style="fill:#e30613"/><path d="M5.83,23.6a16.63,16.63,0,0,1,.94-1.67c0.08-.09.14-0.39-0.06-0.41s-1.17.83-1.33,0.18c-0.26.28-.67,0.51-0.93,0.81a0.07,0.07,0,0,0,.05.12,5.73,5.73,0,0,1,1.25-.34c0.23,0,.09.41,0,0.65-0.11.45-.61,0.65-0.62,1.14a0.85,0.85,0,0,0,.66-0.5" transform="translate(-0.93 0)" style="fill:#e30613"/><path d="M5.08,21a0.62,0.62,0,0,1,.44.28c0.08,0.13-.16.35,0,0.34a1.42,1.42,0,0,0,.42-0.44,1.87,1.87,0,0,0-.42-0.49,3.57,3.57,0,0,0-.43-0.42C4.53,20.06,4,20,3.5,19.71a0.07,0.07,0,0,0-.05.11A3.26,3.26,0,0,0,5.08,21" transform="translate(-0.93 0)" style="fill:#e30613"/><path d="M5.13,25.59a4.71,4.71,0,0,0,1.51-1.85,0.81,0.81,0,0,0,.1-0.41,10,10,0,0,1-3.14,3,3,3,0,0,0,1.54.76C5.25,27.15,5,27,5,27c-0.26-.27-1-0.25-0.8-0.67a2.22,2.22,0,0,1,.94-0.69" transform="translate(-0.93 0)" style="fill:#e30613"/><path d="M9,26.5a19.15,19.15,0,0,0,.83-2.69c0-.35-0.35.16-0.65,0.1a0.08,0.08,0,0,0-.06-0.12,1.52,1.52,0,0,1-.54-0.15c-0.08-.08.08-0.46,0-0.55a0.57,0.57,0,0,1-.2-0.21,2.41,2.41,0,0,0,0-.49,1.82,1.82,0,0,0-.2.12,5.88,5.88,0,0,1-2.26,3.75s0,0.12.05,0.11a6.58,6.58,0,0,1,.77-0.08A2.42,2.42,0,0,1,7.57,26s0.06,0.15.11,0.17a1.57,1.57,0,0,1,.39,0,1.74,1.74,0,0,0,.18.18c0.06,0,.22,0,0.25.07s-0.27.29-.37,0.39A0.8,0.8,0,0,0,9,26.5" transform="translate(-0.93 0)" style="fill:#e30613"/><path d="M6.83,29.22a0.59,0.59,0,0,0-.75.35c0,0.06,0,.18,0,0.18,0.49,0,.52.23,0.76,0.19a2.78,2.78,0,0,0,.38-0.53c0-.21-0.26-0.15-0.44-0.19" transform="translate(-0.93 0)" style="fill:#e30613"/><path d="M5.45,32.9a0.85,0.85,0,0,0,.44-0.7c0.19-.47.41-0.89,0.64-1.34a0.59,0.59,0,0,0,.14-0.42,1.06,1.06,0,0,0-.89-0.32,14.05,14.05,0,0,0-1.52,1.55,2.48,2.48,0,0,0-.67.91c0.79,0.08,1.22.24,1.87,0.32" transform="translate(-0.93 0)" style="fill:#e30613"/><path d="M18.92,13.63a1.63,1.63,0,0,1-1.5.44,0.27,0.27,0,0,0-.25.16A11.26,11.26,0,0,1,15,18.34s-0.16,0-.17-0.06c0-.61.48-1.54-0.16-1.84a2.15,2.15,0,0,1-1.27-.76c-0.16-.45.46-0.88,0.77-1.31a0.07,0.07,0,0,0-.05-0.11,0.82,0.82,0,0,0-.51.31c-1.6,2-2.19,4.34-2.78,6.68,0.12,2.13-.84,4.11-1.44,6.1,0.61,0.28.25,1.1-.19,1.32a0.37,0.37,0,0,1-.5-0.12,13.46,13.46,0,0,0-2.29,4.6,8.53,8.53,0,0,0-.51,4c0,0.18.13,0,.14-0.06A66.21,66.21,0,0,1,8.67,30a0.18,0.18,0,0,1,.16,0,0.87,0.87,0,0,1-.1.69A8.14,8.14,0,0,0,8,33.13a34,34,0,0,0-1,9.09c0,0.64-.21,1.28-0.18,1.93,0.1,2.48-.13,4.92-0.26,7.37a0.48,0.48,0,0,0,.36.38A14.9,14.9,0,0,0,12.44,53c0.43-1.59.29-3.29,1-4.81,0,0,.1,0,0.1.06a24.44,24.44,0,0,1-.35,3.22s0.09,0.1.1,0.06c0.83-2.4.75-4.86,1.46-7.32A0.61,0.61,0,0,1,15,43.73a0.08,0.08,0,0,1,.11.07c-0.14,2.83-1,5.56-1.25,8.37,0,0.29.48,0.33,0.77,0.36a10.75,10.75,0,0,1,3.8.93c0.33,0.17.49-.34,0.63-0.6a6.35,6.35,0,0,0,.2-0.69c0.17-.44.4-0.85,0.58-1.29,0.3-.7.45-1.46,0.78-2.15a19.14,19.14,0,0,0,1.12-3c0.52-1.88.92-3.63,1.48-5.48,0.41-1.38.72-2.67,1-4.07a34.24,34.24,0,0,0,1-9.34c-0.11.15-.05,0.36-0.16,0.5a0.38,0.38,0,0,1-.55,0,1.55,1.55,0,0,1-.26-0.57c-0.48.88-.75,1.84-1.2,2.74a0.12,0.12,0,0,1-.18,0,0.54,0.54,0,0,1,0-.5,22.9,22.9,0,0,0,.9-4S23.69,25,23.65,25a4.08,4.08,0,0,0-.85,1,4.2,4.2,0,0,1-.94,1.23c-0.07.06-.16-0.1-0.15-0.11,0.44-1,1.26-1.77,1.28-2.88A0.34,0.34,0,0,0,22.77,24a1.11,1.11,0,0,1-1.06-.9,7.8,7.8,0,0,1,3.4.57,9,9,0,0,1,2.24.88,7.79,7.79,0,0,0,2.25,1.11,5.34,5.34,0,0,0,1.53.12,1.16,1.16,0,0,0,.78-0.59,16.14,16.14,0,0,0,1.69-2.37,10.32,10.32,0,0,1,.83-1.09,0.27,0.27,0,0,0,0-.24,4,4,0,0,0-1.11-1.58,2.6,2.6,0,0,0-2.16-.62,2,2,0,0,1,.74.75c0.1,0.18.11,0.61-.18,0.47-0.69-.33-1-1.18-1.4-1.09s0.05,0.87.15,1.28a5.24,5.24,0,0,0,0-.57c0.29-.3.43,0.21,0.52,0.41A7.33,7.33,0,0,1,31.48,22a2,2,0,0,1,.44.86,0.24,0.24,0,0,1-.36.1,4,4,0,0,1-1.34-1.42c-0.6-.81-0.64-1.85-1.28-2.64-0.17-.21-0.72-0.17-0.69.13a4.92,4.92,0,0,0,.48,1,0.17,0.17,0,0,1-.25.23,12.83,12.83,0,0,1-1-1.42,3.15,3.15,0,0,0-.82-0.49c-0.31-.18-0.83.06-1-0.27a5.32,5.32,0,0,0-3.45-2.77,0.48,0.48,0,0,1-.37-0.51c0-.1.13-0.08,0.18,0a1.54,1.54,0,0,0,1,.39,0.33,0.33,0,0,0,.17-0.35,0.82,0.82,0,0,0-.53-0.65A18.78,18.78,0,0,0,21,13.38a2.77,2.77,0,0,0-1.6,0,1.14,1.14,0,0,0-.48.26" transform="translate(-0.93 0)" style="fill:#e30613"/><path d="M4.11,36a0.74,0.74,0,0,0-.52.23,5,5,0,0,0-.15,1.48c-0.09,1-.11,1.9-0.12,2.85s0,1.65.11,2.49a5.27,5.27,0,0,0,.35-1.31c0.17-1,.22-1.88.33-2.83s0.32-1.85.36-2.77C4.46,36,4.24,36,4.11,36" transform="translate(-0.93 0)" style="fill:#e30613"/><path d="M5.12,41.55a2.38,2.38,0,0,1,.31-0.91,1.84,1.84,0,0,0-.13-1c-0.22-1.4.38-2.66,0-4a3.2,3.2,0,0,0-.29,1,18.73,18.73,0,0,0-.13,2.59c0,0.47-.09.93-0.06,1.4A8.09,8.09,0,0,0,5,42a0.87,0.87,0,0,0,.11-0.43" transform="translate(-0.93 0)" style="fill:#e30613"/><path d="M3.13,45.27c-0.44.09-.18-0.61-0.35-0.87a2,2,0,0,0-.24.63,1.31,1.31,0,0,0-.27.69,2,2,0,0,0,1,.74,0.26,0.26,0,0,0,.18-0.17,5.29,5.29,0,0,0,.27-1.73,1.69,1.69,0,0,1-.61.71" transform="translate(-0.93 0)" style="fill:#e30613"/><path d="M4.33,46.39a12.32,12.32,0,0,0,.18-1.61c-0.35.47-.14,1.11-0.56,1.68a0.16,0.16,0,0,0,0,.24c0.19,0.09.33-.11,0.34-0.31" transform="translate(-0.93 0)" style="fill:#e30613"/><path d="M2.05,44.25a14.37,14.37,0,0,0,.53-3.75c-0.2.72-.31,1.41-0.47,1.94a12.9,12.9,0,0,0-.47,1.48,1.91,1.91,0,0,0,.17.26c0.06,0.13.05,0.32,0.1,0.44a0.53,0.53,0,0,0,.13-0.37" transform="translate(-0.93 0)" style="fill:#e30613"/><path d="M4.2,34.76a0.75,0.75,0,0,0,.58.1A0.41,0.41,0,0,0,5,34.41c-0.43-.5-1.77-0.5-2.4-0.48a0.54,0.54,0,0,0-.27.29c0.56,0.4,1.31.23,1.91,0.54" transform="translate(-0.93 0)" style="fill:#e30613"/><path d="M3.12,33.37a4.83,4.83,0,0,1,1.66.3c0.13,0.08.4,0.23,0.5,0a0.17,0.17,0,0,0-.12-0.24c-0.28-.06-0.61-0.07-0.88-0.11a5.49,5.49,0,0,0-1.11-.16,0.33,0.33,0,0,0-.13.11,0.51,0.51,0,0,0,.08.09" transform="translate(-0.93 0)" style="fill:#e30613"/><path d="M5.41,50.32c0.13,0.08.38,0.25,0.41,0.07,0.66-3.46.48-6.84,0.6-10.26a0.67,0.67,0,0,0,0-.58c-0.55,2-.84,4-1.28,6.1-0.27,1.31-.66,2.51-0.88,3.79a5.88,5.88,0,0,0,1.2.89" transform="translate(-0.93 0)" style="fill:#e30613"/><path d="M10,72.54a3.76,3.76,0,0,1,.23-1.24,1.55,1.55,0,0,0-.71,1.28,0.22,0.22,0,0,0,.3.13A0.29,0.29,0,0,0,10,72.54M35.57,19a0.67,0.67,0,0,0-.71.84c0.14,0.38.74,0.29,1,0A0.47,0.47,0,0,0,35.57,19m-0.68-1a0.7,0.7,0,0,0-1.08.29,0.44,0.44,0,0,0,.35.5,0.58,0.58,0,0,0,.64-0.15c0.16-.19.34-0.42,0.08-0.64m-1.73-.65A0.44,0.44,0,0,0,33,16.86a0.5,0.5,0,0,0-.44-0.08,0.67,0.67,0,0,0-.52.8c0.1,0.26.36,0.22,0.61,0.15a0.59,0.59,0,0,0,.46-0.36M12.65,30.54c-0.17-.06-0.26-0.3-0.45-0.36S11.86,30,11.78,30.1c-1.16,1.64-1.58,3.47-2.54,5.13a21,21,0,0,1,2.14,1.51c0.74,0.72,1.27,1.56,1.93,2.32a16.11,16.11,0,0,1,4.94-.64A0.52,0.52,0,0,0,18.58,38a33.23,33.23,0,0,1,1.49-3.77,0.59,0.59,0,0,0,.07-0.55c-0.27-.41-0.88-0.12-1.16-0.47-0.84-1.06-2.16-1.3-3.34-1.76-1-.39-2-0.55-3-0.92m12.24-1.1c0.15-.37.38-1-0.14-1.15a0.37,0.37,0,0,0-.44.17c-0.22.36-.41,0.9,0,1.13a0.39,0.39,0,0,0,.56-0.15m-0.28,2.32a1.37,1.37,0,0,0,0-1.08c-0.12-.26-0.36-0.21-0.55-0.07a0.86,0.86,0,0,0,0,1.35,0.36,0.36,0,0,0,.51-0.2m-0.24,1.68a0.67,0.67,0,0,0-.06-0.57,0.48,0.48,0,0,0-.81.09,0.86,0.86,0,0,0-.22.63,0.47,0.47,0,0,0,.42.37,0.64,0.64,0,0,0,.66-0.52M23.83,35.8a0.87,0.87,0,0,0,0-.83,0.39,0.39,0,0,0-.56-0.15,0.94,0.94,0,0,0-.47,1,0.35,0.35,0,0,0,.36.3,0.69,0.69,0,0,0,.64-0.33m-5.12,3.9a0.51,0.51,0,0,0-.35-0.7,0.53,0.53,0,0,0-.55,0,0.54,0.54,0,0,0,.33.91,0.56,0.56,0,0,0,.57-0.26m-5.65.65a0.6,0.6,0,0,0-.17-0.63,0.6,0.6,0,0,0-.76,0,0.67,0.67,0,0,0-.34.69,0.63,0.63,0,0,0,.49.39,0.6,0.6,0,0,0,.77-0.41M9,36.19a0.45,0.45,0,0,0-.29-0.64,0.6,0.6,0,0,0-.76.66,0.43,0.43,0,0,0,.2.36A0.62,0.62,0,0,0,9,36.19m2.54-8.12a0.44,0.44,0,0,0-.55-0.3A0.74,0.74,0,0,0,10.52,29a0.58,0.58,0,0,0,.95-0.14,1.18,1.18,0,0,0,.08-0.77M3.23,3.7c0.07,0.13.21,0.34,0,.44a0.14,0.14,0,0,1-.05-0.06,0.28,0.28,0,0,1,0-.39m0.7,2.13c0.1,0.28,1.19,2.7,1,2.92a5.68,5.68,0,0,1-.31-0.81,6.29,6.29,0,0,1-.66-2.11m3.29,9.59a0.24,0.24,0,0,0,.06.07A25.86,25.86,0,0,0,5,9s0.21,0.82.23,0.88c0.59,1.85,1.38,3.67,2,5.51m0.06,0.07a0.69,0.69,0,0,0,.11.39c0.16-.12.06-0.27,0-0.38a0.24,0.24,0,0,0-.12,0m10.43,55.8c-0.07.09-.29-0.07-0.32-0.18a0.08,0.08,0,0,1,.06-0.05,2.49,2.49,0,0,1,.27.23m4.2-20.08c0-.06.15-0.06,0.15,0s-0.15.07-.15,0m-0.39-.07a0.22,0.22,0,0,1,.29,0,0.19,0.19,0,0,1-.14,0c-0.08,0-.17,0-0.15,0M21.38,49a1.61,1.61,0,0,0-.12-0.11c-0.37.22,0.07,0.47,0.3,0.56a0.07,0.07,0,0,0,.06-0.11A2.14,2.14,0,0,0,21.38,49m3.24-23.3a0.59,0.59,0,0,0-.12.63,0.44,0.44,0,0,1,.72-0.1A3.49,3.49,0,0,0,25.35,25c0-.2-0.11-0.68-0.37-0.49a3.86,3.86,0,0,0-.36,1.19M11.7,32.6A1.51,1.51,0,0,1,12,32c0.09,0,.06.11,0.06,0.18s-0.55.81-.37,0.44m1.51,4.13a0.1,0.1,0,0,1,.07-0.13,1.07,1.07,0,0,0,.25.39,0.54,0.54,0,0,1-.31-0.26m-0.64-.86A1.91,1.91,0,0,1,12,35.55a1,1,0,0,1-.39-0.3,0.07,0.07,0,0,1,.11,0l0.13,0.08a3.5,3.5,0,0,1,.68.6m-1.67-1.23A0.07,0.07,0,0,1,11,34.59c0.22,0.24.49,0.37,0.68,0.61a0.08,0.08,0,0,1-.11,0l-0.12-.08a1,1,0,0,1-.56-0.52m-0.53-.15c0.23-1.43,1.14-2.57,1.62-3.89a2.51,2.51,0,0,1-.44,1.47,11.8,11.8,0,0,1-1.19,2.42m2.8,2.94s-0.08.1-.12,0.05a12.73,12.73,0,0,0-2.33-2.13,1.44,1.44,0,0,1-.67-0.43,0.24,0.24,0,0,1,.18-0.28c0.12,0,0,.24.07,0.27A6.37,6.37,0,0,1,13,37.19a0.31,0.31,0,0,1,.14.25m0.47,0.71s-0.35-.57-0.37-0.57a0.27,0.27,0,0,0-.11.05s0.44,0.52.48,0.52m0.07-.76a0.08,0.08,0,0,1,.12-0.06s0.1,0.08.05,0.12a0.11,0.11,0,0,1-.17-0.06m0.74,0c0,0.12-.17.11-0.23,0a0.1,0.1,0,0,1,.06-0.05c0.07,0,.19,0,0.17.06m1.1,0.5a6.65,6.65,0,0,1-1.43.15,1.37,1.37,0,0,1,.72-0.17,0.88,0.88,0,0,1,.71,0m1.81,0a11.09,11.09,0,0,1-1.42,0,1.6,1.6,0,0,1,.84,0,0.79,0.79,0,0,1,.58.07m0-.47c-0.86-.2-1.65.14-2.46-0.07a17,17,0,0,1,2.33-.19,0.3,0.3,0,0,0,.19-0.24,3.41,3.41,0,0,1,.46-1.13c0,0.42-.36,1.15-0.41,1.52a0.15,0.15,0,0,1-.12.11M18,35.63a16.7,16.7,0,0,1,.72-1.8A0.21,0.21,0,0,1,19,33.64a0.08,0.08,0,0,1,.06.12c-0.08.13-.14,0.25-0.21,0.38s-0.64,1.27-.8,1.48m1.53-1.78A6,6,0,0,1,19,35.16a1.4,1.4,0,0,1,.38-1,0.37,0.37,0,0,1,.25-0.32M21,50a1.3,1.3,0,0,0,.25-0.26s-0.05-.08-0.11-0.06a0.64,0.64,0,0,0-.51.56c0,0.1.3,0.32,0.3,0.14A0.45,0.45,0,0,1,21,50m0.56,0.54a1.58,1.58,0,0,0,.4-0.31,2.84,2.84,0,0,0-1,.22,0.56,0.56,0,0,0,.64.09M20.95,51h0a1.73,1.73,0,0,0,.58,0,3.46,3.46,0,0,1-.48-0.15,1.73,1.73,0,0,0-.54-0.2,1.08,1.08,0,0,0-.14.18,1.51,1.51,0,0,0,.54.14m-0.9.82a0.17,0.17,0,0,0-.07.06,0.23,0.23,0,0,0,.3,0,0.3,0.3,0,0,0-.23-0.06m1.73,0.07c-0.22,0,.11-0.29.09-0.26s0.32-.2.14-0.12a4.44,4.44,0,0,1-.83.3,2.67,2.67,0,0,0-.61,0,0.58,0.58,0,0,0,.39.05,2.45,2.45,0,0,1,.62,0c0.11,0,.08.13,0,0.34a0.07,0.07,0,0,0,.11.06,1.26,1.26,0,0,0,.38-0.3c0-.08-0.09-0.13-0.31-0.13m17,20.19a0.08,0.08,0,0,0-.12.05,0.23,0.23,0,0,0,.11.13,0.08,0.08,0,0,0,.12-0.06,0.23,0.23,0,0,0-.11-0.13M21.31,54s0.56,0,.61,0A0.78,0.78,0,0,0,22.54,54c0-.12.05-0.21,0-0.26a1.37,1.37,0,0,0-.8,0,0.71,0.71,0,0,0-.39.1,0.18,0.18,0,0,0,0,.23m-3.09.4c0.2,0,.44-0.13.75-0.15a0.58,0.58,0,0,0,.4-0.11s0-.3,0-0.3c-0.4.37-1,0-1.17,0.21S18,54,18,54.2a0.24,0.24,0,0,0,.23.2m1.94-.9c0.1,0,.15-0.08.24-0.09a0.54,0.54,0,0,1,.42.14,1.28,1.28,0,0,0,.05.48,1.18,1.18,0,0,0,.05-0.46,0.34,0.34,0,0,0-.1-0.36,0.71,0.71,0,0,0-.48.07c-0.13,0-.33,0-0.46,0a1,1,0,0,0-.18.56s0.22,0,.24,0,0-.31.22-0.34m0.56,1.07a0.2,0.2,0,0,0,.21-0.08A2.34,2.34,0,0,1,20.88,54c-0.19.19,0,.39-0.34,0.43s-0.48.1-.64-0.21a0.94,0.94,0,0,0-.05.37,2.2,2.2,0,0,0,.87,0m8.19,16.09a4.82,4.82,0,0,0,1,.15A4.13,4.13,0,0,0,32,70.72a19,19,0,0,1-1.78-2.27,0.17,0.17,0,0,1,.06-0.25c0.19-.09.65,0,0.53-0.2-1.13-1.63-2.36-2.88-3.44-4.58a44.34,44.34,0,0,1-2.74-5,15.69,15.69,0,0,0-2-3.95,1.1,1.1,0,0,0-1.22-.06,3.57,3.57,0,0,1,0,.42,8.75,8.75,0,0,1-.89.23,5.4,5.4,0,0,1-.86.17c-0.34,0,0-.48-0.19-0.57a1.24,1.24,0,0,0-1,.33s0,0.09.05,0.13a0.49,0.49,0,0,0-.15.26,11.65,11.65,0,0,0,1.9,5.93,9.4,9.4,0,0,0,1.81,2,8.38,8.38,0,0,0,1.68,1.49,7.72,7.72,0,0,1,1.58,1.3c1.3,1.16,2.84,2.4,2.88,4.32,0,0.27.48,0.18,0.77,0.27m5.36,0.55a0.59,0.59,0,0,0,.49-0.41c0.08-.13-0.17-0.24-0.28-0.17a0.58,0.58,0,0,1-.58.2,7.46,7.46,0,0,1-1.26-1c-0.11-.12.07-0.24,0.18-0.37a0.08,0.08,0,0,0-.06-0.12c-0.2,0-.6.06-0.53,0.2a3.26,3.26,0,0,0,2,1.68m2,2.26a1.65,1.65,0,0,0,1-.29,5,5,0,0,0-2.13.08c-0.19,0,.06.09,0.05,0.17,0.35,0,.69,0,1,0m-7.87-.67a6.26,6.26,0,0,1-.17-1,0.8,0.8,0,0,0,.09,1.29,0.08,0.08,0,0,0,.12-0.06,0.32,0.32,0,0,0,0-.26M8.08,53.65a0.85,0.85,0,0,0-.88.3,1,1,0,0,0-.12.5,0.33,0.33,0,0,0-.26.13c-0.08.11,0.16,0.12,0.1,0.17a0.72,0.72,0,0,0-.22.14,0.39,0.39,0,0,1,0,.4,0.09,0.09,0,0,0,.11.06,1.38,1.38,0,0,0-.24.69,0.63,0.63,0,0,0,.07.47c-0.1,0,0,.17-0.14.19A0.34,0.34,0,0,1,6.6,57s-0.11.09-.11,0.13a16,16,0,0,0,1.86,6.87,0.65,0.65,0,0,1,0,.24c0.42,1.27.84,2.5,1.18,3.81a2.27,2.27,0,0,1,.25.33,9.09,9.09,0,0,1,.09,1.17,0.9,0.9,0,0,0,0,.57,0.68,0.68,0,0,0,.36.22,4.39,4.39,0,0,0,3-.15c-1.59-2-1.58-3.62-1.68-6.14-0.06-1.48,0-2.93,0-4.4a21.28,21.28,0,0,0-.46-4.47c0-.24-0.15-0.46-0.22-0.72a0.61,0.61,0,0,0-.36-0.32,5,5,0,0,0-2.49-.43M5.41,50.32c0.13,0.08.38,0.25,0.41,0.07,0.66-3.46.48-6.84,0.6-10.26a0.67,0.67,0,0,0,0-.58c-0.55,2-.84,4-1.28,6.1-0.27,1.31-.66,2.51-0.88,3.79a5.88,5.88,0,0,0,1.2.89m0-17.42a0.85,0.85,0,0,0,.44-0.7c0.19-.46.41-0.89,0.64-1.34a0.59,0.59,0,0,0,.14-0.42,1.06,1.06,0,0,0-.89-0.31,14.14,14.14,0,0,0-1.52,1.55,2.48,2.48,0,0,0-.67.9c0.79,0.08,1.22.24,1.87,0.32m-2.33.47a4.8,4.8,0,0,1,1.66.3c0.13,0.08.4,0.23,0.5,0a0.17,0.17,0,0,0-.12-0.24c-0.28-.06-0.61-0.07-0.88-0.11a5.49,5.49,0,0,0-1.11-.15,0.32,0.32,0,0,0-.13.11,0.59,0.59,0,0,0,.08.09m1.08,1.4a0.75,0.75,0,0,0,.58.1A0.41,0.41,0,0,0,5,34.41c-0.43-.51-1.77-0.5-2.4-0.49a0.54,0.54,0,0,0-.27.29c0.56,0.4,1.31.23,1.91,0.55M2.05,44.25a14.33,14.33,0,0,0,.53-3.75c-0.2.72-.31,1.41-0.47,1.94a13.1,13.1,0,0,0-.47,1.48,1.87,1.87,0,0,0,.17.25c0.06,0.13.05,0.32,0.1,0.44a0.53,0.53,0,0,0,.13-0.37m2.27,2.14a12.14,12.14,0,0,0,.18-1.61c-0.35.47-.14,1.11-0.56,1.67a0.16,0.16,0,0,0,0,.24c0.19,0.09.33-.11,0.34-0.31m-1.2-1.12c-0.44.09-.18-0.61-0.35-0.87a2,2,0,0,0-.24.63,1.31,1.31,0,0,0-.27.69,2,2,0,0,0,1,.74,0.27,0.27,0,0,0,.18-0.17,5.29,5.29,0,0,0,.27-1.73,1.69,1.69,0,0,1-.61.71m2-3.71a2.36,2.36,0,0,1,.32-0.9,1.85,1.85,0,0,0-.13-1c-0.22-1.4.38-2.66,0-4a3.19,3.19,0,0,0-.29,1,18.74,18.74,0,0,0-.14,2.59c0,0.47-.09.93-0.06,1.4A8.12,8.12,0,0,0,5,42a0.87,0.87,0,0,0,.11-0.43M4.11,36a0.74,0.74,0,0,0-.52.23,4.92,4.92,0,0,0-.15,1.48c-0.09,1-.11,1.9-0.12,2.85s0,1.65.11,2.49a5.35,5.35,0,0,0,.35-1.31c0.17-1,.21-1.88.32-2.83s0.32-1.84.35-2.77C4.46,36,4.24,36,4.11,36M14,36.89a16,16,0,0,0-2.51-2.35A23.12,23.12,0,0,1,13,31c1.72,0.88,3.95.77,5.32,2.23a0.43,0.43,0,0,1,.07.42A32.53,32.53,0,0,1,17,36.8a6.65,6.65,0,0,0-1.29,0,8.11,8.11,0,0,0-1.62.13M6.83,29.22a0.59,0.59,0,0,0-.75.35c0,0.06,0,.18.05,0.18,0.49,0,.52.23,0.76,0.19a2.7,2.7,0,0,0,.38-0.53c0-.21-0.26-0.15-0.44-0.19m0.9-2.27a1.23,1.23,0,0,0,.21,0c0.05,0,.1,0,0.06-0.09a0.53,0.53,0,0,0-.25-0.2,1.5,1.5,0,0,1-.25.19,0.94,0.94,0,0,0-.44.09,1.36,1.36,0,0,0,.66,0M9,26.5a19.15,19.15,0,0,0,.83-2.69c0-.35-0.35.16-0.65,0.1a0.08,0.08,0,0,0-.06-0.12,1.53,1.53,0,0,1-.54-0.15c-0.08-.08.08-0.46,0-0.55a0.57,0.57,0,0,1-.2-0.21,2.35,2.35,0,0,0,0-.49,1.93,1.93,0,0,0-.2.12,5.87,5.87,0,0,1-2.26,3.75s0,0.12.05,0.11a6.44,6.44,0,0,1,.77-0.08A2.44,2.44,0,0,1,7.57,26s0.06,0.15.11,0.17a1.52,1.52,0,0,1,.39,0,1.73,1.73,0,0,0,.18.18c0.06,0,.22,0,0.25.07s-0.27.29-.37,0.39A0.8,0.8,0,0,0,9,26.5m-3.88-.91a4.71,4.71,0,0,0,1.51-1.85,0.82,0.82,0,0,0,.1-0.41,10,10,0,0,1-3.14,3,3.06,3.06,0,0,0,1.54.76C5.24,27.15,5,27,5,26.95c-0.26-.27-1-0.25-0.8-0.67a2.22,2.22,0,0,1,.94-0.69m0-4.54a0.62,0.62,0,0,1,.44.27c0.08,0.13-.16.35,0,0.34a1.41,1.41,0,0,0,.42-0.44,1.85,1.85,0,0,0-.42-0.49,3.41,3.41,0,0,0-.43-0.42C4.53,20.06,4,20,3.5,19.71a0.07,0.07,0,0,0-.06.11A3.27,3.27,0,0,0,5.08,21M5.83,23.6a16.64,16.64,0,0,1,.94-1.67c0.08-.09.14-0.39-0.06-0.41s-1.17.83-1.33,0.18c-0.26.28-.67,0.51-0.93,0.82a0.07,0.07,0,0,0,.05.11,5.79,5.79,0,0,1,1.25-.34c0.23,0,.09.41,0,0.65-0.11.45-.61,0.65-0.62,1.14a0.85,0.85,0,0,0,.66-0.5m5.73-9a0.54,0.54,0,0,0-.32-0.18,0.2,0.2,0,0,0-.13.3c0.07,0.15.49,0.36,0.63,0.16a1.73,1.73,0,0,0-.18-0.28M8.4,20.5a1.13,1.13,0,0,0,.38.08c-0.74-1-1.67-2.09-1.22-3.08a1.45,1.45,0,0,1,.35-0.33c0.41,0.14.74,0.39,1.16,0.52,0.07,0,.17,0,0.18-0.05s0.15-.45.34-0.35,0.46,0.32.71,0.46a8.93,8.93,0,0,1-.11-1.88,0.16,0.16,0,0,1,.24-0.11,0.89,0.89,0,0,1,.21.37,2.75,2.75,0,0,0,.8.42s0.1-.07.06-0.1a2.48,2.48,0,0,1-1.3-2.06s-0.08-.19-0.16-0.12a2.86,2.86,0,0,0-.2,1.16c-0.12.41,0.19,0.91,0,1.25s-0.5-.11-0.53-0.38c0-.07-0.26-0.88-0.27-0.9a0.11,0.11,0,0,0-.17,0C8.79,16,9.09,16.49,9,17a0.21,0.21,0,0,1-.24.11,3.62,3.62,0,0,0-1-.49,1,1,0,0,0-.6.9C6.92,18,7.34,18.5,7.16,19c-0.67,0-.9-1-1.12-1.32s-0.82.77-.82,1.18A1.92,1.92,0,0,0,6.4,20.49a0.31,0.31,0,0,0,.38,0,3.32,3.32,0,0,1-1.09-1.41c-0.09-.23,0-0.74.3-0.53s0.37,0.74.71,1a4.71,4.71,0,0,0,1.7,1M36.16,5A0.77,0.77,0,0,0,36,4.6a0.45,0.45,0,0,0-.7.16c0,0.05,0,.09.06,0.13a0.35,0.35,0,0,1,.63,0c0.11,0.24,0,.52.12,0.77A0.85,0.85,0,0,0,36.16,5m-1.22,6.22a2.89,2.89,0,0,0,.42.66,1.64,1.64,0,0,0,.56.31,2.09,2.09,0,0,1,1.48.42,17.59,17.59,0,0,0,1.86-2c0.12-.18.38-0.59,0-0.58a3.31,3.31,0,0,0-.41.44,0.3,0.3,0,0,1-.44-0.19c-0.11-.42.39-0.76,0.16-1.15a0.14,0.14,0,0,0-.12,0,0.1,0.1,0,0,0-.07.12c-0.17,0-.38,0-0.43-0.15a4.14,4.14,0,0,0,0-.7,0.18,0.18,0,0,0-.24-0.13c-0.33.18-.08,0.62-0.31,0.79s-0.29-.13-0.33-0.25a4.56,4.56,0,0,0,0-1,9.66,9.66,0,0,0-.49-1.34,0.75,0.75,0,0,0-.23.55c0.26,0.66-.12,1.28-0.08,1.89a2.7,2.7,0,0,1,0,.39,0.07,0.07,0,0,1-.11.05A0.63,0.63,0,0,1,35.88,9c0-.66.44-1.44-0.12-2a0.64,0.64,0,0,0-.26.34,6.94,6.94,0,0,1-.16,1.14c-0.15.31-.36,0.59-0.5,0.91a1,1,0,0,0,.07.58,5.51,5.51,0,0,0-.12.89,1,1,0,0,0,.17.33m-1.17,2c0.1,0.28-.12.56,0,0.76a1.46,1.46,0,0,0,1,.28,6.6,6.6,0,0,1,1.18.63c0.42,0.23.73,0.65,1.13,0.91a1.2,1.2,0,0,1,.71.79c0.1,0.7,1,1,1.22,1.61a0.2,0.2,0,0,1-.12.11,2,2,0,0,1-.38,0c-0.24,0-.11.3,0.05,0.35a2.24,2.24,0,0,0,.88.26c0.27,0,.26-0.46.15-0.71a0.68,0.68,0,0,1-.19-0.64,0.81,0.81,0,0,0,.34-0.33c0-.34-0.38-0.56-0.39-0.92a0.72,0.72,0,0,1,.58.15,0.73,0.73,0,0,0,.14-0.83,2.46,2.46,0,0,0-1.55-1c-0.31-.15-0.08-0.51-0.13-0.81A0.76,0.76,0,0,0,38,13.41c-0.17-.12-0.45,0-0.54-0.06a1.73,1.73,0,0,0-1.78-.47,1.78,1.78,0,0,1-.5-0.46,1.29,1.29,0,0,0-1.5.22,0.9,0.9,0,0,0,.07.68m-0.85,1.54a12.42,12.42,0,0,1-2.07,2.82,14,14,0,0,0,1.64.74,7.37,7.37,0,0,1,1.23.71c0.81,0.6,1.12,1.49,1.85,2.07a0.94,0.94,0,0,0,.83-0.38c0.38-.39.87-0.45,1.22-0.84a0.5,0.5,0,0,0,.13-0.24,4,4,0,0,0-.31-2.39,3.66,3.66,0,0,0-.8-1.05,9.3,9.3,0,0,0-2.51-1.55,1,1,0,0,0-1.21.11m-14-1.22a1.63,1.63,0,0,1-1.5.44,0.27,0.27,0,0,0-.25.16A11.26,11.26,0,0,1,15,18.34s-0.16,0-.17-0.06c0-.61.48-1.54-0.16-1.84a2.16,2.16,0,0,1-1.27-.76c-0.16-.45.46-0.88,0.78-1.31a0.07,0.07,0,0,0-.05-0.11,0.81,0.81,0,0,0-.51.31c-1.6,2-2.19,4.34-2.78,6.68,0.12,2.13-.84,4.11-1.44,6.1,0.61,0.28.25,1.1-.19,1.32a0.37,0.37,0,0,1-.5-0.12,13.49,13.49,0,0,0-2.28,4.6,8.53,8.53,0,0,0-.51,4c0,0.18.13,0,.14-0.06A66.29,66.29,0,0,1,8.67,30a0.18,0.18,0,0,1,.16,0,0.86,0.86,0,0,1-.1.69A8.14,8.14,0,0,0,8,33.13a34,34,0,0,0-1,9.09c0,0.64-.21,1.28-0.18,1.93,0.1,2.48-.13,4.92-0.26,7.37a0.48,0.48,0,0,0,.36.38A14.9,14.9,0,0,0,12.44,53c0.43-1.59.29-3.29,1-4.81,0,0,.1,0,0.1.06a24.42,24.42,0,0,1-.35,3.22s0.09,0.1.1,0.06c0.83-2.4.75-4.86,1.46-7.32A0.6,0.6,0,0,1,15,43.73a0.08,0.08,0,0,1,.11.06c-0.14,2.83-1,5.56-1.25,8.37,0,0.29.48,0.33,0.77,0.36a10.79,10.79,0,0,1,3.8.93c0.33,0.17.49-.34,0.63-0.6a6.39,6.39,0,0,0,.2-0.69c0.17-.44.4-0.85,0.58-1.29,0.3-.7.45-1.46,0.77-2.15a19.23,19.23,0,0,0,1.12-3c0.52-1.88.92-3.63,1.47-5.49,0.41-1.38.72-2.67,1-4.07a34.23,34.23,0,0,0,1-9.34c-0.11.15-.05,0.36-0.16,0.5a0.38,0.38,0,0,1-.55,0,1.54,1.54,0,0,1-.26-0.57c-0.48.88-.75,1.84-1.2,2.74a0.12,0.12,0,0,1-.18,0,0.54,0.54,0,0,1,0-.5,23,23,0,0,0,.9-4S23.69,25,23.65,25a4.07,4.07,0,0,0-.85,1,4.23,4.23,0,0,1-.94,1.23c-0.07.06-.16-0.1-0.15-0.11,0.44-1,1.26-1.77,1.28-2.88A0.34,0.34,0,0,0,22.77,24a1.11,1.11,0,0,1-1.06-.9,7.8,7.8,0,0,1,3.4.57,9.05,9.05,0,0,1,2.24.88,7.76,7.76,0,0,0,2.25,1.11,5.27,5.27,0,0,0,1.53.12,1.16,1.16,0,0,0,.78-0.59,16.14,16.14,0,0,0,1.69-2.37,10.32,10.32,0,0,1,.83-1.09,0.27,0.27,0,0,0,0-.24,4,4,0,0,0-1.11-1.57,2.6,2.6,0,0,0-2.16-.62,2,2,0,0,1,.74.74c0.1,0.18.11,0.61-.18,0.47-0.69-.34-1-1.18-1.4-1.1s0.05,0.87.15,1.28a5.28,5.28,0,0,0,0-.57c0.29-.3.43,0.21,0.52,0.4A7.36,7.36,0,0,1,31.48,22a2,2,0,0,1,.44.86,0.24,0.24,0,0,1-.36.1,4,4,0,0,1-1.34-1.42c-0.6-.81-0.64-1.85-1.27-2.64-0.17-.21-0.72-0.17-0.69.13a5,5,0,0,0,.48,1,0.17,0.17,0,0,1-.25.23,12.81,12.81,0,0,1-1-1.42,3.18,3.18,0,0,0-.82-0.49c-0.31-.18-0.83.06-1-0.26a5.32,5.32,0,0,0-3.45-2.77,0.48,0.48,0,0,1-.37-0.51c0-.1.13-0.08,0.18,0a1.53,1.53,0,0,0,1,.39,0.33,0.33,0,0,0,.17-0.35,0.82,0.82,0,0,0-.53-0.65A18.79,18.79,0,0,0,21,13.38a2.78,2.78,0,0,0-1.6,0,1.15,1.15,0,0,0-.48.26m3.8-1.23c-0.34.19-.65,0.36-1,0.58-0.07,0,.06.13,0.12,0.16,0.21,0.12.47,0.17,0.67,0.28a2,2,0,0,1,1.17.92c0.09,0.28-.15.68-0.05,0.93a2.93,2.93,0,0,0,1.2.84,8,8,0,0,1,1,1.09,2.46,2.46,0,0,0,.33.63,4.69,4.69,0,0,1,.62.18,0.5,0.5,0,0,0,.26.1c0.22-.07.14-0.34,0.16-0.56a0.26,0.26,0,0,1,.26.07,0.23,0.23,0,0,0,.12-0.31c0-.07-0.23-0.14-0.27-0.21a2.36,2.36,0,0,1,0-.36c-0.2-.56-1.46-0.37-1.62-1.19,0.33-.08.73,0.42,0.91,0-0.71-.42-1.5-0.65-2.2-1.09-0.38-.23-1-0.51-0.92-1a0.47,0.47,0,0,0,.25,0A2.88,2.88,0,0,0,23,12.37a0.24,0.24,0,0,0-.25,0m2.83-7a0.71,0.71,0,0,0-.7.49,4.33,4.33,0,0,0-.73,2.29s0.1,0.1.09,0.13a1.62,1.62,0,0,0,.55,1.13s0,0.18-.06.17a0.68,0.68,0,0,0-.76.64,2,2,0,0,1-.52,1.91,1.21,1.21,0,0,0,.68.62,18.63,18.63,0,0,0,2,0,0.39,0.39,0,0,0,.26-0.29c0.11-.31-0.35-0.53-0.2-0.84a1.56,1.56,0,0,1,.31-0.53C26.51,11.1,26.38,11,26.33,11a0.59,0.59,0,0,0-.52.08A0.11,0.11,0,0,1,25.63,11c-0.09-.72.49-0.39,0.91-0.44a0.27,0.27,0,0,0,.19-0.17c0.17-.59.28-0.62,0.94-0.57,0.18,0,.14-0.42.11-0.45a10.29,10.29,0,0,1-1.22-1.15c-0.12-.17-0.2.38-0.36,0.51a0.31,0.31,0,0,1-.39-0.19c0-.17.11-0.3,0.08-0.43a0.93,0.93,0,0,0-.46-0.3c-0.16-.09,0-0.36.07-0.35a0.58,0.58,0,0,0,.7-0.33c0.14-.42-0.77-0.47-0.64-0.8a1.05,1.05,0,0,1,.77,0A0.21,0.21,0,0,0,26.48,6a1.84,1.84,0,0,0-.93-0.61m-3.41-.48a8.46,8.46,0,0,0-1.62.59A4.36,4.36,0,0,0,18.44,7.3a1.35,1.35,0,0,1-.2.5,0.12,0.12,0,0,0,0,.18c-0.32.22,0,.43,0.16,0.66,0,0,0,.14,0,0.18,0.36,0.45,1.05.34,1.33,0.8s-0.47.93-.22,1.26c0.13,0.17.74-.24,0.76,0.28a7.2,7.2,0,0,1-.27,1.54,0.07,0.07,0,0,0,.11.06,1,1,0,0,1,.66-0.17,0.73,0.73,0,0,0,.28-0.28,2.23,2.23,0,0,0,.77-0.13s-0.09-.1-0.06-0.11a2.18,2.18,0,0,0,.56,0,1.72,1.72,0,0,1,.56-0.4c0-.07-0.16-0.1-0.12-0.2A0.63,0.63,0,0,1,23,11.32c0.09-.1-0.19-0.09-0.06-0.19s0.21-.3,0-0.43a1.57,1.57,0,0,0-.5-0.05s-0.07-.15,0-0.15A2.41,2.41,0,0,0,23.13,10c-0.29-.3.12-0.41,0.12-0.45a3.15,3.15,0,0,1,0-.5,0.36,0.36,0,0,1-.14-0.41,0.48,0.48,0,0,1,.18-0.19c-0.26-.26.06-0.34,0.07-0.45a1,1,0,0,1-.16-0.19,2.25,2.25,0,0,1,.36-0.32,1,1,0,0,0-.14-0.18,2.84,2.84,0,0,1,.38-0.65A3.47,3.47,0,0,1,24,6.05a1.14,1.14,0,0,1,.2-0.25A1.52,1.52,0,0,1,24.47,5a4.68,4.68,0,0,0-2.33-.1m5,0.92A1.17,1.17,0,0,0,27,7.07c0.1,0.26-.23.54-0.11,0.82,0.27,0.63,1,.84,1.32,1.44a0.65,0.65,0,0,1-.39.88,0.86,0.86,0,0,0-.82.68,1,1,0,0,1-.31.84,0.24,0.24,0,0,0-.07.29,0.75,0.75,0,0,1-.33,1.14c-0.55.25-1.23,0-1.72,0.39a0.37,0.37,0,0,0,0,.39,8.22,8.22,0,0,0,2.58,1.17c0.1,0.05,0,.57.09,0.74a4.13,4.13,0,0,0,.69.47c0.38,0.29.73,0.7,0.5,0.89a1.42,1.42,0,0,0-.56,1c0,0.09-.28,0-0.29.19s0.07,0.11.11,0.06a1,1,0,0,1,1.55.12c0.19,0.28.48,0,.56-0.12s0-.49.08-0.69a5.28,5.28,0,0,1,1.37-1.2A10.05,10.05,0,0,0,32,15.51a3.24,3.24,0,0,1,.64-1.06,4.23,4.23,0,0,0,.55-0.21c0.53-.54-0.31-1.41.15-2,0.28-.36,1-0.25,1.18-0.62a5.19,5.19,0,0,1-.19-0.81c0.16-.57-0.29-1.13.07-1.59a2.82,2.82,0,0,0,.63-2,2.25,2.25,0,0,0-.24-0.41,2.72,2.72,0,0,1,0-1.28,2,2,0,0,1,.29-1,0.85,0.85,0,0,1,.51-0.38,0.73,0.73,0,0,1,.86.42,8.84,8.84,0,0,1,.22,1.22,4.36,4.36,0,0,0,.44.56,6.31,6.31,0,0,0,.19,1,3.09,3.09,0,0,0,.94.56,1,1,0,0,1,.27.45c0.1,0.28.52,0.28,0.65,0.56,0,0.11,0,.27,0,0.37a2.56,2.56,0,0,1,.72.82,0.92,0.92,0,0,1-.1.69c-0.55.77-1.16,1.39-1.73,2.09a1.81,1.81,0,0,1,1,1.52,3.3,3.3,0,0,1,1.56,1.27A1.75,1.75,0,0,1,40.8,17a0.13,0.13,0,0,1-.1,0c0-.07,0-0.25-0.06-0.22a0.6,0.6,0,0,0-.39.41C40,18,40.38,19,39.71,19.48c-0.28.21-.72-0.17-1.11-0.21a0.25,0.25,0,0,0-.18.24,1.18,1.18,0,0,1-.45.93C37,20.9,36.28,21.57,35.33,22a2.27,2.27,0,0,0-.83.7,35,35,0,0,1-2.23,2.92c-1.13,1.26-3,.84-4.35,0A3.13,3.13,0,0,0,26.36,25c-0.3,2-.39,4.12-0.7,6.23s-0.53,4-1,6.11c-0.33,1.43-.66,2.74-1,4.13A45,45,0,0,0,22.16,47C22,48,22.74,49,23,50s-0.3,1.8-.14,2.74a9.66,9.66,0,0,0,.29,1.44c0.46,1.39,1.32,2.56,1.84,3.93,0.3,0.79.74,1.52,1.11,2.29,0.23,0.49.41,1,.68,1.47a18.19,18.19,0,0,0,1.9,2.85,23.71,23.71,0,0,0,2.06,2.45,0.77,0.77,0,0,0,.69-0.25,0.24,0.24,0,0,1,.23,0c0.56,0.82.49,2.11,1.62,2.31a2.2,2.2,0,0,0,1,.91c0.07,0.06.29,0.06,0.4,0.14a6.28,6.28,0,0,1,.79.81,2.34,2.34,0,0,0,1.18.72,9,9,0,0,1,2.44.15,0.47,0.47,0,0,1,.3.27,11.67,11.67,0,0,1,.41,1.18,0.28,0.28,0,0,1-.25.24,13.58,13.58,0,0,1-2.15.73,14,14,0,0,1-3.43,0c-0.77-.08-1.48-0.72-2.22-0.53a1.08,1.08,0,0,0-.25,1c-1.07.21-2.49,0.46-3.25-.41-0.11-.12-0.11-0.4-0.24-0.53a3,3,0,0,1-.55-2.71c0.31-1.87-1.12-3.35-2.44-4.56-1.74-1.59-3.56-2.83-5-4.71a9.86,9.86,0,0,1-1.21-2,18.4,18.4,0,0,1-1.29-5.91,0.54,0.54,0,0,0-.35-0.33,13.4,13.4,0,0,0-1.87-.35c-0.6-.18-1.26,0-1.85-0.2a0.75,0.75,0,0,1-.26-0.18c-0.13.26,0,.6-0.35,0.67a8.18,8.18,0,0,1-1,0,0.16,0.16,0,0,0-.12.11c0.16,1.78.5,3.49,0.49,5.26,0,1.17-.17,2.32-0.12,3.49s0.07,2.2.15,3.31a2.67,2.67,0,0,0,.61,1.89,1.43,1.43,0,0,0,.63.28c0.4,0.1.7-.28,1.1-0.2a0.18,0.18,0,0,1,.12.13,0.8,0.8,0,0,1-.31.58,2.26,2.26,0,0,0-.29,1.3,2,2,0,0,0,1,.54,5.35,5.35,0,0,1,1,.71s0.22,0.32.25,0.1-0.15-.42.13-0.5a2.67,2.67,0,0,1,2.05,0,5.89,5.89,0,0,1,.71.7s0.13,0,.18,0a0.51,0.51,0,0,1,.22.64,3.35,3.35,0,0,1-1.59,1.36,5.2,5.2,0,0,1-1.82.44c-0.92.17-1.74-.32-2.64-0.2,0.09,0.84-.73,1.16-1.41,1.28a5,5,0,0,1-3-.33c0-1.3-.15-0.77-0.66-1.61S9,71,9.14,70.36a4.61,4.61,0,0,0-.4-2.8c-0.24-.67-0.39-1.37-0.64-2-1-2.66-2-5.31-2.16-8.14-0.07-1.62.15-3.23,0.16-4.84a6.42,6.42,0,0,0-.39-0.61,1.28,1.28,0,0,0-.21-0.81c-0.72-.45-1.86-0.58-2-1.47a6.26,6.26,0,0,1,.55-2.17A0.15,0.15,0,0,0,4,47.36a2.33,2.33,0,0,1-1.41-.26,2.92,2.92,0,0,1-1-1.21,2.89,2.89,0,0,1-.08-0.7c-0.08-.35-0.59-0.53-0.49-0.92a19.26,19.26,0,0,0,.73-3.09c0.14-1.58.31-3.13,0.44-4.71a4.44,4.44,0,0,0,.19-1.26c-0.13-.45-1-0.29-1.19-0.74s0.43-.76.72-1.16c0.62-.81,1.39-1.31,2-2.11a24.67,24.67,0,0,0,2.4-2.93C5.68,28,5,27.87,4.48,27.54a8.1,8.1,0,0,1-1.63-1.09,0.26,0.26,0,0,1-.07-0.23,9.24,9.24,0,0,0,.6-1.35,2.06,2.06,0,0,0-.23-1.28c-0.48-1.38-1.46-2.78-.88-4.23,0.32-.8,1.3-1,2.05-1.29a11.24,11.24,0,0,0,1-.59,5.26,5.26,0,0,1,.94-0.3,1.28,1.28,0,0,0,.45-0.85A6,6,0,0,0,6.44,15c-0.72-2.2-1.32-4.38-2.13-6.53A47.88,47.88,0,0,1,2.56,3.6a0.46,0.46,0,0,1,.53-0.5C3.7,3.44,3.72,4.24,4,4.85c1.49,3.58,2.56,7.21,3.94,10.79a3.38,3.38,0,0,1,2.12-2,1.36,1.36,0,0,1,.73.23l0.75-.07a10.9,10.9,0,0,0,1.93-1.38c0.8-.61,1.78.19,2.66,0.28a0.16,0.16,0,0,0,.12-0.11,1.32,1.32,0,0,0,0-.73c-0.33-.42-0.77.58-1.14,0.3a2.32,2.32,0,0,1-.83-1.77,0.45,0.45,0,0,1,.26-0.05,2,2,0,0,0,1.09.35,1,1,0,0,0,1-.29A3.82,3.82,0,0,1,15.45,10c-0.27-.24.14-0.47,0.26-0.69s-0.07-.16-0.12-0.18c-0.93-.35-2-0.49-2.57-1.42a1.23,1.23,0,0,1,0-1.4,4.92,4.92,0,0,1,2.58-1.92,6.74,6.74,0,0,1-.39-1.11A2.8,2.8,0,0,1,16.55.91,4.73,4.73,0,0,1,20,.55,3.08,3.08,0,0,0,21.34.21c2.43-.57,4.75.1,7.11,0.8a7.32,7.32,0,0,0,2.44,0c0.31,0,.79-0.1.83,0.22a3,3,0,0,1-1,2.67,11.75,11.75,0,0,1-2.6,1.5,2.5,2.5,0,0,0-.9.39" transform="translate(-0.93 0)" style="fill:#1d1d1b"/><path d="M24.62,25.69a0.59,0.59,0,0,0-.12.64,0.44,0.44,0,0,1,.72-0.1A3.51,3.51,0,0,0,25.35,25c0-.2-0.11-0.68-0.37-0.49a3.86,3.86,0,0,0-.36,1.19" transform="translate(-0.93 0)" style="fill:#e30613"/></g></svg>