<svg id="Layer_1" data-name="Layer 1" xmlns="http://www.w3.org/2000/svg" viewBox="0 0 9.02 20"><defs><style>.cls-1{fill:#231f20;}</style></defs><title>bystander-1</title><path class="cls-1" d="M5.49,19.36a3,3,0,0,1,.1-.31A.11.11,0,0,1,5.66,19c.18-.08.37,0,.55,0a.52.52,0,0,0,.27-.18,1.51,1.51,0,0,1,.18-.21s.08,0,.09,0,.2-.1.24-.23c.26,0,.25-.38.38-.6,0,0,0,0,.05,0s.11.11.15.07a6,6,0,0,0,.48-.63,4.91,4.91,0,0,0,.45-.74c.07-.12.11-.26.16-.38s.19-.39.27-.6c.13-.36.33-.66.44-1A3.1,3.1,0,0,0,9.47,14c0-.25-.07-.5,0-.73a2.35,2.35,0,0,0,.21-.8A13.73,13.73,0,0,0,9.39,11c-.08-.38-.14-.72-.2-1.11C9.1,9.37,9.07,8.85,9,8.29S9,7.17,8.9,6.63a.63.63,0,0,0-.36.15c-.31.21-.73.31-1,0s-.32-.51-.48-.8a.55.55,0,0,0-.18-.19c-.21-.13-.37-.32-.58-.45S6.25,5.14,6.24,5s0-.07,0-.06S6,5.09,5.95,5s-.06-.4-.1-.62a.15.15,0,0,0-.09-.11s0,0,0,.06h0a.54.54,0,0,1,0-.35.77.77,0,0,1,.36-.32.48.48,0,0,1,.25-.4c-.12-.19-.26-.36-.37-.57a.29.29,0,0,1,0-.18c0-.11.12-.13.17-.21s0-.07,0-.1.13-.07.15-.14A.26.26,0,0,1,6.37,2c.07-.06.16,0,.22-.14s0-.19.05-.27.09-.09.1-.14a2.73,2.73,0,0,1,.06-.32A.16.16,0,0,1,7,1a.2.2,0,0,1,.11.1.64.64,0,0,1,.06.27.87.87,0,0,1,0,.34s-.05.08-.06.11a.85.85,0,0,0,.13.54c.08.13,0,.27,0,.42s-.06.17,0,.21.2.08.26.17-.1.38,0,.53.08,0,.12.06.08.19.13.29a2.69,2.69,0,0,0,.17.29c.09.12.24.17.3.33s0,.13,0,.18.08.11.12,0a.19.19,0,0,1,.32,0s0,0,0,0,0,0,0-.06a.4.4,0,0,0-.13-.26c-.05-.05,0-.16.12-.23s.13-.07.16-.12,0-.18,0-.19.41-.1.59-.29a.11.11,0,0,0,0-.1c-.11-.11-.26,0-.38-.12A.22.22,0,0,1,9,3.16s0-.06,0-.08a.31.31,0,0,1-.06-.23.21.21,0,0,0-.18-.19c-.08,0-.12-.16-.08-.24s.24-.21.31-.37,0-.15,0-.22a.36.36,0,0,0,0-.33c-.05-.07-.13-.08-.2-.11A2.61,2.61,0,0,1,8.1,1,.88.88,0,0,1,7.89.26c0-.08.12-.06.19-.05a1.38,1.38,0,0,0,.55,0,2.62,2.62,0,0,1,1.6-.15c.1,0,.2.13.3.1a.92.92,0,0,1,.77.13.79.79,0,0,1,.29.64c0,.11-.08.19-.1.29a1.16,1.16,0,0,1,.56.53.38.38,0,0,1,0,.37c-.14.24-.38.27-.59.35,0,0,0,0,0,0s.12.12.05.19-.17.05-.26.09.15.08.22.08a.4.4,0,0,0,.25-.08s0,0,.06,0a.66.66,0,0,1-.2.46c-.09.07-.18-.2-.26-.09s0,.12,0,.2,0,0,0,0c.2,0,.42-.22.6,0a2.57,2.57,0,0,0,.42.39l.17,0c.06,0,.11-.08.17-.05a.85.85,0,0,1,.46.56c.34-.94.61-1.9,1-2.83.06-.16.07-.37.21-.46s.13.07.11.14c-.11.44-.28.84-.43,1.27s-.35,1.14-.53,1.72a1.88,1.88,0,0,0-.07.36.37.37,0,0,0,.1.23,1,1,0,0,1,.21.09,2.65,2.65,0,0,0,.21.17c.17.09.39.15.45.36.12.39-.11.75-.23,1.12a.63.63,0,0,0-.06.34,2.71,2.71,0,0,0,.12.36.07.07,0,0,1,0,.06,1.81,1.81,0,0,1-.37.28c-.13.08-.27.1-.4.18a6.51,6.51,0,0,0,.52.8c.13.22.3.36.44.58s.2.2.15.31-.24.07-.27.19a1.42,1.42,0,0,0,0,.34c0,.42,0,.84.06,1.26a5.91,5.91,0,0,0,.14.83c0,.11-.1.15-.12.24a1,1,0,0,1,0,.19.73.73,0,0,1-.24.31.45.45,0,0,1-.32.06s0,0,0,0a1.93,1.93,0,0,1,.11.58c0,.23-.29.26-.46.37s0,.15-.05.21-.09.12-.09.16c0,.43,0,.86,0,1.29a8.48,8.48,0,0,1-.55,2.14c-.06.18-.1.36-.16.54a1.42,1.42,0,0,0-.11.74c0,.16.24.42.11.65s-.14.08-.16.42a1,1,0,0,1-.67.06c-.15,0-.33-.13-.31-.35-.2,0-.39.08-.6,0a1,1,0,0,1-.41-.13.82.82,0,0,1-.35-.38A.15.15,0,0,1,10.1,19h0c.06-.06.1-.14.17-.18a.51.51,0,0,1,.46,0c.06,0,0,.09,0,.13s0,0,.06,0a1.18,1.18,0,0,1,.24-.18c.14-.07.18-.07.22-.13a.7.7,0,0,0-.06-.35c0-.05-.08-.08-.07-.16a0,0,0,0,1,0,0c.09,0,.16.09.25.06a.3.3,0,0,0,.14-.07.79.79,0,0,0,.15-.5c0-.29,0-.58.06-.88s0-.62,0-.93c0-.47.1-.92.15-1.39a0,0,0,0,0,0,0,1.56,1.56,0,0,1-.23,0c-.08,0,0-.11-.07-.18l-.06,0c-.14.06-.28,0-.42,0s-.29,0-.42.08-.08,0-.08.08a5.64,5.64,0,0,1-.34,1.56,2.79,2.79,0,0,1-.29.53,9.35,9.35,0,0,1-1.16,1.2,1.51,1.51,0,0,0-.58,1.19.92.92,0,0,1-.15.72s0,.11-.06.14c-.18.22-.49.15-.73.08,0-.1,0-.25,0-.27s-.33.11-.5.12a2.65,2.65,0,0,1-.77,0,2.75,2.75,0,0,1-.48-.21s-.06,0-.05-.06ZM11.72,3.9v0s0,0,0,0Z" transform="translate(-5.49 0)"/></svg>