<svg id="Layer_1" data-name="Layer 1" xmlns="http://www.w3.org/2000/svg" viewBox="0 0 20 2.781"><title>Bystander-Logo</title><path fill="#231f20" d="M1.246,1.228c.279-.053.477-.181.477-.483,0-.375-.4-.6-.845-.6H0V.166C.256.189.326.212.326.508V2.014c0,.306-.059.329-.319.352v.026H1.055c.5,0,.766-.253.766-.6A.607.607,0,0,0,1.246,1.228ZM.621.255A1.171,1.171,0,0,1,.828.239.514.514,0,0,1,1.41.732a.447.447,0,0,1-.5.454,1.959,1.959,0,0,1-.289-.023ZM.93,2.293a1.565,1.565,0,0,1-.312-.036V1.294a1.261,1.261,0,0,1,.214-.016c.381,0,.667.171.667.506A.506.506,0,0,1,.93,2.293Z" transform="translate(0 -0.104)"/><path fill="#231f20" d="M3.544.758c.164.016.2.03.2.112a.376.376,0,0,1-.092.187L3.3,1.573l-.345-.523A.37.37,0,0,1,2.873.87c0-.076.043-.1.194-.112V.732H2.3V.758a.36.36,0,0,1,.3.214l.477.727v.437c0,.184-.039.2-.243.23v.026h.763V2.366c-.2-.023-.24-.046-.24-.23v-.47L3.846.949A.341.341,0,0,1,4.119.758V.732H3.544Z" transform="translate(0 -0.104)"/><path fill="#231f20" d="M5.208,1.412c-.355-.168-.434-.233-.434-.408,0-.154.122-.233.276-.233a.531.531,0,0,1,.523.47H5.6V.686H5.573c0,.059-.046.082-.118.082a.445.445,0,0,1-.125-.03A.87.87,0,0,0,5.066.686a.457.457,0,0,0-.5.427c0,.309.148.385.447.526.345.161.447.237.447.45,0,.187-.128.26-.309.26a.559.559,0,0,1-.559-.483H4.57v.569h.023c0-.079.039-.112.122-.112a.343.343,0,0,1,.138.039.765.765,0,0,0,.289.072c.306,0,.559-.171.559-.457C5.7,1.652,5.517,1.56,5.208,1.412Z" transform="translate(0 -0.104)"/><path fill="#231f20" d="M6.194.732a1.632,1.632,0,0,0-.03.394h.03c.046-.21.112-.3.335-.3h.283V2.1c0,.22-.062.243-.24.263v.026h.759V2.366c-.177-.02-.24-.046-.24-.263V.827h.283c.224,0,.3.085.335.3h.03a1.632,1.632,0,0,0-.03-.394Z" transform="translate(0 -0.104)"/><path fill="#231f20" d="M9.535,2.182,8.861.649,8.227,2.178a.3.3,0,0,1-.266.187v.026h.575V2.366c-.1-.013-.187-.066-.187-.141a.4.4,0,0,1,.039-.158l.076-.194h.644l.086.194a.375.375,0,0,1,.036.158c0,.072-.062.135-.187.141v.026H9.8V2.366A.284.284,0,0,1,9.535,2.182ZM8.5,1.777l.27-.684.3.684Z" transform="translate(0 -0.104)"/><path fill="#231f20" d="M11.508.758c.207.02.276.03.276.266v.907L10.647.732H10.16V.758c.141.013.174.023.368.233V2.1c0,.207-.049.237-.263.263v.026h.648V2.366c-.217-.03-.273-.053-.273-.263V1.11L11.9,2.435V1.028c0-.233.046-.256.22-.27V.732h-.608Z" transform="translate(0 -0.104)"/><path fill="#231f20" d="M13.42.732h-.786V.758c.178.016.253.043.253.25V2.1c0,.22-.069.247-.253.263v.026h.858c.549,0,.97-.217.97-.782A.985.985,0,0,0,13.42.732ZM13.387,2.3a.808.808,0,0,1-.22-.026V.843A.83.83,0,0,1,13.394.82a.776.776,0,0,1,.75.773C14.143,2.093,13.844,2.3,13.387,2.3Z" transform="translate(0 -0.104)"/><path fill="#231f20" d="M15.9,2.3l-.3,0c-.122,0-.168-.039-.168-.105V1.554l.345,0c.227,0,.286.079.3.247H16.1V1.235h-.026c-.01.171-.072.227-.3.23l-.345,0V.817l.4,0c.237,0,.325.039.4.286h.026l-.02-.375H14.909V.758c.178.02.253.046.253.263V2.1c0,.214-.072.243-.253.263v.026h1.378a1.7,1.7,0,0,0,.141-.444H16.4A.472.472,0,0,1,15.9,2.3Z" transform="translate(0 -0.104)"/><path fill="#231f20" d="M18.288,2.139l-.447-.549c.27-.046.411-.174.411-.4S17.96.732,17.585.732h-.71V.758c.191.026.253.039.253.25v1.1c0,.217-.053.237-.253.26v.026h.769V2.366c-.181-.023-.243-.043-.243-.26V1.613h.145l.621.779H18.6V2.366C18.476,2.349,18.433,2.316,18.288,2.139ZM17.4,1.514V.827a.443.443,0,0,1,.569.352c0,.243-.161.355-.4.355A.534.534,0,0,1,17.4,1.514Z" transform="translate(0 -0.104)"/><path fill="#231f20" d="M19.965,1.481a.2.2,0,0,1,0-.047c0-.017.031-.009.038-.026s-.012-.029-.021-.044c-.018-.031-.042-.05-.061-.081a.9.9,0,0,1-.072-.112c.018-.011.038-.013.056-.025a.252.252,0,0,0,.052-.038l0-.008a.371.371,0,0,1-.017-.051A.087.087,0,0,1,19.947,1c.017-.051.049-.1.032-.155-.009-.03-.04-.037-.063-.05a.365.365,0,0,1-.03-.023.143.143,0,0,0-.029-.012.051.051,0,0,1-.013-.032.257.257,0,0,1,.009-.05c.025-.08.046-.16.074-.239.021-.059.044-.115.06-.176,0-.01-.009-.023-.016-.019s-.021.041-.03.064c-.05.13-.088.263-.135.394a.117.117,0,0,0-.064-.078c-.008,0-.015,0-.023.007l-.023,0a.357.357,0,0,1-.059-.054c-.024-.024-.056,0-.083.007l0,0c0-.01,0-.021,0-.027s.023.022.035.013A.092.092,0,0,0,19.614.5l-.008,0a.055.055,0,0,1-.034.012c-.009,0-.025,0-.03-.012.012-.006.026,0,.036-.013s0-.017-.007-.026l0-.006c.029-.012.062-.016.082-.049a.053.053,0,0,0,0-.052A.161.161,0,0,0,19.58.277c0-.015.013-.026.013-.041a.109.109,0,0,0-.04-.089.128.128,0,0,0-.107-.018c-.015,0-.028-.009-.042-.014a.364.364,0,0,0-.223.02.193.193,0,0,1-.076,0c-.01,0-.025,0-.026.007a.123.123,0,0,0,.03.1.363.363,0,0,0,.08.059c.009,0,.02.007.028.016a.05.05,0,0,1,.005.045c0,.01.007.02,0,.03s-.033.03-.043.051,0,.03.011.033A.029.029,0,0,1,19.217.5a.043.043,0,0,0,.009.032l0,.011a.03.03,0,0,0,.009.042c.017.01.038,0,.053.017V.618c-.025.026-.06.029-.082.04,0,0,0,.021,0,.027s-.013.009-.022.016-.024.025-.017.032a.055.055,0,0,1,.018.037l0,.008h0a.026.026,0,0,0-.044,0c-.006.01-.015,0-.017-.005s0-.018,0-.026-.028-.029-.041-.046a.38.38,0,0,1-.024-.041c-.008-.013-.007-.03-.019-.04s-.013,0-.017-.009C19,.6,19.03.567,19.016.544S18.985.534,18.98.52s.009-.018.007-.03.01-.041,0-.059a.118.118,0,0,1-.018-.075s.006-.01.008-.015a.121.121,0,0,0,0-.047.088.088,0,0,0-.008-.038.028.028,0,0,0-.015-.015.022.022,0,0,0-.027.014A.374.374,0,0,0,18.92.3c0,.008-.011.012-.014.02s0,.026-.007.038-.02.011-.03.02a.035.035,0,0,0-.009.016c0,.01-.017.01-.021.02V.427c-.006.012-.021.013-.023.029a.039.039,0,0,0,0,.026c.016.029.035.053.052.079a.067.067,0,0,0-.034.055.107.107,0,0,0-.05.045.075.075,0,0,0-.006.048h0l0-.008a.021.021,0,0,1,.012.016c.006.03-.006.066.014.086S18.832.8,18.844.8l.005.009c0,.013,0,.029.013.035.029.018.052.044.081.063a.078.078,0,0,1,.025.027c.023.04.041.075.066.111s.093.035.136.005a.088.088,0,0,1,.049-.021c.007.075.008.153.015.231s.012.15.025.227c.009.053.017.1.028.154a1.908,1.908,0,0,1,.039.2.327.327,0,0,1-.03.111c-.008.032.008.067,0,.1a.433.433,0,0,1-.011.053c-.016.051-.044.093-.062.143-.01.029-.025.055-.037.083s-.014.036-.023.053a.676.676,0,0,1-.062.1.829.829,0,0,1-.067.088c-.006.006-.014-.005-.021-.01h-.007c-.018.03-.018.078-.053.083,0,.019-.021.021-.033.032l-.013,0a.209.209,0,0,0-.026.029.072.072,0,0,1-.038.025c-.026,0-.051-.009-.077,0a.016.016,0,0,0-.01.009.426.426,0,0,0-.014.043s0,.008.008.009a.386.386,0,0,0,.066.03.37.37,0,0,0,.107,0c.024,0,.047-.025.07-.017s.007.024.007.038c.033.009.077.02.1-.011,0,0,0-.015.008-.019a.128.128,0,0,0,.02-.1.21.21,0,0,1,.081-.165,1.293,1.293,0,0,0,.162-.167.385.385,0,0,0,.04-.074.784.784,0,0,0,.047-.217c0-.005.006-.009.011-.012s.039,0,.059-.011.039,0,.058,0l.008-.006c0,.01,0,.022.01.025a.208.208,0,0,0,.032,0l0,0c-.007.066-.019.128-.021.194,0,.043,0,.086,0,.129s0,.081-.008.122a.11.11,0,0,1-.021.069.042.042,0,0,1-.02.01c-.013,0-.022-.011-.034-.009l0,0c0,.01.006.014.009.022a.1.1,0,0,1,.008.048c-.006.009-.011.009-.031.019a.164.164,0,0,0-.033.025s-.007.011-.008,0,.005-.016,0-.018a.072.072,0,0,0-.064,0c-.009.006-.015.017-.023.025h-.006a.02.02,0,0,0-.008.023.114.114,0,0,0,.048.052.145.145,0,0,0,.057.019c.028.008.055-.01.083,0,0,.031.022.044.043.049a.133.133,0,0,0,.093-.008c0-.048.005-.028.022-.058s-.011-.068-.015-.09a.2.2,0,0,1,.016-.1c.008-.024.014-.05.022-.075a1.18,1.18,0,0,0,.076-.3c0-.06,0-.12,0-.179,0-.005.01-.014.013-.022s0-.024.007-.03.059-.019.064-.052a.266.266,0,0,0-.015-.081l0,0a.063.063,0,0,0,.044-.008.1.1,0,0,0,.034-.043.136.136,0,0,0,0-.026c0-.013.019-.019.016-.033a.819.819,0,0,1-.019-.115C19.971,1.6,19.968,1.539,19.965,1.481Z" transform="translate(0 -0.104)"/></svg>