<svg id="Layer_1" data-name="Layer 1" xmlns="http://www.w3.org/2000/svg" viewBox="0 0 20 2.781"><defs><style>.cls-1{fill:#231f20}</style></defs><title>Bystander-Logo</title><path class="cls-1" d="M1.246 1.228c.279-.053.477-.181.477-.483 0-.375-.4-.6-.845-.6H0v.021c.256.023.326.046.326.342v1.506c0 .306-.059.329-.319.352v.026h1.048c.5 0 .766-.253.766-.6a.607.607 0 0 0-.575-.564zM.621.255A1.171 1.171 0 0 1 .828.239a.514.514 0 0 1 .582.493.447.447 0 0 1-.5.454 1.959 1.959 0 0 1-.289-.023zM.93 2.293a1.565 1.565 0 0 1-.312-.036v-.963a1.261 1.261 0 0 1 .214-.016c.381 0 .667.171.667.506a.506.506 0 0 1-.569.509zM3.544.758c.164.016.2.03.2.112a.376.376 0 0 1-.092.187l-.352.516-.345-.523a.37.37 0 0 1-.082-.18c0-.076.043-.1.194-.112V.732H2.3v.026a.36.36 0 0 1 .3.214l.477.727v.437c0 .184-.039.2-.243.23v.026h.763v-.026c-.2-.023-.24-.046-.24-.23v-.47l.489-.717a.341.341 0 0 1 .273-.191V.732h-.575zm1.664.654c-.355-.168-.434-.233-.434-.408 0-.154.122-.233.276-.233a.531.531 0 0 1 .523.47H5.6V.686h-.027c0 .059-.046.082-.118.082a.445.445 0 0 1-.125-.03.87.87 0 0 0-.264-.052.457.457 0 0 0-.5.427c0 .309.148.385.447.526.345.161.447.237.447.45 0 .187-.128.26-.309.26a.559.559 0 0 1-.559-.483H4.57v.569h.023c0-.079.039-.112.122-.112a.343.343 0 0 1 .138.039.765.765 0 0 0 .289.072c.306 0 .559-.171.559-.457-.001-.325-.184-.417-.493-.565zm.986-.68a1.632 1.632 0 0 0-.03.394h.03c.046-.21.112-.3.335-.3h.283V2.1c0 .22-.062.243-.24.263v.026h.759v-.023c-.177-.02-.24-.046-.24-.263V.827h.283c.224 0 .3.085.335.3h.03a1.632 1.632 0 0 0-.03-.394zm3.341 1.45L8.861.649l-.634 1.529a.3.3 0 0 1-.266.187v.026h.575v-.025c-.1-.013-.187-.066-.187-.141a.4.4 0 0 1 .039-.158l.076-.194h.644l.086.194a.375.375 0 0 1 .036.158c0 .072-.062.135-.187.141v.026H9.8v-.026a.284.284 0 0 1-.265-.184zM8.5 1.777l.27-.684.3.684zM11.508.758c.207.02.276.03.276.266v.907L10.647.732h-.487v.026c.141.013.174.023.368.233V2.1c0 .207-.049.237-.263.263v.026h.648v-.023c-.217-.03-.273-.053-.273-.263V1.11l1.26 1.325V1.028c0-.233.046-.256.22-.27V.732h-.608zM13.42.732h-.786v.026c.178.016.253.043.253.25V2.1c0 .22-.069.247-.253.263v.026h.858c.549 0 .97-.217.97-.782A.985.985 0 0 0 13.42.732zM13.387 2.3a.808.808 0 0 1-.22-.026V.843a.83.83 0 0 1 .227-.023.776.776 0 0 1 .75.773c-.001.5-.3.707-.757.707zm2.513 0h-.3c-.122 0-.168-.039-.168-.105v-.641h.345c.227 0 .286.079.3.247h.023v-.566h-.026c-.01.171-.072.227-.3.23h-.345V.817h.4c.237 0 .325.039.4.286h.026l-.02-.375h-1.326v.03c.178.02.253.046.253.263V2.1c0 .214-.072.243-.253.263v.026h1.378a1.7 1.7 0 0 0 .141-.444H16.4a.472.472 0 0 1-.5.355zm2.388-.161l-.447-.549c.27-.046.411-.174.411-.4s-.292-.458-.667-.458h-.71v.026c.191.026.253.039.253.25v1.1c0 .217-.053.237-.253.26v.026h.769v-.028c-.181-.023-.243-.043-.243-.26v-.493h.145l.621.779h.433v-.026c-.124-.017-.167-.05-.312-.227zm-.888-.625V.827a.443.443 0 0 1 .569.352c0 .243-.161.355-.4.355a.534.534 0 0 1-.169-.02zm2.565-.033a.2.2 0 0 1 0-.047c0-.017.031-.009.038-.026s-.012-.029-.021-.044c-.018-.031-.042-.05-.061-.081a.9.9 0 0 1-.072-.112c.018-.011.038-.013.056-.025a.252.252 0 0 0 .052-.038V1.1a.371.371 0 0 1-.017-.051.087.087 0 0 1 .007-.049c.017-.051.049-.1.032-.155-.009-.03-.04-.037-.063-.05a.365.365 0 0 1-.03-.023.143.143 0 0 0-.029-.012.051.051 0 0 1-.013-.032.257.257 0 0 1 .009-.05c.025-.08.046-.16.074-.239.021-.059.044-.115.06-.176 0-.01-.009-.023-.016-.019s-.021.041-.03.064c-.05.13-.088.263-.135.394a.117.117 0 0 0-.064-.078c-.008 0-.015 0-.023.007h-.023a.357.357 0 0 1-.059-.054c-.024-.024-.056 0-.083.007V.557c0-.006.023.022.035.013a.092.092 0 0 0 .025-.07h-.008a.055.055 0 0 1-.034.012c-.009 0-.025 0-.03-.012.012-.006.026 0 .036-.013s0-.017-.007-.026V.455c.029-.012.062-.016.082-.049a.053.053 0 0 0 0-.052.161.161 0 0 0-.073-.077c0-.015.013-.026.013-.041a.109.109 0 0 0-.04-.089.128.128 0 0 0-.107-.018c-.015 0-.028-.009-.042-.014a.364.364 0 0 0-.223.02.193.193 0 0 1-.076 0c-.01 0-.025 0-.026.007a.123.123 0 0 0 .03.1.363.363 0 0 0 .08.059c.009 0 .02.007.028.016a.05.05 0 0 1 .005.045c0 .01.007.02 0 .03s-.033.03-.043.051 0 .03.011.033a.029.029 0 0 1 .027.024.043.043 0 0 0 .009.032v.011a.03.03 0 0 0 .009.042c.017.01.038 0 .053.017v.016c-.025.026-.06.029-.082.04v.027c0 .006-.013.009-.022.016s-.024.025-.017.032a.055.055 0 0 1 .018.037v.008a.026.026 0 0 0-.044 0c-.006.01-.015 0-.017-.005s0-.018 0-.026-.028-.029-.041-.046a.38.38 0 0 1-.024-.041c-.008-.013-.007-.03-.019-.04s-.013 0-.017-.009C19 .6 19.03.567 19.016.544s-.031-.01-.036-.024.009-.018.007-.03.01-.041 0-.059a.118.118 0 0 1-.018-.075l.008-.015a.121.121 0 0 0 0-.047.088.088 0 0 0-.008-.038.028.028 0 0 0-.015-.015.022.022 0 0 0-.027.014.374.374 0 0 0-.007.045c0 .008-.011.012-.014.02s0 .026-.007.038-.02.011-.03.02a.035.035 0 0 0-.009.016c0 .01-.017.01-.021.02v.013c-.006.012-.021.013-.023.029a.039.039 0 0 0 0 .026c.016.029.035.053.052.079a.067.067 0 0 0-.034.055.107.107 0 0 0-.05.045.075.075 0 0 0-.006.048V.701a.021.021 0 0 1 .012.016c.006.03-.006.066.014.086s.028-.003.04-.003l.005.009c0 .013 0 .029.013.035.029.018.052.044.081.063a.078.078 0 0 1 .025.027c.023.04.041.075.066.111s.093.035.136.005a.088.088 0 0 1 .049-.021c.007.075.008.153.015.231s.012.15.025.227c.009.053.017.1.028.154a1.908 1.908 0 0 1 .039.2.327.327 0 0 1-.03.111c-.008.032.008.067 0 .1a.433.433 0 0 1-.011.053c-.016.051-.044.093-.062.143-.01.029-.025.055-.037.083s-.014.036-.023.053a.676.676 0 0 1-.062.1.829.829 0 0 1-.067.088c-.006.006-.014-.005-.021-.01h-.007c-.018.03-.018.078-.053.083 0 .019-.021.021-.033.032h-.013a.209.209 0 0 0-.026.029.072.072 0 0 1-.038.025c-.026 0-.051-.009-.077 0a.016.016 0 0 0-.01.009.426.426 0 0 0-.014.043s0 .008.008.009a.386.386 0 0 0 .066.03.37.37 0 0 0 .107 0c.024 0 .047-.025.07-.017s.007.024.007.038c.033.009.077.02.1-.011 0 0 0-.015.008-.019a.128.128 0 0 0 .02-.1.21.21 0 0 1 .081-.165 1.293 1.293 0 0 0 .162-.167.385.385 0 0 0 .04-.074.784.784 0 0 0 .047-.217c0-.005.006-.009.011-.012s.039 0 .059-.011.039 0 .058 0l.008-.006c0 .01 0 .022.01.025a.208.208 0 0 0 .032 0c-.007.066-.019.128-.021.194v.129c0 .043 0 .081-.008.122a.11.11 0 0 1-.021.069.042.042 0 0 1-.02.01c-.013 0-.022-.011-.034-.009 0 .01.006.014.009.022a.1.1 0 0 1 .008.048c-.006.009-.011.009-.031.019a.164.164 0 0 0-.033.025s-.007.011-.008 0 .005-.016 0-.018a.072.072 0 0 0-.064 0c-.009.006-.015.017-.023.025h-.006a.02.02 0 0 0-.008.023.114.114 0 0 0 .048.052.145.145 0 0 0 .057.019c.028.008.055-.01.083 0 0 .031.022.044.043.049a.133.133 0 0 0 .093-.008c0-.048.005-.028.022-.058s-.011-.068-.015-.09a.2.2 0 0 1 .016-.1l.022-.075a1.18 1.18 0 0 0 .076-.3v-.179c0-.005.01-.014.013-.022s0-.024.007-.03.059-.019.064-.052a.266.266 0 0 0-.015-.081.063.063 0 0 0 .044-.008.1.1 0 0 0 .034-.043.136.136 0 0 0 0-.026c0-.013.019-.019.016-.033a.819.819 0 0 1-.019-.115.994.994 0 0 0 0-.164z" transform="translate(0 -.104)"/></svg>