<svg xmlns="http://www.w3.org/2000/svg" width="140" height="60" viewBox="0 0 140 30"><path fill="#FFF" d="M59.202 26.18h1.463c.366 0 .65.097.823.28a.72.72 0 0 1 .22.534v.01c0 .356-.192.553-.412.68.36.14.585.35.585.773v.01c0 .576-.462.864-1.175.864h-1.5v-3.15zm1.82.928c0-.2-.166-.32-.458-.32h-.687v.668h.642c.302 0 .5-.1.5-.34v-.008zm-.338.925h-.806v.69h.824c.31 0 .493-.105.493-.344v-.01c0-.21-.155-.34-.51-.34zm2.25-1.853h1.436c.403 0 .714.115.925.32.174.175.265.426.265.718v.01c0 .513-.273.832-.672.98l.77 1.124h-.81l-.678-1.006h-.54v1.006h-.695V26.18zm1.394 1.532c.334 0 .53-.183.53-.448v-.01c0-.297-.205-.447-.544-.447h-.686v.905h.7zm2.365-1.532h.695v3.15h-.695v-3.15zm2.86.636h-.957v-.636h2.606v.637h-.96v2.515h-.69v-2.516zm3.387-.66h.64l1.35 3.175h-.727l-.284-.7h-1.34l-.288.704h-.71l1.354-3.173zm.733 1.858l-.42-1.024-.422 1.024h.846zm2.25-1.834h.695v3.15h-.695v-3.15zm2.057 0h.642l1.48 1.94v-1.94h.683v3.15h-.59l-1.528-2.002v2.003h-.687v-3.15zM68.156 4.156l.056.096 4.29-1.004-.34-.93.193-1.647-4.2 3.49zM9.926 19.553c-.69.73-1.775 1.162-2.84 1.198-3.31-.015-4.11-2.92-4.11-6.39 0-3.46.75-6.383 4.05-6.383 1.015 0 1.967.412 2.68 1.16l1.83 2.904h.17V7.75h-.17l-1.686.88c-.43-.374-1.514-1.07-2.826-1.07C3.814 7.56 0 10.036 0 14.36c0 4.332 3.74 6.802 7.084 6.802 1.308 0 2.502-.713 2.99-1.125l1.666.938h.17V16.5h-.166l-1.82 3.053zm12.31 1.18c-3.164 0-3.93-2.717-3.93-6.37 0-3.654.766-6.37 3.93-6.37 3.156 0 3.925 2.715 3.925 6.37 0 3.654-.764 6.37-3.92 6.37m0-13.172c-3.146 0-6.865 2.666-6.865 6.807 0 4.137 3.72 6.798 6.865 6.798 3.137 0 6.854-2.66 6.854-6.798 0-4.142-3.718-6.8-6.855-6.8m18.703.24v.34h1.573v8.195L36.7 7.807h-5.27v.338h1.555v12.438H31.43v.34h3.72v-.34h-1.574V8.163l9.37 13h.162V8.142h1.56v-.337h-3.725zm12.36 12.777h-1.437V8.144h1.436c3.402 0 4.977 2.51 4.977 6.22s-1.578 6.22-4.98 6.22m.11-12.78H47.52v.34h1.68v12.44h-1.68v.332h5.888c2.827 0 7.768-1.254 7.768-6.63 0-5.38-4.94-6.483-7.766-6.483m19.38 12.78h-4.96v-6.54h2.49c.822.655 1.72 2.55 1.72 2.55h.17v-5.435h-.17s-.898 1.89-1.72 2.547h-2.49V8.14h4.434c1.29.843 2.36 3.185 2.36 3.185h.164V7.803H63.495v.338h1.68v12.44h-1.68v.34h11.668v-4.4H75s-1.07 2.81-2.21 4.06m31.138-9.645l2.026 4.554h-3.934l1.908-4.554zm1.03-3.577l-5.608 13.22h-1.528v.34h3.53v-.34l-1.485.01 2-4.76 4.238-.007 2.173 4.758h-1.702v.34h6.147v-.34h-1.568L105.13 7.353h-.173zm22.886.448v4.063H128s1.174-2.473 2.312-3.727h2.282v12.44h-2.053v.335h6.77v-.334h-2.055V8.14h2.277c1.143 1.254 2.323 3.727 2.323 3.727H140V7.803h-12.156zm-34.906.003v.337H94.5v8.193l-5.81-8.53h-5.27v.336h1.55v12.438h-1.55v.34h3.718v-.34h-1.574V8.162l9.367 13h.17V8.144h1.554v-.338H92.94zm28.97 5.413l-2.58-.88c-1.29-.433-2.343-1.068-2.343-2.306 0-1.294 1.125-2.08 2.845-2.08 1.07 0 1.665.244 2.337.9l1.833 2.88h.152V7.58h-.15l-1.702.86c-.448-.372-1.198-.86-2.47-.86-2.488 0-4.135 1.63-4.152 3.916.018 1.855 1.308 2.81 2.79 3.354l2.634.954c1.386.507 2.337 1.108 2.337 2.494 0 1.18-.86 2.47-3.14 2.488-1.03-.036-2.266-.41-2.997-1.125l-1.926-3.213h-.17l.092 4.534h.172l1.684-.92c.54.427 1.83 1.103 3.137 1.103 2.863 0 4.73-2.02 4.73-4.228.02-2.175-1.493-3.167-3.12-3.712"/></svg>