<svg xmlns="http://www.w3.org/2000/svg" viewBox="0 0 614.05 167.94"><title>tatler-logo</title><path d="M606.78 165.16l-30.48-105c9.34-3 18.66-8.66 23.48-16.33 5.7-9.06 6.61-22.58-3.51-31.11-9.42-7.94-25.53-7.61-32.7-7.61h-36.66v2.77H534v157.28h-7v2.78h36.65v-2.78h-7V7.88h6.92c20.89.08 28 26.46 17.72 40.66C572.73 60.37 557 62.88 557 62.88l27.37 102.28H577v2.78h37v-2.78zM472.35 5.08H422.9v2.78h7.01v157.29h-7.01v2.79h54.7v-34.16h-2.79v31.37h-22.23V66.39h12.67v19.73h2.79v-42.2h-2.79V63.6h-12.67V7.86h22.23v31.37h2.79V5.08h-5.25zm-152.49 0v2.78h6.98v157.29h-6.99v2.79h54.7v-34.16h-2.78v31.37h-22.26V7.86h7V5.08h-36.65zm-114.28 0v34.15h2.78V7.97h15.73v157.18h-6.99v2.79h36.65v-2.79h-6.99V7.97h15.74v31.26h2.78V5.08h-59.7zm-84.16 60.25l6.86 41.29h-14.16zm-20.37 99.82H94v2.79h17.17v-2.78h-7.34l9.75-55.74h15.16l9.26 55.73h-7.6v2.79h36.65v-2.79h-6.41L131.18 0h-1.34zM0 5.08v34.15h2.78V7.97h15.74v157.18h-7v2.79h36.65v-2.79h-6.99V7.97h15.74v31.26h2.78V5.08H0z"/></svg>