<svg xmlns="http://www.w3.org/2000/svg" viewBox="0 0 1780.8 257.4"><title>video-logo</title><path fill="#fff" d="M0 7.7v52.1h4.2V12.1h24v239.6H17.5v4.2h55.9v-4.2H62.7V12.1h24v47.7H91V7.7H0zm313.3 0v52.1h4.2V12.1h24v239.6h-10.7v4.2h55.9v-4.2H376V12.1h24v47.7h4.2V7.7h-90.9zm253.2 196.2v47.8h-33.9V12h10.7V7.7h-55.9V12h10.7v239.7h-10.7v4.2h83.3v-52h-4.2zM727.8 59.8V7.7h-83.4V12h10.7v239.7h-10.7v4.2h83.4v-52h-4.3v47.8h-33.8V101.2H709v30h4.2V66.9H709v30h-19.3V12h33.8v47.8h4.3zm-483 191.9L199.9 0h-2L154 251.7h-10.7v4.2h26.2v-4.2h-11.2l14.9-84.9h23.1l14.1 84.9h-11.6v4.2h55.9v-4.2zM185 99.6l10.5 62.9h-21.6z"/><text transform="translate(927.79 18.7)" style="isolation:isolate" font-size="15.035" font-family="Helvetica,Helvetica">®</text><path fill="#fff" d="M924.6 251.7l-46.5-160c14.2-4.6 28.4-13.2 35.8-24.9 8.7-13.8 10.1-34.4-5.3-47.4-14.3-12.1-38.9-11.6-49.8-11.6h-55.9V12h10.8v239.7H803v4.2h55.9v-4.2h-10.6V12h10.5c31.8.1 42.7 40.3 27 62-13 18-37.1 21.8-37.1 21.8l41.7 155.9h-11.2v4.2h56.5v-4.2zm148.1 4.6h-11.3l-49-247.2h19.5l24.3 127c3.4 18.9 7.9 42.3 11 63.5h.7c3.4-21.2 7.2-44.3 11-63.5l24.3-127h18.2zm133.2-1.6V9.1h19.2v245.6zm148.3 0h-34.6V9.1h34.6c39.4 0 71.2 34.6 71.2 122.8s-31.9 122.8-71.2 122.8zM1352.8 28h-14v207.9h14c29.8 0 52.7-30 52.7-103.9s-22.9-104-52.7-104zm152.7 226.7V9.1h71.9V28h-52.7v93.6h43.8v18.9h-43.8v95.4h58.9v18.9h-78.1v-.1zm211.3 2.7c-39 0-64-52-64-125.5s25-125.5 64-125.5c38.7 0 64 52 64 125.5s-25.3 125.5-64 125.5zm0-231.4c-25 0-44.2 44.3-44.2 105.9s19.2 105.5 44.2 105.5c24.7 0 44.2-43.9 44.2-105.5S1741.5 26 1716.8 26z"/></svg>