<svg viewBox="0 0 1780.8 257.4" xmlns="http://www.w3.org/2000/svg"><path d="m0 7.7v52.1h4.2v-47.7h24v239.6h-10.7v4.2h55.9v-4.2h-10.7v-239.6h24v47.7h4.3v-52.1zm313.3 0v52.1h4.2v-47.7h24v239.6h-10.7v4.2h55.9v-4.2h-10.7v-239.6h24v47.7h4.2v-52.1zm253.2 196.2v47.8h-33.9v-239.7h10.7v-4.3h-55.9v4.3h10.7v239.7h-10.7v4.2h83.3v-52zm161.3-144.1v-52.1h-83.4v4.3h10.7v239.7h-10.7v4.2h83.4v-52h-4.3v47.8h-33.8v-150.5h19.3v30h4.2v-64.3h-4.2v30h-19.3v-84.9h33.8v47.8zm-483 191.9-44.9-251.7h-2l-43.9 251.7h-10.7v4.2h26.2v-4.2h-11.2l14.9-84.9h23.1l14.1 84.9h-11.6v4.2h55.9v-4.2zm-59.8-152.1 10.5 62.9h-21.6z" fill="#fff"/><text font-family="Helvetica,Helvetica" font-size="15.035" transform="translate(927.79 18.7)">®</text><path d="m924.6 251.7-46.5-160c14.2-4.6 28.4-13.2 35.8-24.9 8.7-13.8 10.1-34.4-5.3-47.4-14.3-12.1-38.9-11.6-49.8-11.6h-55.9v4.2h10.8v239.7h-10.7v4.2h55.9v-4.2h-10.6v-239.7h10.5c31.8.1 42.7 40.3 27 62-13 18-37.1 21.8-37.1 21.8l41.7 155.9h-11.2v4.2h56.5v-4.2zm148.1 4.6h-11.3l-49-247.2h19.5l24.3 127c3.4 18.9 7.9 42.3 11 63.5h.7c3.4-21.2 7.2-44.3 11-63.5l24.3-127h18.2zm133.2-1.6v-245.6h19.2v245.6zm148.3 0h-34.6v-245.6h34.6c39.4 0 71.2 34.6 71.2 122.8s-31.9 122.8-71.2 122.8zm-1.4-226.7h-14v207.9h14c29.8 0 52.7-30 52.7-103.9s-22.9-104-52.7-104zm152.7 226.7v-245.6h71.9v18.9h-52.7v93.6h43.8v18.9h-43.8v95.4h58.9v18.9h-78.1zm211.3 2.7c-39 0-64-52-64-125.5s25-125.5 64-125.5c38.7 0 64 52 64 125.5s-25.3 125.5-64 125.5zm0-231.4c-25 0-44.2 44.3-44.2 105.9s19.2 105.5 44.2 105.5c24.7 0 44.2-43.9 44.2-105.5s-19.5-105.9-44.2-105.9z" fill="#fff"/></svg>