<?xml version="1.0" standalone="no"?>
<!DOCTYPE svg PUBLIC "-//W3C//DTD SVG 1.1//EN" "http://www.w3.org/Graphics/SVG/1.1/DTD/svg11.dtd" >
<svg>
<metadata>
Created by FontForge 20120731 at Thu May  5 19:40:40 2016
 By ,,,
Copyright (c) Carter &#38; Cone Type, Inc., 2003. All rights reserved.
</metadata>
<defs>
<font id="MillerDisplay-Bold" horiz-adv-x="540" >
  <font-face 
    font-family="MillerDisplay Bold"
    font-weight="700"
    font-stretch="normal"
    units-per-em="1000"
    panose-1="2 0 5 3 9 0 0 2 0 4"
    ascent="764"
    descent="-236"
    x-height="462"
    cap-height="683"
    bbox="-176 -236 1223 946"
    underline-thickness="20"
    underline-position="-113"
    unicode-range="U+000D-FB02"
  />
<missing-glyph horiz-adv-x="500" 
 />
    <glyph glyph-name="fi" unicode="fi" horiz-adv-x="587" 
d="M348 418h-121v-341q0 -23 7 -34q10 -15 47 -22v-21h-268v21q26 2 43 8q26 10 26 44v345h-96v43h96v18q0 126 68 196q70 72 199 72q86 0 127 -30t41 -78q0 -26 -20 -50.5t-53 -24.5q-32 0 -52.5 17t-20.5 48q0 10 2 20t6 23.5t6 23.5q0 9 -18.5 17t-33.5 8q-45 0 -74 -49
t-33 -147v-64h136l148 8l7 -7v-384q0 -33 27 -45q15 -8 43 -12v-21h-267v21q28 1 39 11q13 12 13 41v296q0 33 -24 49z" />
    <glyph glyph-name="fl" unicode="fl" horiz-adv-x="587" 
d="M415 728l93 18l7 -7v-661q0 -33 26 -45q23 -10 43 -12v-21h-263v21q27 1 38 10q12 10 12 42v493q-28 16 -28 48q0 6 0.5 11.5t2 11.5t2.5 9t4.5 8.5t4 7t5 8.5t5.5 8q-19 43 -54 43q-79 0 -87 -196v-64h102v-43h-101v-341q0 -29 14 -41q12 -11 41 -15v-21h-269v21
q26 2 43 8q26 10 26 44v345h-96v43h96v18q0 123 68 194q72 74 179 74q50 0 86 -19z" />
    <glyph glyph-name="f_f_l" unicode="ffl" horiz-adv-x="878" 
d="M448 679q71 68 173 68q50 0 86 -19l93 18l7 -7v-661q0 -33 26 -45q23 -10 43 -12v-21h-263v21q27 1 38 10q12 10 12 42v493q-28 16 -28 48q0 6 0.5 11.5t2 11.5t2.5 9t4.5 8.5t4 7t5 8.5t5.5 8q-21 43 -54 43q-79 0 -87 -196v-64h102v-43h-101v-341q0 -29 14 -41
q12 -11 41 -15v-21h-269v21q26 2 43 8q26 10 26 44v345h-147v-341q0 -31 14 -42q12 -9 41 -14v-21h-269v21q26 2 43 8q26 10 26 44v345h-96v43h96v11q0 127 68 198q68 70 169 70q102 0 129 -61zM384 567q-73 5 -73 60q0 10 2 19.5t6 22t6 23.5q0 9 -6 15.5t-16 6.5
q-37 0 -55 -48t-22 -148v-57h148v18q0 51 10 88z" />
    <glyph glyph-name="f_f_i" unicode="ffi" horiz-adv-x="878" 
d="M447 681q69 66 193 66q86 0 127 -30t41 -78q0 -26 -20 -50.5t-53 -24.5q-32 0 -52.5 17t-20.5 48q0 10 2 20t6 23.5t6 23.5q0 9 -18.5 17t-33.5 8q-45 0 -74 -49t-33 -147v-64h136l148 8l7 -7v-384q0 -33 27 -45q15 -8 43 -12v-21h-267v21q28 1 39 11q13 12 13 41v296
q0 33 -24 49h-121v-341q0 -23 7 -34q10 -15 47 -22v-21h-268v21q26 2 43 8q26 10 26 44v345h-146v-341q0 -31 14 -42q12 -9 41 -14v-21h-269v21q26 2 43 8q26 10 26 44v345h-96v43h96v11q0 127 68 198q68 70 169 70q100 0 128 -59zM383 567q-27 0 -49.5 15.5t-22.5 44.5
q0 10 2 19.5t6 22t6 23.5q0 9 -6 15.5t-16 6.5q-37 0 -55 -48t-22 -148v-57h147v18q0 43 10 88z" />
    <glyph glyph-name="f_j" unicode="fj" horiz-adv-x="572" 
d="M516 46q0 -135 -62 -201q-68 -73 -160 -73q-132 0 -132 97q0 24 19.5 47.5t51.5 23.5q27 0 49 -16t22 -47q0 -28 -13 -76q10 -2 12 -2q40 0 54 50t14 161l1 359q0 33 -24 49h-121v-341q0 -23 7 -34q10 -15 47 -22v-21h-268v21q26 2 43 8q26 10 26 44v345h-96v43h96v18
q0 126 68 196q70 72 199 72q86 0 127 -30t41 -78q0 -26 -20 -50.5t-53 -24.5q-32 0 -52.5 17t-20.5 48q0 10 2 20t6 23.5t6 23.5q0 9 -18.5 17t-33.5 8q-45 0 -74 -49t-33 -147v-64h136l147 8l7 -7v-416z" />
    <glyph glyph-name="f_f" unicode="ff" horiz-adv-x="620" 
d="M448 681q68 66 165 66q74 0 106 -30.5t32 -72.5q0 -25 -20 -47.5t-53 -22.5q-27 0 -50 15.5t-23 44.5q0 10 2 19.5t6 22t6 23.5q0 9 -6 15.5t-16 6.5q-37 0 -55 -48t-22 -148v-64h122v-43h-121v-341q0 -33 27 -44q24 -10 64 -12v-21h-286v21q27 2 38 13q12 11 12 39v345
h-149v-341q0 -31 14 -42q12 -9 41 -14v-21h-269v21q26 2 43 8q26 10 26 44v345h-96v43h96v11q0 127 68 198q68 70 169 70q99 0 129 -59zM385 567h-1q-27 0 -50 15.5t-23 44.5q0 10 2 19.5t6 22t6 23.5q0 9 -6 15.5t-16 6.5q-37 0 -55 -48t-22 -148v-57h150v18q0 47 9 88z
" />
    <glyph glyph-name=".notdef" horiz-adv-x="500" 
 />
    <glyph glyph-name=".notdef" horiz-adv-x="500" 
 />
    <glyph glyph-name=".null" horiz-adv-x="0" 
 />
    <glyph glyph-name="nonmarkingreturn" horiz-adv-x="333" 
 />
    <glyph glyph-name="CR" unicode="&#xd;" horiz-adv-x="0" 
 />
    <glyph glyph-name="space" unicode=" " horiz-adv-x="197" 
 />
    <glyph glyph-name="exclam" unicode="!" horiz-adv-x="330" 
d="M252 605q0 -51 -75 -395h-26q-6 28 -16 75t-15.5 73t-13 63.5t-12 60.5t-8.5 49t-6 43.5t-2 30.5q0 40 24.5 67.5t62.5 27.5t62.5 -27.5t24.5 -67.5zM165 163q37 0 63.5 -25.5t26.5 -62.5t-26.5 -62.5t-63.5 -25.5t-63.5 25.5t-26.5 62.5t26.5 62.5t63.5 25.5z" />
    <glyph glyph-name="quotedbl" unicode="&#x22;" horiz-adv-x="402" 
d="M369 670q0 -13 -9 -42t-24.5 -76.5t-24.5 -79.5h-26q-9 33 -24 79.5t-23.5 75.5t-8.5 43q0 26 19.5 46.5t50.5 20.5t50.5 -20.5t19.5 -46.5zM173 670q0 -13 -9 -42t-24.5 -76.5t-24.5 -79.5h-26q-9 33 -24 79.5t-23.5 75.5t-8.5 43q0 26 19.5 46.5t50.5 20.5t50.5 -20.5
t19.5 -46.5z" />
    <glyph glyph-name="numbersign" unicode="#" horiz-adv-x="528" 
d="M316 513v114h30v-107l109 28v-131l-109 -28v-101l109 28v-131l-109 -28v-164h-30v156l-103 -26v-130h-30v122l-108 -27v131l108 27v101l-108 -27v131l108 28v148h30v-141zM316 381l-103 -26v-101l103 26v101z" />
    <glyph glyph-name="dollar" unicode="$" horiz-adv-x="605" 
d="M345 -5q-30 -2 -49 -2h-17v-135h-30v137q-95 7 -147 45.5t-52 98.5q0 48 21 74.5t57 26.5q31 0 47.5 -18t16.5 -49q0 -24 -13 -36.5t-30 -20t-22 -16.5q0 -30 32.5 -51.5t89.5 -28.5v229q-186 20 -186 184q0 75 48 121.5t138 59.5v99h30v-95q28 2 45 2q14 0 21 -1v94h30
v-95q83 -9 123 -44.5t40 -82.5q0 -38 -17 -64.5t-50 -26.5q-27 0 -45.5 15t-18.5 43t25.5 52.5t28.5 35.5q-9 36 -86 47v-212q90 -16 136 -57t46 -136q0 -65 -42.5 -118.5t-139.5 -70.5v-141h-30v137zM345 595q-7 1 -21 1q-28 0 -45 -5v-199q8 0 20 -1.5t26 -3t20 -2.5v210z
M249 583q-65 -25 -65 -94q0 -75 65 -93v187zM375 235v-205q64 26 64 109q0 77 -64 96zM345 21v219l-66 6v-229h17q30 0 49 4z" />
    <glyph glyph-name="percent" unicode="%" horiz-adv-x="883" 
d="M398 459q0 -66 -50.5 -111.5t-125.5 -45.5q-78 0 -125 41t-47 115q0 69 50.5 115.5t121.5 46.5q79 0 127.5 -41t48.5 -120zM672 672l-429 -773l-34 18l427 773zM833 143q0 -66 -50.5 -111.5t-125.5 -45.5q-78 0 -125 41t-47 115q0 69 50.5 115.5t121.5 46.5
q79 0 127.5 -41t48.5 -120zM289 457q0 70 -14.5 104.5t-51.5 34.5t-51 -34.5t-14 -99.5q0 -68 14 -102t53 -34q64 0 64 131zM724 141q0 70 -14.5 104.5t-51.5 34.5t-51 -34.5t-14 -99.5q0 -68 14 -102t53 -34q64 0 64 131z" />
    <glyph glyph-name="ampersand" unicode="&#x26;" horiz-adv-x="753" 
d="M476 207q82 111 82 157q0 16 -19 26t-71 20v21h272v-21q-86 -9 -121 -49q-12 -13 -56 -80t-67 -99q87 -103 127 -127q3 -2 10.5 -6.5t9.5 -5.5t8 -4.5t8.5 -4t8.5 -3t10.5 -3t11.5 -2t15 -2.5t18 -2v-22h-254q-30 35 -62 74q-90 -90 -185 -90q-91 0 -151 41.5t-60 123.5
q0 69 44 119t127 101q-73 108 -73 174q0 69 55.5 111.5t149.5 42.5q61 0 91 -36t30 -96q0 -82 -111 -151q4 -5 6 -8q64 -94 146 -199zM310 436q44 29 61.5 58t17.5 72q0 47 -20.5 73.5t-52.5 26.5q-62 0 -62 -91q0 -55 56 -139zM200 344q-34 -51 -34 -153q0 -71 29.5 -108
t79.5 -37q62 0 113 51q-103 130 -188 247z" />
    <glyph glyph-name="quotesingle" unicode="'" horiz-adv-x="206" 
d="M173 670q0 -13 -9 -42t-24.5 -76.5t-24.5 -79.5h-26q-9 33 -24 79.5t-23.5 75.5t-8.5 43q0 26 19.5 46.5t50.5 20.5t50.5 -20.5t19.5 -46.5z" />
    <glyph glyph-name="parenleft" unicode="(" horiz-adv-x="355" 
d="M332 -133l-52 -27q-115 81 -179.5 202.5t-64.5 254.5q0 123 60.5 240t182.5 211l53 -27q-111 -85 -166.5 -193.5t-57.5 -226.5q-1 -126 58 -241t166 -193z" />
    <glyph glyph-name="parenright" unicode=")" horiz-adv-x="355" 
d="M23 721l52 27q115 -81 179.5 -202.5t64.5 -254.5q0 -123 -60.5 -240t-182.5 -211l-53 27q112 85 167.5 194t56.5 226q1 126 -58 241t-166 193z" />
    <glyph glyph-name="asterisk" unicode="*" horiz-adv-x="363" 
d="M310 495q0 -17 -10.5 -27t-23.5 -10q-7 0 -22 13q-5 4 -24.5 27.5t-42.5 39.5q3 -33 15 -63.5t12 -36.5q0 -14 -9 -23.5t-25 -9.5q-32 0 -32 33q0 9 11.5 37.5t15.5 63.5q-24 -16 -44 -40t-25 -28q-16 -13 -24 -13q-12 0 -22.5 11.5t-10.5 25.5q0 12 6.5 18t23.5 11
q7 2 22 4.5t32 7.5t39 15q-29 13 -60.5 20t-37.5 9q-16 6 -22.5 12t-6.5 18q0 14 9.5 25t21.5 11q10 0 24 -12q5 -4 27 -29t47 -41q-4 30 -15 60t-11 40q0 33 32 33q34 0 34 -33q0 -7 -12.5 -37.5t-15.5 -62.5q24 17 43.5 40t25.5 28q14 11 24 11q12 0 21.5 -11t9.5 -25
q0 -12 -6.5 -18t-22.5 -11q-4 -1 -33.5 -7.5t-58.5 -19.5q28 -12 56.5 -18.5t35.5 -8.5q29 -9 29 -29z" />
    <glyph glyph-name="plus" unicode="+" 
d="M511 231h-210v-212h-62v212h-210v58h210v212h62v-212h210v-58z" />
    <glyph glyph-name="comma" unicode="," horiz-adv-x="269" 
d="M120 163q55 0 81.5 -37t26.5 -100q0 -59 -47 -117.5t-119 -88.5l-11 23q101 49 110 157h-22q-53 0 -75.5 24.5t-22.5 59.5q0 31 21.5 55t57.5 24z" />
    <glyph glyph-name="hyphen" unicode="-" horiz-adv-x="317" 
d="M288 204h-260v98h260v-98z" />
    <glyph glyph-name="period" unicode="." horiz-adv-x="269" 
d="M135 163q37 0 63.5 -25.5t26.5 -62.5t-26.5 -62.5t-63.5 -25.5t-63.5 25.5t-26.5 62.5t26.5 62.5t63.5 25.5z" />
    <glyph glyph-name="slash" unicode="/" horiz-adv-x="408" 
d="M380 737l-313 -951l-53 15l312 951z" />
    <glyph glyph-name="zero" unicode="0" horiz-adv-x="624" 
d="M599 316q0 -149 -85.5 -240.5t-205.5 -91.5q-130 0 -204 88t-74 217q0 149 86 240.5t204 91.5q131 0 205 -87.5t74 -217.5zM431 303q0 131 -28 210t-87 79q-53 0 -85.5 -78t-32.5 -212q0 -133 27.5 -211t86.5 -78q54 0 86.5 78t32.5 212z" />
    <glyph glyph-name="one" unicode="1" horiz-adv-x="429" 
d="M415 0h-373v23q51 3 81 12q14 5 23.5 18t9.5 29v430h-21q-22 0 -47 11.5t-40 23.5t-39 33l9 16q53 -23 126 -23q83 0 152 43h28q-14 -84 -14 -158v-371q0 -35 29 -48q28 -13 76 -16v-23z" />
    <glyph glyph-name="two" unicode="2" horiz-adv-x="577" 
d="M564 213l-68 -213h-462l11 68q150 108 221 171q62 55 89 114t27 134q0 52 -26.5 78t-69.5 26q-55 0 -94 -53.5t-39 -117.5q0 -31 18 -48.5t48 -17.5q22 0 40.5 9t25 15t21.5 23l15 -12q-61 -108 -158 -108q-61 0 -94.5 33.5t-33.5 86.5q0 85 80 152.5t196 67.5
q95 0 158.5 -43.5t63.5 -117.5q0 -94 -76.5 -166t-238.5 -143l-43 -32h259q61 0 109 101z" />
    <glyph glyph-name="three" unicode="3" horiz-adv-x="557" 
d="M314 620q97 0 151 -35t54 -95q0 -120 -211 -152l-13 -12q18 3 31 3q49 0 93 -11t79.5 -43.5t35.5 -83.5q0 -100 -91 -159t-218 -59q-95 0 -157 35.5t-62 103.5q0 51 31 80t76 29q34 0 54.5 -18.5t20.5 -42.5q0 -28 -17 -46t-33.5 -30t-16.5 -25q0 -22 24 -39.5t69 -17.5
q67 0 110.5 54.5t43.5 142.5q0 51 -16 75.5t-54 24.5t-94 -52l-22 35q35 22 44 28t36 24.5t34.5 26.5t24 25.5t21.5 30.5t10 32.5t5 40.5q0 53 -22 77.5t-58 24.5q-49 0 -79 -33.5t-30 -76.5q0 -29 12.5 -48t35.5 -19q29 0 63 36l15 -14q-18 -31 -57 -58.5t-71 -27.5
q-55 0 -85 27.5t-30 73.5q0 71 76 119.5t187 48.5z" />
    <glyph glyph-name="four" unicode="4" horiz-adv-x="595" 
d="M332 628h95v-376h60q35 0 48 29t15 58h22v-231h-22q-2 37 -11 62q-11 32 -47 32h-65v-115q0 -35 29 -48q30 -14 67 -16v-23h-353v23q45 3 72 12q14 5 23 18.5t9 29.5v119h-264v40zM274 508l-212 -256h212v256z" />
    <glyph glyph-name="five" unicode="5" horiz-adv-x="535" 
d="M523 616q-102 -158 -306 -158q-55 0 -79 4l-31 -122q54 43 161 43q103 0 168 -47.5t65 -131.5q0 -106 -77.5 -162t-207.5 -56q-86 0 -144.5 32t-58.5 95q0 42 24 64.5t57 22.5q32 0 52.5 -17t20.5 -43q0 -15 -3 -28.5t-5.5 -19.5t-9.5 -20.5t-9 -18.5q2 -17 24 -29.5
t51 -12.5q53 0 85.5 56t32.5 140q0 73 -27 107t-84 34q-41 0 -77.5 -21t-55.5 -57l-29 7l76 339h25q12 -13 61 -26t103 -13q119 0 184 51z" />
    <glyph glyph-name="six" unicode="6" horiz-adv-x="577" 
d="M355 434q79 0 133 -58t54 -156q0 -41 -13.5 -80t-41.5 -75.5t-81.5 -58.5t-124.5 -22q-105 0 -175 79.5t-70 217.5q0 173 99.5 296t243.5 123q80 0 120 -37t40 -82q0 -34 -18.5 -52t-50.5 -18q-27 0 -45 8t-27 25.5t-13 33t-7 43.5q-3 18 -5 25t-9.5 13t-20.5 6
q-39 0 -70.5 -42.5t-51 -112t-28.5 -158.5l4 -2q59 84 158 84zM287 381q-41 0 -68.5 -45t-27.5 -139q0 -84 28 -134t65 -50q95 0 95 202q0 166 -92 166z" />
    <glyph glyph-name="seven" unicode="7" horiz-adv-x="486" 
d="M512 568q-50 -63 -80 -112.5t-63 -122.5q-56 -123 -67 -335q-6 -119 -86 -119q-35 0 -55.5 21t-20.5 63q0 87 103 263q18 30 33 54.5t34 51.5t28.5 40t36 49t36.5 50h-260q-33 0 -57.5 -24.5t-53.5 -91.5l-22 5l66 290h19l10 -56h399v-26z" />
    <glyph glyph-name="eight" unicode="8" horiz-adv-x="565" 
d="M290 627q94 0 155 -38.5t61 -99.5q0 -46 -31 -79.5t-72 -50.5l1 -2q134 -57 134 -164q0 -94 -77.5 -152.5t-195.5 -58.5q-101 0 -167 42t-66 110q0 88 125 149l-2 2q-103 51 -103 153q0 78 70.5 133.5t167.5 55.5zM281 596q-54 0 -88 -28.5t-34 -66.5q0 -34 27.5 -54
t86.5 -40q13 -5 51 -18.5t52 -17.5q27 38 27 108q0 50 -30.5 83.5t-91.5 33.5zM297 230q-57 17 -114 41q-40 -50 -40 -134q0 -51 38.5 -87.5t107.5 -36.5q60 0 100 33t40 78q0 39 -30.5 62t-101.5 44z" />
    <glyph glyph-name="nine" unicode="9" horiz-adv-x="577" 
d="M296 621q105 0 175 -79.5t70 -217.5q0 -181 -102.5 -305t-250.5 -124q-81 0 -125.5 31t-44.5 80q0 32 22.5 52.5t59.5 20.5q44 0 58 -23t23 -81q5 -24 14 -35t28 -11q58 0 102 94t58 230l-4 1q-56 -83 -158 -83q-79 0 -133 58t-54 155q0 41 13.5 80.5t42 76t82 58.5
t124.5 22zM293 592q-94 0 -94 -203q0 -165 91 -165q40 0 68 45t28 139q0 85 -28 134.5t-65 49.5z" />
    <glyph glyph-name="colon" unicode=":" horiz-adv-x="311" 
d="M156 471q37 0 63 -25t26 -61q0 -37 -26 -62t-63 -25q-36 0 -61.5 25t-25.5 62q0 36 25.5 61t61.5 25zM156 159q37 0 63 -25t26 -61t-26 -61t-63 -25q-36 0 -61.5 25t-25.5 61t25.5 61t61.5 25z" />
    <glyph glyph-name="semicolon" unicode=";" horiz-adv-x="311" 
d="M156 471q37 0 63 -25t26 -62q0 -36 -26 -60.5t-62 -24.5t-62 24.5t-26 60.5q0 37 25.5 62t61.5 25zM142 160q107 0 107 -135q0 -60 -46.5 -117.5t-119.5 -86.5l-11 22q101 49 110 157h-21q-97 0 -97 83q0 30 21 53.5t57 23.5z" />
    <glyph glyph-name="less" unicode="&#x3c;" 
d="M487 30l-442 205v50l442 205v-62l-365 -168l365 -168v-62z" />
    <glyph glyph-name="equal" unicode="=" 
d="M491 311h-442v58h442v-58zM491 151h-442v58h442v-58z" />
    <glyph glyph-name="greater" unicode="&#x3e;" 
d="M495 235l-442 -205v62l365 168l-365 168v62l442 -205v-50z" />
    <glyph glyph-name="question" unicode="?" horiz-adv-x="504" 
d="M466 503q0 -96 -65.5 -156.5t-172.5 -69.5l-4 -69h-27v186q135 14 135 151q0 60 -26 93t-70 33q-46 0 -69 -29q1 -2 6.5 -12.5t9 -18t6.5 -20t3 -23.5q0 -38 -21.5 -60.5t-58.5 -22.5q-39 0 -58.5 22.5t-19.5 59.5q0 53 61 92.5t147 39.5q100 0 162 -52.5t62 -143.5z
M300 74q0 -36 -25.5 -61.5t-61.5 -25.5t-61.5 25.5t-25.5 61.5t25.5 62t61.5 26t61.5 -26t25.5 -62z" />
    <glyph glyph-name="at" unicode="@" horiz-adv-x="1050" 
d="M962 114q-34 -116 -105.5 -192t-155.5 -106.5t-183 -30.5q-186 0 -303.5 108.5t-117.5 285.5q0 112 45 205t117 151t158 89.5t173 31.5q66 0 124 -19.5t104 -58t72.5 -101.5t26.5 -143q0 -123 -59 -212t-150 -89q-53 0 -87 21t-37 59l-3 1q-51 -79 -108 -79
q-45 0 -76.5 34t-31.5 97q0 52 30.5 112t84.5 104t113 44q25 0 41.5 -17t21.5 -43h3l20 54h100l-92 -263q-10 -27 -10 -52q0 -45 41 -45q66 0 116.5 78.5t50.5 201.5q0 130 -84.5 204.5t-204.5 74.5q-65 0 -127 -29.5t-112.5 -83.5t-81.5 -138t-31 -184q0 -175 88.5 -265.5
t235.5 -90.5q122 0 221 71.5t152 222.5zM647 329q-12 74 -51 74q-28 0 -51.5 -24t-37.5 -62.5t-21.5 -80.5t-9.5 -84q-3 -84 29 -84q33 0 83 87z" />
    <glyph glyph-name="A" unicode="A" horiz-adv-x="683" 
d="M715 0h-369v23q35 3 66.5 13t31.5 27q0 11 -4 21l-56 149h-215q-3 -8 -32 -95q-12 -35 -12 -62q0 -23 36 -36.5t73 -16.5v-23h-270v23q44 5 64 18q32 21 56 78q18 45 117 300.5t106 274.5h76q25 -63 124 -324t107 -281q12 -30 40 -47q24 -15 61 -19v-23zM369 272l-94 242
l-91 -242h185z" />
    <glyph glyph-name="B" unicode="B" horiz-adv-x="677" 
d="M369 683q123 0 186.5 -36t63.5 -116q0 -116 -172 -159v-9q85 -10 146 -54t61 -124q0 -100 -76 -142.5t-225 -42.5h-341v23q61 7 76 13q30 11 30 49v507q0 38 -30 50q-27 12 -76 18v23h357zM324 652q-16 0 -40 -2v-272h19q71 0 106 38t35 104q0 64 -32.5 98t-87.5 34z
M323 346q-15 0 -39 -3v-269q4 -18 23.5 -30t49.5 -12q54 0 86.5 43t32.5 114q0 74 -39.5 115.5t-113.5 41.5z" />
    <glyph glyph-name="C" unicode="C" horiz-adv-x="654" 
d="M645 179q-36 -86 -107.5 -140t-174.5 -54q-147 0 -244.5 94.5t-97.5 254.5q0 162 100.5 264t255.5 102q91 0 177 -45l26 37h34l4 -256h-28q-35 114 -88.5 173t-119.5 59q-86 0 -130.5 -85t-44.5 -232q0 -153 51 -231.5t141 -78.5q74 0 125.5 38t93.5 114z" />
    <glyph glyph-name="D" unicode="D" horiz-adv-x="760" 
d="M739 337q0 -84 -33.5 -150.5t-90.5 -106t-126.5 -60t-147.5 -20.5h-324v23q50 2 72 11q29 11 29 49v509q0 37 -29 51q-25 12 -69 17v23h340q47 0 95 -9.5t100 -34t92 -62t66 -100t26 -140.5zM552 338q0 139 -55.5 226t-149.5 87q-26 0 -62 -2v-553q0 -64 80 -64
q97 0 142 81.5t45 224.5z" />
    <glyph glyph-name="E" unicode="E" horiz-adv-x="654" 
d="M651 209l-13 -209h-626v23q61 7 76 13q30 11 30 49v506q0 38 -30 50q-40 15 -76 19v23h588v-179h-26q-14 44 -48.5 91t-70.5 52q-40 5 -81 5h-89v-282h60q60 0 88 28q29 29 39 96h26v-285h-26q-3 25 -15 56.5t-24 44.5q-25 27 -88 27h-60v-221q0 -55 19 -70t87 -15
q120 0 144 24q45 44 92 154h24z" />
    <glyph glyph-name="F" unicode="F" horiz-adv-x="607" 
d="M608 502h-25q-16 45 -50.5 93t-70.5 52q-38 5 -80 5h-97v-286h60q61 0 88 27q29 29 39 98h26v-289h-26q-3 25 -15 57.5t-24 46.5q-24 27 -88 27h-60v-245q0 -35 30 -49q27 -11 73 -16v-23h-376v23q59 7 76 13q30 11 30 49v507q0 37 -30 49q-40 15 -76 19v23h596v-181z
" />
    <glyph glyph-name="G" unicode="G" horiz-adv-x="737" 
d="M385 700q100 0 183 -45l29 37h34l4 -253h-29q-40 117 -91 173t-122 56q-90 0 -138 -84t-48 -233q0 -146 46 -238t123 -92q92 0 127 94v94q-2 40 -34 54q-33 15 -70 17v24h349v-24q-34 -4 -58 -13q-30 -11 -30 -50v-226l-17 -6l-61 64q-116 -64 -229 -64
q-143 0 -237.5 89.5t-94.5 258.5q0 165 101.5 266t262.5 101z" />
    <glyph glyph-name="H" unicode="H" horiz-adv-x="834" 
d="M815 0h-365v23q46 3 69 11q30 11 30 49v252h-264v-247q0 -35 30 -49q27 -11 70 -16v-23h-366v23q58 6 69 11q30 11 30 49v509q0 36 -30 49q-35 15 -69 19v23h366v-23q-46 -5 -70 -14q-30 -10 -30 -49v-222h264v217q0 36 -30 49q-35 15 -69 19v23h365v-23q-37 -4 -68 -14
t-31 -49v-509q0 -34 31 -49q21 -10 68 -16v-23z" />
    <glyph glyph-name="I" unicode="I" horiz-adv-x="407" 
d="M388 0h-369v23q51 3 71 11q30 11 30 49v509q0 36 -30 49q-38 16 -71 19v23h369v-23q-43 -5 -71 -14q-30 -10 -30 -49v-509q0 -35 30 -49q26 -11 71 -16v-23z" />
    <glyph glyph-name="J" unicode="J" horiz-adv-x="526" 
d="M522 660q-35 -4 -71 -15q-30 -10 -30 -49v-388q0 -105 -71.5 -165.5t-176.5 -60.5q-91 0 -136.5 34t-45.5 91q0 44 26 70.5t69 26.5q40 0 63.5 -23.5t23.5 -59.5q0 -29 -18 -54t-46 -39v-5q16 -7 33 -7q113 0 113 172v403q0 37 -31 50q-32 14 -76 19v23h374v-23z" />
    <glyph glyph-name="K" unicode="K" horiz-adv-x="766" 
d="M792 0h-374v23q34 4 48 11.5t14 27.5q0 43 -179 262h-16v-236q0 -37 29 -50q19 -8 62 -15v-23h-357v23q58 6 69 11q30 11 30 49v509q0 36 -30 49q-34 15 -69 19v23h365v-23q-44 -5 -69 -14q-30 -10 -30 -49v-246h15q96 84 165.5 165.5t69.5 110.5q0 24 -77 33v23h288v-23
q-96 -8 -150 -61q-38 -38 -87 -91t-82 -85q125 -162 228 -306q46 -63 77 -79q21 -11 60 -15v-23z" />
    <glyph glyph-name="L" unicode="L" horiz-adv-x="621" 
d="M634 216l-13 -216h-609v23q62 7 76 13q30 12 30 50v507q0 37 -30 49q-30 13 -76 18v23h375v-23q-48 -5 -71 -13q-31 -10 -31 -49v-481q0 -57 19 -71.5t87 -14.5q100 0 125 25q48 48 94 160h24z" />
    <glyph glyph-name="M" unicode="M" horiz-adv-x="936" 
d="M921 0h-380v23q68 8 80 14q32 17 32 51v532l-3 -8l-227 -601h-47q-20 71 -47 139l-167 444l-3 -36v-368q0 -108 33 -135q11 -9 45.5 -19.5t51.5 -12.5v-23h-293v23q65 8 90 26q32 24 32 136v363q0 60 -30 84q-28 23 -87 28v23h297l171 -445l135 360q18 47 21 85h295v-23
q-46 -5 -72 -14q-30 -10 -30 -49v-509q0 -34 30 -49q17 -9 73 -16v-23z" />
    <glyph glyph-name="N" unicode="N" horiz-adv-x="750" 
d="M762 660l-16 -2q-17 -3 -27.5 -5.5t-25 -7.5t-22.5 -11q-32 -25 -32 -136v-501h-68l-412 532v-338q0 -109 33 -137q11 -9 43.5 -19t48.5 -12v-23h-288v23l16 3q17 2 27 4.5t24.5 7.5t22.5 11q32 24 32 137v347q0 48 -31 79t-94 46v25h249l357 -461v270q0 108 -34 137
q-11 9 -43.5 19t-49.5 12v23h290v-23z" />
    <glyph glyph-name="O" unicode="O" horiz-adv-x="759" 
d="M738 346q0 -174 -113 -276q-97 -88 -249 -88q-149 0 -250 95q-105 99 -105 257q0 175 115 277q101 90 244 90q148 0 247 -90q111 -101 111 -265zM550 343q0 63 -8.5 117t-27 102.5t-53 76.5t-81.5 28q-84 0 -127.5 -87.5t-43.5 -240.5q0 -91 16 -161t55.5 -116t99.5 -46
q59 0 98.5 45.5t55.5 116.5t16 165z" />
    <glyph glyph-name="P" unicode="P" horiz-adv-x="629" 
d="M628 513q0 -72 -43.5 -121.5t-109 -70.5t-145.5 -21h-45v-212q0 -35 30 -49q27 -11 73 -16v-23h-376v23q52 3 76 13q30 11 30 49v507q0 37 -30 49q-40 15 -76 19v23h361q255 0 255 -170zM449 489q0 80 -31 122t-101 42h-32v-321h18q146 0 146 157z" />
    <glyph glyph-name="Q" unicode="Q" horiz-adv-x="764" 
d="M798 -10q-11 -68 -60 -125t-130 -57q-166 0 -186 177q-42 -3 -45 -3q-147 0 -247 94q-108 101 -108 258q0 161 104 267q98 100 255 100q148 0 250 -94q108 -100 108 -261q0 -107 -48.5 -193.5t-137.5 -131.5q19 -59 56 -85.5t67 -26.5q46 0 68.5 22t30.5 64zM552 343
q0 324 -171 324q-84 0 -127.5 -87.5t-43.5 -240.5q0 -120 28 -204q48 93 133 93q111 0 147 -127q0 2 2 5t2 4q30 79 30 233zM419 21q-5 74 -24 111t-59 37q-64 0 -87 -66q47 -87 132 -87q18 0 38 5z" />
    <glyph glyph-name="R" unicode="R" horiz-adv-x="731" 
d="M379 683q121 0 189 -38.5t68 -117.5q0 -133 -181 -180v-7q48 -6 90 -30.5t55 -72.5q7 -24 11.5 -47t9.5 -49t8 -42q5 -22 17.5 -34t27.5 -12q19 0 30 21.5t11 61.5v30h28l-1 -31q-3 -71 -33.5 -109t-112.5 -38q-69 0 -105.5 37.5t-47.5 128.5q-11 89 -37 129.5t-89 40.5
h-32v-236q0 -35 30 -49q27 -11 70 -16v-23h-373v23q52 3 76 13q30 11 30 49v507q0 38 -30 50q-30 13 -76 18v23h367zM318 653h-33v-298h16q155 0 155 155q0 143 -138 143z" />
    <glyph glyph-name="S" unicode="S" horiz-adv-x="572" 
d="M548 199q0 -93 -71 -153.5t-186 -60.5q-104 0 -198 52l-30 -45h-34l-6 252h26q32 -87 92.5 -156t132.5 -69q56 0 90.5 35t34.5 86q0 44 -26.5 72.5t-82.5 48.5q-123 42 -128 44q-62 26 -92.5 76.5t-30.5 116.5q0 85 63.5 143.5t171.5 58.5q101 0 174 -45l26 37h35l4 -237
h-26q-16 44 -32.5 77.5t-40 66t-56 50t-70.5 17.5q-45 0 -75 -32.5t-30 -78.5q0 -44 25.5 -72.5t82.5 -48.5q17 -6 64 -21t65 -23q63 -27 95.5 -71.5t32.5 -119.5z" />
    <glyph glyph-name="T" unicode="T" horiz-adv-x="617" 
d="M621 497h-26q-13 42 -47.5 94t-63.5 56q-35 5 -72 5h-20v-561q0 -36 30 -50q30 -13 81 -18v-23h-388v23q55 3 80 13q30 12 30 50v566h-20q-37 0 -72 -5q-28 -4 -63 -56.5t-48 -93.5h-26v186h625v-186z" />
    <glyph glyph-name="U" unicode="U" horiz-adv-x="753" 
d="M765 660q-2 0 -17 -2.5t-26 -4.5t-25.5 -7t-22.5 -11q-18 -13 -25 -43.5t-7 -93.5v-270q0 -117 -70.5 -180.5t-181.5 -63.5q-136 0 -210.5 66t-74.5 178v366q0 34 -30 50q-16 9 -68 16v23h366v-23q-49 -6 -69 -12q-31 -10 -31 -49v-371q0 -102 38.5 -148t119.5 -46
q80 0 125.5 51.5t45.5 147.5v259q0 108 -33 136q-11 9 -44 19.5t-49 12.5v23h289v-23z" />
    <glyph glyph-name="V" unicode="V" horiz-adv-x="669" 
d="M711 659q-35 -2 -63 -19q-15 -9 -26.5 -24.5t-17 -26.5t-16.5 -35q-8 -19 -55.5 -137t-103 -257t-67.5 -168h-77q-15 42 -66 187t-93 263.5t-49 136.5q-16 42 -48 61q-30 19 -65 20v23h370v-23q-94 -11 -94 -35q0 -12 5 -27q3 -8 32.5 -94t64.5 -189t49 -147
q13 28 42.5 104.5t59.5 154.5t34 89q26 66 26 97q0 19 -34 31t-79 15v24h271v-24z" />
    <glyph glyph-name="W" unicode="W" horiz-adv-x="1025" 
d="M1061 660q-31 -3 -63 -21q-34 -18 -63 -99q-189 -518 -200 -548h-76q-13 39 -76 233t-74 225l-167 -458h-74q-173 532 -194 596q-12 36 -38 53q-31 17 -63 19v23h344v-23q-79 -7 -79 -36q0 -6 5 -28q32 -111 133 -406l113 313q-11 38 -16.5 55t-20 44t-31.5 38
q-29 18 -62 20v23h358v-23q-94 -8 -94 -36q0 -13 5 -28q56 -176 137 -404q19 47 60.5 164.5t53.5 154.5q22 66 22 96q0 44 -109 53v23h269v-23z" />
    <glyph glyph-name="X" unicode="X" horiz-adv-x="744" 
d="M741 683v-23q-35 -2 -66 -17q-42 -17 -92 -78q-11 -12 -69.5 -87t-72.5 -91q19 -28 91.5 -142.5t83.5 -130.5q43 -62 79 -76q28 -11 69 -15v-23h-424v23q105 6 105 34q0 17 -48 99q-59 100 -74 121q-17 -21 -44.5 -58t-36.5 -48q-69 -91 -69 -111q0 -29 95 -37v-23h-284
v23q34 2 69 17q44 18 92 78q13 15 77.5 95t79.5 97q-9 13 -80 125.5t-85 132.5q-35 59 -80 77q-29 11 -69 15v23h424v-23q-104 -6 -104 -34q0 -32 45 -102q66 -102 67 -104q49 64 79 107q56 78 56 96q0 29 -95 37v23h281z" />
    <glyph glyph-name="Y" unicode="Y" horiz-adv-x="684" 
d="M722 660q-33 -4 -58 -19q-40 -24 -69 -70q-65 -104 -134 -225q-25 -44 -31 -69t-6 -76v-111q0 -36 30 -50q34 -14 80 -17v-23h-389v23q58 3 81 12q31 12 31 50v136q0 33 -5.5 52.5t-25.5 55.5q-122 224 -136 246q-24 45 -63 68q-25 15 -63 17v23h391v-23
q-100 -6 -100 -29q0 -13 44 -96q81 -154 112 -206q9 15 53 97.5t49 89.5q51 88 51 103q0 35 -96 41v23h254v-23z" />
    <glyph glyph-name="Z" unicode="Z" horiz-adv-x="626" 
d="M626 223l-23 -223h-607v23l424 629h-139q-73 0 -103 -13q-53 -23 -119 -157h-27l20 201h564v-23l-425 -629h154q78 0 109.5 6.5t47.5 23.5q60 71 98 162h26z" />
    <glyph glyph-name="bracketleft" unicode="[" horiz-adv-x="577" 
d="M527 -126q0 -44 -32 -76l-22 8q20 18 20 43q0 44 -92 44q-119 0 -315 -44l-23 -8v886l23 -8q194 -44 315 -44q54 0 73 10.5t19 33.5q0 20 -16 42l21 8q9 -7 19 -30t10 -45q0 -56 -44 -92.5t-99 -36.5q-25 0 -49 5.5t-52.5 20t-47.5 25.5t-57 35l-57 36v-806q11 7 42.5 26
t43.5 26t37 21.5t38.5 20.5t32 14t32.5 11t27 3q65 0 109 -36.5t44 -92.5z" />
    <glyph glyph-name="backslash" unicode="\" horiz-adv-x="408" 
d="M26 739l54 15l312 -951l-53 -15z" />
    <glyph glyph-name="bracketright" unicode="]" horiz-adv-x="577" 
d="M196 565q-53 0 -93 36t-40 93q0 22 10 45t19 30l21 -8q-16 -22 -16 -42q0 -24 14.5 -34t67.5 -10q131 0 325 44l23 8v-886l-23 8q-196 44 -325 44q-36 0 -55 -7.5t-23 -16t-4 -20.5q0 -25 20 -43l-22 -8q-32 32 -32 76q0 57 39.5 93t103.5 36q29 0 75.5 -20t83 -40.5
t104.5 -61.5v806q-10 -6 -49 -30t-50.5 -30.5t-42 -23t-47 -22t-40 -11t-44.5 -5.5z" />
    <glyph glyph-name="asciicircum" unicode="^" horiz-adv-x="830" 
d="M800 577q0 -150 -164 -161q42 -13 67.5 -51t25.5 -86q0 -50 -24 -101t-69 -95t-122.5 -72t-174.5 -28q-123 0 -206.5 64.5t-83.5 162.5q0 53 27.5 85t78.5 62q-69 47 -69 127q0 55 41.5 93.5t106.5 38.5q69 0 112 -33.5t57 -89.5l-16 -8q-42 48 -121 48q-57 0 -82 -27.5
t-25 -67.5q0 -49 24 -69q59 32 95 32q38 0 60 -15.5t22 -40.5q0 -21 -14.5 -35.5t-42.5 -14.5q-17 0 -32.5 3t-30.5 10t-23.5 11.5t-23 14t-18.5 11.5q-17 -17 -17 -67q0 -74 77.5 -124t196.5 -53q133 -4 197 52t64 146q0 54 -41 86t-104 32q-47 0 -76.5 -25.5t-29.5 -67.5
q0 -37 21.5 -56t55.5 -19q22 0 46 15q-74 11 -74 51q0 32 19 46.5t41 14.5q30 0 51.5 -18t21.5 -49q0 -37 -24.5 -60.5t-68.5 -23.5q-55 0 -92 30.5t-37 79.5q0 86 50 129.5t121 43.5q13 0 54 -2.5t52 -2.5q44 0 64.5 26.5t20.5 64.5q0 25 -18 44t-52 19q-32 0 -32 -21
q52 -14 52 -49q0 -28 -16 -42t-40 -14q-29 0 -50 17t-21 52q0 34 28 55.5t76 21.5q52 0 80.5 -29.5t28.5 -70.5z" />
    <glyph glyph-name="underscore" unicode="_" horiz-adv-x="600" 
d="M605 -161h-610v57h610v-57z" />
    <glyph glyph-name="grave" unicode="`" horiz-adv-x="500" 
d="M110 704q0 21 15.5 36t42.5 15q24 0 41 -14.5t37 -45.5q51 -83 98 -146l-14 -16q-47 30 -154 92q-36 21 -51 37t-15 42z" />
    <glyph glyph-name="a" unicode="a" horiz-adv-x="504" 
d="M524 133q-3 -146 -122 -146q-80 0 -115 65h-3q-21 -22 -35 -34t-42.5 -22.5t-65.5 -10.5q-51 0 -86 32.5t-35 81.5q0 58 26 85t72 44q16 6 60 20.5t69.5 24.5t36.5 19v58q0 19 -1 31t-6 31t-17.5 29t-32.5 10q-30 0 -49 -19l9 -28q9 -29 9 -48t-23 -38t-59 -19t-54 20.5
t-18 48.5q0 44 62 75.5t131 31.5q46 0 76.5 -5t60 -20t44 -46t14.5 -79q0 -53 -3 -137.5t-3 -93.5q0 -15 9.5 -31t26.5 -16q37 0 39 86h25zM285 260q-61 -24 -87 -49.5t-26 -83.5q0 -79 50 -79q16 0 27.5 5.5t17 12t14.5 20.5z" />
    <glyph glyph-name="b" unicode="b" horiz-adv-x="550" 
d="M531 229q0 -106 -65.5 -175t-163.5 -69q-47 0 -85.5 12.5t-50 21t-34.5 26.5l-62 -65l-18 8q6 80 6 181v471q0 38 -27 57q-22 15 -64 17v20l229 12l7 -7v-327l4 -1q56 64 127 64q87 0 142 -66.5t55 -179.5zM371 222q0 194 -95 194q-26 0 -40.5 -9t-32.5 -30v-292
q21 -74 77 -74q42 0 66.5 57t24.5 154z" />
    <glyph glyph-name="c" unicode="c" horiz-adv-x="445" 
d="M448 126q-24 -61 -77 -101t-118 -40q-115 0 -175 69t-60 179q0 100 65 171t177 71q82 0 125 -32t43 -85q0 -31 -20 -51.5t-57 -20.5q-36 0 -56.5 19.5t-20.5 51.5q0 11 10.5 36t11.5 28q-6 29 -35 29q-38 0 -61.5 -52t-23.5 -157q0 -86 33 -140t85 -54q50 0 80 22.5
t52 70.5z" />
    <glyph glyph-name="d" unicode="d" horiz-adv-x="565" 
d="M576 10l-219 -14l-7 7v46l-4 1q-61 -64 -128 -64q-87 0 -143 69t-56 182q0 103 64.5 170.5t152.5 67.5q59 0 113 -24v184q0 41 -25 57q-27 18 -87 22v20l249 12l7 -7v-646q0 -30 25 -48q17 -13 58 -15v-20zM349 84v288q-19 73 -77 73q-43 0 -68.5 -59t-25.5 -158
q0 -185 96 -185q27 0 42.5 9.5t32.5 31.5z" />
    <glyph glyph-name="e" unicode="e" horiz-adv-x="470" 
d="M468 122q-30 -61 -84.5 -99t-125.5 -38q-118 0 -179 69.5t-61 178.5q0 102 62 172t171 70q107 0 156.5 -56t49.5 -143v-14h-283v-12q0 -94 32.5 -149.5t101.5 -55.5q48 0 81 20.5t59 71.5zM302 292q0 25 -0.5 39.5t-2 35.5t-5 33.5t-10 25t-16.5 18t-24 5.5
q-65 0 -70 -159z" />
    <glyph glyph-name="f" unicode="f" horiz-adv-x="326" 
d="M457 644q0 -25 -20 -47.5t-53 -22.5q-27 0 -50 15.5t-23 44.5q0 10 2 19.5t6 22t6 23.5q0 9 -6 15.5t-16 6.5q-37 0 -55 -48t-22 -148v-64h122v-43h-121v-341q0 -33 27 -44q24 -10 64 -12v-21h-305v21q26 2 43 8q26 10 26 44v345h-96v43h96v18q0 127 68 198q68 70 169 70
q74 0 106 -30.5t32 -72.5z" />
    <glyph glyph-name="g" unicode="g" horiz-adv-x="502" 
d="M236 475q85 0 124 -23q41 104 103 104q22 0 38.5 -14.5t16.5 -38.5t-14.5 -40t-37.5 -16q-34 0 -56 33q-20 -8 -31 -40q4 -2 7 -5q57 -48 57 -117q0 -65 -58.5 -106t-139.5 -41h-67q-20 -18 -20 -30q0 -7 1 -12t4.5 -8.5l6.5 -6.5t9.5 -4.5t10.5 -3t13 -2t14.5 -0.5
t16.5 -0.5t17 -0.5q18 -1 62.5 -3t54.5 -2q53 -3 96.5 -41.5t43.5 -104.5q0 -80 -68.5 -130t-202.5 -50q-236 0 -236 123q0 42 40.5 67.5t118.5 28.5v4q-108 32 -108 97t106 86v4q-64 19 -97 55.5t-33 85.5q0 73 64 112.5t144 39.5zM235 450q-61 0 -61 -125
q0 -56 16.5 -93.5t45.5 -37.5q33 0 49 37.5t16 90.5q0 128 -66 128zM334 -22q-30 5 -147 5q-45 -24 -45 -88q0 -35 29 -65t89 -30q55 0 86.5 31t31.5 84q0 47 -44 63z" />
    <glyph glyph-name="h" unicode="h" horiz-adv-x="577" 
d="M574 0h-264v21q27 2 37 8q15 8 15 44v240q0 48 -16 73t-42 25q-62 0 -89 -61v-272q0 -34 18 -45q16 -10 38 -12v-21h-268v21q26 1 43 8q25 9 25 44v567q0 39 -26 57q-22 14 -67 17v20l231 12l6 -7v-346h2q43 45 63 57q40 25 93 25q67 0 101 -41.5t34 -115.5v-242
q0 -34 23 -44q17 -8 43 -11v-21z" />
    <glyph glyph-name="i" unicode="i" horiz-adv-x="297" 
d="M143 740q37 0 62 -24.5t25 -61.5t-25 -61.5t-62 -24.5t-62.5 24.5t-25.5 61.5t25.5 61.5t62.5 24.5zM297 0h-284v21q26 2 43 8q26 10 26 44v296q0 33 -25 50q-24 16 -59 18v20l222 12l7 -7v-384q0 -33 27 -45q15 -8 43 -12v-21z" />
    <glyph glyph-name="j" unicode="j" horiz-adv-x="296" 
d="M241 654q0 -37 -25 -61.5t-61 -24.5q-37 0 -62.5 24.5t-25.5 61.5t25.5 61.5t62.5 24.5q36 0 61 -24.5t25 -61.5zM237 46q0 -135 -62 -201q-68 -73 -160 -73q-132 0 -132 97q0 24 19.5 47.5t51.5 23.5q27 0 49 -16t22 -47q0 -28 -13 -76q10 -2 12 -2q40 0 54 50t14 161
v351q0 33 -26 53q-9 7 -38 14t-45 8v21l247 12l7 -7v-416z" />
    <glyph glyph-name="k" unicode="k" horiz-adv-x="542" 
d="M577 0h-214q-17 71 -53.5 144.5t-70.5 73.5q-12 0 -24 -14v-127q0 -33 21 -44q16 -10 43 -12v-21h-276v21q26 1 43 8q25 9 25 44v567q0 39 -26 57q-22 14 -67 17v20l231 12l6 -7v-506q103 101 146 155q12 16 12 30t-67 24v20h226v-20q-76 -20 -118 -52q-26 -19 -80 -75
q23 -11 44 -30.5t34.5 -37t29 -47.5t22.5 -46t20.5 -50t16.5 -42q11 -25 35 -33t41 -8v-21z" />
    <glyph glyph-name="l" unicode="l" horiz-adv-x="287" 
d="M285 0h-281v21q25 2 42 8q26 10 26 44v564q0 39 -27 58q-9 6 -32 12t-37 7v20l233 12l7 -7v-661q0 -33 26 -45q23 -10 43 -12v-21z" />
    <glyph glyph-name="m" unicode="m" horiz-adv-x="868" 
d="M866 0h-263v21q24 2 37 8q14 8 14 44v241q0 97 -57 97t-84 -57v-276q0 -34 17 -45q18 -11 35 -12v-21h-248v21q26 2 36 8q14 8 14 44v241q0 97 -55 97q-54 0 -86 -58v-275q0 -34 17 -45t34 -12v-21h-263v21q27 2 42 8q25 10 25 44v296q0 36 -26 53q-20 13 -48 15v20
l212 12l6 -7v-67h3q2 2 15 15.5t16.5 17t16 14t21 14t22 9.5t28.5 8t32 2q94 0 127 -84q0 1 2 1t3 1q21 22 30.5 31t30.5 24t44 21t53 6q65 0 98 -42t33 -115v-241q0 -32 23 -44q15 -9 43 -12v-21z" />
    <glyph glyph-name="n" unicode="n" horiz-adv-x="587" 
d="M585 0h-265v21q25 2 37 8q15 8 15 44v241q0 97 -58 97t-88 -60v-273q0 -35 17 -45q13 -8 38 -12v-21h-267v21q25 2 42 8q25 10 25 44v296q0 36 -26 53q-20 13 -48 15v20l212 12l7 -7v-69h2q1 1 11.5 12.5t13 13.5t12.5 12t14.5 12.5t15 9.5t18.5 9.5t19.5 6.5t23.5 5
t26 1q67 0 102 -42t35 -115v-241q0 -34 23 -44t43 -12v-21z" />
    <glyph glyph-name="o" unicode="o" horiz-adv-x="534" 
d="M516 234q0 -109 -65.5 -179t-186.5 -70q-105 0 -175.5 67t-70.5 179q0 108 68 176t182 68q115 0 181.5 -67t66.5 -174zM355 235q0 216 -86 216q-89 0 -89 -214q0 -226 88 -226q87 0 87 224z" />
    <glyph glyph-name="p" unicode="p" horiz-adv-x="562" 
d="M543 227q0 -101 -64.5 -170t-151.5 -69q-66 0 -108 31h-4v-161q0 -35 28 -46q31 -12 73 -17v-21h-325v21q36 2 55 10q25 9 25 46v520q0 33 -25 50q-21 14 -53 16v20l216 12l7 -6v-52l4 -1q57 65 128 65q86 0 140.5 -68.5t54.5 -179.5zM384 226q0 80 -22 135t-73 55
q-43 0 -74 -39v-287q23 -72 79 -72q42 0 66 55.5t24 152.5z" />
    <glyph glyph-name="q" unicode="q" horiz-adv-x="552" 
d="M580 -226h-316v21q37 2 59 10q26 10 26 46v197l-4 1q-58 -61 -126 -61q-90 0 -145 67.5t-55 180.5q0 105 68 172t172 67q94 0 173 -43l52 59l17 -5q-1 -13 -3 -45t-3.5 -61t-1.5 -52v-469q0 -35 27 -48q22 -11 60 -16v-21zM349 84v286q-4 15 -8.5 26.5t-13 24.5t-23 20
t-33.5 7q-41 0 -67 -60.5t-26 -157.5q0 -81 23 -133.5t74 -52.5q27 0 42 9t32 31z" />
    <glyph glyph-name="r" unicode="r" horiz-adv-x="437" 
d="M444 382q0 -36 -21.5 -61t-55.5 -25q-33 0 -53.5 17.5t-20.5 47.5q0 8 2 17t5.5 18t4.5 13q-28 -1 -49 -16.5t-30 -31.5v-284q0 -33 27 -44q20 -9 66 -12v-21h-305v21q25 2 42 8q25 9 25 44v296q0 34 -26 53q-18 13 -50 15v20l214 12l7 -7v-67h2q60 78 129 78
q38 0 62.5 -25t24.5 -66z" />
    <glyph glyph-name="s" unicode="s" horiz-adv-x="411" 
d="M397 140q0 -73 -54 -114t-138 -41q-43 0 -80.5 14t-56.5 29l-18 -34h-30l-5 173h20q19 -56 63.5 -106t99.5 -50q75 0 75 77q0 35 -26.5 53t-87.5 39q-60 21 -95.5 56t-35.5 98q0 60 48 100.5t129 40.5q67 0 121 -27l13 28h29l6 -158h-19q-17 53 -55.5 92t-79.5 39
q-34 0 -50.5 -18.5t-16.5 -48.5q0 -36 22 -51.5t88 -37.5q134 -44 134 -153z" />
    <glyph glyph-name="t" unicode="t" horiz-adv-x="342" 
d="M353 140q-2 -67 -36.5 -110t-108.5 -43q-68 0 -103 37.5t-35 105.5v288h-85v43h87v145h142v-145h126v-43h-126v-281q0 -81 58 -81q32 0 42.5 21.5t12.5 62.5h26z" />
    <glyph glyph-name="u" unicode="u" horiz-adv-x="571" 
d="M573 10l-211 -14l-7 7v62h-3q-22 -25 -37.5 -38.5t-47.5 -26.5t-71 -13q-65 0 -96.5 44t-31.5 119v220q0 33 -26 51q-20 13 -50 15v21l216 12l6 -7v-319q0 -95 56 -95q55 0 84 56v267q0 32 -22 49q-16 13 -58 15v22l217 12l7 -7v-369q0 -31 25 -49q16 -12 50 -14v-20z
" />
    <glyph glyph-name="v" unicode="v" horiz-adv-x="455" 
d="M493 442q-57 -10 -76 -58q-10 -22 -53 -134t-52 -133q-17 -39 -42 -123h-75q-141 365 -155 398q-17 42 -69 49v21h274v-21q-56 -3 -56 -23q0 -4 6 -21q6 -19 44.5 -119.5t50.5 -129.5l2 -4q8 19 43 114t38 102q10 26 10 45q-1 24 -74 37v20h184v-20z" />
    <glyph glyph-name="w" unicode="w" horiz-adv-x="720" 
d="M758 443q-57 -11 -76 -59l-105 -267q-28 -74 -43 -123h-67q-8 22 -48 136t-53 149q-12 -21 -62 -162q-28 -79 -40 -123h-72q-12 30 -73 193t-78 204q-18 45 -69 50v21h261v-21q-45 -2 -45 -23q0 -4 6 -21q47 -142 89 -245l4 -3q7 16 34.5 91t28.5 79q-16 47 -27 72
q-14 45 -60 50v21h260v-21q-56 -3 -56 -24q0 -6 5 -20q1 -3 38.5 -111.5t47.5 -132.5l3 -3q7 16 38.5 103.5t38.5 105.5q10 24 10 45q0 25 -75 38v20h185v-19z" />
    <glyph glyph-name="x" unicode="x" horiz-adv-x="491" 
d="M508 0h-275v21q19 1 36 6t17 12q0 5 -10 25q-4 8 -33.5 57.5t-40.5 64.5q-45 -56 -78 -107q-15 -21 -15 -30q0 -11 22.5 -19t37.5 -9v-21h-183v20q63 18 94 57q2 3 24.5 30.5t47 58.5t34.5 44q-6 8 -59.5 93.5t-58.5 92.5q-26 41 -73 45v21h269v-21q-16 0 -31.5 -4
t-15.5 -10q0 -11 7 -22q44 -79 68 -112q6 9 32.5 47.5t32.5 46.5q12 17 12 28q0 14 -55 27v20h181v-20q-64 -17 -95 -56q-13 -13 -91 -117q1 -1 59.5 -94.5t66.5 -105.5q16 -24 31.5 -33.5t41.5 -14.5v-21z" />
    <glyph glyph-name="y" unicode="y" horiz-adv-x="455" 
d="M490 442q-57 -11 -75 -58q-22 -57 -157 -405q-44 -112 -87.5 -159.5t-103.5 -47.5q-33 0 -62 21.5t-29 64.5q0 28 21 50.5t53 22.5q25 0 46 -14.5t21 -46.5q0 -16 -4 -40q62 18 112 146q-17 35 -96.5 213.5t-89.5 202.5q-10 19 -29.5 32.5t-41.5 16.5v21h274v-21
q-55 -3 -55 -23q0 -2 7 -21q26 -65 102 -237l2 3q8 18 37.5 99.5t36.5 98.5q9 31 9 44q0 24 -74 37v20h183v-20z" />
    <glyph glyph-name="z" unicode="z" horiz-adv-x="427" 
d="M422 0h-418v22l245 410h-55q-64 0 -95 -14q-29 -13 -53 -107h-24v151h393v-18l-245 -414q24 -1 69 -1q39 0 77 4q38 5 51 38q9 22 32 102h23v-173z" />
    <glyph glyph-name="braceleft" unicode="{" horiz-adv-x="410" 
d="M378 -169q-115 0 -168.5 35t-53.5 136q0 20 8 64t8 65q0 75 -32 99.5t-109 30.5v53q78 7 109.5 31t31.5 99q0 21 -8 65t-8 64q0 101 53.5 136t168.5 35v-23q-35 -2 -49.5 -8.5t-22.5 -31t-8 -78.5q0 -20 4.5 -57t4.5 -57q0 -41 -11.5 -71.5t-27.5 -49t-46.5 -32.5
t-56 -21t-66.5 -15v-25q41 -8 66.5 -15t56 -21t46.5 -32.5t27.5 -49t11.5 -71.5q0 -20 -4.5 -57t-4.5 -57q0 -54 8 -78.5t22.5 -31t49.5 -8.5v-23z" />
    <glyph glyph-name="bar" unicode="|" horiz-adv-x="286" 
d="M171 -207h-56v953h56v-953z" />
    <glyph glyph-name="braceright" unicode="}" horiz-adv-x="410" 
d="M32 743q115 0 168.5 -35t53.5 -136q0 -20 -8 -64t-8 -65q0 -75 32 -99.5t109 -30.5v-53q-78 -7 -109.5 -31t-31.5 -99q0 -21 8 -65t8 -64q0 -101 -53.5 -136t-168.5 -35v23q35 2 49.5 8.5t22.5 31t8 78.5q0 20 -4.5 57t-4.5 57q0 41 11.5 71.5t27.5 49t46.5 32.5t56 21
t66.5 15v25q-41 8 -66.5 15t-56 21t-46.5 32.5t-27.5 49t-11.5 71.5q0 20 4.5 57t4.5 57q0 54 -8 78.5t-22.5 31t-49.5 8.5v23z" />
    <glyph glyph-name="asciitilde" unicode="~" 
d="M484 345q-15 -53 -52 -99t-86 -46q-44 0 -97.5 22t-75.5 22q-38 0 -59.5 -12.5t-38.5 -44.5l-20 7q15 54 51 99.5t87 45.5q41 0 95.5 -22t77.5 -22q38 0 59.5 12.5t38.5 44.5z" />
    <glyph glyph-name="nbspace" unicode="&#xa0;" horiz-adv-x="118" 
 />
    <glyph glyph-name="exclamdown" unicode="&#xa1;" horiz-adv-x="330" 
d="M165 519q-37 0 -63.5 25.5t-26.5 62.5t26.5 62.5t63.5 25.5t63.5 -25.5t26.5 -62.5t-26.5 -62.5t-63.5 -25.5zM78 77q0 51 75 395h26q6 -28 16 -75t15.5 -73t13 -63.5t12 -60.5t8.5 -49t6 -43.5t2 -30.5q0 -40 -24.5 -67.5t-62.5 -27.5t-62.5 27.5t-24.5 67.5z" />
    <glyph glyph-name="cent" unicode="&#xa2;" horiz-adv-x="483" 
d="M211 59l-41 -174l-28 6l41 175q-75 23 -113.5 85.5t-38.5 150.5q0 100 65 171t177 71q15 0 22 -1l30 128l29 -6l-29 -125q61 -8 95.5 -37t34.5 -72q0 -32 -16 -52t-49 -20q-29 0 -49.5 17t-20.5 45q0 25 8 45.5t8 25.5q-3 12 -18 19l-85 -357q30 -38 74 -38
q49 0 79.5 22.5t52.5 70.5l22 -14q-24 -61 -77 -101t-118 -40q-27 0 -55 5zM212 189l77 329q-5 1 -15 1q-38 0 -61.5 -52t-23.5 -157q0 -72 23 -121z" />
    <glyph glyph-name="sterling" unicode="&#xa3;" horiz-adv-x="750" 
d="M247 272h-160v33h159q2 169 84 281t222 112q106 0 158 -47.5t52 -118.5q0 -74 -48 -119.5t-140 -45.5q-60 0 -90.5 30.5t-30.5 82.5q0 43 21 91l25 -4q-17 -37 -17 -73q0 -98 84 -98q92 0 92 131q0 65 -28 105.5t-79 40.5q-81 0 -110.5 -64t-29.5 -222q0 -42 -8 -82h164
v-33h-172q-10 -34 -28 -71h192v-33h-210q-19 -31 -54 -76q20 -7 75 -30.5t88 -33t67 -9.5q41 0 67.5 10t40 32.5t18 38.5t9.5 49q1 8 2 12l29 -4q-6 -46 -21 -85.5t-44.5 -77t-81 -59.5t-119.5 -22q-17 0 -35.5 3.5t-40.5 12.5t-36.5 15.5t-42.5 20t-41 19.5
q-72 -82 -172 -82q-124 0 -124 89q0 47 57 91.5t124 44.5q68 0 146 -23q1 23 -2 64h-177v33h173q-6 53 -7 71zM203 -4q-91 40 -163 40q-35 0 -54.5 -16.5t-19.5 -40.5q0 -26 21.5 -36t68.5 -10q86 0 147 63z" />
    <glyph glyph-name="currency" unicode="&#xa4;" horiz-adv-x="585" 
d="M231 321v-22q0 -30 1 -44h160v-33h-157q10 -90 44 -140t91 -50q58 0 94.5 30.5t65.5 92.5l26 -12q-70 -157 -213 -157q-114 0 -183 62t-84 174h-76v33h73q-1 13 -1 40q0 5 0.5 14t0.5 12h-73v33h76q16 116 90.5 191t202.5 75q82 0 136 -37.5t54 -99.5q0 -47 -20 -67.5
t-49 -20.5q-31 0 -49.5 17t-18.5 42q0 21 17.5 47t17.5 40q-4 21 -29 37.5t-63 16.5q-57 0 -91.5 -62t-41.5 -179h200v-33h-201z" />
    <glyph glyph-name="yen" unicode="&#xa5;" horiz-adv-x="592" 
d="M613 585q-21 -2 -42 -16q-7 -4 -11.5 -7.5t-10 -8.5t-8 -8t-9.5 -12t-11 -14q-47 -59 -131 -212q-9 -17 -18 -42h148v-33h-155q-2 -22 -2 -24v-38h157v-33h-157v-53q0 -35 29 -48q25 -12 68 -14v-22h-351v22q53 3 73 10q14 5 22.5 18t8.5 29v58h-151v33h151v62h-151v33
h147q-5 16 -18 43q-23 51 -108 199q-27 47 -57 64q-21 12 -49 14v22h324v-22q-81 -5 -81 -27q0 -24 122 -239q18 28 44.5 69.5t39.5 62.5t28 45t21 35.5t6 15.5q0 32 -83 38v22h215v-22z" />
    <glyph glyph-name="brokenbar" unicode="&#xa6;" horiz-adv-x="287" 
d="M172 364h-57v382h57v-382zM172 -207h-57v392h57v-392z" />
    <glyph glyph-name="section" unicode="&#xa7;" horiz-adv-x="550" 
d="M436 338q43 -51 61 -84.5t18 -76.5q0 -47 -39 -77t-99 -44q48 -60 48 -135q0 -62 -47.5 -105t-132.5 -43q-49 0 -83.5 24.5t-46.5 51.5t-12 49q0 40 21 66.5t64 26.5q31 0 51 -23t20 -49q0 -25 -21 -49t-21 -33q0 -40 38 -40q29 0 46.5 27t17.5 76q0 33 -12 56t-45 68
q-22 29 -66 78.5t-62 70.5q-43 51 -61 84.5t-18 76.5q0 47 38.5 78.5t96.5 46.5q-45 59 -45 131q0 62 47.5 105t132.5 43q49 0 83.5 -24.5t46.5 -51.5t12 -49q0 -40 -21 -66.5t-64 -26.5q-31 0 -51 21.5t-20 48.5q0 25 21 50t21 34q0 40 -38 40q-29 0 -46.5 -27t-17.5 -76
q0 -33 12 -56t45 -68q22 -29 66 -78.5t62 -70.5zM362 254q-121 142 -151 179q-50 -25 -50 -77q0 -43 47 -99q127 -149 149 -176q52 22 52 74q0 43 -47 99z" />
    <glyph glyph-name="dieresis" unicode="&#xa8;" horiz-adv-x="500" 
d="M434 641q0 -32 -22 -55t-52 -23q-31 0 -52.5 23t-21.5 55t21.5 55t52.5 23q30 0 52 -23t22 -55zM214 641q0 -32 -22 -55t-52 -23q-31 0 -52.5 23t-21.5 55t21.5 55t52.5 23q30 0 52 -23t22 -55z" />
    <glyph glyph-name="copyright" unicode="&#xa9;" horiz-adv-x="950" 
d="M476 681q180 0 307.5 -126.5t127.5 -303.5q0 -117 -58 -216.5t-158.5 -157.5t-218.5 -58q-181 0 -309 126.5t-128 305.5q0 116 58 215t159 157t220 58zM476 643q-163 0 -277 -115t-114 -277q0 -164 114 -279.5t277 -115.5t276 115.5t113 279.5q0 162 -113.5 277
t-275.5 115zM673 153q-29 -66 -73.5 -103t-117.5 -37q-105 0 -172 64t-67 170q0 103 75 173t183 70q32 0 63 -10.5t42 -19.5l21 37h27l4 -181h-23q-49 144 -143 144q-43 0 -77 -53.5t-34 -154.5q0 -87 39 -141t97 -54q82 0 134 106z" />
    <glyph glyph-name="ordfeminine" unicode="&#xaa;" horiz-adv-x="330" 
d="M326 421q-3 -44 -18.5 -62t-53.5 -18q-22 0 -41.5 11.5t-29.5 29.5q-30 -42 -74 -42q-39 0 -60 17t-21 47q0 59 60 78q75 25 93 34v29q0 56 -31 56q-26 0 -47 -17q15 -30 15 -38q0 -13 -12.5 -23t-33.5 -10q-17 0 -26 12.5t-9 29.5q0 27 41.5 46t74.5 19q58 0 87.5 -17.5
t29.5 -70.5q0 -29 -2 -76t-2 -52q0 -26 24 -26q18 0 20 43h16zM297 229h-264v30h264v-30zM181 494q-33 -11 -47 -28.5t-14 -49.5q0 -45 21 -45q15 0 37 28z" />
    <glyph glyph-name="guillemotleft" unicode="&#xab;" 
d="M494 28l-16 -13q-53 43 -120.5 95.5t-81.5 63.5q-2 1 -6 4.5t-5.5 4.5t-4.5 4t-3.5 4t-2.5 4t-2.5 5.5t-1.5 6t-1 8v9.5q0 20 4.5 28t19.5 20q148 112 205 160l16 -13l-127 -197zM285 28l-16 -13q-53 43 -120.5 95.5t-81.5 63.5q-2 1 -6 4.5t-5.5 4.5t-4.5 4t-3.5 4
t-2.5 4t-2.5 5.5t-1.5 6t-1 8v9.5q0 20 4.5 28t19.5 20q148 112 205 160l16 -13l-127 -197z" />
    <glyph glyph-name="logicalnot" unicode="&#xac;" 
d="M497 39h-65v206h-403v58h468v-264z" />
    <glyph glyph-name="registered" unicode="&#xae;" horiz-adv-x="474" 
d="M237 703q77 0 129.5 -52.5t52.5 -129.5t-52.5 -129.5t-129.5 -52.5t-129.5 52.5t-52.5 129.5t52.5 129.5t129.5 52.5zM237 685q-69 0 -114.5 -47.5t-45.5 -116.5t45.5 -116.5t114.5 -47.5t114.5 47.5t45.5 116.5t-45.5 116.5t-114.5 47.5zM355 465q0 -22 -9.5 -32
t-32.5 -10q-42 0 -48 51q-2 17 -3.5 24t-10.5 15.5t-25 8.5h-12v-65q0 -11 9 -15q6 -3 20 -3v-13h-104v13q14 0 20 3q9 4 9 15v143q0 12 -9 15q-12 4 -20 4v12h110q71 0 71 -46q0 -40 -68 -52v-3q51 -7 56 -32q1 -4 4.5 -19.5t5.5 -23.5q4 -13 9 -13q18 0 18 23h10zM274 579
q0 24 -8.5 31.5t-27.5 7.5h-24v-82h16q44 0 44 43z" />
    <glyph glyph-name="macron" unicode="&#xaf;" horiz-adv-x="500" 
d="M415 585h-330v91h330v-91z" />
    <glyph glyph-name="degree" unicode="&#xb0;" horiz-adv-x="390" 
d="M358 560q0 -61 -48 -103.5t-117 -42.5q-72 0 -116.5 38t-44.5 107q0 65 48 108t113 43q72 0 118.5 -38t46.5 -112zM268 558q0 57 -20 89t-54 32q-33 0 -53 -32.5t-20 -83.5q0 -54 20.5 -86.5t54.5 -32.5q29 0 50.5 31t21.5 83z" />
    <glyph glyph-name="plusminus" unicode="&#xb1;" horiz-adv-x="878" 
d="M448 679q71 68 173 68q50 0 86 -19l93 18l7 -7v-661q0 -33 26 -45q23 -10 43 -12v-21h-263v21q27 1 38 10q12 10 12 42v493q-28 16 -28 48q0 6 0.5 11.5t2 11.5t2.5 9t4.5 8.5t4 7t5 8.5t5.5 8q-21 43 -54 43q-79 0 -87 -196v-64h102v-43h-101v-341q0 -29 14 -41
q12 -11 41 -15v-21h-269v21q26 2 43 8q26 10 26 44v345h-147v-341q0 -31 14 -42q12 -9 41 -14v-21h-269v21q26 2 43 8q26 10 26 44v345h-96v43h96v11q0 127 68 198q68 70 169 70q102 0 129 -61zM384 567q-73 5 -73 60q0 10 2 19.5t6 22t6 23.5q0 9 -6 15.5t-16 6.5
q-37 0 -55 -48t-22 -148v-57h148v18q0 51 10 88z" />
    <glyph glyph-name="twosuperior" unicode="&#xb2;" horiz-adv-x="617" 
d="M597 291q0 -31 -21.5 -52.5t-53.5 -21.5q-24 0 -56.5 23t-59.5 27l-9 -8q-6 -35 -39 -60l-1 -10q15 -20 53 -39q55 -26 55 -76q0 -30 -23 -53t-55 -23q-31 0 -53 21.5t-22 53.5q0 14 9 43t9 51v11l-7 5q-7 -1 -20 -1q-30 0 -56 18l-13 -1q-15 -22 -21 -61
q-14 -83 -78 -83q-31 0 -54 22.5t-23 54.5t24 53.5t59 21.5q49 0 74 13l3 14q-10 22 -10 43q0 13 3 25l-5 13q-9 3 -27 3q-15 0 -35 -3.5t-29 -3.5q-33 0 -55 22.5t-22 53.5t22 54t54 23q45 0 67 -42q4 -7 9 -24t11.5 -31.5t17.5 -25.5l15 1q28 30 69 30l11 7q0 28 -17 61.5
t-17 52.5q0 32 22 52.5t54 20.5t53 -22.5t21 -53.5q0 -22 -10 -37.5t-22.5 -23t-29 -22.5t-26.5 -33l4 -12q38 -20 48 -58l12 -6q23 8 54.5 39t63.5 31q30 0 51.5 -22.5t21.5 -54.5zM370 278q0 29 -19 48.5t-48 19.5q-28 0 -47.5 -19.5t-19.5 -48.5t19.5 -49.5t47.5 -20.5
q29 0 48 20t19 50z" />
    <glyph glyph-name="threesuperior" unicode="&#xb3;" horiz-adv-x="617" 
d="M597 291q0 -31 -21.5 -52.5t-53.5 -21.5q-24 0 -56.5 23t-59.5 27l-9 -8q-6 -35 -39 -60l-1 -10q15 -20 53 -39q55 -26 55 -76q0 -30 -23 -53t-55 -23q-31 0 -53 21.5t-22 53.5q0 14 9 43t9 51v11l-7 5q-7 -1 -20 -1q-30 0 -56 18l-13 -1q-15 -22 -21 -61
q-14 -83 -78 -83q-31 0 -54 22.5t-23 54.5t24 53.5t59 21.5q49 0 74 13l3 14q-10 22 -10 43q0 13 3 25l-5 13q-9 3 -27 3q-15 0 -35 -3.5t-29 -3.5q-33 0 -55 22.5t-22 53.5t22 54t54 23q45 0 67 -42q4 -7 9 -24t11.5 -31.5t17.5 -25.5l15 1q28 30 69 30l11 7q0 28 -17 61.5
t-17 52.5q0 32 22 52.5t54 20.5t53 -22.5t21 -53.5q0 -22 -10 -37.5t-22.5 -23t-29 -22.5t-26.5 -33l4 -12q38 -20 48 -58l12 -6q23 8 54.5 39t63.5 31q30 0 51.5 -22.5t21.5 -54.5zM370 278q0 29 -19 48.5t-48 19.5q-28 0 -47.5 -19.5t-19.5 -48.5t19.5 -49.5t47.5 -20.5
q29 0 48 20t19 50z" />
    <glyph glyph-name="acute" unicode="&#xb4;" horiz-adv-x="500" 
d="M390 704q0 -26 -15 -42t-51 -37q-107 -62 -154 -92l-14 16q47 63 98 146q20 31 37 45.5t41 14.5q27 0 42.5 -15t15.5 -36z" />
    <glyph glyph-name="mu" unicode="&#xb5;" horiz-adv-x="597" 
d="M612 119q-8 -128 -125 -128q-40 0 -78.5 18.5t-49.5 52.5h-3q-61 -72 -120 -72q-50 0 -76 12.5t-48 42.5h-2v-52q0 -33 19.5 -84t19.5 -77q0 -27 -18.5 -42.5t-41.5 -15.5q-21 0 -36 15.5t-15 39.5q0 23 12 75t13 61q5 40 5 98v389h148v-314q0 -90 60 -90q25 0 47 15
t33 33v356h148v-357q0 -52 27 -52t41.5 22t17.5 54h22z" />
    <glyph glyph-name="paragraph" unicode="&#xb6;" horiz-adv-x="609" 
d="M593 661h-142v-786h-28v786h-86v-786h-28v467h-30q-64 0 -109.5 14.5t-68.5 40t-33 53t-10 60.5q0 67 45.5 120t140.5 53h349v-22z" />
    <glyph glyph-name="periodcentered" unicode="&#xb7;" horiz-adv-x="270" 
d="M135 359q37 0 63.5 -25.5t26.5 -62.5t-26.5 -62.5t-63.5 -25.5t-63.5 25.5t-26.5 62.5t26.5 62.5t63.5 25.5z" />
    <glyph glyph-name="cedilla" unicode="&#xb8;" horiz-adv-x="500" 
d="M228 9v-52q67 -3 100.5 -22.5t33.5 -65.5q0 -61 -56 -83t-168 -22v28h32.5t28.5 1.5t28 5t19.5 9.5t16 16.5t4.5 25.5q0 21 -16.5 28t-50.5 7v124h28z" />
    <glyph glyph-name="onesuperior" unicode="&#xb9;" horiz-adv-x="617" 
d="M597 291q0 -31 -21.5 -52.5t-53.5 -21.5q-24 0 -56.5 23t-59.5 27l-9 -8q-6 -35 -39 -60l-1 -10q15 -20 53 -39q55 -26 55 -76q0 -30 -23 -53t-55 -23q-31 0 -53 21.5t-22 53.5q0 14 9 43t9 51v11l-7 5q-7 -1 -20 -1q-30 0 -56 18l-13 -1q-15 -22 -21 -61
q-14 -83 -78 -83q-31 0 -54 22.5t-23 54.5t24 53.5t59 21.5q49 0 74 13l3 14q-10 22 -10 43q0 13 3 25l-5 13q-9 3 -27 3q-15 0 -35 -3.5t-29 -3.5q-33 0 -55 22.5t-22 53.5t22 54t54 23q45 0 67 -42q4 -7 9 -24t11.5 -31.5t17.5 -25.5l15 1q28 30 69 30l11 7q0 28 -17 61.5
t-17 52.5q0 32 22 52.5t54 20.5t53 -22.5t21 -53.5q0 -22 -10 -37.5t-22.5 -23t-29 -22.5t-26.5 -33l4 -12q38 -20 48 -58l12 -6q23 8 54.5 39t63.5 31q30 0 51.5 -22.5t21.5 -54.5zM370 278q0 29 -19 48.5t-48 19.5q-28 0 -47.5 -19.5t-19.5 -48.5t19.5 -49.5t47.5 -20.5
q29 0 48 20t19 50z" />
    <glyph glyph-name="ordmasculine" unicode="&#xba;" horiz-adv-x="348" 
d="M325 481q0 -64 -38.5 -104.5t-114.5 -40.5q-67 0 -108 38t-41 103t39.5 104t112.5 39t111.5 -38.5t38.5 -100.5zM313 229h-279v30h279v-30zM228 480q0 117 -53 117q-56 0 -56 -116q0 -122 56 -122q53 0 53 121z" />
    <glyph glyph-name="guillemotright" unicode="&#xbb;" 
d="M255 418l16 13q53 -43 120.5 -95.5t81.5 -63.5q2 -1 6 -4.5t5.5 -4.5t4.5 -4t3.5 -4t2.5 -4t2.5 -5.5t1.5 -6t1 -8v-9.5q0 -20 -4.5 -28t-19.5 -20q-148 -112 -205 -160l-16 13l127 197zM46 418l16 13q53 -43 120.5 -95.5t81.5 -63.5q2 -1 6 -4.5t5.5 -4.5t4.5 -4t3.5 -4
t2.5 -4t2.5 -5.5t1.5 -6t1 -8v-9.5q0 -20 -4.5 -28t-19.5 -20q-148 -112 -205 -160l-16 13l127 197z" />
    <glyph glyph-name="onequarter" unicode="&#xbc;" horiz-adv-x="575" 
d="M443 339h-297v22q55 4 70 6q9 2 16.5 11t7.5 21v284q-14 -3 -36 -3q-33 0 -90 41l8 15q43 -16 84 -16q32 0 78 9.5t65 19.5h14q-11 -53 -11 -102v-245q0 -24 23 -32q23 -9 68 -9v-22zM542 279v-41h-509v41h509zM504 -162h-18q-2 38 -22 54q-10 7 -69 7v-64q0 -24 20 -31
q17 -7 50 -9v-22h-248v22q40 3 50 6q21 6 21 30v68h-212v37l250 248h69v-247h18.5h15h11t10 1t7.5 3t8 5q20 15 20 49h19v-157zM288 -63v170l-175 -170h175z" />
    <glyph glyph-name="onehalf" unicode="&#xbd;" horiz-adv-x="575" 
d="M443 339h-297v22q55 4 70 6q9 2 16.5 11t7.5 21v284q-14 -3 -36 -3q-33 0 -90 41l8 15q43 -16 84 -16q32 0 78 9.5t65 19.5h14q-11 -53 -11 -102v-245q0 -24 23 -32q23 -9 68 -9v-22zM542 279v-41h-509v41h509zM508 -85l-58 -142h-342v34q135 79 187 126q73 67 73 153
q0 33 -18 52.5t-47 19.5q-47 0 -77.5 -32.5t-30.5 -72.5q0 -22 9.5 -33t36.5 -11q37 0 72 57l16 -13q-15 -25 -27.5 -41.5t-41 -34.5t-62.5 -18q-93 0 -93 77q0 52 56.5 99t150.5 47q80 0 125 -32.5t45 -88.5q0 -64 -49 -103t-167 -84l-35 -21h178q24 0 41 17t41 53z" />
    <glyph glyph-name="threequarters" unicode="&#xbe;" horiz-adv-x="575" 
d="M299 642l13 -14q-17 -22 -45 -40t-60 -18q-82 0 -82 61q0 47 56.5 81t143.5 34q146 0 146 -88q0 -68 -139 -93q147 0 147 -87q0 -65 -66.5 -105.5t-168.5 -40.5q-66 0 -111.5 24t-45.5 72q0 30 21.5 51.5t50.5 21.5q23 0 37 -12t14 -32q0 -14 -9 -23t-19 -13t-19 -9.5
t-9 -12.5q0 -19 22.5 -30.5t64.5 -11.5q46 0 84 37t38 87q0 62 -54 62q-27 0 -71 -41l-19 27q40 21 55 30t40.5 28t35 38.5t9.5 43.5q0 53 -52 53q-32 0 -60 -20.5t-28 -55.5q0 -32 31 -32q13 0 21.5 4t17.5 14t10 10zM542 279v-41h-509v41h509zM504 -162h-18q-2 38 -22 54
q-10 7 -69 7v-64q0 -24 20 -31q17 -7 50 -9v-22h-248v22q40 3 50 6q21 6 21 30v68h-212v37l250 248h69v-247h18.5h15h11t10 1t7.5 3t8 5q20 15 20 49h19v-157zM288 -63v170l-175 -170h175z" />
    <glyph glyph-name="questiondown" unicode="&#xbf;" horiz-adv-x="504" 
d="M204 608q0 36 25.5 61.5t61.5 25.5t61.5 -25.5t25.5 -61.5t-25.5 -62t-61.5 -26t-61.5 26t-25.5 62zM38 179q0 96 65.5 156.5t172.5 69.5l4 69h27v-186q-135 -14 -135 -151q0 -60 26 -93t70 -33q46 0 69 29q-1 2 -6.5 12.5t-9 18t-6.5 20t-3 23.5q0 38 21.5 60.5
t58.5 22.5q39 0 58.5 -22.5t19.5 -59.5q0 -53 -61 -92.5t-147 -39.5q-100 0 -162 52.5t-62 143.5z" />
    <glyph glyph-name="Agrave" unicode="&#xc0;" horiz-adv-x="683" 
d="M715 0h-369v23q35 3 66.5 13t31.5 27q0 11 -4 21l-56 149h-215q-3 -8 -32 -95q-12 -35 -12 -62q0 -23 36 -36.5t73 -16.5v-23h-270v23q44 5 64 18q32 21 56 78q18 45 117 300.5t106 274.5h76q25 -63 124 -324t107 -281q12 -30 40 -47q24 -15 61 -19v-23zM369 272l-94 242
l-91 -242h185zM201 895q0 21 15.5 36t42.5 15q24 0 41 -14.5t37 -45.5q51 -83 98 -146l-14 -16q-47 30 -154 92q-36 21 -51 37t-15 42z" />
    <glyph glyph-name="Aacute" unicode="&#xc1;" horiz-adv-x="683" 
d="M715 0h-369v23q35 3 66.5 13t31.5 27q0 11 -4 21l-56 149h-215q-3 -8 -32 -95q-12 -35 -12 -62q0 -23 36 -36.5t73 -16.5v-23h-270v23q44 5 64 18q32 21 56 78q18 45 117 300.5t106 274.5h76q25 -63 124 -324t107 -281q12 -30 40 -47q24 -15 61 -19v-23zM369 272l-94 242
l-91 -242h185zM481 895q0 -26 -15 -42t-51 -37q-107 -62 -154 -92l-14 16q47 63 98 146q20 31 37 45.5t41 14.5q27 0 42.5 -15t15.5 -36z" />
    <glyph glyph-name="Acircumflex" unicode="&#xc2;" horiz-adv-x="683" 
d="M715 0h-369v23q35 3 66.5 13t31.5 27q0 11 -4 21l-56 149h-215q-3 -8 -32 -95q-12 -35 -12 -62q0 -23 36 -36.5t73 -16.5v-23h-270v23q44 5 64 18q32 21 56 78q18 45 117 300.5t106 274.5h76q25 -63 124 -324t107 -281q12 -30 40 -47q24 -15 61 -19v-23zM369 272l-94 242
l-91 -242h185zM507 739l-19 -14l-148 122l-146 -122l-18 14q58 100 109 180q7 12 19 16t38 4q43 0 55 -18q55 -84 110 -182z" />
    <glyph glyph-name="Atilde" unicode="&#xc3;" horiz-adv-x="683" 
d="M715 0h-369v23q35 3 66.5 13t31.5 27q0 11 -4 21l-56 149h-215q-3 -8 -32 -95q-12 -35 -12 -62q0 -23 36 -36.5t73 -16.5v-23h-270v23q44 5 64 18q32 21 56 78q18 45 117 300.5t106 274.5h76q25 -63 124 -324t107 -281q12 -30 40 -47q24 -15 61 -19v-23zM369 272l-94 242
l-91 -242h185zM540 896q-15 -52 -51 -97t-88 -45q-38 0 -87.5 26t-73.5 26q-22 0 -36.5 -15.5t-32.5 -53.5l-29 11q11 31 26 59.5t45 55t64 26.5q40 0 89.5 -25.5t66.5 -25.5q19 0 30.5 3t20 14t12.5 19.5t13 30.5z" />
    <glyph glyph-name="Adieresis" unicode="&#xc4;" horiz-adv-x="683" 
d="M715 0h-369v23q35 3 66.5 13t31.5 27q0 11 -4 21l-56 149h-215q-3 -8 -32 -95q-12 -35 -12 -62q0 -23 36 -36.5t73 -16.5v-23h-270v23q44 5 64 18q32 21 56 78q18 45 117 300.5t106 274.5h76q25 -63 124 -324t107 -281q12 -30 40 -47q24 -15 61 -19v-23zM369 272l-94 242
l-91 -242h185zM525 832q0 -32 -22 -55t-52 -23q-31 0 -52.5 23t-21.5 55t21.5 55t52.5 23q30 0 52 -23t22 -55zM305 832q0 -32 -22 -55t-52 -23q-31 0 -52.5 23t-21.5 55t21.5 55t52.5 23q30 0 52 -23t22 -55z" />
    <glyph glyph-name="Aring" unicode="&#xc5;" horiz-adv-x="683" 
d="M715 0h-369v23q35 3 66.5 13t31.5 27q0 11 -4 21l-56 149h-215q-3 -8 -32 -95q-12 -35 -12 -62q0 -23 36 -36.5t73 -16.5v-23h-270v23q44 5 64 18q32 21 56 78q18 45 117 300.5t106 274.5h76q25 -63 124 -324t107 -281q12 -30 40 -47q24 -15 61 -19v-23zM369 272l-94 242
l-91 -242h185zM470 823q0 -47 -35.5 -77t-93.5 -30q-59 0 -94 29t-35 78q0 47 37.5 77t91.5 30q56 0 92.5 -29.5t36.5 -77.5zM399 823q0 33 -15 55.5t-43 22.5t-43 -21.5t-15 -56.5q0 -34 15 -56t43 -22t43 21.5t15 56.5z" />
    <glyph glyph-name="AE" unicode="&#xc6;" horiz-adv-x="995" 
d="M239 274q-60 -110 -76 -142q-20 -40 -20 -61q0 -22 32.5 -33.5t66.5 -13.5v-24h-278v22q42 2 74 19q38 19 106 140q8 15 104 185.5t156 277.5q-43 15 -81 17v22h618v-179h-26q-14 44 -48.5 91t-70.5 52q-40 5 -81 5h-89v-282h60q60 0 88 28q29 29 39 96h26v-285h-26
q-3 25 -15 56.5t-24 44.5q-25 27 -88 27h-60v-221q0 -55 19 -70t87 -15q120 0 144 24q45 44 92 154h24l-13 -209h-630v22q56 3 79 12q31 12 31 49v191h-220zM261 313h198v332h-12q-16 -26 -186 -332z" />
    <glyph glyph-name="Ccedilla" unicode="&#xc7;" horiz-adv-x="654" 
d="M309 -11q-127 17 -208 108.5t-81 236.5q0 162 100.5 264t255.5 102q91 0 177 -45l26 37h34l4 -256h-28q-35 114 -88.5 173t-119.5 59q-86 0 -130.5 -85t-44.5 -232q0 -153 51 -231.5t141 -78.5q74 0 125.5 38t93.5 114l27 -14q-36 -86 -107.5 -140t-174.5 -54
q-17 0 -25 1v-29q67 -3 100.5 -22.5t33.5 -65.5q0 -61 -56 -83t-168 -22v28h32.5t28.5 1.5t28 5t19.5 9.5t16 16.5t4.5 25.5q0 21 -16.5 28t-50.5 7v104z" />
    <glyph glyph-name="Egrave" unicode="&#xc8;" horiz-adv-x="654" 
d="M651 209l-13 -209h-626v23q61 7 76 13q30 11 30 49v506q0 38 -30 50q-40 15 -76 19v23h588v-179h-26q-14 44 -48.5 91t-70.5 52q-40 5 -81 5h-89v-282h60q60 0 88 28q29 29 39 96h26v-285h-26q-3 25 -15 56.5t-24 44.5q-25 27 -88 27h-60v-221q0 -55 19 -70t87 -15
q120 0 144 24q45 44 92 154h24zM187 895q0 21 15.5 36t42.5 15q24 0 41 -14.5t37 -45.5q51 -83 98 -146l-14 -16q-47 30 -154 92q-36 21 -51 37t-15 42z" />
    <glyph glyph-name="Eacute" unicode="&#xc9;" horiz-adv-x="654" 
d="M651 209l-13 -209h-626v23q61 7 76 13q30 11 30 49v506q0 38 -30 50q-40 15 -76 19v23h588v-179h-26q-14 44 -48.5 91t-70.5 52q-40 5 -81 5h-89v-282h60q60 0 88 28q29 29 39 96h26v-285h-26q-3 25 -15 56.5t-24 44.5q-25 27 -88 27h-60v-221q0 -55 19 -70t87 -15
q120 0 144 24q45 44 92 154h24zM467 895q0 -26 -15 -42t-51 -37q-107 -62 -154 -92l-14 16q47 63 98 146q20 31 37 45.5t41 14.5q27 0 42.5 -15t15.5 -36z" />
    <glyph glyph-name="Ecircumflex" unicode="&#xca;" horiz-adv-x="654" 
d="M651 209l-13 -209h-626v23q61 7 76 13q30 11 30 49v506q0 38 -30 50q-40 15 -76 19v23h588v-179h-26q-14 44 -48.5 91t-70.5 52q-40 5 -81 5h-89v-282h60q60 0 88 28q29 29 39 96h26v-285h-26q-3 25 -15 56.5t-24 44.5q-25 27 -88 27h-60v-221q0 -55 19 -70t87 -15
q120 0 144 24q45 44 92 154h24zM493 739l-19 -14l-148 122l-146 -122l-18 14q58 100 109 180q7 12 19 16t38 4q43 0 55 -18q55 -84 110 -182z" />
    <glyph glyph-name="Edieresis" unicode="&#xcb;" horiz-adv-x="654" 
d="M651 209l-13 -209h-626v23q61 7 76 13q30 11 30 49v506q0 38 -30 50q-40 15 -76 19v23h588v-179h-26q-14 44 -48.5 91t-70.5 52q-40 5 -81 5h-89v-282h60q60 0 88 28q29 29 39 96h26v-285h-26q-3 25 -15 56.5t-24 44.5q-25 27 -88 27h-60v-221q0 -55 19 -70t87 -15
q120 0 144 24q45 44 92 154h24zM511 832q0 -32 -22 -55t-52 -23q-31 0 -52.5 23t-21.5 55t21.5 55t52.5 23q30 0 52 -23t22 -55zM291 832q0 -32 -22 -55t-52 -23q-31 0 -52.5 23t-21.5 55t21.5 55t52.5 23q30 0 52 -23t22 -55z" />
    <glyph glyph-name="Igrave" unicode="&#xcc;" horiz-adv-x="407" 
d="M388 0h-369v23q51 3 71 11q30 11 30 49v509q0 36 -30 49q-38 16 -71 19v23h369v-23q-43 -5 -71 -14q-30 -10 -30 -49v-509q0 -35 30 -49q26 -11 71 -16v-23zM63 895q0 21 15.5 36t42.5 15q24 0 41 -14.5t37 -45.5q51 -83 98 -146l-14 -16q-47 30 -154 92q-36 21 -51 37
t-15 42z" />
    <glyph glyph-name="Iacute" unicode="&#xcd;" horiz-adv-x="407" 
d="M388 0h-369v23q51 3 71 11q30 11 30 49v509q0 36 -30 49q-38 16 -71 19v23h369v-23q-43 -5 -71 -14q-30 -10 -30 -49v-509q0 -35 30 -49q26 -11 71 -16v-23zM343 895q0 -26 -15 -42t-51 -37q-107 -62 -154 -92l-14 16q47 63 98 146q20 31 37 45.5t41 14.5q27 0 42.5 -15
t15.5 -36z" />
    <glyph glyph-name="Icircumflex" unicode="&#xce;" horiz-adv-x="407" 
d="M388 0h-369v23q51 3 71 11q30 11 30 49v509q0 36 -30 49q-38 16 -71 19v23h369v-23q-43 -5 -71 -14q-30 -10 -30 -49v-509q0 -35 30 -49q26 -11 71 -16v-23zM369 739l-19 -14l-148 122l-146 -122l-18 14q58 100 109 180q7 12 19 16t38 4q43 0 55 -18q55 -84 110 -182z
" />
    <glyph glyph-name="Idieresis" unicode="&#xcf;" horiz-adv-x="407" 
d="M388 0h-369v23q51 3 71 11q30 11 30 49v509q0 36 -30 49q-38 16 -71 19v23h369v-23q-43 -5 -71 -14q-30 -10 -30 -49v-509q0 -35 30 -49q26 -11 71 -16v-23zM387 832q0 -32 -22 -55t-52 -23q-31 0 -52.5 23t-21.5 55t21.5 55t52.5 23q30 0 52 -23t22 -55zM167 832
q0 -32 -22 -55t-52 -23q-31 0 -52.5 23t-21.5 55t21.5 55t52.5 23q30 0 52 -23t22 -55z" />
    <glyph glyph-name="Eth" unicode="&#xd0;" horiz-adv-x="760" 
d="M118 339h-70v33h70v220q0 37 -29 51q-25 12 -69 17v23h340q47 0 95 -9.5t100 -34t92 -62t66 -100t26 -140.5q0 -84 -33.5 -150.5t-90.5 -106t-126.5 -60t-147.5 -20.5h-324v23q50 2 72 11q29 11 29 49v256zM285 372h108v-33h-108v-243q0 -64 80 -64q97 0 142 81.5
t45 224.5q0 139 -55.5 226t-149.5 87q-26 0 -62 -2v-277z" />
    <glyph glyph-name="Ntilde" unicode="&#xd1;" horiz-adv-x="750" 
d="M762 660l-16 -2q-17 -3 -27.5 -5.5t-25 -7.5t-22.5 -11q-32 -25 -32 -136v-501h-68l-412 532v-338q0 -109 33 -137q11 -9 43.5 -19t48.5 -12v-23h-288v23l16 3q17 2 27 4.5t24.5 7.5t22.5 11q32 24 32 137v347q0 48 -31 79t-94 46v25h249l357 -461v270q0 108 -34 137
q-11 9 -43.5 19t-49.5 12v23h290v-23zM574 896q-15 -52 -51 -97t-88 -45q-38 0 -87.5 26t-73.5 26q-22 0 -36.5 -15.5t-32.5 -53.5l-29 11q11 31 26 59.5t45 55t64 26.5q40 0 89.5 -25.5t66.5 -25.5q19 0 30.5 3t20 14t12.5 19.5t13 30.5z" />
    <glyph glyph-name="Ograve" unicode="&#xd2;" horiz-adv-x="759" 
d="M738 346q0 -174 -113 -276q-97 -88 -249 -88q-149 0 -250 95q-105 99 -105 257q0 175 115 277q101 90 244 90q148 0 247 -90q111 -101 111 -265zM550 343q0 63 -8.5 117t-27 102.5t-53 76.5t-81.5 28q-84 0 -127.5 -87.5t-43.5 -240.5q0 -91 16 -161t55.5 -116t99.5 -46
q59 0 98.5 45.5t55.5 116.5t16 165zM240 895q0 21 15.5 36t42.5 15q24 0 41 -14.5t37 -45.5q51 -83 98 -146l-14 -16q-47 30 -154 92q-36 21 -51 37t-15 42z" />
    <glyph glyph-name="Oacute" unicode="&#xd3;" horiz-adv-x="759" 
d="M738 346q0 -174 -113 -276q-97 -88 -249 -88q-149 0 -250 95q-105 99 -105 257q0 175 115 277q101 90 244 90q148 0 247 -90q111 -101 111 -265zM550 343q0 63 -8.5 117t-27 102.5t-53 76.5t-81.5 28q-84 0 -127.5 -87.5t-43.5 -240.5q0 -91 16 -161t55.5 -116t99.5 -46
q59 0 98.5 45.5t55.5 116.5t16 165zM520 895q0 -26 -15 -42t-51 -37q-107 -62 -154 -92l-14 16q47 63 98 146q20 31 37 45.5t41 14.5q27 0 42.5 -15t15.5 -36z" />
    <glyph glyph-name="Ocircumflex" unicode="&#xd4;" horiz-adv-x="759" 
d="M738 346q0 -174 -113 -276q-97 -88 -249 -88q-149 0 -250 95q-105 99 -105 257q0 175 115 277q101 90 244 90q148 0 247 -90q111 -101 111 -265zM550 343q0 63 -8.5 117t-27 102.5t-53 76.5t-81.5 28q-84 0 -127.5 -87.5t-43.5 -240.5q0 -91 16 -161t55.5 -116t99.5 -46
q59 0 98.5 45.5t55.5 116.5t16 165zM546 739l-19 -14l-148 122l-146 -122l-18 14q58 100 109 180q12 20 57 20q43 0 55 -18q55 -84 110 -182z" />
    <glyph glyph-name="Otilde" unicode="&#xd5;" horiz-adv-x="759" 
d="M738 346q0 -174 -113 -276q-97 -88 -249 -88q-149 0 -250 95q-105 99 -105 257q0 175 115 277q101 90 244 90q148 0 247 -90q111 -101 111 -265zM550 343q0 63 -8.5 117t-27 102.5t-53 76.5t-81.5 28q-84 0 -127.5 -87.5t-43.5 -240.5q0 -91 16 -161t55.5 -116t99.5 -46
q59 0 98.5 45.5t55.5 116.5t16 165zM579 896q-15 -52 -51 -97t-88 -45q-38 0 -87.5 26t-73.5 26q-22 0 -36.5 -15.5t-32.5 -53.5l-29 11q11 31 26 59.5t45 55t64 26.5q40 0 89.5 -25.5t66.5 -25.5q19 0 30.5 3t20 14t12.5 19.5t13 30.5z" />
    <glyph glyph-name="Odieresis" unicode="&#xd6;" horiz-adv-x="759" 
d="M738 346q0 -174 -113 -276q-97 -88 -249 -88q-149 0 -250 95q-105 99 -105 257q0 175 115 277q101 90 244 90q148 0 247 -90q111 -101 111 -265zM550 343q0 63 -8.5 117t-27 102.5t-53 76.5t-81.5 28q-84 0 -127.5 -87.5t-43.5 -240.5q0 -91 16 -161t55.5 -116t99.5 -46
q59 0 98.5 45.5t55.5 116.5t16 165zM564 832q0 -32 -22 -55t-52 -23q-31 0 -52.5 23t-21.5 55t21.5 55t52.5 23q30 0 52 -23t22 -55zM344 832q0 -32 -22 -55t-52 -23q-31 0 -52.5 23t-21.5 55t21.5 55t52.5 23q30 0 52 -23t22 -55z" />
    <glyph glyph-name="multiply" unicode="&#xd7;" 
d="M443 473l44 -44l-171 -171l170 -170l-41 -41l-170 170l-178 -178l-44 44l178 178l-170 170l41 41l170 -170z" />
    <glyph glyph-name="Oslash" unicode="&#xd8;" horiz-adv-x="760" 
d="M119 84q-97 99 -97 250q0 175 115 277q101 90 244 90q126 0 221 -69l80 91l32 -25l-81 -92q106 -99 106 -260q0 -174 -113 -276q-97 -88 -249 -88q-132 0 -228 76l-91 -102l-31 24zM222 201l301 342q-43 124 -142 124q-84 0 -127.5 -87.5t-43.5 -240.5q0 -75 12 -138z
M536 497l-303 -343q42 -138 148 -138q59 0 98.5 45.5t55.5 116.5t16 165q0 87 -15 154z" />
    <glyph glyph-name="Ugrave" unicode="&#xd9;" horiz-adv-x="753" 
d="M765 660q-2 0 -17 -2.5t-26 -4.5t-25.5 -7t-22.5 -11q-18 -13 -25 -43.5t-7 -93.5v-270q0 -117 -70.5 -180.5t-181.5 -63.5q-136 0 -210.5 66t-74.5 178v366q0 34 -30 50q-16 9 -68 16v23h366v-23q-49 -6 -69 -12q-31 -10 -31 -49v-371q0 -102 38.5 -148t119.5 -46
q80 0 125.5 51.5t45.5 147.5v259q0 108 -33 136q-11 9 -44 19.5t-49 12.5v23h289v-23zM236 895q0 21 15.5 36t42.5 15q24 0 41 -14.5t37 -45.5q51 -83 98 -146l-14 -16q-47 30 -154 92q-36 21 -51 37t-15 42z" />
    <glyph glyph-name="Uacute" unicode="&#xda;" horiz-adv-x="753" 
d="M765 660q-2 0 -17 -2.5t-26 -4.5t-25.5 -7t-22.5 -11q-18 -13 -25 -43.5t-7 -93.5v-270q0 -117 -70.5 -180.5t-181.5 -63.5q-136 0 -210.5 66t-74.5 178v366q0 34 -30 50q-16 9 -68 16v23h366v-23q-49 -6 -69 -12q-31 -10 -31 -49v-371q0 -102 38.5 -148t119.5 -46
q80 0 125.5 51.5t45.5 147.5v259q0 108 -33 136q-11 9 -44 19.5t-49 12.5v23h289v-23zM516 895q0 -26 -15 -42t-51 -37q-107 -62 -154 -92l-14 16q47 63 98 146q20 31 37 45.5t41 14.5q27 0 42.5 -15t15.5 -36z" />
    <glyph glyph-name="Ucircumflex" unicode="&#xdb;" horiz-adv-x="753" 
d="M765 660q-2 0 -17 -2.5t-26 -4.5t-25.5 -7t-22.5 -11q-18 -13 -25 -43.5t-7 -93.5v-270q0 -117 -70.5 -180.5t-181.5 -63.5q-136 0 -210.5 66t-74.5 178v366q0 34 -30 50q-16 9 -68 16v23h366v-23q-49 -6 -69 -12q-31 -10 -31 -49v-371q0 -102 38.5 -148t119.5 -46
q80 0 125.5 51.5t45.5 147.5v259q0 108 -33 136q-11 9 -44 19.5t-49 12.5v23h289v-23zM542 739l-19 -14l-148 122l-146 -122l-18 14q58 100 109 180q12 20 57 20q43 0 55 -18q55 -84 110 -182z" />
    <glyph glyph-name="Udieresis" unicode="&#xdc;" horiz-adv-x="753" 
d="M765 660q-2 0 -17 -2.5t-26 -4.5t-25.5 -7t-22.5 -11q-18 -13 -25 -43.5t-7 -93.5v-270q0 -117 -70.5 -180.5t-181.5 -63.5q-136 0 -210.5 66t-74.5 178v366q0 34 -30 50q-16 9 -68 16v23h366v-23q-49 -6 -69 -12q-31 -10 -31 -49v-371q0 -102 38.5 -148t119.5 -46
q80 0 125.5 51.5t45.5 147.5v259q0 108 -33 136q-11 9 -44 19.5t-49 12.5v23h289v-23zM560 832q0 -32 -22 -55t-52 -23q-31 0 -52.5 23t-21.5 55t21.5 55t52.5 23q30 0 52 -23t22 -55zM340 832q0 -32 -22 -55t-52 -23q-31 0 -52.5 23t-21.5 55t21.5 55t52.5 23q30 0 52 -23
t22 -55z" />
    <glyph glyph-name="Yacute" unicode="&#xdd;" horiz-adv-x="684" 
d="M722 660q-33 -4 -58 -19q-40 -24 -69 -70q-65 -104 -134 -225q-25 -44 -31 -69t-6 -76v-111q0 -36 30 -50q34 -14 80 -17v-23h-389v23q58 3 81 12q31 12 31 50v136q0 33 -5.5 52.5t-25.5 55.5q-122 224 -136 246q-24 45 -63 68q-25 15 -63 17v23h391v-23
q-100 -6 -100 -29q0 -13 44 -96q81 -154 112 -206q9 15 53 97.5t49 89.5q51 88 51 103q0 35 -96 41v23h254v-23zM482 895q0 -26 -15 -42t-51 -37q-107 -62 -154 -92l-14 16q47 63 98 146q20 31 37 45.5t41 14.5q27 0 42.5 -15t15.5 -36z" />
    <glyph glyph-name="Thorn" unicode="&#xde;" horiz-adv-x="629" 
d="M373 537q255 3 255 -170q0 -72 -43.5 -121.5t-109 -70.5t-145.5 -21h-45v-66q0 -35 30 -49q27 -11 73 -16v-23h-376v23q52 3 76 13q30 11 30 49v507q0 37 -30 49q-40 15 -76 19v23h374v-23q-44 -5 -71 -14q-30 -10 -30 -49v-60h88zM449 343q0 80 -31 122t-101 42h-32
v-321h18q146 0 146 157z" />
    <glyph glyph-name="germandbls" unicode="&#xdf;" horiz-adv-x="599" 
d="M510 617q0 -45 -26 -78t-56.5 -48t-56.5 -32.5t-26 -36.5q0 -8 7 -17.5t24.5 -23t31 -22.5t41.5 -27.5t41 -27.5q57 -38 80 -74.5t23 -90.5q0 -63 -50 -108t-132 -45q-83 0 -120.5 28.5t-37.5 74.5q0 31 18 55t52 24q32 0 48.5 -18.5t16.5 -45.5q0 -12 -8.5 -27t-8.5 -24
q0 -17 10.5 -29t30.5 -12q29 0 44.5 22t15.5 61q0 36 -18 63.5t-77 65.5q-55 35 -77 66t-22 76q0 9 1.5 17t5.5 16.5t6.5 13.5t9.5 13.5t10 12t12.5 13t11.5 12.5q48 52 48 127q0 130 -72 130q-41 0 -60 -48t-23 -162q0 -7 -0.5 -24.5t-0.5 -26.5v-460h-214v20q22 1 42 7
q27 9 27 45v336h-84v42h84v31q0 123 68 196q65 70 174 70q67 0 126.5 -36.5t59.5 -93.5z" />
    <glyph glyph-name="agrave" unicode="&#xe0;" horiz-adv-x="504" 
d="M524 133q-3 -146 -122 -146q-80 0 -115 65h-3q-21 -22 -35 -34t-42.5 -22.5t-65.5 -10.5q-51 0 -86 32.5t-35 81.5q0 58 26 85t72 44q16 6 60 20.5t69.5 24.5t36.5 19v58q0 19 -1 31t-6 31t-17.5 29t-32.5 10q-30 0 -49 -19l9 -28q9 -29 9 -48t-23 -38t-59 -19t-54 20.5
t-18 48.5q0 44 62 75.5t131 31.5q46 0 76.5 -5t60 -20t44 -46t14.5 -79q0 -53 -3 -137.5t-3 -93.5q0 -15 9.5 -31t26.5 -16q37 0 39 86h25zM285 260q-61 -24 -87 -49.5t-26 -83.5q0 -79 50 -79q16 0 27.5 5.5t17 12t14.5 20.5zM112 704q0 21 15.5 36t42.5 15q24 0 41 -14.5
t37 -45.5q51 -83 98 -146l-14 -16q-47 30 -154 92q-36 21 -51 37t-15 42z" />
    <glyph glyph-name="aacute" unicode="&#xe1;" horiz-adv-x="504" 
d="M524 133q-3 -146 -122 -146q-80 0 -115 65h-3q-21 -22 -35 -34t-42.5 -22.5t-65.5 -10.5q-51 0 -86 32.5t-35 81.5q0 58 26 85t72 44q16 6 60 20.5t69.5 24.5t36.5 19v58q0 19 -1 31t-6 31t-17.5 29t-32.5 10q-30 0 -49 -19l9 -28q9 -29 9 -48t-23 -38t-59 -19t-54 20.5
t-18 48.5q0 44 62 75.5t131 31.5q46 0 76.5 -5t60 -20t44 -46t14.5 -79q0 -53 -3 -137.5t-3 -93.5q0 -15 9.5 -31t26.5 -16q37 0 39 86h25zM285 260q-61 -24 -87 -49.5t-26 -83.5q0 -79 50 -79q16 0 27.5 5.5t17 12t14.5 20.5zM392 704q0 -26 -15 -42t-51 -37
q-107 -62 -154 -92l-14 16q47 63 98 146q20 31 37 45.5t41 14.5q27 0 42.5 -15t15.5 -36z" />
    <glyph glyph-name="acircumflex" unicode="&#xe2;" horiz-adv-x="504" 
d="M524 133q-3 -146 -122 -146q-80 0 -115 65h-3q-21 -22 -35 -34t-42.5 -22.5t-65.5 -10.5q-51 0 -86 32.5t-35 81.5q0 58 26 85t72 44q16 6 60 20.5t69.5 24.5t36.5 19v58q0 19 -1 31t-6 31t-17.5 29t-32.5 10q-30 0 -49 -19l9 -28q9 -29 9 -48t-23 -38t-59 -19t-54 20.5
t-18 48.5q0 44 62 75.5t131 31.5q46 0 76.5 -5t60 -20t44 -46t14.5 -79q0 -53 -3 -137.5t-3 -93.5q0 -15 9.5 -31t26.5 -16q37 0 39 86h25zM285 260q-61 -24 -87 -49.5t-26 -83.5q0 -79 50 -79q16 0 27.5 5.5t17 12t14.5 20.5zM418 548l-19 -14l-148 122l-146 -122l-18 14
q58 100 109 180q12 20 57 20q43 0 55 -18q55 -84 110 -182z" />
    <glyph glyph-name="atilde" unicode="&#xe3;" horiz-adv-x="504" 
d="M524 133q-3 -146 -122 -146q-80 0 -115 65h-3q-21 -22 -35 -34t-42.5 -22.5t-65.5 -10.5q-51 0 -86 32.5t-35 81.5q0 58 26 85t72 44q16 6 60 20.5t69.5 24.5t36.5 19v58q0 19 -1 31t-6 31t-17.5 29t-32.5 10q-30 0 -49 -19l9 -28q9 -29 9 -48t-23 -38t-59 -19t-54 20.5
t-18 48.5q0 44 62 75.5t131 31.5q46 0 76.5 -5t60 -20t44 -46t14.5 -79q0 -53 -3 -137.5t-3 -93.5q0 -15 9.5 -31t26.5 -16q37 0 39 86h25zM285 260q-61 -24 -87 -49.5t-26 -83.5q0 -79 50 -79q16 0 27.5 5.5t17 12t14.5 20.5zM451 705q-15 -52 -51 -97t-88 -45
q-38 0 -87.5 26t-73.5 26q-22 0 -36.5 -15.5t-32.5 -53.5l-29 11q11 31 26 59.5t45 55t64 26.5q40 0 89.5 -25.5t66.5 -25.5q19 0 30.5 3t20 14t12.5 19.5t13 30.5z" />
    <glyph glyph-name="adieresis" unicode="&#xe4;" horiz-adv-x="504" 
d="M524 133q-3 -146 -122 -146q-80 0 -115 65h-3q-21 -22 -35 -34t-42.5 -22.5t-65.5 -10.5q-51 0 -86 32.5t-35 81.5q0 58 26 85t72 44q16 6 60 20.5t69.5 24.5t36.5 19v58q0 19 -1 31t-6 31t-17.5 29t-32.5 10q-30 0 -49 -19l9 -28q9 -29 9 -48t-23 -38t-59 -19t-54 20.5
t-18 48.5q0 44 62 75.5t131 31.5q46 0 76.5 -5t60 -20t44 -46t14.5 -79q0 -53 -3 -137.5t-3 -93.5q0 -15 9.5 -31t26.5 -16q37 0 39 86h25zM285 260q-61 -24 -87 -49.5t-26 -83.5q0 -79 50 -79q16 0 27.5 5.5t17 12t14.5 20.5zM436 641q0 -32 -22 -55t-52 -23
q-31 0 -52.5 23t-21.5 55t21.5 55t52.5 23q30 0 52 -23t22 -55zM216 641q0 -32 -22 -55t-52 -23q-31 0 -52.5 23t-21.5 55t21.5 55t52.5 23q30 0 52 -23t22 -55z" />
    <glyph glyph-name="aring" unicode="&#xe5;" horiz-adv-x="504" 
d="M524 133q-3 -146 -122 -146q-80 0 -115 65h-3q-21 -22 -35 -34t-42.5 -22.5t-65.5 -10.5q-51 0 -86 32.5t-35 81.5q0 58 26 85t72 44q16 6 60 20.5t69.5 24.5t36.5 19v58q0 19 -1 31t-6 31t-17.5 29t-32.5 10q-30 0 -49 -19l9 -28q9 -29 9 -48t-23 -38t-59 -19t-54 20.5
t-18 48.5q0 44 62 75.5t131 31.5q46 0 76.5 -5t60 -20t44 -46t14.5 -79q0 -53 -3 -137.5t-3 -93.5q0 -15 9.5 -31t26.5 -16q37 0 39 86h25zM285 260q-61 -24 -87 -49.5t-26 -83.5q0 -79 50 -79q16 0 27.5 5.5t17 12t14.5 20.5zM381 632q0 -47 -35.5 -77t-93.5 -30
q-59 0 -94 29t-35 78q0 47 37.5 77t91.5 30q56 0 92.5 -29.5t36.5 -77.5zM310 632q0 33 -15 55.5t-43 22.5t-43 -21.5t-15 -56.5q0 -34 15 -56t43 -22t43 21.5t15 56.5z" />
    <glyph glyph-name="ae" unicode="&#xe6;" horiz-adv-x="726" 
d="M326 80h-5q-68 -95 -180 -95q-51 0 -86 32.5t-35 81.5q0 58 26 85t72 44q16 6 60 20.5t69.5 24.5t36.5 19v58q0 19 -1 31t-6 31t-17.5 29t-32.5 10q-30 0 -49 -19l9 -28q9 -29 9 -48t-23 -38t-59 -19t-54 20.5t-18 48.5q0 44 62 75.5t131 31.5q101 0 143 -43
q51 43 129 43q107 0 156.5 -56t49.5 -143v-14h-283v-12q0 -94 32.5 -149.5t101.5 -55.5q48 0 81 20.5t59 71.5l20 -15q-30 -61 -84.5 -99t-125.5 -38q-126 0 -188 95zM558 292q0 25 -0.5 39.5t-2 35.5t-5 33.5t-10 25t-16.5 18t-24 5.5q-65 0 -70 -159zM285 260
q-61 -24 -87 -49.5t-26 -83.5q0 -79 50 -79q40 0 63 33v179z" />
    <glyph glyph-name="ccedilla" unicode="&#xe7;" horiz-adv-x="445" 
d="M200 -10q-90 15 -136 80.5t-46 162.5q0 100 65 171t177 71q82 0 125 -32t43 -85q0 -31 -20 -51.5t-57 -20.5q-27 0 -51.5 16.5t-24.5 44.5q0 14 3.5 26t9.5 25.5t8 22.5q-6 29 -35 29q-38 0 -61.5 -52t-23.5 -157q0 -86 33 -140t85 -54q50 0 80 22.5t52 70.5l22 -14
q-24 -61 -77 -101t-118 -40q-17 0 -25 1v-29q67 -3 100.5 -22.5t33.5 -65.5q0 -61 -56 -83t-168 -22v28h32.5t28.5 1.5t28 5t19.5 9.5t16 16.5t4.5 25.5q0 21 -16.5 28t-50.5 7v105z" />
    <glyph glyph-name="egrave" unicode="&#xe8;" horiz-adv-x="470" 
d="M468 122q-30 -61 -84.5 -99t-125.5 -38q-118 0 -179 69.5t-61 178.5q0 102 62 172t171 70q107 0 156.5 -56t49.5 -143v-14h-283v-12q0 -94 32.5 -149.5t101.5 -55.5q48 0 81 20.5t59 71.5zM302 292q0 25 -0.5 39.5t-2 35.5t-5 33.5t-10 25t-16.5 18t-24 5.5
q-65 0 -70 -159zM95 704q0 21 15.5 36t42.5 15q24 0 41 -14.5t37 -45.5q51 -83 98 -146l-14 -16q-47 30 -154 92q-36 21 -51 37t-15 42z" />
    <glyph glyph-name="eacute" unicode="&#xe9;" horiz-adv-x="470" 
d="M468 122q-30 -61 -84.5 -99t-125.5 -38q-118 0 -179 69.5t-61 178.5q0 102 62 172t171 70q107 0 156.5 -56t49.5 -143v-14h-283v-12q0 -94 32.5 -149.5t101.5 -55.5q48 0 81 20.5t59 71.5zM302 292q0 25 -0.5 39.5t-2 35.5t-5 33.5t-10 25t-16.5 18t-24 5.5
q-65 0 -70 -159zM375 704q0 -26 -15 -42t-51 -37q-107 -62 -154 -92l-14 16q47 63 98 146q20 31 37 45.5t41 14.5q27 0 42.5 -15t15.5 -36z" />
    <glyph glyph-name="ecircumflex" unicode="&#xea;" horiz-adv-x="470" 
d="M468 122q-30 -61 -84.5 -99t-125.5 -38q-118 0 -179 69.5t-61 178.5q0 102 62 172t171 70q107 0 156.5 -56t49.5 -143v-14h-283v-12q0 -94 32.5 -149.5t101.5 -55.5q48 0 81 20.5t59 71.5zM302 292q0 25 -0.5 39.5t-2 35.5t-5 33.5t-10 25t-16.5 18t-24 5.5
q-65 0 -70 -159zM401 548l-19 -14l-148 122l-146 -122l-18 14q58 100 109 180q7 12 19 16t38 4q43 0 55 -18q55 -84 110 -182z" />
    <glyph glyph-name="edieresis" unicode="&#xeb;" horiz-adv-x="470" 
d="M468 122q-30 -61 -84.5 -99t-125.5 -38q-118 0 -179 69.5t-61 178.5q0 102 62 172t171 70q107 0 156.5 -56t49.5 -143v-14h-283v-12q0 -94 32.5 -149.5t101.5 -55.5q48 0 81 20.5t59 71.5zM302 292q0 25 -0.5 39.5t-2 35.5t-5 33.5t-10 25t-16.5 18t-24 5.5
q-65 0 -70 -159zM419 641q0 -32 -22 -55t-52 -23q-31 0 -52.5 23t-21.5 55t21.5 55t52.5 23q30 0 52 -23t22 -55zM199 641q0 -32 -22 -55t-52 -23q-31 0 -52.5 23t-21.5 55t21.5 55t52.5 23q30 0 52 -23t22 -55z" />
    <glyph glyph-name="igrave" unicode="&#xec;" horiz-adv-x="297" 
d="M297 0h-284v21q26 2 43 8q26 10 26 44v296q0 33 -25 50q-24 16 -59 18v20l222 12l7 -7v-384q0 -33 27 -45q15 -8 43 -12v-21zM8 704q0 21 15.5 36t42.5 15q24 0 41 -14.5t37 -45.5q51 -83 98 -146l-14 -16q-47 30 -154 92q-36 21 -51 37t-15 42z" />
    <glyph glyph-name="iacute" unicode="&#xed;" horiz-adv-x="297" 
d="M297 0h-284v21q26 2 43 8q26 10 26 44v296q0 33 -25 50q-24 16 -59 18v20l222 12l7 -7v-384q0 -33 27 -45q15 -8 43 -12v-21zM288 704q0 -26 -15 -42t-51 -37q-107 -62 -154 -92l-14 16q47 63 98 146q20 31 37 45.5t41 14.5q27 0 42.5 -15t15.5 -36z" />
    <glyph glyph-name="icircumflex" unicode="&#xee;" horiz-adv-x="297" 
d="M299 548l-19 -14l-133 122l-131 -122l-18 14q22 41 55.5 105.5t38.5 74.5q11 20 57 20q45 0 55 -18q57 -108 95 -182zM297 0h-284v21q26 2 43 8q26 10 26 44v296q0 33 -25 50q-24 16 -59 18v20l222 12l7 -7v-384q0 -33 27 -45q15 -8 43 -12v-21z" />
    <glyph glyph-name="idieresis" unicode="&#xef;" horiz-adv-x="297" 
d="M322 641q0 -32 -22 -55t-52 -23q-31 0 -52.5 23t-21.5 55t21.5 55t52.5 23q30 0 52 -23t22 -55zM122 641q0 -32 -22 -55t-52 -23q-31 0 -52.5 23t-21.5 55t21.5 55t52.5 23q30 0 52 -23t22 -55zM297 0h-284v21q26 2 43 8q26 10 26 44v296q0 33 -25 50q-24 16 -59 18v20
l222 12l7 -7v-384q0 -33 27 -45q15 -8 43 -12v-21z" />
    <glyph glyph-name="eth" unicode="&#xf0;" horiz-adv-x="559" 
d="M321 687l85 51l20 -31l-72 -43q187 -141 187 -370q0 -134 -76 -221t-191 -87q-114 0 -185 66.5t-71 182.5q0 105 69.5 172.5t180.5 67.5q66 0 100 -38l4 1q-21 113 -76 191l-114 -69l-20 31l112 67q-36 43 -83 73l13 18q69 -31 117 -62zM377 246q0 90 -28 147.5t-69 57.5
q-31 0 -52.5 -18t-31 -51t-13 -66t-3.5 -76q0 -114 21 -172.5t78 -58.5q98 0 98 237z" />
    <glyph glyph-name="ntilde" unicode="&#xf1;" horiz-adv-x="587" 
d="M585 0h-265v21q25 2 37 8q15 8 15 44v241q0 97 -58 97t-88 -60v-273q0 -35 17 -45q13 -8 38 -12v-21h-267v21q25 2 42 8q25 10 25 44v296q0 36 -26 53q-20 13 -48 15v20l212 12l7 -7v-69h2q1 1 11.5 12.5t13 13.5t12.5 12t14.5 12.5t15 9.5t18.5 9.5t19.5 6.5t23.5 5
t26 1q67 0 102 -42t35 -115v-241q0 -34 23 -44t43 -12v-21zM492 705q-15 -52 -51 -97t-88 -45q-38 0 -87.5 26t-73.5 26q-22 0 -36.5 -15.5t-32.5 -53.5l-29 11q11 31 26 59.5t45 55t64 26.5q40 0 89.5 -25.5t66.5 -25.5q19 0 30.5 3t20 14t12.5 19.5t13 30.5z" />
    <glyph glyph-name="ograve" unicode="&#xf2;" horiz-adv-x="534" 
d="M516 234q0 -109 -65.5 -179t-186.5 -70q-105 0 -175.5 67t-70.5 179q0 108 68 176t182 68q115 0 181.5 -67t66.5 -174zM355 235q0 216 -86 216q-89 0 -89 -214q0 -226 88 -226q87 0 87 224zM127 704q0 21 15.5 36t42.5 15q24 0 41 -14.5t37 -45.5q51 -83 98 -146l-14 -16
q-47 30 -154 92q-36 21 -51 37t-15 42z" />
    <glyph glyph-name="oacute" unicode="&#xf3;" horiz-adv-x="534" 
d="M516 234q0 -109 -65.5 -179t-186.5 -70q-105 0 -175.5 67t-70.5 179q0 108 68 176t182 68q115 0 181.5 -67t66.5 -174zM355 235q0 216 -86 216q-89 0 -89 -214q0 -226 88 -226q87 0 87 224zM407 704q0 -26 -15 -42t-51 -37q-107 -62 -154 -92l-14 16q47 63 98 146
q20 31 37 45.5t41 14.5q27 0 42.5 -15t15.5 -36z" />
    <glyph glyph-name="ocircumflex" unicode="&#xf4;" horiz-adv-x="534" 
d="M516 234q0 -109 -65.5 -179t-186.5 -70q-105 0 -175.5 67t-70.5 179q0 108 68 176t182 68q115 0 181.5 -67t66.5 -174zM355 235q0 216 -86 216q-89 0 -89 -214q0 -226 88 -226q87 0 87 224zM433 548l-19 -14l-148 122l-146 -122l-18 14q58 100 109 180q7 12 19 16t38 4
q43 0 55 -18q55 -84 110 -182z" />
    <glyph glyph-name="otilde" unicode="&#xf5;" horiz-adv-x="534" 
d="M516 234q0 -109 -65.5 -179t-186.5 -70q-105 0 -175.5 67t-70.5 179q0 108 68 176t182 68q115 0 181.5 -67t66.5 -174zM355 235q0 216 -86 216q-89 0 -89 -214q0 -226 88 -226q87 0 87 224zM466 705q-15 -52 -51 -97t-88 -45q-38 0 -87.5 26t-73.5 26q-22 0 -36.5 -15.5
t-32.5 -53.5l-29 11q11 31 26 59.5t45 55t64 26.5q40 0 89.5 -25.5t66.5 -25.5q19 0 30.5 3t20 14t12.5 19.5t13 30.5z" />
    <glyph glyph-name="odieresis" unicode="&#xf6;" horiz-adv-x="534" 
d="M516 234q0 -109 -65.5 -179t-186.5 -70q-105 0 -175.5 67t-70.5 179q0 108 68 176t182 68q115 0 181.5 -67t66.5 -174zM355 235q0 216 -86 216q-89 0 -89 -214q0 -226 88 -226q87 0 87 224zM451 641q0 -32 -22 -55t-52 -23q-31 0 -52.5 23t-21.5 55t21.5 55t52.5 23
q30 0 52 -23t22 -55zM231 641q0 -32 -22 -55t-52 -23q-31 0 -52.5 23t-21.5 55t21.5 55t52.5 23q30 0 52 -23t22 -55z" />
    <glyph glyph-name="divide" unicode="&#xf7;" 
d="M270 507q35 0 60 -24.5t25 -59.5t-25 -59.5t-60 -24.5t-60 24.5t-25 59.5t25 59.5t60 24.5zM505 289v-58h-470v58h470zM270 180q35 0 60 -24.5t25 -59.5t-25 -59.5t-60 -24.5t-60 24.5t-25 59.5t25 59.5t60 24.5z" />
    <glyph glyph-name="oslash" unicode="&#xf8;" horiz-adv-x="523" 
d="M92 49q-74 69 -74 182q0 108 68 176t182 68q86 0 147 -39l50 60l30 -22l-51 -61q72 -66 72 -179q0 -109 -65.5 -179t-186.5 -70q-80 0 -144 42l-55 -66l-29 21zM183 158l163 196q-17 97 -77 97q-89 0 -89 -214q0 -41 3 -79zM353 304q-163 -194 -163 -195q19 -98 78 -98
q87 0 87 224q0 25 -2 69z" />
    <glyph glyph-name="ugrave" unicode="&#xf9;" horiz-adv-x="571" 
d="M573 10l-211 -14l-7 7v62h-3q-22 -25 -37.5 -38.5t-47.5 -26.5t-71 -13q-65 0 -96.5 44t-31.5 119v220q0 33 -26 51q-20 13 -50 15v21l216 12l6 -7v-319q0 -95 56 -95q55 0 84 56v267q0 32 -22 49q-16 13 -58 15v22l217 12l7 -7v-369q0 -31 25 -49q16 -12 50 -14v-20z
M145 704q0 21 15.5 36t42.5 15q24 0 41 -14.5t37 -45.5q51 -83 98 -146l-14 -16q-47 30 -154 92q-36 21 -51 37t-15 42z" />
    <glyph glyph-name="uacute" unicode="&#xfa;" horiz-adv-x="571" 
d="M573 10l-211 -14l-7 7v62h-3q-22 -25 -37.5 -38.5t-47.5 -26.5t-71 -13q-65 0 -96.5 44t-31.5 119v220q0 33 -26 51q-20 13 -50 15v21l216 12l6 -7v-319q0 -95 56 -95q55 0 84 56v267q0 32 -22 49q-16 13 -58 15v22l217 12l7 -7v-369q0 -31 25 -49q16 -12 50 -14v-20z
M425 704q0 -26 -15 -42t-51 -37q-107 -62 -154 -92l-14 16q47 63 98 146q20 31 37 45.5t41 14.5q27 0 42.5 -15t15.5 -36z" />
    <glyph glyph-name="ucircumflex" unicode="&#xfb;" horiz-adv-x="571" 
d="M573 10l-211 -14l-7 7v62h-3q-22 -25 -37.5 -38.5t-47.5 -26.5t-71 -13q-65 0 -96.5 44t-31.5 119v220q0 33 -26 51q-20 13 -50 15v21l216 12l6 -7v-319q0 -95 56 -95q55 0 84 56v267q0 32 -22 49q-16 13 -58 15v22l217 12l7 -7v-369q0 -31 25 -49q16 -12 50 -14v-20z
M451 548l-19 -14l-148 122l-146 -122l-18 14q58 100 109 180q7 12 19 16t38 4q43 0 55 -18q55 -84 110 -182z" />
    <glyph glyph-name="udieresis" unicode="&#xfc;" horiz-adv-x="571" 
d="M573 10l-211 -14l-7 7v62h-3q-22 -25 -37.5 -38.5t-47.5 -26.5t-71 -13q-65 0 -96.5 44t-31.5 119v220q0 33 -26 51q-20 13 -50 15v21l216 12l6 -7v-319q0 -95 56 -95q55 0 84 56v267q0 32 -22 49q-16 13 -58 15v22l217 12l7 -7v-369q0 -31 25 -49q16 -12 50 -14v-20z
M469 641q0 -32 -22 -55t-52 -23q-31 0 -52.5 23t-21.5 55t21.5 55t52.5 23q30 0 52 -23t22 -55zM249 641q0 -32 -22 -55t-52 -23q-31 0 -52.5 23t-21.5 55t21.5 55t52.5 23q30 0 52 -23t22 -55z" />
    <glyph glyph-name="yacute" unicode="&#xfd;" horiz-adv-x="455" 
d="M490 442q-57 -11 -75 -58q-22 -57 -157 -405q-44 -112 -87.5 -159.5t-103.5 -47.5q-33 0 -62 21.5t-29 64.5q0 28 21 50.5t53 22.5q25 0 46 -14.5t21 -46.5q0 -16 -4 -40q62 18 112 146q-17 35 -96.5 213.5t-89.5 202.5q-10 19 -29.5 32.5t-41.5 16.5v21h274v-21
q-55 -3 -55 -23q0 -2 7 -21q26 -65 102 -237l2 3q8 18 37.5 99.5t36.5 98.5q9 31 9 44q0 24 -74 37v20h183v-20zM367 704q0 -26 -15 -42t-51 -37q-107 -62 -154 -92l-14 16q47 63 98 146q20 31 37 45.5t41 14.5q27 0 42.5 -15t15.5 -36z" />
    <glyph glyph-name="thorn" unicode="&#xfe;" horiz-adv-x="562" 
d="M543 227q0 -101 -64.5 -170t-151.5 -69q-66 0 -108 31h-4v-161q0 -35 28 -46q31 -12 73 -17v-21h-325v21q36 2 55 10q25 9 25 46v789q0 39 -26 57q-22 14 -67 17v20l231 12l7 -6v-329l4 -1q57 65 128 65q86 0 140.5 -68.5t54.5 -179.5zM384 226q0 80 -22 135t-73 55
q-43 0 -74 -39v-287q23 -72 79 -72q42 0 66 55.5t24 152.5z" />
    <glyph glyph-name="ydieresis" unicode="&#xff;" horiz-adv-x="455" 
d="M490 442q-57 -11 -75 -58q-22 -57 -157 -405q-44 -112 -87.5 -159.5t-103.5 -47.5q-33 0 -62 21.5t-29 64.5q0 28 21 50.5t53 22.5q25 0 46 -14.5t21 -46.5q0 -16 -4 -40q62 18 112 146q-17 35 -96.5 213.5t-89.5 202.5q-10 19 -29.5 32.5t-41.5 16.5v21h274v-21
q-55 -3 -55 -23q0 -2 7 -21q26 -65 102 -237l2 3q8 18 37.5 99.5t36.5 98.5q9 31 9 44q0 24 -74 37v20h183v-20zM411 641q0 -32 -22 -55t-52 -23q-31 0 -52.5 23t-21.5 55t21.5 55t52.5 23q30 0 52 -23t22 -55zM191 641q0 -32 -22 -55t-52 -23q-31 0 -52.5 23t-21.5 55
t21.5 55t52.5 23q30 0 52 -23t22 -55z" />
    <glyph glyph-name="dotlessi" unicode="&#x131;" horiz-adv-x="297" 
d="M297 0h-284v21q26 2 43 8q26 10 26 44v296q0 33 -25 50q-24 16 -59 18v20l222 12l7 -7v-384q0 -33 27 -45q15 -8 43 -12v-21z" />
    <glyph glyph-name="Lslash" unicode="&#x141;" horiz-adv-x="621" 
d="M285 359v-242q0 -57 19 -71.5t87 -14.5q100 0 125 25q48 48 94 160h24l-13 -216h-609v23q62 7 76 13q30 12 30 50v212l-83 -30l-10 26l93 34v265q0 37 -30 49q-30 13 -76 18v23h375v-23q-48 -5 -71 -13q-31 -10 -31 -49v-209l102 37l10 -27z" />
    <glyph glyph-name="lslash" unicode="&#x142;" horiz-adv-x="315" 
d="M96 320v317q0 39 -27 58q-9 6 -32 12t-37 7v20l233 12l7 -7v-366l62 23l9 -27l-71 -26v-265q0 -33 26 -45q23 -10 43 -12v-21h-281v21q25 2 42 8q26 10 26 44v217l-71 -26l-10 26z" />
    <glyph glyph-name="OE" unicode="&#x152;" horiz-adv-x="1047" 
d="M538 0q-45 0 -175 -2q-64 0 -134 24t-111 66q-98 100 -98 246q0 154 89 251q43 47 116.5 73.5t141.5 26.5q44 0 92.5 -1t78.5 -1h455v-179h-26q-14 44 -48.5 91t-70.5 52q-40 5 -81 5h-89v-282h60q60 0 88 28q29 29 39 96h26v-285h-26q-3 25 -15 56.5t-24 44.5
q-25 27 -88 27h-60v-221q0 -55 19 -70t87 -15q120 0 144 24q45 44 92 154h24l-13 -209h-493zM514 343q0 94 -1 133t-10 84.5t-28 65.5q-27 30 -98 30q-83 0 -125 -82.5t-42 -234.5q0 -91 15 -158t53.5 -111t98.5 -44q66 0 93 27q28 28 36 89t8 201z" />
    <glyph glyph-name="oe" unicode="&#x153;" horiz-adv-x="807" 
d="M431 45q-58 -60 -167 -60q-105 0 -175.5 67t-70.5 179q0 108 68 176t182 68q107 0 165 -60q58 60 155 60q107 0 156.5 -56t49.5 -143v-14h-283v-12q0 -94 32.5 -149.5t101.5 -55.5q48 0 81 20.5t59 71.5l20 -15q-30 -61 -84.5 -99t-125.5 -38q-106 0 -164 60zM639 292
q0 25 -0.5 39.5t-2 35.5t-5 33.5t-10 25t-16.5 18t-24 5.5q-65 0 -70 -159zM355 235q0 216 -86 216q-89 0 -89 -214q0 -226 88 -226q87 0 87 224z" />
    <glyph glyph-name="Scaron" unicode="&#x160;" horiz-adv-x="572" 
d="M548 199q0 -93 -71 -153.5t-186 -60.5q-104 0 -198 52l-30 -45h-34l-6 252h26q32 -87 92.5 -156t132.5 -69q56 0 90.5 35t34.5 86q0 44 -26.5 72.5t-82.5 48.5q-123 42 -128 44q-62 26 -92.5 76.5t-30.5 116.5q0 85 63.5 143.5t171.5 58.5q101 0 174 -45l26 37h35l4 -237
h-26q-16 44 -32.5 77.5t-40 66t-56 50t-70.5 17.5q-45 0 -75 -32.5t-30 -78.5q0 -44 25.5 -72.5t82.5 -48.5q17 -6 64 -21t65 -23q63 -27 95.5 -71.5t32.5 -119.5zM121 925l19 14l148 -122l146 122l18 -14q-58 -100 -109 -180q-7 -12 -19 -16t-38 -4q-43 0 -55 18
q-55 84 -110 182z" />
    <glyph glyph-name="scaron" unicode="&#x161;" horiz-adv-x="411" 
d="M397 140q0 -73 -54 -114t-138 -41q-43 0 -80.5 14t-56.5 29l-18 -34h-30l-5 173h20q19 -56 63.5 -106t99.5 -50q75 0 75 77q0 35 -26.5 53t-87.5 39q-60 21 -95.5 56t-35.5 98q0 60 48 100.5t129 40.5q67 0 121 -27l13 28h29l6 -158h-19q-17 53 -55.5 92t-79.5 39
q-34 0 -50.5 -18.5t-16.5 -48.5q0 -36 22 -51.5t88 -37.5q134 -44 134 -153zM40 734l19 14l148 -122l146 122l18 -14q-58 -100 -109 -180q-12 -20 -57 -20q-43 0 -55 18q-55 84 -110 182z" />
    <glyph glyph-name="Ydieresis" unicode="&#x178;" horiz-adv-x="684" 
d="M722 660q-33 -4 -58 -19q-40 -24 -69 -70q-65 -104 -134 -225q-25 -44 -31 -69t-6 -76v-111q0 -36 30 -50q34 -14 80 -17v-23h-389v23q58 3 81 12q31 12 31 50v136q0 33 -5.5 52.5t-25.5 55.5q-122 224 -136 246q-24 45 -63 68q-25 15 -63 17v23h391v-23
q-100 -6 -100 -29q0 -13 44 -96q81 -154 112 -206q9 15 53 97.5t49 89.5q51 88 51 103q0 35 -96 41v23h254v-23zM526 832q0 -32 -22 -55t-52 -23q-31 0 -52.5 23t-21.5 55t21.5 55t52.5 23q30 0 52 -23t22 -55zM306 832q0 -32 -22 -55t-52 -23q-31 0 -52.5 23t-21.5 55
t21.5 55t52.5 23q30 0 52 -23t22 -55z" />
    <glyph glyph-name="Zcaron" unicode="&#x17d;" horiz-adv-x="626" 
d="M626 223l-23 -223h-607v23l424 629h-139q-73 0 -103 -13q-53 -23 -119 -157h-27l20 201h564v-23l-425 -629h154q78 0 109.5 6.5t47.5 23.5q60 71 98 162h26zM148 925l19 14l148 -122l146 122l18 -14q-58 -100 -109 -180q-12 -20 -57 -20q-43 0 -55 18q-55 84 -110 182z
" />
    <glyph glyph-name="zcaron" unicode="&#x17e;" horiz-adv-x="427" 
d="M422 0h-418v22l245 410h-55q-64 0 -95 -14q-29 -13 -53 -107h-24v151h393v-18l-245 -414q24 -1 69 -1q39 0 77 4q38 5 51 38q9 22 32 102h23v-173zM48 734l19 14l148 -122l146 122l18 -14q-58 -100 -109 -180q-12 -20 -57 -20q-43 0 -55 18q-55 84 -110 182z" />
    <glyph glyph-name="florin" unicode="&#x192;" horiz-adv-x="534" 
d="M142 337q14 82 38 136t66 96q32 31 68.5 43t93.5 12t100 -30t43 -82q0 -30 -18.5 -50.5t-52.5 -20.5t-56.5 17.5t-22.5 50.5t48 79q-11 16 -47 16q-45 0 -67 -46.5t-41 -161.5l-10 -59h126l-7 -33h-124q-32 -190 -43 -237q-31 -137 -103 -202q-32 -29 -86 -43.5
t-103 -14.5q-50 0 -85 25t-35 81q0 30 21 51t50 21q35 0 57 -19t22 -56q0 -45 -49 -68q9 -16 31 -16q47 0 79.5 51t55.5 162q12 55 19.5 98.5t15 93.5t11.5 73h-106l6 33h105z" />
    <glyph glyph-name="circumflex" unicode="&#x2c6;" horiz-adv-x="499" 
d="M415 548l-19 -14l-148 122l-146 -122l-18 14q58 100 109 180q7 12 19 16t38 4q43 0 55 -18q55 -84 110 -182z" />
    <glyph glyph-name="caron" unicode="&#x2c7;" horiz-adv-x="499" 
d="M84 734l19 14l148 -122l146 122l18 -14q-58 -100 -109 -180q-12 -20 -57 -20q-43 0 -55 18q-55 84 -110 182z" />
    <glyph glyph-name="breve" unicode="&#x2d8;" horiz-adv-x="500" 
d="M404 720q-26 -96 -67.5 -140t-86.5 -44t-86.5 44t-67.5 140l26 9q49 -96 128 -96t128 96z" />
    <glyph glyph-name="dotaccent" unicode="&#x2d9;" horiz-adv-x="500" 
d="M324 643q0 -32 -22 -55t-52 -23q-31 0 -52.5 23t-21.5 55t21.5 55t52.5 23q30 0 52 -23t22 -55z" />
    <glyph glyph-name="ring" unicode="&#x2da;" horiz-adv-x="500" 
d="M379 632q0 -47 -35.5 -77t-93.5 -30q-59 0 -94 29t-35 78q0 47 37.5 77t91.5 30q56 0 92.5 -29.5t36.5 -77.5zM308 632q0 33 -15 55.5t-43 22.5t-43 -21.5t-15 -56.5q0 -34 15 -56t43 -22t43 21.5t15 56.5z" />
    <glyph glyph-name="ogonek" unicode="&#x2db;" horiz-adv-x="500" 
d="M346 -236q-192 0 -192 93q0 41 30 75t93 68h42q-63 -75 -63 -129q0 -33 20 -47.5t70 -21.5v-38z" />
    <glyph glyph-name="tilde" unicode="&#x2dc;" horiz-adv-x="500" 
d="M449 705q-15 -52 -51 -97t-88 -45q-38 0 -87.5 26t-73.5 26q-22 0 -36.5 -15.5t-32.5 -53.5l-29 11q11 31 26 59.5t45 55t64 26.5q40 0 89.5 -25.5t66.5 -25.5q19 0 30.5 3t20 14t12.5 19.5t13 30.5z" />
    <glyph glyph-name="hungarumlaut" unicode="&#x2dd;" horiz-adv-x="499" 
d="M455 702q0 -35 -38 -60q-11 -7 -62 -38.5t-105 -68.5l-19 16q55 74 98 144q18 28 33.5 38t41.5 10q22 0 36.5 -12t14.5 -29zM268 702q0 -35 -38 -60q-11 -7 -62 -38.5t-105 -68.5l-19 16q55 74 98 144q18 28 33.5 38t41.5 10q22 0 36.5 -12t14.5 -29z" />
    <glyph glyph-name="pi" unicode="&#x3c0;" horiz-adv-x="950" 
d="M476 681q180 0 307.5 -126.5t127.5 -303.5q0 -117 -58 -216.5t-158.5 -157.5t-218.5 -58q-181 0 -309 126.5t-128 305.5q0 116 58 215t159 157t220 58zM476 643q-163 0 -277 -115t-114 -277q0 -164 114 -279.5t277 -115.5t276 115.5t113 279.5q0 162 -113.5 277
t-275.5 115zM716 365q0 -71 -52.5 -108.5t-144.5 -37.5h-38v-133q0 -23 21 -30q23 -8 73 -10v-21h-296v21q34 2 60 10q23 8 23 30v328q0 25 -23 31q-40 11 -63 12v21h273q80 0 123.5 -30t43.5 -83zM585 348q0 106 -76 106h-28v-209h15q48 0 68.5 25.5t20.5 77.5z" />
    <glyph glyph-name="endash" unicode="&#x2013;" horiz-adv-x="432" 
d="M397 229h-362v78h362v-78z" />
    <glyph glyph-name="emdash" unicode="&#x2014;" horiz-adv-x="896" 
d="M829 210h-762v81h762v-81z" />
    <glyph glyph-name="quoteleft" unicode="&#x2018;" horiz-adv-x="215" 
d="M121 478q-53 0 -75.5 34t-22.5 86q0 64 51 110t120 71l10 -25q-44 -16 -83 -50.5t-42 -70.5h35q44 0 64.5 -25.5t20.5 -53.5q0 -25 -20.5 -50.5t-57.5 -25.5z" />
    <glyph glyph-name="quoteright" unicode="&#x2019;" horiz-adv-x="215" 
d="M204 657q0 -64 -51 -110t-120 -71l-10 25q44 16 83 50.5t42 70.5h-35q-44 0 -64.5 25.5t-20.5 53.5q0 25 20.5 50.5t57.5 25.5q52 0 75 -34t23 -86z" />
    <glyph glyph-name="quotesinglbase" unicode="&#x201a;" horiz-adv-x="225" 
d="M192 36q0 -64 -51 -110t-120 -71l-10 25q44 16 83 50.5t42 70.5h-35q-44 0 -64.5 25.5t-20.5 53.5q0 25 20.5 50.5t57.5 25.5q52 0 75 -34t23 -86z" />
    <glyph glyph-name="quotedblleft" unicode="&#x201c;" horiz-adv-x="417" 
d="M323 478q-53 0 -75.5 34t-22.5 86q0 64 51 110t120 71l10 -25q-44 -16 -83 -50.5t-42 -70.5h35q44 0 64.5 -25.5t20.5 -53.5q0 -25 -20.5 -50.5t-57.5 -25.5zM121 478q-53 0 -75.5 34t-22.5 86q0 64 51 110t120 71l10 -25q-44 -16 -83 -50.5t-42 -70.5h35
q44 0 64.5 -25.5t20.5 -53.5q0 -25 -20.5 -50.5t-57.5 -25.5z" />
    <glyph glyph-name="quotedblright" unicode="&#x201d;" horiz-adv-x="417" 
d="M394 657q0 -64 -51 -110t-120 -71l-10 25q44 16 83 50.5t42 70.5h-35q-44 0 -64.5 25.5t-20.5 53.5q0 25 20.5 50.5t57.5 25.5q52 0 75 -34t23 -86zM192 657q0 -64 -51 -110t-120 -71l-10 25q44 16 83 50.5t42 70.5h-35q-44 0 -64.5 25.5t-20.5 53.5q0 25 20.5 50.5
t57.5 25.5q52 0 75 -34t23 -86z" />
    <glyph glyph-name="quotedblbase" unicode="&#x201e;" horiz-adv-x="427" 
d="M394 36q0 -64 -51 -110t-120 -71l-10 25q44 16 83 50.5t42 70.5h-35q-44 0 -64.5 25.5t-20.5 53.5q0 25 20.5 50.5t57.5 25.5q52 0 75 -34t23 -86zM192 36q0 -64 -51 -110t-120 -71l-10 25q44 16 83 50.5t42 70.5h-35q-44 0 -64.5 25.5t-20.5 53.5q0 25 20.5 50.5
t57.5 25.5q52 0 75 -34t23 -86z" />
    <glyph glyph-name="dagger" unicode="&#x2020;" horiz-adv-x="413" 
d="M393 507q0 -25 -16 -39.5t-40 -14.5q-20 0 -43.5 27t-33.5 27q-6 0 -9.5 -4t-4 -10t-1.5 -19q-4 -61 -28 -374h-21q-9 133 -29 374q-3 29 -9 32q-2 1 -6 1q-8 0 -32.5 -27t-44.5 -27q-24 0 -39.5 14.5t-15.5 39.5q0 15 10.5 26t25.5 11q14 0 25 -10t15 -26q2 0 22 10
t31 10q35 0 46 -11q-2 25 -17 70t-15 61q0 20 11.5 35t31.5 15t31.5 -15t11.5 -35q0 -17 -15.5 -62t-17.5 -69q14 11 47 11q11 0 31.5 -10t21.5 -10q4 16 15.5 26t25.5 10q15 0 25.5 -11t10.5 -26z" />
    <glyph glyph-name="daggerdbl" unicode="&#x2021;" horiz-adv-x="423" 
d="M380 569q0 -42 -46 -42q-18 0 -36 15.5t-33 15.5q-2 0 -4 -0.5t-3.5 -2l-2.5 -2.5t-2 -3.5t-2 -4.5t-1.5 -5.5t-1 -5.5t-1.5 -6.5t-1 -6.5q-3 -15 -24 -154h-21q-17 113 -25 154q-1 3 -1.5 8.5t-1 8t-1.5 6.5t-2.5 6l-3 4t-4 3t-5.5 1q-13 0 -31.5 -15.5t-37.5 -15.5
q-46 0 -46 42q0 16 10.5 26t25.5 10q33 0 41 -35q2 0 13.5 4.5t21.5 4.5q34 0 46 -11q-2 11 -16.5 37t-14.5 45q0 20 11 34t31 14t31 -14t11 -34q0 -19 -14.5 -45.5t-16.5 -36.5q12 11 46 11q14 0 25 -5l11 -5q8 36 40 36q15 0 25.5 -10t10.5 -26zM43 134q0 42 46 42
q19 0 36 -15.5t33 -15.5q2 0 4 0.5t3.5 2l2.5 2.5t2 3.5t2 4.5t1.5 5.5t1 5.5t1.5 6.5t1 6.5q3 15 24 154h21q17 -113 25 -154q1 -3 1.5 -8.5t1 -8t1.5 -6.5t2.5 -6l3 -4t4 -3t5.5 -1q13 0 31.5 15.5t37.5 15.5q46 0 46 -42q0 -16 -10.5 -26t-25.5 -10q-33 0 -41 35
q-2 0 -13.5 -4.5t-21.5 -4.5q-34 0 -46 11q2 -11 16.5 -37t14.5 -45q0 -20 -11 -34t-31 -14t-31 14t-11 34q0 19 14.5 45.5t16.5 36.5q-12 -11 -46 -11q-14 0 -25 5l-11 5q-8 -36 -40 -36q-15 0 -25.5 10t-10.5 26z" />
    <glyph glyph-name="bullet" unicode="&#x2022;" horiz-adv-x="397" 
d="M342 325q0 -55 -40 -94.5t-96 -39.5t-96 39.5t-40 94.5t40 95.5t96 40.5t96 -40.5t40 -95.5z" />
    <glyph glyph-name="ellipsis" unicode="&#x2026;" horiz-adv-x="807" 
d="M673 163q37 0 63.5 -25.5t26.5 -62.5t-26.5 -62.5t-63.5 -25.5t-63.5 25.5t-26.5 62.5t26.5 62.5t63.5 25.5zM404 163q37 0 63.5 -25.5t26.5 -62.5t-26.5 -62.5t-63.5 -25.5t-63.5 25.5t-26.5 62.5t26.5 62.5t63.5 25.5zM135 163q37 0 63.5 -25.5t26.5 -62.5t-26.5 -62.5
t-63.5 -25.5t-63.5 25.5t-26.5 62.5t26.5 62.5t63.5 25.5z" />
    <glyph glyph-name="perthousand" unicode="&#x2030;" horiz-adv-x="1273" 
d="M398 459q0 -66 -50.5 -111.5t-125.5 -45.5q-78 0 -125 41t-47 115q0 69 50.5 115.5t121.5 46.5q79 0 127.5 -41t48.5 -120zM672 672l-429 -773l-34 18l427 773zM1223 143q0 -66 -50.5 -111.5t-125.5 -45.5q-78 0 -125 41t-47 115q0 69 50.5 115.5t121.5 46.5
q79 0 127.5 -41t48.5 -120zM833 143q0 -66 -50.5 -111.5t-125.5 -45.5q-78 0 -125 41t-47 115q0 69 50.5 115.5t121.5 46.5q79 0 127.5 -41t48.5 -120zM289 457q0 70 -14.5 104.5t-51.5 34.5t-51 -34.5t-14 -99.5q0 -68 14 -102t53 -34q64 0 64 131zM1114 141
q0 70 -14.5 104.5t-51.5 34.5t-51 -34.5t-14 -99.5q0 -68 14 -102t53 -34q64 0 64 131zM724 141q0 70 -14.5 104.5t-51.5 34.5t-51 -34.5t-14 -99.5q0 -68 14 -102t53 -34q64 0 64 131z" />
    <glyph glyph-name="guilsinglleft" unicode="&#x2039;" horiz-adv-x="331" 
d="M285 28l-16 -13q-53 43 -120.5 95.5t-81.5 63.5q-2 1 -6 4.5t-5.5 4.5t-4.5 4t-3.5 4t-2.5 4t-2.5 5.5t-1.5 6t-1 8v9.5q0 20 4.5 28t19.5 20q148 112 205 160l16 -13l-127 -197z" />
    <glyph glyph-name="guilsinglright" unicode="&#x203a;" horiz-adv-x="331" 
d="M46 418l16 13q53 -43 120.5 -95.5t81.5 -63.5q2 -1 6 -4.5t5.5 -4.5t4.5 -4t3.5 -4t2.5 -4t2.5 -5.5t1.5 -6t1 -8v-9.5q0 -20 -4.5 -28t-19.5 -20q-148 -112 -205 -160l-16 13l127 197z" />
    <glyph glyph-name="fraction" unicode="&#x2044;" horiz-adv-x="328" 
d="M419 728l-504 -943l-50 24l503 943z" />
    <glyph glyph-name="Euro" unicode="&#x20ac;" horiz-adv-x="585" 
d="M231 321v-22q0 -30 1 -44h160v-33h-157q10 -90 44 -140t91 -50q58 0 94.5 30.5t65.5 92.5l26 -12q-70 -157 -213 -157q-114 0 -183 62t-84 174h-76v33h73q-1 13 -1 40q0 5 0.5 14t0.5 12h-73v33h76q16 116 90.5 191t202.5 75q82 0 136 -37.5t54 -99.5q0 -47 -20 -67.5
t-49 -20.5q-31 0 -49.5 17t-18.5 42q0 21 17.5 47t17.5 40q-4 21 -29 37.5t-63 16.5q-57 0 -91.5 -62t-41.5 -179h200v-33h-201z" />
    <glyph glyph-name="trademark" unicode="&#x2122;" horiz-adv-x="678" 
d="M657 433h-145v13q1 0 10.5 1t17 2.5t9.5 2.5q10 6 10 18v174h-6l-88 -208h-13q-11 33 -19 52l-61 151h-6v-132q0 -39 12 -49q8 -7 39 -12v-13h-124v13q31 5 37 9q12 9 12 49v124q0 21 -11 30q-18 11 -35 11v14h115l67 -167l53 134q6 17 8 33h117v-14q-10 0 -31 -6
q-10 -4 -10 -17v-176q0 -13 10 -17q5 -3 32 -7v-13zM275 609h-12q-6 17 -16 35t-21 19q-9 1 -29 1h-14v-195q0 -12 11 -17q25 -5 32 -6v-13h-145v13q32 5 33 5q12 5 12 16v197h-15q-20 0 -29 -1q-11 -1 -22.5 -20t-15.5 -34h-12v74h243v-74z" />
    <glyph glyph-name="Omega" unicode="&#x2126;" 
d="M505 231h-470v58h470v-58z" />
    <glyph glyph-name="partialdiff" unicode="&#x2202;" horiz-adv-x="617" 
d="M597 291q0 -31 -21.5 -52.5t-53.5 -21.5q-24 0 -56.5 23t-59.5 27l-9 -8q-6 -35 -39 -60l-1 -10q15 -20 53 -39q55 -26 55 -76q0 -30 -23 -53t-55 -23q-31 0 -53 21.5t-22 53.5q0 14 9 43t9 51v11l-7 5q-7 -1 -20 -1q-30 0 -56 18l-13 -1q-15 -22 -21 -61
q-14 -83 -78 -83q-31 0 -54 22.5t-23 54.5t24 53.5t59 21.5q49 0 74 13l3 14q-10 22 -10 43q0 13 3 25l-5 13q-9 3 -27 3q-15 0 -35 -3.5t-29 -3.5q-33 0 -55 22.5t-22 53.5t22 54t54 23q45 0 67 -42q4 -7 9 -24t11.5 -31.5t17.5 -25.5l15 1q28 30 69 30l11 7q0 28 -17 61.5
t-17 52.5q0 32 22 52.5t54 20.5t53 -22.5t21 -53.5q0 -22 -10 -37.5t-22.5 -23t-29 -22.5t-26.5 -33l4 -12q38 -20 48 -58l12 -6q23 8 54.5 39t63.5 31q30 0 51.5 -22.5t21.5 -54.5zM370 278q0 29 -19 48.5t-48 19.5q-28 0 -47.5 -19.5t-19.5 -48.5t19.5 -49.5t47.5 -20.5
q29 0 48 20t19 50z" />
    <glyph glyph-name="Delta" unicode="&#x2206;" horiz-adv-x="572" 
d="M516 46q0 -135 -62 -201q-68 -73 -160 -73q-132 0 -132 97q0 24 19.5 47.5t51.5 23.5q27 0 49 -16t22 -47q0 -28 -13 -76q10 -2 12 -2q40 0 54 50t14 161l1 359q0 33 -24 49h-121v-341q0 -23 7 -34q10 -15 47 -22v-21h-268v21q26 2 43 8q26 10 26 44v345h-96v43h96v18
q0 126 68 196q70 72 199 72q86 0 127 -30t41 -78q0 -26 -20 -50.5t-53 -24.5q-32 0 -52.5 17t-20.5 48q0 10 2 20t6 23.5t6 23.5q0 9 -18.5 17t-33.5 8q-45 0 -74 -49t-33 -147v-64h136l147 8l7 -7v-416z" />
    <glyph glyph-name="product" unicode="&#x220f;" horiz-adv-x="575" 
d="M443 339h-297v22q55 4 70 6q9 2 16.5 11t7.5 21v284q-14 -3 -36 -3q-33 0 -90 41l8 15q43 -16 84 -16q32 0 78 9.5t65 19.5h14q-11 -53 -11 -102v-245q0 -24 23 -32q23 -9 68 -9v-22zM542 279v-41h-509v41h509zM508 -85l-58 -142h-342v34q135 79 187 126q73 67 73 153
q0 33 -18 52.5t-47 19.5q-47 0 -77.5 -32.5t-30.5 -72.5q0 -22 9.5 -33t36.5 -11q37 0 72 57l16 -13q-15 -25 -27.5 -41.5t-41 -34.5t-62.5 -18q-93 0 -93 77q0 52 56.5 99t150.5 47q80 0 125 -32.5t45 -88.5q0 -64 -49 -103t-167 -84l-35 -21h178q24 0 41 17t41 53z" />
    <glyph glyph-name="summation" unicode="&#x2211;" horiz-adv-x="575" 
d="M443 339h-297v22q55 4 70 6q9 2 16.5 11t7.5 21v284q-14 -3 -36 -3q-33 0 -90 41l8 15q43 -16 84 -16q32 0 78 9.5t65 19.5h14q-11 -53 -11 -102v-245q0 -24 23 -32q23 -9 68 -9v-22zM542 279v-41h-509v41h509zM504 -162h-18q-2 38 -22 54q-10 7 -69 7v-64q0 -24 20 -31
q17 -7 50 -9v-22h-248v22q40 3 50 6q21 6 21 30v68h-212v37l250 248h69v-247h18.5h15h11t10 1t7.5 3t8 5q20 15 20 49h19v-157zM288 -63v170l-175 -170h175z" />
    <glyph glyph-name="minus" unicode="&#x2212;" 
d="M505 231h-470v58h470v-58z" />
    <glyph glyph-name="radical" unicode="&#x221a;" horiz-adv-x="575" 
d="M299 642l13 -14q-17 -22 -45 -40t-60 -18q-82 0 -82 61q0 47 56.5 81t143.5 34q146 0 146 -88q0 -68 -139 -93q147 0 147 -87q0 -65 -66.5 -105.5t-168.5 -40.5q-66 0 -111.5 24t-45.5 72q0 30 21.5 51.5t50.5 21.5q23 0 37 -12t14 -32q0 -14 -9 -23t-19 -13t-19 -9.5
t-9 -12.5q0 -19 22.5 -30.5t64.5 -11.5q46 0 84 37t38 87q0 62 -54 62q-27 0 -71 -41l-19 27q40 21 55 30t40.5 28t35 38.5t9.5 43.5q0 53 -52 53q-32 0 -60 -20.5t-28 -55.5q0 -32 31 -32q13 0 21.5 4t17.5 14t10 10zM542 279v-41h-509v41h509zM504 -162h-18q-2 38 -22 54
q-10 7 -69 7v-64q0 -24 20 -31q17 -7 50 -9v-22h-248v22q40 3 50 6q21 6 21 30v68h-212v37l250 248h69v-247h18.5h15h11t10 1t7.5 3t8 5q20 15 20 49h19v-157zM288 -63v170l-175 -170h175z" />
    <glyph glyph-name="infinity" unicode="&#x221e;" horiz-adv-x="878" 
d="M447 681q69 66 193 66q86 0 127 -30t41 -78q0 -26 -20 -50.5t-53 -24.5q-32 0 -52.5 17t-20.5 48q0 10 2 20t6 23.5t6 23.5q0 9 -18.5 17t-33.5 8q-45 0 -74 -49t-33 -147v-64h136l148 8l7 -7v-384q0 -33 27 -45q15 -8 43 -12v-21h-267v21q28 1 39 11q13 12 13 41v296
q0 33 -24 49h-121v-341q0 -23 7 -34q10 -15 47 -22v-21h-268v21q26 2 43 8q26 10 26 44v345h-146v-341q0 -31 14 -42q12 -9 41 -14v-21h-269v21q26 2 43 8q26 10 26 44v345h-96v43h96v11q0 127 68 198q68 70 169 70q100 0 128 -59zM383 567q-27 0 -49.5 15.5t-22.5 44.5
q0 10 2 19.5t6 22t6 23.5q0 9 -6 15.5t-16 6.5q-37 0 -55 -48t-22 -148v-57h147v18q0 43 10 88z" />
    <glyph glyph-name="integral" unicode="&#x222b;" horiz-adv-x="617" 
d="M597 291q0 -31 -21.5 -52.5t-53.5 -21.5q-24 0 -56.5 23t-59.5 27l-9 -8q-6 -35 -39 -60l-1 -10q15 -20 53 -39q55 -26 55 -76q0 -30 -23 -53t-55 -23q-31 0 -53 21.5t-22 53.5q0 14 9 43t9 51v11l-7 5q-7 -1 -20 -1q-30 0 -56 18l-13 -1q-15 -22 -21 -61
q-14 -83 -78 -83q-31 0 -54 22.5t-23 54.5t24 53.5t59 21.5q49 0 74 13l3 14q-10 22 -10 43q0 13 3 25l-5 13q-9 3 -27 3q-15 0 -35 -3.5t-29 -3.5q-33 0 -55 22.5t-22 53.5t22 54t54 23q45 0 67 -42q4 -7 9 -24t11.5 -31.5t17.5 -25.5l15 1q28 30 69 30l11 7q0 28 -17 61.5
t-17 52.5q0 32 22 52.5t54 20.5t53 -22.5t21 -53.5q0 -22 -10 -37.5t-22.5 -23t-29 -22.5t-26.5 -33l4 -12q38 -20 48 -58l12 -6q23 8 54.5 39t63.5 31q30 0 51.5 -22.5t21.5 -54.5zM370 278q0 29 -19 48.5t-48 19.5q-28 0 -47.5 -19.5t-19.5 -48.5t19.5 -49.5t47.5 -20.5
q29 0 48 20t19 50z" />
    <glyph glyph-name="approxequal" unicode="&#x2248;" 
d="M443 473l44 -44l-171 -171l170 -170l-41 -41l-170 170l-178 -178l-44 44l178 178l-170 170l41 41l170 -170z" />
    <glyph glyph-name="notequal" unicode="&#x2260;" horiz-adv-x="620" 
d="M448 681q68 66 165 66q74 0 106 -30.5t32 -72.5q0 -25 -20 -47.5t-53 -22.5q-27 0 -50 15.5t-23 44.5q0 10 2 19.5t6 22t6 23.5q0 9 -6 15.5t-16 6.5q-37 0 -55 -48t-22 -148v-64h122v-43h-121v-341q0 -33 27 -44q24 -10 64 -12v-21h-286v21q27 2 38 13q12 11 12 39v345
h-149v-341q0 -31 14 -42q12 -9 41 -14v-21h-269v21q26 2 43 8q26 10 26 44v345h-96v43h96v11q0 127 68 198q68 70 169 70q99 0 129 -59zM385 567h-1q-27 0 -50 15.5t-23 44.5q0 10 2 19.5t6 22t6 23.5q0 9 -6 15.5t-16 6.5q-37 0 -55 -48t-22 -148v-57h150v18q0 47 9 88z
" />
    <glyph glyph-name="lessequal" unicode="&#x2264;" horiz-adv-x="731" 
d="M773 22v-22h-279q-23 113 -57 198q-17 43 -24.5 59.5t-21.5 36t-31 25t-43 5.5h-32v-236q0 -35 30 -49q27 -11 70 -16v-23h-373v23q52 3 76 13q30 11 30 49v507q0 38 -30 50q-30 13 -76 18v23h367q121 0 189 -38.5t68 -117.5q0 -133 -181 -180v-7q57 -7 92.5 -34.5
t60.5 -89.5q8 -20 44 -128q17 -50 61 -59q25 -5 60 -7zM318 653h-33v-298h16q155 0 155 155q0 143 -138 143z" />
    <glyph glyph-name="greaterequal" unicode="&#x2265;" horiz-adv-x="437" 
d="M444 382q0 -36 -21.5 -61t-55.5 -25q-33 0 -53.5 17.5t-20.5 47.5q0 8 2 17t5.5 18t4.5 13q-28 -1 -49 -16.5t-30 -31.5v-284q0 -33 27 -44q20 -9 66 -12v-21h-305v21q25 2 42 8q25 9 25 44v296q0 34 -26 53q-18 13 -50 15v20l214 12l7 -7v-67h2q60 78 129 78
q38 0 62.5 -25t24.5 -66z" />
    <glyph glyph-name="lozenge" unicode="&#x25ca;" horiz-adv-x="357" 
d="M362 366q-52 -88 -152 -88q-93 0 -137.5 48.5t-44.5 125.5q0 69 46 118.5t129 49.5t119 -42t36 -107v-10h-226q1 -69 30.5 -106t83.5 -37q58 0 97 61zM254 486q0 52 -10.5 80t-41.5 28q-29 0 -47.5 -28.5t-21.5 -80.5z" />
    <glyph glyph-name="NUL" unicode="&#xe000;" horiz-adv-x="0" 
 />
    <glyph glyph-name="HT" unicode="&#xe001;" horiz-adv-x="0" 
 />
    <glyph glyph-name="apple" unicode="&#xf8ff;" horiz-adv-x="617" 
d="M597 291q0 -31 -21.5 -52.5t-53.5 -21.5q-24 0 -56.5 23t-59.5 27l-9 -8q-6 -35 -39 -60l-1 -10q15 -20 53 -39q55 -26 55 -76q0 -30 -23 -53t-55 -23q-31 0 -53 21.5t-22 53.5q0 14 9 43t9 51v11l-7 5q-7 -1 -20 -1q-30 0 -56 18l-13 -1q-15 -22 -21 -61
q-14 -83 -78 -83q-31 0 -54 22.5t-23 54.5t24 53.5t59 21.5q49 0 74 13l3 14q-10 22 -10 43q0 13 3 25l-5 13q-9 3 -27 3q-15 0 -35 -3.5t-29 -3.5q-33 0 -55 22.5t-22 53.5t22 54t54 23q45 0 67 -42q4 -7 9 -24t11.5 -31.5t17.5 -25.5l15 1q28 30 69 30l11 7q0 28 -17 61.5
t-17 52.5q0 32 22 52.5t54 20.5t53 -22.5t21 -53.5q0 -22 -10 -37.5t-22.5 -23t-29 -22.5t-26.5 -33l4 -12q38 -20 48 -58l12 -6q23 8 54.5 39t63.5 31q30 0 51.5 -22.5t21.5 -54.5zM370 278q0 29 -19 48.5t-48 19.5q-28 0 -47.5 -19.5t-19.5 -48.5t19.5 -49.5t47.5 -20.5
q29 0 48 20t19 50z" />
    <glyph glyph-name="R.alt" horiz-adv-x="731" 
d="M773 22v-22h-279q-23 113 -57 198q-17 43 -24.5 59.5t-21.5 36t-31 25t-43 5.5h-32v-236q0 -35 30 -49q27 -11 70 -16v-23h-373v23q52 3 76 13q30 11 30 49v507q0 38 -30 50q-30 13 -76 18v23h367q121 0 189 -38.5t68 -117.5q0 -133 -181 -180v-7q57 -7 92.5 -34.5
t60.5 -89.5q8 -20 44 -128q17 -50 61 -59q25 -5 60 -7zM318 653h-33v-298h16q155 0 155 155q0 143 -138 143z" />
    <glyph glyph-name="r.alt" horiz-adv-x="437" 
d="M444 382q0 -36 -21.5 -61t-55.5 -25q-33 0 -53.5 17.5t-20.5 47.5q0 8 2 17t5.5 18t4.5 13q-28 -1 -49 -16.5t-30 -31.5v-284q0 -33 27 -44q20 -9 66 -12v-21h-305v21q25 2 42 8q25 9 25 44v296q0 34 -26 53q-18 13 -50 15v20l214 12l7 -7v-67h2q60 78 129 78
q38 0 62.5 -25t24.5 -66z" />
    <glyph glyph-name="ampersand.alt" horiz-adv-x="830" 
d="M800 577q0 -150 -164 -161q42 -13 67.5 -51t25.5 -86q0 -50 -24 -101t-69 -95t-122.5 -72t-174.5 -28q-123 0 -206.5 64.5t-83.5 162.5q0 53 27.5 85t78.5 62q-69 47 -69 127q0 55 41.5 93.5t106.5 38.5q69 0 112 -33.5t57 -89.5l-16 -8q-42 48 -121 48q-57 0 -82 -27.5
t-25 -67.5q0 -49 24 -69q59 32 95 32q38 0 60 -15.5t22 -40.5q0 -21 -14.5 -35.5t-42.5 -14.5q-17 0 -32.5 3t-30.5 10t-23.5 11.5t-23 14t-18.5 11.5q-17 -17 -17 -67q0 -74 77.5 -124t196.5 -53q133 -4 197 52t64 146q0 54 -41 86t-104 32q-47 0 -76.5 -25.5t-29.5 -67.5
q0 -37 21.5 -56t55.5 -19q22 0 46 15q-74 11 -74 51q0 32 19 46.5t41 14.5q30 0 51.5 -18t21.5 -49q0 -37 -24.5 -60.5t-68.5 -23.5q-55 0 -92 30.5t-37 79.5q0 86 50 129.5t121 43.5q13 0 54 -2.5t52 -2.5q44 0 64.5 26.5t20.5 64.5q0 25 -18 44t-52 19q-32 0 -32 -21
q52 -14 52 -49q0 -28 -16 -42t-40 -14q-29 0 -50 17t-21 52q0 34 28 55.5t76 21.5q52 0 80.5 -29.5t28.5 -70.5z" />
    </font>
</defs>
</svg>
