<?xml version="1.0" standalone="no"?>
<!DOCTYPE svg PUBLIC "-//W3C//DTD SVG 1.1//EN" "http://www.w3.org/Graphics/SVG/1.1/DTD/svg11.dtd" >
<svg>
<metadata>
Created by FontForge 20120731 at Thu May  5 19:40:38 2016
 By ,,,
Copyright (c) Carter &#38; Cone Type, Inc., 2003. All rights reserved.
</metadata>
<defs>
<font id="MillerDisplay-Semibold" horiz-adv-x="500" >
  <font-face 
    font-family="MillerDisplay Semibold"
    font-weight="600"
    font-stretch="normal"
    units-per-em="1000"
    panose-1="2 0 5 3 8 0 0 2 0 4"
    ascent="764"
    descent="-236"
    x-height="456"
    cap-height="683"
    bbox="-156 -233 1211 939"
    underline-thickness="20"
    underline-position="-113"
    unicode-range="U+0009-FB02"
  />
<missing-glyph 
 />
    <glyph glyph-name="fi" unicode="fi" horiz-adv-x="582" 
d="M24 0v20q26 1 44 8q26 9 26 44v342h-99v41h99v25q0 124 72 199q64 68 170 68q162 0 162 -107q0 -23 -16.5 -44t-45.5 -21q-25 0 -44.5 14t-19.5 40q0 17 8 38l7 21q0 12 -16 23.5t-45 11.5q-49 0 -82.5 -51.5t-34.5 -154.5v-62h150l133 8l7 -7v-378q0 -34 27 -46
q22 -10 43 -12v-20h-246v20q23 1 40 9q21 11 21 43v294q-3 33 -19 50h-156v-339q0 -29 18 -40q16 -12 49 -17v-20h-252z" />
    <glyph glyph-name="fl" unicode="fl" horiz-adv-x="583" 
d="M24 0v20q26 1 44 8q26 9 26 44v341h-99v42h99v25q0 123 72 199q66 68 161 68q54 0 96 -21l70 20l7 -7v-661q0 -34 26 -46q25 -10 44 -12v-20h-246v20q22 1 41 9q20 10 20 43v509q-30 12 -30 41q0 14 4 24.5t12 20t9 11.5q-14 45 -64 45q-45 0 -75.5 -52t-31.5 -154v-62
h113v-42h-113v-336q0 -32 22 -43q17 -11 45 -14v-20h-252z" />
    <glyph glyph-name="f_f_l" unicode="ffl" horiz-adv-x="875" 
d="M24 0v20q26 1 44 8q26 9 26 44v342h-99v41h99v19q0 123 70 199q63 67 158 67q104 0 132 -67q24 26 67 50t98 24q54 0 96 -21l70 20l7 -7v-661q0 -34 27 -46q23 -10 43 -12v-20h-246v20q24 1 41 9q21 10 21 43v509q-30 12 -30 41q0 14 4 24.5t12 20t9 11.5q-16 45 -65 45
q-45 0 -75.5 -52t-31.5 -154v-62h113v-41h-113v-337q0 -32 22 -43q17 -11 45 -14v-20h-252v20q26 1 44 8q26 9 26 44v343h-177v-338q0 -32 22 -44q21 -11 43 -13v-20h-250zM208 455h179v25q0 51 13 98q-26 2 -42 14t-16 34q0 12 2.5 21.5t6 19t4.5 15.5q-3 34 -44 34
q-44 0 -72.5 -51t-30.5 -154v-56z" />
    <glyph glyph-name="f_f_i" unicode="ffi" horiz-adv-x="874" 
d="M24 0v20q26 1 44 8q26 9 26 44v342h-99v41h99v19q0 123 70 199q63 67 158 67q104 0 131 -66q67 73 173 73q159 0 159 -107q0 -23 -16.5 -44.5t-45.5 -21.5q-25 0 -44.5 14t-19.5 40q0 17 7.5 37.5t7.5 22.5q0 12 -15 23.5t-43 11.5q-48 0 -81 -51t-35 -155v-62h150l133 8
l7 -7v-378q0 -34 27 -46q24 -10 44 -12v-20h-247v20q23 1 40 9q21 11 21 43v294q-2 32 -18 50h-156v-339q0 -29 18 -40q16 -12 49 -17v-20h-252v20q26 2 43 8q27 9 27 44v343h-177v-338q0 -32 22 -44q21 -11 43 -13v-20h-250zM208 455h179v25q0 56 12 98q-24 1 -41 13
t-17 34q0 17 7 36t7 21q-3 34 -44 34q-44 0 -72.5 -51t-30.5 -154v-56z" />
    <glyph glyph-name="f_j" unicode="fj" horiz-adv-x="570" 
d="M293 -227q-60 0 -88.5 24t-28.5 61q0 21 18 41t45 20q24 0 43.5 -14t19.5 -41q0 -13 -5 -36.5t-5 -27.5q8 -2 17 -2q43 0 59 49.5t16 163.5l1 350q0 37 -28 55h-148v-339q0 -29 18 -40q15 -11 55 -17v-20h-258v20q26 1 44 8q26 9 26 44v342h-99v41h99v25q0 126 70 199
q66 68 170 68q162 0 162 -107q0 -23 -16.5 -44t-45.5 -21q-25 0 -44.5 14t-19.5 40q0 17 8 38l7 21q-1 13 -16.5 24t-44.5 11q-49 0 -81.5 -51t-33.5 -155v-62h151l132 8l7 -7v-413q0 -137 -62 -203q-62 -67 -144 -67z" />
    <glyph glyph-name="f_f" unicode="ff" horiz-adv-x="615" 
d="M24 0v20q26 1 44 8q26 9 26 44v342h-99v41h99v19q0 123 70 199q63 67 158 67q101 0 130 -63q55 70 156 70q58 0 87.5 -27.5t29.5 -65.5q0 -20 -16.5 -39.5t-43.5 -19.5q-23 0 -42 13t-19 39q0 10 4 29t5 29q-3 18 -26 18q-42 0 -62.5 -48t-22.5 -156v-64h122v-41h-121
v-337q0 -35 27 -45q25 -10 59 -12v-20h-260v20q22 1 38 10q21 10 21 42v343h-179v-338q0 -32 22 -44q21 -11 43 -13v-20h-250zM208 455h181v24q0 50 13 99h-3q-25 1 -42 13t-17 34q0 12 2.5 22t6.5 19.5t6 15.5q-3 34 -44 34q-44 0 -72.5 -51t-30.5 -154v-56z" />
    <glyph glyph-name=".notdef" 
 />
    <glyph glyph-name=".null" horiz-adv-x="0" 
 />
    <glyph glyph-name="nonmarkingreturn" horiz-adv-x="333" 
 />
    <glyph glyph-name="HT" unicode="&#x9;" horiz-adv-x="0" 
 />
    <glyph glyph-name="space" unicode=" " horiz-adv-x="218" 
 />
    <glyph glyph-name="space" unicode="&#xa0;" horiz-adv-x="218" 
 />
    <glyph glyph-name="exclam" unicode="!" horiz-adv-x="349" 
d="M162 210q-10 73 -25.5 171t-24.5 157.5t-9 81.5q0 34 20.5 57t52.5 23t52.5 -23t20.5 -57q0 -21 -9 -79.5t-25.5 -159.5t-26.5 -171h-26zM176 -12q-32 0 -54.5 22t-22.5 53q0 32 22.5 54.5t54.5 22.5t54.5 -22.5t22.5 -54.5q0 -31 -22.5 -53t-54.5 -22z" />
    <glyph glyph-name="quotedbl" unicode="&#x22;" horiz-adv-x="396" 
d="M282 472q-9 49 -21.5 96t-19 72t-6.5 37q0 25 16.5 42.5t44.5 17.5t45 -18t17 -42q0 -12 -7 -36.5t-20 -72.5t-23 -96h-26zM86 472q-9 49 -21.5 96t-19 72t-6.5 37q0 25 16.5 42.5t44.5 17.5t45 -18t17 -42q0 -12 -6.5 -36.5t-20 -72.5t-23.5 -96h-26z" />
    <glyph glyph-name="numbersign" unicode="#" horiz-adv-x="557" 
d="M197 -7v144l-110 -27v109l110 27v101l-110 -27v109l110 27v171h26v-164l111 29v135h27v-128l111 27v-109l-111 -27v-101l111 27v-109l-111 -27v-187h-27v179l-111 -28v-151h-26zM223 253l111 28v101l-111 -28v-101z" />
    <glyph glyph-name="dollar" unicode="$" horiz-adv-x="611" 
d="M252 -142v138q-82 9 -133.5 46t-51.5 94q0 42 19.5 65.5t49.5 23.5q27 0 41 -16t14 -43q0 -21 -8.5 -31.5t-21 -17.5t-17.5 -17q0 -33 28.5 -53.5t79.5 -26.5v240q-80 10 -126 55t-46 118q0 70 44 119t128 63v98h25v-95q28 2 43 2q10 0 28 -2v95h25v-96
q71 -10 111.5 -42.5t40.5 -79.5q0 -34 -14.5 -56.5t-43.5 -22.5q-24 0 -39.5 13t-15.5 38q0 24 20.5 45.5t23.5 33.5q-10 36 -83 46v-221q85 -17 129 -58.5t44 -124.5q0 -67 -42 -120t-131 -69v-141h-25v138q-22 -3 -49 -3q-15 0 -22 1v-136h-25zM252 385v202
q-79 -22 -79 -98q0 -84 79 -104zM348 374v221q-9 1 -28 1q-24 0 -43 -4v-210q31 -5 71 -8zM373 27q83 25 83 112q0 83 -83 108v-220zM277 18q7 -1 22 -1q27 0 49 3v231q-14 3 -71 7v-240z" />
    <glyph glyph-name="percent" unicode="%" horiz-adv-x="880" 
d="M222 302q-71 0 -117.5 41.5t-46.5 114.5q0 68 49.5 115t114.5 47q72 0 120 -41.5t48 -119.5q0 -65 -50 -111t-118 -46zM240 -99l-31 16l427 773l33 -16zM654 -14q-71 0 -117 41.5t-46 114.5q0 68 49.5 115t113.5 47q72 0 120 -41.5t48 -119.5q0 -65 -50 -111t-118 -46z
M225 326q33 0 52.5 34.5t19.5 96.5q0 139 -74 139q-73 0 -73 -134q0 -136 75 -136zM657 10q33 0 53 35t20 96q0 139 -75 139q-73 0 -73 -134q0 -136 75 -136z" />
    <glyph glyph-name="ampersand" unicode="&#x26;" horiz-adv-x="747" 
d="M235 -16q-84 0 -142 42t-58 123q0 68 41.5 117.5t127.5 103.5q-72 112 -72 173q0 68 52.5 111t133.5 43q62 0 93 -36t31 -96q0 -89 -117 -160l1 -1l2 -4t2 -3q57 -83 154 -207q81 116 81 171q0 31 -90 49v21h281v-21q-96 -10 -130 -49q-10 -12 -51.5 -83t-72.5 -110
q72 -87 114 -113q45 -27 117 -33v-22h-243q-43 48 -66 81q-95 -97 -189 -97zM311 426q46 29 65.5 61.5t19.5 78.5q0 47 -21.5 73.5t-54.5 26.5q-36 0 -53 -27.5t-17 -65.5q0 -60 61 -147zM282 46q74 0 123 57q-144 186 -185 245q-59 -49 -59 -157q0 -67 32.5 -106t88.5 -39z
" />
    <glyph glyph-name="quotesingle" unicode="'" horiz-adv-x="200" 
d="M86 472q-9 49 -21.5 96t-19 72t-6.5 37q0 25 16.5 42.5t44.5 17.5t45 -18t17 -42q0 -12 -6.5 -36.5t-20 -72.5t-23.5 -96h-26z" />
    <glyph glyph-name="parenleft" unicode="(" horiz-adv-x="361" 
d="M286 -160q-244 177 -244 456q0 265 243 452l47 -27q-223 -170 -224 -423q0 -140 61.5 -248.5t162.5 -182.5z" />
    <glyph glyph-name="parenright" unicode=")" horiz-adv-x="361" 
d="M75 -160l-46 27q223 167 224 424q0 261 -224 430l47 27q243 -180 243 -455q0 -267 -244 -453z" />
    <glyph glyph-name="asterisk" unicode="*" horiz-adv-x="380" 
d="M188 399q-29 0 -29 30q0 8 10 40t14 67q-23 -15 -44.5 -35.5t-33.5 -32t-20 -11.5q-11 0 -20.5 10.5t-9.5 23.5q0 14 11.5 19.5t46.5 14.5t67 23q-25 11 -52.5 19t-41.5 11.5t-23.5 10.5t-9.5 19t9 22t20 10q10 0 22.5 -11.5t34 -32.5t43.5 -35q-4 30 -13.5 63.5
t-9.5 42.5q0 30 29 30q31 0 31 -30q0 -6 -11 -39.5t-14 -66.5q22 15 43 36t33 31.5t22 10.5q11 0 19.5 -10t8.5 -23q0 -15 -11.5 -20.5t-46 -14.5t-65.5 -23q29 -12 63.5 -21t47 -15.5t12.5 -20.5q0 -15 -9 -24.5t-21 -9.5q-7 0 -20 12t-34 32t-41 34q3 -33 13.5 -66.5
t10.5 -39.5q0 -13 -8.5 -21.5t-22.5 -8.5z" />
    <glyph glyph-name="plus" unicode="+" horiz-adv-x="562" 
d="M254 19v215h-214v52h214v215h54v-215h214v-52h-214v-215h-54z" />
    <glyph glyph-name="comma" unicode="," horiz-adv-x="259" 
d="M59 -173l-11 23q97 52 105 151h-24q-44 0 -63 21t-19 52q0 26 19 47t50 21q48 0 71.5 -32.5t23.5 -87.5q0 -61 -46.5 -114.5t-105.5 -80.5z" />
    <glyph glyph-name="hyphen" unicode="-" horiz-adv-x="352" 
d="M35 208v86h282v-86h-282z" />
    <glyph glyph-name="hyphen" unicode="&#xad;" horiz-adv-x="352" 
d="M35 208v86h282v-86h-282z" />
    <glyph glyph-name="period" unicode="." horiz-adv-x="259" 
d="M130 -11q-32 0 -54.5 22t-22.5 54t22.5 54.5t54.5 22.5t54.5 -22.5t22.5 -54.5t-22.5 -54t-54.5 -22z" />
    <glyph glyph-name="slash" unicode="/" horiz-adv-x="415" 
d="M69 -213l-49 14l312 951l50 -14z" />
    <glyph glyph-name="zero" unicode="0" horiz-adv-x="618" 
d="M305 -15q-123 0 -193.5 88t-70.5 216q0 148 81.5 239.5t193.5 91.5q123 0 193.5 -87t70.5 -216q0 -149 -81 -240.5t-194 -91.5zM308 12q60 0 98.5 79.5t38.5 212.5q0 128 -33.5 209t-99.5 81q-59 0 -97.5 -80t-38.5 -212q0 -131 33 -210.5t99 -79.5z" />
    <glyph glyph-name="one" unicode="1" horiz-adv-x="428" 
d="M61 0v22q54 3 80 11q32 11 32 47v441q-9 -3 -34 -3q-44 0 -118 64l9 16q53 -23 114 -23q76 0 145 43h20q-14 -84 -14 -154v-379q0 -35 29 -48q26 -12 76 -15v-22h-339z" />
    <glyph glyph-name="two" unicode="2" horiz-adv-x="577" 
d="M44 0l5 44q144 108 235 196q63 61 89 119t26 128q0 54 -28.5 80t-71.5 26q-66 0 -109 -57t-43 -122q0 -66 60 -66q24 0 43 9.5t25.5 17t20.5 25.5l13 -12q-58 -96 -149 -96q-48 0 -78.5 29t-30.5 79q0 80 78.5 150t191.5 70q88 0 143.5 -42.5t55.5 -115.5
q0 -98 -74.5 -172.5t-246.5 -163.5l-35 -28h253q60 0 107 98l20 -6l-63 -190h-437z" />
    <glyph glyph-name="three" unicode="3" horiz-adv-x="561" 
d="M220 -26q-83 0 -142 35.5t-59 101.5q0 44 26 69.5t64 25.5q28 0 44 -15.5t16 -39.5q0 -18 -8.5 -30.5t-19 -18t-19 -15t-8.5 -20.5q0 -27 25.5 -46.5t75.5 -19.5q68 0 119.5 57t51.5 142q0 102 -76 102q-17 0 -36 -10t-29.5 -18.5t-31.5 -28.5l-21 29q7 5 30.5 20.5
t30 20t25.5 18.5t25 20t20.5 19t19.5 21t13.5 21t11.5 24.5t6 26t3 29.5q0 100 -87 100q-47 0 -85.5 -34.5t-38.5 -86.5q0 -59 48 -59q28 0 62 34l13 -13q-53 -75 -116 -75q-49 0 -75.5 24.5t-26.5 63.5q0 70 74.5 121t176.5 51q90 0 137 -40t47 -92t-46 -91t-136 -57
l-16 -13q18 3 35 3q30 0 58.5 -6.5t55.5 -21t43.5 -43t16.5 -66.5q0 -101 -85.5 -160t-211.5 -59z" />
    <glyph glyph-name="four" unicode="4" horiz-adv-x="581" 
d="M182 0v22q50 3 70 10q30 10 30 47v128h-264v31l326 391h58v-377h34q52 0 68 20q20 23 22 68h21v-227h-20q-2 51 -21 74q-14 20 -67 20h-37v-123q0 -36 28 -48q25 -12 67 -14v-22h-315zM69 252h213v257z" />
    <glyph glyph-name="five" unicode="5" horiz-adv-x="528" 
d="M218 -14q-85 0 -139 33.5t-54 89.5q0 37 22 55.5t49 18.5q25 0 40.5 -14t15.5 -37q0 -20 -9 -41.5t-11 -33.5q3 -19 27 -33t58 -14q44 0 75 35t43.5 82t12.5 99q0 66 -32 97t-82 31q-39 0 -77.5 -21.5t-53.5 -58.5l-27 6l76 337h26q12 -14 52 -26.5t93 -12.5q98 0 165 52
l13 -12q-46 -80 -126 -112t-154 -32q-50 0 -68 3l-34 -135q53 42 146 42q91 0 153 -50.5t62 -137.5q0 -96 -75.5 -153t-186.5 -57z" />
    <glyph glyph-name="six" unicode="6" horiz-adv-x="571" 
d="M276 -15q-98 0 -163 78t-65 212q0 175 103 300t239 125q73 0 108 -34.5t35 -74.5q0 -62 -59 -62q-18 0 -29.5 4t-19 16.5t-10.5 19t-8.5 29t-7.5 29.5q-6 22 -16 30.5t-33 8.5q-62 0 -110 -89.5t-64 -229.5l4 -2q60 83 162 83q74 0 128 -58t54 -152q0 -40 -12.5 -78.5
t-39.5 -74.5t-77.5 -58t-118.5 -22zM279 11q113 0 113 206q0 167 -109 167q-45 0 -78 -46.5t-33 -140.5q0 -85 32 -135.5t75 -50.5z" />
    <glyph glyph-name="seven" unicode="7" horiz-adv-x="497" 
d="M214 -120q-62 0 -62 76q0 69 112 276q64 115 161 258h-265q-39 0 -64 -30.5t-45 -85.5l-21 5l63 272h18l9 -56h395v-17q-79 -108 -125 -205q-51 -108 -72 -191t-29 -202q-6 -100 -75 -100z" />
    <glyph glyph-name="eight" unicode="8" horiz-adv-x="561" 
d="M262 -16q-94 0 -154.5 43t-60.5 108q0 54 38.5 94.5t88.5 61.5v3q-57 28 -81.5 62t-24.5 88q0 76 66.5 129t153.5 53q90 0 145 -39.5t55 -103.5q0 -43 -29.5 -77.5t-76.5 -54.5v-3q62 -26 98 -64t36 -99q0 -89 -75 -145t-179 -56zM355 362q51 40 51 124q0 50 -32 81.5
t-90 31.5q-54 0 -88 -30t-34 -72q0 -68 98 -106q47 -18 95 -29zM277 12q59 0 100.5 34t41.5 86q0 40 -28.5 67t-85.5 48q-59 21 -103 34q-65 -57 -65 -146q0 -55 36.5 -89t103.5 -34z" />
    <glyph glyph-name="nine" unicode="9" horiz-adv-x="571" 
d="M172 -103q-72 0 -111 31.5t-39 74.5q0 30 17.5 47t48.5 17q16 0 27 -4.5t18 -16.5t10 -19.5t7 -28t6 -26.5q15 -43 54 -43q72 0 122 97t64 235l-5 1q-61 -85 -161 -85q-76 0 -129.5 57t-53.5 153q0 41 14 81t41.5 74.5t75.5 56t110 21.5q98 0 166 -74t68 -221
q0 -177 -98.5 -302.5t-251.5 -125.5zM286 224q44 0 79 44t35 135q0 89 -34 140.5t-79 51.5q-108 0 -108 -196q0 -175 107 -175z" />
    <glyph glyph-name="colon" unicode=":" horiz-adv-x="327" 
d="M164 311q-32 0 -54 21.5t-22 53.5t22 54t54 22t54.5 -22.5t22.5 -53.5q0 -32 -22.5 -53.5t-54.5 -21.5zM164 -10q-32 0 -54 21.5t-22 53.5q0 31 22 53t54 22t54.5 -22t22.5 -53q0 -32 -22.5 -53.5t-54.5 -21.5z" />
    <glyph glyph-name="semicolon" unicode=";" horiz-adv-x="327" 
d="M164 312q-32 0 -53 21t-21 55q0 32 21.5 53t52.5 21q32 0 52.5 -22t20.5 -53t-20.5 -53t-52.5 -22zM93 -172l-11 22q97 53 105 151h-24q-44 0 -63 20.5t-19 51.5q0 26 19 46.5t50 20.5q48 0 71.5 -32t23.5 -87q0 -60 -46.5 -113t-105.5 -80z" />
    <glyph glyph-name="less" unicode="&#x3c;" horiz-adv-x="562" 
d="M498 33l-442 205v44l442 205v-56l-373 -171l373 -171v-56z" />
    <glyph glyph-name="equal" unicode="=" horiz-adv-x="562" 
d="M60 314v52h442v-52h-442zM60 154v52h442v-52h-442z" />
    <glyph glyph-name="greater" unicode="&#x3e;" horiz-adv-x="562" 
d="M64 33v56l373 171l-373 171v56l442 -205v-44z" />
    <glyph glyph-name="question" unicode="?" horiz-adv-x="492" 
d="M187 193v186q148 14 148 150q0 72 -31 107.5t-78 35.5q-48 0 -68 -25q1 -5 6 -15.5t7.5 -22t2.5 -28.5q0 -30 -20 -48t-46 -18q-32 0 -48 19t-16 50q0 45 53 80t133 35q102 0 159.5 -58.5t57.5 -146.5q0 -54 -21.5 -95.5t-56.5 -64t-72.5 -34t-77.5 -13.5l-4 -94h-28z
M203 -12q-32 0 -54 22t-22 53t22.5 53.5t53.5 22.5t53.5 -22.5t22.5 -53.5t-22 -53t-54 -22z" />
    <glyph glyph-name="at" unicode="@" horiz-adv-x="1058" 
d="M531 -215q-119 0 -214.5 45.5t-153.5 136.5t-58 212q0 133 68 243.5t180.5 172t244.5 61.5q151 0 240.5 -89t89.5 -233q0 -121 -69.5 -211t-166.5 -90q-46 0 -75.5 21t-32.5 59l-3 1q-51 -79 -110 -79q-47 0 -78.5 32t-31.5 99q0 49 27.5 108t82 105.5t118.5 46.5
q26 0 44 -16t23 -44h3l20 54h83l-92 -263q-10 -27 -10 -52q0 -46 42 -46q76 0 136 79t60 202q0 128 -82.5 204.5t-216.5 76.5q-69 0 -136 -30.5t-120.5 -85t-86.5 -138.5t-33 -183q0 -169 92.5 -263.5t237.5 -94.5q146 0 249 73.5t153 221.5l20 -7q-48 -161 -168 -245
t-276 -84zM491 66q46 0 96 87l61 178q-12 74 -59 74q-38 0 -70 -43.5t-47.5 -100.5t-16.5 -110q-1 -85 36 -85z" />
    <glyph glyph-name="A" unicode="A" horiz-adv-x="687" 
d="M181 238q-36 -99 -37 -103q-12 -36 -12 -59q0 -24 37 -37.5t74 -16.5v-22h-272v22q44 5 67 19q33 20 56 78q23 57 66 165t92.5 235t68.5 175h55q43 -108 133 -342t102 -263q13 -31 40 -48q24 -15 64 -19v-22h-339v22q35 3 67 13t32 27q0 13 -4 22l-59 154h-231zM194 274
h204l-104 264q-37 -95 -100 -264z" />
    <glyph glyph-name="B" unicode="B" horiz-adv-x="671" 
d="M29 0v22q58 6 75 13q31 12 31 49v509q0 37 -31 50q-28 13 -73 18v22h349q60 0 107 -12.5t80 -46t33 -85.5q0 -72 -45 -108.5t-127 -58.5v-9q27 -3 53.5 -10t55 -21.5t50 -33.5t35.5 -49t14 -66q0 -93 -74.5 -138t-187.5 -45h-345zM267 376h43q75 0 110.5 40.5t35.5 107.5
q0 66 -35.5 98t-89.5 32q-26 0 -64 -2v-276zM352 30q69 0 102.5 47t33.5 119q0 68 -41 109.5t-115 41.5q-37 0 -65 -2v-263q10 -52 85 -52z" />
    <glyph glyph-name="C" unicode="C" horiz-adv-x="653" 
d="M366 -15q-148 0 -242 94.5t-94 253.5q0 158 100.5 261.5t253.5 103.5q93 0 162 -50l28 45h38l4 -251h-25q-70 225 -223 225q-82 0 -135.5 -85.5t-53.5 -236.5q0 -141 61.5 -223.5t157.5 -82.5q80 0 130.5 38.5t87.5 112.5l27 -14q-36 -84 -104.5 -137.5t-172.5 -53.5z
" />
    <glyph glyph-name="D" unicode="D" horiz-adv-x="770" 
d="M31 0v22q51 3 73 11q31 12 31 49v511q0 38 -31 51q-25 12 -69 17v22h330q46 0 93.5 -9.5t99.5 -34t91.5 -62t65.5 -100t26 -140.5q0 -84 -34 -150.5t-90.5 -106t-126 -60t-145.5 -20.5h-314zM364 30q113 0 169 83t56 225q0 138 -67 226.5t-178 88.5q-36 0 -76 -2v-549
q5 -72 96 -72z" />
    <glyph glyph-name="E" unicode="E" horiz-adv-x="661" 
d="M26 0v22q64 7 78 13q31 12 31 49v509q0 37 -31 49q-33 14 -78 19v22h568v-166h-27q-10 38 -44.5 83t-67.5 50q-32 4 -82 4h-105v-285h75q56 0 86 30q12 12 21.5 41t12.5 52h27v-281h-27q-2 23 -13 55t-21 43q-28 30 -86 30h-75v-221q0 -58 20 -73t93 -15q46 0 66 0.5
t49 6t40 16.5q23 23 48.5 69.5t37.5 77.5h25l-13 -200h-608z" />
    <glyph glyph-name="F" unicode="F" horiz-adv-x="610" 
d="M26 0v22q66 7 78 12q31 12 31 49v510q0 37 -31 49q-33 14 -78 19v22h575v-171h-26q-12 40 -46 87t-67 51q-32 4 -82 4h-112v-289h76q58 0 88 30q27 25 35 94h27v-284h-27q-2 25 -13 57.5t-22 43.5q-27 29 -88 29h-76v-248q0 -35 30 -49q25 -10 75 -16v-22h-347z" />
    <glyph glyph-name="G" unicode="G" horiz-adv-x="742" 
d="M348 -15q-83 0 -154 37.5t-117.5 117.5t-46.5 189q0 164 104 266.5t267 102.5q99 0 170 -50l31 45h37l4 -246h-25q-74 220 -235 220q-90 0 -146 -86.5t-56 -239.5q0 -140 56 -231t143 -91q63 0 101.5 31.5t49.5 79.5v76q0 44 -33 57t-86 16v24h339v-24q-43 -5 -65 -13
q-30 -12 -30 -51v-230l-15 -4l-57 62q-127 -58 -236 -58z" />
    <glyph glyph-name="H" unicode="H" horiz-adv-x="844" 
d="M34 0v22q58 6 70 11q31 12 31 49v511q0 36 -31 49q-37 15 -70 19v22h336v-22q-45 -5 -72 -14q-30 -10 -30 -49v-225h309v220q0 36 -31 49q-37 15 -71 19v22h335v-22q-43 -5 -69 -14q-31 -10 -31 -49v-511q0 -34 31 -49q21 -11 69 -16v-22h-335v22q50 3 71 11q31 12 31 49
v255h-309v-250q0 -35 30 -49q26 -11 72 -16v-22h-336z" />
    <glyph glyph-name="I" unicode="I" horiz-adv-x="406" 
d="M34 0v22q51 3 72 11q31 12 31 48v513q0 35 -31 48q-40 16 -72 19v22h339v-22q-47 -5 -73 -14q-30 -10 -30 -48v-513q0 -34 30 -48q26 -11 73 -16v-22h-339z" />
    <glyph glyph-name="J" unicode="J" horiz-adv-x="508" 
d="M154 -17q-80 0 -119 31t-39 76q0 37 22.5 60.5t58.5 23.5q34 0 54.5 -20.5t20.5 -52.5q0 -52 -52 -79v-5q12 -4 25 -4q75 0 102.5 50t27.5 142v388q0 36 -31 49q-32 14 -79 19v22h347v-22q-47 -5 -73 -14q-31 -10 -31 -49v-398q0 -87 -66 -152t-168 -65z" />
    <glyph glyph-name="K" unicode="K" horiz-adv-x="751" 
d="M34 0v22q58 6 70 11q31 12 31 49v511q0 36 -31 49q-31 15 -70 19v22h335v-22q-45 -5 -71 -14q-30 -10 -30 -49v-245h13q101 85 171.5 163t70.5 110q0 27 -79 35v22h285v-22q-99 -10 -145 -56q-24 -25 -64.5 -69.5t-68 -72t-63.5 -59.5q158 -179 246 -295q41 -55 80 -72
q20 -10 66 -15v-22h-369v22q26 3 40.5 5.5t27.5 12t13 24.5q0 7 -6.5 19.5t-21 32t-27.5 36.5t-37 44.5t-37.5 43.5t-41 47.5t-37.5 42.5h-16v-243q0 -37 30 -50q24 -10 68 -15v-22h-332z" />
    <glyph glyph-name="L" unicode="L" horiz-adv-x="625" 
d="M30 0v22q60 7 74 12q31 13 31 50v508q0 36 -31 50q-32 14 -74 19v22h341v-22q-45 -5 -72 -14q-31 -10 -31 -50v-479q0 -61 19 -75t94 -14q113 0 137 25q22 23 50.5 71t39.5 79h24l-14 -204h-588z" />
    <glyph glyph-name="M" unicode="M" horiz-adv-x="949" 
d="M8 0v22q66 8 92 26q32 24 32 137v365q0 59 -30 83t-89 28v22h257l204 -482l165 397q19 48 22 85h257v-22q-46 -5 -73 -14q-31 -10 -31 -49v-511q0 -34 31 -49q18 -10 74 -16v-22h-353v22q72 8 84 14q32 17 32 51v521l-246 -597h-31q-29 88 -51 139l-182 438l-1 -37v-361
q0 -109 34 -136q11 -9 46.5 -19.5t53.5 -12.5v-22h-297z" />
    <glyph glyph-name="N" unicode="N" horiz-adv-x="770" 
d="M603 -5l-432 549v-353q0 -109 34 -137q11 -9 46 -19.5t52 -12.5v-22h-295v22q17 2 49 10.5t43 16.5q32 24 32 137v350q0 51 -31 79q-17 15 -47 28t-54 17v23h225l391 -497v308q0 111 -34 136q-12 9 -46.5 19t-51.5 12v22h294v-22q-66 -8 -92 -26q-32 -23 -32 -135v-505
h-51z" />
    <glyph glyph-name="O" unicode="O" horiz-adv-x="768" 
d="M380 -17q-143 0 -244 95q-106 99 -106 256q0 168 105 268q103 98 249 98q149 0 251 -98q102 -97 102 -256q0 -169 -108 -270q-101 -93 -249 -93zM384 15q101 0 151.5 91t50.5 237q0 63 -10.5 118.5t-33.5 103.5t-63.5 75.5t-94.5 27.5q-96 0 -149.5 -87.5t-53.5 -241.5
q0 -142 51 -233t152 -91z" />
    <glyph glyph-name="P" unicode="P" horiz-adv-x="625" 
d="M30 0v22q50 3 74 12q31 12 31 50v510q0 39 -31 50q-34 12 -76 17v22h347q108 0 170 -43t62 -123q0 -68 -40.5 -117t-101.5 -71t-134 -22h-63v-222q0 -37 30 -49q25 -9 77 -14v-22h-345zM268 338h35q86 0 120.5 46t34.5 109q0 161 -138 161h-52v-316z" />
    <glyph glyph-name="Q" unicode="Q" horiz-adv-x="774" 
d="M631 -167q-71 0 -121 38.5t-66 120.5q-34 -8 -63 -8q-144 0 -243 93q-107 102 -107 257q0 162 100 264t254 102q149 0 252 -100q101 -98 101 -254q0 -101 -45 -181.5t-134 -129.5q17 -64 57.5 -91.5t83.5 -27.5q77 0 109 81l21 -10q-19 -54 -72.5 -104t-126.5 -50z
M536 91q0 1 5 8q46 81 46 244q0 63 -10.5 118.5t-33.5 103.5t-63.5 75.5t-94.5 27.5q-97 0 -150 -87.5t-53 -241.5q0 -141 48 -227q24 56 65 81.5t84 25.5q54 0 96 -34t61 -94zM385 15q31 0 54 6q-10 148 -96 148q-15 0 -31 -5t-36 -24.5t-30 -52.5q53 -72 139 -72z" />
    <glyph glyph-name="R" unicode="R" horiz-adv-x="734" 
d="M602 -11q-63 0 -96.5 39t-44.5 128q-5 41 -11.5 67.5t-20.5 53t-40 39.5t-63 13h-58v-244q0 -37 30 -49q22 -8 72 -14v-22h-340v22q50 3 74 12q31 12 31 50v511q0 39 -31 50q-28 11 -74 16v22h357q102 0 168 -39t66 -116q0 -127 -184 -177v-8q29 -4 56 -13t55 -33t37 -58
q8 -30 17.5 -78t14.5 -68q12 -47 48 -47q20 0 33.5 23.5t13.5 67.5v21h28l-1 -22q-2 -147 -137 -147zM268 359h41q163 0 163 150q0 145 -141 145h-63v-295z" />
    <glyph glyph-name="S" unicode="S" horiz-adv-x="558" 
d="M287 -14q-103 0 -179 51l-33 -46h-34l-6 242h24q35 -91 91.5 -153t135.5 -62q61 0 93.5 34t32.5 90q0 88 -103 126q-128 49 -136 52q-120 52 -120 185q0 82 59.5 137.5t155.5 55.5q88 0 158 -48l30 43h35l4 -232h-23q-36 101 -85 153t-123 52q-41 0 -71.5 -28.5
t-30.5 -77.5q0 -44 23.5 -72.5t73.5 -51.5q25 -11 70 -27.5t63 -24.5q68 -30 101.5 -71.5t33.5 -115.5q0 -92 -67.5 -151.5t-172.5 -59.5z" />
    <glyph glyph-name="T" unicode="T" horiz-adv-x="631" 
d="M137 0v22q55 3 81 13q31 12 31 50v569h-35q-46 0 -77 -4q-29 -4 -63.5 -55t-45.5 -91h-25v179h625v-179h-25q-11 40 -45.5 91t-63.5 55q-31 4 -77 4h-35v-564q0 -37 31 -50q29 -12 81 -18v-22h-357z" />
    <glyph glyph-name="U" unicode="U" horiz-adv-x="774" 
d="M396 -16q-131 0 -202.5 61t-71.5 157v392q0 34 -31 50q-21 11 -69 17v22h336v-22q-50 -6 -71 -13q-31 -10 -31 -49v-386q0 -183 171 -183q94 0 139.5 53.5t45.5 132.5v279q0 110 -34 135q-14 10 -46.5 19.5t-51.5 11.5v22h295v-22q-65 -8 -92 -25q-32 -22 -32 -135v-290
q0 -58 -23 -103.5t-60.5 -71.5t-81.5 -39t-90 -13z" />
    <glyph glyph-name="V" unicode="V" horiz-adv-x="673" 
d="M295 -8q-178 498 -213 595q-13 36 -44 55q-31 17 -66 19v22h337v-22q-95 -10 -95 -37q0 -12 5 -25q45 -134 158 -448q84 198 127 311q4 11 12.5 32.5t12 30.5t9 24.5t7.5 24t4 18.5t2 18q0 21 -35.5 34t-78.5 16v23h270v-23q-34 -2 -65 -19q-28 -18 -56 -79
q-13 -31 -58.5 -140.5t-101 -242t-78.5 -187.5h-53z" />
    <glyph glyph-name="W" unicode="W" horiz-adv-x="1007" 
d="M269 -8q-33 106 -106 337.5t-82 261.5q-11 34 -38 51q-31 17 -64 19v22h323v-22q-90 -8 -90 -37q0 -12 4 -26q26 -91 136 -427l131 358q-12 85 -56 112q-27 18 -70 20v22h332v-22q-95 -8 -95 -37q0 -10 4 -26q16 -52 141 -424q73 197 118 340q21 69 21 93t-34 37t-77 17
v22h269v-22q-32 -4 -64 -21t-57 -85q-15 -40 -52.5 -144.5t-84 -234t-66.5 -184.5h-54q-111 358 -155 489l-179 -489h-55z" />
    <glyph glyph-name="X" unicode="X" horiz-adv-x="754" 
d="M407 411q144 175 144 209t-96 41v22h283v-22q-41 -4 -69 -16q-42 -17 -86 -71q-29 -36 -81.5 -102.5t-73.5 -91.5q21 -29 98 -141t92 -131q43 -56 74 -72q16 -9 73 -14v-22h-392v22q104 7 104 40q0 29 -141 228q-159 -196 -159 -228q0 -34 96 -41v-22h-283v22q39 3 69 16
q42 17 86 71q32 39 89.5 112t80.5 100q-107 154 -176 255q-14 20 -22 30t-21.5 21.5t-30.5 19.5q-25 11 -72 15v22h391v-22q-103 -7 -103 -40q0 -34 126 -210z" />
    <glyph glyph-name="Y" unicode="Y" horiz-adv-x="652" 
d="M141 0v22q59 3 82 12q31 12 31 50v157q0 38 -29 90q-78 152 -133 245q-26 46 -62 68q-27 15 -64 17v22h353v-22q-100 -6 -100 -33q0 -9 49.5 -104t105.5 -193q159 260 159 285q0 38 -102 45v22h257v-22q-29 -3 -58 -20q-34 -20 -62 -59q-49 -68 -148 -246
q-33 -57 -33 -123v-124q0 -37 31 -50q35 -14 81 -17v-22h-358z" />
    <glyph glyph-name="Z" unicode="Z" horiz-adv-x="626" 
d="M0 0v17l449 637h-165q-64 0 -91 -8q-31 -9 -66.5 -52.5t-61.5 -102.5h-26l21 192h550v-17l-449 -637h184q124 0 151 28q63 64 101 156h25l-23 -213h-599z" />
    <glyph glyph-name="bracketleft" unicode="[" horiz-adv-x="595" 
d="M508 -202l-22 8q20 18 20 43q0 44 -92 44q-126 0 -322 -44l-23 -8v886l23 -8q194 -44 322 -44q59 0 75.5 11t16.5 33q0 20 -16 42l21 8q10 -7 19.5 -27t9.5 -40q0 -52 -44 -86t-105 -34q-29 0 -54 4.5t-55 17t-46 20.5t-56 31t-57 32v-806q14 8 49 27.5t48 26.5t40 20
t43.5 17.5t39 9t44.5 4.5q65 0 109 -34t44 -86q0 -36 -32 -68z" />
    <glyph glyph-name="backslash" unicode="\" horiz-adv-x="415" 
d="M345 -212l-313 951l50 14l312 -951z" />
    <glyph glyph-name="bracketright" unicode="]" horiz-adv-x="595" 
d="M93 -202q-32 32 -32 68q0 52 42 86t107 34q19 0 36.5 -2t38 -9t34 -11.5t39 -17.5t35.5 -18.5t42.5 -23t42.5 -23.5v806q-15 -8 -49 -27t-47.5 -26.5t-40.5 -20t-45 -17.5t-42 -9.5t-49 -4.5q-60 0 -102 34t-42 86q0 20 9.5 40t19.5 27l21 -8q-16 -22 -16 -42
q0 -15 3 -22.5t23.5 -14.5t61.5 -7q133 0 327 44l23 8v-886l-23 8q-196 44 -327 44q-31 0 -50.5 -4.5t-27 -12.5t-9 -13.5t-1.5 -13.5q0 -25 20 -43z" />
    <glyph glyph-name="asciicircum" unicode="^" horiz-adv-x="859" 
d="M816 576q0 -68 -43.5 -103.5t-118.5 -37.5q93 -38 93 -147q0 -39 -13.5 -79.5t-44.5 -81.5t-75.5 -72.5t-112.5 -51.5t-149 -20q-125 0 -210.5 65t-85.5 162q0 55 28 87.5t78 59.5q-69 47 -69 124q0 50 43 92.5t105 42.5q66 0 110.5 -34t58.5 -89l-16 -8q-42 65 -118 65
q-53 0 -81.5 -31.5t-28.5 -81.5q0 -49 24 -68q67 25 87 25q32 0 51.5 -14t19.5 -35q0 -18 -13 -30.5t-37 -12.5q-11 0 -20.5 1t-20 4.5t-17 5.5t-17 7.5t-14 7.5t-15 9t-12.5 8q-12 -5 -25.5 -26.5t-13.5 -51.5q0 -77 82 -132t214 -56q131 -1 201.5 62.5t70.5 156.5
q0 68 -41.5 104t-103.5 36q-46 0 -76 -24.5t-30 -65.5t21.5 -61.5t55.5 -20.5q22 0 46 15q-1 0 -8 2t-9 3t-8.5 3t-9 3.5t-8 4t-7.5 5t-5.5 6t-5.5 7.5t-3 9t-1 10q0 28 16.5 40.5t35.5 12.5q28 0 48 -15.5t20 -47.5q0 -33 -24 -57.5t-65 -24.5q-51 0 -89 32.5t-38 84.5
q0 77 51 114t118 37q13 0 54 -2.5t52 -2.5q40 0 62.5 25t22.5 57q0 34 -19 52t-51 18t-32 -21q1 -1 11 -5.5t16 -8.5t11.5 -12.5t5.5 -18.5q0 -48 -49 -48q-26 0 -44 15.5t-18 47.5q0 29 26.5 50t69.5 21q48 0 77.5 -28t29.5 -73z" />
    <glyph glyph-name="underscore" unicode="_" horiz-adv-x="600" 
d="M-5 -158v51h610v-51h-610z" />
    <glyph glyph-name="grave" unicode="`" 
d="M338 528q-33 24 -63 44.5t-55 37t-34 22.5q-27 19 -38 32t-11 34q0 17 13.5 30.5t35.5 13.5q21 0 36.5 -12t31.5 -39q56 -90 98 -149z" />
    <glyph glyph-name="a" unicode="a" horiz-adv-x="496" 
d="M148 -13q-52 0 -85.5 30.5t-33.5 78.5q0 57 26 84.5t72 44.5q18 7 58.5 20.5t67 23.5t41.5 20v57q0 101 -73 101q-33 0 -55 -28q0 -5 6.5 -28t6.5 -38q0 -18 -19.5 -34t-49.5 -16q-29 0 -43 17.5t-14 42.5q0 44 55.5 75t119.5 31q35 0 59 -2.5t49.5 -11.5t40.5 -24.5
t24.5 -43t9.5 -66.5q0 -52 -3 -135.5t-3 -92.5q0 -15 11.5 -32t30.5 -17q22 0 29.5 21.5t9.5 59.5h24q-8 -136 -114 -136q-72 0 -100 66h-3q-59 -68 -145 -68zM211 38q30 0 46.5 11t33.5 35l4 174q-76 -26 -110 -53.5t-34 -87.5q0 -79 60 -79z" />
    <glyph glyph-name="b" unicode="b" horiz-adv-x="551" 
d="M85 -22l-19 6q5 67 5 183v474q0 40 -27 57q-22 15 -65 17v20l200 11l7 -7v-331l4 -1q55 62 131 62q88 0 145.5 -66.5t57.5 -176.5q0 -103 -67 -171.5t-161 -68.5q-87 0 -163 54zM282 9q52 0 83 57.5t31 156.5q0 84 -28.5 140.5t-90.5 56.5q-54 0 -91 -43v-285
q29 -83 96 -83z" />
    <glyph glyph-name="c" unicode="c" horiz-adv-x="439" 
d="M251 -13q-110 0 -167.5 67t-57.5 176q0 99 63 169t168 70q78 0 119.5 -32.5t41.5 -83.5q0 -28 -16.5 -45.5t-47.5 -17.5q-23 0 -44 14t-21 41q0 21 8 40.5t9 26.5q-6 33 -49 33q-45 0 -75 -50.5t-30 -155.5q0 -88 35.5 -144t94.5 -56q51 0 82.5 22t55.5 69l20 -14
q-27 -56 -77.5 -92.5t-111.5 -36.5z" />
    <glyph glyph-name="d" unicode="d" horiz-adv-x="565" 
d="M233 -13q-89 0 -148 68t-59 179q0 101 66.5 168t156.5 67q55 0 118 -25v192q-2 42 -26 57q-26 18 -87 23v19l220 11l7 -7v-648q3 -32 26 -48q18 -12 59 -14v-20l-191 -12l-7 7v44l-4 1q-59 -62 -131 -62zM277 34q49 0 90 46v285q-10 32 -33.5 55.5t-63.5 23.5
q-52 0 -84 -60t-32 -160q0 -81 30.5 -135.5t92.5 -54.5z" />
    <glyph glyph-name="e" unicode="e" horiz-adv-x="462" 
d="M255 -13q-112 0 -170.5 68.5t-58.5 175.5q0 98 59.5 168t160.5 70t148.5 -55t47.5 -140v-11h-292v-11q0 -99 34.5 -156.5t108.5 -57.5q51 0 81.5 20t58.5 70l19 -13q-28 -57 -79.5 -92.5t-117.5 -35.5zM150 288l169 2q0 32 -2.5 56t-10 48.5t-24 37.5t-40.5 13
q-41 0 -65.5 -42t-26.5 -115z" />
    <glyph glyph-name="f" unicode="f" horiz-adv-x="322" 
d="M24 0v20q26 1 44 8q26 9 26 44v340h-99v43h99v25q0 130 68 202q62 65 157 65q62 0 91 -28t29 -67q0 -21 -17 -40.5t-45 -19.5q-24 0 -44.5 13t-20.5 39q0 10 4.5 28.5t5.5 29.5q-5 21 -23 21q-43 0 -64.5 -49t-25.5 -157v-62h124v-43h-124v-335q0 -35 27 -45
q24 -10 65 -12v-20h-277z" />
    <glyph glyph-name="g" unicode="g" horiz-adv-x="505" 
d="M236 -227q-226 0 -226 123q0 43 41 71t118 30v6q-107 30 -107 92q0 19 9 33.5t26 24.5t29.5 15t32.5 11v5q-58 20 -89.5 55.5t-31.5 80.5q0 70 57 109.5t135 39.5q23 0 47 -3.5t38 -7.5t29.5 -9.5t17.5 -5.5q25 33 48 48t54 15q19 0 34.5 -14.5t15.5 -35.5
q0 -23 -12.5 -37.5t-33.5 -14.5q-39 0 -49 50q-29 -4 -48 -28q1 0 2 -3l1 -3q46 -43 46 -105q0 -63 -55 -103.5t-127 -40.5h-62q-28 -18 -28 -37q0 -27 22 -35t65 -9h14q17 -1 61 -3.5t53 -2.5q50 -3 91.5 -40.5t41.5 -99.5q0 -76 -65.5 -123.5t-194.5 -47.5zM229 194
q38 0 57 36t19 89q0 55 -18.5 91t-58.5 36q-72 0 -72 -124q0 -55 19.5 -91.5t53.5 -36.5zM256 -200q66 0 102 30t36 86q0 21 -11.5 40t-36.5 27q-40 6 -151 6q-74 -20 -74 -97q0 -35 34 -63.5t101 -28.5z" />
    <glyph glyph-name="h" unicode="h" horiz-adv-x="576" 
d="M14 0v20q26 1 44 8q26 8 26 44v569q-2 41 -27 58q-20 13 -67 16v20l202 11l6 -7v-352h2l7 7q24 24 39 36.5t46.5 25.5t68.5 13q67 0 100.5 -41.5t33.5 -115.5v-236q0 -34 25 -45q19 -8 44 -11v-20h-249v20q27 2 42 8q22 8 22 44v241q0 49 -20.5 76t-51.5 27
q-42 0 -70 -21t-39 -45v-273q0 -32 23 -45q21 -11 43 -12v-20h-250z" />
    <glyph glyph-name="i" unicode="i" horiz-adv-x="291" 
d="M142 582q-30 0 -51.5 21t-21.5 51q0 31 21.5 52t51.5 21q31 0 52.5 -20.5t21.5 -50.5q0 -31 -21.5 -52.5t-52.5 -21.5zM24 0v20q26 1 44 8q26 9 26 44v291q-2 33 -26 50q-26 17 -59 19v19l193 12l7 -7v-378q0 -34 27 -46q18 -8 44 -12v-20h-256z" />
    <glyph glyph-name="j" unicode="j" horiz-adv-x="293" 
d="M154 582q-30 0 -51.5 21t-21.5 51q0 31 21.5 52t51.5 21q31 0 52 -20.5t21 -50.5q0 -31 -21 -52.5t-52 -21.5zM16 -227q-60 0 -88 24t-28 61q0 21 17.5 41t44.5 20q25 0 44.5 -14t19.5 -41q0 -13 -5 -35.5t-6 -28.5q8 -2 17 -2q44 0 59 47.5t15 165.5v347q-2 35 -26 53
q-9 6 -38.5 13t-44.5 8v19l218 12l7 -7v-413q0 -137 -63 -203q-62 -67 -143 -67z" />
    <glyph glyph-name="k" unicode="k" horiz-adv-x="538" 
d="M14 0v20q26 1 44 8q26 8 26 44v569q-2 40 -27 57q-21 14 -67 17v20l202 11l6 -7v-505q8 7 29 26.5t33.5 31.5t30 29.5t33 33.5t28.5 32q12 14 12 24q0 18 -64 25v20h212v-19q-76 -21 -121 -56q-36 -30 -85 -79q24 -11 45.5 -29.5t35 -33t30.5 -44t23.5 -42t23 -49
t20.5 -44.5q9 -20 36 -32q21 -8 40 -8v-20h-184q-20 72 -62 145t-81 73q-18 0 -35 -15v-126q0 -33 25 -45q25 -11 45 -12v-20h-254z" />
    <glyph glyph-name="l" unicode="l" horiz-adv-x="283" 
d="M15 0v20q26 2 43 8q27 9 27 44v566q-2 41 -27 58q-25 16 -70 19v20l204 11l7 -7v-661q0 -34 27 -46q25 -10 44 -12v-20h-255z" />
    <glyph glyph-name="m" unicode="m" horiz-adv-x="871" 
d="M24 0v20q26 2 43 8q26 8 26 44v293q-2 34 -26 50q-23 15 -50 17v19l184 12l6 -7v-68h3l15.5 15.5t18 17t17 14.5t21.5 14.5t23 9.5t29 8t33 2q93 0 128 -85l3 2q28 28 42.5 41t47.5 27.5t72 14.5q66 0 98.5 -43t32.5 -115v-234q0 -34 25 -45q18 -9 45 -12v-20h-248v20
q25 1 41 8q21 8 21 44v242q0 49 -19.5 75.5t-50.5 26.5q-71 0 -105 -64v-275q0 -34 22 -45t40 -12v-20h-238v20q22 1 38 8q22 8 22 44v242q0 49 -19.5 75.5t-50.5 26.5q-69 0 -106 -65v-273q0 -34 23 -46q20 -11 40 -12v-20h-247z" />
    <glyph glyph-name="n" unicode="n" horiz-adv-x="585" 
d="M24 0v20q25 1 43 8q26 8 26 44v291q-2 37 -26 53q-22 14 -49 16v19l183 12l7 -7v-69h2q45 46 70 60q38 22 89 22q67 0 101.5 -42t34.5 -115v-236q0 -33 25 -44q23 -10 43 -12v-20h-249v20q28 2 43 8q22 8 22 44v241q0 49 -20.5 76t-51.5 27q-42 0 -70 -21t-39 -45v-273
q0 -33 23 -45q17 -9 43 -12v-20h-250z" />
    <glyph glyph-name="o" unicode="o" horiz-adv-x="528" 
d="M260 -14q-99 0 -167 66t-68 175q0 108 66 175t175 67q108 0 172.5 -66.5t64.5 -170.5q0 -106 -64.5 -176t-178.5 -70zM265 10q56 0 83 62t27 160q0 58 -8.5 103t-34 78t-66.5 33q-112 0 -112 -212q0 -99 26.5 -161.5t84.5 -62.5z" />
    <glyph glyph-name="p" unicode="p" horiz-adv-x="563" 
d="M3 -226v20q34 2 55 10q26 8 26 46v515q-2 33 -26 50q-23 15 -54 17v19l187 12l7 -6v-52l4 -1q60 65 132 65q87 0 144.5 -67.5t57.5 -177.5q0 -101 -66 -168.5t-156 -67.5q-70 0 -112 31h-4v-162q0 -36 28 -47t71 -16v-20h-294zM295 13q51 0 82.5 56t31.5 155
q0 82 -29 139t-91 57q-53 0 -91 -45v-286q27 -76 97 -76z" />
    <glyph glyph-name="q" unicode="q" horiz-adv-x="551" 
d="M283 -226v20q35 2 57 10q27 8 27 46v196l-4 1q-56 -59 -130 -59q-90 0 -148.5 67.5t-58.5 178.5q0 102 69 168.5t166 66.5q79 0 161 -45l50 60l17 -4q-8 -164 -8 -167v-455q0 -36 27 -48q24 -12 60 -16v-20h-285zM277 35q31 0 51 10t39 33v286q-24 82 -98 82
q-50 0 -82.5 -61t-32.5 -160q0 -81 30.5 -135.5t92.5 -54.5z" />
    <glyph glyph-name="r" unicode="r" horiz-adv-x="414" 
d="M24 0v20q25 1 43 8q26 8 26 44v291q-2 35 -26 53q-22 14 -50 16v19l184 12l7 -7v-68h2q61 79 133 79q30 0 51.5 -21t21.5 -53q0 -31 -17.5 -52t-45.5 -21q-29 0 -46 14t-17 41q0 7 4.5 20t4.5 19q-31 0 -55 -18.5t-36 -38.5v-280q0 -34 27 -45q23 -9 66 -12v-20h-277z
" />
    <glyph glyph-name="s" unicode="s" horiz-adv-x="405" 
d="M202 -14q-39 0 -75 13t-52 28l-14 -32h-32l-5 163h21q14 -50 57.5 -99t98.5 -49q86 0 86 82q0 36 -28 56.5t-88 38.5q-134 41 -134 147q0 58 44 96.5t118 38.5q65 0 112 -26l10 27h30l7 -146h-20q-13 50 -49 85.5t-84 35.5q-36 0 -54.5 -20t-18.5 -50q0 -37 23.5 -53.5
t89.5 -38.5t100.5 -56.5t34.5 -92.5q0 -69 -50.5 -108.5t-127.5 -39.5z" />
    <glyph glyph-name="t" unicode="t" horiz-adv-x="344" 
d="M212 -11q-128 0 -128 140v283h-91v43h93v150h111v-150h133v-43h-132v-273q0 -89 68 -89q23 0 36.5 13t16.5 27.5t6 40.5h24q-5 -61 -40 -101.5t-97 -40.5z" />
    <glyph glyph-name="u" unicode="u" horiz-adv-x="569" 
d="M209 -12q-66 0 -97.5 44t-31.5 119v214q-2 33 -26 50q-22 14 -50 16v20l186 12l6 -7v-319q0 -48 19 -74t50 -26q71 0 104 63v267q-2 34 -24 50q-17 12 -62 14v20l194 12l7 -7v-365q1 -32 26 -49q17 -11 49 -13v-20l-182 -12l-7 7v62h-3q-25 -26 -39.5 -38.5t-46.5 -26
t-72 -13.5z" />
    <glyph glyph-name="v" unicode="v" horiz-adv-x="462" 
d="M209 -7q-121 305 -157 393q-17 41 -72 49v21h245v-22q-56 -3 -56 -22q0 -3 6 -21q28 -74 103 -264l3 -2q32 78 95 239q7 18 7 36q-1 14 -27.5 23.5t-46.5 12.5v20h181v-19q-19 -3 -42.5 -18.5t-33.5 -38.5q-14 -30 -33.5 -78t-43.5 -108t-35 -86q-19 -44 -40 -115h-53z
" />
    <glyph glyph-name="w" unicode="w" horiz-adv-x="728" 
d="M209 -7q-18 45 -50.5 130t-58.5 149.5t-46 112.5q-8 21 -28.5 34.5t-42.5 15.5v21h236v-22q-49 -2 -49 -22q0 -3 6 -21q6 -15 44.5 -115.5t55.5 -143.5h3q29 70 79 204q-1 3 -10 24t-12 29q-15 41 -64 46v21h231v-21q-54 -2 -54 -22q0 -4 6 -22q7 -18 44.5 -120
t51.5 -139h3q45 117 87 234q8 22 8 35q0 15 -26.5 24.5t-46.5 10.5v20h182v-19q-60 -9 -80 -60q-14 -35 -58.5 -147t-48.5 -123q-27 -74 -40 -114h-45q-73 202 -112 305q-6 -12 -77 -192q-27 -73 -39 -113h-49z" />
    <glyph glyph-name="x" unicode="x" horiz-adv-x="480" 
d="M271 285q31 38 75 101q9 13 9 22q0 15 -55 28v20h175v-19q-61 -18 -97 -59q-4 -5 -92 -114q20 -30 69 -105.5t57 -87.5q18 -24 32.5 -34.5t43.5 -15.5v-21h-243v21q53 4 53 20q0 7 -12 27l-77 121q-45 -54 -91 -119q-8 -11 -8 -22q0 -14 59 -28v-20h-175v19q55 16 92 59
q6 7 23.5 28.5t43.5 53.5t41 51q-20 29 -119 179q-30 45 -73 45v21h234v-21q-16 0 -31.5 -4t-15.5 -10t9 -22q17 -32 73 -114z" />
    <glyph glyph-name="y" unicode="y" horiz-adv-x="459" 
d="M64 -227q-28 0 -54.5 19t-26.5 57q0 25 18 45t46 20q23 0 41 -13t18 -42q0 -33 -2 -37q35 9 69.5 64.5t49.5 97.5q-27 65 -90.5 211.5t-81.5 190.5q-18 41 -73 49v21h244v-22q-54 -2 -54 -22q0 -2 7 -21q6 -16 25.5 -62t44 -105t37.5 -90h2q3 6 90 231q8 24 8 35
q0 14 -26.5 23.5t-46.5 12.5v20h177v-19q-54 -10 -74 -57q-20 -45 -101 -248q-12 -30 -26 -66t-22 -57t-11 -27q-54 -127 -93 -168t-95 -41z" />
    <glyph glyph-name="z" unicode="z" horiz-adv-x="433" 
d="M15 0v18l260 411h-52q-87 0 -115 -13q-29 -12 -50 -99h-25v139h379v-13l-262 -415q29 -1 77 -1q47 0 89 3q33 3 48 39q17 42 29 92h24v-161h-402z" />
    <glyph glyph-name="braceleft" unicode="{" horiz-adv-x="421" 
d="M389 -169q-115 0 -168.5 35t-53.5 136q0 20 8 64t8 65q0 74 -36 99t-116 31v53q81 7 116.5 31.5t35.5 98.5q0 21 -8 65t-8 64q0 101 53.5 136t168.5 35v-23q-23 -2 -35.5 -3.5t-29 -8.5t-24 -18.5t-13.5 -33.5t-6 -54q0 -20 4.5 -57t4.5 -57q0 -41 -10.5 -71.5t-26 -49.5
t-43 -33t-51 -21t-60.5 -14v-25q37 -7 60.5 -14t51 -21t43 -33t26 -49.5t10.5 -71.5q0 -20 -4.5 -57t-4.5 -57q0 -32 6 -54t13.5 -33.5t24 -18.5t29 -8.5t35.5 -3.5v-23z" />
    <glyph glyph-name="bar" unicode="|" horiz-adv-x="293" 
d="M121 -207v953h51v-953h-51z" />
    <glyph glyph-name="braceright" unicode="}" horiz-adv-x="421" 
d="M32 -169v23q23 2 35.5 3.5t29 8.5t24 18.5t13.5 33.5t6 54q0 20 -4.5 57t-4.5 57q0 41 10.5 71.5t26 49.5t43 33t51 21t60.5 14v25q-46 9 -75 19t-58.5 30t-43.5 55t-14 85q0 20 4.5 57t4.5 57q0 32 -6 54t-13.5 33.5t-24 18.5t-29 8.5t-35.5 3.5v23q115 0 168.5 -35
t53.5 -136q0 -20 -8 -64t-8 -65q0 -74 36 -99t116 -31v-53q-40 -3 -64 -9t-46.5 -19t-32 -38t-9.5 -64q0 -21 8 -65t8 -64q0 -101 -53.5 -136t-168.5 -35z" />
    <glyph glyph-name="asciitilde" unicode="~" horiz-adv-x="540" 
d="M75 187l-20 7q14 50 52 92t86 42q37 0 95.5 -22t82.5 -22q34 0 55 12.5t38 44.5l20 -7q-14 -50 -52.5 -92t-85.5 -42q-39 0 -98.5 22t-84.5 22q-58 0 -88 -57z" />
    <glyph glyph-name="exclamdown" unicode="&#xa1;" horiz-adv-x="349" 
d="M173 543q-32 0 -54.5 22t-22.5 54t22.5 54t54.5 22t55 -22t23 -54t-23 -54t-55 -22zM173 -17q-32 0 -52.5 23t-20.5 57q0 21 9 79.5t25.5 159t26.5 171.5h26q10 -71 26 -171t24.5 -158.5t8.5 -80.5q0 -34 -20.5 -57t-52.5 -23z" />
    <glyph glyph-name="cent" unicode="&#xa2;" horiz-adv-x="471" 
d="M162 -115l-25 5l42 180q-72 23 -109 84.5t-37 148.5q0 98 63.5 168.5t170.5 70.5q15 0 22 -1l31 129l26 -5l-30 -127q59 -9 91.5 -39t32.5 -72q0 -28 -14.5 -45.5t-43.5 -17.5q-24 0 -43 14.5t-19 40.5q0 25 7 42.5t7 23.5q-5 20 -24 27l-88 -373q30 -28 68 -28
q51 0 82.5 22t55.5 69l20 -14q-27 -56 -78 -92.5t-111 -36.5q-27 0 -55 5zM201 164l83 353h-16q-48 0 -78.5 -50.5t-30.5 -155.5q0 -92 42 -147z" />
    <glyph glyph-name="sterling" unicode="&#xa3;" horiz-adv-x="780" 
d="M74 -98q-124 0 -124 88q0 45 55.5 80t125.5 35q57 0 137 -20q3 18 3 36q0 2 -3 53h-170v27h169q-4 24 -4 77h-159v27h159q4 174 82.5 283.5t209.5 109.5q102 0 151.5 -50.5t49.5 -117.5q0 -73 -45 -117.5t-125 -44.5q-54 0 -86.5 33.5t-32.5 90.5q0 42 18 79l23 -4
q-15 -34 -15 -71q0 -45 23 -72.5t66 -27.5q44 0 68.5 33t24.5 96t-29.5 105.5t-87.5 42.5q-82 0 -120 -64.5t-38 -221.5q0 -43 -6 -82h162v-27h-166q-6 -35 -21 -77h179v-27h-189q-18 -47 -54 -101q27 -9 73 -31t82.5 -33.5t74.5 -11.5q30 0 52.5 9.5t35 22t22 35.5t13 38.5
t7.5 41.5l29 -4q-6 -44 -20.5 -81t-42.5 -71.5t-77 -54.5t-114 -20q-18 0 -36.5 3.5t-40.5 12t-35 14.5t-41.5 20t-38.5 19q-68 -80 -174 -80zM73 -69q93 0 152 62q-97 43 -168 43q-37 0 -57 -16.5t-20 -40.5q0 -48 93 -48z" />
    <glyph glyph-name="currency" unicode="&#xa4;" horiz-adv-x="602" 
d="M344 -14q-108 0 -172.5 63t-78.5 179h-76v27h73q-1 13 -1 40q0 12 2 32h-74v27h76q16 115 88 190.5t189 75.5q81 0 132 -36t51 -92q0 -41 -17.5 -58.5t-42.5 -17.5q-27 0 -43 14.5t-16 36.5q0 17 12 38t12 36q-4 22 -29 38t-63 16q-63 0 -102 -64t-47 -177h216v-27h-217
q-1 -9 -1 -28q0 -30 1 -44h177v-27h-175q23 -196 153 -196q57 0 94 30.5t66 92.5l26 -12q-70 -157 -213 -157z" />
    <glyph glyph-name="yen" unicode="&#xa5;" horiz-adv-x="585" 
d="M118 0v22q57 3 76 10q14 5 22.5 18t8.5 29v64h-154v27h154v68h-154v27h150q-2 14 -17 41q-34 70 -109 201q-27 47 -57 64q-20 12 -52 14v22h301v-22q-85 -6 -85 -27q0 -18 125 -239q136 214 136 228q0 31 -86 38v22h222v-22q-26 -3 -46 -16q-7 -4 -11.5 -7.5t-10 -8.5
t-8 -8t-9.5 -12t-11 -14q-47 -59 -131 -212q-9 -17 -18 -42h152v-27h-158q-3 -16 -3 -28v-40h161v-27h-161v-59q0 -35 29 -48q24 -11 72 -14v-22h-328z" />
    <glyph glyph-name="brokenbar" unicode="&#xa6;" horiz-adv-x="293" 
d="M121 364v382h52v-382h-52zM121 -207v392h52v-392h-52z" />
    <glyph glyph-name="section" unicode="&#xa7;" horiz-adv-x="561" 
d="M247 -227q-64 0 -98 38t-34 74t18 57.5t53 21.5q25 0 42.5 -17t17.5 -41q0 -22 -20.5 -40t-20.5 -28q0 -42 50 -42q35 0 54 28t19 80q0 34 -11.5 58t-43.5 66q-21 29 -65 76.5t-65 72.5q-42 49 -59.5 83t-17.5 77q0 52 38.5 84t93.5 43q-42 60 -42 126q0 61 47.5 104.5
t121.5 43.5q62 0 95 -37.5t33 -73.5t-18 -57.5t-53 -21.5q-25 0 -42.5 17t-17.5 41q0 23 21 41t21 27q0 40 -49 40q-35 0 -55 -26.5t-20 -76.5q0 -24 7.5 -44.5t16.5 -34t33 -45.5q22 -29 66 -78.5t62 -70.5q43 -51 61 -84.5t18 -76.5q0 -95 -135 -122q46 -64 46 -133
q0 -61 -47 -105t-121 -44zM353 75q67 22 67 80q0 43 -47 99q-30 36 -84 98.5t-75 89.5q-66 -20 -66 -83q0 -41 48 -99q19 -22 76.5 -88t80.5 -97z" />
    <glyph glyph-name="dieresis" unicode="&#xa8;" 
d="M359 577q-27 0 -46 19.5t-19 46.5q0 28 19 48t46 20t46.5 -19.5t19.5 -46.5q0 -28 -19.5 -48t-46.5 -20zM140 577q-26 0 -45.5 19.5t-19.5 46.5q0 28 19.5 48t45.5 20q27 0 46.5 -19.5t19.5 -46.5q0 -28 -19 -48t-47 -20z" />
    <glyph glyph-name="copyright" unicode="&#xa9;" horiz-adv-x="950" 
d="M476 -181q-181 0 -309 126.5t-128 305.5q0 116 58 215t159 157t220 58q180 0 307.5 -126.5t127.5 -303.5q0 -117 -58 -216.5t-158.5 -157.5t-218.5 -58zM476 -146q163 0 277 116t114 281q0 163 -114 278.5t-277 115.5q-164 0 -278.5 -115.5t-114.5 -278.5
q0 -165 114.5 -281t278.5 -116zM482 13q-107 0 -173 63.5t-66 170.5q0 103 72 173t179 70q32 0 64 -10t47 -21l22 38h27l4 -181h-22q-25 67 -59.5 105.5t-92.5 38.5q-51 0 -88 -53t-37 -155q0 -88 43 -141.5t107 -53.5q51 0 84 27.5t58 78.5l22 -10q-63 -140 -191 -140z" />
    <glyph glyph-name="ordfeminine" unicode="&#xaa;" horiz-adv-x="341" 
d="M117 340q-35 0 -55 17.5t-20 46.5q0 34 15.5 51t43.5 27q13 5 47 16t47 18v29q0 56 -39 56q-22 0 -39 -17q0 -2 4.5 -14.5t4.5 -20.5q0 -12 -11 -21t-29 -9q-32 0 -32 37q0 26 35 45t70 19q54 0 81 -17t27 -71q0 -29 -2 -76t-2 -52q0 -9 5.5 -17.5t18.5 -8.5q18 0 20 43
h16q-3 -43 -18.5 -61.5t-47.5 -18.5q-43 0 -60 41q-33 -42 -80 -42zM47 230v29h256v-29h-256zM147 371q23 0 45 28l3 95q-41 -14 -59.5 -31t-18.5 -48q0 -44 30 -44z" />
    <glyph glyph-name="guillemotleft" unicode="&#xab;" horiz-adv-x="551" 
d="M484 15q-126 101 -205 163q-19 15 -22 24q-2 7 -2 22q0 18 4 25.5t17 18.5q133 100 208 164l16 -13l-144 -197l144 -194zM275 15q-126 101 -205 163q-19 15 -22 24q-2 7 -2 22q0 18 4 25.5t17 18.5q133 100 208 164l16 -13l-144 -197l144 -194z" />
    <glyph glyph-name="logicalnot" unicode="&#xac;" horiz-adv-x="562" 
d="M451 39v213h-411v51h468v-264h-57z" />
    <glyph glyph-name="registered" unicode="&#xae;" horiz-adv-x="474" 
d="M237 339q-77 0 -129.5 52.5t-52.5 129.5t52.5 129.5t129.5 52.5t129.5 -52.5t52.5 -129.5t-52.5 -129.5t-129.5 -52.5zM237 356q69 0 115 47.5t46 117.5t-46 117.5t-115 47.5t-115 -47.5t-46 -117.5t46 -117.5t115 -47.5zM313 423q-39 0 -45 51q-2 15 -4.5 23.5t-12 17
t-25.5 8.5h-15v-67q0 -11 9 -15q6 -3 20 -3v-12h-98v12q14 0 20 3q9 5 9 15v145q0 12 -9 15q-12 4 -20 4v11h107q27 0 47.5 -11t20.5 -35q0 -39 -62 -52v-3q44 -6 50 -32q2 -7 5 -21.5t5 -22.5q4 -13 12 -13q15 0 15 24h10q0 -22 -9 -32t-30 -10zM211 535h16q47 0 47 44
q0 24 -10 32t-29 8h-24v-84z" />
    <glyph glyph-name="macron" unicode="&#xaf;" 
d="M85 591v75h330v-75h-330z" />
    <glyph glyph-name="macron" unicode="&#x2c9;" 
d="M85 591v75h330v-75h-330z" />
    <glyph glyph-name="degree" unicode="&#xb0;" horiz-adv-x="401" 
d="M199 414q-66 0 -109.5 38t-43.5 107q0 64 46.5 107.5t106.5 43.5q66 0 111 -38.5t45 -111.5q0 -61 -47 -103.5t-109 -42.5zM202 444q33 0 56.5 31t23.5 83q0 57 -22 89t-60 32t-60 -32t-22 -84q0 -54 22.5 -86.5t61.5 -32.5z" />
    <glyph glyph-name="plusminus" unicode="&#xb1;" horiz-adv-x="875" 
d="M24 0v20q26 1 44 8q26 9 26 44v342h-99v41h99v19q0 123 70 199q63 67 158 67q104 0 132 -67q24 26 67 50t98 24q54 0 96 -21l70 20l7 -7v-661q0 -34 27 -46q23 -10 43 -12v-20h-246v20q24 1 41 9q21 10 21 43v509q-30 12 -30 41q0 14 4 24.5t12 20t9 11.5q-16 45 -65 45
q-45 0 -75.5 -52t-31.5 -154v-62h113v-41h-113v-337q0 -32 22 -43q17 -11 45 -14v-20h-252v20q26 1 44 8q26 9 26 44v343h-177v-338q0 -32 22 -44q21 -11 43 -13v-20h-250zM208 455h179v25q0 51 13 98q-26 2 -42 14t-16 34q0 12 2.5 21.5t6 19t4.5 15.5q-3 34 -44 34
q-44 0 -72.5 -51t-30.5 -154v-56z" />
    <glyph glyph-name="twosuperior" unicode="&#xb2;" horiz-adv-x="617" 
d="M387 -2q-31 0 -53 21.5t-22 53.5q0 14 9 43t9 51v11l-7 5q-7 -1 -20 -1q-30 0 -56 18l-13 -1q-15 -22 -21 -61q-14 -83 -78 -83q-31 0 -54 22.5t-23 54.5t24 53.5t59 21.5q49 0 74 13l3 14q-10 22 -10 43q0 13 3 25l-5 13q-9 3 -27 3q-15 0 -35 -3.5t-29 -3.5
q-33 0 -55 22.5t-22 53.5t22 54t54 23q45 0 67 -42q4 -7 9 -24t11.5 -31.5t17.5 -25.5l15 1q28 30 69 30l11 7q0 28 -17 61.5t-17 52.5q0 32 22 52.5t54 20.5t53 -22.5t21 -53.5q0 -22 -10 -37.5t-22.5 -23t-29 -22.5t-26.5 -33l4 -12q38 -20 48 -58l12 -6q23 8 54.5 39
t63.5 31q30 0 51.5 -22.5t21.5 -54.5q0 -31 -21.5 -52.5t-53.5 -21.5q-24 0 -56.5 23t-59.5 27l-9 -8q-6 -35 -39 -60l-1 -10q15 -20 53 -39q55 -26 55 -76q0 -30 -23 -53t-55 -23zM303 208q29 0 48 20t19 50q0 29 -19 48.5t-48 19.5q-28 0 -47.5 -19.5t-19.5 -48.5
t19.5 -49.5t47.5 -20.5z" />
    <glyph glyph-name="threesuperior" unicode="&#xb3;" horiz-adv-x="617" 
d="M387 -2q-31 0 -53 21.5t-22 53.5q0 14 9 43t9 51v11l-7 5q-7 -1 -20 -1q-30 0 -56 18l-13 -1q-15 -22 -21 -61q-14 -83 -78 -83q-31 0 -54 22.5t-23 54.5t24 53.5t59 21.5q49 0 74 13l3 14q-10 22 -10 43q0 13 3 25l-5 13q-9 3 -27 3q-15 0 -35 -3.5t-29 -3.5
q-33 0 -55 22.5t-22 53.5t22 54t54 23q45 0 67 -42q4 -7 9 -24t11.5 -31.5t17.5 -25.5l15 1q28 30 69 30l11 7q0 28 -17 61.5t-17 52.5q0 32 22 52.5t54 20.5t53 -22.5t21 -53.5q0 -22 -10 -37.5t-22.5 -23t-29 -22.5t-26.5 -33l4 -12q38 -20 48 -58l12 -6q23 8 54.5 39
t63.5 31q30 0 51.5 -22.5t21.5 -54.5q0 -31 -21.5 -52.5t-53.5 -21.5q-24 0 -56.5 23t-59.5 27l-9 -8q-6 -35 -39 -60l-1 -10q15 -20 53 -39q55 -26 55 -76q0 -30 -23 -53t-55 -23zM303 208q29 0 48 20t19 50q0 29 -19 48.5t-48 19.5q-28 0 -47.5 -19.5t-19.5 -48.5
t19.5 -49.5t47.5 -20.5z" />
    <glyph glyph-name="acute" unicode="&#xb4;" 
d="M162 528l-14 14q42 59 98 149q30 51 68 51q22 0 35 -13t13 -31q0 -21 -11 -34.5t-38 -31.5q-5 -3 -56 -37t-95 -67z" />
    <glyph glyph-name="mu" unicode="&#xb5;" horiz-adv-x="586" 
d="M102 -226q-20 0 -34 14.5t-14 37.5q0 21 10.5 76.5t11.5 62.5q5 40 5 98v389h116v-314q0 -47 22.5 -72.5t54.5 -25.5q67 0 97 50v362h116v-357q0 -52 38 -52q42 0 48 76h22q-8 -128 -114 -128q-37 0 -66.5 18t-40.5 53h-3q-60 -72 -132 -72q-76 0 -114 55h-2v-52
q0 -33 18 -86t18 -78t-17.5 -40t-39.5 -15z" />
    <glyph glyph-name="mu" unicode="&#x3bc;" horiz-adv-x="586" 
d="M102 -226q-20 0 -34 14.5t-14 37.5q0 21 10.5 76.5t11.5 62.5q5 40 5 98v389h116v-314q0 -47 22.5 -72.5t54.5 -25.5q67 0 97 50v362h116v-357q0 -52 38 -52q42 0 48 76h22q-8 -128 -114 -128q-37 0 -66.5 18t-40.5 53h-3q-60 -72 -132 -72q-76 0 -114 55h-2v-52
q0 -33 18 -86t18 -78t-17.5 -40t-39.5 -15z" />
    <glyph glyph-name="paragraph" unicode="&#xb6;" horiz-adv-x="615" 
d="M309 -125v467h-30q-64 0 -109.5 14.5t-68.5 40t-33 53t-10 60.5q0 67 45.5 120t140.5 53h355v-22h-142v-786h-28v786h-92v-786h-28z" />
    <glyph glyph-name="periodcentered" unicode="&#xb7;" horiz-adv-x="281" 
d="M141 195q-32 0 -55 22.5t-23 54.5q0 31 23 54t55 23t55 -23t23 -54q0 -32 -23 -54.5t-55 -22.5z" />
    <glyph glyph-name="periodcentered" unicode="&#x2219;" horiz-adv-x="281" 
d="M141 195q-32 0 -55 22.5t-23 54.5q0 31 23 54t55 23t55 -23t23 -54q0 -32 -23 -54.5t-55 -22.5z" />
    <glyph glyph-name="cedilla" unicode="&#xb8;" 
d="M140 -233v27q83 0 106 12q27 13 27 43q0 23 -20 29.5t-57 6.5v123h28v-59q131 -4 131 -82q0 -31 -16 -52t-48.5 -31t-67 -13.5t-83.5 -3.5z" />
    <glyph glyph-name="onesuperior" unicode="&#xb9;" horiz-adv-x="617" 
d="M387 -2q-31 0 -53 21.5t-22 53.5q0 14 9 43t9 51v11l-7 5q-7 -1 -20 -1q-30 0 -56 18l-13 -1q-15 -22 -21 -61q-14 -83 -78 -83q-31 0 -54 22.5t-23 54.5t24 53.5t59 21.5q49 0 74 13l3 14q-10 22 -10 43q0 13 3 25l-5 13q-9 3 -27 3q-15 0 -35 -3.5t-29 -3.5
q-33 0 -55 22.5t-22 53.5t22 54t54 23q45 0 67 -42q4 -7 9 -24t11.5 -31.5t17.5 -25.5l15 1q28 30 69 30l11 7q0 28 -17 61.5t-17 52.5q0 32 22 52.5t54 20.5t53 -22.5t21 -53.5q0 -22 -10 -37.5t-22.5 -23t-29 -22.5t-26.5 -33l4 -12q38 -20 48 -58l12 -6q23 8 54.5 39
t63.5 31q30 0 51.5 -22.5t21.5 -54.5q0 -31 -21.5 -52.5t-53.5 -21.5q-24 0 -56.5 23t-59.5 27l-9 -8q-6 -35 -39 -60l-1 -10q15 -20 53 -39q55 -26 55 -76q0 -30 -23 -53t-55 -23zM303 208q29 0 48 20t19 50q0 29 -19 48.5t-48 19.5q-28 0 -47.5 -19.5t-19.5 -48.5
t19.5 -49.5t47.5 -20.5z" />
    <glyph glyph-name="ordmasculine" unicode="&#xba;" horiz-adv-x="359" 
d="M178 336q-61 0 -101 38.5t-40 102.5q0 65 38.5 104t105.5 39q66 0 103.5 -39t37.5 -100q0 -63 -37 -104t-107 -41zM48 230v29h262v-29h-262zM181 359q61 0 61 121q0 117 -61 117q-35 0 -50 -34.5t-15 -81.5q0 -53 15.5 -87.5t49.5 -34.5z" />
    <glyph glyph-name="guillemotright" unicode="&#xbb;" horiz-adv-x="551" 
d="M277 15l-16 13l143 195l-143 196l16 13q84 -71 205 -164q9 -7 11.5 -9t6.5 -7.5t5 -12t1 -16.5q0 -19 -4 -26t-19 -19q-71 -54 -206 -163zM68 15l-16 13l143 195l-143 196l16 13q84 -71 205 -164q9 -7 11.5 -9t6.5 -7.5t5 -12t1 -16.5q0 -19 -4 -26t-19 -19
q-71 -54 -206 -163z" />
    <glyph glyph-name="onequarter" unicode="&#xbc;" horiz-adv-x="586" 
d="M160 339v22q63 4 70 6q24 6 24 32v284q-13 -3 -36 -3q-33 0 -90 41l8 15q43 -16 84 -16q68 0 126 29h14q-11 -53 -11 -102v-245q0 -24 23 -32q12 -5 68 -9v-22h-280zM47 238v41h492v-41h-492zM231 -227v22q40 3 50 6q21 6 21 30v68h-212v37l250 248h52v-247h16h14h10.5
t9.5 0.5t7 1.5t7 3l6 4q20 15 20 49h19v-157h-18q-2 38 -22 54q-11 7 -69 7v-64q0 -24 20 -31q17 -7 50 -9v-22h-231zM127 -63h175v170z" />
    <glyph glyph-name="onehalf" unicode="&#xbd;" horiz-adv-x="586" 
d="M160 339v22q63 4 70 6q24 6 24 32v284q-13 -3 -36 -3q-33 0 -90 41l8 15q43 -16 84 -16q68 0 126 29h14q-11 -53 -11 -102v-245q0 -24 23 -32q11 -5 68 -9v-22h-280zM47 238v41h492v-41h-492zM122 -227v31q143 89 187 129q41 39 57 73t16 78q0 36 -21 55t-52 19
q-50 0 -83.5 -32.5t-33.5 -72.5q0 -21 10 -32.5t36 -11.5q38 0 72 57l16 -13q-53 -88 -128 -88q-37 0 -58 19t-21 52q0 52 56.5 99t142.5 47q72 0 117.5 -32t45.5 -83q0 -63 -45 -104t-161 -91q-2 -1 -21 -12.5t-24 -14.5h176q24 0 41 17t41 53l17 -8l-58 -134h-325z" />
    <glyph glyph-name="threequarters" unicode="&#xbe;" horiz-adv-x="586" 
d="M250 332q-61 0 -105 24t-44 69q0 27 19 45.5t46 18.5q21 0 33.5 -10.5t12.5 -29.5q0 -20 -22 -30t-22 -20q0 -18 20.5 -30t59.5 -12q49 0 89 37t40 87q0 62 -54 62q-7 0 -14.5 -2t-13 -4.5t-13.5 -8.5t-11.5 -8.5t-12 -10t-10.5 -9.5l-19 27q6 3 23 12.5t22.5 12.5
t20 11.5t19.5 12t16 11.5t15.5 13.5t11 14t9.5 16t5 16.5t2 19q0 56 -60 56q-34 0 -65.5 -20.5t-31.5 -55.5q0 -32 31 -32q13 0 21.5 4t17.5 14t10 10l13 -14q-16 -20 -42.5 -36.5t-51.5 -16.5q-76 0 -76 56q0 46 56 80.5t136 34.5q72 0 104.5 -26t32.5 -62q0 -28 -28 -53.5
t-94 -39.5q54 0 92 -20t38 -67q0 -65 -64 -105.5t-162 -40.5zM47 238v41h492v-41h-492zM231 -227v22q40 3 50 6q21 6 21 30v68h-212v37l250 248h52v-247h16h14h10.5t9.5 0.5t7 1.5t7 3l6 4q20 15 20 49h19v-157h-18q-2 38 -22 54q-11 7 -69 7v-64q0 -24 20 -31q17 -7 50 -9
v-22h-231zM127 -63h175v170z" />
    <glyph glyph-name="questiondown" unicode="&#xbf;" horiz-adv-x="492" 
d="M289 695q32 0 54 -22t22 -53q0 -32 -22.5 -54t-53.5 -22t-53.5 22t-22.5 54q0 31 22 53t54 22zM305 490v-186q-148 -14 -148 -150q0 -72 31 -107.5t78 -35.5q48 0 68 25q-1 5 -6 15.5t-7.5 22t-2.5 28.5q0 30 20 48t46 18q32 0 48 -19t16 -50q0 -45 -53 -80t-133 -35
q-102 0 -159.5 58.5t-57.5 146.5q0 54 21.5 95.5t56.5 64t72.5 34t77.5 13.5l4 94h28z" />
    <glyph glyph-name="Agrave" unicode="&#xc0;" horiz-adv-x="687" 
d="M181 238q-36 -99 -37 -103q-12 -36 -12 -59q0 -24 37 -37.5t74 -16.5v-22h-272v22q44 5 67 19q33 20 56 78q23 57 66 165t92.5 235t68.5 175h55q43 -108 133 -342t102 -263q13 -31 40 -48q24 -15 64 -19v-22h-339v22q35 3 67 13t32 27q0 13 -4 22l-59 154h-231zM194 274
h204l-104 264q-37 -95 -100 -264zM400 725q-33 24 -63 44.5t-55 37t-34 22.5q-27 19 -38 32t-11 34q0 17 13.5 30.5t35.5 13.5q21 0 36.5 -12t31.5 -39q56 -90 98 -149z" />
    <glyph glyph-name="Aacute" unicode="&#xc1;" horiz-adv-x="687" 
d="M181 238q-36 -99 -37 -103q-12 -36 -12 -59q0 -24 37 -37.5t74 -16.5v-22h-272v22q44 5 67 19q33 20 56 78q23 57 66 165t92.5 235t68.5 175h55q43 -108 133 -342t102 -263q13 -31 40 -48q24 -15 64 -19v-22h-339v22q35 3 67 13t32 27q0 13 -4 22l-59 154h-231zM194 274
h204l-104 264q-37 -95 -100 -264zM291 719l-14 14q42 59 98 149q30 51 68 51q21 0 34.5 -13.5t13.5 -30.5q0 -21 -11 -34.5t-38 -31.5q-5 -3 -56 -37t-95 -67z" />
    <glyph glyph-name="Acircumflex" unicode="&#xc2;" horiz-adv-x="687" 
d="M181 238q-36 -99 -37 -103q-12 -36 -12 -59q0 -24 37 -37.5t74 -16.5v-22h-272v22q44 5 67 19q33 20 56 78q23 57 66 165t92.5 235t68.5 175h55q43 -108 133 -342t102 -263q13 -31 40 -48q24 -15 64 -19v-22h-339v22q35 3 67 13t32 27q0 13 -4 22l-59 154h-231zM194 274
h204l-104 264q-37 -95 -100 -264zM202 708l-16 13q25 38 62.5 97.5t49.5 77.5q8 13 17.5 17t32.5 4q22 0 30.5 -4t16.5 -15q31 -47 113 -177l-17 -13l-145 128z" />
    <glyph glyph-name="Atilde" unicode="&#xc3;" horiz-adv-x="687" 
d="M181 238q-36 -99 -37 -103q-12 -36 -12 -59q0 -24 37 -37.5t74 -16.5v-22h-272v22q44 5 67 19q33 20 56 78q23 57 66 165t92.5 235t68.5 175h55q43 -108 133 -342t102 -263q13 -31 40 -48q24 -15 64 -19v-22h-339v22q35 3 67 13t32 27q0 13 -4 22l-59 154h-231zM194 274
h204l-104 264q-37 -95 -100 -264zM181 738l-24 9q17 49 50.5 90.5t79.5 41.5q42 0 90 -26t71 -26q27 0 44.5 15.5t32.5 51.5l25 -8q-13 -49 -48 -91t-85 -42q-41 0 -88.5 26.5t-72.5 26.5q-26 0 -40 -14.5t-35 -53.5z" />
    <glyph glyph-name="Adieresis" unicode="&#xc4;" horiz-adv-x="687" 
d="M181 238q-36 -99 -37 -103q-12 -36 -12 -59q0 -24 37 -37.5t74 -16.5v-22h-272v22q44 5 67 19q33 20 56 78q23 57 66 165t92.5 235t68.5 175h55q43 -108 133 -342t102 -263q13 -31 40 -48q24 -15 64 -19v-22h-339v22q35 3 67 13t32 27q0 13 -4 22l-59 154h-231zM194 274
h204l-104 264q-37 -95 -100 -264zM456 759q-27 0 -46 19.5t-19 46.5q0 28 19 48t46 20t46.5 -19.5t19.5 -46.5q0 -28 -19.5 -48t-46.5 -20zM237 759q-26 0 -45.5 19.5t-19.5 46.5q0 28 19.5 48t45.5 20q27 0 46.5 -19.5t19.5 -46.5q0 -28 -19 -48t-47 -20z" />
    <glyph glyph-name="Aring" unicode="&#xc5;" horiz-adv-x="687" 
d="M181 238q-36 -99 -37 -103q-12 -36 -12 -59q0 -24 37 -37.5t74 -16.5v-22h-272v22q44 5 67 19q33 20 56 78q23 57 66 165t92.5 235t68.5 175h55q43 -108 133 -342t102 -263q13 -31 40 -48q24 -15 64 -19v-22h-339v22q35 3 67 13t32 27q0 13 -4 22l-59 154h-231zM194 274
h204l-104 264q-37 -95 -100 -264zM347 721q-55 0 -87.5 28t-32.5 74q0 45 34.5 73.5t85.5 28.5q52 0 86 -28t34 -74q0 -45 -33 -73.5t-87 -28.5zM347 747q28 0 43.5 21t15.5 55q0 33 -15.5 55t-43.5 22q-27 0 -43 -21t-16 -56q0 -33 15.5 -54.5t43.5 -21.5z" />
    <glyph glyph-name="AE" unicode="&#xc6;" horiz-adv-x="966" 
d="M226 274q-59 -106 -77 -142q-20 -40 -20 -61q0 -22 33 -34t67 -14v-23h-278v22q40 2 74 19q35 18 86 106q69 118 284 500q-33 12 -82 14v22h587v-166h-27q-11 39 -45.5 83.5t-66.5 49.5q-32 4 -83 4h-96v-285h66q58 0 86 30q24 23 35 93h26v-281h-26q-2 23 -13.5 55
t-21.5 43q-26 30 -86 30h-66v-221q0 -57 20 -72.5t93 -15.5q45 0 64 0.5t45.5 6t37.5 16.5q23 23 48.5 69.5t37.5 77.5h24l-13 -200h-601v22q56 3 79 12q31 12 31 49v191h-222zM245 309h203v336h-15q-34 -62 -97.5 -175t-90.5 -161z" />
    <glyph glyph-name="Ccedilla" unicode="&#xc7;" horiz-adv-x="653" 
d="M319 -12q-129 15 -209 107.5t-80 237.5q0 158 100.5 261.5t253.5 103.5q93 0 162 -50l28 45h38l4 -251h-25q-70 225 -223 225q-82 0 -135.5 -85.5t-53.5 -236.5q0 -141 61.5 -223.5t157.5 -82.5q80 0 130.5 38.5t87.5 112.5l27 -14q-36 -84 -104.5 -137.5t-172.5 -53.5
h-19v-36q131 -4 131 -82q0 -31 -16 -52t-48.5 -31t-67 -13.5t-83.5 -3.5v27q83 0 106 12q27 13 27 43q0 23 -20 29.5t-57 6.5v103z" />
    <glyph glyph-name="Egrave" unicode="&#xc8;" horiz-adv-x="661" 
d="M26 0v22q64 7 78 13q31 12 31 49v509q0 37 -31 49q-33 14 -78 19v22h568v-166h-27q-10 38 -44.5 83t-67.5 50q-32 4 -82 4h-105v-285h75q56 0 86 30q12 12 21.5 41t12.5 52h27v-281h-27q-2 23 -13 55t-21 43q-28 30 -86 30h-75v-221q0 -58 20 -73t93 -15q46 0 66 0.5
t49 6t40 16.5q23 23 48.5 69.5t37.5 77.5h25l-13 -200h-608zM392 719q-33 24 -63 44.5t-55 37t-34 22.5q-27 19 -38 32t-11 34q0 17 13.5 30.5t35.5 13.5q21 0 36.5 -12t31.5 -39q56 -90 98 -149z" />
    <glyph glyph-name="Eacute" unicode="&#xc9;" horiz-adv-x="661" 
d="M26 0v22q64 7 78 13q31 12 31 49v509q0 37 -31 49q-33 14 -78 19v22h568v-166h-27q-10 38 -44.5 83t-67.5 50q-32 4 -82 4h-105v-285h75q56 0 86 30q12 12 21.5 41t12.5 52h27v-281h-27q-2 23 -13 55t-21 43q-28 30 -86 30h-75v-221q0 -58 20 -73t93 -15q46 0 66 0.5
t49 6t40 16.5q23 23 48.5 69.5t37.5 77.5h25l-13 -200h-608zM271 719l-14 14q42 59 98 149q30 51 68 51q21 0 34.5 -13.5t13.5 -30.5q0 -21 -11 -34.5t-38 -31.5q-5 -3 -56 -37t-95 -67z" />
    <glyph glyph-name="Ecircumflex" unicode="&#xca;" horiz-adv-x="661" 
d="M26 0v22q64 7 78 13q31 12 31 49v509q0 37 -31 49q-33 14 -78 19v22h568v-166h-27q-10 38 -44.5 83t-67.5 50q-32 4 -82 4h-105v-285h75q56 0 86 30q12 12 21.5 41t12.5 52h27v-281h-27q-2 23 -13 55t-21 43q-28 30 -86 30h-75v-221q0 -58 20 -73t93 -15q46 0 66 0.5
t49 6t40 16.5q23 23 48.5 69.5t37.5 77.5h25l-13 -200h-608zM190 722l-16 13q25 38 62.5 97.5t49.5 77.5q8 13 17.5 17t32.5 4q22 0 30.5 -4t16.5 -15q31 -47 113 -177l-17 -13l-145 128z" />
    <glyph glyph-name="Edieresis" unicode="&#xcb;" horiz-adv-x="661" 
d="M26 0v22q64 7 78 13q31 12 31 49v509q0 37 -31 49q-33 14 -78 19v22h568v-166h-27q-10 38 -44.5 83t-67.5 50q-32 4 -82 4h-105v-285h75q56 0 86 30q12 12 21.5 41t12.5 52h27v-281h-27q-2 23 -13 55t-21 43q-28 30 -86 30h-75v-221q0 -58 20 -73t93 -15q46 0 66 0.5
t49 6t40 16.5q23 23 48.5 69.5t37.5 77.5h25l-13 -200h-608zM442 762q-27 0 -46 19.5t-19 46.5q0 28 19 48t46 20t46.5 -19.5t19.5 -46.5q0 -28 -19.5 -48t-46.5 -20zM223 762q-26 0 -45.5 19.5t-19.5 46.5q0 28 19.5 48t45.5 20q27 0 46.5 -19.5t19.5 -46.5q0 -28 -19 -48
t-47 -20z" />
    <glyph glyph-name="Igrave" unicode="&#xcc;" horiz-adv-x="406" 
d="M34 0v22q51 3 72 11q31 12 31 48v513q0 35 -31 48q-40 16 -72 19v22h339v-22q-47 -5 -73 -14q-30 -10 -30 -48v-513q0 -34 30 -48q26 -11 73 -16v-22h-339zM259 719q-33 24 -63 44.5t-55 37t-34 22.5q-27 19 -38 32t-11 34q0 17 13.5 30.5t35.5 13.5q21 0 36.5 -12
t31.5 -39q56 -90 98 -149z" />
    <glyph glyph-name="Iacute" unicode="&#xcd;" horiz-adv-x="406" 
d="M34 0v22q51 3 72 11q31 12 31 48v513q0 35 -31 48q-40 16 -72 19v22h339v-22q-47 -5 -73 -14q-30 -10 -30 -48v-513q0 -34 30 -48q26 -11 73 -16v-22h-339zM149 719l-14 14q42 59 98 149q30 51 68 51q21 0 34.5 -13.5t13.5 -30.5q0 -21 -11 -34.5t-38 -31.5
q-5 -3 -56 -37t-95 -67z" />
    <glyph glyph-name="Icircumflex" unicode="&#xce;" horiz-adv-x="406" 
d="M34 0v22q51 3 72 11q31 12 31 48v513q0 35 -31 48q-40 16 -72 19v22h339v-22q-47 -5 -73 -14q-30 -10 -30 -48v-513q0 -34 30 -48q26 -11 73 -16v-22h-339zM58 722l-16 13q25 38 62.5 97.5t49.5 77.5q8 13 17.5 17t32.5 4q22 0 30.5 -4t16.5 -15q31 -47 113 -177l-17 -13
l-145 128z" />
    <glyph glyph-name="Idieresis" unicode="&#xcf;" horiz-adv-x="406" 
d="M34 0v22q51 3 72 11q31 12 31 48v513q0 35 -31 48q-40 16 -72 19v22h339v-22q-47 -5 -73 -14q-30 -10 -30 -48v-513q0 -34 30 -48q26 -11 73 -16v-22h-339zM312 762q-27 0 -46 19.5t-19 46.5q0 28 19 48t46 20t46.5 -19.5t19.5 -46.5q0 -28 -19.5 -48t-46.5 -20zM93 762
q-26 0 -45.5 19.5t-19.5 46.5q0 28 19.5 48t45.5 20q27 0 46.5 -19.5t19.5 -46.5q0 -28 -19 -48t-47 -20z" />
    <glyph glyph-name="Eth" unicode="&#xd0;" horiz-adv-x="770" 
d="M31 0v22q51 3 73 11q31 12 31 49v257h-87v33h87v221q0 38 -31 51q-25 12 -69 17v22h330q46 0 93.5 -9.5t99.5 -34t91.5 -62t65.5 -100t26 -140.5q0 -84 -34 -150.5t-90.5 -106t-126 -60t-145.5 -20.5h-314zM364 30q113 0 169 83t56 225q0 138 -67 226.5t-178 88.5
q-36 0 -76 -2v-279h125v-33h-125v-237q5 -72 96 -72z" />
    <glyph glyph-name="Ntilde" unicode="&#xd1;" horiz-adv-x="770" 
d="M603 -5l-432 549v-353q0 -109 34 -137q11 -9 46 -19.5t52 -12.5v-22h-295v22q17 2 49 10.5t43 16.5q32 24 32 137v350q0 51 -31 79q-17 15 -47 28t-54 17v23h225l391 -497v308q0 111 -34 136q-12 9 -46.5 19t-51.5 12v22h294v-22q-66 -8 -92 -26q-32 -23 -32 -135v-505
h-51zM221 746l-24 9q17 49 50.5 90.5t79.5 41.5q42 0 90 -26t71 -26q27 0 44.5 15.5t32.5 51.5l25 -8q-13 -49 -48 -91t-85 -42q-41 0 -88.5 26.5t-72.5 26.5q-26 0 -40 -14.5t-35 -53.5z" />
    <glyph glyph-name="Ograve" unicode="&#xd2;" horiz-adv-x="768" 
d="M380 -17q-143 0 -244 95q-106 99 -106 256q0 168 105 268q103 98 249 98q149 0 251 -98q102 -97 102 -256q0 -169 -108 -270q-101 -93 -249 -93zM384 15q101 0 151.5 91t50.5 237q0 63 -10.5 118.5t-33.5 103.5t-63.5 75.5t-94.5 27.5q-96 0 -149.5 -87.5t-53.5 -241.5
q0 -142 51 -233t152 -91zM443 719q-33 24 -63 44.5t-55 37t-34 22.5q-27 19 -38 32t-11 34q0 17 13.5 30.5t35.5 13.5q21 0 36.5 -12t31.5 -39q56 -90 98 -149z" />
    <glyph glyph-name="Oacute" unicode="&#xd3;" horiz-adv-x="768" 
d="M380 -17q-143 0 -244 95q-106 99 -106 256q0 168 105 268q103 98 249 98q149 0 251 -98q102 -97 102 -256q0 -169 -108 -270q-101 -93 -249 -93zM384 15q101 0 151.5 91t50.5 237q0 63 -10.5 118.5t-33.5 103.5t-63.5 75.5t-94.5 27.5q-96 0 -149.5 -87.5t-53.5 -241.5
q0 -142 51 -233t152 -91zM317 719l-14 14q42 59 98 149q30 51 68 51q21 0 34.5 -13.5t13.5 -30.5q0 -21 -11 -34.5t-38 -31.5q-5 -3 -56 -37t-95 -67z" />
    <glyph glyph-name="Ocircumflex" unicode="&#xd4;" horiz-adv-x="768" 
d="M380 -17q-143 0 -244 95q-106 99 -106 256q0 168 105 268q103 98 249 98q149 0 251 -98q102 -97 102 -256q0 -169 -108 -270q-101 -93 -249 -93zM384 15q101 0 151.5 91t50.5 237q0 63 -10.5 118.5t-33.5 103.5t-63.5 75.5t-94.5 27.5q-96 0 -149.5 -87.5t-53.5 -241.5
q0 -142 51 -233t152 -91zM237 722l-16 13q25 38 62.5 97.5t49.5 77.5q8 13 17.5 17t32.5 4q22 0 30.5 -4t16.5 -15q31 -47 113 -177l-17 -13l-145 128z" />
    <glyph glyph-name="Otilde" unicode="&#xd5;" horiz-adv-x="768" 
d="M380 -17q-143 0 -244 95q-106 99 -106 256q0 168 105 268q103 98 249 98q149 0 251 -98q102 -97 102 -256q0 -169 -108 -270q-101 -93 -249 -93zM384 15q101 0 151.5 91t50.5 237q0 63 -10.5 118.5t-33.5 103.5t-63.5 75.5t-94.5 27.5q-96 0 -149.5 -87.5t-53.5 -241.5
q0 -142 51 -233t152 -91zM212 748l-24 9q17 49 50.5 90.5t79.5 41.5q42 0 90 -26t71 -26q27 0 44.5 15.5t32.5 51.5l25 -8q-13 -49 -48 -91t-85 -42q-41 0 -88.5 26.5t-72.5 26.5q-26 0 -40 -14.5t-35 -53.5z" />
    <glyph glyph-name="Odieresis" unicode="&#xd6;" horiz-adv-x="768" 
d="M380 -17q-143 0 -244 95q-106 99 -106 256q0 168 105 268q103 98 249 98q149 0 251 -98q102 -97 102 -256q0 -169 -108 -270q-101 -93 -249 -93zM384 15q101 0 151.5 91t50.5 237q0 63 -10.5 118.5t-33.5 103.5t-63.5 75.5t-94.5 27.5q-96 0 -149.5 -87.5t-53.5 -241.5
q0 -142 51 -233t152 -91zM491 762q-27 0 -46 19.5t-19 46.5q0 28 19 48t46 20t46.5 -19.5t19.5 -46.5q0 -28 -19.5 -48t-46.5 -20zM272 762q-26 0 -45.5 19.5t-19.5 46.5q0 28 19.5 48t45.5 20q27 0 46.5 -19.5t19.5 -46.5q0 -28 -19 -48t-47 -20z" />
    <glyph glyph-name="multiply" unicode="&#xd7;" horiz-adv-x="562" 
d="M94 34l-38 38l189 189l-186 186l37 37l186 -186l186 187l38 -38l-186 -186l186 -186l-37 -37l-186 186z" />
    <glyph glyph-name="Oslash" unicode="&#xd8;" horiz-adv-x="768" 
d="M66 -41l-28 21l91 104q-98 100 -98 250q0 169 105 268q101 98 249 98q125 0 223 -74l85 97l29 -22l-87 -98q46 -42 74.5 -110.5t28.5 -146.5q0 -169 -108 -270q-101 -93 -249 -93q-128 0 -225 78zM207 172l339 384q-53 112 -161 112q-97 0 -150 -87.5t-53 -241.5
q0 -96 25 -167zM385 15q101 0 151.5 91t50.5 237q0 100 -27 175l-340 -384q53 -119 165 -119z" />
    <glyph glyph-name="Ugrave" unicode="&#xd9;" horiz-adv-x="774" 
d="M396 -16q-131 0 -202.5 61t-71.5 157v392q0 34 -31 50q-21 11 -69 17v22h336v-22q-50 -6 -71 -13q-31 -10 -31 -49v-386q0 -183 171 -183q94 0 139.5 53.5t45.5 132.5v279q0 110 -34 135q-14 10 -46.5 19.5t-51.5 11.5v22h295v-22q-65 -8 -92 -25q-32 -22 -32 -135v-290
q0 -58 -23 -103.5t-60.5 -71.5t-81.5 -39t-90 -13zM447 719q-33 24 -63 44.5t-55 37t-34 22.5q-27 19 -38 32t-11 34q0 17 13.5 30.5t35.5 13.5q21 0 36.5 -12t31.5 -39q56 -90 98 -149z" />
    <glyph glyph-name="Uacute" unicode="&#xda;" horiz-adv-x="774" 
d="M396 -16q-131 0 -202.5 61t-71.5 157v392q0 34 -31 50q-21 11 -69 17v22h336v-22q-50 -6 -71 -13q-31 -10 -31 -49v-386q0 -183 171 -183q94 0 139.5 53.5t45.5 132.5v279q0 110 -34 135q-14 10 -46.5 19.5t-51.5 11.5v22h295v-22q-65 -8 -92 -25q-32 -22 -32 -135v-290
q0 -58 -23 -103.5t-60.5 -71.5t-81.5 -39t-90 -13zM337 719l-14 14q42 59 98 149q30 51 68 51q21 0 34.5 -13.5t13.5 -30.5q0 -21 -11 -34.5t-38 -31.5q-5 -3 -56 -37t-95 -67z" />
    <glyph glyph-name="Ucircumflex" unicode="&#xdb;" horiz-adv-x="774" 
d="M396 -16q-131 0 -202.5 61t-71.5 157v392q0 34 -31 50q-21 11 -69 17v22h336v-22q-50 -6 -71 -13q-31 -10 -31 -49v-386q0 -183 171 -183q94 0 139.5 53.5t45.5 132.5v279q0 110 -34 135q-14 10 -46.5 19.5t-51.5 11.5v22h295v-22q-65 -8 -92 -25q-32 -22 -32 -135v-290
q0 -58 -23 -103.5t-60.5 -71.5t-81.5 -39t-90 -13zM251 722l-16 13q25 38 62.5 97.5t49.5 77.5q8 13 17.5 17t32.5 4q22 0 30.5 -4t16.5 -15q31 -47 113 -177l-17 -13l-145 128z" />
    <glyph glyph-name="Udieresis" unicode="&#xdc;" horiz-adv-x="774" 
d="M396 -16q-131 0 -202.5 61t-71.5 157v392q0 34 -31 50q-21 11 -69 17v22h336v-22q-50 -6 -71 -13q-31 -10 -31 -49v-386q0 -183 171 -183q94 0 139.5 53.5t45.5 132.5v279q0 110 -34 135q-14 10 -46.5 19.5t-51.5 11.5v22h295v-22q-65 -8 -92 -25q-32 -22 -32 -135v-290
q0 -58 -23 -103.5t-60.5 -71.5t-81.5 -39t-90 -13zM504 762q-27 0 -46 19.5t-19 46.5q0 28 19 48t46 20t46.5 -19.5t19.5 -46.5q0 -28 -19.5 -48t-46.5 -20zM285 762q-26 0 -45.5 19.5t-19.5 46.5q0 28 19.5 48t45.5 20q27 0 46.5 -19.5t19.5 -46.5q0 -28 -19 -48t-47 -20z
" />
    <glyph glyph-name="Yacute" unicode="&#xdd;" horiz-adv-x="652" 
d="M141 0v22q59 3 82 12q31 12 31 50v157q0 38 -29 90q-78 152 -133 245q-26 46 -62 68q-27 15 -64 17v22h353v-22q-100 -6 -100 -33q0 -9 49.5 -104t105.5 -193q159 260 159 285q0 38 -102 45v22h257v-22q-29 -3 -58 -20q-34 -20 -62 -59q-49 -68 -148 -246
q-33 -57 -33 -123v-124q0 -37 31 -50q35 -14 81 -17v-22h-358zM297 719l-14 14q42 59 98 149q30 51 68 51q21 0 34.5 -13.5t13.5 -30.5q0 -21 -11 -34.5t-38 -31.5q-5 -3 -56 -37t-95 -67z" />
    <glyph glyph-name="Thorn" unicode="&#xde;" horiz-adv-x="625" 
d="M30 0v22q50 3 74 12q31 12 31 50v512q0 38 -31 50q-26 10 -74 15v22h344v-22q-55 -5 -76 -13q-30 -10 -30 -49v-63h107q108 1 170 -42.5t62 -123.5q0 -68 -40.5 -117t-101.5 -71t-134 -22h-63v-75q0 -37 30 -49q25 -9 77 -14v-22h-345zM268 191h35q86 0 120.5 46
t34.5 109q0 161 -138 161h-52v-316z" />
    <glyph glyph-name="germandbls" unicode="&#xdf;" horiz-adv-x="592" 
d="M408 -14q-75 0 -111.5 29t-36.5 74q0 28 16.5 48t45.5 20q25 0 39.5 -15.5t14.5 -37.5q0 -12 -8.5 -27t-8.5 -24q0 -17 13 -30t40 -13q33 0 52.5 23t19.5 62q0 35 -18.5 62t-78.5 70q-49 35 -73 67t-24 72q0 16 6 30.5t12.5 22.5t21 23.5t20.5 22.5q45 51 45 126
q0 65 -24 98.5t-63 33.5q-47 0 -70.5 -49.5t-27.5 -162.5q0 -7 -0.5 -24.5t-0.5 -26.5v-460h-187v20q25 1 45 7q27 9 27 45v336h-84v42h84v31q0 129 68 201q61 65 159 65q66 0 118.5 -36t52.5 -96q0 -36 -14 -63.5t-34 -44t-39.5 -29.5t-33.5 -27t-14 -29q0 -20 26 -46
t91 -75q57 -43 79 -76t22 -86q0 -62 -47.5 -107.5t-119.5 -45.5z" />
    <glyph glyph-name="agrave" unicode="&#xe0;" horiz-adv-x="496" 
d="M148 -13q-52 0 -85.5 30.5t-33.5 78.5q0 57 26 84.5t72 44.5q18 7 58.5 20.5t67 23.5t41.5 20v57q0 101 -73 101q-33 0 -55 -28q0 -5 6.5 -28t6.5 -38q0 -18 -19.5 -34t-49.5 -16q-29 0 -43 17.5t-14 42.5q0 44 55.5 75t119.5 31q35 0 59 -2.5t49.5 -11.5t40.5 -24.5
t24.5 -43t9.5 -66.5q0 -52 -3 -135.5t-3 -92.5q0 -15 11.5 -32t30.5 -17q22 0 29.5 21.5t9.5 59.5h24q-8 -136 -114 -136q-72 0 -100 66h-3q-59 -68 -145 -68zM211 38q30 0 46.5 11t33.5 35l4 174q-76 -26 -110 -53.5t-34 -87.5q0 -79 60 -79zM307 528q-33 24 -63 44.5
t-55 37t-34 22.5q-27 19 -38 32t-11 34q0 17 13.5 30.5t35.5 13.5q21 0 36.5 -12t31.5 -39q56 -90 98 -149z" />
    <glyph glyph-name="aacute" unicode="&#xe1;" horiz-adv-x="496" 
d="M148 -13q-52 0 -85.5 30.5t-33.5 78.5q0 57 26 84.5t72 44.5q18 7 58.5 20.5t67 23.5t41.5 20v57q0 101 -73 101q-33 0 -55 -28q0 -5 6.5 -28t6.5 -38q0 -18 -19.5 -34t-49.5 -16q-29 0 -43 17.5t-14 42.5q0 44 55.5 75t119.5 31q35 0 59 -2.5t49.5 -11.5t40.5 -24.5
t24.5 -43t9.5 -66.5q0 -52 -3 -135.5t-3 -92.5q0 -15 11.5 -32t30.5 -17q22 0 29.5 21.5t9.5 59.5h24q-8 -136 -114 -136q-72 0 -100 66h-3q-59 -68 -145 -68zM211 38q30 0 46.5 11t33.5 35l4 174q-76 -26 -110 -53.5t-34 -87.5q0 -79 60 -79zM174 528l-14 14q42 59 98 149
q30 51 68 51q22 0 35 -13t13 -31q0 -21 -11 -34.5t-38 -31.5q-5 -3 -56 -37t-95 -67z" />
    <glyph glyph-name="acircumflex" unicode="&#xe2;" horiz-adv-x="496" 
d="M148 -13q-52 0 -85.5 30.5t-33.5 78.5q0 57 26 84.5t72 44.5q18 7 58.5 20.5t67 23.5t41.5 20v57q0 101 -73 101q-33 0 -55 -28q0 -5 6.5 -28t6.5 -38q0 -18 -19.5 -34t-49.5 -16q-29 0 -43 17.5t-14 42.5q0 44 55.5 75t119.5 31q35 0 59 -2.5t49.5 -11.5t40.5 -24.5
t24.5 -43t9.5 -66.5q0 -52 -3 -135.5t-3 -92.5q0 -15 11.5 -32t30.5 -17q22 0 29.5 21.5t9.5 59.5h24q-8 -136 -114 -136q-72 0 -100 66h-3q-59 -68 -145 -68zM211 38q30 0 46.5 11t33.5 35l4 174q-76 -26 -110 -53.5t-34 -87.5q0 -79 60 -79zM95 531l-16 13
q25 38 62.5 97.5t49.5 77.5q8 13 17.5 17t32.5 4q22 0 30.5 -4t16.5 -15q31 -47 113 -177l-17 -13l-145 128z" />
    <glyph glyph-name="atilde" unicode="&#xe3;" horiz-adv-x="496" 
d="M148 -13q-52 0 -85.5 30.5t-33.5 78.5q0 57 26 84.5t72 44.5q18 7 58.5 20.5t67 23.5t41.5 20v57q0 101 -73 101q-33 0 -55 -28q0 -5 6.5 -28t6.5 -38q0 -18 -19.5 -34t-49.5 -16q-29 0 -43 17.5t-14 42.5q0 44 55.5 75t119.5 31q35 0 59 -2.5t49.5 -11.5t40.5 -24.5
t24.5 -43t9.5 -66.5q0 -52 -3 -135.5t-3 -92.5q0 -15 11.5 -32t30.5 -17q22 0 29.5 21.5t9.5 59.5h24q-8 -136 -114 -136q-72 0 -100 66h-3q-59 -68 -145 -68zM211 38q30 0 46.5 11t33.5 35l4 174q-76 -26 -110 -53.5t-34 -87.5q0 -79 60 -79zM72 549l-24 9q17 49 50.5 90.5
t79.5 41.5q42 0 90 -26t71 -26q27 0 44.5 15.5t32.5 51.5l25 -8q-13 -49 -48 -91t-85 -42q-41 0 -88.5 26.5t-72.5 26.5q-26 0 -40 -14.5t-35 -53.5z" />
    <glyph glyph-name="adieresis" unicode="&#xe4;" horiz-adv-x="496" 
d="M148 -13q-52 0 -85.5 30.5t-33.5 78.5q0 57 26 84.5t72 44.5q18 7 58.5 20.5t67 23.5t41.5 20v57q0 101 -73 101q-33 0 -55 -28q0 -5 6.5 -28t6.5 -38q0 -18 -19.5 -34t-49.5 -16q-29 0 -43 17.5t-14 42.5q0 44 55.5 75t119.5 31q35 0 59 -2.5t49.5 -11.5t40.5 -24.5
t24.5 -43t9.5 -66.5q0 -52 -3 -135.5t-3 -92.5q0 -15 11.5 -32t30.5 -17q22 0 29.5 21.5t9.5 59.5h24q-8 -136 -114 -136q-72 0 -100 66h-3q-59 -68 -145 -68zM211 38q30 0 46.5 11t33.5 35l4 174q-76 -26 -110 -53.5t-34 -87.5q0 -79 60 -79zM351 577q-27 0 -46 19.5
t-19 46.5q0 28 19 48t46 20t46.5 -19.5t19.5 -46.5q0 -28 -19.5 -48t-46.5 -20zM132 577q-26 0 -45.5 19.5t-19.5 46.5q0 28 19.5 48t45.5 20q27 0 46.5 -19.5t19.5 -46.5q0 -28 -19 -48t-47 -20z" />
    <glyph glyph-name="aring" unicode="&#xe5;" horiz-adv-x="496" 
d="M148 -13q-52 0 -85.5 30.5t-33.5 78.5q0 57 26 84.5t72 44.5q18 7 58.5 20.5t67 23.5t41.5 20v57q0 101 -73 101q-33 0 -55 -28q0 -5 6.5 -28t6.5 -38q0 -18 -19.5 -34t-49.5 -16q-29 0 -43 17.5t-14 42.5q0 44 55.5 75t119.5 31q35 0 59 -2.5t49.5 -11.5t40.5 -24.5
t24.5 -43t9.5 -66.5q0 -52 -3 -135.5t-3 -92.5q0 -15 11.5 -32t30.5 -17q22 0 29.5 21.5t9.5 59.5h24q-8 -136 -114 -136q-72 0 -100 66h-3q-59 -68 -145 -68zM211 38q30 0 46.5 11t33.5 35l4 174q-76 -26 -110 -53.5t-34 -87.5q0 -79 60 -79zM239 528q-55 0 -87.5 28
t-32.5 74q0 45 34.5 73.5t85.5 28.5q52 0 86 -28t34 -74q0 -45 -33 -73.5t-87 -28.5zM239 554q28 0 43.5 21t15.5 55q0 33 -15.5 55t-43.5 22q-27 0 -43 -21t-16 -56q0 -33 15.5 -54.5t43.5 -21.5z" />
    <glyph glyph-name="ae" unicode="&#xe6;" horiz-adv-x="723" 
d="M149 -13q-52 0 -86 30.5t-34 78.5q0 57 26.5 84.5t73.5 44.5q19 7 58.5 20t66.5 23.5t43 20.5v57q0 101 -74 101q-34 0 -58 -27q0 -3 6.5 -27t6.5 -39q0 -18 -19 -33.5t-49 -15.5q-29 0 -43.5 17.5t-14.5 41.5q0 44 57 74.5t121 30.5q107 0 147 -48q57 48 131 48
q101 0 148 -55.5t47 -140.5v-10h-291v-15q0 -97 34.5 -153.5t106.5 -56.5q52 0 81 19.5t58 69.5l19 -13q-28 -58 -79 -92.5t-117 -34.5q-122 0 -182 94h-4q-67 -94 -180 -94zM412 287l165 2q0 33 -2 56t-9 48.5t-22.5 38.5t-39.5 13q-81 0 -92 -158zM213 37q31 0 49 11.5
t36 35.5v174q-77 -26 -112 -54t-35 -87q0 -80 62 -80z" />
    <glyph glyph-name="ccedilla" unicode="&#xe7;" horiz-adv-x="439" 
d="M198 -8q-85 16 -128.5 79.5t-43.5 158.5q0 99 63 169t168 70q78 0 119.5 -32.5t41.5 -83.5q0 -28 -16.5 -45.5t-47.5 -17.5q-23 0 -44 14t-21 41q0 21 8 40.5t9 26.5q-6 33 -49 33q-45 0 -75 -50.5t-30 -155.5q0 -88 35.5 -144t94.5 -56q51 0 82.5 22t55.5 69l20 -14
q-27 -56 -77.5 -92.5t-111.5 -36.5q-17 0 -25 1v-39q131 -4 131 -82q0 -31 -16 -52t-48.5 -31t-67 -13.5t-83.5 -3.5v27q83 0 106 12q27 13 27 43q0 23 -20 29.5t-57 6.5v107z" />
    <glyph glyph-name="egrave" unicode="&#xe8;" horiz-adv-x="462" 
d="M255 -13q-112 0 -170.5 68.5t-58.5 175.5q0 98 59.5 168t160.5 70t148.5 -55t47.5 -140v-11h-292v-11q0 -99 34.5 -156.5t108.5 -57.5q51 0 81.5 20t58.5 70l19 -13q-28 -57 -79.5 -92.5t-117.5 -35.5zM150 288l169 2q0 32 -2.5 56t-10 48.5t-24 37.5t-40.5 13
q-41 0 -65.5 -42t-26.5 -115zM306 528q-33 24 -63 44.5t-55 37t-34 22.5q-27 19 -38 32t-11 34q0 17 13.5 30.5t35.5 13.5q21 0 36.5 -12t31.5 -39q56 -90 98 -149z" />
    <glyph glyph-name="eacute" unicode="&#xe9;" horiz-adv-x="462" 
d="M255 -13q-112 0 -170.5 68.5t-58.5 175.5q0 98 59.5 168t160.5 70t148.5 -55t47.5 -140v-11h-292v-11q0 -99 34.5 -156.5t108.5 -57.5q51 0 81.5 20t58.5 70l19 -13q-28 -57 -79.5 -92.5t-117.5 -35.5zM150 288l169 2q0 32 -2.5 56t-10 48.5t-24 37.5t-40.5 13
q-41 0 -65.5 -42t-26.5 -115zM181 528l-14 14q42 59 98 149q30 51 68 51q21 0 34.5 -13t13.5 -31q0 -21 -11 -34.5t-38 -31.5q-5 -3 -56 -37t-95 -67z" />
    <glyph glyph-name="ecircumflex" unicode="&#xea;" horiz-adv-x="462" 
d="M255 -13q-112 0 -170.5 68.5t-58.5 175.5q0 98 59.5 168t160.5 70t148.5 -55t47.5 -140v-11h-292v-11q0 -99 34.5 -156.5t108.5 -57.5q51 0 81.5 20t58.5 70l19 -13q-28 -57 -79.5 -92.5t-117.5 -35.5zM150 288l169 2q0 32 -2.5 56t-10 48.5t-24 37.5t-40.5 13
q-41 0 -65.5 -42t-26.5 -115zM95 531l-16 13q25 38 62.5 97.5t49.5 77.5q8 13 17.5 17t32.5 4q22 0 30.5 -4t16.5 -15q31 -47 113 -177l-17 -13l-145 128z" />
    <glyph glyph-name="edieresis" unicode="&#xeb;" horiz-adv-x="462" 
d="M255 -13q-112 0 -170.5 68.5t-58.5 175.5q0 98 59.5 168t160.5 70t148.5 -55t47.5 -140v-11h-292v-11q0 -99 34.5 -156.5t108.5 -57.5q51 0 81.5 20t58.5 70l19 -13q-28 -57 -79.5 -92.5t-117.5 -35.5zM150 288l169 2q0 32 -2.5 56t-10 48.5t-24 37.5t-40.5 13
q-41 0 -65.5 -42t-26.5 -115zM351 577q-27 0 -46 19.5t-19 46.5q0 28 19 48t46 20t46.5 -19.5t19.5 -46.5q0 -28 -19.5 -48t-46.5 -20zM132 577q-26 0 -45.5 19.5t-19.5 46.5q0 28 19.5 48t45.5 20q27 0 46.5 -19.5t19.5 -46.5q0 -28 -19 -48t-47 -20z" />
    <glyph glyph-name="igrave" unicode="&#xec;" horiz-adv-x="291" 
d="M24 0v20q26 1 44 8q26 9 26 44v291q-2 33 -26 50q-26 17 -59 19v19l193 12l7 -7v-378q0 -33 27 -46q22 -9 44 -12v-20h-256zM210 528q-33 24 -63 44.5t-55 37t-34 22.5q-27 19 -38 32t-11 34q0 17 13.5 30.5t35.5 13.5q21 0 36.5 -12t31.5 -39q56 -90 98 -149z" />
    <glyph glyph-name="iacute" unicode="&#xed;" horiz-adv-x="291" 
d="M24 0v20q26 1 44 8q26 9 26 44v291q-2 33 -26 50q-26 17 -59 19v19l193 12l7 -7v-378q0 -33 27 -46q22 -9 44 -12v-20h-256zM67 528l-14 14q42 59 98 149q30 51 68 51q21 0 34.5 -13t13.5 -31q0 -21 -11 -34.5t-38 -31.5q-5 -3 -56 -37t-95 -67z" />
    <glyph glyph-name="icircumflex" unicode="&#xee;" horiz-adv-x="291" 
d="M12 531l-17 13q26 44 58 104.5t37 70.5q8 13 16 17t31 4t31 -4t15 -15q6 -11 22 -42t35 -65.5t38 -69.5l-17 -13l-126 131zM24 0v20q26 1 44 8q26 9 26 44v291q-2 33 -26 50q-26 17 -59 19v19l193 12l7 -7v-378q0 -33 27 -46q22 -9 44 -12v-20h-256z" />
    <glyph glyph-name="idieresis" unicode="&#xef;" horiz-adv-x="291" 
d="M236 577q-27 0 -46 19.5t-19 46.5q0 28 19 48t46 20t46 -19.5t19 -46.5q0 -28 -19 -48t-46 -20zM42 577q-26 0 -45 19.5t-19 46.5q0 28 19 48t45 20q28 0 47 -19.5t19 -46.5q0 -28 -19 -48t-47 -20zM24 0v20q26 1 44 8q26 9 26 44v291q-2 33 -26 50q-26 17 -59 19v19
l193 12l7 -7v-378q0 -33 27 -46q22 -9 44 -12v-20h-256z" />
    <glyph glyph-name="eth" unicode="&#xf0;" horiz-adv-x="542" 
d="M265 -14q-102 0 -170.5 66t-68.5 180q0 105 65 171t169 66q78 0 118 -53l4 1q-20 135 -81 215l-115 -69l-17 27l112 68q-34 41 -82 73l13 18q64 -31 110 -66l92 55l18 -28l-82 -49q165 -138 165 -370q0 -136 -68 -220.5t-182 -84.5zM270 9q32 0 55.5 19.5t36 54t18 74
t5.5 86.5q0 88 -31 145t-83 57q-117 0 -117 -208q0 -228 116 -228z" />
    <glyph glyph-name="ntilde" unicode="&#xf1;" horiz-adv-x="585" 
d="M24 0v20q25 1 43 8q26 8 26 44v291q-2 37 -26 53q-22 14 -49 16v19l183 12l7 -7v-69h2q45 46 70 60q38 22 89 22q67 0 101.5 -42t34.5 -115v-236q0 -33 25 -44q23 -10 43 -12v-20h-249v20q28 2 43 8q22 8 22 44v241q0 49 -20.5 76t-51.5 27q-42 0 -70 -21t-39 -45v-273
q0 -33 23 -45q17 -9 43 -12v-20h-250zM126 549l-24 9q17 49 50.5 90.5t79.5 41.5q42 0 90 -26t71 -26q27 0 44.5 15.5t32.5 51.5l25 -8q-13 -49 -48 -91t-85 -42q-41 0 -88.5 26.5t-72.5 26.5q-26 0 -40 -14.5t-35 -53.5z" />
    <glyph glyph-name="ograve" unicode="&#xf2;" horiz-adv-x="528" 
d="M260 -14q-99 0 -167 66t-68 175q0 108 66 175t175 67q108 0 172.5 -66.5t64.5 -170.5q0 -106 -64.5 -176t-178.5 -70zM265 10q56 0 83 62t27 160q0 58 -8.5 103t-34 78t-66.5 33q-112 0 -112 -212q0 -99 26.5 -161.5t84.5 -62.5zM335 528q-33 24 -63 44.5t-55 37
t-34 22.5q-27 19 -38 32t-11 34q0 17 13.5 30.5t35.5 13.5q21 0 36.5 -12t31.5 -39q56 -90 98 -149z" />
    <glyph glyph-name="oacute" unicode="&#xf3;" horiz-adv-x="528" 
d="M260 -14q-99 0 -167 66t-68 175q0 108 66 175t175 67q108 0 172.5 -66.5t64.5 -170.5q0 -106 -64.5 -176t-178.5 -70zM265 10q56 0 83 62t27 160q0 58 -8.5 103t-34 78t-66.5 33q-112 0 -112 -212q0 -99 26.5 -161.5t84.5 -62.5zM188 528l-14 14q42 59 98 149
q30 51 68 51q22 0 35 -13t13 -31q0 -21 -11 -34.5t-38 -31.5q-5 -3 -56 -37t-95 -67z" />
    <glyph glyph-name="ocircumflex" unicode="&#xf4;" horiz-adv-x="528" 
d="M260 -14q-99 0 -167 66t-68 175q0 108 66 175t175 67q108 0 172.5 -66.5t64.5 -170.5q0 -106 -64.5 -176t-178.5 -70zM265 10q56 0 83 62t27 160q0 58 -8.5 103t-34 78t-66.5 33q-112 0 -112 -212q0 -99 26.5 -161.5t84.5 -62.5zM120 531l-16 13q25 38 62.5 97.5
t49.5 77.5q8 13 17.5 17t32.5 4q22 0 30.5 -4t16.5 -15q31 -47 113 -177l-17 -13l-145 128z" />
    <glyph glyph-name="otilde" unicode="&#xf5;" horiz-adv-x="528" 
d="M260 -14q-99 0 -167 66t-68 175q0 108 66 175t175 67q108 0 172.5 -66.5t64.5 -170.5q0 -106 -64.5 -176t-178.5 -70zM265 10q56 0 83 62t27 160q0 58 -8.5 103t-34 78t-66.5 33q-112 0 -112 -212q0 -99 26.5 -161.5t84.5 -62.5zM92 549l-24 9q17 49 50.5 90.5t79.5 41.5
q42 0 90 -26t71 -26q27 0 44.5 15.5t32.5 51.5l25 -8q-13 -49 -48 -91t-85 -42q-41 0 -88.5 26.5t-72.5 26.5q-26 0 -40 -14.5t-35 -53.5z" />
    <glyph glyph-name="odieresis" unicode="&#xf6;" horiz-adv-x="528" 
d="M260 -14q-99 0 -167 66t-68 175q0 108 66 175t175 67q108 0 172.5 -66.5t64.5 -170.5q0 -106 -64.5 -176t-178.5 -70zM265 10q56 0 83 62t27 160q0 58 -8.5 103t-34 78t-66.5 33q-112 0 -112 -212q0 -99 26.5 -161.5t84.5 -62.5zM374 577q-27 0 -46 19.5t-19 46.5
q0 28 19 48t46 20t46.5 -19.5t19.5 -46.5q0 -28 -19.5 -48t-46.5 -20zM155 577q-26 0 -45.5 19.5t-19.5 46.5q0 28 19.5 48t45.5 20q27 0 46.5 -19.5t19.5 -46.5q0 -28 -19 -48t-47 -20z" />
    <glyph glyph-name="divide" unicode="&#xf7;" horiz-adv-x="562" 
d="M281 362q-30 0 -51.5 21t-21.5 52q0 30 21.5 51t51.5 21t51.5 -21t21.5 -51q0 -31 -21.5 -52t-51.5 -21zM43 234v52h476v-52h-476zM281 12q-30 0 -51.5 21t-21.5 51q0 31 21.5 52t51.5 21t51.5 -21t21.5 -52q0 -30 -21.5 -51t-51.5 -21z" />
    <glyph glyph-name="oslash" unicode="&#xf8;" horiz-adv-x="528" 
d="M61 -36l-26 18l59 70q-69 69 -69 175q0 108 66 175t175 67q84 0 142 -40l56 67l27 -19l-57 -69q69 -67 69 -176q0 -106 -64.5 -176t-178.5 -70q-80 0 -142 45zM163 135l192 231q-26 80 -89 80q-112 0 -112 -212q0 -54 9 -99zM265 10q56 0 83 62t27 160q0 50 -9 95
l-194 -231q26 -86 93 -86z" />
    <glyph glyph-name="ugrave" unicode="&#xf9;" horiz-adv-x="569" 
d="M209 -12q-66 0 -97.5 44t-31.5 119v214q-2 33 -26 50q-22 14 -50 16v20l186 12l6 -7v-319q0 -48 19 -74t50 -26q71 0 104 63v267q-2 34 -24 50q-17 12 -62 14v20l194 12l7 -7v-365q1 -32 26 -49q17 -11 49 -13v-20l-182 -12l-7 7v62h-3q-25 -26 -39.5 -38.5t-46.5 -26
t-72 -13.5zM348 528q-33 24 -63 44.5t-55 37t-34 22.5q-27 19 -38 32t-11 34q0 17 13.5 30.5t35.5 13.5q21 0 36.5 -12t31.5 -39q56 -90 98 -149z" />
    <glyph glyph-name="uacute" unicode="&#xfa;" horiz-adv-x="569" 
d="M209 -12q-66 0 -97.5 44t-31.5 119v214q-2 33 -26 50q-22 14 -50 16v20l186 12l6 -7v-319q0 -48 19 -74t50 -26q71 0 104 63v267q-2 34 -24 50q-17 12 -62 14v20l194 12l7 -7v-365q1 -32 26 -49q17 -11 49 -13v-20l-182 -12l-7 7v62h-3q-25 -26 -39.5 -38.5t-46.5 -26
t-72 -13.5zM216 528l-14 14q42 59 98 149q30 51 68 51q22 0 35 -13t13 -31q0 -21 -11 -34.5t-38 -31.5q-5 -3 -56 -37t-95 -67z" />
    <glyph glyph-name="ucircumflex" unicode="&#xfb;" horiz-adv-x="569" 
d="M209 -12q-66 0 -97.5 44t-31.5 119v214q-2 33 -26 50q-22 14 -50 16v20l186 12l6 -7v-319q0 -48 19 -74t50 -26q71 0 104 63v267q-2 34 -24 50q-17 12 -62 14v20l194 12l7 -7v-365q1 -32 26 -49q17 -11 49 -13v-20l-182 -12l-7 7v62h-3q-25 -26 -39.5 -38.5t-46.5 -26
t-72 -13.5zM130 531l-16 13q25 38 62.5 97.5t49.5 77.5q8 13 17.5 17t32.5 4q22 0 30.5 -4t16.5 -15q31 -47 113 -177l-17 -13l-145 128z" />
    <glyph glyph-name="udieresis" unicode="&#xfc;" horiz-adv-x="569" 
d="M209 -12q-66 0 -97.5 44t-31.5 119v214q-2 33 -26 50q-22 14 -50 16v20l186 12l6 -7v-319q0 -48 19 -74t50 -26q71 0 104 63v267q-2 34 -24 50q-17 12 -62 14v20l194 12l7 -7v-365q1 -32 26 -49q17 -11 49 -13v-20l-182 -12l-7 7v62h-3q-25 -26 -39.5 -38.5t-46.5 -26
t-72 -13.5zM386 577q-27 0 -46 19.5t-19 46.5q0 28 19 48t46 20t46.5 -19.5t19.5 -46.5q0 -28 -19.5 -48t-46.5 -20zM167 577q-26 0 -45.5 19.5t-19.5 46.5q0 28 19.5 48t45.5 20q27 0 46.5 -19.5t19.5 -46.5q0 -28 -19 -48t-47 -20z" />
    <glyph glyph-name="yacute" unicode="&#xfd;" horiz-adv-x="459" 
d="M64 -227q-28 0 -54.5 19t-26.5 57q0 25 18 45t46 20q23 0 41 -13t18 -42q0 -33 -2 -37q35 9 69.5 64.5t49.5 97.5q-27 65 -90.5 211.5t-81.5 190.5q-18 41 -73 49v21h244v-22q-54 -2 -54 -22q0 -2 7 -21q6 -16 25.5 -62t44 -105t37.5 -90h2q3 6 90 231q8 24 8 35
q0 14 -26.5 23.5t-46.5 12.5v20h177v-19q-54 -10 -74 -57q-20 -45 -101 -248q-12 -30 -26 -66t-22 -57t-11 -27q-54 -127 -93 -168t-95 -41zM191 528l-14 14q42 59 98 149q30 51 68 51q21 0 34.5 -13t13.5 -31q0 -21 -11 -34.5t-38 -31.5q-5 -3 -56 -37t-95 -67z" />
    <glyph glyph-name="thorn" unicode="&#xfe;" horiz-adv-x="556" 
d="M-3 -226v20q32 2 55 10q25 8 25 46v791q0 41 -26 57q-22 14 -67 17v20l201 11l7 -7v-331l4 -1q55 62 132 62q87 0 144.5 -67t57.5 -177q0 -101 -66.5 -169.5t-155.5 -68.5q-70 0 -112 31h-4v-161q0 -36 28 -47t71 -16v-20h-294zM288 12q52 0 83 56.5t31 155.5
q0 82 -29 139t-91 57q-55 0 -90 -43v-283q10 -32 33.5 -57t62.5 -25z" />
    <glyph glyph-name="ydieresis" unicode="&#xff;" horiz-adv-x="459" 
d="M64 -227q-28 0 -54.5 19t-26.5 57q0 25 18 45t46 20q23 0 41 -13t18 -42q0 -33 -2 -37q35 9 69.5 64.5t49.5 97.5q-27 65 -90.5 211.5t-81.5 190.5q-18 41 -73 49v21h244v-22q-54 -2 -54 -22q0 -2 7 -21q6 -16 25.5 -62t44 -105t37.5 -90h2q3 6 90 231q8 24 8 35
q0 14 -26.5 23.5t-46.5 12.5v20h177v-19q-54 -10 -74 -57q-20 -45 -101 -248q-12 -30 -26 -66t-22 -57t-11 -27q-54 -127 -93 -168t-95 -41zM347 577q-27 0 -46 19.5t-19 46.5q0 28 19 48t46 20t46.5 -19.5t19.5 -46.5q0 -28 -19.5 -48t-46.5 -20zM128 577q-26 0 -45.5 19.5
t-19.5 46.5q0 28 19.5 48t45.5 20q27 0 46.5 -19.5t19.5 -46.5q0 -28 -19 -48t-47 -20z" />
    <glyph glyph-name="dotlessi" unicode="&#x131;" horiz-adv-x="291" 
d="M24 0v20q26 1 44 8q26 9 26 44v291q-2 33 -26 50q-26 17 -59 19v19l193 12l7 -7v-378q0 -33 27 -46q22 -9 44 -12v-20h-256z" />
    <glyph glyph-name="Lslash" unicode="&#x141;" horiz-adv-x="625" 
d="M30 0v22q60 7 74 12q31 13 31 50v214l-83 -30l-10 26l93 34v264q0 36 -31 50q-32 14 -74 19v22h341v-22q-45 -5 -72 -14q-31 -10 -31 -50v-220l136 49l10 -27l-146 -53v-228q0 -61 19 -75t94 -14q113 0 137 25q22 23 50.5 71t39.5 79h24l-14 -204h-588z" />
    <glyph glyph-name="lslash" unicode="&#x142;" horiz-adv-x="312" 
d="M34 0v20q26 2 43 8q27 9 27 44v217l-71 -25l-10 26l81 29v319q-2 41 -27 58q-25 16 -70 19v20l205 11l7 -7v-377l69 26l10 -27l-79 -29v-254q0 -34 26 -46q25 -10 44 -12v-20h-255z" />
    <glyph glyph-name="OE" unicode="&#x152;" horiz-adv-x="1034" 
d="M359 -2q-62 0 -125.5 23.5t-105.5 66.5q-98 100 -98 246q0 154 89 251q44 48 110.5 74t133.5 26q44 0 99.5 -1t85.5 -1h419v-166h-26q-11 39 -45.5 83.5t-67.5 49.5q-32 4 -82 4h-97v-285h67q56 0 86 30q12 12 21.5 41t12.5 52h27v-281h-27q-2 24 -13 56t-21 43
q-29 29 -86 29h-67v-221q0 -58 20 -73t94 -15q44 0 63 0.5t44.5 6t36.5 16.5q24 25 48.5 69t36.5 78h25l-13 -200h-456q-59 0 -189 -2zM373 26q72 0 105 32q28 25 37 95.5t9 189.5q0 83 -1 121t-10.5 86t-29.5 69q-36 37 -110 37q-94 0 -143 -83t-49 -234q0 -90 18 -157.5
t62 -111.5t112 -44z" />
    <glyph glyph-name="oe" unicode="&#x153;" horiz-adv-x="808" 
d="M260 -14q-98 0 -166.5 66t-68.5 175q0 108 66.5 175t174.5 67q107 0 170 -71q61 71 156 71q101 0 148.5 -55.5t47.5 -140.5v-10h-293v-15q0 -97 35.5 -153.5t107.5 -56.5q52 0 81.5 20t58.5 70l19 -14q-28 -57 -79 -92t-117 -35q-108 0 -167 72q-65 -73 -174 -73z
M496 288l167 2q0 32 -2.5 55t-9.5 48t-22.5 38.5t-39.5 13.5q-41 0 -66.5 -44.5t-26.5 -112.5zM265 9q56 0 82 62.5t26 160.5q0 215 -107 215q-33 0 -56 -19t-34.5 -52t-16.5 -67.5t-5 -74.5q0 -99 26.5 -162t84.5 -63z" />
    <glyph glyph-name="Scaron" unicode="&#x160;" horiz-adv-x="558" 
d="M287 -14q-103 0 -179 51l-33 -46h-34l-6 242h24q35 -91 91.5 -153t135.5 -62q61 0 93.5 34t32.5 90q0 88 -103 126q-128 49 -136 52q-120 52 -120 185q0 82 59.5 137.5t155.5 55.5q88 0 158 -48l30 43h35l4 -232h-23q-36 101 -85 153t-123 52q-41 0 -71.5 -28.5
t-30.5 -77.5q0 -44 23.5 -72.5t73.5 -51.5q25 -11 70 -27.5t63 -24.5q68 -30 101.5 -71.5t33.5 -115.5q0 -92 -67.5 -151.5t-172.5 -59.5zM283 728q-23 0 -31.5 3.5t-15.5 15.5q-15 22 -113 177l17 13l145 -129l143 129l17 -13q-56 -86 -112 -175q-9 -14 -17.5 -17.5
t-32.5 -3.5z" />
    <glyph glyph-name="scaron" unicode="&#x161;" horiz-adv-x="405" 
d="M202 -14q-39 0 -75 13t-52 28l-14 -32h-32l-5 163h21q14 -50 57.5 -99t98.5 -49q86 0 86 82q0 36 -28 56.5t-88 38.5q-134 41 -134 147q0 58 44 96.5t118 38.5q65 0 112 -26l10 27h30l7 -146h-20q-13 50 -49 85.5t-84 35.5q-36 0 -54.5 -20t-18.5 -50q0 -37 23.5 -53.5
t89.5 -38.5t100.5 -56.5t34.5 -92.5q0 -69 -50.5 -108.5t-127.5 -39.5zM199 537q-23 0 -31.5 3.5t-15.5 15.5q-15 22 -113 177l17 13l145 -129l143 129l17 -13q-56 -86 -112 -175q-9 -14 -17.5 -17.5t-32.5 -3.5z" />
    <glyph glyph-name="Ydieresis" unicode="&#x178;" horiz-adv-x="652" 
d="M141 0v22q59 3 82 12q31 12 31 50v157q0 38 -29 90q-78 152 -133 245q-26 46 -62 68q-27 15 -64 17v22h353v-22q-100 -6 -100 -33q0 -9 49.5 -104t105.5 -193q159 260 159 285q0 38 -102 45v22h257v-22q-29 -3 -58 -20q-34 -20 -62 -59q-49 -68 -148 -246
q-33 -57 -33 -123v-124q0 -37 31 -50q35 -14 81 -17v-22h-358zM445 762q-27 0 -46 19.5t-19 46.5q0 28 19 48t46 20t46.5 -19.5t19.5 -46.5q0 -28 -19.5 -48t-46.5 -20zM226 762q-26 0 -45.5 19.5t-19.5 46.5q0 28 19.5 48t45.5 20q27 0 46.5 -19.5t19.5 -46.5
q0 -28 -19 -48t-47 -20z" />
    <glyph glyph-name="Zcaron" unicode="&#x17d;" horiz-adv-x="626" 
d="M0 0v17l449 637h-165q-64 0 -91 -8q-31 -9 -66.5 -52.5t-61.5 -102.5h-26l21 192h550v-17l-449 -637h184q124 0 151 28q63 64 101 156h25l-23 -213h-599zM316 728q-23 0 -31.5 3.5t-15.5 15.5q-15 22 -113 177l17 13l145 -129l143 129l17 -13q-56 -86 -112 -175
q-9 -14 -17.5 -17.5t-32.5 -3.5z" />
    <glyph glyph-name="zcaron" unicode="&#x17e;" horiz-adv-x="433" 
d="M15 0v18l260 411h-52q-87 0 -115 -13q-29 -12 -50 -99h-25v139h379v-13l-262 -415q29 -1 77 -1q47 0 89 3q33 3 48 39q17 42 29 92h24v-161h-402zM215 537q-23 0 -31.5 3.5t-15.5 15.5q-15 22 -113 177l17 13l145 -129l143 129l17 -13q-56 -86 -112 -175
q-9 -14 -17.5 -17.5t-32.5 -3.5z" />
    <glyph glyph-name="florin" unicode="&#x192;" horiz-adv-x="523" 
d="M-42 -193q-53 0 -83.5 22.5t-30.5 65.5q0 26 17 43.5t43 17.5q29 0 48 -17t19 -48t-31 -53q9 -12 24 -12q51 0 84.5 50.5t56.5 162.5q12 55 19.5 98.5t15 93.5t11.5 73h-106l6 33h105q14 82 38 136t66 96q56 55 148 55q53 0 90 -26t37 -67q0 -24 -16 -42t-44 -18
t-47 14.5t-19 42.5q0 22 26 62q-9 14 -33 14q-47 0 -75.5 -49.5t-46.5 -158.5l-10 -59h126l-7 -33h-124q-32 -190 -43 -237q-31 -139 -103 -202q-63 -58 -161 -58z" />
    <glyph glyph-name="circumflex" unicode="&#x2c6;" 
d="M105 531l-16 13q25 38 62.5 97.5t49.5 77.5q8 13 17.5 17t32.5 4q22 0 30.5 -4t16.5 -15q31 -47 113 -177l-17 -13l-145 128z" />
    <glyph glyph-name="caron" unicode="&#x2c7;" 
d="M249 537q-23 0 -31.5 3.5t-15.5 15.5q-15 22 -113 177l17 13l145 -129l143 129l17 -13q-56 -86 -112 -175q-9 -14 -17.5 -17.5t-32.5 -3.5z" />
    <glyph glyph-name="breve" unicode="&#x2d8;" 
d="M250 538q-46 0 -87 43t-67 139l22 7q50 -104 132 -104t132 104l22 -7q-26 -96 -67 -139t-87 -43z" />
    <glyph glyph-name="dotaccent" unicode="&#x2d9;" 
d="M250 583q-27 0 -46 20t-19 47t19 47t46 20q28 0 47 -19.5t19 -45.5q0 -28 -19.5 -48.5t-46.5 -20.5z" />
    <glyph glyph-name="ring" unicode="&#x2da;" 
d="M250 528q-55 0 -87.5 28t-32.5 74q0 45 34.5 73.5t85.5 28.5q52 0 86 -28t34 -74q0 -45 -33 -73.5t-87 -28.5zM250 554q28 0 43.5 21t15.5 55q0 33 -15.5 55t-43.5 22q-27 0 -43 -21t-16 -56q0 -33 15.5 -54.5t43.5 -21.5z" />
    <glyph glyph-name="ogonek" unicode="&#x2db;" 
d="M342 -230q-192 0 -192 87q0 41 30 75t93 68h37q-71 -75 -71 -133q0 -32 22.5 -46.5t80.5 -20.5v-30z" />
    <glyph glyph-name="tilde" unicode="&#x2dc;" 
d="M77 549l-24 9q17 49 50.5 90.5t79.5 41.5q42 0 90 -26t71 -26q27 0 44.5 15.5t32.5 51.5l25 -8q-13 -49 -48 -91t-85 -42q-41 0 -88.5 26.5t-72.5 26.5q-26 0 -40 -14.5t-35 -53.5z" />
    <glyph glyph-name="hungarumlaut" unicode="&#x2dd;" 
d="M249 534l-15 14q51 71 97 149q16 26 30 35.5t35 9.5q18 0 30 -12t12 -27q0 -19 -8 -30.5t-29 -27.5q-12 -10 -58.5 -42.5t-93.5 -68.5zM66 534l-15 14q40 57 97 149q16 26 30 35.5t35 9.5q17 0 29 -12t12 -27q0 -19 -8 -30.5t-29 -27.5q-11 -9 -57 -42t-94 -69z" />
    <glyph glyph-name="Delta" unicode="&#x394;" horiz-adv-x="570" 
d="M293 -227q-60 0 -88.5 24t-28.5 61q0 21 18 41t45 20q24 0 43.5 -14t19.5 -41q0 -13 -5 -36.5t-5 -27.5q8 -2 17 -2q43 0 59 49.5t16 163.5l1 350q0 37 -28 55h-148v-339q0 -29 18 -40q15 -11 55 -17v-20h-258v20q26 1 44 8q26 9 26 44v342h-99v41h99v25q0 126 70 199
q66 68 170 68q162 0 162 -107q0 -23 -16.5 -44t-45.5 -21q-25 0 -44.5 14t-19.5 40q0 17 8 38l7 21q-1 13 -16.5 24t-44.5 11q-49 0 -81.5 -51t-33.5 -155v-62h151l132 8l7 -7v-413q0 -137 -62 -203q-62 -67 -144 -67z" />
    <glyph glyph-name="Delta" unicode="&#x2206;" horiz-adv-x="570" 
d="M293 -227q-60 0 -88.5 24t-28.5 61q0 21 18 41t45 20q24 0 43.5 -14t19.5 -41q0 -13 -5 -36.5t-5 -27.5q8 -2 17 -2q43 0 59 49.5t16 163.5l1 350q0 37 -28 55h-148v-339q0 -29 18 -40q15 -11 55 -17v-20h-258v20q26 1 44 8q26 9 26 44v342h-99v41h99v25q0 126 70 199
q66 68 170 68q162 0 162 -107q0 -23 -16.5 -44t-45.5 -21q-25 0 -44.5 14t-19.5 40q0 17 8 38l7 21q-1 13 -16.5 24t-44.5 11q-49 0 -81.5 -51t-33.5 -155v-62h151l132 8l7 -7v-413q0 -137 -62 -203q-62 -67 -144 -67z" />
    <glyph glyph-name="Omega" unicode="&#x3a9;" horiz-adv-x="562" 
d="M46 234v52h470v-52h-470z" />
    <glyph glyph-name="Omega" unicode="&#x2126;" horiz-adv-x="562" 
d="M46 234v52h470v-52h-470z" />
    <glyph glyph-name="pi" unicode="&#x3c0;" horiz-adv-x="950" 
d="M476 -181q-181 0 -309 126.5t-128 305.5q0 116 58 215t159 157t220 58q180 0 307.5 -126.5t127.5 -303.5q0 -117 -58 -216.5t-158.5 -157.5t-218.5 -58zM476 -146q163 0 277 116t114 281q0 163 -114 278.5t-277 115.5q-164 0 -278.5 -115.5t-114.5 -278.5
q0 -165 114.5 -281t278.5 -116zM287 25v21q34 2 60 10q23 8 23 30v328q0 25 -23 31q-40 11 -63 12v21h265q72 0 115.5 -30.5t43.5 -82.5q0 -68 -53.5 -107t-135.5 -39h-46v-133q0 -23 21 -30q23 -8 73 -10v-21h-280zM473 245h23q97 0 97 103q0 46 -19.5 76t-64.5 30h-36
v-209z" />
    <glyph glyph-name="endash" unicode="&#x2013;" horiz-adv-x="493" 
d="M43 232v69h406v-69h-406z" />
    <glyph glyph-name="emdash" unicode="&#x2014;" horiz-adv-x="915" 
d="M71 218v69h773v-69h-773z" />
    <glyph glyph-name="quoteleft" unicode="&#x2018;" horiz-adv-x="198" 
d="M109 477q-87 0 -87 109q0 103 148 169l13 -24q-104 -49 -110 -121h29q39 0 56.5 -20.5t17.5 -47.5q0 -23 -18 -44t-49 -21z" />
    <glyph glyph-name="quoteright" unicode="&#x2019;" horiz-adv-x="198" 
d="M40 477l-13 23q103 50 110 122h-30q-38 0 -55.5 21t-17.5 47q0 23 18 44t48 21q87 0 87 -109q0 -60 -44.5 -102t-102.5 -67z" />
    <glyph glyph-name="quotesinglbase" unicode="&#x201a;" horiz-adv-x="214" 
d="M34 -144l-12 24q103 50 110 122h-30q-39 0 -56.5 20.5t-17.5 47.5q0 23 18.5 44t48.5 21q87 0 87 -109q0 -104 -148 -170z" />
    <glyph glyph-name="quotedblleft" unicode="&#x201c;" horiz-adv-x="382" 
d="M292 477q-86 0 -86 109q0 102 149 169l11 -24q-102 -48 -110 -123h30q38 0 55 -20t17 -46q0 -23 -18 -44t-48 -21zM108 477q-86 0 -86 109q0 102 149 169l11 -24q-102 -48 -110 -123h30q39 0 55.5 -19.5t16.5 -46.5q0 -23 -18 -44t-48 -21z" />
    <glyph glyph-name="quotedblright" unicode="&#x201d;" horiz-adv-x="382" 
d="M217 477l-11 23q103 50 109 124h-29q-39 0 -55.5 19.5t-16.5 46.5q0 23 18 44t48 21q85 0 85 -109q0 -103 -148 -169zM33 477l-11 23q103 50 110 124h-30q-39 0 -55.5 19.5t-16.5 46.5q0 23 18 44t48 21q86 0 86 -109q0 -102 -149 -169z" />
    <glyph glyph-name="quotedblbase" unicode="&#x201e;" horiz-adv-x="398" 
d="M217 -145l-11 23q103 50 109 124h-29q-39 0 -55.5 19.5t-16.5 46.5q0 23 18 44t48 21q85 0 85 -109q0 -103 -148 -169zM33 -145l-11 23q103 50 110 124h-30q-39 0 -55.5 19.5t-16.5 46.5q0 23 18 44t48 21q86 0 86 -109q0 -102 -149 -169z" />
    <glyph glyph-name="dagger" unicode="&#x2020;" horiz-adv-x="412" 
d="M196 100q-2 50 -23 374q-3 29 -9 32q-2 1 -6 1q-10 0 -34.5 -25t-42.5 -25q-21 0 -35.5 13.5t-14.5 35.5q0 14 9.5 24t23.5 10q12 0 22 -9t14 -24q4 1 24 11t31 10q29 0 40 -11q-2 25 -15 73t-13 63q0 18 10.5 31.5t28.5 13.5t28.5 -13.5t10.5 -31.5q0 -15 -13.5 -63.5
t-15.5 -72.5q14 11 41 11q11 0 31.5 -10t23.5 -11q8 33 37 33q14 0 23.5 -10t9.5 -24q0 -22 -14.5 -35.5t-36.5 -13.5q-18 0 -42.5 25t-34.5 25q-9 0 -11 -6t-4 -27q-2 -33 -10.5 -170.5t-11.5 -203.5h-21z" />
    <glyph glyph-name="daggerdbl" unicode="&#x2021;" horiz-adv-x="433" 
d="M207 367q-6 59 -20 154q-5 32 -13 36q-2 1 -6 1q-15 0 -36 -13.5t-37 -13.5q-42 0 -42 38q0 14 9.5 23.5t23.5 9.5q29 0 37 -33q1 0 15.5 5t26.5 5q29 0 41 -11q-2 9 -15 38.5t-13 47.5t10 31t29 13q18 0 28 -13t10 -31t-12.5 -48t-14.5 -38q12 11 40 11q14 0 28 -5
t15 -5q8 33 36 33q14 0 23.5 -9.5t9.5 -23.5q0 -38 -42 -38q-16 0 -36.5 13.5t-36.5 13.5q-14 0 -19 -37q-12 -82 -18 -154h-21zM217 4q-18 0 -28 13t-10 31t12.5 48t14.5 38q-12 -11 -41 -11q-13 0 -26.5 5.5t-15.5 5.5q-8 -33 -37 -33q-14 0 -23.5 9.5t-9.5 22.5
q0 39 42 39q17 0 37 -13.5t36 -13.5q10 0 13 8t6 29q8 39 20 154h21q2 -28 10 -89.5t8 -64.5q6 -32 12 -35q3 -2 7 -2q15 0 36 13.5t38 13.5q41 0 41 -39q0 -13 -9 -22.5t-23 -9.5q-29 0 -37 33q-2 0 -16.5 -5.5t-26.5 -5.5q-28 0 -40 11q2 -9 14.5 -38.5t12.5 -47.5
t-10 -31t-28 -13z" />
    <glyph glyph-name="bullet" unicode="&#x2022;" horiz-adv-x="405" 
d="M206 191q-56 0 -96 39.5t-40 94.5t40 95.5t96 40.5t96 -40.5t40 -95.5t-40 -94.5t-96 -39.5z" />
    <glyph glyph-name="ellipsis" unicode="&#x2026;" horiz-adv-x="815" 
d="M680 -10q-32 0 -54 21.5t-22 52.5t22 53t54 22q31 0 53 -22t22 -53t-22 -52.5t-53 -21.5zM408 -10q-31 0 -53.5 21.5t-22.5 52.5t22.5 53t53.5 22t53.5 -22t22.5 -53t-22.5 -52.5t-53.5 -21.5zM136 -10q-31 0 -53.5 21.5t-22.5 52.5t22.5 53t53.5 22t53.5 -22t22.5 -53
t-22.5 -52.5t-53.5 -21.5z" />
    <glyph glyph-name="perthousand" unicode="&#x2030;" horiz-adv-x="1270" 
d="M222 302q-71 0 -117.5 41.5t-46.5 114.5q0 68 49.5 115t114.5 47q72 0 120 -41.5t48 -119.5q0 -65 -50 -111t-118 -46zM240 -99l-31 16l427 773l33 -16zM1044 -14q-71 0 -117.5 41.5t-46.5 114.5q0 67 49.5 114.5t114.5 47.5q72 0 119.5 -41.5t47.5 -119.5
q0 -65 -49.5 -111t-117.5 -46zM654 -14q-71 0 -117 41.5t-46 114.5q0 68 49.5 115t113.5 47q72 0 120 -41.5t48 -119.5q0 -65 -50 -111t-118 -46zM225 326q33 0 52.5 34.5t19.5 96.5q0 139 -74 139q-73 0 -73 -134q0 -136 75 -136zM1047 10q33 0 52.5 35t19.5 96
q0 139 -74 139q-37 0 -55.5 -36.5t-18.5 -97.5q0 -136 76 -136zM657 10q33 0 53 35t20 96q0 139 -75 139q-73 0 -73 -134q0 -136 75 -136z" />
    <glyph glyph-name="guilsinglleft" unicode="&#x2039;" horiz-adv-x="342" 
d="M275 15q-126 101 -205 163q-19 15 -22 24q-2 7 -2 22q0 18 4 25.5t17 18.5q133 100 208 164l16 -13l-144 -197l144 -194z" />
    <glyph glyph-name="guilsinglright" unicode="&#x203a;" horiz-adv-x="342" 
d="M68 15l-16 13l143 195l-143 196l16 13q84 -71 205 -164q9 -7 11.5 -9t6.5 -7.5t5 -12t1 -16.5q0 -19 -4 -26t-19 -19q-71 -54 -206 -163z" />
    <glyph glyph-name="fraction" unicode="&#x2044;" horiz-adv-x="335" 
d="M-83 -213l-46 22l503 943l47 -22z" />
    <glyph glyph-name="fraction" unicode="&#x2215;" horiz-adv-x="335" 
d="M-83 -213l-46 22l503 943l47 -22z" />
    <glyph glyph-name="Euro" unicode="&#x20ac;" horiz-adv-x="602" 
d="M344 -14q-108 0 -172.5 63t-78.5 179h-76v27h73q-1 13 -1 40q0 12 2 32h-74v27h76q16 115 88 190.5t189 75.5q81 0 132 -36t51 -92q0 -41 -17.5 -58.5t-42.5 -17.5q-27 0 -43 14.5t-16 36.5q0 17 12 38t12 36q-4 22 -29 38t-63 16q-63 0 -102 -64t-47 -177h216v-27h-217
q-1 -9 -1 -28q0 -30 1 -44h177v-27h-175q23 -196 153 -196q57 0 94 30.5t66 92.5l26 -12q-70 -157 -213 -157z" />
    <glyph glyph-name="trademark" unicode="&#x2122;" horiz-adv-x="669" 
d="M293 433v13q31 5 37 9q12 9 12 49v124q0 21 -11 30q-18 11 -35 11v14h107l71 -173l55 140q6 13 8 33h110v-14q-10 0 -31 -6q-10 -4 -10 -17v-176q0 -13 10 -17q5 -3 32 -7v-13h-139v13q1 0 10.5 1t17 2.5t9.5 2.5q10 6 10 18v174h-6l-88 -208h-12q-9 27 -19 52l-61 151
h-6v-132q0 -39 12 -49q8 -7 39 -12v-13h-122zM81 433v13q32 5 33 5q12 5 12 16v197h-15q-20 0 -29 -1q-11 -1 -22.5 -20t-15.5 -34h-12v74h237v-74h-12q-6 17 -16 35t-21 19q-9 1 -29 1h-14v-195q0 -12 11 -17q25 -5 32 -6v-13h-139z" />
    <glyph glyph-name="partialdiff" unicode="&#x2202;" horiz-adv-x="617" 
d="M387 -2q-31 0 -53 21.5t-22 53.5q0 14 9 43t9 51v11l-7 5q-7 -1 -20 -1q-30 0 -56 18l-13 -1q-15 -22 -21 -61q-14 -83 -78 -83q-31 0 -54 22.5t-23 54.5t24 53.5t59 21.5q49 0 74 13l3 14q-10 22 -10 43q0 13 3 25l-5 13q-9 3 -27 3q-15 0 -35 -3.5t-29 -3.5
q-33 0 -55 22.5t-22 53.5t22 54t54 23q45 0 67 -42q4 -7 9 -24t11.5 -31.5t17.5 -25.5l15 1q28 30 69 30l11 7q0 28 -17 61.5t-17 52.5q0 32 22 52.5t54 20.5t53 -22.5t21 -53.5q0 -22 -10 -37.5t-22.5 -23t-29 -22.5t-26.5 -33l4 -12q38 -20 48 -58l12 -6q23 8 54.5 39
t63.5 31q30 0 51.5 -22.5t21.5 -54.5q0 -31 -21.5 -52.5t-53.5 -21.5q-24 0 -56.5 23t-59.5 27l-9 -8q-6 -35 -39 -60l-1 -10q15 -20 53 -39q55 -26 55 -76q0 -30 -23 -53t-55 -23zM303 208q29 0 48 20t19 50q0 29 -19 48.5t-48 19.5q-28 0 -47.5 -19.5t-19.5 -48.5
t19.5 -49.5t47.5 -20.5z" />
    <glyph glyph-name="product" unicode="&#x220f;" horiz-adv-x="586" 
d="M160 339v22q63 4 70 6q24 6 24 32v284q-13 -3 -36 -3q-33 0 -90 41l8 15q43 -16 84 -16q68 0 126 29h14q-11 -53 -11 -102v-245q0 -24 23 -32q11 -5 68 -9v-22h-280zM47 238v41h492v-41h-492zM122 -227v31q128 80 173 118q87 74 87 163q0 37 -20.5 55t-52.5 18
q-50 0 -83.5 -32.5t-33.5 -72.5q0 -21 10 -32.5t36 -11.5q38 0 72 57l16 -13q-53 -88 -128 -88q-37 0 -58 19t-21 52q0 52 56.5 99t142.5 47q72 0 117.5 -32t45.5 -83q0 -65 -46 -105t-165 -91l-40 -26h176q24 0 41 17t41 53l17 -8l-58 -134h-325z" />
    <glyph glyph-name="summation" unicode="&#x2211;" horiz-adv-x="586" 
d="M160 339v22q63 4 70 6q24 6 24 32v284q-13 -3 -36 -3q-33 0 -90 41l8 15q43 -16 84 -16q68 0 126 29h14q-11 -53 -11 -102v-245q0 -24 23 -32q12 -5 68 -9v-22h-280zM47 238v41h492v-41h-492zM231 -227v22q40 3 50 6q21 6 21 30v68h-212v37l250 248h52v-247h16h14h10.5
t9.5 0.5t7 1.5t7 3l6 4q20 15 20 49h19v-157h-18q-2 38 -22 54q-11 7 -69 7v-64q0 -24 20 -31q17 -7 50 -9v-22h-231zM127 -63h175v170z" />
    <glyph glyph-name="minus" unicode="&#x2212;" horiz-adv-x="562" 
d="M46 234v52h470v-52h-470z" />
    <glyph glyph-name="radical" unicode="&#x221a;" horiz-adv-x="586" 
d="M250 332q-61 0 -105 24t-44 69q0 27 19 45.5t46 18.5q21 0 33.5 -10.5t12.5 -29.5q0 -20 -22 -30t-22 -20q0 -18 20.5 -30t59.5 -12q49 0 89 37t40 87q0 62 -54 62q-7 0 -14.5 -2t-13 -4.5t-13.5 -8.5t-11.5 -8.5t-12 -10t-10.5 -9.5l-19 27q6 3 23 12.5t22.5 12.5
t20 11.5t19.5 12t16 11.5t15.5 13.5t11 14t9.5 16t5 16.5t2 19q0 56 -60 56q-34 0 -65.5 -20.5t-31.5 -55.5q0 -32 31 -32q13 0 21.5 4t17.5 14t10 10l13 -14q-16 -20 -42.5 -36.5t-51.5 -16.5q-76 0 -76 56q0 46 56 80.5t136 34.5q72 0 104.5 -26t32.5 -62q0 -28 -28 -53.5
t-94 -39.5q54 0 92 -20t38 -67q0 -65 -64 -105.5t-162 -40.5zM47 238v41h492v-41h-492zM231 -227v22q40 3 50 6q21 6 21 30v68h-212v37l250 248h52v-247h16h14h10.5t9.5 0.5t7 1.5t7 3l6 4q20 15 20 49h19v-157h-18q-2 38 -22 54q-11 7 -69 7v-64q0 -24 20 -31q17 -7 50 -9
v-22h-231zM127 -63h175v170z" />
    <glyph glyph-name="infinity" unicode="&#x221e;" horiz-adv-x="874" 
d="M24 0v20q26 1 44 8q26 9 26 44v342h-99v41h99v19q0 123 70 199q63 67 158 67q104 0 131 -66q67 73 173 73q159 0 159 -107q0 -23 -16.5 -44.5t-45.5 -21.5q-25 0 -44.5 14t-19.5 40q0 17 7.5 37.5t7.5 22.5q0 12 -15 23.5t-43 11.5q-48 0 -81 -51t-35 -155v-62h150l133 8
l7 -7v-378q0 -34 27 -46q24 -10 44 -12v-20h-247v20q23 1 40 9q21 11 21 43v294q-2 32 -18 50h-156v-339q0 -29 18 -40q16 -12 49 -17v-20h-252v20q26 2 43 8q27 9 27 44v343h-177v-338q0 -32 22 -44q21 -11 43 -13v-20h-250zM208 455h179v25q0 56 12 98q-24 1 -41 13
t-17 34q0 17 7 36t7 21q-3 34 -44 34q-44 0 -72.5 -51t-30.5 -154v-56z" />
    <glyph glyph-name="integral" unicode="&#x222b;" horiz-adv-x="617" 
d="M387 -2q-31 0 -53 21.5t-22 53.5q0 14 9 43t9 51v11l-7 5q-7 -1 -20 -1q-30 0 -56 18l-13 -1q-15 -22 -21 -61q-14 -83 -78 -83q-31 0 -54 22.5t-23 54.5t24 53.5t59 21.5q49 0 74 13l3 14q-10 22 -10 43q0 13 3 25l-5 13q-9 3 -27 3q-15 0 -35 -3.5t-29 -3.5
q-33 0 -55 22.5t-22 53.5t22 54t54 23q45 0 67 -42q4 -7 9 -24t11.5 -31.5t17.5 -25.5l15 1q28 30 69 30l11 7q0 28 -17 61.5t-17 52.5q0 32 22 52.5t54 20.5t53 -22.5t21 -53.5q0 -22 -10 -37.5t-22.5 -23t-29 -22.5t-26.5 -33l4 -12q38 -20 48 -58l12 -6q23 8 54.5 39
t63.5 31q30 0 51.5 -22.5t21.5 -54.5q0 -31 -21.5 -52.5t-53.5 -21.5q-24 0 -56.5 23t-59.5 27l-9 -8q-6 -35 -39 -60l-1 -10q15 -20 53 -39q55 -26 55 -76q0 -30 -23 -53t-55 -23zM303 208q29 0 48 20t19 50q0 29 -19 48.5t-48 19.5q-28 0 -47.5 -19.5t-19.5 -48.5
t19.5 -49.5t47.5 -20.5z" />
    <glyph glyph-name="approxequal" unicode="&#x2248;" horiz-adv-x="562" 
d="M94 34l-38 38l189 189l-186 186l37 37l186 -186l186 187l38 -38l-186 -186l186 -186l-37 -37l-186 186z" />
    <glyph glyph-name="notequal" unicode="&#x2260;" horiz-adv-x="615" 
d="M24 0v20q26 1 44 8q26 9 26 44v342h-99v41h99v19q0 123 70 199q63 67 158 67q101 0 130 -63q55 70 156 70q58 0 87.5 -27.5t29.5 -65.5q0 -20 -16.5 -39.5t-43.5 -19.5q-23 0 -42 13t-19 39q0 10 4 29t5 29q-3 18 -26 18q-42 0 -62.5 -48t-22.5 -156v-64h122v-41h-121
v-337q0 -35 27 -45q25 -10 59 -12v-20h-260v20q22 1 38 10q21 10 21 42v343h-179v-338q0 -32 22 -44q21 -11 43 -13v-20h-250zM208 455h181v24q0 50 13 99h-3q-25 1 -42 13t-17 34q0 12 2.5 22t6.5 19.5t6 15.5q-3 34 -44 34q-44 0 -72.5 -51t-30.5 -154v-56z" />
    <glyph glyph-name="lessequal" unicode="&#x2264;" horiz-adv-x="722" 
d="M30 0v22q50 3 74 12q31 12 31 50v511q0 39 -31 50q-28 11 -74 16v22h357q101 0 165.5 -39t64.5 -117q0 -75 -48.5 -113.5t-137.5 -63.5v-8q122 -22 160 -126q12 -32 44 -128q17 -50 61 -59q25 -5 60 -7v-22h-245q-23 113 -57 198q-27 67 -60 98.5t-84 31.5h-42v-243
q0 -37 30 -49q21 -8 74 -14v-22h-342zM268 358h42q70 0 114.5 40.5t44.5 115.5q0 69 -37.5 104.5t-100.5 35.5h-63v-296z" />
    <glyph glyph-name="greaterequal" unicode="&#x2265;" horiz-adv-x="414" 
d="M24 0v20q25 1 43 8q26 8 26 44v291q-2 35 -26 53q-22 14 -50 16v19l184 12l7 -7v-68h2q61 79 133 79q30 0 51.5 -21t21.5 -53q0 -31 -17.5 -52t-45.5 -21q-29 0 -46 14t-17 41q0 7 4.5 20t4.5 19q-31 0 -55 -18.5t-36 -38.5v-280q0 -34 27 -45q23 -9 66 -12v-20h-277z
" />
    <glyph glyph-name="lozenge" unicode="&#x25ca;" horiz-adv-x="366" 
d="M217 278q-87 0 -131 49t-44 125q0 69 45.5 118.5t122.5 49.5q78 0 113.5 -40.5t35.5 -102.5v-16h-230q2 -143 116 -143q60 0 99 61l20 -14q-22 -39 -60 -63t-87 -24zM130 485l141 1q0 108 -62 108q-33 0 -54.5 -29t-24.5 -80z" />
    <glyph glyph-name="apple" unicode="&#xf8ff;" horiz-adv-x="617" 
d="M387 -2q-31 0 -53 21.5t-22 53.5q0 14 9 43t9 51v11l-7 5q-7 -1 -20 -1q-30 0 -56 18l-13 -1q-15 -22 -21 -61q-14 -83 -78 -83q-31 0 -54 22.5t-23 54.5t24 53.5t59 21.5q49 0 74 13l3 14q-10 22 -10 43q0 13 3 25l-5 13q-9 3 -27 3q-15 0 -35 -3.5t-29 -3.5
q-33 0 -55 22.5t-22 53.5t22 54t54 23q45 0 67 -42q4 -7 9 -24t11.5 -31.5t17.5 -25.5l15 1q28 30 69 30l11 7q0 28 -17 61.5t-17 52.5q0 32 22 52.5t54 20.5t53 -22.5t21 -53.5q0 -22 -10 -37.5t-22.5 -23t-29 -22.5t-26.5 -33l4 -12q38 -20 48 -58l12 -6q23 8 54.5 39
t63.5 31q30 0 51.5 -22.5t21.5 -54.5q0 -31 -21.5 -52.5t-53.5 -21.5q-24 0 -56.5 23t-59.5 27l-9 -8q-6 -35 -39 -60l-1 -10q15 -20 53 -39q55 -26 55 -76q0 -30 -23 -53t-55 -23zM303 208q29 0 48 20t19 50q0 29 -19 48.5t-48 19.5q-28 0 -47.5 -19.5t-19.5 -48.5
t19.5 -49.5t47.5 -20.5z" />
    <glyph glyph-name="NUL" horiz-adv-x="0" 
 />
    <glyph glyph-name="CR" horiz-adv-x="0" 
 />
    <glyph glyph-name="R.alt" horiz-adv-x="722" 
d="M30 0v22q50 3 74 12q31 12 31 50v511q0 39 -31 50q-28 11 -74 16v22h357q101 0 165.5 -39t64.5 -117q0 -75 -48.5 -113.5t-137.5 -63.5v-8q122 -22 160 -126q12 -32 44 -128q17 -50 61 -59q25 -5 60 -7v-22h-245q-23 113 -57 198q-27 67 -60 98.5t-84 31.5h-42v-243
q0 -37 30 -49q21 -8 74 -14v-22h-342zM268 358h42q70 0 114.5 40.5t44.5 115.5q0 69 -37.5 104.5t-100.5 35.5h-63v-296z" />
    <glyph glyph-name="r.alt" horiz-adv-x="414" 
d="M24 0v20q25 1 43 8q26 8 26 44v291q-2 35 -26 53q-22 14 -50 16v19l184 12l7 -7v-68h2q61 79 133 79q30 0 51.5 -21t21.5 -53q0 -31 -17.5 -52t-45.5 -21q-29 0 -46 14t-17 41q0 7 4.5 20t4.5 19q-31 0 -55 -18.5t-36 -38.5v-280q0 -34 27 -45q23 -9 66 -12v-20h-277z
" />
    <glyph glyph-name="ampersand.alt" horiz-adv-x="859" 
d="M816 576q0 -68 -43.5 -103.5t-118.5 -37.5q93 -38 93 -147q0 -39 -13.5 -79.5t-44.5 -81.5t-75.5 -72.5t-112.5 -51.5t-149 -20q-125 0 -210.5 65t-85.5 162q0 55 28 87.5t78 59.5q-69 47 -69 124q0 50 43 92.5t105 42.5q66 0 110.5 -34t58.5 -89l-16 -8q-42 65 -118 65
q-53 0 -81.5 -31.5t-28.5 -81.5q0 -49 24 -68q67 25 87 25q32 0 51.5 -14t19.5 -35q0 -18 -13 -30.5t-37 -12.5q-11 0 -20.5 1t-20 4.5t-17 5.5t-17 7.5t-14 7.5t-15 9t-12.5 8q-12 -5 -25.5 -26.5t-13.5 -51.5q0 -77 82 -132t214 -56q131 -1 201.5 62.5t70.5 156.5
q0 68 -41.5 104t-103.5 36q-46 0 -76 -24.5t-30 -65.5t21.5 -61.5t55.5 -20.5q22 0 46 15q-1 0 -8 2t-9 3t-8.5 3t-9 3.5t-8 4t-7.5 5t-5.5 6t-5.5 7.5t-3 9t-1 10q0 28 16.5 40.5t35.5 12.5q28 0 48 -15.5t20 -47.5q0 -33 -24 -57.5t-65 -24.5q-51 0 -89 32.5t-38 84.5
q0 77 51 114t118 37q13 0 54 -2.5t52 -2.5q40 0 62.5 25t22.5 57q0 34 -19 52t-51 18t-32 -21q1 -1 11 -5.5t16 -8.5t11.5 -12.5t5.5 -18.5q0 -48 -49 -48q-26 0 -44 15.5t-18 47.5q0 29 26.5 50t69.5 21q48 0 77.5 -28t29.5 -73z" />
    </font>
</defs>
</svg>
