<svg viewBox="0 0 208 78"><path d="M187.559 68.234c.105-.664.308-1.163.61-1.496a4.94 4.94 0 011.077-.907c.113-.204.216-.405.308-.603l.352.264c.47-.22.748-.374.837-.462 2.112-2.179 3.712-4.44 4.802-6.782v-.496c0-1.22.206-2.128.618-2.722.413-.594.95-.891 1.61-.891.725 0 1.121.33 1.187.99 0 .165-.04.412-.123.742-.083.33-.124.677-.124 1.04 0 .627.099 1.287.297 1.98s.511 1.634.94 2.822c.529 1.452.933 2.706 1.213 3.762s.421 2.129.421 3.218c0 .561-.066 1.238-.198 2.03 2.244-.561 4.192-2.426 5.842-5.594l.594.445c-.66 1.881-1.576 3.4-2.748 4.555s-2.55 1.848-4.133 2.079c-.528 1.32-1.387 2.318-2.575 2.995-1.188.677-2.557 1.015-4.109 1.015-2.31 0-4.018-.668-5.123-2.005a7.056 7.056 0 01-1.55-3.41 15.942 15.942 0 01-3.599 2.89c-1.469.858-2.912 1.287-4.332 1.287-1.22 0-2.21-.322-2.97-.965-.759-.644-1.138-1.51-1.138-2.6 0-.626.123-1.311.37-2.054.248-.742.62-1.642 1.115-2.698.429-.924.759-1.708.99-2.351s.346-1.213.346-1.708c0-1.254-.825-2.31-2.475-3.168a55.8 55.8 0 01-2.302 5 81.216 81.216 0 01-2.351 4.257l-.017-.033a17.106 17.106 0 01-4.216 4.489c-2.459 1.815-5.008 2.722-7.649 2.722-2.079 0-3.696-.56-4.851-1.683-.984-.956-1.55-2.14-1.695-3.55a19.042 19.042 0 01-2.265 2.436c-2.146 1.931-4.373 2.896-6.684 2.896-1.518 0-2.706-.437-3.564-1.312-.858-.874-1.287-2.17-1.287-3.886 0-.247.009-.507.027-.78a19.328 19.328 0 01-2.75 3.082c-2.145 1.931-4.373 2.896-6.683 2.896-1.518 0-2.706-.437-3.564-1.312-.858-.874-1.288-2.17-1.288-3.886 0-.21.007-.428.02-.657a17.004 17.004 0 01-3.163 3.034c-2.459 1.815-5.008 2.722-7.649 2.722-2.079 0-3.696-.56-4.851-1.683-.933-.906-1.49-2.018-1.669-3.333a17.308 17.308 0 01-1.648 1.823c-1.75 1.667-3.564 2.5-5.445 2.5-1.453 0-2.509-.478-3.169-1.435s-.99-2.228-.99-3.812c0-.263.008-.534.023-.813-.278.363-.574.7-.89 1.01-1.17 1.156-2.549 1.849-4.133 2.08-.528 1.32-1.386 2.318-2.574 2.995s-2.558 1.015-4.109 1.015c-2.31 0-4.018-.668-5.124-2.005-.99-1.198-1.537-2.6-1.64-4.208-.701.412-1.417.619-2.147.619-1.023 0-1.922-.372-2.698-1.114s-1.394-1.741-1.856-2.995c-1.486 2.574-3.02 4.728-4.604 6.46-1.585 1.733-3.103 2.6-4.555 2.6-1.023 0-1.749-.438-2.178-1.313-.43-.874-.677-2.087-.743-3.638l.05-1.188c0-.66.033-1.386.099-2.179-1.287 2.344-2.574 4.25-3.861 5.718-1.288 1.469-2.608 2.203-3.96 2.203-1.09 0-2.006-.503-2.748-1.51-.743-1.006-1.114-2.22-1.114-3.638 0-.09.001-.181.004-.274a17.015 17.015 0 01-3.445 3.393c-2.459 1.815-5.008 2.722-7.648 2.722-2.08 0-3.697-.56-4.852-1.683s-1.733-2.558-1.733-4.307c0-1.914.644-3.985 1.931-6.213 1.287-2.227 2.937-4.092 4.95-5.594 2.014-1.501 3.994-2.252 5.941-2.252 1.023 0 1.881.256 2.575.767.693.512 1.04 1.361 1.04 2.55 0 1.584-.611 3.077-1.833 4.48-1.22 1.402-2.797 2.55-4.727 3.44-1.931.891-3.903 1.453-5.916 1.684a5.85 5.85 0 00-.1 1.138c0 .858.24 1.716.719 2.574.478.859 1.51 1.288 3.094 1.288 2.013 0 4.067-.817 6.163-2.45a18.48 18.48 0 004.391-4.918c.072-.276.152-.56.238-.85.528-1.782 1.147-3.334 1.856-4.654s1.329-1.98 1.857-1.98c.297 0 .718.149 1.262.446s.883.627 1.015.99c-.693.99-1.403 2.442-2.129 4.356-.726 1.914-1.089 3.565-1.089 4.95 0 .66.1 1.313.297 1.956s.61.965 1.238.965c1.683 0 4.043-2.953 7.079-8.86.264-1.387.495-2.394.693-3.02.198-.628.396-1.032.594-1.214.198-.181.479-.272.842-.272.627 0 1.114.124 1.46.371.347.248.52.603.52 1.065 0 .099-.083.396-.248.89-.33 1.057-.594 2.402-.792 4.036a40.897 40.897 0 00-.297 4.925c0 .891.058 1.535.174 1.93.115.397.354.595.717.595.858 0 1.989-.965 3.391-2.896 1.403-1.93 2.698-4.117 3.887-6.56 0-2.343.239-3.976.717-4.9.479-.925 1.147-1.387 2.005-1.387.726 0 1.271.24 1.634.718.363.479.545.95.545 1.411 0 .33-.091.66-.273.99-.181.33-.305.561-.371.693-.66 1.32-.99 2.79-.99 4.406 0 2.443.726 3.664 2.178 3.664.608 0 1.208-.264 1.8-.79.099-.722.307-1.259.626-1.611.36-.4.756-.723 1.186-.971.066-.127.133-.257.2-.39l.222.175c.548-.252.87-.426.966-.522 2.112-2.179 3.713-4.44 4.802-6.782v-.496c0-1.22.206-2.128.619-2.722.412-.594.949-.891 1.609-.891.726 0 1.122.33 1.188.99 0 .165-.041.412-.124.742-.082.33-.124.677-.124 1.04 0 .627.1 1.287.297 1.98.198.693.512 1.634.941 2.822.528 1.452.932 2.706 1.213 3.762.28 1.056.42 2.129.42 3.218 0 .561-.065 1.238-.197 2.03 1.81-.453 3.426-1.753 4.85-3.901.44-2.535 1.373-5.558 2.798-9.07 2.063-5.082 4.381-9.636 6.956-13.663 2.574-4.026 4.472-6.04 5.693-6.04.56 0 1.04.438 1.435 1.312.396.875.61 1.758.644 2.649 0 1.518-.61 3.738-1.832 6.658s-2.863 5.883-4.926 8.886c-2.062 3.004-4.265 5.43-6.608 7.278-.363 2.046-.545 3.597-.545 4.653 0 1.155.19 2.013.57 2.574.379.561.899.842 1.559.842 1.155 0 2.384-.767 3.688-2.302a21.363 21.363 0 001.569-2.105c.232-1.517.84-3.126 1.822-4.826 1.287-2.227 2.937-4.092 4.95-5.594 2.014-1.501 3.994-2.252 5.941-2.252 1.023 0 1.881.256 2.574.767s1.04 1.361 1.04 2.55c0 1.584-.61 3.077-1.832 4.48s-2.797 2.55-4.728 3.44c-1.93.891-3.902 1.453-5.915 1.684a5.85 5.85 0 00-.1 1.138c0 .858.24 1.716.718 2.574.479.859 1.51 1.288 3.095 1.288 2.013 0 4.067-.817 6.163-2.45a18.405 18.405 0 004.028-4.35c.075-.353.16-.718.254-1.096.495-1.997 1.155-4.118 1.98-6.362-.858-.165-1.435-.313-1.732-.445v-1.535c.792.099 1.584.181 2.376.247 1.485-3.729 3.077-6.93 4.777-9.603 1.7-2.674 3.078-4.01 4.134-4.01.363 0 .685.132.965.396.28.264.42.61.42 1.04 0 .527-.23 1.237-.692 2.128-.462.891-1.221 2.244-2.277 4.06-1.453 2.442-2.591 4.488-3.416 6.138 3.212 0 5.869-.083 7.97-.248v-.148c.24.03.481.059.722.086l.367-.037v.077c.43.045.858.086 1.287.121 1.485-3.729 3.078-6.93 4.777-9.603 1.7-2.674 3.078-4.01 4.134-4.01.363 0 .685.132.965.396.281.264.421.61.421 1.04 0 .527-.23 1.237-.693 2.128-.462.891-1.22 2.244-2.277 4.06-1.452 2.442-2.59 4.488-3.416 6.138 3.796 0 6.815-.116 9.06-.347v1.634c-3.895.396-7.212.594-9.951.594-1.716 4.06-2.574 7.376-2.574 9.95 0 1.354.214 2.31.643 2.872.43.561 1.106.842 2.03.842 1.65 0 3.342-.751 5.074-2.253.807-.7 1.566-1.515 2.276-2.447.202-1.591.821-3.284 1.858-5.078 1.287-2.227 2.937-4.092 4.95-5.594 2.014-1.501 3.994-2.252 5.941-2.252 1.023 0 1.881.256 2.574.767s1.04 1.361 1.04 2.55c0 1.584-.61 3.077-1.832 4.48-1.22 1.402-2.797 2.55-4.727 3.44-1.931.891-3.903 1.453-5.916 1.684a5.85 5.85 0 00-.1 1.138c0 .858.24 1.716.718 2.574s1.51 1.288 3.095 1.288c2.013 0 4.067-.817 6.163-2.45a18.445 18.445 0 004.237-4.673c1.374-2.536 2.594-5.31 3.659-8.323-.33-.33-.495-.776-.495-1.337 0-.858.264-1.666.792-2.425.528-.76 1.04-1.139 1.535-1.139.33 0 .602.198.816.594.215.396.322.726.322.99 0 .132-.074.421-.223.867l-.321.965c.033.23.165.454.396.668.23.215.66.52 1.287.916 1.155.76 2.054 1.493 2.698 2.203.643.71.965 1.658.965 2.847 0 .726-.124 1.452-.371 2.178-.248.726-.619 1.6-1.114 2.624-.726 1.452-1.089 2.491-1.089 3.118 0 .76.413 1.139 1.238 1.139.99 0 2.07-.396 3.242-1.188a16.073 16.073 0 003.376-3.083zm-48.21-.56c.109-.572.243-1.181.403-1.827.496-1.997 1.156-4.118 1.98-6.362-.454-.087-.83-.17-1.127-.248-3.686.363-6.841.545-9.466.545-1.717 4.06-2.575 7.376-2.575 9.95 0 1.354.215 2.31.644 2.872s1.106.842 2.03.842c1.65 0 3.341-.751 5.074-2.253 1.103-.956 2.115-2.129 3.038-3.519zM1.14 74.386c2.904-9.274 6.023-19.67 9.356-31.188.231-.924.347-1.568.347-1.93 0-.265-.042-.446-.124-.545-.083-.1-.256-.149-.52-.149-.891 0-1.75.454-2.574 1.362-.825.907-1.494 1.996-2.005 3.267s-.768 2.401-.768 3.391c0 .792.166 1.568.496 2.327-1.387 0-2.393-.289-3.02-.867-.627-.577-.94-1.36-.94-2.351 0-1.42.577-2.888 1.732-4.406s2.55-2.772 4.183-3.762c1.634-.99 3.078-1.485 4.332-1.485 1.419 0 2.557.676 3.416 2.03.858 1.352 1.51 3.052 1.955 5.098.445 2.046.932 4.835 1.46 8.367.594 4.191 1.04 7.236 1.337 9.133.297 1.898.61 3.688.94 5.372l1.882-7.872c1.287-5.577 2.343-9.893 3.168-12.945.825-3.053 1.634-5.256 2.426-6.61.99-1.748 2.327-2.623 4.01-2.623-1.188 3.07-2.558 7.327-4.11 12.772s-2.87 10.735-3.96 15.867C23.07 71.77 22.525 75.558 22.525 78c-1.287 0-2.31-.305-3.07-.916s-1.32-1.724-1.683-3.341c-.396-1.684-1.765-9.01-4.109-21.98-.264-1.453-.478-2.624-.643-3.515a54.237 54.237 0 01-.347-2.03c-2.739 9.967-4.736 16.988-5.99 21.064-1.254 4.076-2.36 6.881-3.317 8.416C2.41 77.233 1.287 78 0 78zm37.104-8.91c1.468-.826 2.714-1.84 3.737-3.045s1.535-2.385 1.535-3.54c0-.363-.066-.61-.198-.742s-.347-.199-.644-.199c-.957 0-2.005.454-3.143 1.362-1.139.907-2.187 2.054-3.144 3.44-.957 1.387-1.667 2.773-2.129 4.159 1.189-.132 2.517-.61 3.986-1.436zm49.628 3.613a19.61 19.61 0 00-.346-3.119 86.338 86.338 0 00-.891-3.96l-.446-1.782c-1.617 2.805-3.053 4.868-4.307 6.188.561.957 1.353 1.823 2.376 2.599a9.026 9.026 0 003.466 1.609c.099-.297.148-.809.148-1.535zm-1.856 4.456a3.17 3.17 0 001.312-1.436 9.742 9.742 0 01-3.565-1.51c-1.089-.743-1.963-1.543-2.623-2.401-.462.099-.693.545-.693 1.337 0 1.188.33 2.236.99 3.143s1.567 1.362 2.722 1.362c.66 0 1.28-.165 1.857-.495zm20.544-18.515c1.568-2.575 2.822-5.017 3.763-7.327s1.41-4.026 1.41-5.149c-.428 0-1.295 1.007-2.598 3.02s-2.674 4.513-4.11 7.5c-1.435 2.987-2.598 5.883-3.49 8.688 1.783-1.914 3.458-4.158 5.025-6.732zm9.307 10.445c1.469-.825 2.715-1.84 3.738-3.044 1.023-1.205 1.535-2.385 1.535-3.54 0-.363-.066-.61-.198-.742s-.347-.199-.644-.199c-.957 0-2.005.454-3.144 1.362-1.138.907-2.186 2.054-3.143 3.44-.957 1.387-1.667 2.773-2.129 4.159 1.188-.132 2.517-.61 3.985-1.436zm45.396 0c1.469-.825 2.715-1.84 3.738-3.044s1.535-2.385 1.535-3.54c0-.363-.066-.61-.198-.742s-.347-.199-.644-.199c-.957 0-2.005.454-3.143 1.362s-2.187 2.054-3.144 3.44c-.957 1.387-1.667 2.773-2.129 4.159 1.188-.132 2.517-.61 3.985-1.436zm36.362 3.614a19.61 19.61 0 00-.347-3.119 86.339 86.339 0 00-.89-3.96l-.446-1.782c-1.618 2.805-3.053 4.868-4.307 6.188.56.957 1.353 1.823 2.376 2.599a9.026 9.026 0 003.465 1.609c.1-.297.149-.809.149-1.535zm-1.857 4.456a3.17 3.17 0 001.312-1.436 9.742 9.742 0 01-3.564-1.51c-1.09-.743-1.964-1.543-2.624-2.401-.462.099-.693.545-.693 1.337 0 1.188.33 2.236.99 3.143s1.568 1.362 2.723 1.362c.66 0 1.279-.165 1.856-.495zm-34.24-41.546c-4.916.033-4.47-1.484-7.357-1.5-.957.016-1.534.56-1.633.758a.043.043 0 01-.05.05h-.23a.05.05 0 01-.05-.066v-8.775c.016-.132.165-.1.181.05.231 3.1 3.052 8.989 9.105 8.989 4.388 0 7.307-3.233 7.307-6.054 0-2.177.38-4.52-7.307-7.554-5.113-2.03-9.121-3.745-9.121-9.518 0-4.321 3.975-8.379 9.105-8.379 2.87 0 3.86 1.369 6.416 1.369.825 0 1.336-.511 1.88-1.105.182-.198.231-.083.231 0s1.336 6.713 1.336 6.713c-.033.198-.164.198-.247.083-.033-.05-3.596-6.417-9.666-6.417-5.756 0-7.307 7.043-2.59 9.7 6.483 3.66 14.615 4.733 14.615 11.842 0 5.773-6.153 9.814-11.926 9.814zm-35.563-.676h.002c-.132 0-.149-.148-.017-.148.445 0 3.596-.083 3.975-2.854l.017-25.055s.066-2.26-4.058-2.243c-.247 0-.214-.182 0-.182h23.14c.1 0 .083.066.083.066l1.684 5.806s.082.363-.198.182c-.148-.1-3.134-5.608-9.286-5.608-2.706 0-6.021-.182-6.021 2.028v10.359a.134.134 0 00.148.148h6.12s2.67-.082 3.612-2.952c.05-.132.149.033.149.033v6.829c-.083.165-.165-.033-.165-.033-.512-3.53-3.596-3.349-3.596-3.349h-6.138a.165.165 0 00-.132.182V27.43c0 4.042 7.126 3.316 7.126 3.316 6.697 0 8.957-8.511 8.957-8.511s.115-.066.115.082v9.006zm-28.155-.148c2.804 0 2.887-2.656 2.887-2.656V3.431S100.612.99 97.709.99c-.165 0-.182-.149 0-.149h14.927c.182.017 16.132-.495 16.132 15.802 0 0-.412 14.664-17.22 14.68h-13.74c-.13 0-.149-.148 0-.148zm25.567-15.258c.033-16.412-13.46-14.498-14.96-14.515-1.023-.016-2.277.247-2.491 2.21V28.47s-.28 2.309 4.882 2.309c12.767.033 12.585-14.548 12.585-14.548v-.314zM88.52 29.03V3.447s-.05-2.44-2.952-2.44c-.231 0-.215-.15-.017-.15h10.986c.148 0 .132.15 0 .15-.083 0-3.035-.116-3.035 2.457 0 0-.017 23.373-.017 25.533 0 2.161 2.903 2.178 3.037 2.178.133 0 .148.148.016.148H80.144a.11.11 0 01-.116-.082l-4.8-10.243c-1.022-2.425-2.128-3.893-4.19-4.091-1.434-.149-2.853-.247-2.87.066v11.216s-.016 3.019 3.3 3.019c.18 0 .18.115 0 .115H59.673c-.182 0-.182-.115 0-.115 3.48 0 3.332-3.035 3.332-3.035V3.447S62.97.99 60.085.99c-.215 0-.165-.149-.033-.149H74.88s8.05-.132 8.05 8.313c0 6.07-7.489 7.324-7.489 7.324-.165.05 0 .149 0 .149a7.322 7.322 0 015.212 4.239c1.65 3.661 2.986 6.663 2.986 6.663 1.237 2.92 2.408 3.563 3.216 3.53.841-.05 1.666-.462 1.666-2.029zM68.25 15.868c.083.313 1.106.346 3.15.346 6.302 0 6.302-6.383 6.302-6.383 0-8.462-4.668-8.56-6.565-8.56-3.15 0-2.887 2.39-2.887 2.39zm-7.025 6.73s.098 8.758-10.144 8.758H36.037c-.181 0-.198-.148.017-.148 2.82 0 2.87-2.64 2.87-2.64V3.927C38.924.577 35.179.84 35.179.84c-.247 0-.23-.214 0-.214 0 0 6.714-.017 9.122 0 8.082.05 9.336.396 9.567.396.56 0 6.334 1.468 6.334 6.812 0 5.69-7.456 6.251-7.786 6.251-.148 0-.165.182 0 .182-.016 0 8.808 1.253 8.808 8.33zm-16.644-9.04c.214 0 4.882.1 5.443.165 1.303.132 5.146-.676 5.146-5.657 0-6.911-5.542-6.845-5.558-6.845C47.516 1.105 44.4.808 44.4 3.002v10.359a.176.176 0 00.18.198zm10.804 10.046c.016-2.903-.462-8.775-4.998-9.204a57.058 57.058 0 00-5.856-.215.186.186 0 00-.214.215l-.017 13.872s-.709 2.507 4.718 2.507c5.591 0 6.367-5.526 6.367-7.175z" fill="#fff"/></svg>