<svg xmlns="http://www.w3.org/2000/svg" viewBox="0 0 208 78"><title>logo-brides</title>
  <path fill="#fff" d="M187.558989,68.233982 C187.663769,67.570144 187.866877,67.0713604 188.168317,66.7376238 C188.498188,66.3724098 188.857492,66.0702804 189.246237,65.8312314 C189.359225,65.6270868 189.461965,65.4259174 189.554455,65.2277228 L189.906364,65.4916539 C190.375515,65.2720099 190.65425,65.1180275 190.742574,65.029703 C192.854796,62.8514743 194.45544,60.5907708 195.544554,58.2475248 L195.544554,57.7524752 C195.544554,56.531347 195.750823,55.6237653 196.163366,55.029703 C196.57591,54.4356406 197.112208,54.1386139 197.772277,54.1386139 C198.498353,54.1386139 198.894389,54.4686436 198.960396,55.1287129 C198.960396,55.2937302 198.919142,55.5412525 198.836634,55.8712871 C198.754125,56.2013218 198.712871,56.547853 198.712871,56.9108911 C198.712871,57.5379569 198.81188,58.1980163 199.009901,58.8910891 C199.207922,59.5841619 199.52145,60.5247465 199.950495,61.7128713 C200.47855,63.1650238 200.882837,64.4191366 201.163366,65.4752475 C201.443896,66.5313584 201.584158,67.603955 201.584158,68.6930693 C201.584158,69.2541282 201.518152,69.9306891 201.386139,70.7227723 C203.630374,70.1617134 205.57755,68.2970455 207.227723,65.1287129 L207.821782,65.5742574 C207.161713,67.455455 206.24588,68.9735916 205.074257,70.1287129 C203.902634,71.2838342 202.52476,71.9768965 200.940594,72.2079208 C200.412539,73.5280594 199.554461,74.5263993 198.366337,75.2029703 C197.178212,75.8795413 195.808589,76.2178218 194.257426,76.2178218 C191.947183,76.2178218 190.239279,75.5495116 189.133663,74.2128713 C188.310629,73.217859 187.793937,72.0811211 187.583582,70.8026378 C186.49592,71.9634452 185.296452,72.9269145 183.985149,73.6930693 C182.516494,74.5511594 181.072614,74.980198 179.653465,74.980198 C178.432337,74.980198 177.442248,74.6584191 176.683168,74.0148515 C175.924089,73.3712839 175.544554,72.5049559 175.544554,71.4158416 C175.544554,70.7887757 175.668316,70.1039641 175.915842,69.3613861 C176.163368,68.6188082 176.534651,67.7194772 177.029703,66.6633663 C177.458748,65.7392693 177.788778,64.9554488 178.019802,64.3118812 C178.250826,63.6683136 178.366337,63.0990124 178.366337,62.6039604 C178.366337,61.3498287 177.541262,60.2937337 175.891089,59.4356436 C175.23102,61.0858168 174.463701,62.7524668 173.589109,64.4356436 C172.714517,66.1188203 171.930697,67.537948 171.237624,68.6930693 L171.220692,68.6603337 C170.077111,70.4218502 168.67187,71.9179031 167.00495,73.1485149 C164.546192,74.9637054 161.996713,75.8712871 159.356436,75.8712871 C157.277217,75.8712871 155.660072,75.3102366 154.50495,74.1881188 C153.5208,73.2320867 152.955898,72.0484813 152.810235,70.6372759 C152.111748,71.5311609 151.356522,72.3434868 150.544554,73.0742574 C148.399329,75.0049601 146.171629,75.970297 143.861386,75.970297 C142.343227,75.970297 141.15512,75.5330077 140.29703,74.6584158 C139.43894,73.783824 139.009901,72.4884574 139.009901,70.7722772 C139.009901,70.5251252 139.019027,70.2648928 139.03728,69.9915798 C138.207203,71.1436778 137.290488,72.1712345 136.287129,73.0742574 C134.141903,75.0049601 131.914203,75.970297 129.60396,75.970297 C128.085801,75.970297 126.897694,75.5330077 126.039604,74.6584158 C125.181514,73.783824 124.752475,72.4884574 124.752475,70.7722772 C124.752475,70.5627205 124.759036,70.3437603 124.772158,70.1153963 C123.850459,71.2610702 122.796045,72.272107 121.608911,73.1485149 C119.150153,74.9637054 116.600673,75.8712871 113.960396,75.8712871 C111.881178,75.8712871 110.264032,75.3102366 109.108911,74.1881188 C108.175685,73.2815568 107.619443,72.1703638 107.440175,70.8545171 C106.906299,71.5321079 106.356934,72.1400074 105.792079,72.6782178 C104.042896,74.3448928 102.227732,75.1782178 100.346535,75.1782178 C98.8943822,75.1782178 97.8382871,74.6996748 97.1782178,73.7425743 C96.5181485,72.7854738 96.1881188,71.5148594 96.1881188,69.9306931 C96.1881188,69.6675606 96.1958644,69.3967448 96.2113557,69.1182457 C95.9333224,69.4813117 95.6367981,69.8181338 95.3217822,70.1287129 C94.1501592,71.2838342 92.7722851,71.9768965 91.1881188,72.2079208 C90.6600634,73.5280594 89.8019861,74.5263993 88.6138614,75.2029703 C87.4257366,75.8795413 86.0561134,76.2178218 84.5049505,76.2178218 C82.1947079,76.2178218 80.4868042,75.5495116 79.3811881,74.2128713 C78.3906915,73.0154053 77.8438834,71.6126728 77.7407518,70.0046396 C77.0395859,70.4173897 76.3240259,70.6237624 75.5940594,70.6237624 C74.570952,70.6237624 73.671621,70.252479 72.8960396,69.509901 C72.1204582,68.767323 71.5016525,67.7689832 71.039604,66.5148515 C69.554448,69.0891218 68.0198099,71.2425656 66.4356436,72.9752475 C64.8514772,74.7079295 63.3333406,75.5742574 61.8811881,75.5742574 C60.8580807,75.5742574 60.1320153,75.1369681 59.7029703,74.2623762 C59.2739252,73.3877844 59.026403,72.1749252 58.960396,70.6237624 L59.009901,69.4356436 C59.009901,68.7755743 59.042904,68.0495089 59.1089109,67.2574257 C57.8217757,69.6006718 56.5346599,71.5065933 55.2475248,72.9752475 C53.9603896,74.4439017 52.6402708,75.1782178 51.2871287,75.1782178 C50.1980144,75.1782178 49.2821819,74.6749225 48.539604,73.6683168 C47.797026,72.6617111 47.4257426,71.448852 47.4257426,70.029703 C47.4257426,69.9398927 47.4271707,69.8485652 47.430027,69.7557203 C46.4433121,71.0505661 45.2950221,72.181494 43.9851485,73.1485149 C41.5263903,74.9637054 38.9769109,75.8712871 36.3366337,75.8712871 C34.2574153,75.8712871 32.6402698,75.3102366 31.4851485,74.1881188 C30.3300272,73.066001 29.7524752,71.6303718 29.7524752,69.8811881 C29.7524752,67.9669871 30.3960332,65.8960507 31.6831683,63.6683168 C32.9703035,61.4405829 34.620452,59.5759151 36.6336634,58.0742574 C38.6468748,56.5725998 40.627053,55.8217822 42.5742574,55.8217822 C43.5973649,55.8217822 44.4554421,56.0775552 45.1485149,56.5891089 C45.8415876,57.1006626 46.1881188,57.9504891 46.1881188,59.1386139 C46.1881188,60.7227802 45.5775639,62.2161646 44.3564356,63.6188119 C43.1353074,65.0214592 41.5594156,66.1683124 39.6287129,67.0594059 C37.6980101,67.9504995 35.7260827,68.51155 33.7128713,68.7425743 C33.6468644,69.0726089 33.6138614,69.4521431 33.6138614,69.8811881 C33.6138614,70.7392782 33.8531329,71.5973554 34.3316832,72.4554455 C34.8102334,73.3135356 35.8415762,73.7425743 37.4257426,73.7425743 C39.438954,73.7425743 41.4933889,72.9257507 43.5891089,71.2920792 C45.3327194,69.9328868 46.7964606,68.2938637 47.9803617,66.3749748 C48.0524814,66.099041 48.1316348,65.8156336 48.2178218,65.5247525 C48.7458772,63.7425653 49.3646829,62.1914257 50.0742574,60.8712871 C50.7838319,59.5511485 51.4026376,58.8910891 51.9306931,58.8910891 C52.2277243,58.8910891 52.6485121,59.0396025 53.1930693,59.3366337 C53.7376265,59.6336649 54.0759069,59.9636946 54.2079208,60.3267327 C53.514848,61.3168366 52.8052842,62.7689673 52.0792079,64.6831683 C51.3531317,66.5973693 50.990099,68.2475178 50.990099,69.6336634 C50.990099,70.2937327 51.0891079,70.9455413 51.2871287,71.5891089 C51.4851495,72.2326765 51.8976866,72.5544554 52.5247525,72.5544554 C54.2079292,72.5544554 56.5676416,69.6006896 59.6039604,63.6930693 C59.8679881,62.3069238 60.0990089,61.3003332 60.2970297,60.6732673 C60.4950505,60.0462015 60.6930683,59.6419151 60.8910891,59.460396 C61.0891099,59.278877 61.3696351,59.1881188 61.7326733,59.1881188 C62.3597391,59.1881188 62.8465329,59.31188 63.1930693,59.5594059 C63.5396057,59.8069319 63.7128713,60.1617139 63.7128713,60.6237624 C63.7128713,60.7227728 63.6303639,61.0197995 63.4653465,61.5148515 C63.1353119,62.5709624 62.8712881,63.9158334 62.6732673,65.549505 C62.4752465,67.1831765 62.3762376,68.8250743 62.3762376,70.4752475 C62.3762376,71.3663411 62.4339928,72.009899 62.549505,72.4059406 C62.6650171,72.8019822 62.9042886,73 63.2673267,73 C64.1254168,73 65.2557686,72.0346631 66.6584158,70.1039604 C68.0610631,68.1732577 69.3564297,65.9868109 70.5445545,63.5445545 C70.5445545,61.2013084 70.783826,59.5676614 71.2623762,58.6435644 C71.7409265,57.7194673 72.4092366,57.2574257 73.2673267,57.2574257 C73.993403,57.2574257 74.537952,57.4966973 74.9009901,57.9752475 C75.2640282,58.4537978 75.4455446,58.9240901 75.4455446,59.3861386 C75.4455446,59.7161733 75.3547864,60.046203 75.1732673,60.3762376 C74.9917483,60.7062723 74.8679871,60.9372931 74.8019802,61.0693069 C74.1419109,62.3894455 73.8118812,63.8580777 73.8118812,65.4752475 C73.8118812,67.917504 74.5379465,69.1386139 75.990099,69.1386139 C76.5976958,69.1386139 77.1975374,68.8752376 77.7896407,68.3484775 C77.8885798,67.627229 78.0973127,67.0902808 78.4158416,66.7376238 C78.7761554,66.3387049 79.1715869,66.0150519 79.6021434,65.7666592 C79.6683701,65.6403739 79.7349823,65.5102334 79.8019802,65.3762376 L80.0243112,65.5517621 C80.5719998,65.2998941 80.8939259,65.125876 80.990099,65.029703 C83.1023208,62.8514743 84.7029649,60.5907708 85.7920792,58.2475248 L85.7920792,57.7524752 C85.7920792,56.531347 85.9983478,55.6237653 86.4108911,55.029703 C86.8234344,54.4356406 87.3597327,54.1386139 88.019802,54.1386139 C88.7458782,54.1386139 89.1419139,54.4686436 89.2079208,55.1287129 C89.2079208,55.2937302 89.1666671,55.5412525 89.0841584,55.8712871 C89.0016498,56.2013218 88.960396,56.547853 88.960396,56.9108911 C88.960396,57.5379569 89.059405,58.1980163 89.2574257,58.8910891 C89.4554465,59.5841619 89.7689748,60.5247465 90.1980198,61.7128713 C90.7260752,63.1650238 91.1303616,64.4191366 91.4108911,65.4752475 C91.6914205,66.5313584 91.8316832,67.603955 91.8316832,68.6930693 C91.8316832,69.2541282 91.7656772,69.9306891 91.6336634,70.7227723 C93.4435465,70.2703015 95.0602288,68.9699955 96.4837409,66.821825 C96.924248,64.287077 97.857057,61.2639738 99.2821782,57.7524752 C101.344895,52.6699416 103.663353,48.1155317 106.237624,44.0891089 C108.811894,40.0626861 110.709565,38.049505 111.930693,38.049505 C112.491752,38.049505 112.970295,38.4867943 113.366337,39.3613861 C113.762378,40.235978 113.976898,41.1188074 114.009901,42.009901 C114.009901,43.5280604 113.399346,45.7475101 112.178218,48.6683168 C110.95709,51.5891235 109.315192,54.5511401 107.252475,57.5544554 C105.189759,60.5577708 102.98681,62.9834891 100.643564,64.8316832 C100.280526,66.877898 100.09901,68.4290376 100.09901,69.4851485 C100.09901,70.6402698 100.288777,71.498347 100.668317,72.0594059 C101.047857,72.6204649 101.567653,72.9009901 102.227723,72.9009901 C103.382844,72.9009901 104.612205,72.133671 105.915842,70.5990099 C106.463511,69.9542855 106.986421,69.252774 107.484576,68.4944712 C107.717249,66.9770451 108.324697,65.3683362 109.306931,63.6683168 C110.594066,61.4405829 112.244214,59.5759151 114.257426,58.0742574 C116.270637,56.5725998 118.250815,55.8217822 120.19802,55.8217822 C121.221127,55.8217822 122.079204,56.0775552 122.772277,56.5891089 C123.46535,57.1006626 123.811881,57.9504891 123.811881,59.1386139 C123.811881,60.7227802 123.201326,62.2161646 121.980198,63.6188119 C120.75907,65.0214592 119.183178,66.1683124 117.252475,67.0594059 C115.321773,67.9504995 113.349845,68.51155 111.336634,68.7425743 C111.270627,69.0726089 111.237624,69.4521431 111.237624,69.8811881 C111.237624,70.7392782 111.476895,71.5973554 111.955446,72.4554455 C112.433996,73.3135356 113.465339,73.7425743 115.049505,73.7425743 C117.062716,73.7425743 119.117151,72.9257507 121.212871,71.2920792 C122.782105,70.068818 124.12465,68.6188983 125.240526,66.9422947 C125.316497,66.5897549 125.401339,66.2245017 125.49505,65.8465347 C125.990101,63.849825 126.650161,61.7293842 127.475248,59.4851485 C126.617157,59.3201312 126.039605,59.1716178 125.742574,59.039604 L125.742574,57.5049505 C126.534657,57.6039609 127.326729,57.6864683 128.118812,57.7524752 C129.603968,54.0230837 131.196361,50.8217955 132.89604,48.1485149 C134.595718,45.4752342 135.973592,44.1386139 137.029703,44.1386139 C137.392741,44.1386139 137.71452,44.2706257 137.99505,44.5346535 C138.275579,44.7986812 138.415842,45.1452124 138.415842,45.5742574 C138.415842,46.1023129 138.184821,46.8118767 137.722772,47.7029703 C137.260724,48.5940639 136.501655,49.9471856 135.445545,51.7623762 C133.993392,54.2046327 132.85479,56.2508168 132.029703,57.9009901 C135.242091,57.9009901 137.898838,57.8182412 140,57.6527413 L140,57.5049505 C140.240564,57.535021 140.481128,57.5635694 140.721691,57.5905955 C140.84639,57.5788804 140.968863,57.5668337 141.089109,57.5544554 L141.089109,57.6306897 C141.518151,57.6761264 141.947192,57.7167215 142.376238,57.7524752 C143.861394,54.0230837 145.453787,50.8217955 147.153465,48.1485149 C148.853144,45.4752342 150.231018,44.1386139 151.287129,44.1386139 C151.650167,44.1386139 151.971946,44.2706257 152.252475,44.5346535 C152.533005,44.7986812 152.673267,45.1452124 152.673267,45.5742574 C152.673267,46.1023129 152.442247,46.8118767 151.980198,47.7029703 C151.51815,48.5940639 150.759081,49.9471856 149.70297,51.7623762 C148.250818,54.2046327 147.112215,56.2508168 146.287129,57.9009901 C150.082527,57.9009901 153.102299,57.7854797 155.346535,57.5544554 L155.346535,59.1881188 C151.452126,59.5841604 148.135327,59.7821782 145.39604,59.7821782 C143.679859,63.8416045 142.821782,67.158403 142.821782,69.7326733 C142.821782,71.0858153 143.036301,72.0429015 143.465347,72.6039604 C143.894392,73.1650193 144.570952,73.4455446 145.49505,73.4455446 C147.145223,73.4455446 148.836625,72.694727 150.569307,71.1930693 C151.376338,70.4936421 152.135036,69.6778742 152.845404,68.7457596 C153.047151,67.154962 153.666336,65.4624919 154.70297,63.6683168 C155.990105,61.4405829 157.640254,59.5759151 159.653465,58.0742574 C161.666677,56.5725998 163.646855,55.8217822 165.594059,55.8217822 C166.617167,55.8217822 167.475244,56.0775552 168.168317,56.5891089 C168.86139,57.1006626 169.207921,57.9504891 169.207921,59.1386139 C169.207921,60.7227802 168.597366,62.2161646 167.376238,63.6188119 C166.155109,65.0214592 164.579218,66.1683124 162.648515,67.0594059 C160.717812,67.9504995 158.745885,68.51155 156.732673,68.7425743 C156.666666,69.0726089 156.633663,69.4521431 156.633663,69.8811881 C156.633663,70.7392782 156.872935,71.5973554 157.351485,72.4554455 C157.830035,73.3135356 158.861378,73.7425743 160.445545,73.7425743 C162.458756,73.7425743 164.513191,72.9257507 166.608911,71.2920792 C168.277723,69.991194 169.690163,68.4339719 170.846256,66.620382 C172.220186,64.0844805 173.43974,61.3100532 174.50495,58.2970297 C174.174916,57.966995 174.009901,57.521455 174.009901,56.960396 C174.009901,56.1023059 174.273925,55.2937332 174.80198,54.5346535 C175.330036,53.7755738 175.841582,53.3960396 176.336634,53.3960396 C176.666668,53.3960396 176.938943,53.5940574 177.153465,53.990099 C177.367988,54.3861406 177.475248,54.7161703 177.475248,54.980198 C177.475248,55.1122119 177.400991,55.4009879 177.252475,55.8465347 L176.930693,56.8118812 C176.963697,57.0429054 177.095708,57.2656755 177.326733,57.480198 C177.557757,57.6947205 177.986796,57.999998 178.613861,58.3960396 C179.768983,59.1551193 180.668314,59.8894354 181.311881,60.5990099 C181.955449,61.3085844 182.277228,62.2574198 182.277228,63.4455446 C182.277228,64.1716208 182.153467,64.8976861 181.905941,65.6237624 C181.658415,66.3498386 181.287131,67.2244173 180.792079,68.2475248 C180.066003,69.6996772 179.70297,70.7392708 179.70297,71.3663366 C179.70297,72.1254163 180.115507,72.5049505 180.940594,72.5049505 C181.930698,72.5049505 183.011545,72.1089149 184.183168,71.3168317 C185.354791,70.5247485 186.427388,69.5594116 187.40099,68.4207921 C187.454427,68.3582983 187.507093,68.2960283 187.558989,68.233982 Z M139.349532,67.6740485 C139.457909,67.1020557 139.592223,66.4928849 139.752475,65.8465347 C140.247527,63.849825 140.907587,61.7293842 141.732673,59.4851485 C141.277848,59.3976822 140.901839,59.3148525 140.604644,59.236659 C136.918919,59.6003402 133.763605,59.7821782 131.138614,59.7821782 C129.422434,63.8416045 128.564356,67.158403 128.564356,69.7326733 C128.564356,71.0858153 128.778876,72.0429015 129.207921,72.6039604 C129.636966,73.1650193 130.313527,73.4455446 131.237624,73.4455446 C132.887797,73.4455446 134.579199,72.694727 136.311881,71.1930693 C137.414681,70.2373096 138.427227,69.0643079 139.349532,67.6740485 Z M1.13861386,74.3861386 C4.04291881,65.1121649 7.1616995,54.7162292 10.4950495,43.1980198 C10.7260738,42.2739228 10.8415842,41.6303649 10.8415842,41.2673267 C10.8415842,41.003299 10.8003304,40.8217827 10.7178218,40.7227723 C10.6353131,40.6237619 10.4620475,40.5742574 10.1980198,40.5742574 C9.30692624,40.5742574 8.44884901,41.0280483 7.62376238,41.9356436 C6.79867574,42.8432389 6.13036559,43.9323369 5.61881188,45.2029703 C5.10725817,46.4736037 4.85148515,47.6039554 4.85148515,48.5940594 C4.85148515,49.3861426 5.0165,50.1617124 5.34653465,50.9207921 C3.96038911,50.9207921 2.95379851,50.6320161 2.32673267,50.0544554 C1.69966683,49.4768948 1.38613861,48.6930743 1.38613861,47.7029703 C1.38613861,46.2838213 1.96369059,44.8151891 3.11881188,43.2970297 C4.27393317,41.7788703 5.66830866,40.5247574 7.3019802,39.5346535 C8.93565173,38.5445495 10.3795317,38.049505 11.6336634,38.049505 C13.0528124,38.049505 14.1914149,38.7260658 15.049505,40.0792079 C15.907595,41.43235 16.5594037,43.132003 17.0049505,45.1782178 C17.4504973,47.2244327 17.9372911,50.0131837 18.4653465,53.5445545 C19.0594089,57.7359946 19.504949,60.7805186 19.8019802,62.6782178 C20.0990114,64.5759171 20.4125396,66.3663282 20.7425743,68.049505 L22.6237624,60.1782178 C23.9108975,54.6006322 24.9669926,50.2854938 25.7920792,47.2326733 C26.6171658,44.1798527 27.4257386,41.9769045 28.2178218,40.6237624 C29.2079257,38.8745787 30.544546,38 32.2277228,38 C31.039598,41.0693223 29.6699748,45.3267054 28.1188119,50.7722772 C26.567649,56.217849 25.2475302,61.506575 24.1584158,66.6386139 C23.0693015,71.7706527 22.5247525,75.5577436 22.5247525,78 C21.2376173,78 20.2145252,77.6947225 19.4554455,77.0841584 C18.6963658,76.4735943 18.1353153,75.3597441 17.7722772,73.7425743 C17.3762356,72.0593975 16.0066124,64.7327381 13.6633663,51.7623762 C13.3993386,50.3102238 13.1848193,49.1386183 13.019802,48.2475248 C12.8547847,47.3564312 12.7392743,46.6798703 12.6732673,46.2178218 C9.9339797,56.1848683 7.9373,63.2062502 6.68316832,67.2821782 C5.42903663,71.3581062 4.32343713,74.1633587 3.36633663,75.6980198 C2.40923614,77.2326809 1.28713515,78 0,78 L1.13861386,74.3861386 Z M38.2425743,65.4752475 C39.7112285,64.6501609 40.9570906,63.6353196 41.980198,62.4306931 C43.0033054,61.2260666 43.5148515,60.0462104 43.5148515,58.8910891 C43.5148515,58.528051 43.4488455,58.2805287 43.3168317,58.1485149 C43.1848178,58.016501 42.9702985,57.950495 42.6732673,57.950495 C41.7161668,57.950495 40.6683225,58.4042859 39.529703,59.3118812 C38.3910834,60.2194765 37.3432391,61.3663297 36.3861386,62.7524752 C35.4290381,64.1386208 34.7194743,65.5247455 34.2574257,66.9108911 C35.4455505,66.7788772 36.77392,66.3003342 38.2425743,65.4752475 Z M87.8712871,69.0891089 C87.8382837,68.032998 87.7227733,66.9934045 87.5247525,65.970297 C87.3267317,64.9471896 87.029705,63.6270708 86.6336634,62.009901 L86.1881188,60.2277228 C84.570949,63.0330173 83.1353198,65.095703 81.8811881,66.4158416 C82.442247,67.3729421 83.2343183,68.23927 84.2574257,69.0148515 C85.2805332,69.7904329 86.4356371,70.3267312 87.7227723,70.6237624 C87.8217827,70.3267312 87.8712871,69.8151851 87.8712871,69.0891089 Z M86.0148515,73.5445545 C86.5924121,73.2145198 87.0297015,72.7359767 87.3267327,72.1089109 C86.0395975,71.8448832 84.8514906,71.3415879 83.7623762,70.5990099 C82.6732619,69.8564319 81.7986832,69.0561099 81.1386139,68.1980198 C80.6765653,68.2970302 80.4455446,68.7425703 80.4455446,69.5346535 C80.4455446,70.7227782 80.7755743,71.7706225 81.4356436,72.6782178 C82.0957129,73.5858131 83.0032946,74.039604 84.1584158,74.039604 C84.8184851,74.039604 85.4372908,73.8745891 86.0148515,73.5445545 Z M106.559406,55.029703 C108.127071,52.4554327 109.381183,50.0132129 110.321782,47.7029703 C111.262381,45.3927277 111.732673,43.6765733 111.732673,42.5544554 C111.303628,42.5544554 110.4373,43.561046 109.133663,45.5742574 C107.830026,47.5874688 106.460403,50.0874438 105.024752,53.0742574 C103.589102,56.061071 102.425747,58.9570817 101.534653,61.7623762 C103.316841,59.8481752 104.991741,57.6039733 106.559406,55.029703 Z M115.866337,65.4752475 C117.334991,64.6501609 118.580853,63.6353196 119.60396,62.4306931 C120.627068,61.2260666 121.138614,60.0462104 121.138614,58.8910891 C121.138614,58.528051 121.072608,58.2805287 120.940594,58.1485149 C120.80858,58.016501 120.594061,57.950495 120.29703,57.950495 C119.339929,57.950495 118.292085,58.4042859 117.153465,59.3118812 C116.014846,60.2194765 114.967001,61.3663297 114.009901,62.7524752 C113.0528,64.1386208 112.343237,65.5247455 111.881188,66.9108911 C113.069313,66.7788772 114.397682,66.3003342 115.866337,65.4752475 Z M161.262376,65.4752475 C162.73103,64.6501609 163.976893,63.6353196 165,62.4306931 C166.023107,61.2260666 166.534653,60.0462104 166.534653,58.8910891 C166.534653,58.528051 166.468648,58.2805287 166.336634,58.1485149 C166.20462,58.016501 165.9901,57.950495 165.693069,57.950495 C164.735969,57.950495 163.688125,58.4042859 162.549505,59.3118812 C161.410885,60.2194765 160.363041,61.3663297 159.405941,62.7524752 C158.44884,64.1386208 157.739276,65.5247455 157.277228,66.9108911 C158.465352,66.7788772 159.793722,66.3003342 161.262376,65.4752475 Z M197.623762,69.0891089 C197.590759,68.032998 197.475249,66.9934045 197.277228,65.970297 C197.079207,64.9471896 196.78218,63.6270708 196.386139,62.009901 L195.940594,60.2277228 C194.323424,63.0330173 192.887795,65.095703 191.633663,66.4158416 C192.194722,67.3729421 192.986794,68.23927 194.009901,69.0148515 C195.033008,69.7904329 196.188112,70.3267312 197.475248,70.6237624 C197.574258,70.3267312 197.623762,69.8151851 197.623762,69.0891089 Z M195.767327,73.5445545 C196.344887,73.2145198 196.782177,72.7359767 197.079208,72.1089109 C195.792073,71.8448832 194.603966,71.3415879 193.514851,70.5990099 C192.425737,69.8564319 191.551158,69.0561099 190.891089,68.1980198 C190.429041,68.2970302 190.19802,68.7425703 190.19802,69.5346535 C190.19802,70.7227782 190.52805,71.7706225 191.188119,72.6782178 C191.848188,73.5858131 192.75577,74.039604 193.910891,74.039604 C194.57096,74.039604 195.189766,73.8745891 195.767327,73.5445545 Z M161.526204,31.9994698 C156.610822,32.032459 157.056175,30.5149584 154.169625,30.4984638 C153.21294,30.5149584 152.63563,31.0592792 152.536663,31.2572141 C152.539,31.2709227 152.534545,31.2849136 152.524712,31.2947469 C152.514878,31.3045802 152.500888,31.3090351 152.487179,31.3066978 L152.256255,31.3066978 C152.239697,31.3076562 152.22376,31.3002555 152.213809,31.286987 C152.203857,31.2737185 152.201215,31.2563468 152.206771,31.2407195 L152.206771,22.4656072 C152.223266,22.3336506 152.371717,22.3666397 152.388212,22.5150909 C152.619136,25.6160704 155.439707,31.5046327 161.493215,31.5046327 C165.880772,31.5046327 168.800311,28.2716966 168.800311,25.4511247 C168.800311,23.2738412 169.179686,20.931612 161.493215,17.8966107 C156.379898,15.8677783 152.371717,14.1523428 152.371717,8.37924262 C152.371717,4.05766473 156.346909,0 161.476721,0 C164.346776,0 165.336451,1.36904948 167.893109,1.36904948 C168.717838,1.36904948 169.22917,0.857717748 169.773491,0.263913153 C169.954931,0.0659782883 170.004415,0.181440293 170.004415,0.263913153 C170.004415,0.346386014 171.340475,6.97720399 171.340475,6.97720399 C171.307486,7.17513886 171.175529,7.17513886 171.093056,7.05967685 C171.060067,7.01019314 167.49724,0.643288311 161.427237,0.643288311 C155.670631,0.643288311 154.120142,7.68647059 158.837589,10.3420967 C165.319956,14.0038917 173.45178,15.0760389 173.45178,22.1851995 C173.45178,27.9582997 167.299305,31.9994698 161.526204,31.9994698 Z M125.963907,31.3231924 L125.965557,31.3231924 C125.8336,31.3231924 125.817105,31.1747412 125.949062,31.1747412 C126.394415,31.1747412 129.544879,31.0922684 129.924254,28.3211803 L129.940748,3.26592527 C129.940748,3.26592527 130.006727,1.0061689 125.883084,1.02266347 C125.635665,1.02266347 125.668654,0.841223176 125.883084,0.841223176 L149.023319,0.841223176 C149.122286,0.841223176 149.105792,0.907201465 149.105792,0.907201465 L150.789888,6.71329084 C150.789888,6.71329084 150.87236,7.07617142 150.591953,6.89473113 C150.443501,6.7957637 147.457984,1.28657662 141.305509,1.28657662 C138.600399,1.28657662 135.28499,1.10513633 135.28499,3.31540899 L135.28499,13.6740003 C135.280153,13.7146632 135.294231,13.7552985 135.323187,13.7842543 C135.352143,13.81321 135.392778,13.827288 135.433441,13.8224514 L141.552927,13.8224514 C141.552927,13.8224514 144.223398,13.7399785 145.165238,10.869923 C145.214722,10.7379664 145.31369,10.9029121 145.31369,10.9029121 L145.31369,17.731665 C145.231217,17.8966107 145.148744,17.6986758 145.148744,17.6986758 C144.637412,14.1688374 141.552927,14.3502777 141.552927,14.3502777 L135.415297,14.3502777 C135.33062,14.3669263 135.273089,14.4460309 135.28334,14.531718 L135.28334,27.4304734 C135.28334,31.4716435 142.408995,30.7458824 142.408995,30.7458824 C149.105792,30.7458824 151.365548,22.2346832 151.365548,22.2346832 C151.365548,22.2346832 151.48101,22.1687049 151.48101,22.317156 L151.48101,31.3231924 L125.963907,31.3231924 Z M97.809322,31.1747412 C100.613399,31.1747412 100.695872,28.5191151 100.695872,28.5191151 L100.695872,3.43087099 C100.695872,3.43087099 100.61175,0.989674325 97.7087051,0.989674325 C97.5437594,0.989674325 97.5272648,0.841223176 97.7087051,0.841223176 L112.636293,0.841223176 C112.817733,0.857717748 128.767984,0.346386014 128.767984,16.6430232 C128.767984,16.6430232 128.35562,31.3066978 111.547651,31.3231924 L97.8076725,31.3231924 C97.6773654,31.3231924 97.6592214,31.1747412 97.8076725,31.1747412 L97.809322,31.1747412 Z M123.375909,15.9172621 C123.408898,-0.494837163 109.916338,1.4185332 108.415332,1.40203863 C107.392668,1.38554406 106.139081,1.64945721 105.924651,3.61231129 L105.924651,28.4696314 C105.924651,28.4696314 105.644244,30.7788715 110.807045,30.7788715 C123.573844,30.8118607 123.392403,16.2306589 123.392403,16.2306589 L123.392403,15.9172621 L123.375909,15.9172621 Z M88.5212284,29.0304469 L88.5212284,3.44736557 C88.5212284,3.44736557 88.4717447,1.0061689 85.5687,1.0061689 C85.337776,1.0061689 85.3542706,0.857717748 85.5522055,0.857717748 L96.5375905,0.857717748 C96.6860416,0.857717748 96.669547,1.0061689 96.5375905,1.0061689 C96.4551176,1.0061689 93.5025892,0.890706893 93.5025892,3.46386014 C93.5025892,3.46386014 93.4860946,26.8366688 93.4860946,28.9974577 C93.4860946,31.1582467 96.3891393,31.1747412 96.5227453,31.1747412 C96.6563514,31.1747412 96.6711965,31.3231924 96.5392399,31.3231924 L80.1436353,31.3231924 C80.0902511,31.3273008 80.0416007,31.2925505 80.0281733,31.2407195 L75.2282528,20.9975903 C74.2055893,18.5728882 73.100453,17.1048713 71.0386315,16.9069364 C69.6036037,16.7584852 68.1850705,16.6595178 68.1685759,16.9729147 L68.1685759,28.1892237 C68.1685759,28.1892237 68.1520814,31.2077304 71.4674903,31.2077304 C71.6489306,31.2077304 71.6489306,31.3231924 71.4674903,31.3231924 L59.6738713,31.3231924 C59.492431,31.3231924 59.492431,31.2077304 59.6738713,31.2077304 C63.154226,31.2077304 63.0057749,28.1727291 63.0057749,28.1727291 L63.0057749,3.44736557 C63.0057749,3.44736557 62.9711363,0.989674325 60.0845862,0.989674325 C59.8701567,0.989674325 59.9196404,0.841223176 60.051597,0.841223176 L74.8802173,0.841223176 C74.8802173,0.841223176 82.9295685,0.7092666 82.9295685,9.15448751 C82.9295685,15.22449 75.4410328,16.4780775 75.4410328,16.4780775 C75.276087,16.5275612 75.4410328,16.6265287 75.4410328,16.6265287 C77.7624708,17.112012 79.7049736,18.6918323 80.6533175,20.8656337 C82.3027748,24.5274287 83.6388351,27.5294408 83.6388351,27.5294408 C84.875928,30.4489801 86.0470426,31.0922684 86.8552766,31.0592792 C87.6964998,31.0097955 88.5212284,30.5974312 88.5212284,29.0304469 Z M68.2493993,15.8677783 C68.3318722,16.1811752 69.3545357,16.2141644 71.3998626,16.2141644 C77.7007891,16.2141644 77.7007891,9.83076496 77.7007891,9.83076496 C77.7007891,1.36904948 73.0328252,1.27008205 71.1359495,1.27008205 C67.9854862,1.27008205 68.2493993,3.661795 68.2493993,3.661795 L68.2493993,15.8677783 Z M61.2243611,22.5975638 C61.2243611,22.5975638 61.3216791,31.3561815 51.0801993,31.3561815 L36.0371495,31.3561815 C35.8557092,31.3561815 35.8392146,31.2077304 36.0536441,31.2077304 C38.8742159,31.2077304 38.9236996,28.5685989 38.9236996,28.5685989 L38.9236996,3.92570816 C38.9236996,0.577310023 35.1794318,0.841223176 35.1794318,0.841223176 C34.9320132,0.841223176 34.9485078,0.626793739 35.1794318,0.626793739 C35.1794318,0.626793739 41.8927226,0.610299167 44.3009301,0.626793739 C52.3832704,0.676277455 53.6368579,1.02266347 53.8677819,1.02266347 C54.4285974,1.02266347 60.2016976,2.49068038 60.2016976,7.83492174 C60.2016976,13.5255491 52.746151,14.0863646 52.4162596,14.0863646 C52.2678084,14.0863646 52.2513139,14.2678049 52.4162596,14.2678049 C52.399765,14.2678049 61.2243611,15.5213923 61.2243611,22.5975638 Z M44.5796884,13.5585383 C44.7941178,13.5585383 49.4620817,13.6575057 50.0228972,13.723484 C51.3259684,13.8554406 55.1692037,13.0472065 55.1692037,8.06584575 C55.1692037,1.15462005 49.6270275,1.22059833 49.6105329,1.22059833 C47.5157222,1.10513633 44.3998976,0.808234032 44.3998976,3.00201212 L44.3998976,13.3606034 C44.39364,13.4115811 44.409899,13.4627559 44.4444319,13.5007738 C44.4789648,13.5387916 44.5283456,13.5598809 44.5796884,13.5585383 Z M55.3836331,23.6037327 C55.4001277,20.700688 54.9217851,14.8286203 50.3857778,14.3997614 C48.4388808,14.2280443 46.4844467,14.1564734 44.5302047,14.185332 C44.4708527,14.175466 44.4103883,14.1948569 44.3678442,14.237401 C44.3253002,14.2799451 44.3059092,14.3404095 44.3157752,14.3997614 L44.2992807,28.2716966 C44.2992807,28.2716966 43.5900141,30.7788715 49.0167283,30.7788715 C54.6083882,30.7788715 55.3836331,25.2531899 55.3836331,23.6037327 Z"/>
</svg>
