<svg viewBox="0 0 208 78" xmlns="http://www.w3.org/2000/svg"><path d="m187.558989 68.233982c.10478-.663838.307888-1.1626216.609328-1.4963582.329871-.365214.689175-.6673434 1.07792-.9063924.112988-.2041446.215728-.405314.308218-.6035086l.351909.2639311c.469151-.219644.747886-.3736264.83621-.4619509 2.112222-2.1782287 3.712866-4.4389322 4.80198-6.7821782v-.4950496c0-1.2211282.206269-2.1287099.618812-2.7227722.412544-.5940624.948842-.8910891 1.608911-.8910891.726076 0 1.122112.3300297 1.188119.990099 0 .1650173-.041254.4125396-.123762.7425742-.082509.3300347-.123763.6765659-.123763 1.039604 0 .6270658.099009 1.2871252.29703 1.980198s.511549 1.6336574.940594 2.8217822c.528055 1.4521525.932342 2.7062653 1.212871 3.7623762.28053 1.0561109.420792 2.1287075.420792 3.2178218 0 .5610589-.066006 1.2376198-.198019 2.029703 2.244235-.5610589 4.191411-2.4257268 5.841584-5.5940594l.594059.4455445c-.660069 1.8811976-1.575902 3.3993342-2.747525 4.5544555s-2.549497 1.8481836-4.133663 2.0792079c-.528055 1.3201386-1.386133 2.3184785-2.574257 2.9950495-1.188125.676571-2.557748 1.0148515-4.108911 1.0148515-2.310243 0-4.018147-.6683102-5.123763-2.0049505-.823034-.9950123-1.339726-2.1317502-1.550081-3.4102335-1.087662 1.1608074-2.28713 2.1242767-3.598433 2.8904315-1.468655.8580901-2.912535 1.2871287-4.331684 1.2871287-1.221128 0-2.211217-.3217789-2.970297-.9653465-.759079-.6435676-1.138614-1.5098956-1.138614-2.5990099 0-.6270659.123762-1.3118775.371288-2.0544555.247526-.7425779.618809-1.6419089 1.113861-2.6980198.429045-.924097.759075-1.7079175.990099-2.3514851s.346535-1.2128688.346535-1.7079208c0-1.2541317-.825075-2.3102267-2.475248-3.1683168-.660069 1.6501732-1.427388 3.3168232-2.30198 5-.874592 1.6831767-1.658412 3.1023044-2.351485 4.2574257l-.016932-.0327356c-1.143581 1.7615165-2.548822 3.2575694-4.215742 4.4881812-2.458758 1.8151905-5.008237 2.7227722-7.648514 2.7227722-2.079219 0-3.696364-.5610505-4.851486-1.6831683-.98415-.9560321-1.549052-2.1396375-1.694715-3.5508429-.698487.893885-1.453713 1.7062109-2.265681 2.4369815-2.145225 1.9307027-4.372925 2.8960396-6.683168 2.8960396-1.518159 0-2.706266-.4372893-3.564356-1.3118812-.85809-.8745918-1.287129-2.1699584-1.287129-3.8861386 0-.247152.009126-.5073844.027379-.7806974-.830077 1.152098-1.746792 2.1796547-2.750151 3.0826776-2.145226 1.9307027-4.372926 2.8960396-6.683169 2.8960396-1.518159 0-2.706266-.4372893-3.564356-1.3118812-.85809-.8745918-1.287129-2.1699584-1.287129-3.8861386 0-.2095567.006561-.4285169.019683-.6568809-.921699 1.1456739-1.976113 2.1567107-3.163247 3.0331186-2.458758 1.8151905-5.008238 2.7227722-7.648515 2.7227722-2.079218 0-3.696364-.5610505-4.851485-1.6831683-.933226-.906562-1.489468-2.017755-1.668736-3.3336017-.533876.6775908-1.083241 1.2854903-1.648096 1.8237007-1.749183 1.666675-3.564347 2.5-5.445544 2.5-1.4521528 0-2.5082479-.478543-3.1683172-1.4356435s-.990099-2.2277149-.990099-3.8118812c0-.2631325.0077456-.5339483.0232369-.8124474-.2780333.363066-.5745576.6998881-.8895735 1.0104672-1.171623 1.1551213-2.5494971 1.8481836-4.1336634 2.0792079-.5280554 1.3201386-1.3861327 2.3184785-2.5742574 2.9950495-1.1881248.676571-2.557748 1.0148515-4.1089109 1.0148515-2.3102426 0-4.0181463-.6683102-5.1237624-2.0049505-.9904966-1.197466-1.5373047-2.6001985-1.6404363-4.2082317-.7011659.4127501-1.4167259.6191228-2.1466924.6191228-1.0231074 0-1.9224384-.3712834-2.6980198-1.1138614s-1.3943871-1.7409178-1.8564356-2.9950495c-1.485156 2.5742703-3.0197941 4.7277141-4.6039604 6.460396-1.5841664 1.732682-3.102303 2.5990099-4.5544555 2.5990099-1.0231074 0-1.7491728-.4372893-2.1782178-1.3118812-.4290451-.8745918-.6765673-2.087451-.7425743-3.6386138l.049505-1.1881188c0-.6600693.033003-1.3861347.0990099-2.1782179-1.2871352 2.3432461-2.574251 4.2491676-3.8613861 5.7178218-1.2871352 1.4686542-2.607254 2.2029703-3.9603961 2.2029703-1.0891143 0-2.0049468-.5032953-2.7475247-1.509901-.742578-1.0066057-1.1138614-2.2194648-1.1138614-3.6386138 0-.0898103.0014281-.1811378.0042844-.2739827-.9867149 1.2948458-2.1350049 2.4257737-3.4448785 3.3927946-2.4587582 1.8151905-5.0082376 2.7227722-7.6485148 2.7227722-2.0792184 0-3.6963639-.5610505-4.8514852-1.6831683s-1.7326733-2.557747-1.7326733-4.3069307c0-1.914201.643558-3.9851374 1.9306931-6.2128713 1.2871352-2.2277339 2.9372837-4.0924017 4.9504951-5.5940594 2.0132114-1.5016576 3.9933896-2.2524752 5.940594-2.2524752 1.0231075 0 1.8811847.255773 2.5742575.7673267.6930727.5115537 1.0396039 1.3613802 1.0396039 2.549505 0 1.5841663-.6105549 3.0775507-1.8316832 4.480198-1.2211282 1.4026473-2.79702 2.5495005-4.7277227 3.440594-1.9307028.8910936-3.9026302 1.4521441-5.9158416 1.6831684-.0660069.3300346-.0990099.7095688-.0990099 1.1386138 0 .8580901.2392715 1.7161673.7178218 2.5742574.4785502.8580901 1.509893 1.2871288 3.0940594 1.2871288 2.0132114 0 4.0676463-.8168236 6.1633663-2.4504951 1.7436105-1.3591924 3.2073517-2.9982155 4.3912528-4.9171044.0721197-.2759338.1512731-.5593412.2374601-.8502223.5280554-1.7821872 1.1468611-3.3333268 1.8564356-4.6534654s1.3283802-1.980198 1.8564357-1.980198c.2970312 0 .717819.1485134 1.2623762.4455446s.8828376.6270609 1.0148515.990099c-.6930728.9901039-1.4026366 2.4422346-2.1287129 4.3564356-.7260762 1.914201-1.0891089 3.5643495-1.0891089 4.9504951 0 .6600693.0990089 1.3118779.2970297 1.9554455s.6105579.9653465 1.2376238.9653465c1.6831767 0 4.0428891-2.9537658 7.0792079-8.8613861.2640277-1.3861455.4950485-2.3927361.6930693-3.019802.1980208-.6270658.3960386-1.0313522.5940594-1.2128713.1980208-.181519.478546-.2722772.8415842-.2722772.6270658 0 1.1138596.1237612 1.460396.3712871.3465364.247526.519802.602308.519802 1.0643565 0 .0990104-.0825074.3960371-.2475248.8910891-.3300346 1.0561109-.5940584 2.4009819-.7920792 4.0346535-.1980208 1.6336715-.2970297 3.2755693-.2970297 4.9257425 0 .8910936.0577552 1.5346515.1732674 1.9306931.1155121.3960416.3547836.5940594.7178217.5940594.8580901 0 1.9884419-.9653369 3.3910891-2.8960396 1.4026473-1.9307027 2.6980139-4.1171495 3.8861387-6.5594059 0-2.3432461.2392715-3.9768931.7178217-4.9009901.4785503-.9240971 1.1468604-1.3861387 2.0049505-1.3861387.7260763 0 1.2706253.2392716 1.6336634.7178218.3630381.4785503.5445545.9488426.5445545 1.4108911 0 .3300347-.0907582.6600644-.2722773.990099-.181519.3300347-.3052802.5610555-.3712871.6930693-.6600693 1.3201386-.990099 2.7887708-.990099 4.4059406 0 2.4422565.7260653 3.6633664 2.1782178 3.6633664.6075968 0 1.2074384-.2633763 1.7995417-.7901364.0989391-.7212485.307672-1.2581967.6262009-1.6108537.3603138-.3989189.7557453-.7225719 1.1863018-.9709646.0662267-.1262853.1328389-.2564258.1998368-.3904216l.222331.1755245c.5476886-.251868.8696147-.4258861.9657878-.5220591 2.1122218-2.1782287 3.7128659-4.4389322 4.8019802-6.7821782v-.4950496c0-1.2211282.2062686-2.1287099.6188119-2.7227722.4125433-.5940624.9488416-.8910891 1.6089109-.8910891.7260762 0 1.1221119.3300297 1.1881188.990099 0 .1650173-.0412537.4125396-.1237624.7425742-.0825086.3300347-.1237624.6765659-.1237624 1.039604 0 .6270658.099009 1.2871252.2970297 1.980198.1980208.6930728.5115491 1.6336574.9405941 2.8217822.5280554 1.4521525.9323418 2.7062653 1.2128713 3.7623762.2805294 1.0561109.4207921 2.1287075.4207921 3.2178218 0 .5610589-.066006 1.2376198-.1980198 2.029703 1.8098831-.4524708 3.4265654-1.7527768 4.8500775-3.9009473.4405071-2.534748 1.3733161-5.5578512 2.7984373-9.0693498 2.0627168-5.0825336 4.3811748-9.6369435 6.9554458-13.6633663 2.57427-4.0264228 4.471941-6.0396039 5.693069-6.0396039.561059 0 1.039602.4372893 1.435644 1.3118811.396041.8745919.610561 1.7574213.643564 2.6485149 0 1.5181594-.610555 3.7376091-1.831683 6.6584158s-2.863026 5.8828233-4.925743 8.8861386c-2.062716 3.0033154-4.265665 5.4290337-6.608911 7.2772278-.363038 2.0462148-.544554 3.5973544-.544554 4.6534653 0 1.1551213.189767 2.0131985.569307 2.5742574.37954.561059.899336.8415842 1.559406.8415842 1.155121 0 2.384482-.7673191 3.688119-2.3019802.547669-.6447244 1.070579-1.3462359 1.568734-2.1045387.232673-1.5174261.840121-3.126135 1.822355-4.8261544 1.287135-2.2277339 2.937283-4.0924017 4.950495-5.5940594 2.013211-1.5016576 3.993389-2.2524752 5.940594-2.2524752 1.023107 0 1.881184.255773 2.574257.7673267s1.039604 1.3613802 1.039604 2.549505c0 1.5841663-.610555 3.0775507-1.831683 4.480198s-2.79702 2.5495005-4.727723 3.440594c-1.930702.8910936-3.90263 1.4521441-5.915841 1.6831684-.066007.3300346-.09901.7095688-.09901 1.1386138 0 .8580901.239271 1.7161673.717822 2.5742574.47855.8580901 1.509893 1.2871288 3.094059 1.2871288 2.013211 0 4.067646-.8168236 6.163366-2.4504951 1.569234-1.2232612 2.911779-2.6731809 4.027655-4.3497845.075971-.3525398.160813-.717793.254524-1.09576.495051-1.9967097 1.155111-4.1171505 1.980198-6.3613862-.858091-.1650173-1.435643-.3135307-1.732674-.4455445v-1.5346535c.792083.0990104 1.584155.1815178 2.376238.2475247 1.485156-3.7293915 3.077549-6.9306797 4.777228-9.6039603 1.699678-2.6732807 3.077552-4.009901 4.133663-4.009901.363038 0 .684817.1320118.965347.3960396.280529.2640277.420792.6105589.420792 1.0396039 0 .5280555-.231021 1.2376193-.69307 2.1287129-.462048.8910936-1.221117 2.2442153-2.277227 4.0594059-1.452153 2.4422565-2.590755 4.4884406-3.415842 6.1386139 3.212388 0 5.869135-.0827489 7.970297-.2482488v-.1477908c.240564.0300705.481128.0586189.721691.085645.124699-.0117151.247172-.0237618.367418-.0361401v.0762343c.429042.0454367.858083.0860318 1.287129.1217855 1.485156-3.7293915 3.077549-6.9306797 4.777227-9.6039603 1.699679-2.6732807 3.077553-4.009901 4.133664-4.009901.363038 0 .684817.1320118.965346.3960396.28053.2640277.420792.6105589.420792 1.0396039 0 .5280555-.23102 1.2376193-.693069 2.1287129-.462048.8910936-1.221117 2.2442153-2.277228 4.0594059-1.452152 2.4422565-2.590755 4.4884406-3.415841 6.1386139 3.795398 0 6.81517-.1155104 9.059406-.3465347v1.6336634c-3.894409.3960416-7.211208.5940594-9.950495.5940594-1.716181 4.0594263-2.574258 7.3762248-2.574258 9.9504951 0 1.353142.214519 2.3102282.643565 2.8712871.429045.5610589 1.105605.8415842 2.029703.8415842 1.650173 0 3.341575-.7508176 5.074257-2.2524753.807031-.6994272 1.565729-1.5151951 2.276097-2.4473097.201747-1.5907976.820932-3.2832677 1.857566-5.0774428 1.287135-2.2277339 2.937284-4.0924017 4.950495-5.5940594 2.013212-1.5016576 3.99339-2.2524752 5.940594-2.2524752 1.023108 0 1.881185.255773 2.574258.7673267s1.039604 1.3613802 1.039604 2.549505c0 1.5841663-.610555 3.0775507-1.831683 4.480198-1.221129 1.4026473-2.79702 2.5495005-4.727723 3.440594-1.930703.8910936-3.90263 1.4521441-5.915842 1.6831684-.066007.3300346-.09901.7095688-.09901 1.1386138 0 .8580901.239272 1.7161673.717822 2.5742574s1.509893 1.2871288 3.09406 1.2871288c2.013211 0 4.067646-.8168236 6.163366-2.4504951 1.668812-1.3008852 3.081252-2.8581073 4.237345-4.6716972 1.37393-2.5359015 2.593484-5.3103288 3.658694-8.3233523-.330034-.3300347-.495049-.7755747-.495049-1.3366337 0-.8580901.264024-1.6666628.792079-2.4257425.528056-.7590797 1.039602-1.1386139 1.534654-1.1386139.330034 0 .602309.1980178.816831.5940594.214523.3960416.321783.7260713.321783.990099 0 .1320139-.074257.4207899-.222773.8663367l-.321782.9653465c.033004.2310242.165015.4537943.39604.6683168.231024.2145225.660063.5198 1.287128.9158416 1.155122.7590797 2.054453 1.4933958 2.69802 2.2029703.643568.7095745.965347 1.6584099.965347 2.8465347 0 .7260762-.123761 1.4521415-.371287 2.1782178-.247526.7260762-.61881 1.6006549-1.113862 2.6237624-.726076 1.4521524-1.089109 2.491746-1.089109 3.1188118 0 .7590797.412537 1.1386139 1.237624 1.1386139.990104 0 2.070951-.3960356 3.242574-1.1881188s2.24422-1.7574201 3.217822-2.8960396c.053437-.0624938.106103-.1247638.157999-.1868101zm-48.209457-.5599335c.108377-.5719928.242691-1.1811636.402943-1.8275138.495052-1.9967097 1.155112-4.1171505 1.980198-6.3613862-.454825-.0874663-.830834-.170296-1.128029-.2484895-3.685725.3636812-6.841039.5455192-9.46603.5455192-1.71618 4.0594263-2.574258 7.3762248-2.574258 9.9504951 0 1.353142.21452 2.3102282.643565 2.8712871s1.105606.8415842 2.029703.8415842c1.650173 0 3.341575-.7508176 5.074257-2.2524753 1.1028-.9557597 2.115346-2.1287614 3.037651-3.5190208zm-138.21091814 6.7120901c2.90430495-9.2739737 6.02308564-19.6699094 9.35643564-31.1881188.2310243-.924097.3465347-1.5676549.3465347-1.9306931 0-.2640277-.0412538-.445544-.1237624-.5445544-.0825087-.0990104-.2557743-.1485149-.519802-.1485149-.89109356 0-1.74917079.4537909-2.57425742 1.3613862-.82508664.9075953-1.49339679 1.9966933-2.0049505 3.2673267s-.76732673 2.4009851-.76732673 3.3910891c0 .7920832.16501485 1.567653.4950495 2.3267327-1.38614554 0-2.39273614-.288776-3.01980198-.8663367-.62706584-.5775606-.94059406-1.3613811-.94059406-2.3514851 0-1.419149.57755198-2.8877812 1.73267327-4.4059406s2.54949678-2.7722723 4.18316832-3.7623762c1.63367153-.990104 3.0775515-1.4851485 4.3316832-1.4851485 1.419149 0 2.5577515.6765608 3.4158416 2.0297029.85809 1.3531421 1.5098987 3.0527951 1.9554455 5.0990099.4455468 2.0462149.9323406 4.8349659 1.460396 8.3663367.5940624 4.1914401 1.0396025 7.2359641 1.3366337 9.1336633.2970312 1.8976993.6105594 3.6881104.9405941 5.3712872l1.8811881-7.8712872c1.2871351-5.5775856 2.3432302-9.892724 3.1683168-12.9455445.8250866-3.0528206 1.6336594-5.2557688 2.4257426-6.6089109.9901039-1.7491837 2.3267242-2.6237624 4.009901-2.6237624-1.1881248 3.0693223-2.557748 7.3267054-4.1089109 12.7722772s-2.8712817 10.7342978-3.9603961 15.8663367c-1.0891143 5.1320388-1.6336633 8.9191297-1.6336633 11.3613861-1.2871352 0-2.3102273-.3052775-3.069307-.9158416s-1.3201302-1.7244143-1.6831683-3.3415841c-.3960416-1.6831768-1.7656648-9.0098362-4.1089109-21.9801981-.2640277-1.4521524-.478547-2.6237579-.6435643-3.5148514-.1650173-.8910936-.2805277-1.5676545-.3465347-2.029703-2.7392876 9.9670465-4.7359673 16.9884284-5.99009898 21.0643564-1.25413169 4.075928-2.35973119 6.8811805-3.31683169 8.4158416-.95710049 1.5346611-2.07920148 2.3019802-3.36633663 2.3019802zm37.10396044-8.9108911c1.4686542-.8250866 2.7145163-1.8399279 3.7376237-3.0445544s1.5346535-2.3844827 1.5346535-3.539604c0-.3630381-.066006-.6105604-.1980198-.7425742-.1320139-.1320139-.3465332-.1980199-.6435644-.1980199-.9571005 0-2.0049448.4537909-3.1435643 1.3613862-1.1386196.9075953-2.1864639 2.0544485-3.1435644 3.440594-.9571005 1.3861456-1.6666643 2.7722703-2.1287129 4.1584159 1.1881248-.1320139 2.5164943-.6105569 3.9851486-1.4356436zm49.6287128 3.6138614c-.0330034-1.0561109-.1485138-2.0957044-.3465346-3.1188119-.1980208-1.0231074-.4950475-2.3432262-.8910891-3.960396l-.4455446-1.7821782c-1.6171698 2.8052945-3.052799 4.8679802-4.3069307 6.1881188.5610589.9571005 1.3531302 1.8234284 2.3762376 2.5990099 1.0231075.7755814 2.1782114 1.3118797 3.4653466 1.6089109.0990104-.2970312.1485148-.8085773.1485148-1.5346535zm-1.8564356 4.4554456c.5775606-.3300347 1.01485-.8085778 1.3118812-1.4356436-1.2871352-.2640277-2.4752421-.767323-3.5643565-1.509901-1.0891143-.742578-1.963693-1.5429-2.6237623-2.4009901-.4620486.0990104-.6930693.5445505-.6930693 1.3366337 0 1.1881247.3300297 2.235969.990099 3.1435643s1.567651 1.3613862 2.7227722 1.3613862c.6600693 0 1.278875-.1650149 1.8564357-.4950495zm20.5445545-18.5148515c1.567665-2.5742703 2.821777-5.0164901 3.762376-7.3267327s1.410891-4.026397 1.410891-5.1485149c-.429045 0-1.295373 1.0065906-2.59901 3.019802s-2.67326 4.5131864-4.108911 7.5c-1.43565 2.9868136-2.599005 5.8828243-3.490099 8.6881188 1.782188-1.914201 3.457088-4.1584029 5.024753-6.7326732zm9.306931 10.4455445c1.468654-.8250866 2.714516-1.8399279 3.737623-3.0445544 1.023108-1.2046265 1.534654-2.3844827 1.534654-3.539604 0-.3630381-.066006-.6105604-.19802-.7425742-.132014-.1320139-.346533-.1980199-.643564-.1980199-.957101 0-2.004945.4537909-3.143565 1.3613862-1.138619.9075953-2.186464 2.0544485-3.143564 3.440594-.957101 1.3861456-1.666664 2.7722703-2.128713 4.1584159 1.188125-.1320139 2.516494-.6105569 3.985149-1.4356436zm45.396039 0c1.468654-.8250866 2.714517-1.8399279 3.737624-3.0445544s1.534653-2.3844827 1.534653-3.539604c0-.3630381-.066005-.6105604-.198019-.7425742-.132014-.1320139-.346534-.1980199-.643565-.1980199-.9571 0-2.004944.4537909-3.143564 1.3613862s-2.186464 2.0544485-3.143564 3.440594c-.957101 1.3861456-1.666665 2.7722703-2.128713 4.1584159 1.188124-.1320139 2.516494-.6105569 3.985148-1.4356436zm36.361386 3.6138614c-.033003-1.0561109-.148513-2.0957044-.346534-3.1188119-.198021-1.0231074-.495048-2.3432262-.891089-3.960396l-.445545-1.7821782c-1.61717 2.8052945-3.052799 4.8679802-4.306931 6.1881188.561059.9571005 1.353131 1.8234284 2.376238 2.5990099 1.023107.7755814 2.178211 1.3118797 3.465347 1.6089109.09901-.2970312.148514-.8085773.148514-1.5346535zm-1.856435 4.4554456c.57756-.3300347 1.01485-.8085778 1.311881-1.4356436-1.287135-.2640277-2.475242-.767323-3.564357-1.509901-1.089114-.742578-1.963693-1.5429-2.623762-2.4009901-.462048.0990104-.693069.5445505-.693069 1.3366337 0 1.1881247.33003 2.235969.990099 3.1435643s1.567651 1.3613862 2.722772 1.3613862c.660069 0 1.278875-.1650149 1.856436-.4950495zm-34.241123-41.5450847c-4.915382.0329892-4.470029-1.4845114-7.356579-1.501006-.956685.0164946-1.533995.5608154-1.632962.7587503.002337.0137086-.002118.0276995-.011951.0375328-.009834.0098333-.023824.0142882-.037533.0119509h-.230924c-.016558.0009584-.032495-.0064423-.042446-.0197108-.009952-.0132685-.012594-.0306402-.007038-.0462675v-8.7751123c.016495-.1319566.164946-.0989675.181441.0494837.230924 3.1009795 3.051495 8.9895418 9.105003 8.9895418 4.387557 0 7.307096-3.2329361 7.307096-6.053508 0-2.1772835.379375-4.5195127-7.307096-7.554514-5.113317-2.0288324-9.121498-3.7442679-9.121498-9.51736808 0-4.32157789 3.975192-8.37924262 9.105004-8.37924262 2.870055 0 3.85973 1.36904948 6.416388 1.36904948.824729 0 1.336061-.51133173 1.880382-1.10513633.18144-.19793486.230924-.08247286.230924 0s1.33606 6.71329084 1.33606 6.71329084c-.032989.19793487-.164946.19793487-.247419.08247286-.032989-.04948371-3.595816-6.41638854-9.665819-6.41638854-5.756606 0-7.307095 7.04318228-2.589648 9.69880839 6.482367 3.661795 14.614191 4.7339422 14.614191 11.8431028 0 5.7731002-6.152475 9.8142703-11.925576 9.8142703zm-35.562297-.6762774h.00165c-.131957 0-.148452-.1484512-.016495-.1484512.445353 0 3.595817-.0824728 3.975192-2.8535609l.016494-25.05525503s.065979-2.25975637-4.057664-2.2432618c-.247419 0-.21443-.18144029 0-.18144029h23.140235c.098967 0 .082473.06597829.082473.06597829l1.684096 5.80608937s.082472.36288058-.197935.18144029c-.148452-.09896743-3.133969-5.60815451-9.286444-5.60815451-2.70511 0-6.020519-.18144029-6.020519 2.02883237v10.35859131c-.004837.0406629.009241.0812982.038197.110254.028956.0289557.069591.0430337.110254.0381971h6.119486s2.670471-.0824729 3.612311-2.9525284c.049484-.1319566.148452.0329891.148452.0329891v6.8287529c-.082473.1649457-.164946-.0329892-.164946-.0329892-.511332-3.5298384-3.595817-3.3483981-3.595817-3.3483981h-6.13763c-.084677.0166486-.142208.0957532-.131957.1814403v12.8987554c0 4.0411701 7.125655 3.315409 7.125655 3.315409 6.696797 0 8.956553-8.5111992 8.956553-8.5111992s.115462-.0659783.115462.0824728v9.0060364zm-28.154585-.1484512c2.804077 0 2.88655-2.6556261 2.88655-2.6556261v-25.08824411s-.084122-2.44119666-2.9871669-2.44119666c-.1649457 0-.1814403-.14845115 0-.14845115h14.9275879c.18144.01649457 16.131691-.49483717 16.131691 15.80180002 0 0-.412364 14.6636746-17.220333 14.6801692h-13.7399785c-.1303071 0-.1484511-.1484512 0-.1484512zm25.566587-15.2574791c.032989-16.41209926-13.459571-14.4987289-14.960577-14.51522347-1.022664-.01649457-2.276251.24741858-2.490681 2.21027266v24.85732011s-.280407 2.3092401 4.882394 2.3092401c12.766799.0329892 12.585358-14.5482126 12.585358-14.5482126v-.3133968zm-34.8546806 13.1131848v-25.58308133s-.0494837-2.44119667-2.9525284-2.44119667c-.230924 0-.2144294-.14845115-.0164945-.14845115h10.985385c.1484511 0 .1319565.14845115 0 .14845115-.0824729 0-3.0350013-.11546201-3.0350013 2.45769124 0 0-.0164946 23.37280866-.0164946 25.53359756 0 2.160789 2.9030447 2.1772835 3.0366507 2.1772835.1336061 0 .1484512.1484512.0164946.1484512h-16.3956046c-.0533842.0041084-.1020346-.0306419-.115462-.0824729l-4.7999205-10.2431292c-1.0226635-2.4247021-2.1277998-3.892719-4.1896213-4.0906539-1.4350278-.1484512-2.853561-.2474186-2.8700556.0659783v11.216309s-.0164945 3.0185067 3.2989144 3.0185067c.1814403 0 .1814403.115462 0 .115462h-11.793619c-.1814403 0-.1814403-.115462 0-.115462 3.4803547 0 3.3319036-3.0350013 3.3319036-3.0350013v-24.72536353s-.0346386-2.45769124-2.9211887-2.45769124c-.2144295 0-.1649458-.14845115-.0329892-.14845115h14.8286203s8.0493512-.13195658 8.0493512 8.31326433c0 6.07000249-7.4885357 7.32358999-7.4885357 7.32358999-.1649458.0494837 0 .1484512 0 .1484512 2.321438.4854833 4.2639408 2.0653036 5.2122847 4.239105 1.6494573 3.661795 2.9855176 6.6638071 2.9855176 6.6638071 1.2370929 2.9195393 2.4082075 3.5628276 3.2164415 3.5298384.8412232-.0494837 1.6659518-.461848 1.6659518-2.0288323zm-20.2718291-13.1626686c.0824729.3133969 1.1051364.3463861 3.1504633.3463861 6.3009265 0 6.3009265-6.38339944 6.3009265-6.38339944 0-8.46171548-4.6679639-8.56068291-6.5648396-8.56068291-3.1504633 0-2.8865502 2.39171295-2.8865502 2.39171295zm-7.0250382 6.7297855s.097318 8.7586177-10.1441618 8.7586177h-15.0430498c-.1814403 0-.1979349-.1484511.0164946-.1484511 2.8205718 0 2.8700555-2.6391315 2.8700555-2.6391315v-24.64289074c0-3.34839814-3.7442678-3.08448498-3.7442678-3.08448498-.2474186 0-.230924-.21442944 0-.21442944 0 0 6.7132908-.01649457 9.1214983 0 8.0823403.04948372 9.3359278.39586973 9.5668518.39586973.5608155 0 6.3339157 1.46801691 6.3339157 6.81225827 0 5.69062736-7.4555466 6.25144286-7.785438 6.25144286-.1484512 0-.1649457.1814403 0 .1814403-.0164946 0 8.8081015 1.2535874 8.8081015 8.3297589zm-16.6446727-9.0390255c.2144294 0 4.8823933.0989674 5.4432088.1649457 1.3030712.1319566 5.1463065-.6762775 5.1463065-5.65763825 0-6.9112257-5.5421762-6.84524742-5.5586708-6.84524742-2.0948107-.115462-5.2106353-.4123643-5.2106353 1.78141379v10.35859128c-.0062576.0509777.0100014.1021525.0445343.1401704.0345329.0380178.0839137.0591071.1352565.0577645zm10.8039447 10.0451944c.0164946-2.9030447-.461848-8.7751124-4.9978553-9.2039713-1.946897-.1717171-3.9013311-.243288-5.8555731-.2144294-.059352-.009866-.1198164.0095249-.1623605.052069-.042544.0425441-.061935.1030085-.052069.1623604l-.0164945 13.8719352s-.7092666 2.5071749 4.7174476 2.5071749c5.5916599 0 6.3669048-5.5256816 6.3669048-7.1751388z" fill="#fff"/></svg>