<svg viewBox="0 0 647 72"><path d="M610.529 53.769c.186-1.179.546-2.064 1.081-2.656a8.77 8.77 0 011.913-1.609c.2-.362.383-.72.547-1.071l.625.468c.833-.39 1.327-.663 1.484-.82 3.749-3.866 6.59-7.878 8.523-12.037v-.879c0-2.167.366-3.778 1.098-4.832.732-1.055 1.684-1.582 2.856-1.582 1.289 0 1.991.586 2.109 1.757 0 .293-.074.733-.22 1.318-.146.586-.22 1.201-.22 1.846 0 1.113.176 2.284.527 3.514.352 1.23.908 2.9 1.67 5.008.937 2.578 1.655 4.804 2.153 6.678.497 1.875.746 3.778.746 5.711 0 .996-.117 2.197-.351 3.603 3.983-.996 7.44-4.306 10.368-9.929l1.054.79c-1.171 3.34-2.797 6.034-4.876 8.084-2.08 2.05-4.525 3.28-7.337 3.69-.937 2.344-2.46 4.116-4.569 5.316-2.109 1.201-4.54 1.802-7.293 1.802-4.1 0-7.131-1.186-9.093-3.559a12.523 12.523 0 01-2.752-6.052c-1.93 2.06-4.059 3.77-6.386 5.13-2.607 1.523-5.17 2.284-7.689 2.284-2.167 0-3.924-.571-5.271-1.713s-2.021-2.68-2.021-4.613c0-1.113.22-2.329.659-3.647s1.098-2.914 1.977-4.788c.761-1.64 1.347-3.031 1.757-4.174s.615-2.152.615-3.031c0-2.226-1.464-4.1-4.393-5.623a99.038 99.038 0 01-4.086 8.874c-1.552 2.987-2.943 5.506-4.173 7.556l-.03-.058a30.36 30.36 0 01-7.483 7.966c-4.364 3.222-8.889 4.833-13.575 4.833-3.69 0-6.56-.996-8.61-2.988-1.747-1.697-2.75-3.797-3.009-6.302a33.797 33.797 0 01-4.02 4.325c-3.808 3.427-7.762 5.14-11.862 5.14-2.695 0-4.804-.776-6.327-2.328-1.523-1.552-2.284-3.851-2.284-6.897 0-.439.016-.9.048-1.386a34.305 34.305 0 01-4.88 5.471c-3.808 3.427-7.762 5.14-11.862 5.14-2.695 0-4.804-.776-6.327-2.328-1.523-1.552-2.284-3.851-2.284-6.897 0-.372.012-.76.035-1.166a30.18 30.18 0 01-5.615 5.383c-4.363 3.222-8.888 4.833-13.575 4.833-3.69 0-6.56-.996-8.61-2.988-1.657-1.609-2.644-3.581-2.962-5.916a30.72 30.72 0 01-2.925 3.236c-3.105 2.959-6.326 4.438-9.665 4.438-2.578 0-4.452-.85-5.624-2.549-1.171-1.698-1.757-3.953-1.757-6.765 0-.467.014-.948.041-1.442a17.192 17.192 0 01-1.579 1.793c-2.079 2.05-4.525 3.28-7.336 3.69-.937 2.344-2.46 4.116-4.57 5.316-2.108 1.201-4.539 1.802-7.292 1.802-4.1 0-7.132-1.186-9.094-3.559-1.758-2.125-2.728-4.615-2.911-7.469-1.245.733-2.515 1.099-3.81 1.099-1.816 0-3.413-.659-4.79-1.977-1.376-1.318-2.474-3.09-3.294-5.316-2.636 4.57-5.36 8.391-8.171 11.467s-5.507 4.612-8.084 4.612c-1.816 0-3.104-.776-3.866-2.328-.761-1.552-1.2-3.705-1.318-6.458l.088-2.109c0-1.171.059-2.46.176-3.866-2.285 4.16-4.57 7.542-6.854 10.149s-4.627 3.91-7.029 3.91c-1.933 0-3.558-.894-4.876-2.68s-1.977-3.94-1.977-6.458c0-.16.002-.322.007-.487a30.2 30.2 0 01-6.114 6.022c-4.364 3.222-8.889 4.833-13.575 4.833-3.69 0-6.56-.996-8.61-2.988s-3.076-4.54-3.076-7.644c0-3.397 1.142-7.073 3.427-11.027 2.284-3.954 5.213-7.263 8.786-9.929 3.573-2.665 7.088-3.997 10.544-3.997 1.816 0 3.339.454 4.569 1.361 1.23.908 1.845 2.417 1.845 4.525 0 2.812-1.084 5.463-3.25 7.952-2.168 2.49-4.965 4.525-8.392 6.107s-6.927 2.577-10.5 2.987c-.117.586-.176 1.26-.176 2.021 0 1.523.425 3.046 1.275 4.569.849 1.523 2.68 2.284 5.491 2.284 3.573 0 7.22-1.45 10.94-4.349 3.094-2.412 5.692-5.321 7.793-8.727.128-.49.269-.993.421-1.509.938-3.163 2.036-5.916 3.295-8.26 1.26-2.342 2.358-3.514 3.295-3.514.528 0 1.274.264 2.24.79.967.528 1.568 1.114 1.802 1.758-1.23 1.758-2.49 4.335-3.778 7.732-1.289 3.398-1.933 6.327-1.933 8.787 0 1.171.176 2.328.527 3.47.352 1.143 1.084 1.714 2.197 1.714 2.987 0 7.175-5.243 12.564-15.728.469-2.46.879-4.247 1.23-5.36.352-1.113.703-1.83 1.055-2.152.351-.323.85-.484 1.493-.484 1.113 0 1.977.22 2.592.66.616.439.923 1.068.923 1.888 0 .176-.146.703-.44 1.582-.585 1.874-1.054 4.261-1.405 7.16a72.587 72.587 0 00-.527 8.743c0 1.582.102 2.724.307 3.427.205.703.63 1.055 1.274 1.055 1.523 0 3.53-1.714 6.019-5.14s4.789-7.308 6.897-11.643c0-4.159.425-7.058 1.274-8.698s2.036-2.46 3.559-2.46c1.289 0 2.255.424 2.9 1.274.644.849.966 1.684.966 2.504 0 .586-.161 1.171-.483 1.757s-.542.996-.66 1.23c-1.17 2.343-1.757 4.95-1.757 7.82 0 4.335 1.29 6.502 3.866 6.502 1.079 0 2.143-.467 3.194-1.402.176-1.28.546-2.233 1.112-2.86a8.687 8.687 0 012.105-1.723c.118-.224.236-.455.355-.693l.395.312c.972-.447 1.543-.756 1.714-.927 3.749-3.866 6.59-7.878 8.523-12.037v-.879c0-2.167.366-3.778 1.098-4.832.732-1.055 1.684-1.582 2.855-1.582 1.29 0 1.992.586 2.11 1.757 0 .293-.074.733-.22 1.318-.147.586-.22 1.201-.22 1.846 0 1.113.176 2.284.527 3.514.352 1.23.908 2.9 1.67 5.008.937 2.578 1.654 4.804 2.152 6.678.498 1.875.747 3.778.747 5.711 0 .996-.117 2.197-.351 3.603 3.212-.803 6.081-3.111 8.608-6.924.782-4.499 2.437-9.864 4.967-16.097 3.66-9.02 7.776-17.104 12.345-24.25 4.569-7.147 7.937-10.72 10.104-10.72.996 0 1.845.776 2.548 2.329.703 1.552 1.084 3.119 1.142 4.7 0 2.695-1.083 6.634-3.25 11.818s-5.082 10.441-8.743 15.772c-3.661 5.33-7.571 9.636-11.73 12.916-.644 3.632-.967 6.385-.967 8.26 0 2.05.337 3.572 1.01 4.568.674.996 1.597 1.494 2.769 1.494 2.05 0 4.232-1.362 6.545-4.086.972-1.144 1.9-2.39 2.785-3.735.413-2.693 1.49-5.549 3.234-8.566 2.285-3.954 5.213-7.263 8.787-9.929 3.573-2.665 7.087-3.997 10.543-3.997 1.816 0 3.34.454 4.57 1.361 1.23.908 1.844 2.417 1.844 4.525 0 2.812-1.083 5.463-3.25 7.952-2.168 2.49-4.965 4.525-8.392 6.107s-6.926 2.577-10.5 2.987c-.117.586-.175 1.26-.175 2.021 0 1.523.425 3.046 1.274 4.569.85 1.523 2.68 2.284 5.491 2.284 3.574 0 7.22-1.45 10.94-4.349a32.665 32.665 0 007.148-7.72c.135-.626.286-1.274.452-1.945.878-3.544 2.05-7.307 3.514-11.29-1.523-.293-2.548-.557-3.075-.791v-2.724c1.406.176 2.812.322 4.218.44 2.636-6.62 5.462-12.302 8.479-17.046s5.462-7.117 7.336-7.117c.645 0 1.216.234 1.714.702s.746 1.084.746 1.846c0 .937-.41 2.196-1.23 3.778-.82 1.581-2.167 3.983-4.041 7.205-2.578 4.334-4.599 7.966-6.063 10.895 5.701 0 10.417-.147 14.146-.44v-.263c.427.053.854.104 1.281.152.221-.02.439-.042.652-.064v.135c.762.08 1.523.153 2.285.216 2.636-6.619 5.462-12.3 8.479-17.045 3.016-4.745 5.462-7.117 7.336-7.117.645 0 1.216.234 1.714.702.497.47.746 1.084.746 1.846 0 .937-.41 2.196-1.23 3.778-.82 1.581-2.167 3.983-4.041 7.205-2.578 4.334-4.599 7.966-6.063 10.895 6.736 0 12.096-.205 16.08-.615v2.9c-6.913.702-12.8 1.054-17.662 1.054-3.046 7.205-4.569 13.092-4.569 17.66 0 2.402.381 4.1 1.143 5.097.761.995 1.962 1.493 3.602 1.493 2.929 0 5.93-1.332 9.006-3.998 1.433-1.24 2.78-2.689 4.04-4.343.358-2.824 1.457-5.828 3.297-9.012 2.284-3.954 5.213-7.263 8.786-9.929 3.573-2.665 7.088-3.997 10.544-3.997 1.816 0 3.339.454 4.569 1.361 1.23.908 1.845 2.417 1.845 4.525 0 2.812-1.084 5.463-3.25 7.952-2.168 2.49-4.965 4.525-8.392 6.107s-6.927 2.577-10.5 2.987c-.117.586-.175 1.26-.175 2.021 0 1.523.424 3.046 1.274 4.569.849 1.523 2.68 2.284 5.491 2.284 3.573 0 7.22-1.45 10.94-4.349a32.737 32.737 0 007.52-8.291c2.438-4.501 4.603-9.426 6.494-14.773-.586-.586-.88-1.377-.88-2.373 0-1.523.47-2.958 1.407-4.305s1.845-2.02 2.724-2.02c.585 0 1.069.35 1.45 1.054.38.703.57 1.288.57 1.757 0 .234-.131.747-.395 1.538l-.571 1.713c.059.41.293.805.703 1.186s1.171.923 2.284 1.626c2.05 1.347 3.647 2.65 4.789 3.91 1.142 1.259 1.713 2.943 1.713 5.052 0 1.288-.22 2.577-.659 3.866s-1.098 2.84-1.977 4.657c-1.288 2.577-1.933 4.422-1.933 5.535 0 1.347.733 2.02 2.197 2.02 1.757 0 3.676-.702 5.755-2.108s3.983-3.119 5.711-5.14a39.9 39.9 0 00.28-.331zm-85.565-.994c.192-1.016.43-2.097.715-3.244.878-3.544 2.05-7.307 3.514-11.29a31.44 31.44 0 01-2.002-.441c-6.541.645-12.142.968-16.8.968-3.047 7.205-4.57 13.092-4.57 17.66 0 2.402.381 4.1 1.143 5.097s1.962 1.493 3.602 1.493c2.929 0 5.93-1.332 9.006-3.998 1.958-1.696 3.755-3.778 5.392-6.245zM279.658 64.688c5.155-16.46 10.69-34.912 16.607-55.355.41-1.64.615-2.782.615-3.427 0-.468-.073-.79-.22-.966-.146-.176-.454-.264-.922-.264-1.582 0-3.105.806-4.57 2.417s-2.65 3.543-3.558 5.799c-.908 2.255-1.362 4.261-1.362 6.018 0 1.406.293 2.783.879 4.13-2.46 0-4.247-.513-5.36-1.538-1.113-1.025-1.67-2.416-1.67-4.173 0-2.519 1.026-5.126 3.076-7.82 2.05-2.695 4.525-4.92 7.425-6.678S296.06.195 298.286.195c2.518 0 4.54 1.201 6.062 3.603 1.523 2.401 2.68 5.418 3.471 9.05.79 3.631 1.655 8.581 2.592 14.849 1.054 7.439 1.845 12.843 2.372 16.21s1.084 6.547 1.67 9.534l3.339-13.97c2.284-9.9 4.159-17.559 5.623-22.977s2.9-9.328 4.305-11.73c1.758-3.104 4.13-4.657 7.117-4.657-2.108 5.448-4.54 13.004-7.292 22.67-2.754 9.665-5.097 19.051-7.03 28.16-1.933 9.109-2.9 15.83-2.9 20.165-2.284 0-4.1-.542-5.447-1.626-1.347-1.083-2.343-3.06-2.987-5.93-.703-2.988-3.134-15.992-7.293-39.012-.468-2.578-.85-4.657-1.142-6.239a96.265 96.265 0 01-.615-3.602c-4.862 17.69-8.406 30.152-10.632 37.386-2.226 7.234-4.188 12.213-5.887 14.937s-3.69 4.086-5.974 4.086zm65.855-15.816c2.606-1.464 4.818-3.265 6.634-5.404 1.815-2.138 2.723-4.232 2.723-6.282 0-.644-.117-1.083-.351-1.318-.234-.234-.615-.351-1.142-.351-1.699 0-3.559.805-5.58 2.416-2.02 1.61-3.88 3.646-5.58 6.107-1.698 2.46-2.957 4.92-3.777 7.38 2.108-.234 4.466-1.083 7.073-2.548zm88.084 6.414a34.804 34.804 0 00-.615-5.535c-.352-1.816-.879-4.16-1.582-7.03l-.79-3.162c-2.87 4.979-5.419 8.64-7.645 10.983.996 1.698 2.402 3.236 4.218 4.612 1.816 1.377 3.866 2.329 6.15 2.856.176-.527.264-1.435.264-2.724zm-3.295 7.908c1.025-.586 1.801-1.435 2.328-2.548a17.29 17.29 0 01-6.326-2.68c-1.933-1.318-3.485-2.738-4.657-4.261-.82.175-1.23.966-1.23 2.372 0 2.109.586 3.969 1.758 5.58 1.171 1.61 2.782 2.416 4.832 2.416 1.172 0 2.27-.293 3.295-.879zm36.464-32.861c2.782-4.57 5.008-8.904 6.677-13.004 1.67-4.1 2.505-7.146 2.505-9.138-.762 0-2.3 1.786-4.613 5.36-2.314 3.573-4.745 8.01-7.293 13.311s-4.613 10.441-6.195 15.42c3.164-3.397 6.136-7.38 8.919-11.95zm16.518 18.54c2.607-1.465 4.818-3.266 6.634-5.405 1.816-2.138 2.724-4.232 2.724-6.282 0-.644-.117-1.083-.352-1.318-.234-.234-.615-.351-1.142-.351-1.699 0-3.558.805-5.58 2.416-2.02 1.61-3.88 3.646-5.579 6.107s-2.958 4.92-3.778 7.38c2.109-.234 4.467-1.083 7.073-2.548zm80.572 0c2.607-1.465 4.818-3.266 6.634-5.405 1.816-2.138 2.723-4.232 2.723-6.282 0-.644-.117-1.083-.351-1.318-.234-.234-.615-.351-1.142-.351-1.699 0-3.559.805-5.58 2.416-2.02 1.61-3.88 3.646-5.58 6.107-1.698 2.46-2.957 4.92-3.777 7.38 2.109-.234 4.466-1.083 7.073-2.548zm64.536 6.413a34.804 34.804 0 00-.615-5.535c-.351-1.816-.878-4.16-1.581-7.03l-.791-3.162c-2.87 4.979-5.418 8.64-7.644 10.983.995 1.698 2.401 3.236 4.217 4.612 1.816 1.377 3.866 2.329 6.15 2.856.176-.527.264-1.435.264-2.724zm-3.295 7.908c1.025-.586 1.802-1.435 2.329-2.548a17.29 17.29 0 01-6.326-2.68c-1.934-1.318-3.486-2.738-4.657-4.261-.82.175-1.23.966-1.23 2.372 0 2.109.585 3.969 1.757 5.58 1.171 1.61 2.782 2.416 4.832 2.416 1.172 0 2.27-.293 3.295-.879zm-393.49 4.703c-8.997.06-8.182-2.717-13.466-2.747-1.751.03-2.808 1.026-2.99 1.389a.079.079 0 01-.09.09h-.422a.09.09 0 01-.091-.12V50.445c.03-.242.302-.182.332.09.423 5.676 5.586 16.456 16.667 16.456 8.031 0 13.376-5.918 13.376-11.081 0-3.986.694-8.273-13.376-13.83-9.36-3.713-16.697-6.853-16.697-17.42 0-7.911 7.277-15.339 16.667-15.339 5.253 0 7.065 2.506 11.745 2.506 1.51 0 2.446-.936 3.442-2.023.332-.362.423-.15.423 0s2.445 12.289 2.445 12.289c-.06.362-.302.362-.453.15-.06-.09-6.582-11.744-17.693-11.744-10.537 0-13.376 12.892-4.74 17.753 11.866 6.703 26.751 8.666 26.751 21.68 0 10.567-11.262 17.964-21.83 17.964zM166.51 66.66h.003c-.241 0-.272-.271-.03-.271.815 0 6.582-.151 7.277-5.224l.03-45.864s.12-4.136-7.428-4.106c-.453 0-.392-.332 0-.332h42.359c.18 0 .15.12.15.12l3.083 10.629s.151.664-.362.332c-.272-.181-5.737-10.266-16.999-10.266-4.952 0-11.02-.332-11.02 3.714v18.961a.245.245 0 00.271.272h11.202s4.888-.15 6.612-5.404c.091-.242.272.06.272.06v12.5c-.15.302-.302-.06-.302-.06-.936-6.462-6.582-6.13-6.582-6.13h-11.235a.302.302 0 00-.241.332v23.612c0 7.397 13.043 6.069 13.043 6.069 12.259 0 16.395-15.58 16.395-15.58s.211-.121.211.15V66.66zm-51.537-.271c5.133 0 5.284-4.861 5.284-4.861V15.602s-.154-4.468-5.468-4.468c-.302 0-.332-.272 0-.272h27.325c.332.03 29.53-.906 29.53 28.925 0 0-.756 26.842-31.523 26.872H114.97c-.239 0-.272-.271 0-.271zm46.8-27.93c.06-30.042-24.638-26.54-27.386-26.57-1.872-.03-4.166.453-4.559 4.046v45.502s-.513 4.227 8.937 4.227c23.37.06 23.038-26.63 23.038-26.63v-.574zM97.97 62.464v-46.83s-.09-4.47-5.405-4.47c-.422 0-.392-.27-.03-.27h20.11c.27 0 .24.27 0 .27-.152 0-5.557-.21-5.557 4.5 0 0-.03 42.784-.03 46.74s5.314 3.985 5.559 3.985.272.271.03.271H82.636a.202.202 0 01-.212-.15l-8.786-18.75c-1.872-4.44-3.895-7.126-7.669-7.489-2.627-.271-5.223-.453-5.254.121v20.532s-.03 5.525 6.04 5.525c.331 0 .331.211 0 .211h-21.59c-.331 0-.331-.211 0-.211 6.372 0 6.1-5.556 6.1-5.556v-45.26s-.064-4.498-5.347-4.498c-.393 0-.302-.272-.06-.272H73s14.734-.242 14.734 15.217c0 11.112-13.707 13.406-13.707 13.406-.302.09 0 .272 0 .272 4.25.889 7.805 3.78 9.54 7.76 3.02 6.703 5.466 12.198 5.466 12.198 2.264 5.344 4.408 6.522 5.888 6.461 1.54-.09 3.05-.845 3.05-3.713zM60.863 38.368c.151.574 2.023.634 5.767.634 11.534 0 11.534-11.685 11.534-11.685 0-15.489-8.545-15.67-12.017-15.67-5.767 0-5.284 4.378-5.284 4.378zm-12.86 12.32s.18 16.032-18.568 16.032H1.899c-.333 0-.363-.272.03-.272 5.163 0 5.253-4.83 5.253-4.83v-45.11c0-6.13-6.854-5.646-6.854-5.646-.452 0-.422-.393 0-.393 0 0 12.29-.03 16.697 0 14.795.091 17.09.725 17.513.725 1.026 0 11.594 2.687 11.594 12.47 0 10.417-13.648 11.443-14.251 11.443-.272 0-.302.332 0 .332-.03 0 16.123 2.295 16.123 15.248zM17.537 34.14c.392 0 8.937.181 9.964.302 2.385.242 9.42-1.238 9.42-10.356 0-12.651-10.145-12.53-10.175-12.53-3.835-.212-9.538-.755-9.538 3.26V33.78a.323.323 0 00.329.362zM37.312 52.53c.03-5.314-.845-16.063-9.148-16.848a104.445 104.445 0 00-10.719-.393.341.341 0 00-.392.393l-.03 25.393s-1.299 4.589 8.635 4.589c10.235 0 11.654-10.115 11.654-13.134z" fill="#fff"/></svg>