<svg viewBox="0 0 647 72" xmlns="http://www.w3.org/2000/svg"><path d="m610.528697 53.7685059c.185969-1.1782203.546459-2.0634918 1.081472-2.6558279.585475-.6482041 1.223191-1.1844418 1.913159-1.6087204.200538-.3623284.382887-.7193762.547045-1.071144l.624588.4684411c.832679-.3898377 1.327394-.663135 1.484158-.8198988 3.7489-3.8660532 6.58982-7.8784876 8.522847-12.0374237v-.8786441c0-2.1673328.366098-3.7781642 1.098305-4.8325423.732207-1.0543782 1.684062-1.5815594 2.855593-1.5815594 1.288685 0 1.991593.5857569 2.108746 1.7572882 0 .2928828-.073219.7322004-.219661 1.3179661-.146441.5857656-.219661 1.2008103-.219661 1.8451525 0 1.1129547.175727 2.2844684.527187 3.5145763.351459 1.2301078.907928 2.8995149 1.669423 5.0082712.937225 2.5773688 1.654777 4.8032448 2.152678 6.6776949.497901 1.87445.746848 3.7781598.746848 5.7111864 0 .9958016-.117152 2.1966032-.351458 3.6024407 3.983206-.9958016 7.439172-4.3053278 10.368-9.928678l1.054373.7907797c-1.171531 3.3388642-2.797007 6.0333457-4.876475 8.0835254-2.079468 2.0501798-4.525002 3.2802692-7.336678 3.6903051-.937225 2.3430626-2.460192 4.1149771-4.568949 5.3157966-2.108756 1.2008196-4.539647 1.8012204-7.292745 1.8012204-4.10036 0-7.131652-1.1861577-9.093967-3.5585085-1.460772-1.7660085-2.377827-3.7835604-2.751178-6.0526905-1.930449 2.0602718-4.059339 3.7702959-6.38672 5.1301142-2.606657 1.5229907-5.169343 2.2844746-7.688135 2.2844746-2.167333 0-3.924604-.5711129-5.271865-1.7133559s-2.020881-2.6798548-2.020881-4.6128814c0-1.1129547.219659-2.3284002.658983-3.6463729s1.098301-2.9141601 1.976949-4.7886101c.761495-1.6401438 1.347252-3.0313164 1.757288-4.1735594s.615051-2.1526735.615051-3.031322c0-2.2259094-1.464392-4.1003314-4.39322-5.623322-1.171532 2.9288282-2.533416 5.8869003-4.085695 8.8743051-1.552279 2.9874047-2.943452 5.5061592-4.17356 7.5563389l-.030052-.058101c-2.029696 3.1264468-4.523804 5.7817328-7.482354 7.9658976-4.363954 3.2217111-8.888926 4.8325424-13.575051 4.8325424-3.690324 0-6.560532-.9957866-8.610712-2.9873898-1.746731-1.6968241-2.749353-3.7975593-3.007885-6.3022527-1.239717 1.5865217-2.580138 3.0282872-4.021268 4.3253035-3.807476 3.426729-7.761335 5.1400678-11.861695 5.1400678-2.694522 0-4.803246-.7761278-6.326237-2.3284067-1.522991-1.552279-2.284474-3.8513746-2.284474-6.897356 0-.4386605.016197-.9005368.048593-1.3856293-1.473271 2.0448138-3.100313 3.868584-4.881136 5.4713242-3.807476 3.426729-7.761335 5.1400678-11.861695 5.1400678-2.694522 0-4.803246-.7761278-6.326237-2.3284067-1.522991-1.552279-2.284475-3.8513746-2.284475-6.897356 0-.371934.011645-.760558.034935-1.1658724-1.635888 2.033412-3.507326 3.8278619-5.614324 5.3833639-4.363954 3.2217111-8.888926 4.8325424-13.575051 4.8325424-3.690324 0-6.560532-.9957866-8.610712-2.9873898-1.656346-1.6090216-2.643598-3.5812347-2.961774-5.9166797-.947557 1.2026295-1.922603 2.2815665-2.925141 3.2368153-3.104558 2.9581165-6.326221 4.4371525-9.665085 4.4371525-2.577369 0-4.451791-.8493474-5.623322-2.5480678-1.171531-1.6987203-1.757288-3.9538842-1.757288-6.7655593 0-.4670235.013747-.9476839.041242-1.4419812-.49347.6443917-1.01976 1.2422041-1.578869 1.7934388-2.079468 2.0501798-4.525003 3.2802692-7.336678 3.6903051-.937225 2.3430626-2.460193 4.1149771-4.56895 5.3157966-2.108756 1.2008196-4.539647 1.8012204-7.292745 1.8012204-4.10036 0-7.131652-1.1861577-9.093966-3.5585085-1.757994-2.1253357-2.728503-4.6149909-2.911547-7.4690264-1.244472.7325741-2.514492 1.0988569-3.810081 1.0988569-1.815873 0-3.41206-.6589765-4.78861-1.9769492-1.376549-1.3179726-2.474843-3.0898871-3.294915-5.3157966-2.635945 4.568972-5.359715 8.3910355-8.17139 11.4663051s-5.506156 4.6128814-8.083525 4.6128814c-1.815874 0-3.104539-.7761279-3.866034-2.3284068-.761495-1.552279-1.200813-3.7049354-1.317966-6.4580339l.087864-2.1087458c0-1.1715312.058576-2.4601963.175729-3.8660339-2.284486 4.1589361-4.568938 7.5416819-6.853424 10.148339s-4.627513 3.9099661-7.029152 3.9099661c-1.933027 0-3.558502-.8932792-4.876475-2.6798644s-1.976949-3.9392416-1.976949-6.4580339c0-.1594007.002535-.3214944.007604-.4862812-1.751281 2.2981715-3.789337 4.3054113-6.11418 6.0217388-4.363954 3.2217111-8.888926 4.8325424-13.575051 4.8325424-3.690324 0-6.560532-.9957866-8.610712-2.9873898s-3.075254-4.5396455-3.075254-7.6442034c0-3.3974407 1.142226-7.073065 3.426712-11.0269831 2.284486-3.953918 5.21327-7.2634443 8.78644-9.9286779 3.573171-2.6652337 7.087712-3.9978305 10.543729-3.9978305 1.815874 0 3.338841.4539615 4.568949 1.3618983 1.230108.9079367 1.845153 2.4162606 1.845153 4.5250169 0 2.8116751-1.08365 5.4622249-3.250983 7.9517288-2.167333 2.489504-4.964322 4.5250091-8.391051 6.1065763s-6.926626 2.5773539-10.499797 2.9873898c-.117153.5857657-.175728 1.2593861-.175728 2.0208814 0 1.5229907.424673 3.0459585 1.274033 4.5689491.849361 1.5229907 2.679851 2.2844746 5.491526 2.2844746 3.57317 0 7.219507-1.4497482 10.939118-4.3492881 3.094667-2.4123777 5.692604-5.3214158 7.793864-8.7271769.128002-.4897442.268489-.9927529.421459-1.5090265.937225-3.1631345 2.035519-5.9161917 3.294915-8.2592542 1.259396-2.3430626 2.35769-3.5145763 3.294915-3.5145763.527189 0 1.274029.2635906 2.240542.7907797.966514.527189 1.566914 1.1129459 1.801221 1.7572881-1.230108 1.7572969-2.489485 4.3346271-3.77817 7.7320678-1.288684 3.3974407-1.933017 6.326225-1.933017 8.7864407 0 1.1715312.175727 2.328401.527187 3.470644.351459 1.142243 1.083655 1.713356 2.19661 1.713356 2.987405 0 7.175566-5.2425239 12.56461-15.7277289.468613-2.4602156.878642-4.246774 1.230102-5.3597288.351459-1.1129547.702913-1.8305068 1.054373-2.1526779.351459-.3221711.849352-.4832543 1.493695-.4832543 1.112954 0 1.976946.2196589 2.592.6589831.615053.4393242.922576 1.0690128.922576 1.8890847 0 .1757297-.146439.7029109-.439322 1.5815594-.585766 1.87445-1.054371 4.2614092-1.405831 7.1609491-.351459 2.8995399-.527186 5.8136803-.527186 8.7425085 0 1.5815672.102507 2.7237931.307525 3.4267118.205018.7029188.629692 1.0543729 1.274034 1.0543729 1.522991 0 3.529208-1.7133388 6.018712-5.1400678s4.7886-7.3073681 6.897356-11.6420339c0-4.158936.424674-7.0584324 1.274034-8.6985762s2.035518-2.4602034 3.558508-2.4602034c1.288685 0 2.255184.4246737 2.899526 1.2740339.644342.8493601.966508 1.6840637.966508 2.5041356 0 .5857656-.161083 1.1715225-.483254 1.7572881s-.54183.9957954-.658983 1.2301017c-1.171531 2.3430626-1.757288 4.9496806-1.757288 7.8199322 0 4.3346657 1.288665 6.5019661 3.866034 6.5019661 1.0784 0 2.143035-.4674562 3.193936-1.4023823.175603-1.2801157.546075-2.2331243 1.11142-2.8590414.639507-.7080256 1.341342-1.2824647 2.10552-1.7233272.117544-.2241389.235771-.4551202.354683-.692944l.394607.3115315c.972071-.4470307 1.543445-.7558885 1.714139-.9265824 3.7489-3.8660532 6.589821-7.8784876 8.522847-12.0374237v-.8786441c0-2.1673328.366098-3.7781642 1.098305-4.8325423.732207-1.0543782 1.684062-1.5815594 2.855594-1.5815594 1.288684 0 1.991592.5857569 2.108745 1.7572882 0 .2928828-.073219.7322004-.219661 1.3179661-.146441.5857656-.219661 1.2008103-.219661 1.8451525 0 1.1129547.175727 2.2844684.527187 3.5145763.351459 1.2301078.907928 2.8995149 1.669423 5.0082712.937225 2.5773688 1.654778 4.8032448 2.152678 6.6776949.497901 1.87445.746848 3.7781598.746848 5.7111864 0 .9958016-.117151 2.1966032-.351458 3.6024407 3.212291-.8030727 6.081678-3.1109351 8.608214-6.9236393.781839-4.4988254 2.437445-9.8644133 4.966837-16.0968353 3.661035-9.0207908 7.775977-17.1042354 12.344949-24.2505762 4.568972-7.14634085 7.937074-10.71945766 10.104407-10.71945766.995802 0 1.845149.77612783 2.548068 2.32840678.702919 1.55227894 1.083661 3.11917853 1.142237 4.70074576 0 2.69452195-1.08365 6.63373682-3.250983 11.81776272s-5.081473 10.4411937-8.742508 15.771661c-3.661036 5.3304673-7.570963 9.6357802-11.729899 12.9160678-.644342 3.631747-.966508 6.3848042-.966508 8.2592542 0 2.0501798.33681 3.5731476 1.010441 4.5689492.67363.9958016 1.596197 1.4936949 2.767728 1.4936949 2.05018 0 4.232124-1.3618847 6.545899-4.0856949.972036-1.1442962 1.90013-2.3893817 2.784285-3.7352637.412962-2.6932205 1.491099-5.5484552 3.234426-8.5657533 2.284486-3.953918 5.213271-7.2634443 8.786441-9.9286779 3.573171-2.6652337 7.087712-3.9978305 10.543729-3.9978305 1.815873 0 3.338841.4539615 4.568949 1.3618983 1.230108.9079367 1.845153 2.4162606 1.845153 4.5250169 0 2.8116751-1.083651 5.4622249-3.250983 7.9517288-2.167333 2.489504-4.964322 4.5250091-8.391051 6.1065763s-6.926626 2.5773539-10.499797 2.9873898c-.117153.5857657-.175729 1.2593861-.175729 2.0208814 0 1.5229907.424674 3.0459585 1.274034 4.5689491.84936 1.5229907 2.679851 2.2844746 5.491526 2.2844746 3.57317 0 7.219507-1.4497482 10.939118-4.3492881 2.785173-2.1711187 5.168003-4.7445245 7.148527-7.720263.134839-.6257091.285421-1.2739828.451745-1.9448218.878648-3.5438821 2.050162-7.3073699 3.514576-11.2905762-1.522991-.2928828-2.548065-.5564734-3.075254-.7907797v-2.7237966c1.405837.1757297 2.811654.3221689 4.217491.439322 2.635945-6.6191517 5.462222-12.3009932 8.478915-17.0456949s5.462228-7.1170169 7.336678-7.1170169c.644342 0 1.215455.2343027 1.713356.7029152s.746848 1.0836572.746848 1.8451526c0 .937225-.41003 2.1966022-1.230102 3.7781695-.820072 1.5815672-2.167313 3.9831703-4.041763 7.2048813-2.577369 4.3346658-4.59823 7.9663583-6.062644 10.8951865 5.701542 0 10.4169-.1468679 14.14617-.4406072v-.2623081c.426968.053371.853934.1040403 1.2809.152008.221324-.0207926.438696-.0421738.652117-.0641436v.1353052c.761489.0806439 1.522979.1526945 2.284474.2161524 2.635946-6.6191517 5.462222-12.3009932 8.478915-17.0456949 3.016694-4.7447017 5.462228-7.1170169 7.336678-7.1170169.644343 0 1.215456.2343027 1.713356.7029152.497901.4686125.746848 1.0836572.746848 1.8451526 0 .937225-.41003 2.1966022-1.230102 3.7781695-.820072 1.5815672-2.167313 3.9831703-4.041763 7.2048813-2.577368 4.3346658-4.59823 7.9663583-6.062644 10.8951865 6.736305 0 12.09598-.2050149 16.079187-.6150509v2.8995254c-6.912035.7029188-12.798891 1.0543729-17.660746 1.0543729-3.045981 7.2049174-4.568949 13.0917738-4.568949 17.6607458 0 2.4016391.380742 4.100334 1.142237 5.0961356.761496.9958016 1.962297 1.4936949 3.602441 1.4936949 2.928828 0 5.930832-1.3325969 9.006102-3.9978305 1.432368-1.2413862 2.778951-2.6892607 4.039756-4.3436346.358072-2.8234446 1.457039-5.8273438 3.296922-9.0117553 2.284486-3.953918 5.21327-7.2634443 8.78644-9.9286779 3.573171-2.6652337 7.087712-3.9978305 10.543729-3.9978305 1.815873 0 3.338841.4539615 4.568949 1.3618983 1.230108.9079367 1.845153 2.4162606 1.845153 4.5250169 0 2.8116751-1.08365 5.4622249-3.250983 7.9517288-2.167333 2.489504-4.964322 4.5250091-8.391051 6.1065763s-6.926626 2.5773539-10.499797 2.9873898c-.117153.5857657-.175729 1.2593861-.175729 2.0208814 0 1.5229907.424674 3.0459585 1.274034 4.5689491.84936 1.5229907 2.679851 2.2844746 5.491526 2.2844746 3.57317 0 7.219507-1.4497482 10.939118-4.3492881 2.96191-2.3088904 5.468795-5.0727432 7.520699-8.2916133 2.438535-4.5008727 4.603074-9.4250956 6.493674-14.7727935-.585765-.5857656-.878644-1.3765374-.878644-2.372339 0-1.5229906.468606-2.9580949 1.405831-4.3053559s1.845148-2.0208814 2.723796-2.0208814c.585766 0 1.069015.3514542 1.449763 1.0543729.380748.7029188.571119 1.2886756.571119 1.7572882 0 .2343062-.131796.7468435-.39539 1.5376271l-.571119 1.7133559c.058577.410036.292879.8054218.702915 1.1861695s1.17152.9225728 2.284475 1.6254915c2.05018 1.347261 3.646367 2.65057 4.78861 3.9099661 1.142243 1.2593962 1.713356 2.9434471 1.713356 5.0522034 0 1.2886844-.219659 2.5773495-.658983 3.8660339s-1.098301 2.8409401-1.976949 4.6568136c-1.288685 2.5773688-1.933017 4.4225029-1.933017 5.5354576 0 1.347261.732196 2.0208814 2.19661 2.0208814 1.757297 0 3.675651-.7029083 5.755119-2.1087458s3.983178-3.1191763 5.711186-5.1400678c.094843-.1109177.188318-.2214384.280426-.3315619zm-85.565086-.9938042c.192354-1.0152078.430743-2.0964011.715169-3.2435831.878648-3.5438821 2.050162-7.3073699 3.514576-11.2905762-.807251-.1552406-1.474615-.3022517-2.002095-.4410344-6.54165.6454836-12.141894.9682208-16.800888.9682208-3.045981 7.2049174-4.568949 13.0917738-4.568949 17.6607458 0 2.4016391.380742 4.100334 1.142237 5.0961356s1.962297 1.4936949 3.602441 1.4936949c2.928828 0 5.930832-1.3325969 9.006101-3.9978305 1.957317-1.6963407 3.754446-3.7782557 5.391408-6.2457729zm-245.30517 11.9130271c5.154737-16.4600145 10.69014-34.9113554 16.606373-55.35457626.410036-1.64014379.61505-2.78236966.61505-3.42671186 0-.46861251-.073219-.79077878-.219661-.96650848-.146441-.17572969-.453963-.26359322-.922576-.26359322-1.581567 0-3.104535.80541568-4.568949 2.41627119s-2.650572 3.54385313-3.558509 5.79905083c-.907936 2.2551977-1.361898 4.261415-1.361898 6.0187119 0 1.4058375.292879 2.7823661.878644 4.1296271-2.460215 0-4.246774-.5125372-5.359729-1.5376271-1.112954-1.0250899-1.669423-2.4162624-1.669423-4.1735593 0-2.5187923 1.025074-5.1254103 3.075254-7.81993224 2.05018-2.69452195 4.525002-4.920398 7.424542-6.67769492s5.462226-2.6359322 7.688136-2.6359322c2.518792 0 4.539653 1.20080155 6.062644 3.60244068 1.522991 2.40163912 2.67986 5.41828692 3.470644 9.05003388.790784 3.631747 1.654775 8.5813924 2.592 14.8490848 1.054378 7.4392236 1.84515 12.8428306 2.372339 16.210983s1.083658 6.5458834 1.669424 9.5332881l3.338847-13.9704406c2.284486-9.8994394 4.158908-17.5582102 5.623322-22.9765424s2.899519-9.32825918 4.305356-11.72989831c1.757297-3.1045579 4.129612-4.65681356 7.117017-4.65681356-2.108756 5.44762046-4.539647 13.00388387-7.292746 22.66901697-2.753098 9.6651331-5.096126 19.0518866-7.029152 28.1605424-1.933027 9.1086557-2.899526 15.8302156-2.899526 20.1648813-2.284486 0-4.100332-.5418251-5.447593-1.6254915-1.347261-1.0836665-2.343047-3.0605958-2.98739-5.9308475-.702918-2.9874047-3.133809-15.9912069-7.292745-39.0117966-.468613-2.5773688-.849355-4.6568056-1.142238-6.2383729-.292883-1.5815672-.497897-2.7823687-.615051-3.6024406-4.861854 17.6901223-8.405683 30.1520994-10.631593 37.386305-2.225909 7.2342057-4.188195 12.213139-5.886915 14.9369492s-3.690294 4.0856949-5.97478 4.0856949zm65.854373-15.8155932c2.606657-1.4644141 4.817889-3.2656164 6.633762-5.403661 1.815874-2.1380446 2.723797-4.2321254 2.723797-6.2823051 0-.6443422-.117151-1.0836599-.351458-1.3179661-.234306-.2343063-.615048-.3514576-1.142237-.3514576-1.69872 0-3.558498.8054156-5.57939 2.4162711-2.020891 1.6108556-3.880669 3.6463606-5.57939 6.1065763-1.69872 2.4602157-2.958097 4.9203945-3.778169 7.3806102 2.108756-.2343063 4.466427-1.0836537 7.073085-2.5480678zm88.084067 6.4141017c-.058576-1.8744501-.263591-3.7195842-.61505-5.5354576-.35146-1.8158735-.878641-4.1589009-1.58156-7.0291526l-.790779-3.1631186c-2.870252 4.9790079-5.418294 8.6399883-7.644204 10.9830508.995802 1.6987204 2.401618 3.2363321 4.217492 4.6128814 1.815873 1.3765492 3.866022 2.3284041 6.150508 2.8555932.17573-.5271891.263593-1.4351122.263593-2.7237966zm-3.294915 7.9077966c1.02509-.5857656 1.801218-1.4351131 2.328407-2.5480678-2.284486-.4686125-4.393211-1.3618917-6.326237-2.6798644-1.933027-1.3179727-3.485283-2.7384331-4.656814-4.2614237-.820072.1757297-1.230102.9665014-1.230102 2.3723389 0 2.1087564.585757 3.9685344 1.757288 5.5793899 1.171532 1.6108555 2.782363 2.4162712 4.832543 2.4162712 1.171531 0 2.269825-.2928785 3.294915-.8786441zm36.463729-32.8612881c2.782387-4.568972 5.008263-8.9035728 6.677695-13.0039322 1.669432-4.1003595 2.504135-7.1462952 2.504135-9.13789835-.761495 0-2.299107 1.78655841-4.612881 5.35972885-2.313774 3.5731704-4.744665 8.0102785-7.292746 13.3114576-2.54808 5.301179-4.612873 10.4411954-6.19444 15.4202034 3.163134-3.3974407 6.13585-7.3805873 8.918237-11.9495593zm16.518508 18.5393898c2.606657-1.4644141 4.81789-3.2656164 6.633763-5.403661 1.815874-2.1380446 2.723797-4.2321254 2.723797-6.2823051 0-.6443422-.117152-1.0836599-.351458-1.3179661-.234306-.2343063-.615048-.3514576-1.142237-.3514576-1.698721 0-3.558499.8054156-5.57939 2.4162711-2.020891 1.6108556-3.88067 3.6463606-5.57939 6.1065763s-2.958097 4.9203945-3.778169 7.3806102c2.108756-.2343063 4.466427-1.0836537 7.073084-2.5480678zm80.571661 0c2.606658-1.4644141 4.81789-3.2656164 6.633763-5.403661 1.815874-2.1380446 2.723797-4.2321254 2.723797-6.2823051 0-.6443422-.117152-1.0836599-.351458-1.3179661-.234306-.2343063-.615048-.3514576-1.142237-.3514576-1.698721 0-3.558499.8054156-5.57939 2.4162711-2.020891 1.6108556-3.880669 3.6463606-5.57939 6.1065763-1.69872 2.4602157-2.958097 4.9203945-3.778169 7.3806102 2.108756-.2343063 4.466427-1.0836537 7.073084-2.5480678zm64.536407 6.4141017c-.058576-1.8744501-.263591-3.7195842-.615051-5.5354576-.351459-1.8158735-.87864-4.1589009-1.581559-7.0291526l-.79078-3.1631186c-2.870251 4.9790079-5.418294 8.6399883-7.644203 10.9830508.995802 1.6987204 2.401618 3.2363321 4.217491 4.6128814 1.815874 1.3765492 3.866023 2.3284041 6.150509 2.8555932.17573-.5271891.263593-1.4351122.263593-2.7237966zm-3.294915 7.9077966c1.02509-.5857656 1.801218-1.4351131 2.328407-2.5480678-2.284486-.4686125-4.393211-1.3618917-6.326238-2.6798644-1.933026-1.3179727-3.485282-2.7384331-4.656813-4.2614237-.820072.1757297-1.230102.9665014-1.230102 2.3723389 0 2.1087564.585757 3.9685344 1.757288 5.5793899 1.171532 1.6108555 2.782363 2.4162712 4.832543 2.4162712 1.171531 0 2.269825-.2928785 3.294915-.8786441zm-393.490066 4.7033007c-8.99765.0603869-8.182426-2.7174108-13.466281-2.7476043-1.75122.0301935-2.807991 1.0265775-2.989152 1.3888989.004279.0250937-.003876.0507041-.021876.0687041s-.043611.0261547-.068704.0218763h-.422709c-.030309.0017543-.059482-.0117927-.077698-.0360808-.018216-.0242882-.023053-.0560872-.012882-.0846931v-16.0629175c.030194-.2415476.301935-.1811607.332128.0905804.422708 5.6763693 5.585789 16.4554324 16.666787 16.4554324 8.031458 0 13.3757-5.917917 13.3757-11.0809976 0-3.9855359.694449-8.2730064-13.3757-13.8286019-9.359971-3.7137949-16.69698-6.8539141-16.69698-17.421623 0-7.9106849 7.276622-15.3382746 16.666786-15.3382746 5.253661 0 7.065268 2.5060567 11.745254 2.5060567 1.509672 0 2.44567-.9359971 3.442054-2.02296144.332128-.36232145.422708-.15096727.422708 0s2.44567 12.28873574 2.44567 12.28873574c-.060387.3623215-.301935.3623215-.452902.1509673-.060387-.0905804-6.582173-11.7452536-17.693364-11.7452536-10.537516 0-13.3757 12.8926049-4.740372 17.7537509 11.866027 6.7029468 26.7514 8.6655213 26.7514 21.6789 0 10.5677089-11.262159 17.9651051-21.829867 17.9651051zm-65.097087-1.2379316h.003019c-.241548 0-.271741-.2717411-.030193-.2717411.815223 0 6.582173-.1509672 7.276622-5.2234675l.030194-45.8638566s.120773-4.1365032-7.42759-4.1063098c-.452902 0-.392515-.3321279 0-.3321279h42.358396c.181161 0 .150968.1207738.150968.1207738l3.082751 10.6280958s.150968.664256-.362321.332128c-.271741-.1811608-5.736756-10.2657744-16.998915-10.2657744-4.951726 0-11.02061-.332128-11.02061 3.7137948v18.9614892c-.008854.0744339.016916.1488171.06992.2018209.053003.0530037.127387.0787736.201821.0699201h11.201771s4.88832-.1509672 6.612367-5.4046282c.09058-.2415477.271741.0603869.271741.0603869v12.5000899c-.150968.3019346-.301935-.0603869-.301935-.0603869-.935997-6.4613991-6.582173-6.1292711-6.582173-6.1292711h-11.234984c-.155002.0304754-.260312.1752771-.241548.332128v23.611281c0 7.3973962 13.043572 6.0688842 13.043572 6.0688842 12.258543 0 16.395046-15.5798222 16.395046-15.5798222s.211354-.1207738.211354.1509672v16.4856259zm-51.537207-.2717411c5.132887 0 5.283855-4.8611461 5.283855-4.8611461v-45.9242435s-.153987-4.4686312-5.468035-4.4686312c-.301934 0-.332128-.271741 0-.271741h27.325076c.332128.0301934 29.529198-.90580367 29.529198 28.9253289 0 0-.754836 26.8419806-31.521966 26.872174h-25.151147c-.238528 0-.271741-.2717411 0-.2717411zm46.799854-27.9289449c.060387-30.04248672-24.637859-26.5400461-27.385463-26.5702395-1.871994-.0301935-4.166697.4529018-4.559211 4.0459228v45.5015352s-.513289 4.2270835 8.937262 4.2270835c23.369733.0603869 23.037605-26.6306264 23.037605-26.6306264v-.5736756zm-63.8017878 24.0037959v-46.8300471s-.0905804-4.4686312-5.4046283-4.4686312c-.4227083 0-.3925149-.2717411-.0301934-.2717411h20.1088405c.271741 0 .241547.2717411 0 .2717411-.150967 0-5.555596-.2113542-5.555596 4.4988246 0 0-.030193 42.7841243-.030193 46.7394668s5.314048 3.9855359 5.558615 3.9855359.271741.2717411.030193.2717411h-30.0122931c-.0977201.0075205-.1867751-.0560903-.2113542-.1509673l-8.7862951-18.7501349c-1.8719941-4.4384377-3.8949555-7.1256551-7.6691373-7.4879766-2.6268305-.2717411-5.2234675-.4529018-5.253661.1207738v20.5315488s-.0301934 5.525402 6.0386908 5.525402c.332128 0 .332128.2113542 0 .2113542h-21.5883196c-.332128 0-.332128-.2113542 0-.2113542 6.3708188 0 6.0990777-5.5555955 6.0990777-5.5555955v-45.2599875s-.0634062-4.4988247-5.3472607-4.4988247c-.3925149 0-.3019345-.271741-.0603869-.271741h27.1439152s14.7344055-.2415477 14.7344055 15.2175008c0 11.111191-13.7078281 13.4058935-13.7078281 13.4058935-.3019345.0905804 0 .2717411 0 .2717411 4.2494121.8886813 7.8051799 3.7805558 9.5411315 7.7597177 3.0193454 6.7029468 5.4650151 12.1981554 5.4650151 12.1981554 2.2645091 5.3442414 4.4082443 6.5217861 5.8877236 6.4613992 1.5398661-.0905804 3.0495388-.8454168 3.0495388-3.7137949zm-37.1077549-24.0943763c.1509672.5736757 2.0229614.6340626 5.7669497.6340626 11.5338994 0 11.5338994-11.6848667 11.5338994-11.6848667 0-15.4892419-8.5447475-15.6704026-12.0169947-15.6704026-5.7669497 0-5.2838544 4.3780508-5.2838544 4.3780508zm-12.8593921 12.3189293s.1781414 16.032724-18.5689742 16.032724h-27.53643003c-.33212799 0-.36232145-.2717411.03019345-.2717411 5.16308064 0 5.253661-4.8309526 5.253661-4.8309526v-45.1090203c0-6.1292711-6.85391406-5.6461758-6.85391406-5.6461758-.45290181 0-.42270835-.392515 0-.392515 0 0 12.28873574-.0301934 16.69698004 0 14.7947925.0905804 17.089495.7246429 17.5122033.7246429 1.0265775 0 11.5942864 2.6872175 11.5942864 12.4698965 0 10.4167417-13.6474412 11.4433191-14.2513103 11.4433191-.2717411 0-.3019346.332128 0 .332128-.0301935 0 16.1233044 2.2947025 16.1233044 15.2476943zm-30.4682144-16.5460128c.3925149 0 8.9372624.1811607 9.9638398.3019345 2.3852829.2415476 9.4203576-1.2379316 9.4203576-10.3563547 0-12.6510572-10.1450005-12.5302834-10.1751939-12.5302834-3.8345687-.2113542-9.5381122-.7548364-9.5381122 3.260893v18.9614891c-.0114545.0933151.0183078.186991.0815206.2565831.0632128.069592.1536047.1081961.2475881.1057384zm19.7767123 18.3878135c.0301935-5.3140479-.8454167-16.0629176-9.1486165-16.8479474-3.5638114-.3143297-7.1414196-.4453407-10.7186762-.3925149-.1086443-.0180598-.2193249.0174355-.2972021.0953128-.0778773.0778772-.1133726.1885578-.0953128.2972021l-.0301934 25.3926948s-1.2983186 4.589405 8.6353278 4.589405c10.2355809 0 11.6546732-10.114807 11.6546732-13.1341524z" fill="#fff"/></svg>