<svg xmlns="http://www.w3.org/2000/svg" viewBox="0 0 647 72"><title>newsletter</title>
  <path fill="#fff" d="M610.528697,53.7685059 C610.714666,52.5902856 611.075156,51.7050141 611.610169,51.112678 C612.195644,50.4644739 612.83336,49.9282362 613.523328,49.5039576 C613.723866,49.1416292 613.906215,48.7845814 614.070373,48.4328136 L614.694961,48.9012547 C615.52764,48.511417 616.022355,48.2381197 616.179119,48.0813559 C619.928019,44.2153027 622.768939,40.2028683 624.701966,36.0439322 L624.701966,35.1652881 C624.701966,32.9979553 625.068064,31.3871239 625.800271,30.3327458 C626.532478,29.2783676 627.484333,28.7511864 628.655864,28.7511864 C629.944549,28.7511864 630.647457,29.3369433 630.76461,30.5084746 C630.76461,30.8013574 630.691391,31.240675 630.544949,31.8264407 C630.398508,32.4122063 630.325288,33.027251 630.325288,33.6715932 C630.325288,34.7845479 630.501015,35.9560616 630.852475,37.1861695 C631.203934,38.4162773 631.760403,40.0856844 632.521898,42.1944407 C633.459123,44.7718095 634.176675,46.9976855 634.674576,48.8721356 C635.172477,50.7465856 635.421424,52.6502954 635.421424,54.583322 C635.421424,55.5791236 635.304272,56.7799252 635.069966,58.1857627 C639.053172,57.1899611 642.509138,53.8804349 645.437966,48.2570847 L646.492339,49.0478644 C645.320808,52.3867286 643.695332,55.0812101 641.615864,57.1313898 C639.536396,59.1815696 637.090862,60.411659 634.279186,60.8216949 C633.341961,63.1647575 631.818994,64.936672 629.710237,66.1374915 C627.601481,67.3383111 625.17059,67.9387119 622.417492,67.9387119 C618.317132,67.9387119 615.28584,66.7525542 613.323525,64.3802034 C611.862753,62.6141949 610.945698,60.596643 610.572347,58.3275129 C608.641898,60.3877847 606.513008,62.0978088 604.185627,63.4576271 C601.57897,64.9806178 599.016284,65.7421017 596.497492,65.7421017 C594.330159,65.7421017 592.572888,65.1709888 591.225627,64.0287458 C589.878366,62.8865028 589.204746,61.348891 589.204746,59.4158644 C589.204746,58.3029097 589.424405,57.0874642 589.863729,55.7694915 C590.303053,54.4515188 590.96203,52.8553314 591.840678,50.9808814 C592.602173,49.3407376 593.18793,47.949565 593.597966,46.807322 C594.008002,45.665079 594.213017,44.6546485 594.213017,43.776 C594.213017,41.5500906 592.748625,39.6756686 589.819797,38.152678 C588.648265,41.0815062 587.286381,44.0395783 585.734102,47.0269831 C584.181823,50.0143878 582.79065,52.5331423 581.560542,54.583322 L581.53049,54.525221 C579.500794,57.6516678 577.006686,60.3069538 574.048136,62.4911186 C569.684182,65.7128297 565.15921,67.323661 560.473085,67.323661 C556.782761,67.323661 553.912553,66.3278744 551.862373,64.3362712 C550.115642,62.6394471 549.11302,60.5387119 548.854488,58.0340185 C547.614771,59.6205402 546.27435,61.0623057 544.83322,62.359322 C541.025744,65.786051 537.071885,67.4993898 532.971525,67.4993898 C530.277003,67.4993898 528.168279,66.723262 526.645288,65.1709831 C525.122297,63.6187041 524.360814,61.3196085 524.360814,58.2736271 C524.360814,57.8349666 524.377011,57.3730903 524.409407,56.8879978 C522.936136,58.9328116 521.309094,60.7565818 519.528271,62.359322 C515.720795,65.786051 511.766936,67.4993898 507.666576,67.4993898 C504.972054,67.4993898 502.86333,66.723262 501.340339,65.1709831 C499.817348,63.6187041 499.055864,61.3196085 499.055864,58.2736271 C499.055864,57.9016931 499.067509,57.5130691 499.090799,57.1077547 C497.454911,59.1411667 495.583473,60.9356166 493.476475,62.4911186 C489.112521,65.7128297 484.587549,67.323661 479.901424,67.323661 C476.2111,67.323661 473.340892,66.3278744 471.290712,64.3362712 C469.634366,62.7272496 468.647114,60.7550365 468.328938,58.4195915 C467.381381,59.622221 466.406335,60.701158 465.403797,61.6564068 C462.299239,64.6145233 459.077576,66.0935593 455.738712,66.0935593 C453.161343,66.0935593 451.286921,65.2442119 450.11539,63.5454915 C448.943859,61.8467712 448.358102,59.5916073 448.358102,56.7799322 C448.358102,56.3129087 448.371849,55.8322483 448.399344,55.337951 C447.905874,55.9823427 447.379584,56.5801551 446.820475,57.1313898 C444.741007,59.1815696 442.295472,60.411659 439.483797,60.8216949 C438.546572,63.1647575 437.023604,64.936672 434.914847,66.1374915 C432.806091,67.3383111 430.3752,67.9387119 427.622102,67.9387119 C423.521742,67.9387119 420.49045,66.7525542 418.528136,64.3802034 C416.770142,62.2548677 415.799633,59.7652125 415.616589,56.911177 C414.372117,57.6437511 413.102097,58.0100339 411.806508,58.0100339 C409.990635,58.0100339 408.394448,57.3510574 407.017898,56.0330847 C405.641349,54.7151121 404.543055,52.9431976 403.722983,50.7172881 C401.087038,55.2862601 398.363268,59.1083236 395.551593,62.1835932 C392.739918,65.2588628 390.045437,66.7964746 387.468068,66.7964746 C385.652194,66.7964746 384.363529,66.0203467 383.602034,64.4680678 C382.840539,62.9157888 382.401221,60.7631324 382.284068,58.0100339 L382.371932,55.9012881 C382.371932,54.7297569 382.430508,53.4410918 382.547661,52.0352542 C380.263175,56.1941903 377.978723,59.5769361 375.694237,62.1835932 C373.409751,64.7902503 371.066724,66.0935593 368.665085,66.0935593 C366.732058,66.0935593 365.106583,65.2002801 363.78861,63.4136949 C362.470637,61.6271097 361.811661,59.4744533 361.811661,56.955661 C361.811661,56.7962603 361.814196,56.6341666 361.819265,56.4693798 C360.067984,58.7675513 358.029928,60.7747911 355.705085,62.4911186 C351.341131,65.7128297 346.816159,67.323661 342.130034,67.323661 C338.43971,67.323661 335.569502,66.3278744 333.519322,64.3362712 C331.469142,62.344668 330.444068,59.7966257 330.444068,56.6920678 C330.444068,53.2946271 331.586294,49.6190028 333.87078,45.6650847 C336.155266,41.7111667 339.08405,38.4016404 342.65722,35.7364068 C346.230391,33.0711731 349.744932,31.7385763 353.200949,31.7385763 C355.016823,31.7385763 356.53979,32.1925378 357.769898,33.1004746 C359.000006,34.0084113 359.615051,35.5167352 359.615051,37.6254915 C359.615051,40.4371666 358.531401,43.0877164 356.364068,45.5772203 C354.196735,48.0667243 351.399746,50.1022294 347.973017,51.6837966 C344.546288,53.2653638 341.046391,54.2611505 337.47322,54.6711864 C337.356067,55.2569521 337.297492,55.9305725 337.297492,56.6920678 C337.297492,58.2150585 337.722165,59.7380263 338.571525,61.2610169 C339.420886,62.7840076 341.251376,63.5454915 344.063051,63.5454915 C347.636221,63.5454915 351.282558,62.0957433 355.002169,59.1962034 C358.096836,56.7838257 360.694773,53.8747876 362.796033,50.4690265 C362.924035,49.9792823 363.064522,49.4762736 363.217492,48.96 C364.154717,45.7968655 365.253011,43.0438083 366.512407,40.7007458 C367.771803,38.3576832 368.870097,37.1861695 369.807322,37.1861695 C370.334511,37.1861695 371.081351,37.4497601 372.047864,37.9769492 C373.014378,38.5041382 373.614778,39.0898951 373.849085,39.7342373 C372.618977,41.4915342 371.3596,44.0688644 370.070915,47.4663051 C368.782231,50.8637458 368.137898,53.7925301 368.137898,56.2527458 C368.137898,57.424277 368.313625,58.5811468 368.665085,59.7233898 C369.016544,60.8656328 369.74874,61.4367458 370.861695,61.4367458 C373.8491,61.4367458 378.037261,56.1942219 383.426305,45.7090169 C383.894918,43.2488013 384.304947,41.4622429 384.656407,40.3492881 C385.007866,39.2363334 385.35932,38.5187813 385.71078,38.1966102 C386.062239,37.8744391 386.560132,37.7133559 387.204475,37.7133559 C388.317429,37.7133559 389.181421,37.9330148 389.796475,38.372339 C390.411528,38.8116632 390.719051,39.4413518 390.719051,40.2614237 C390.719051,40.4371534 390.572612,40.9643346 390.279729,41.8429831 C389.693963,43.7174331 389.225358,46.1043923 388.873898,49.0039322 C388.522439,51.9034721 388.346712,54.8176125 388.346712,57.7464407 C388.346712,59.3280079 388.449219,60.4702338 388.654237,61.1731525 C388.859255,61.8760713 389.283929,62.2275254 389.928271,62.2275254 C391.451262,62.2275254 393.457479,60.5141866 395.946983,57.0874576 C398.436487,53.6607286 400.735583,49.7800895 402.844339,45.4454237 C402.844339,41.2864877 403.269013,38.3869913 404.118373,36.7468475 C404.967733,35.1067037 406.153891,34.2866441 407.676881,34.2866441 C408.965566,34.2866441 409.932065,34.7113178 410.576407,35.560678 C411.220749,36.4100381 411.542915,37.2447417 411.542915,38.0648136 C411.542915,38.6505792 411.381832,39.2363361 411.059661,39.8221017 C410.73749,40.4078673 410.517831,40.8178971 410.400678,41.0522034 C409.229147,43.395266 408.64339,46.001884 408.64339,48.8721356 C408.64339,53.2068013 409.932055,55.3741017 412.509424,55.3741017 C413.587824,55.3741017 414.652459,54.9066455 415.70336,53.9717194 C415.878963,52.6916037 416.249435,51.7385951 416.81478,51.112678 C417.454287,50.4046524 418.156122,49.8302133 418.9203,49.3893508 C419.037844,49.1652119 419.156071,48.9342306 419.274983,48.6964068 L419.66959,49.0079383 C420.641661,48.5609076 421.213035,48.2520498 421.383729,48.0813559 C425.132629,44.2153027 427.97355,40.2028683 429.906576,36.0439322 L429.906576,35.1652881 C429.906576,32.9979553 430.272674,31.3871239 431.004881,30.3327458 C431.737088,29.2783676 432.688943,28.7511864 433.860475,28.7511864 C435.149159,28.7511864 435.852067,29.3369433 435.96922,30.5084746 C435.96922,30.8013574 435.896001,31.240675 435.749559,31.8264407 C435.603118,32.4122063 435.529898,33.027251 435.529898,33.6715932 C435.529898,34.7845479 435.705625,35.9560616 436.057085,37.1861695 C436.408544,38.4162773 436.965013,40.0856844 437.726508,42.1944407 C438.663733,44.7718095 439.381286,46.9976855 439.879186,48.8721356 C440.377087,50.7465856 440.626034,52.6502954 440.626034,54.583322 C440.626034,55.5791236 440.508883,56.7799252 440.274576,58.1857627 C443.486867,57.38269 446.356254,55.0748276 448.88279,51.2621234 C449.664629,46.763298 451.320235,41.3977101 453.849627,35.1652881 C457.510662,26.1444973 461.625604,18.0610527 466.194576,10.9147119 C470.763548,3.76837105 474.13165,0.195254237 476.298983,0.195254237 C477.294785,0.195254237 478.144132,0.971382069 478.847051,2.52366102 C479.54997,4.07593996 479.930712,5.64283955 479.989288,7.22440678 C479.989288,9.91892873 478.905638,13.8581436 476.738305,19.0421695 C474.570972,24.2261954 471.656832,29.4833632 467.995797,34.8138305 C464.334761,40.1442978 460.424834,44.4496107 456.265898,47.7298983 C455.621556,51.3616453 455.29939,54.1147025 455.29939,55.9891525 C455.29939,58.0393323 455.6362,59.5623001 456.309831,60.5581017 C456.983461,61.5539033 457.906028,62.0517966 459.077559,62.0517966 C461.127739,62.0517966 463.309683,60.6899119 465.623458,57.9661017 C466.595494,56.8218055 467.523588,55.57672 468.407743,54.230838 C468.820705,51.5376175 469.898842,48.6823828 471.642169,45.6650847 C473.926655,41.7111667 476.85544,38.4016404 480.42861,35.7364068 C484.001781,33.0711731 487.516322,31.7385763 490.972339,31.7385763 C492.788212,31.7385763 494.31118,32.1925378 495.541288,33.1004746 C496.771396,34.0084113 497.386441,35.5167352 497.386441,37.6254915 C497.386441,40.4371666 496.30279,43.0877164 494.135458,45.5772203 C491.968125,48.0667243 489.171136,50.1022294 485.744407,51.6837966 C482.317678,53.2653638 478.817781,54.2611505 475.24461,54.6711864 C475.127457,55.2569521 475.068881,55.9305725 475.068881,56.6920678 C475.068881,58.2150585 475.493555,59.7380263 476.342915,61.2610169 C477.192275,62.7840076 479.022766,63.5454915 481.834441,63.5454915 C485.407611,63.5454915 489.053948,62.0957433 492.773559,59.1962034 C495.558732,57.0250847 497.941562,54.4516789 499.922086,51.4759404 C500.056925,50.8502313 500.207507,50.2019576 500.373831,49.5311186 C501.252479,45.9872365 502.423993,42.2237487 503.888407,38.2405424 C502.365416,37.9476596 501.340342,37.684069 500.813153,37.4497627 L500.813153,34.7259661 C502.21899,34.9016958 503.624807,35.048135 505.030644,35.1652881 C507.666589,28.5461364 510.492866,22.8642949 513.509559,18.1195932 C516.526252,13.3748915 518.971787,11.0025763 520.846237,11.0025763 C521.490579,11.0025763 522.061692,11.236879 522.559593,11.7054915 C523.057494,12.174104 523.306441,12.7891487 523.306441,13.5506441 C523.306441,14.4878691 522.896411,15.7472463 522.076339,17.3288136 C521.256267,18.9103808 519.909026,21.3119839 518.034576,24.5336949 C515.457207,28.8683607 513.436346,32.5000532 511.971932,35.4288814 C517.673474,35.4288814 522.388832,35.2820135 526.118102,34.9882742 L526.118102,34.7259661 C526.54507,34.7793371 526.972036,34.8300064 527.399002,34.8779741 C527.620326,34.8571815 527.837698,34.8358003 528.051119,34.8138305 L528.051119,34.9491357 C528.812608,35.0297796 529.574098,35.1018302 530.335593,35.1652881 C532.971539,28.5461364 535.797815,22.8642949 538.814508,18.1195932 C541.831202,13.3748915 544.276736,11.0025763 546.151186,11.0025763 C546.795529,11.0025763 547.366642,11.236879 547.864542,11.7054915 C548.362443,12.174104 548.61139,12.7891487 548.61139,13.5506441 C548.61139,14.4878691 548.20136,15.7472463 547.381288,17.3288136 C546.561216,18.9103808 545.213975,21.3119839 543.339525,24.5336949 C540.762157,28.8683607 538.741295,32.5000532 537.276881,35.4288814 C544.013186,35.4288814 549.372861,35.2238665 553.356068,34.8138305 L553.356068,37.7133559 C546.444033,38.4162747 540.557177,38.7677288 535.695322,38.7677288 C532.649341,45.9726462 531.126373,51.8595026 531.126373,56.4284746 C531.126373,58.8301137 531.507115,60.5288086 532.26861,61.5246102 C533.030106,62.5204118 534.230907,63.0183051 535.871051,63.0183051 C538.799879,63.0183051 541.801883,61.6857082 544.877153,59.0204746 C546.309521,57.7790884 547.656104,56.3312139 548.916909,54.67684 C549.274981,51.8533954 550.373948,48.8494962 552.213831,45.6650847 C554.498317,41.7111667 557.427101,38.4016404 561.000271,35.7364068 C564.573442,33.0711731 568.087983,31.7385763 571.544,31.7385763 C573.359873,31.7385763 574.882841,32.1925378 576.112949,33.1004746 C577.343057,34.0084113 577.958102,35.5167352 577.958102,37.6254915 C577.958102,40.4371666 576.874452,43.0877164 574.707119,45.5772203 C572.539786,48.0667243 569.742797,50.1022294 566.316068,51.6837966 C562.889339,53.2653638 559.389442,54.2611505 555.816271,54.6711864 C555.699118,55.2569521 555.640542,55.9305725 555.640542,56.6920678 C555.640542,58.2150585 556.065216,59.7380263 556.914576,61.2610169 C557.763936,62.7840076 559.594427,63.5454915 562.406102,63.5454915 C565.979272,63.5454915 569.625609,62.0957433 573.34522,59.1962034 C576.30713,56.887313 578.814015,54.1234602 580.865919,50.9045901 C583.304454,46.4037174 585.468993,41.4794945 587.359593,36.1317966 C586.773828,35.546031 586.480949,34.7552592 586.480949,33.7594576 C586.480949,32.236467 586.949555,30.8013627 587.88678,29.4541017 C588.824005,28.1068407 589.731928,27.4332203 590.610576,27.4332203 C591.196342,27.4332203 591.679591,27.7846745 592.060339,28.4875932 C592.441087,29.190512 592.631458,29.7762688 592.631458,30.2448814 C592.631458,30.4791876 592.499662,30.9917249 592.236068,31.7825085 L591.664949,33.4958644 C591.723526,33.9059004 591.957828,34.3012862 592.367864,34.6820339 C592.7779,35.0627816 593.539384,35.6046067 594.652339,36.3075254 C596.702519,37.6547864 598.298706,38.9580954 599.440949,40.2174915 C600.583192,41.4768877 601.154305,43.1609386 601.154305,45.2696949 C601.154305,46.5583793 600.934646,47.8470444 600.495322,49.1357288 C600.055998,50.4244132 599.397021,51.9766689 598.518373,53.7925424 C597.229688,56.3699112 596.585356,58.2150453 596.585356,59.328 C596.585356,60.675261 597.317552,61.3488814 598.781966,61.3488814 C600.539263,61.3488814 602.457617,60.6459731 604.537085,59.2401356 C606.616553,57.8342981 608.520263,56.1209593 610.248271,54.1000678 C610.343114,53.9891501 610.436589,53.8786294 610.528697,53.7685059 Z M524.963611,52.7747017 C525.155965,51.7594939 525.394354,50.6783006 525.67878,49.5311186 C526.557428,45.9872365 527.728942,42.2237487 529.193356,38.2405424 C528.386105,38.0853018 527.718741,37.9382907 527.191261,37.799508 C520.649611,38.4449916 515.049367,38.7677288 510.390373,38.7677288 C507.344392,45.9726462 505.821424,51.8595026 505.821424,56.4284746 C505.821424,58.8301137 506.202166,60.5288086 506.963661,61.5246102 C507.725156,62.5204118 508.925958,63.0183051 510.566102,63.0183051 C513.49493,63.0183051 516.496934,61.6857082 519.572203,59.0204746 C521.52952,57.3241339 523.326649,55.2422189 524.963611,52.7747017 Z M279.658441,64.6877288 C284.813178,48.2277143 290.348581,29.7763734 296.264814,9.33315254 C296.67485,7.69300875 296.879864,6.55078288 296.879864,5.90644068 C296.879864,5.43782817 296.806645,5.1156619 296.660203,4.9399322 C296.513762,4.76420251 296.20624,4.67633898 295.737627,4.67633898 C294.15606,4.67633898 292.633092,5.48175466 291.168678,7.09261017 C289.704264,8.70346568 288.518106,10.6364633 287.610169,12.891661 C286.702233,15.1468587 286.248271,17.153076 286.248271,18.9103729 C286.248271,20.3162104 286.54115,21.692739 287.126915,23.04 C284.6667,23.04 282.880141,22.5274628 281.767186,21.5023729 C280.654232,20.477283 280.097763,19.0861105 280.097763,17.3288136 C280.097763,14.8100213 281.122837,12.2034033 283.173017,9.50888136 C285.223197,6.81435941 287.698019,4.58848336 290.597559,2.83118644 C293.497099,1.07388952 296.059785,0.195254237 298.285695,0.195254237 C300.804487,0.195254237 302.825348,1.39605579 304.348339,3.79769492 C305.87133,6.19933404 307.028199,9.21598184 307.818983,12.8477288 C308.609767,16.4794758 309.473758,21.4291212 310.410983,27.6968136 C311.465361,35.1360372 312.256133,40.5396442 312.783322,43.9077966 C313.310511,47.275949 313.86698,50.45368 314.452746,53.4410847 L317.791593,39.4706441 C320.076079,29.5712047 321.950501,21.9124339 323.414915,16.4941017 C324.879329,11.0757695 326.314434,7.16584252 327.720271,4.76420339 C329.477568,1.65964549 331.849883,0.107389831 334.837288,0.107389831 C332.728532,5.55501029 330.297641,13.1112737 327.544542,22.7764068 C324.791444,32.4415399 322.448416,41.8282934 320.51539,50.9369492 C318.582363,60.0456049 317.615864,66.7671648 317.615864,71.1018305 C315.331378,71.1018305 313.515532,70.5600054 312.168271,69.476339 C310.82101,68.3926725 309.825224,66.4157432 309.180881,63.5454915 C308.477963,60.5580868 306.047072,47.5542846 301.888136,24.5336949 C301.419523,21.9563261 301.038781,19.8768893 300.745898,18.295322 C300.453015,16.7137548 300.248001,15.5129533 300.130847,14.6928814 C295.268993,32.3830037 291.725164,44.8449808 289.499254,52.0791864 C287.273345,59.3133921 285.311059,64.2923254 283.612339,67.0161356 C281.913619,69.7399458 279.922045,71.1018305 277.637559,71.1018305 L279.658441,64.6877288 Z M345.512814,48.8721356 C348.119471,47.4077215 350.330703,45.6065192 352.146576,43.4684746 C353.96245,41.33043 354.870373,39.2363492 354.870373,37.1861695 C354.870373,36.5418273 354.753222,36.1025096 354.518915,35.8682034 C354.284609,35.6338971 353.903867,35.5167458 353.376678,35.5167458 C351.677958,35.5167458 349.81818,36.3221614 347.797288,37.9330169 C345.776397,39.5438725 343.916619,41.5793775 342.217898,44.0395932 C340.519178,46.4998089 339.259801,48.9599877 338.439729,51.4202034 C340.548485,51.1858971 342.906156,50.3365497 345.512814,48.8721356 Z M433.596881,55.2862373 C433.538305,53.4117872 433.33329,51.5666531 432.981831,49.7507797 C432.630371,47.9349062 432.10319,45.5918788 431.400271,42.7216271 L430.609492,39.5585085 C427.73924,44.5375164 425.191198,48.1984968 422.965288,50.5415593 C423.96109,52.2402797 425.366906,53.7778914 427.18278,55.1544407 C428.998653,56.5309899 431.048802,57.4828448 433.333288,58.0100339 C433.509018,57.4828448 433.596881,56.5749217 433.596881,55.2862373 Z M430.301966,63.1940339 C431.327056,62.6082683 432.103184,61.7589208 432.630373,60.6459661 C430.345887,60.1773536 428.237162,59.2840744 426.304136,57.9661017 C424.371109,56.648129 422.818853,55.2276686 421.647322,53.704678 C420.82725,53.8804077 420.41722,54.6711794 420.41722,56.0770169 C420.41722,58.1857733 421.002977,60.0455513 422.174508,61.6564068 C423.34604,63.2672623 424.956871,64.072678 427.007051,64.072678 C428.178582,64.072678 429.276876,63.7797995 430.301966,63.1940339 Z M466.765695,30.3327458 C469.548082,25.7637738 471.773958,21.429173 473.44339,17.3288136 C475.112822,13.2284541 475.947525,10.1825184 475.947525,8.19091525 C475.18603,8.19091525 473.648418,9.97747366 471.334644,13.5506441 C469.02087,17.1238145 466.589979,21.5609226 464.041898,26.8621017 C461.493818,32.1632807 459.429025,37.3032971 457.847458,42.2823051 C461.010592,38.8848644 463.983308,34.9017178 466.765695,30.3327458 Z M483.284203,48.8721356 C485.89086,47.4077215 488.102093,45.6065192 489.917966,43.4684746 C491.73384,41.33043 492.641763,39.2363492 492.641763,37.1861695 C492.641763,36.5418273 492.524611,36.1025096 492.290305,35.8682034 C492.055999,35.6338971 491.675257,35.5167458 491.148068,35.5167458 C489.449347,35.5167458 487.589569,36.3221614 485.568678,37.9330169 C483.547787,39.5438725 481.688008,41.5793775 479.989288,44.0395932 C478.290568,46.4998089 477.031191,48.9599877 476.211119,51.4202034 C478.319875,51.1858971 480.677546,50.3365497 483.284203,48.8721356 Z M563.855864,48.8721356 C566.462522,47.4077215 568.673754,45.6065192 570.489627,43.4684746 C572.305501,41.33043 573.213424,39.2363492 573.213424,37.1861695 C573.213424,36.5418273 573.096272,36.1025096 572.861966,35.8682034 C572.62766,35.6338971 572.246918,35.5167458 571.719729,35.5167458 C570.021008,35.5167458 568.16123,36.3221614 566.140339,37.9330169 C564.119448,39.5438725 562.25967,41.5793775 560.560949,44.0395932 C558.862229,46.4998089 557.602852,48.9599877 556.78278,51.4202034 C558.891536,51.1858971 561.249207,50.3365497 563.855864,48.8721356 Z M628.392271,55.2862373 C628.333695,53.4117872 628.12868,51.5666531 627.77722,49.7507797 C627.425761,47.9349062 626.89858,45.5918788 626.195661,42.7216271 L625.404881,39.5585085 C622.53463,44.5375164 619.986587,48.1984968 617.760678,50.5415593 C618.75648,52.2402797 620.162296,53.7778914 621.978169,55.1544407 C623.794043,56.5309899 625.844192,57.4828448 628.128678,58.0100339 C628.304408,57.4828448 628.392271,56.5749217 628.392271,55.2862373 Z M625.097356,63.1940339 C626.122446,62.6082683 626.898574,61.7589208 627.425763,60.6459661 C625.141277,60.1773536 623.032552,59.2840744 621.099525,57.9661017 C619.166499,56.648129 617.614243,55.2276686 616.442712,53.704678 C615.62264,53.8804077 615.21261,54.6711794 615.21261,56.0770169 C615.21261,58.1857733 615.798367,60.0455513 616.969898,61.6564068 C618.14143,63.2672623 619.752261,64.072678 621.802441,64.072678 C622.973972,64.072678 624.072266,63.7797995 625.097356,63.1940339 Z M231.60729,67.8973346 C222.60964,67.9577215 223.424864,65.1799238 218.141009,65.1497303 C216.389789,65.1799238 215.333018,66.1763078 215.151857,66.5386292 C215.156136,66.5637229 215.147981,66.5893333 215.129981,66.6073333 C215.111981,66.6253333 215.08637,66.633488 215.061277,66.6292096 L214.638568,66.6292096 C214.608259,66.6309639 214.579086,66.6174169 214.56087,66.5931288 C214.542654,66.5688406 214.537817,66.5370416 214.547988,66.5084357 L214.547988,50.4455182 C214.578182,50.2039706 214.849923,50.2643575 214.880116,50.5360986 C215.302824,56.2124679 220.465905,66.991531 231.546903,66.991531 C239.578361,66.991531 244.922603,61.073614 244.922603,55.9105334 C244.922603,51.9249975 245.617052,47.637527 231.546903,42.0819315 C222.186932,38.3681366 214.849923,35.2280174 214.849923,24.6603085 C214.849923,16.7496236 222.126545,9.3220339 231.516709,9.3220339 C236.77037,9.3220339 238.581977,11.8280906 243.261963,11.8280906 C244.771635,11.8280906 245.707633,10.8920935 246.704017,9.80512916 C247.036145,9.44280771 247.126725,9.65416189 247.126725,9.80512916 C247.126725,9.95609643 249.572395,22.0938649 249.572395,22.0938649 C249.512008,22.4561864 249.27046,22.4561864 249.119493,22.2448322 C249.059106,22.1542518 242.53732,10.4995786 231.426129,10.4995786 C220.888613,10.4995786 218.050429,23.3921835 226.685757,28.2533295 C238.551784,34.9562763 253.437157,36.9188508 253.437157,49.9322295 C253.437157,60.4999384 242.174998,67.8973346 231.60729,67.8973346 Z M166.510203,66.659403 L166.513222,66.659403 C166.271674,66.659403 166.241481,66.3876619 166.483029,66.3876619 C167.298252,66.3876619 173.065202,66.2366947 173.759651,61.1641944 L173.789845,15.3003378 C173.789845,15.3003378 173.910618,11.1638346 166.362255,11.194028 C165.909353,11.194028 165.96974,10.8619001 166.362255,10.8619001 L208.720651,10.8619001 C208.901812,10.8619001 208.871619,10.9826739 208.871619,10.9826739 L211.95437,21.6107697 C211.95437,21.6107697 212.105338,22.2750257 211.592049,21.9428977 C211.320308,21.7617369 205.855293,11.6771233 194.593134,11.6771233 C189.641408,11.6771233 183.572524,11.3449953 183.572524,15.3909181 L183.572524,34.3524073 C183.56367,34.4268412 183.58944,34.5012244 183.642444,34.5542282 C183.695447,34.6072319 183.769831,34.6330018 183.844265,34.6241483 L195.046036,34.6241483 C195.046036,34.6241483 199.934356,34.4731811 201.658403,29.2195201 C201.748983,28.9779724 201.930144,29.279907 201.930144,29.279907 L201.930144,41.7799969 C201.779176,42.0819315 201.628209,41.71961 201.628209,41.71961 C200.692212,35.2582109 195.046036,35.5903389 195.046036,35.5903389 L183.811052,35.5903389 C183.65605,35.6208143 183.55074,35.765616 183.569504,35.9224669 L183.569504,59.5337479 C183.569504,66.9311441 196.613076,65.6026321 196.613076,65.6026321 C208.871619,65.6026321 213.008122,50.0228099 213.008122,50.0228099 C213.008122,50.0228099 213.219476,49.9020361 213.219476,50.1737771 L213.219476,66.659403 L166.510203,66.659403 Z M114.972996,66.3876619 C120.105883,66.3876619 120.256851,61.5265158 120.256851,61.5265158 L120.256851,15.6022723 C120.256851,15.6022723 120.102864,11.1336411 114.788816,11.1336411 C114.486882,11.1336411 114.456688,10.8619001 114.788816,10.8619001 L142.113892,10.8619001 C142.44602,10.8920935 171.64309,9.95609643 171.64309,39.787229 C171.64309,39.787229 170.888254,66.6292096 140.121124,66.659403 L114.969977,66.659403 C114.731449,66.659403 114.698236,66.3876619 114.969977,66.3876619 L114.972996,66.3876619 Z M161.77285,38.458717 C161.833237,8.41623028 137.134991,11.9186709 134.387387,11.8884775 C132.515393,11.858284 130.22069,12.3413793 129.828176,15.9344003 L129.828176,61.4359355 C129.828176,61.4359355 129.314887,65.663019 138.765438,65.663019 C162.135171,65.7234059 161.803043,39.0323926 161.803043,39.0323926 L161.803043,38.458717 L161.77285,38.458717 Z M97.9710622,62.4625129 L97.9710622,15.6324658 C97.9710622,15.6324658 97.8804818,11.1638346 92.5664339,11.1638346 C92.1437256,11.1638346 92.173919,10.8920935 92.5362405,10.8920935 L112.645081,10.8920935 C112.916822,10.8920935 112.886628,11.1638346 112.645081,11.1638346 C112.494114,11.1638346 107.089485,10.9524804 107.089485,15.6626592 C107.089485,15.6626592 107.059292,58.4467835 107.059292,62.402126 C107.059292,66.3574685 112.37334,66.3876619 112.617907,66.3876619 C112.862474,66.3876619 112.889648,66.659403 112.6481,66.659403 L82.6358069,66.659403 C82.5380868,66.6669235 82.4490318,66.6033127 82.4244527,66.5084357 L73.6381576,47.7583008 C71.7661635,43.3198631 69.7432021,40.6326457 65.9690203,40.2703242 C63.3421898,39.9985831 60.7455528,39.8174224 60.7153593,40.391098 L60.7153593,60.9226468 C60.7153593,60.9226468 60.6851659,66.4480488 66.7540501,66.4480488 C67.0861781,66.4480488 67.0861781,66.659403 66.7540501,66.659403 L45.1657305,66.659403 C44.8336025,66.659403 44.8336025,66.4480488 45.1657305,66.4480488 C51.5365493,66.4480488 51.2648082,60.8924533 51.2648082,60.8924533 L51.2648082,15.6324658 C51.2648082,15.6324658 51.201402,11.1336411 45.9175475,11.1336411 C45.5250326,11.1336411 45.615613,10.8619001 45.8571606,10.8619001 L73.0010758,10.8619001 C73.0010758,10.8619001 87.7354813,10.6203524 87.7354813,26.0794009 C87.7354813,37.1905919 74.0276532,39.4852944 74.0276532,39.4852944 C73.7257187,39.5758748 74.0276532,39.7570355 74.0276532,39.7570355 C78.2770653,40.6457168 81.8328331,43.5375913 83.5687847,47.5167532 C86.5881301,54.2197 89.0337998,59.7149086 89.0337998,59.7149086 C91.2983089,65.05915 93.4420441,66.2366947 94.9215234,66.1763078 C96.4613895,66.0857274 97.9710622,65.330891 97.9710622,62.4625129 Z M60.8633073,38.3681366 C61.0142745,38.9418123 62.8862687,39.0021992 66.630257,39.0021992 C78.1641564,39.0021992 78.1641564,27.3173325 78.1641564,27.3173325 C78.1641564,11.8280906 69.6194089,11.6469299 66.1471617,11.6469299 C60.380212,11.6469299 60.8633073,16.0249807 60.8633073,16.0249807 L60.8633073,38.3681366 Z M48.0039152,50.6870659 C48.0039152,50.6870659 48.1820566,66.7197899 29.434941,66.7197899 L1.89851097,66.7197899 C1.56638298,66.7197899 1.53618952,66.4480488 1.92870442,66.4480488 C7.09178506,66.4480488 7.18236542,61.6170962 7.18236542,61.6170962 L7.18236542,16.5080759 C7.18236542,10.3788048 0.328451362,10.8619001 0.328451362,10.8619001 C-0.124450447,10.8619001 -0.0942569935,10.4693851 0.328451362,10.4693851 C0.328451362,10.4693851 12.6171871,10.4391917 17.0254314,10.4693851 C31.8202239,10.5599655 34.1149264,11.194028 34.5376347,11.194028 C35.5642122,11.194028 46.1319211,13.8812455 46.1319211,23.6639245 C46.1319211,34.0806662 32.4844799,35.1072436 31.8806108,35.1072436 C31.6088697,35.1072436 31.5786762,35.4393716 31.8806108,35.4393716 C31.8504173,35.4393716 48.0039152,37.7340741 48.0039152,50.6870659 Z M17.5357008,34.1410531 C17.9282157,34.1410531 26.4729632,34.3222138 27.4995406,34.4429876 C29.8848235,34.6845352 36.9198982,33.205056 36.9198982,24.0866329 C36.9198982,11.4355757 26.7748977,11.5563495 26.7447043,11.5563495 C22.9101356,11.3449953 17.2065921,10.8015131 17.2065921,14.8172425 L17.2065921,33.7787316 C17.1951376,33.8720467 17.2248999,33.9657226 17.2881127,34.0353147 C17.3513255,34.1049067 17.4417174,34.1435108 17.5357008,34.1410531 Z M37.3124131,52.5288666 C37.3426066,47.2148187 36.4669964,36.465949 28.1637966,35.6809192 C24.5999852,35.3665895 21.022377,35.2355785 17.4451204,35.2884043 C17.3364761,35.2703445 17.2257955,35.3058398 17.1479183,35.3837171 C17.070041,35.4615943 17.0345457,35.5722749 17.0526055,35.6809192 L17.0224121,61.073614 C17.0224121,61.073614 15.7240935,65.663019 25.6577399,65.663019 C35.8933208,65.663019 37.3124131,55.548212 37.3124131,52.5288666 Z"/>
</svg>
