<svg xmlns="http://www.w3.org/2000/svg" viewBox="0 0 839.39 194"><title>logo-brides</title><path fill="#fff" d="M767.09,194c35,0,72.3-24.5,72.3-59.5,0-43.1-49.3-49.6-88.6-71.8-28.6-16.1-19.2-58.8,15.7-58.8,36.8,0,58.4,38.6,58.6,38.9,0.5,0.7,1.3.7,1.5-.5,0,0-8.1-40.2-8.1-40.7s-0.3-1.2-1.4,0c-3.3,3.6-6.4,6.7-11.4,6.7-15.5,0-21.5-8.3-38.9-8.3-31.1,0-55.2,24.6-55.2,50.8,0,35,24.3,45.4,55.3,57.7,46.6,18.4,44.3,32.6,44.3,45.8,0,17.1-17.7,36.7-44.3,36.7-36.7,0-53.8-35.7-55.2-54.5-0.1-.9-1-1.1-1.1-0.3v53.2a0.3,0.3,0,0,0,.3.4h1.4a0.26,0.26,0,0,0,.3-0.3c0.6-1.2,4.1-4.5,9.9-4.6,17.5,0.1,14.8,9.3,44.6,9.1m-215.6-4.1h154.7V135.3c0-.9-0.7-0.5-0.7-0.5s-13.7,51.6-54.3,51.6c0,0-43.2,4.4-43.2-20.1V88.1a1,1,0,0,1,.8-1.1H646s18.7-1.1,21.8,20.3c0,0,.5,1.2,1,0.2V66.1s-0.6-1-.9-0.2C662.19,83.3,646,83.8,646,83.8h-37.1a0.81,0.81,0,0,1-.9-0.9V20.1c0-13.4,20.1-12.3,36.5-12.3,37.3,0,55.4,33.4,56.3,34,1.7,1.1,1.2-1.1,1.2-1.1L691.79,5.5s0.1-.4-0.5-0.4H551c-1.3,0-1.5,1.1,0,1.1,25-.1,24.6,13.6,24.6,13.6l-0.1,151.9c-2.3,16.8-21.4,17.3-24.1,17.3-0.8,0-.7.9,0.1,0.9m-170.7-.9c17,0,17.5-16.1,17.5-16.1V20.8S397.79,6,380.19,6c-1,0-1.1-.9,0-0.9h90.5c1.1,0.1,97.8-3,97.8,95.8,0,0-2.5,88.9-104.4,89h-83.3C380,189.9,379.89,189,380.79,189Zm155-92.5c0.2-99.5-81.6-87.9-90.7-88-6.2-.1-13.8,1.5-15.1,13.4V172.6s-1.7,14,29.6,14c77.4,0.2,76.3-88.2,76.3-88.2V96.5h-0.1ZM324.49,176V20.9s-0.3-14.8-17.9-14.8c-1.4,0-1.3-.9-0.1-0.9h66.6c0.9,0,.8.9,0,0.9-0.5,0-18.4-.7-18.4,14.9,0,0-.1,141.7-0.1,154.8S372.19,189,373,189s0.9,0.9.1,0.9h-99.4a0.67,0.67,0,0,1-.7-0.5l-29.1-62.1c-6.2-14.7-12.9-23.6-25.4-24.8-8.7-.9-17.3-1.5-17.4.4v68s-0.1,18.3,20,18.3c1.1,0,1.1.7,0,.7h-71.5c-1.1,0-1.1-.7,0-0.7,21.1,0,20.2-18.4,20.2-18.4V20.9S169.59,6,152.09,6c-1.3,0-1-.9-0.2-0.9h89.9s48.8-.8,48.8,50.4c0,36.8-45.4,44.4-45.4,44.4-1,.3,0,0.9,0,0.9a44.39,44.39,0,0,1,31.6,25.7c10,22.2,18.1,40.4,18.1,40.4,7.5,17.7,14.6,21.6,19.5,21.4C319.49,188,324.49,185.5,324.49,176ZM201.59,96.2c0.5,1.9,6.7,2.1,19.1,2.1,38.2,0,38.2-38.7,38.2-38.7,0-51.3-28.3-51.9-39.8-51.9-19.1,0-17.5,14.5-17.5,14.5v74m-143.5-14A1.07,1.07,0,0,1,57,81V18.2C57,4.9,75.89,6.7,88.59,7.4c0.1,0,33.7-.4,33.7,41.5,0,30.2-23.3,35.1-31.2,34.3C87.69,82.8,59.39,82.2,58.09,82.2Zm65.5,60.9c0,10-4.7,43.5-38.6,43.5-32.9,0-28.6-15.2-28.6-15.2l0.1-84.1a1.13,1.13,0,0,1,1.3-1.3,345.92,345.92,0,0,1,35.5,1.3c27.5,2.6,30.4,38.2,30.3,55.8M159,137c0-42.9-53.5-50.5-53.4-50.5-1,0-.9-1.1,0-1.1,2,0,47.2-3.4,47.2-37.9,0-32.4-35-41.3-38.4-41.3-1.4,0-9-2.1-58-2.4-14.6-.1-55.3,0-55.3,0-1.4,0-1.5,1.3,0,1.3,0,0,22.7-1.6,22.7,18.7V173.2s-0.3,16-17.4,16c-1.3,0-1.2.9-.1,0.9h91.2C159.59,190.1,159,137,159,137Z"/></svg>