<svg xmlns="http://www.w3.org/2000/svg" viewBox="0 0 376.95 140"><title>HG-logo-large</title><path d="M51.12,82.4V80.65h2.56c4.85,0,7-.27,8.21-1.48,1.62-1.62,1.89-3.9,1.89-14.81V41.07H28.9V64.36c0,10.91.27,13.19,1.88,14.81C32,80.38,34.16,80.65,39,80.65h2.56V82.4H.9V80.65H3.46c4.85,0,7-.27,8.21-1.48,1.62-1.62,1.88-3.9,1.88-14.81V19.66c0-10.91-.27-13.19-1.88-14.81C10.46,3.64,8.3,3.37,3.46,3.37H.9V1.62H41.56V3.37H39c-4.85,0-7,.27-8.21,1.48-1.62,1.62-1.88,3.9-1.88,14.81V38.91H63.78V19.66c0-10.91-.27-13.19-1.89-14.81-1.21-1.21-3.37-1.48-8.21-1.48H51.12V1.62H91.78V3.37H89.22c-4.85,0-7,.27-8.21,1.48-1.62,1.62-1.89,3.9-1.89,14.81v44.7c0,10.91.27,13.19,1.89,14.81,1.21,1.21,3.37,1.48,8.21,1.48h2.56V82.4Z"/><path d="M129.35,84c-23.7,0-39-19-39-43C90.3,23.83,101.48,0,128.27,0c24.1,0,39,19.12,39,41.47C167.31,70.82,147.66,84,129.35,84ZM128.27,1.89c-15.48,0-21.81,16.7-21.81,39,0,25.72,6.46,41.2,22.62,41.2,15.08,0,22.08-15.89,22.08-42.55C151.16,21.68,145.5,1.89,128.27,1.89Z"/><path d="M236.25,21.81V52.11c0,12.79-1.08,16.83-3.23,21.14C230.73,77.82,224.27,84,210.94,84c-29.49,0-32.45-17.91-32.45-29.08V26c0-16.43-.27-18.72-1.88-20.87-1.08-1.48-3.37-1.75-7-1.75h-3.77V1.62H206.5V3.37h-3.77c-3.64,0-5.92.27-7,1.75-1.62,2.15-1.89,4.44-1.89,20.87v31.1c0,16,6.33,24.64,19.79,24.64,6.06,0,14.14-3,17.5-9.69,2.29-4.71,2.69-8.08,2.69-19.79V21.81C233.83,9,230.73,3.9,221,3.37V1.62h28V3.37C239.35,3.9,236.25,9,236.25,21.81Z"/><path d="M280.55,84c-14,0-19-7.81-26-7.81-3,0-4.71,2.69-5,6.19H247.7V47.8h1.75c1.75,15.62,11.85,34.33,30.7,34.33C292.26,82.13,299,74.73,299,66c0-23-50.22-10.5-50.22-43,0-12.25,9.16-23,23.56-23C284.86,0,292,7.54,296.57,7.54c2.83,0,4-2.15,4.17-5.92h1.75V30.7h-1.75c-3-18-14-28.81-28.28-28.81-11.18,0-15.62,8.21-15.62,14.14,0,20.87,51,11.44,51,42.28C307.88,69.07,299.94,84,280.55,84Z"/><path d="M308.82,82.4V80.65h2.56c4.85,0,7.14-.54,8.21-1.75,1.75-1.88,1.89-5.39,1.89-14.54V19.66c0-10.23-.27-12.66-1.89-14.54-1.08-1.21-3.37-1.75-8.21-1.75h-2.56V1.62h66.11V28.14h-1.75c-1.75-15.35-10-24.77-24.91-24.77H336.83V38.24h3.5c14.41,0,17.5-7.41,18.58-17.5h1.75v38h-1.75c-1.35-15.21-7.14-18-17.37-18h-4.71v40h11.85c16.29,0,25.58-12.39,26.52-28.95H377V82.4Z"/><path d="M40.68,139.83c-3.56,0-6.3-1.24-9.94-5.05a20.51,20.51,0,0,1-13.42,5.05C5.22,139.83,0,132,0,125c0-8.45,6.88-13.26,12.26-14.67-3.56-5.55-4.47-9.53-4.47-12.26,0-6.3,4.72-11.1,13.59-11.1,6.3,0,10.94,4,10.94,9.36,0,4.89-3.23,9.53-10.19,12.26a213.23,213.23,0,0,0,13.67,18.23c4.06-5,5.72-10.36,5.72-12.76,0-2.82-2.4-4.06-6.38-4.06V108.6H52.62V110c-5.55.33-7.62,2-9.69,7.46a34,34,0,0,1-6,10.69c3.4,3.89,5,5.22,7.62,5.22,5.14,0,7.37-6.21,7.46-10.94h1.57C53.44,130.22,50.46,139.83,40.68,139.83ZM13.26,111.91a7.67,7.67,0,0,0-4.31,7.46c0,8.7,5.88,16.82,12.35,16.82,3,0,6.46-1.24,8-2.9A218.1,218.1,0,0,1,13.26,111.91Zm8.87-23.28c-4.47,0-6,3.4-6,6.71,0,2.32.75,5.22,5,11.77,5.14-2.24,7.21-5.55,7.21-10.44C28.34,91.28,25.35,88.63,22.12,88.63Z"/><path d="M109.46,117.71c-1.08,1.24-1.16,4.06-1.16,7.62v13.51h-1.91c-1.41-3.56-3.56-4.72-5.47-4.72-3.65,0-5.39,5.88-14.25,5.88-14.67,0-23.2-12.76-23.2-26.1,0-13.92,8.12-26.43,24.28-26.43,7.87,0,11.68,4.64,14.09,4.64,1.49,0,2.49-1.82,2.73-4.31h1.57v18.31h-1.66c-1.66-8.37-6.46-17-16.16-17C79.38,89.12,75,98.07,75,113.73c0,12.1,1.91,24.44,12.1,24.44,7.79,0,10.44-6.21,10.44-12.51,0-6-.41-7.21-1.08-8s-2.07-1.08-5.05-1.08h-.75v-1.57h23.86v1.57C111.53,116.63,110.12,117,109.46,117.71Z"/><path d="M140.69,138.84v-1.57h.66c3,0,4.64-.83,4.64-2.65a8.72,8.72,0,0,0-.83-3.31l-3.4-7.79H125.2L123,129.15a14,14,0,0,0-1,4.23c0,2.4,1.74,3.81,5.8,3.89v1.57H111.44v-1.57c5.47-.17,7.29-2.57,9.69-8.78L137,88.13H138l17.32,39.94c3.15,7.29,4.47,8.87,9.11,9.2v1.57Zm-7.62-35.55-7.21,18.48H141Z"/><path d="M209.79,139.5c-6.46,0-10.36-3.81-10.36-9.86,0-3.15.5-5.72.5-8.12,0-5.47-2.73-8.29-9.94-8.29h-6V119c0,15.08.25,16.16,1.16,17.23.66.75,2.07,1.08,5.05,1.08H191v1.57H166.38v-1.57h.75c3,0,4.39-.33,5.05-1.08.91-1.08,1.16-2.15,1.16-17.23V109c0-15.08-.25-16.16-1.16-17.23-.66-.75-2.07-1.08-5.05-1.08h-1.57V89.12H194.8c15.41,0,17.57,8.12,17.57,11.93,0,3.48-1.08,10.94-14.83,11.43,7.62,1.49,13.26,6.38,13.26,13.67,0,3.31-.33,5.63-.33,7.21,0,1.41.5,2.9,2.15,2.9,3.56,0,4.14-5.05,4.14-10.27h1.57C218.33,133.37,217.58,139.5,209.79,139.5ZM191.23,90.7c-1.91,0-5,0-7.21.08V111.5h7.54c7.79,0,10.27-4.31,10.27-10.52C201.84,95.09,198,90.7,191.23,90.7Z"/><path d="M245.59,138.84H219.16v-1.57h1.57c3,0,4.39-.33,5.05-1.08.91-1.08,1.16-2.15,1.16-17.23V109c0-15.08-.25-16.16-1.16-17.23-.66-.75-2.07-1.08-5.05-1.08h-1.57V89.12H244.1c20.13,0,26.76,14.83,26.76,24.44C270.86,126.66,263.82,138.84,245.59,138.84Zm-1.66-48.06c-2.57,0-5.14,0-6.3.08V137.1c1.57.08,3.81.08,5.88.08,11.68,0,16.16-8.87,16.16-23.61C259.67,98.07,253.46,90.78,243.93,90.78Z"/><path d="M272.68,138.84v-1.57h1.57c3,0,4.39-.33,5.05-1.08.91-1.08,1.16-2.15,1.16-17.23V109c0-15.08-.25-16.16-1.16-17.23-.66-.75-2.07-1.08-5.05-1.08h-1.57V89.12h43.67v17h-1.57c-1.41-10.19-7.79-15.33-15.91-15.33h-7.71v20.8h1.66c7.79,0,10.11-4.89,10.77-11.52h1.57v25.11h-1.57c-.91-9.53-4.31-11.85-10.44-11.85h-2v23.86h8.37c9.11,0,14.91-6.46,16.65-18.31h1.49v20Z"/><path d="M369.21,102.05v36.79h-4L332.34,97.24v28.67c0,7.71,2,11,7.79,11.35v1.57H322.48v-1.57c5.8-.33,7.79-3.65,7.79-11.35V94.68c-2.07-2.65-3.31-3.89-7.21-4V89.12h16l28.09,35.71V102.22c0-8.2-2.07-11.19-8.12-11.52V89.12h18V90.7C371.2,91,369.21,94.34,369.21,102.05Z"/></svg>