<svg xmlns="http://www.w3.org/2000/svg" width="170" height="40" viewBox="0 0 170 40"><g fill="#000" fill-rule="evenodd"><path d="M155.174 39.715c7.068 0 14.609-4.94 14.609-12.019 0-8.696-9.946-10.025-17.896-14.498-5.769-3.248-3.879-11.868 3.178-11.868 7.439 0 11.798 7.803 11.832 7.853.111.146.256.146.293-.111 0 0-1.626-8.109-1.644-8.218-.019-.127-.064-.246-.29 0-.672.732-1.292 1.353-2.303 1.353-3.139 0-4.346-1.679-7.854-1.679-6.279 0-11.139 4.977-11.139 10.262 0 7.074 4.906 9.171 11.176 11.651 9.418 3.723 8.949 6.587 8.949 9.24 0 3.448-3.579 7.414-8.949 7.414-7.414 0-10.854-7.206-11.138-10.996-.015-.18-.206-.222-.231-.051l-.005 10.752s-.014.075.058.075h.274c.05 0 .059-.036.069-.06.126-.242.822-.915 1.999-.919 3.533-.008 2.987 1.854 9.012 1.819m-43.53-.845l31.228-.002s-.006-10.856-.01-11.027c-.004-.183-.134-.111-.134-.111s-2.764 10.447-10.956 10.447c0 0-8.73.88-8.73-4.055v-15.8c0-.201.166-.219.166-.219h7.505s3.777-.217 4.4 4.092c0 0 .094.238.201.036v-8.363s-.128-.208-.183-.037c-1.149 3.505-4.419 3.615-4.419 3.615h-7.488s-.183.02-.183-.183V4.589c0-2.701 4.056-2.481 7.378-2.481 7.532 0 11.185 6.743 11.376 6.865.348.219.237-.22.237-.22l-2.056-7.105s.012-.079-.107-.081c-.118-.002-28.329 0-28.329 0-.271 0-.308.23.007.23 5.058-.014 4.968 2.737 4.968 2.737l-.012 30.669c-.455 3.392-4.312 3.5-4.859 3.5-.186.001-.164.167 0 .167"/><path d="M77.175 38.704c3.425 0 3.542-3.254 3.542-3.254l.01-30.703s-.099-2.998-3.653-2.998c-.205 0-.225-.186-.007-.188.43-.005 18.266 0 18.266 0 .215.015 19.756-.6 19.756 19.34 0 0-.505 17.956-21.091 17.975h-16.83c-.167-.003-.186-.172.007-.172zm31.299-18.68C108.509-.064 92.001 2.276 90.15 2.256c-1.244-.017-2.792.296-3.055 2.702v30.436s-.351 2.82 5.968 2.836c15.639.038 15.411-17.803 15.411-17.803v-.403zM65.799 36.067l.007-31.316s-.056-2.994-3.608-2.994c-.274 0-.257-.191-.016-.191h13.44c.175 0 .164.186-.01.186-.092 0-3.717-.151-3.717 3.009 0 0-.018 28.622-.018 31.252 0 2.63 3.563 2.673 3.717 2.673.155 0 .179.175.011.175l-20.062.005c-.119 0-.147-.1-.147-.1l-5.867-12.53c-1.254-2.973-2.612-4.763-5.126-5.011-1.761-.175-3.491-.303-3.507.071v13.741s-.021 3.687 4.032 3.687c.224 0 .22.147-.007.147H30.476c-.224 0-.224-.147-.009-.147 4.254 0 4.072-3.709 4.085-3.709.006 0 .01-30.265.01-30.265s-.031-3.003-3.584-3.003c-.271 0-.211-.182-.042-.182h18.152s9.864-.164 9.864 10.172c0 7.438-9.162 8.965-9.162 8.965-.197.055-.004.182-.004.182s4.321.616 6.381 5.186c2.02 4.475 3.659 8.156 3.659 8.156 1.516 3.581 2.958 4.364 3.929 4.318 1.038-.041 2.044-.554 2.044-2.477zM40.977 19.958c.107.388 1.358.416 3.853.416 7.721 0 7.706-7.815 7.706-7.815 0-10.353-5.716-10.481-8.034-10.481C40.64 2.078 40.977 5 40.977 5v14.958z"/><path d="M12.016 17.129c-.239 0-.224-.236-.224-.236V4.215c.009-2.679 3.824-2.315 6.382-2.187.018.002 6.803-.087 6.803 8.38 0 6.09-4.712 7.085-6.3 6.919-.694-.071-6.406-.198-6.661-.198zm13.213 12.3c0 2.02-.953 8.774-7.799 8.774-6.646 0-5.771-3.078-5.771-3.078l.025-16.975s-.031-.256.256-.256c0 0 3.537-.088 7.159.255 5.565.529 6.154 7.72 6.13 11.28zm7.156-1.234c0-8.665-10.813-10.191-10.786-10.191-.203 0-.183-.214 0-.216.405-.002 9.532-.692 9.537-7.648.004-6.542-7.072-8.337-7.748-8.337-.273 0-1.817-.428-11.705-.484-2.956-.018-11.157 0-11.157 0-.281 0-.295.26-.002.26 0 0 4.585-.316 4.585 3.767L5.1 35.504s-.061 3.237-3.507 3.235c-.271 0-.251.183-.02.181h18.422c12.506-.008 12.39-10.725 12.39-10.725z"/></g></svg>
