<svg xmlns="http://www.w3.org/2000/svg" viewBox="0 0 382 60"><title>logo-video</title>
    <path fill="#EA3568" d="M351.145837,43.8038033 C351.286262,43.3567826 351.444589,42.9066922 351.620818,42.4535316 C352.488232,40.2230372 353.615854,38.3643197 355.003717,36.8773234 C356.391581,35.3903271 357.804206,34.6468401 359.241636,34.6468401 C359.836434,34.6468401 360.604704,34.8451033 361.546468,35.2416357 C361.843868,32.9615747 362.649312,31.0780743 363.962825,29.5910781 C365.276339,28.1040818 367.122665,27.3605948 369.501859,27.3605948 C371.48452,27.3605948 372.946712,27.91821 373.888476,29.0334572 C374.83024,30.1487045 375.301115,31.5985041 375.301115,33.3828996 C375.301115,35.1177286 374.842632,37.1003606 373.925651,39.330855 C373.00867,41.5613494 371.831482,43.7918104 370.394052,46.0223048 C370.988851,46.3197041 371.682772,46.4684015 372.475836,46.4684015 C373.8637,46.4684015 375.350674,46.0099178 376.936803,45.0929368 C378.522932,44.1759558 379.737294,42.7757219 380.579926,40.8921933 L381.918216,41.8587361 C380.877318,44.2379301 379.477084,46.0470818 377.717472,47.2862454 C375.95786,48.5254089 374.136317,49.1449814 372.252788,49.1449814 C371.112758,49.1449814 369.873613,48.9219353 368.535316,48.4758364 C366.701354,50.6567643 364.693939,52.4411331 362.513011,53.8289963 C360.332083,55.2168595 358.200754,55.9107807 356.118959,55.9107807 C354.086731,55.9107807 352.612148,55.2416424 351.695167,53.9033457 C350.778186,52.5650491 350.319703,50.9045948 350.319703,48.9219331 C350.319703,48.8287427 350.320572,48.7354033 350.32231,48.6419151 C349.034979,50.1649065 347.584298,51.5221834 345.97026,52.7137546 C342.277553,55.4399145 338.448595,56.802974 334.483271,56.802974 C331.360579,56.802974 328.931855,55.9603554 327.197026,54.2750929 C325.797528,52.9155803 324.96253,51.24965 324.69202,49.2772681 C323.988758,50.1084409 323.237639,50.8821885 322.438662,51.598513 C319.563802,54.1759732 316.713769,55.464684 313.888476,55.464684 C311.955381,55.464684 310.567538,54.8698944 309.724907,53.6802974 C308.882276,52.4907004 308.460967,50.9293777 308.460967,48.9962825 C308.460967,47.856252 308.65923,46.2453636 309.055762,44.1635688 C306.627001,47.6827933 304.123929,50.4956524 301.546468,52.6022305 C298.969008,54.7088086 296.614633,55.7620818 294.483271,55.7620818 C292.847575,55.7620818 291.385384,55.1920751 290.096654,54.0520446 C288.901187,52.9945161 288.260205,51.4891624 288.173693,49.535944 C287.423987,50.4928605 286.627552,51.3538645 285.784387,52.1189591 C283.107793,54.5477197 280.232977,55.7620818 277.159851,55.7620818 C275.078057,55.7620818 273.467168,55.1425093 272.327138,53.9033457 C271.187107,52.6641822 270.6171,51.0780766 270.6171,49.1449814 C270.6171,47.1623197 271.174716,44.4733751 272.289963,41.0780669 C273.40521,37.6827587 274.817835,34.6964193 276.527881,32.1189591 C278.237927,29.5414989 279.960338,28.2527881 281.695167,28.2527881 C282.339532,28.2527881 282.872365,28.4386599 283.29368,28.8104089 C283.714996,29.182158 283.925651,29.7149903 283.925651,30.4089219 C283.925651,30.8550208 283.727387,31.4622019 283.330855,32.2304833 C282.934323,32.9987647 282.289967,34.1016037 281.39777,35.5390335 C279.81164,38.1660602 278.560104,40.4832613 277.643123,42.4907063 C276.726142,44.4981513 276.267658,46.3940431 276.267658,48.1784387 C276.267658,49.7150015 276.54027,50.7558833 277.085502,51.3011152 C277.630734,51.8463472 278.473352,52.1189591 279.613383,52.1189591 C282.691641,52.1189591 285.754547,49.7756902 288.802158,45.0890972 C289.328991,43.3395271 290.181802,41.4572932 291.360595,39.4423792 C293.491956,35.7992383 296.193292,32.6889844 299.464684,30.1115242 C302.736076,27.5340639 306.007419,26.2453532 309.27881,26.2453532 C311.707571,26.2453532 312.921933,27.0384059 312.921933,28.6245353 C312.921933,29.4176 312.624538,29.9876067 312.02974,30.3345725 C311.633207,29.7893405 310.765806,29.5167286 309.427509,29.5167286 C306.899616,29.5167286 304.495674,30.6195677 302.215613,32.8252788 C299.935552,35.03099 298.089226,37.620803 296.67658,40.5947955 C295.263933,43.5687881 294.557621,46.0470781 294.557621,48.0297398 C294.557621,49.0210706 294.755884,49.7893405 295.152416,50.3345725 C295.548949,50.8798045 296.143738,51.1524164 296.936803,51.1524164 C298.324666,51.1524164 299.947946,50.3469721 301.806691,48.7360595 C303.665437,47.1251468 305.57372,44.8327286 307.531599,41.8587361 C309.489477,38.8847435 311.236671,35.4151375 312.773234,31.4498141 C316.639425,21.5365056 319.910767,13.8166323 322.587361,8.28996283 C325.263954,2.76329331 327.593546,0 329.576208,0 C330.12144,0 330.604707,0.210654647 331.026022,0.63197026 C331.447338,1.05328587 331.657993,1.58611822 331.657993,2.23048327 C331.657993,3.0731145 331.273858,4.36182528 330.505576,6.09665428 C329.737295,7.83148327 328.436193,10.5576022 326.60223,14.2750929 C322.983873,21.6109413 320.109057,28.0173208 317.977695,33.4944238 C315.846334,38.9715268 314.780669,43.9404981 314.780669,48.401487 C314.780669,49.591084 314.892192,50.3965283 315.115242,50.8178439 C315.338291,51.2391595 315.722426,51.4498141 316.267658,51.4498141 C317.95292,51.4498141 319.885987,50.4584981 322.066914,48.4758364 C323.033222,47.597375 323.946006,46.5826941 324.805271,45.4317865 C325.185765,43.2388027 326.082145,40.9201649 327.494424,38.4758364 C329.427519,35.1300948 331.905809,32.3296271 334.929368,30.0743494 C337.952927,27.8190717 340.926875,26.6914498 343.851301,26.6914498 C345.387864,26.6914498 346.676575,27.0755848 347.717472,27.8438662 C348.75837,28.6121476 349.27881,29.8884669 349.27881,31.6728625 C349.27881,34.0520565 348.361843,36.2949089 346.527881,38.401487 C344.693919,40.5080651 342.327152,42.2304766 339.427509,43.5687732 C336.527867,44.9070699 333.56631,45.7496885 330.542751,46.0966543 C330.443618,46.5923197 330.394052,47.1623264 330.394052,47.8066914 C330.394052,49.0954216 330.753404,50.3841323 331.472119,51.6728625 C332.190834,52.9615926 333.739765,53.605948 336.118959,53.605948 C339.142518,53.605948 342.227989,52.3791944 345.375465,49.9256506 C347.603076,48.1891663 349.526524,46.1485614 351.145837,43.8038033 Z M234.817844,58.5130112 C233.306064,57.5216803 232.550186,55.8116602 232.550186,53.3828996 C232.550186,51.9950364 232.798015,50.3717565 233.29368,48.5130112 C233.789346,46.6542658 234.582399,44.014887 235.672862,40.5947955 C237.506825,34.9442097 238.931841,29.913281 239.947955,25.5018587 C240.96407,21.0904364 241.472119,16.5799487 241.472119,11.9702602 C241.472119,9.09540074 241.149941,6.90211413 240.505576,5.39033457 C239.861211,3.87855502 238.671632,3.12267658 236.936803,3.12267658 C235.350674,3.12267658 234.024788,3.72985762 232.959108,4.94423792 C231.893427,6.15861822 231.100374,7.64559219 230.579926,9.40520446 C230.059477,11.1648167 229.799257,12.8624454 229.799257,14.4981413 C229.799257,16.2825368 230.171,17.8934253 230.914498,19.330855 C228.584871,19.330855 226.850068,18.7856312 225.710037,17.6951673 C224.570007,16.6047033 224,15.1672952 224,13.3828996 C224,11.3506714 224.656747,9.29369071 225.97026,7.21189591 C227.283774,5.13010112 229.043359,3.40768959 231.249071,2.04460967 C233.454782,0.68152974 235.846332,0 238.423792,0 C241.74475,0 244.284997,1.21436208 246.04461,3.64312268 C247.804222,6.07188327 248.684015,9.44235762 248.684015,13.7546468 C248.684015,17.0756052 248.237923,20.5452112 247.345725,24.1635688 C246.453527,27.7819264 245.140033,32.3915457 243.405204,37.9925651 C242.017341,42.3544208 241.026025,45.6877208 240.431227,47.9925651 C239.836428,50.2974093 239.539033,52.3419985 239.539033,54.1263941 C239.539033,55.0185918 239.662948,55.6629472 239.910781,56.0594796 C240.158613,56.4560119 240.629488,56.6542751 241.32342,56.6542751 C244.099146,56.6542751 247.568752,54.200768 251.732342,49.2936803 C255.895932,44.3865926 259.526626,38.5626112 262.624535,31.8215613 C265.722444,25.0805115 267.271375,19.1821814 267.271375,14.1263941 C267.271375,9.31843941 265.610921,6.36927435 262.289963,5.27881041 C262.934328,3.89094721 263.752164,2.83767398 264.743494,2.11895911 C265.734825,1.40024424 266.676575,1.04089219 267.568773,1.04089219 C268.460971,1.04089219 269.340764,1.43741859 270.208178,2.23048327 C271.075593,3.02354796 271.781906,4.15116989 272.327138,5.6133829 C272.87237,7.07559591 273.144981,8.77322454 273.144981,10.7063197 C273.144981,15.9603732 271.24909,22.5526245 267.457249,30.4832714 C263.665409,38.4139182 259.130138,45.3159558 253.851301,51.1895911 C248.572464,57.0632264 243.851322,60 239.687732,60 C237.952903,60 236.329623,59.504342 234.817844,58.5130112 Z M283.29368,21.4869888 C282.574965,20.9913234 282.215613,20.2726193 282.215613,19.330855 C282.215613,18.1908245 282.847577,17.1871171 284.111524,16.3197026 C285.375471,15.4522881 286.726139,15.0185874 288.163569,15.0185874 C290.29493,15.0185874 291.360595,15.9355546 291.360595,17.7695167 C291.360595,18.8104141 290.790588,19.8141216 289.650558,20.7806691 C288.510527,21.7472167 287.271382,22.2304833 285.933086,22.2304833 C284.892188,22.2304833 284.012395,21.9826543 283.29368,21.4869888 Z M337.345725,41.1895911 C339.551436,39.9504275 341.422545,38.4262792 342.959108,36.6171004 C344.495671,34.8079216 345.263941,33.0359442 345.263941,31.3011152 C345.263941,30.7558833 345.164809,30.3841398 344.966543,30.1858736 C344.768277,29.9876074 344.446099,29.8884758 344,29.8884758 C342.56257,29.8884758 340.988856,30.5700056 339.27881,31.9330855 C337.568765,33.2961654 335.995051,35.018577 334.557621,37.1003717 C333.120191,39.1821665 332.054526,41.2639301 331.360595,43.3457249 C333.14499,43.1474587 335.140014,42.4287546 337.345725,41.1895911 Z M370.951673,38.7360595 C371.769521,36.7533978 372.178439,34.969029 372.178439,33.3828996 C372.178439,31.2019717 371.484517,30.1115242 370.096654,30.1115242 C369.452289,30.1115242 368.783151,30.4337019 368.089219,31.0780669 C367.395288,31.722432 366.825281,32.577442 366.379182,33.6431227 C365.933083,34.7088033 365.710037,35.8859911 365.710037,37.1747212 C365.710037,38.3147517 365.9083,39.6158539 366.304833,41.0780669 C366.701365,42.5402799 367.221806,43.6679019 367.866171,44.4609665 C369.105335,42.6270045 370.133825,40.7187212 370.951673,38.7360595 Z M362.066914,50.6319703 C363.355645,49.6406394 364.644355,48.3767115 365.933086,46.8401487 C363.107793,44.3618216 361.620819,40.7187353 361.472119,35.9107807 C360.87732,36.2081799 360.158616,37.1251472 359.315985,38.66171 C358.473354,40.1982729 357.75465,41.9082929 357.159851,43.7918216 C356.565053,45.6753502 356.267658,47.3110216 356.267658,48.6988848 C356.267658,50.9789457 357.110277,52.1189591 358.795539,52.1189591 C359.687737,52.1189591 360.778184,51.6233011 362.066914,50.6319703 Z"/>
    <path fill="#ffffff" d="M189.789307,55.9992048 C198.448957,55.9992048 207.67767,49.9374495 207.67767,41.2777992 C207.67767,30.6140583 195.479934,29.0058376 185.756384,23.513145 C178.680212,19.5297059 181.005947,8.96493247 189.640856,8.96493247 C198.745859,8.96493247 204.090101,18.5152897 204.139584,18.5895153 C204.263294,18.7627083 204.461229,18.7627083 204.510712,18.465806 C204.510712,18.465806 202.506622,8.51957902 202.506622,8.39586973 C202.506622,8.27216044 202.432396,8.09896743 202.160236,8.39586973 C201.343754,9.28657662 200.576757,10.0535742 199.339664,10.0535742 C195.504676,10.0535742 194.020164,8 189.715081,8 C182.020363,8 176.057575,14.0864971 176.057575,20.5688639 C176.057575,29.2285143 182.069847,31.8016675 189.739823,34.8449161 C201.269529,39.397418 200.700466,42.9107618 200.700466,46.1766871 C200.700466,50.4075448 196.321157,55.256949 189.739823,55.256949 C180.659561,55.256949 176.428703,46.4241057 176.082317,41.7726363 C176.057575,41.5499596 175.834899,41.5004759 175.810157,41.6984108 L175.810157,54.8610793 C175.801822,54.8845202 175.805786,54.9105777 175.820713,54.9304805 C175.83564,54.9503833 175.859546,54.9614843 175.884382,54.9600467 L176.230768,54.9600467 C176.251331,54.9635526 176.272318,54.9568703 176.287068,54.9421203 C176.301818,54.9273704 176.3085,54.906384 176.304994,54.8858212 C176.453445,54.5889189 177.31941,53.7724375 178.754438,53.7476957 C183.084263,53.7724375 182.416233,56.0486885 189.789307,55.9992048 Z M136.445861,54.9847886 L174.721515,54.9847886 L174.721515,41.475734 C174.721515,41.2530573 174.548322,41.3520248 174.548322,41.3520248 C174.548322,41.3520248 171.158688,54.1188235 161.113493,54.1188235 C161.113493,54.1188235 150.42501,55.2074653 150.42501,49.1457101 L150.42501,29.797577 C150.409634,29.6690464 150.49593,29.5503895 150.622945,29.5254166 L159.829391,29.5254166 C159.829391,29.5254166 164.456118,29.2532561 165.223116,34.5480138 C165.223116,34.5480138 165.346825,34.8449161 165.470534,34.5974975 L165.470534,24.3543682 C165.470534,24.3543682 165.322083,24.1069496 165.247858,24.3048845 C163.835098,28.6099678 159.829391,28.7336771 159.829391,28.7336771 L150.650161,28.7336771 C150.589167,28.740932 150.528214,28.7198151 150.48478,28.6763814 C150.441347,28.6329478 150.42023,28.5719949 150.427485,28.5110004 L150.427485,12.9731135 C150.427485,9.65770449 155.400598,9.92986493 159.458263,9.92986493 C168.686976,9.92986493 173.165252,18.1936455 173.387929,18.3420967 C173.808541,18.6142571 173.684831,18.0699363 173.684831,18.0699363 L171.158688,9.3608022 C171.158688,9.3608022 171.183429,9.26183476 171.034978,9.26183476 L136.324625,9.26183476 C136.002981,9.26183476 135.953498,9.5339952 136.324625,9.5339952 C142.51009,9.50925335 142.411123,12.8988879 142.411123,12.8988879 L142.386381,50.4817704 C141.817318,54.6384026 137.091623,54.7621119 136.423593,54.7621119 C136.225658,54.7621119 136.2504,54.9847886 136.448335,54.9847886 L136.445861,54.9847886 Z M94.213983,54.7621119 C98.4200988,54.7621119 98.5438081,50.7786727 98.5438081,50.7786727 L98.5438081,13.1463065 C98.5438081,13.1463065 98.4176246,9.48451149 94.0630576,9.48451149 C93.815639,9.48451149 93.7908972,9.26183476 94.0630576,9.26183476 L116.454439,9.26183476 C116.7266,9.28657662 140.651976,8.51957902 140.651976,32.9645349 C140.651976,32.9645349 140.03343,54.9600467 114.821477,54.9847886 L94.2115088,54.9847886 C94.0160481,54.9847886 93.988832,54.7621119 94.2115088,54.7621119 L94.213983,54.7621119 Z M132.563863,31.8758931 C132.613347,7.25774426 112.374507,10.1277998 110.122998,10.1030579 C108.589003,10.0783161 106.708621,10.4741858 106.386977,13.4184669 L106.386977,50.7044471 C106.386977,50.7044471 105.966366,54.1683073 113.710567,54.1683073 C132.860765,54.217791 132.588605,32.3459884 132.588605,32.3459884 L132.588605,31.8758931 L132.563863,31.8758931 Z M80.2818426,51.5456703 L80.2818426,13.1710483 C80.2818426,13.1710483 80.2076171,9.50925335 75.85305,9.50925335 C75.506664,9.50925335 75.5314059,9.28657662 75.8283082,9.28657662 L92.3063857,9.28657662 C92.5290624,9.28657662 92.5043206,9.50925335 92.3063857,9.50925335 C92.1826764,9.50925335 87.7538838,9.33606034 87.7538838,13.1957902 C87.7538838,13.1957902 87.7291419,48.2550032 87.7291419,51.4961866 C87.7291419,54.73737 92.083709,54.7621119 92.284118,54.7621119 C92.4845271,54.7621119 92.5067947,54.9847886 92.3088599,54.9847886 L67.7154529,54.9847886 C67.6353767,54.9909512 67.562401,54.9388257 67.5422599,54.8610793 L60.3423792,39.4963854 C58.808384,35.8593323 57.1506795,33.6573069 54.0579472,33.3604046 C51.9054056,33.1377279 49.7776058,32.9892767 49.7528639,33.459372 L49.7528639,50.2838355 C49.7528639,50.2838355 49.728122,54.8115956 54.7012355,54.8115956 C54.973396,54.8115956 54.973396,54.9847886 54.7012355,54.9847886 L37.010807,54.9847886 C36.7386465,54.9847886 36.7386465,54.8115956 37.010807,54.8115956 C42.231339,54.8115956 42.0086623,50.2590937 42.0086623,50.2590937 L42.0086623,13.1710483 C42.0086623,13.1710483 41.9567044,9.48451149 37.6268792,9.48451149 C37.3052351,9.48451149 37.3794606,9.26183476 37.5773955,9.26183476 L59.820326,9.26183476 C59.820326,9.26183476 71.8943527,9.0638999 71.8943527,21.7317313 C71.8943527,30.8367351 60.6615491,32.7171163 60.6615491,32.7171163 C60.4141306,32.7913418 60.6615491,32.939793 60.6615491,32.939793 C64.1437063,33.668018 67.0574604,36.0377484 68.4799763,39.2984505 C70.9541621,44.791143 72.9582526,49.2941612 72.9582526,49.2941612 C74.813892,53.6734701 76.5705639,54.6384026 77.782915,54.5889189 C79.0447497,54.5146933 80.2818426,53.8961468 80.2818426,51.5456703 Z M49.874099,31.8016675 C49.9978083,32.2717628 51.5318035,32.3212465 54.5997939,32.3212465 C64.0511837,32.3212465 64.0511837,22.7461474 64.0511837,22.7461474 C64.0511837,10.0535742 57.0492379,9.90512308 54.2039242,9.90512308 C49.4782293,9.90512308 49.874099,13.4926925 49.874099,13.4926925 L49.874099,31.8016675 Z M14.3695326,28.3378074 C14.2925185,28.3398213 14.2184473,28.3081875 14.1666479,28.2511606 C14.1148485,28.1941338 14.09046,28.1173716 14.0998463,28.0409051 L14.0998463,12.5030182 C14.0998463,9.21235105 18.7735833,9.65770449 21.9157993,9.8308975 C21.9405412,9.8308975 30.2538055,9.73193007 30.2538055,20.0987686 C30.2538055,27.5708098 24.4889526,28.7831608 22.5343458,28.585226 C21.6931226,28.4862585 14.6911767,28.3378074 14.3695326,28.3378074 Z M30.5754497,43.405599 C30.5754497,45.8797848 29.4125823,54.1683073 21.0250924,54.1683073 C12.8850211,54.1683073 13.948921,50.4075448 13.948921,50.4075448 L13.9736629,29.5996421 C13.9588639,29.5106142 13.9879503,29.4199176 14.0517664,29.3561015 C14.1155825,29.2922854 14.2062791,29.263199 14.295307,29.277998 C17.22667,29.2347102 20.1583212,29.3420664 23.0786667,29.5996421 C29.8826776,30.2429305 30.6001915,39.0510319 30.5754497,43.405599 Z M39.3365416,41.8963456 C39.3365416,31.2820885 26.0996475,29.4017073 26.1243894,29.4017073 C25.8769708,29.4017073 25.9017127,29.1295468 26.1243894,29.1295468 C26.6192265,29.1295468 37.8025464,28.2883237 37.8025464,19.7523826 C37.8025464,11.7360206 29.1428961,9.5339952 28.3016729,9.5339952 C27.9552869,9.5339952 26.0749057,9.01441618 13.9513952,8.94019061 C10.3390839,8.91544875 0.269147644,8.94019061 0.269147644,8.94019061 C-0.0772383697,8.94019061 -0.101980228,9.26183476 0.269147644,9.26183476 C0.269147644,9.26183476 5.88554944,8.86596503 5.88554944,13.8885622 L5.88554944,50.8528983 C5.88554944,50.8528983 5.81132386,54.8115956 1.58046612,54.8115956 C1.25882197,54.8115956 1.28356383,55.0342723 1.55572427,55.0342723 L24.1202989,55.0342723 C39.4825186,55.0342723 39.3365416,41.8963456 39.3365416,41.8963456 Z"/>
</svg>
