<svg viewBox="0 0 382 60" xmlns="http://www.w3.org/2000/svg"><path d="m351.145837 43.8038033c.140425-.4470207.298752-.8971111.474981-1.3502717.867414-2.2304944 1.995036-4.0892119 3.382899-5.5762082 1.387864-1.4869963 2.800489-2.2304833 4.237919-2.2304833.594798 0 1.363068.1982632 2.304832.5947956.2974-2.280061 1.102844-4.1635614 2.416357-5.6505576 1.313514-1.4869963 3.15984-2.2304833 5.539034-2.2304833 1.982661 0 3.444853.5576152 4.386617 1.6728624.941764 1.1152473 1.412639 2.5650469 1.412639 4.3494424 0 1.734829-.458483 3.717461-1.375464 5.9479554s-2.094169 4.4609554-3.531599 6.6914498c.594799.2973993 1.28872.4460967 2.081784.4460967 1.387864 0 2.874838-.4584837 4.460967-1.3754647s2.800491-2.3172149 3.643123-4.2007435l1.33829.9665428c-1.040898 2.379194-2.441132 4.1883457-4.200744 5.4275093-1.759612 1.2391635-3.581155 1.858736-5.464684 1.858736-1.14003 0-2.379175-.2230461-3.717472-.669145-1.833962 2.1809279-3.841377 3.9652967-6.022305 5.3531599s-4.312257 2.0817844-6.394052 2.0817844c-2.032228 0-3.506811-.6691383-4.423792-2.007435-.916981-1.3382966-1.375464-2.9987509-1.375464-4.9814126 0-.0931904.000869-.1865298.002607-.280018-1.287331 1.5229914-2.738012 2.8802683-4.35205 4.0718395-3.692707 2.7261599-7.521665 4.0892194-11.486989 4.0892194-3.122692 0-5.551416-.8426186-7.286245-2.5278811-1.399498-1.3595126-2.234496-3.0254429-2.505006-4.9978248-.703262.8311728-1.454381 1.6049204-2.253358 2.3212449-2.87486 2.5774602-5.724893 3.866171-8.550186 3.866171-1.933095 0-3.320938-.5947896-4.163569-1.7843866s-1.26394-2.7509197-1.26394-4.6840149c0-1.1400305.198263-2.7509189.594795-4.8327137-2.428761 3.5192245-4.931833 6.3320836-7.509294 8.4386617-2.57746 2.1065781-4.931835 3.1598513-7.063197 3.1598513-1.635696 0-3.097887-.5700067-4.386617-1.7100372-1.195467-1.0575285-1.836449-2.5628822-1.922961-4.5161006-.749706.9569165-1.546141 1.8179205-2.389306 2.5830151-2.676594 2.4287606-5.55141 3.6431227-8.624536 3.6431227-2.081794 0-3.692683-.6195725-4.832713-1.8587361-1.140031-1.2391635-1.710038-2.8252691-1.710038-4.7583643 0-1.9826617.557616-4.6716063 1.672863-8.0669145s2.527872-6.3816476 4.237918-8.9591078 3.432457-3.866171 5.167286-3.866171c.644365 0 1.177198.1858718 1.598513.5576208.421316.3717491.631971.9045814.631971 1.598513 0 .4460989-.198264 1.05328-.594796 1.8215614s-1.040888 1.8711204-1.933085 3.3085502c-1.58613 2.6270267-2.837666 4.9442278-3.754647 6.9516728s-1.375465 3.9033368-1.375465 5.6877324c0 1.5365628.272612 2.5774446.817844 3.1226765.545232.545232 1.38785.8178439 2.527881.8178439 3.078258 0 6.141164-2.3432689 9.188775-7.0298619.526833-1.7495701 1.379644-3.631804 2.558437-5.646718 2.131361-3.6431409 4.832697-6.7533948 8.104089-9.330855 3.271392-2.5774603 6.542735-3.866171 9.814126-3.866171 2.428761 0 3.643123.7930527 3.643123 2.3791821 0 .7930647-.297395 1.3630714-.892193 1.7100372-.396533-.545232-1.263934-.8178439-2.602231-.8178439-2.527893 0-4.931835 1.1028391-7.211896 3.3085502-2.280061 2.2057112-4.126387 4.7955242-5.539033 7.7695167-1.412647 2.9739926-2.118959 5.4522826-2.118959 7.4349443 0 .9913308.198263 1.7596007.594795 2.3048327.396533.545232.991322.8178439 1.784387.8178439 1.387863 0 3.011143-.8054443 4.869888-2.4163569 1.858746-1.6109127 3.767029-3.9033309 5.724908-6.8773234 1.957878-2.9739926 3.705072-6.4435986 5.241635-10.408922 3.866191-9.9133085 7.137533-17.6331818 9.814127-23.15985127 2.676593-5.52666952 5.006185-8.28996283 6.988847-8.28996283.545232 0 1.028499.21065465 1.449814.63197026.421316.42131561.631971.95414796.631971 1.59851301 0 .84263123-.384135 2.13134201-1.152417 3.86617101-.768281 1.73482899-2.069383 4.46094792-3.903346 8.17843862-3.618357 7.3358484-6.493173 13.7422279-8.624535 19.2193309-2.131361 5.477103-3.197026 10.4460743-3.197026 14.9070632 0 1.189597.111523 1.9950413.334573 2.4163569.223049.4213156.607184.6319702 1.152416.6319702 1.685262 0 3.618329-.991316 5.799256-2.9739777.966308-.8784614 1.879092-1.8931423 2.738357-3.0440499.380494-2.1929838 1.276874-4.5116216 2.689153-6.9559501 1.933095-3.3457416 4.411385-6.1462093 7.434944-8.401487s5.997507-3.3828996 8.921933-3.3828996c1.536563 0 2.825274.384135 3.866171 1.1524164 1.040898.7682814 1.561338 2.0446007 1.561338 3.8289963 0 2.379194-.916967 4.6220464-2.750929 6.7286245s-4.200729 3.8289896-7.100372 5.1672862c-2.899642 1.3382967-5.861199 2.1809153-8.884758 2.5278811-.099133.4956654-.148699 1.0656721-.148699 1.7100371 0 1.2887302.359352 2.5774409 1.078067 3.8661711.718715 1.2887301 2.267646 1.9330855 4.64684 1.9330855 3.023559 0 6.10903-1.2267536 9.256506-3.6802974 2.227611-1.7364843 4.151059-3.7770892 5.770372-6.1218473zm-116.327993 14.7092079c-1.51178-.9913309-2.267658-2.701351-2.267658-5.1301116 0-1.3878632.247829-3.0111431.743494-4.8698884.495666-1.8587454 1.288719-4.4981242 2.379182-7.9182157 1.833963-5.6505858 3.258979-10.6815145 4.275093-15.0929368 1.016115-4.4114223 1.524164-8.92191 1.524164-13.5315985 0-2.87485946-.322178-5.06814607-.966543-6.57992563-.644365-1.51177955-1.833944-2.26765799-3.568773-2.26765799-1.586129 0-2.912015.60718104-3.977695 1.82156134-1.065681 1.2143803-1.858734 2.70135427-2.379182 4.46096654-.520449 1.75961224-.780669 3.45724094-.780669 5.09293684 0 1.7843955.371743 3.395284 1.115241 4.8327137-2.329627 0-4.06443-.5452238-5.204461-1.6356877-1.14003-1.090464-1.710037-2.5278721-1.710037-4.3122677 0-2.0322282.656747-4.08920889 1.97026-6.17100369 1.313514-2.08179479 3.073099-3.80420632 5.278811-5.16728624 2.205711-1.36307993 4.597261-2.04460967 7.174721-2.04460967 3.320958 0 5.861205 1.21436208 7.620818 3.64312268 1.759612 2.42876059 2.639405 5.79923494 2.639405 10.11152412 0 3.3209584-.446092 6.7905644-1.33829 10.408922s-2.205692 8.2279769-3.940521 13.8289963c-1.387863 4.3618557-2.379179 7.6951557-2.973977 10-.594799 2.3048442-.892194 4.3494334-.892194 6.133829 0 .8921977.123915 1.5365531.371748 1.9330855.247832.3965323.718707.5947955 1.412639.5947955 2.775726 0 6.245332-2.4535071 10.408922-7.3605948s7.794284-10.7310691 10.892193-17.472119c3.097909-6.7410498 4.64684-12.6393799 4.64684-17.6951672 0-4.80795469-1.660454-7.75711975-4.981412-8.84758369.644365-1.3878632 1.462201-2.44113643 2.453531-3.1598513.991331-.71871487 1.933081-1.07806692 2.825279-1.07806692s1.771991.3965264 2.639405 1.18959108c.867415.79306469 1.573728 1.92068662 2.11896 3.38289963s.817843 3.15984164.817843 5.0929368c0 5.2540535-1.895891 11.8463048-5.687732 19.7769517-3.79184 7.9306468-8.327111 14.8326844-13.605948 20.7063197s-9.999979 8.8104089-14.163569 8.8104089c-1.734829 0-3.358109-.495658-4.869888-1.4869888zm48.475836-37.0260224c-.718715-.4956654-1.078067-1.2143695-1.078067-2.1561338 0-1.1400305.631964-2.1437379 1.895911-3.0111524s2.614615-1.3011152 4.052045-1.3011152c2.131361 0 3.197026.9169672 3.197026 2.7509293 0 1.0408974-.570007 2.0446049-1.710037 3.0111524-1.140031.9665476-2.379176 1.4498142-3.717472 1.4498142-1.040898 0-1.920691-.247829-2.639406-.7434945zm54.052045 19.7026023c2.205711-1.2391636 4.07682-2.7633119 5.613383-4.5724907s2.304833-3.5811562 2.304833-5.3159852c0-.5452319-.099132-.9169754-.297398-1.1152416s-.520444-.2973978-.966543-.2973978c-1.43743 0-3.011144.6815298-4.72119 2.0446097-1.710045 1.3630799-3.283759 3.0854915-4.721189 5.1672862-1.43743 2.0817948-2.503095 4.1635584-3.197026 6.2453532 1.784395-.1982662 3.779419-.9169703 5.98513-2.1561338zm33.605948-2.4535316c.817848-1.9826617 1.226766-3.7670305 1.226766-5.3531599 0-2.1809279-.693922-3.2713754-2.081785-3.2713754-.644365 0-1.313503.3221777-2.007435.9665427-.693931.6443651-1.263938 1.4993751-1.710037 2.5650558-.446099 1.0656806-.669145 2.2428684-.669145 3.5315985 0 1.1400305.198263 2.4411327.594796 3.9033457.396532 1.462213.916973 2.589835 1.561338 3.3828996 1.239164-1.833962 2.267654-3.7422453 3.085502-5.724907zm-8.884759 11.8959108c1.288731-.9913309 2.577441-2.2552588 3.866172-3.7918216-2.825293-2.4783271-4.312267-6.1214134-4.460967-10.929368-.594799.2973992-1.313503 1.2143665-2.156134 2.7509293-.842631 1.5365629-1.561335 3.2465829-2.156134 5.1301116-.594798 1.8835286-.892193 3.5192-.892193 4.9070632 0 2.2800609.842619 3.4200743 2.527881 3.4200743.892198 0 1.982645-.495658 3.271375-1.4869888z" fill="#ea3568"/><path d="m189.789307 55.9992048c8.65965 0 17.888363-6.0617553 17.888363-14.7214056 0-10.6637409-12.197736-12.2719616-21.921286-17.7646542-7.076172-3.9834391-4.750437-14.54821253 3.884472-14.54821253 9.105003 0 14.449245 9.55035723 14.498728 9.62458283.12371.173193.321645.173193.371128-.1237093 0 0-2.00409-9.94622698-2.00409-10.06993627s-.074226-.2969023-.346386 0c-.816482.89070689-1.583479 1.65770447-2.820572 1.65770447-3.834988 0-5.3195-2.0535742-9.624583-2.0535742-7.694718 0-13.657506 6.0864971-13.657506 12.5688639 0 8.6596504 6.012272 11.2328036 13.682248 14.2760522 11.529706 4.5525019 10.960643 8.0658457 10.960643 11.331771 0 4.2308577-4.379309 9.0802619-10.960643 9.0802619-9.080262 0-13.31112-8.8328433-13.657506-13.4843127-.024742-.2226767-.247418-.2721604-.27216-.0742255v13.1626685c-.008335.0234409-.004371.0494984.010556.0694012s.038833.0310038.063669.0295662h.346386c.020563.0035059.04155-.0031764.0563-.0179264.01475-.0147499.021432-.0357363.017926-.0562991.148451-.2969023 1.014416-1.1133837 2.449444-1.1381255 4.329825.0247418 3.661795 2.3009928 11.034869 2.2515091zm-53.343446-1.0144162h38.275654v-13.5090546c0-.2226767-.173193-.1237092-.173193-.1237092s-3.389634 12.7667987-13.434829 12.7667987c0 0-10.688483 1.0886418-10.688483-4.9731134v-19.3481331c-.015376-.1285306.07092-.2471875.197935-.2721604h9.206446s4.626727-.2721605 5.393725 5.0225972c0 0 .123709.2969023.247418.0494837v-10.2431293s-.148451-.2474186-.222676-.0494837c-1.41276 4.3050833-5.418467 4.4287926-5.418467 4.4287926h-9.17923c-.060994.0072549-.121947-.013862-.165381-.0572957-.043433-.0434336-.06455-.1043865-.057295-.165381v-15.5378869c0-3.31540901 4.973113-3.04324857 9.030778-3.04324857 9.228713 0 13.706989 8.26378057 13.929666 8.41223177.420612.2721604.296902-.2721604.296902-.2721604l-2.526143-8.7091341s.024741-.09896744-.12371-.09896744h-34.710353c-.321644 0-.371127.27216044 0 .27216044 6.185465-.02474185 6.086498 3.3648927 6.086498 3.3648927l-.024742 37.5828825c-.569063 4.1566322-5.294758 4.2803415-5.962788 4.2803415-.197935 0-.173193.2226767.024742.2226767zm-42.231878-.2226767c4.2061158 0 4.3298251-3.9834392 4.3298251-3.9834392v-37.6323662s-.1261835-3.66179501-4.4807505-3.66179501c-.2474186 0-.2721604-.22267673 0-.22267673h22.3913814c.272161.02474186 24.197537-.74225574 24.197537 23.70270014 0 0-.618546 21.9955118-25.830499 22.0202537h-20.6099682c-.1954607 0-.2226768-.2226767 0-.2226767zm38.34988-22.8862188c.049484-24.61814884-20.189356-21.7480933-22.440865-21.7728352-1.533995-.0247418-3.414377.3711279-3.736021 3.315409v37.2859802s-.420611 3.4638602 7.32359 3.4638602c19.150198.0494837 18.878038-21.8223189 18.878038-21.8223189v-.4700953zm-52.2820204 19.6697772v-38.374622s-.0742255-3.66179495-4.4287926-3.66179495c-.346386 0-.3216441-.22267673-.0247418-.22267673h16.4780775c.2226767 0 .1979349.22267673 0 .22267673-.1237093 0-4.5525019-.17319301-4.5525019 3.68653685 0 0-.0247419 35.059213-.0247419 38.3003964s4.3545671 3.2659253 4.5549761 3.2659253c.2004091 0 .2226767.2226767.0247419.2226767h-24.593407c-.0800762.0061626-.1530519-.0459629-.173193-.1237093l-7.1998807-15.3646939c-1.5339952-3.6370531-3.1916997-5.8390785-6.284432-6.1359808-2.1525416-.2226767-4.2803414-.3711279-4.3050833.0989674v16.8244635s-.0247419 4.5277601 4.9483716 4.5277601c.2721605 0 .2721605.173193 0 .173193h-17.6904285c-.2721605 0-.2721605-.173193 0-.173193 5.220532 0 4.9978553-4.5525019 4.9978553-4.5525019v-37.0880454s-.0519579-3.68653681-4.3817831-3.68653681c-.3216441 0-.2474186-.22267673-.0494837-.22267673h22.2429305s12.0740267-.19793486 12.0740267 12.46989654c0 9.1050038-11.2328036 10.985385-11.2328036 10.985385-.2474185.0742255 0 .2226767 0 .2226767 3.4821572.728225 6.3959113 3.0979554 7.8184272 6.3586575 2.4741858 5.4926925 4.4782763 9.9957107 4.4782763 9.9957107 1.8556394 4.3793089 3.6123113 5.3442414 4.8246624 5.2947577 1.2618347-.0742256 2.4989276-.6927721 2.4989276-3.0432486zm-30.4077436-19.7440028c.1237093.4700953 1.6577045.519579 4.7256949.519579 9.4513898 0 9.4513898-9.5750991 9.4513898-9.5750991 0-12.6925732-7.0019458-12.84102432-9.8472595-12.84102432-4.7256949 0-4.3298252 3.58756942-4.3298252 3.58756942zm-35.5045664-3.4638601c-.0770141.0020139-.1510853-.0296199-.2028847-.0866468-.0517994-.0570268-.0761879-.133789-.0668016-.2102555v-15.5378869c0-3.29066715 4.673737-2.84531371 7.815953-2.6721207.0247419 0 8.3380062-.09896743 8.3380062 10.2678711 0 7.4720412-5.7648529 8.6843922-7.7194597 8.4864574-.8412232-.0989675-7.8431691-.2474186-8.1648132-.2474186zm16.2059171 15.0677916c0 2.4741858-1.1628674 10.7627083-9.5503573 10.7627083-8.1400713 0-7.0761714-3.7607625-7.0761714-3.7607625l.0247419-20.8079027c-.014799-.0890279.0142874-.1797245.0781035-.2435406s.1545127-.0929025.2435406-.0781035c2.931363-.0432878 5.8630142.0640684 8.7833597.3216441 6.8040109.6432884 7.5215248 9.4513898 7.496783 13.8059569zm8.7610919-1.5092534c0-10.6142571-13.2368941-12.4946383-13.2121522-12.4946383-.2474186 0-.2226767-.2721605 0-.2721605.4948371 0 11.678157-.8412231 11.678157-9.3771642 0-8.016362-8.6596503-10.2183874-9.5008735-10.2183874-.346386 0-2.2267672-.51957902-14.3502777-.59380459-3.6123113-.02474186-13.68224756 0-13.68224756 0-.34638601 0-.37112787.32164415 0 .32164415 0 0 5.6164018-.39586973 5.6164018 4.62672744v36.9643361s-.07422558 3.9586973-4.30508332 3.9586973c-.32164415 0-.29690229.2226767-.02474185.2226767h22.56457463c15.3622197 0 15.2162427-13.1379267 15.2162427-13.1379267z" fill="#322e30"/></svg>