<svg xmlns="http://www.w3.org/2000/svg" viewBox="0 0 290.96 33.46"><path d="M154.14,1.45c-.18-.36,0-.59.36-.59h1.23a.53.53,0,0,1,.5.32l12.26,28.19h.09L181,1.14a.53.53,0,0,1,.5-.32h1.18c.41,0,.59.27.41.64l-14,31.23a.59.59,0,0,1-.54.41h-.23a.6.6,0,0,1-.5-.41Zm34.09,0a.6.6,0,0,1,.59-.59h1a.6.6,0,0,1,.59.59V32a.61.61,0,0,1-.63.59h-1a.6.6,0,0,1-.59-.59Zm11.8,0a.59.59,0,0,1,.55-.59h9.62a15.89,15.89,0,1,1,0,31.78h-9.62A.59.59,0,0,1,200,32Zm9.81,29.24A13.78,13.78,0,0,0,223.91,17.2q0-.26,0-.51A13.76,13.76,0,0,0,210.28,2.81h-8.09V30.69Zm23.7-29.24a.6.6,0,0,1,.59-.59h18.2a.6.6,0,0,1,.59.59v.77a.6.6,0,0,1-.59.59H235.72V15.34h14.4a.6.6,0,0,1,.59.59v.77a.6.6,0,0,1-.59.59h-14.4V30.73h16.62a.6.6,0,0,1,.59.59V32a.6.6,0,0,1-.59.59h-18.2a.6.6,0,0,1-.59-.59Zm41.08-1a13.07,13.07,0,1,1-.13,0h.14Zm0,30.69a14.35,14.35,0,1,0-14.35-14.35v0a14.32,14.32,0,0,0,14.34,14.3h0ZM271,12v9.55l9.55-4.78Z"/><path d="M132.22,33.46c6,0,12.47-4.22,12.47-10.26,0-7.42-8.49-8.56-15.28-12.38A5.36,5.36,0,0,1,132.12.68c6.35,0,10.07,6.66,10.1,6.7s.22.12.25-.09c0,0-1.39-6.92-1.4-7s-.05-.21-.25,0a2.66,2.66,0,0,1-2,1.16c-2.68,0-3.71-1.43-6.71-1.43-5.36,0-9.51,4.25-9.51,8.76,0,6,4.19,7.83,9.54,9.95,8,3.18,7.64,5.62,7.64,7.89,0,2.94-3.06,6.33-7.64,6.33-6.33,0-9.27-6.15-9.51-9.39,0-.15-.18-.19-.2,0v9.18s0,.06,0,.06h.23s.05,0,.06-.05a2,2,0,0,1,1.71-.78c3,0,2.55,1.58,7.69,1.55m-37.16-.72h26.66s0-9.27,0-9.41-.11-.09-.11-.09-2.36,8.92-9.35,8.92c0,0-7.45.75-7.45-3.46V15.19a.17.17,0,0,1,.14-.19h6.41a3.69,3.69,0,0,1,3.76,3.49s.08.2.17,0V11.39s-.11-.18-.16,0a4.33,4.33,0,0,1-3.77,3.09h-6.39a.14.14,0,0,1-.16-.16V3.47c0-2.31,3.46-2.12,6.3-2.12,6.43,0,9.55,5.76,9.71,5.86S121,7,121,7L119.24,1s0-.07-.09-.07H95c-.23,0-.26.2,0,.2,4.32,0,4.24,2.34,4.24,2.34V29.6c-.39,2.9-3.68,3-4.15,3-.16,0-.14.14,0,.14"/><path d="M65.62,32.59a2.89,2.89,0,0,0,3-2.78V3.6A2.79,2.79,0,0,0,65.54,1c-.18,0-.19-.16,0-.16H81.13C81.31.89,98,.37,98,17.39c0,0-.43,15.33-18,15.35H65.62C65.48,32.74,65.46,32.59,65.62,32.59ZM92.35,16.64C92.38-.51,78.28,1.49,76.7,1.48a2.28,2.28,0,0,0-2.61,2.31v26s-.3,2.41,5.1,2.42C92.54,32.22,92.35,17,92.35,17ZM55.91,30.34V3.61S55.87,1,52.84,1c-.23,0-.22-.16,0-.16H64.3c.15,0,.14.16,0,.16S61.12.92,61.12,3.61c0,0,0,24.44,0,26.68s3,2.28,3.17,2.28.15.15,0,.15H47.16a.13.13,0,0,1-.13-.09l-5-10.7c-1.07-2.54-2.23-4.07-4.38-4.28-1.5-.15-3-.26-3,.06V29.46a3.17,3.17,0,0,0,3.44,3.15c.19,0,.19.13,0,.13H25.75c-.19,0-.19-.13,0-.13,3.63,0,3.48-3.17,3.49-3.17s0-25.84,0-25.84S29.22,1,26.18,1C26,1,26,.89,26.15.89h15.5s8.42-.14,8.42,8.68c0,6.35-7.82,7.65-7.82,7.65-.17,0,0,.16,0,.16a7.63,7.63,0,0,1,5.45,4.43c1.72,3.82,3.12,7,3.12,7,1.29,3.06,2.53,3.73,3.35,3.69S55.91,32,55.91,30.34ZM34.72,16.59c.09.33,1.16.36,3.29.36,6.59,0,6.58-6.67,6.58-6.67,0-8.84-4.88-8.95-6.86-8.95-3.3,0-3,2.49-3,2.49Z"/><path d="M10,14.17A.18.18,0,0,1,9.8,14V3.15c0-2.29,3.26-2,5.45-1.87,0,0,5.81-.07,5.81,7.15,0,5.2-4,6-5.38,5.91C15.09,14.28,10.21,14.17,10,14.17Zm11.28,10.5c0,1.72-.81,7.49-6.66,7.49-5.67,0-4.93-2.63-4.93-2.63L9.71,15a.19.19,0,0,1,.22-.22A58.46,58.46,0,0,1,16,15C20.79,15.5,21.3,21.64,21.28,24.67Zm6.11-1.05c0-7.4-9.23-8.7-9.21-8.7-.17,0-.16-.18,0-.18.35,0,8.14-.59,8.14-6.53,0-5.59-6-7.12-6.61-7.12-.23,0-1.55-.37-10-.41C7.19.66.18.68.18.68-.06.68-.07.9.18.9.18.9,4.1.63,4.1,4.11V29.86a2.83,2.83,0,0,1-3,2.76c-.23,0-.21.16,0,.15H16.81C27.48,32.77,27.38,23.62,27.38,23.62Z"/></svg>
