<svg viewBox="0 0 382 60"><path d="M351.146 43.804c.14-.447.299-.897.475-1.35.867-2.231 1.995-4.09 3.383-5.577s2.8-2.23 4.238-2.23c.594 0 1.363.198 2.304.595.298-2.28 1.103-4.164 2.417-5.65 1.313-1.488 3.16-2.231 5.539-2.231 1.983 0 3.445.557 4.386 1.672.942 1.116 1.413 2.566 1.413 4.35 0 1.735-.458 3.717-1.375 5.948s-2.095 4.46-3.532 6.691c.595.298 1.289.446 2.082.446 1.388 0 2.875-.458 4.46-1.375s2.801-2.317 3.644-4.2l1.338.966c-1.04 2.379-2.44 4.188-4.2 5.427-1.76 1.24-3.582 1.859-5.465 1.859-1.14 0-2.38-.223-3.718-.67-1.834 2.182-3.841 3.966-6.022 5.354s-4.312 2.082-6.394 2.082c-2.032 0-3.507-.67-4.424-2.008-.917-1.338-1.375-2.998-1.375-4.981 0-.093 0-.187.002-.28a25.538 25.538 0 01-4.352 4.072c-3.692 2.726-7.521 4.089-11.487 4.089-3.122 0-5.551-.843-7.286-2.528-1.4-1.36-2.234-3.025-2.505-4.998a23.492 23.492 0 01-2.253 2.322c-2.875 2.577-5.725 3.866-8.55 3.866-1.934 0-3.321-.595-4.164-1.785s-1.264-2.75-1.264-4.684c0-1.14.198-2.75.595-4.832-2.429 3.519-4.932 6.332-7.51 8.438-2.577 2.107-4.931 3.16-7.063 3.16-1.635 0-3.098-.57-4.386-1.71-1.196-1.057-1.837-2.563-1.923-4.516a20.784 20.784 0 01-2.39 2.583c-2.676 2.429-5.551 3.643-8.624 3.643-2.082 0-3.693-.62-4.833-1.859-1.14-1.239-1.71-2.825-1.71-4.758 0-1.983.558-4.672 1.673-8.067s2.528-6.382 4.238-8.959 3.432-3.866 5.167-3.866c.645 0 1.177.186 1.599.557.421.372.632.905.632 1.599 0 .446-.199 1.053-.595 1.821s-1.041 1.872-1.933 3.309c-1.586 2.627-2.838 4.944-3.755 6.952s-1.375 3.903-1.375 5.687c0 1.537.272 2.578.818 3.123.545.545 1.387.818 2.527.818 3.079 0 6.142-2.343 9.19-7.03.526-1.75 1.379-3.632 2.558-5.647a32.94 32.94 0 018.104-9.33c3.271-2.578 6.542-3.867 9.814-3.867 2.429 0 3.643.793 3.643 2.38 0 .793-.297 1.363-.892 1.71-.397-.546-1.264-.818-2.602-.818-2.528 0-4.932 1.103-7.212 3.308-2.28 2.206-4.127 4.796-5.54 7.77-1.412 2.974-2.118 5.452-2.118 7.435 0 .991.198 1.76.594 2.305.397.545.992.817 1.785.817 1.388 0 3.01-.805 4.87-2.416 1.858-1.61 3.767-3.903 5.725-6.877 1.957-2.974 3.705-6.444 5.241-10.41 3.866-9.912 7.138-17.632 9.814-23.159 2.677-5.527 5.007-8.29 6.99-8.29.544 0 1.028.21 1.449.632.421.421.632.954.632 1.598 0 .843-.384 2.132-1.152 3.867-.769 1.734-2.07 4.46-3.904 8.178-3.618 7.336-6.493 13.742-8.624 19.22-2.132 5.477-3.197 10.445-3.197 14.906 0 1.19.111 1.996.334 2.417.223.421.607.632 1.153.632 1.685 0 3.618-.992 5.799-2.974a21.383 21.383 0 002.738-3.044c.38-2.193 1.277-4.512 2.69-6.956 1.933-3.346 4.41-6.146 7.434-8.402s5.998-3.383 8.922-3.383c1.537 0 2.826.385 3.866 1.153 1.041.768 1.562 2.044 1.562 3.829 0 2.38-.917 4.622-2.751 6.728s-4.2 3.83-7.1 5.168c-2.9 1.338-5.862 2.18-8.885 2.528a8.785 8.785 0 00-.149 1.71c0 1.288.36 2.577 1.078 3.866.719 1.289 2.268 1.933 4.647 1.933 3.024 0 6.109-1.227 9.256-3.68a27.597 27.597 0 005.77-6.122zM234.818 58.513c-1.512-.991-2.268-2.701-2.268-5.13 0-1.388.248-3.011.744-4.87.495-1.859 1.288-4.498 2.379-7.918 1.834-5.65 3.259-10.682 4.275-15.093a60.09 60.09 0 001.524-13.532c0-2.875-.322-5.068-.966-6.58-.645-1.511-1.834-2.267-3.57-2.267-1.585 0-2.911.607-3.977 1.821-1.066 1.215-1.859 2.702-2.38 4.461-.52 1.76-.78 3.457-.78 5.093 0 1.785.372 3.395 1.115 4.833-2.33 0-4.064-.545-5.204-1.636-1.14-1.09-1.71-2.528-1.71-4.312 0-2.032.657-4.09 1.97-6.171 1.314-2.082 3.073-3.804 5.28-5.167C233.454.682 235.845 0 238.423 0c3.32 0 5.861 1.214 7.62 3.643 1.76 2.429 2.64 5.8 2.64 10.112 0 3.32-.446 6.79-1.338 10.409s-2.206 8.228-3.94 13.829c-1.389 4.361-2.38 7.695-2.975 10-.595 2.304-.892 4.349-.892 6.133 0 .893.124 1.537.372 1.933.248.397.718.595 1.412.595 2.776 0 6.246-2.453 10.41-7.36s7.794-10.731 10.892-17.472c3.097-6.741 4.646-12.64 4.646-17.696 0-4.808-1.66-7.757-4.981-8.847.644-1.388 1.462-2.441 2.453-3.16.992-.719 1.934-1.078 2.826-1.078s1.772.396 2.64 1.19c.867.793 1.573 1.92 2.118 3.382s.818 3.16.818 5.093c0 5.254-1.896 11.847-5.688 19.777-3.792 7.93-8.327 14.833-13.606 20.707s-10 8.81-14.163 8.81c-1.735 0-3.358-.496-4.87-1.487zm48.476-37.026c-.719-.496-1.078-1.214-1.078-2.156 0-1.14.632-2.144 1.896-3.011s2.614-1.301 4.052-1.301c2.13 0 3.197.917 3.197 2.75 0 1.041-.57 2.045-1.71 3.012-1.14.966-2.38 1.45-3.718 1.45-1.04 0-1.92-.248-2.64-.744zm54.052 19.703c2.205-1.24 4.077-2.764 5.613-4.573s2.305-3.581 2.305-5.316c0-.545-.1-.917-.297-1.115s-.52-.298-.967-.298c-1.437 0-3.011.682-4.721 2.045s-3.284 3.086-4.721 5.167c-1.438 2.082-2.503 4.164-3.197 6.246 1.784-.199 3.779-.917 5.985-2.156zm33.606-2.454c.818-1.983 1.226-3.767 1.226-5.353 0-2.181-.693-3.271-2.081-3.271-.645 0-1.314.322-2.008.966-.694.644-1.264 1.5-1.71 2.565-.446 1.066-.669 2.243-.669 3.532 0 1.14.198 2.44.595 3.903.396 1.462.917 2.59 1.561 3.383a32.019 32.019 0 003.086-5.725zm-8.885 11.896c1.289-.991 2.577-2.255 3.866-3.792-2.825-2.478-4.312-6.121-4.46-10.93-.596.298-1.314 1.215-2.157 2.752-.843 1.536-1.561 3.246-2.156 5.13-.595 1.883-.892 3.519-.892 4.907 0 2.28.842 3.42 2.528 3.42.892 0 1.982-.496 3.27-1.487z" fill="#ea3568"/><path d="M189.79 56c8.659 0 17.888-6.063 17.888-14.722 0-10.664-12.198-12.272-21.922-17.765-7.076-3.983-4.75-14.548 3.885-14.548 9.105 0 14.45 9.55 14.499 9.625.123.173.321.173.37-.124 0 0-2.003-9.946-2.003-10.07s-.075-.297-.347 0c-.816.89-1.583 1.658-2.82 1.658-3.835 0-5.32-2.054-9.625-2.054-7.695 0-13.657 6.086-13.657 12.569 0 8.66 6.012 11.233 13.682 14.276 11.53 4.552 10.96 8.066 10.96 11.332 0 4.23-4.379 9.08-10.96 9.08-9.08 0-13.311-8.833-13.658-13.484-.024-.223-.247-.273-.272-.075v13.163a.074.074 0 00.074.099h.347a.064.064 0 00.074-.074c.148-.297 1.014-1.114 2.45-1.138 4.33.024 3.661 2.3 11.034 2.251zm-53.344-1.015h38.276v-13.51c0-.222-.174-.123-.174-.123s-3.39 12.767-13.435 12.767c0 0-10.688 1.088-10.688-4.973V29.798a.247.247 0 01.198-.273h9.206s4.627-.272 5.394 5.023c0 0 .124.297.248.05V24.353s-.149-.247-.223-.05c-1.413 4.306-5.419 4.43-5.419 4.43h-9.179a.2.2 0 01-.223-.223V12.973c0-3.315 4.974-3.043 9.031-3.043 9.229 0 13.707 8.264 13.93 8.412.42.272.297-.272.297-.272l-2.526-8.71s.024-.098-.124-.098h-34.71c-.322 0-.372.272 0 .272 6.185-.025 6.086 3.365 6.086 3.365l-.025 37.583c-.569 4.156-5.294 4.28-5.962 4.28-.198 0-.174.223.024.223zm-42.232-.223c4.206 0 4.33-3.983 4.33-3.983V13.146s-.126-3.661-4.48-3.661c-.248 0-.273-.223 0-.223h22.39c.273.025 24.198-.742 24.198 23.703 0 0-.619 21.995-25.83 22.02h-20.61c-.196 0-.223-.223 0-.223zm38.35-22.886c.05-24.618-20.19-21.748-22.441-21.773-1.534-.025-3.414.371-3.736 3.315v37.286s-.42 3.464 7.324 3.464c19.15.05 18.878-21.822 18.878-21.822v-.47zm-52.282 19.67V13.17s-.074-3.662-4.429-3.662c-.346 0-.322-.222-.025-.222h16.478c.223 0 .198.222 0 .222-.123 0-4.552-.173-4.552 3.687 0 0-.025 35.059-.025 38.3s4.355 3.266 4.555 3.266c.2 0 .223.223.025.223H67.715a.166.166 0 01-.173-.124l-7.2-15.365c-1.534-3.637-3.191-5.839-6.284-6.136-2.153-.222-4.28-.37-4.305.1v16.824s-.025 4.528 4.948 4.528c.272 0 .272.173 0 .173h-17.69c-.272 0-.272-.173 0-.173 5.22 0 4.998-4.553 4.998-4.553V13.171s-.052-3.686-4.382-3.686c-.322 0-.248-.223-.05-.223H59.82s12.074-.198 12.074 12.47c0 9.105-11.232 10.985-11.232 10.985-.248.074 0 .223 0 .223a10.983 10.983 0 017.818 6.358c2.474 5.493 4.478 9.996 4.478 9.996 1.856 4.38 3.613 5.344 4.825 5.295 1.262-.074 2.499-.693 2.499-3.043zM49.874 31.802c.124.47 1.658.52 4.726.52 9.451 0 9.451-9.576 9.451-9.576 0-12.692-7.002-12.84-9.847-12.84-4.726 0-4.33 3.587-4.33 3.587zM14.37 28.338a.265.265 0 01-.27-.297V12.503c0-3.29 4.674-2.845 7.816-2.672.025 0 8.338-.1 8.338 10.268 0 7.472-5.765 8.684-7.72 8.486-.84-.099-7.843-.247-8.164-.247zm16.205 15.068c0 2.474-1.162 10.762-9.55 10.762-8.14 0-7.076-3.76-7.076-3.76l.025-20.808a.28.28 0 01.321-.322 85.587 85.587 0 018.784.322c6.804.643 7.521 9.451 7.496 13.806zm8.762-1.51c0-10.614-13.237-12.494-13.213-12.494-.247 0-.222-.272 0-.272.495 0 11.679-.842 11.679-9.378 0-8.016-8.66-10.218-9.501-10.218-.347 0-2.227-.52-14.35-.594-3.613-.025-13.683 0-13.683 0-.346 0-.371.322 0 .322 0 0 5.617-.396 5.617 4.627v36.964s-.075 3.959-4.306 3.959c-.321 0-.296.222-.024.222H24.12c15.363 0 15.217-13.138 15.217-13.138z" fill="#fff"/></svg>