<svg viewBox="0 0 49.6 24" xmlns="http://www.w3.org/2000/svg"><path d="m41.5 12.7-7.3.3 2.9 4.1c-3.2.6-6.2-2-6.1-5.1 0-3.2 2.6-5.5 5.6-5.5 3.9 0 6.7 3.6 5.6 7.1zm-17.1.7c.7 5.4 5.4 10.6 12.1 10.6 2.9 0 4.9-1.2 5.3-1.4l.8 1 7.1-.4-3-4.2s2.2-2.9 2.2-6.7c0-7.5-5.2-12.3-12.4-12.3-6.5 0-11.5 4.9-12.1 10.7l-.1-.6h-11.3v5.6h3.1c0 .1-1.6 1.7-3.9 1.7-2.6 0-5.5-2-5.6-5.3-.1-3.4 2.9-5.6 5.6-5.5 2.2.1 3 .7 4.3 1.9h7.3c-.7-2.4-4.1-8.5-11.7-8.5-7.1 0-12.1 5.8-12.1 11.9 0 7 5.5 12.1 12.3 12.1 7.5 0 11.6-6.1 12.1-10.6z" fill="#fff"/></svg>