<svg id="brand-logo-dark" xmlns="http://www.w3.org/2000/svg" viewBox="0 0 49.6 24">
  <style>
    .st0{fill:#FFFFFF;}
  </style>
  <path class="st0" d="M41.5 12.7l-7.3.3 2.9 4.1c-3.2.6-6.2-2-6.1-5.1 0-3.2 2.6-5.5 5.6-5.5 3.9 0 6.7 3.6 5.6 7.1l-.7-.9zm-17.1.7c.7 5.4 5.4 10.6 12.1 10.6 2.9 0 4.9-1.2 5.3-1.4l.8 1 7.1-.4-3-4.2s2.2-2.9 2.2-6.7C48.9 4.8 43.7 0 36.5 0 30 0 25 4.9 24.4 10.7l-.1-.6H13v5.6h3.1c0 .1-1.6 1.7-3.9 1.7-2.6 0-5.5-2-5.6-5.3-.1-3.4 2.9-5.6 5.6-5.5 2.2.1 3 .7 4.3 1.9h7.3C23.1 6.1 19.7 0 12.1 0 5 0 0 5.8 0 11.9 0 18.9 5.5 24 12.3 24c7.5 0 11.6-6.1 12.1-10.6z"/>
</svg>
