<svg viewBox="0 0 82.7 40" xmlns="http://www.w3.org/2000/svg"><title>Menu</title><path d="m69.2 21.2-12.2.4 4.8 6.9c-5.3 1-10.3-3.4-10.2-8.5.1-5.3 4.3-9.2 9.4-9.2 6.6 0 11.1 6 9.3 11.8zm-28.5 1.1c1.2 9 9 17.6 20.1 17.6 4.8 0 8.2-2.1 8.8-2.4l1.3 1.7 11.8-.6-5-7s3.7-4.8 3.7-11.1c.1-12.4-8.5-20.5-20.6-20.5-10.9 0-19.2 8.2-20.2 17.9l-.2-1h-18.7v9.4h5.1c0 .2-2.6 2.8-6.5 2.8-4.3 0-9.2-3.4-9.3-8.8-.1-5.6 4.8-9.3 9.3-9.2 3.7.1 5 1.2 7.1 3.2h12.2c-1-4-6.6-14.1-19.4-14.1-11.8-.2-20.2 9.5-20.2 19.6 0 11.7 9.1 20.2 20.6 20.2 12.3 0 19.3-10.2 20.1-17.7z"/></svg>