<svg id="nav-gallery-logo" xmlns="http://www.w3.org/2000/svg" viewBox="0 0 82.7 40"><path d="M69.2 21.2l-12.2.4 4.8 6.9c-5.3 1-10.3-3.4-10.2-8.5.1-5.3 4.3-9.2 9.4-9.2 6.6 0 11.1 6 9.3 11.8l-1.1-1.4zm-28.5 1.1c1.2 9 9 17.6 20.1 17.6 4.8 0 8.2-2.1 8.8-2.4l1.3 1.7 11.8-.6-5-7s3.7-4.8 3.7-11.1C81.5 8.1 72.9 0 60.8 0 49.9 0 41.6 8.2 40.6 17.9l-.2-1H21.7v9.4h5.1c0 .2-2.6 2.8-6.5 2.8-4.3 0-9.2-3.4-9.3-8.8-.1-5.6 4.8-9.3 9.3-9.2 3.7.1 5 1.2 7.1 3.2h12.2C38.6 10.3 33 .2 20.2.2 8.4 0 0 9.7 0 19.8 0 31.5 9.1 40 20.6 40c12.3 0 19.3-10.2 20.1-17.7z"/></svg>