<svg id="nav-masthead-logo" xmlns="http://www.w3.org/2000/svg" viewBox="0 0 182 88">
  <style>
    .st0{fill:#010202;}
  </style>
  <path class="st0" d="M152.3 46.6l-26.9.9L136 62.6c-11.6 2.3-22.6-7.5-22.5-18.8.2-11.6 9.5-20.2 20.7-20.1 14.4 0 24.5 13.3 20.4 25.9l-2.3-3zM89.6 49c2.7 19.9 19.9 38.8 44.3 38.8 10.6 0 18.1-4.5 19.4-5.2l2.8 3.7 26-1.4-10.9-15.4s8.2-10.6 8.2-24.5c.1-27.2-19-44.9-45.6-45-23.9 0-42.2 18.1-44.4 39.3l-.3-2.2H47.7v20.7h11.2c0 .5-5.7 6.1-14.4 6.1-9.5 0-20.2-7.5-20.4-19.5-.2-12.4 10.6-20.6 20.5-20.2 8 .3 11.1 2.6 15.6 7H87C84.7 22.4 72.4.2 44.3.1 18.5.1-.1 21.4 0 43.5.1 69.2 20 88 45.2 88c27.3 0 42.5-22.4 44.4-39zm-39.1-8.1h2.8c.7 0 1.2.2 1.6.5.3.3.4.6.4 1 0 .7-.4 1.1-.8 1.3.7.3 1.1.7 1.1 1.5 0 1.1-.9 1.7-2.3 1.7h-2.9v-6zm3.5 1.9c0-.4-.3-.6-.9-.6h-1.3v1.3H53c.7-.1 1-.3 1-.7zm-.6 1.7h-1.6v1.3h1.6c.6 0 1-.2 1-.7 0-.3-.3-.6-1-.6zm3.4-3.6h2.8c.8 0 1.4.2 1.8.6.3.3.5.8.5 1.4 0 1-.5 1.6-1.3 1.9l1.5 2.2h-1.6l-1.3-2h-1.1v2h-1.3v-6.1zm2.7 3c.7 0 1-.3 1-.9 0-.6-.4-.9-1.1-.9h-1.3v1.8h1.4zm3.7-3h1.3V47h-1.3v-6.1zm4.3 1.3h-1.9V41h5.1v1.2h-1.9v4.9h-1.3v-4.9zm4.3-1.3h1.3V47h-1.3v-6.1zm2.4 5.3l.8-.9c.5.5 1.1.7 1.8.7.5 0 .9-.2.9-.6 0-.3-.2-.5-1.2-.8-1.2-.3-2-.7-2-1.9 0-1.1.9-1.8 2.1-1.8.9 0 1.6.3 2.3.8l-.7 1c-.5-.4-1.1-.6-1.6-.6s-.8.2-.8.5c0 .4.3.5 1.3.8 1.2.3 1.9.8 1.9 1.8 0 1.2-.9 1.9-2.2 1.9-.9 0-1.8-.3-2.6-.9zm6-5.3h1.3v2.4H84v-2.4h1.3V47H84v-2.5h-2.5V47h-1.3v-6.1z"/>
</svg>
