<svg><defs><font horiz-adv-x="600"><font-face ascent="818" bbox="-230 -220 1092 1113" cap-height="715" descent="-182" panose-1="2 11 5 3 3 2 2 6 2 3" underline-position="-50" underline-thickness="50" unicode-range="U+0020-FB02" x-height="523"/><missing-glyph horiz-adv-x="500"/><glyph d="M102 0v453h-75v70h75v78q0 81 39.5 124.5t116.5 43.5q32 0 62-10v-70q-28 11-59 11-76 0-76-90v-87h205v85q0 81 39.5 124.5t116.5 43.5q32 0 62-10v-70q-28 11-59 11-76 0-76-90v-94h128v-70h-128v-453h-83v453h-205v-453h-83z" glyph-name="f_f" horiz-adv-x="634" unicode="&#x66;&#x66;"/><glyph glyph-name=".notdef" horiz-adv-x="500"/><glyph glyph-name=".null" horiz-adv-x="0"/><glyph glyph-name="nonmarkingreturn" horiz-adv-x="333"/><glyph glyph-name="space" horiz-adv-x="265" unicode="&#x20;"/><glyph d="M143-5q-26 0-45 18.5t-19 45.5 19 45.5 45 18.5 45-18.5 19-45.5-19-45.5-45-18.5zM112 202l-14 513h92l-14-513h-64z" glyph-name="exclam" horiz-adv-x="286" unicode="&#x21;"/><glyph d="M76 470l-15 245h90l-15-245h-60zM239 470l-15 245h90l-15-245h-60z" glyph-name="quotedbl" horiz-adv-x="375" unicode="&#x22;"/><glyph d="M252 99l26 183h-97l-26-183h-68l26 183h-83v70h94l19 132h-85v70h95l24 161h68l-24-161h97l24 161h68l-24-161h87v-70h-97l-19-132h88v-70h-99l-26-183h-68zM211 484l-19-132h97l19 132h-97z" glyph-name="numbersign" horiz-adv-x="503" unicode="&#x23;"/><glyph d="M285-135v127q-218 15-240 226h84q9-70 41-110t115-48v278q-106 20-158.5 63.5t-52.5 128.5q0 78 59 132.5t152 60.5v90h59v-91q91-8 144.5-58t63.5-137h-78q-11 58-42.5 88.5t-87.5 38.5v-250q116-21 169.5-65t53.5-137q0-86-63-145t-160-65v-127h-59zM484 196q0 57-30 86t-110 46v-268q61 6 100.5 43.5t39.5 92.5zM153 538q0-51 26.5-79.5t105.5-44.5v241q-62-5-97-37t-35-80z" glyph-name="dollar" horiz-adv-x="627" unicode="&#x24;"/><glyph d="M198 448q41 0 64.5 27t23.5 77q0 48-23.5 76t-64.5 28q-40 0-64-27.5t-24-77.5 23.5-76.5 64.5-26.5zM198 383q-66 0-115 48t-49 119q0 73 48.5 122t115.5 49q68 0 116-48.5t48-120.5-49-120.5-115-48.5zM135 0l437 715h76l-437-715h-76zM586 57q41 0 64.5 27t23.5 77q0 48-23.5 76t-64.5 28q-40 0-64-27.5t-24-77.5 23.5-76.5 64.5-26.5zM586-8q-66 0-115 48t-49 119q0 73 48.5 122t115.5 49q68 0 116-48.5t48-120.5-49-120.5-115-48.5z" glyph-name="percent" horiz-adv-x="784" unicode="&#x25;"/><glyph d="M644 369l-117-223 120-146h-101l-71 86q-80-93-198-93-99 0-162.5 54t-63.5 142q0 78 42.5 127t121.5 88q-63 81-63 151 0 77 51.5 120.5t123.5 43.5q67 0 111.5-41.5t44.5-105.5q0-119-153-185l150-183 87 165h77zM280 61q88 0 152 78l-178 217q-59-28-89-64t-30-95q0-64 38.5-100t106.5-36zM232 554q0-43 62-121 61 27 86 58.5t25 82.5q0 35-22.5 57.5t-58.5 22.5q-40 0-66-25t-26-75z" glyph-name="ampersand" horiz-adv-x="686" unicode="&#x26;"/><glyph d="M76 470l-15 245h90l-15-245h-60z" glyph-name="quotesingle" horiz-adv-x="212" unicode="&#x27;"/><glyph d="M219-148q-166 195-166 460 0 266 166 461h83q-162-202-162-461 0-258 162-460h-83z" glyph-name="parenleft" horiz-adv-x="322" unicode="&#x28;"/><glyph d="M20-145q162 202 162 461 0 258-162 460h83q166-195 166-460 0-266-166-461h-83z" glyph-name="parenright" horiz-adv-x="322" unicode="&#x29;"/><glyph d="M139 409l-57 41 83 111-123 29 22 67 118-48-7 134h73l-7-134 117 48 22-67-124-29 83-111-56-41-74 120z" glyph-name="asterisk" horiz-adv-x="422" unicode="&#x2a;"/><glyph d="M223 105v202h-187v70h187v202h73v-202h187v-70h-187v-202h-73z" glyph-name="plus" horiz-adv-x="519" unicode="&#x2b;"/><glyph d="M90-123l-54 28 96 219 81-38z" glyph-name="comma" horiz-adv-x="282" unicode="&#x2c;"/><glyph d="M60 236v78h214v-78h-214z" glyph-name="hyphen" horiz-adv-x="334" unicode="&#x2d;"/><glyph d="M141-5q-26 0-45 18.5t-19 45.5 19 45.5 45 18.5 45-18.5 19-45.5-19-45.5-45-18.5z" glyph-name="period" horiz-adv-x="282" unicode="&#x2e;"/><glyph d="M6-148l291 924h76l-291-924h-76z" glyph-name="slash" horiz-adv-x="403" unicode="&#x2f;"/><glyph d="M344 63q93 0 141 70.5t48 206.5v40q0 126-50.5 200t-140.5 74q-91 0-142-72.5t-51-203.5v-40q0-133 52-204t143-71zM344-9q-128 0-206 95t-78 251v40q0 159 75.5 253t206.5 94q130 0 204.5-95t74.5-250v-40q0-158-73.5-253t-203.5-95z" glyph-name="zero" horiz-adv-x="681" unicode="&#x30;"/><glyph d="M193 0v629l-160-115v81l166 120h81v-715h-87z" glyph-name="one" horiz-adv-x="399" unicode="&#x31;"/><glyph d="M19 0v20l284 299q103 109 103 207 0 60-33.5 94t-94.5 34q-131 0-151-159h-81q8 106 69.5 167.5t162.5 61.5q99 0 157.5-54.5t58.5-146.5q0-119-144-260l-197-192h345v-71h-479z" glyph-name="two" horiz-adv-x="554" unicode="&#x32;"/><glyph d="M290-9q-111 0-178.5 62t-71.5 158h80q6-68 48.5-109t123.5-41q82 0 122.5 36.5t40.5 101.5q0 139-151 139h-54v73h50q134 0 134 122 0 53-33.5 86.5t-96.5 33.5q-66 0-108.5-37t-49.5-98h-76q4 87 69 146.5t165 59.5q98 0 156.5-55.5t58.5-133.5q0-109-113-156 65-17 101.5-62.5t36.5-117.5q0-96-70.5-152t-183.5-56z" glyph-name="three" horiz-adv-x="604" unicode="&#x33;"/><glyph d="M397 0v150h-358v28l327 537h116v-494h99v-71h-99v-150h-85zM149 221h248v428z" glyph-name="four" horiz-adv-x="617" unicode="&#x34;"/><glyph d="M281-9q-111 0-170.5 55t-67.5 147h83q12-65 45-98.5t109-33.5q73 0 115 46t42 127q0 76-41 121.5t-109 45.5q-108 0-169-69h-32v383h402v-75h-330v-218q53 49 146 49 98 0 160-64.5t62-172.5q0-110-70-176.5t-175-66.5z" glyph-name="five" horiz-adv-x="587" unicode="&#x35;"/><glyph d="M317-9q-71 0-122 25t-80 71-42 102.5-13 126.5v17q0 188 76.5 289.5t203.5 101.5q85 0 140-44t69-129h-83q-12 52-43 77t-89 25q-83 0-134-74t-54-212q26 44 74.5 70.5t109.5 26.5q105 0 169.5-67t64.5-167q0-108-67-173.5t-180-65.5zM317 59q71 0 114.5 46t43.5 121q0 77-43 123.5t-116 46.5q-72 0-118-44t-46-114q0-85 45.5-132t119.5-47z" glyph-name="six" horiz-adv-x="619" unicode="&#x36;"/><glyph d="M146 0l249 645h-363v70h471v-12l-268-703h-89z" glyph-name="seven" horiz-adv-x="525" unicode="&#x37;"/><glyph d="M304-9q-61 0-116 22.5t-93 72.5-38 117q0 69 37 116t98 69q-51 20-79.5 59t-28.5 91q0 83 66.5 134.5t153.5 51.5 153-51.5 66-132.5q0-103-110-151 137-50 137-184 0-101-73.5-157.5t-172.5-56.5zM304 62q69 0 113 38.5t44 107.5q0 68-44 105t-111 37q-68 0-114-38t-46-106q0-67 46-105.5t112-38.5zM307 419q58 0 93 32t35 88q0 51-37.5 84t-93.5 33q-57 0-94.5-32.5t-37.5-86.5 39-86 96-32z" glyph-name="eight" horiz-adv-x="607" unicode="&#x38;"/><glyph d="M290-8q-98 0-157 48.5t-73 135.5h84q13-56 47.5-84.5t100.5-28.5q87 0 134.5 71.5t48.5 212.5q-26-44-75-69.5t-110-25.5q-104 0-169.5 66t-65.5 168q0 108 67 173.5t180 65.5q126 0 191.5-82.5t65.5-237.5v-45q0-177-70-272.5t-199-95.5zM303 320q72 0 118 43t46 112q0 86-45.5 134t-119.5 48q-71 0-114.5-46t-43.5-121q0-77 43-123.5t116-46.5z" glyph-name="nine" horiz-adv-x="620" unicode="&#x39;"/><glyph d="M146-5q-26 0-45 18.5t-19 45.5 19 45.5 45 18.5 45-18.5 19-45.5-19-45.5-45-18.5zM146 292q-26 0-45 18.5t-19 45.5 19 45.5 45 18.5 45-18.5 19-45.5-19-45.5-45-18.5z" glyph-name="colon" horiz-adv-x="292" unicode="&#x3a;"/><glyph d="M75-123l-54 28 96 219 81-38zM155 292q-26 0-45 18.5t-19 45.5 19 45.5 45 18.5 45-18.5 19-45.5-19-45.5-45-18.5z" glyph-name="semicolon" horiz-adv-x="292" unicode="&#x3b;"/><glyph d="M437 95l-384 217v20l384 217v-80l-263-147 263-147v-80z" glyph-name="less" horiz-adv-x="504" unicode="&#x3c;"/><glyph d="M40 196v72h404v-72h-404zM40 376v72h404v-72h-404z" glyph-name="equal" horiz-adv-x="484" unicode="&#x3d;"/><glyph d="M67 95v80l263 147-263 147v80l384-217v-20z" glyph-name="greater" horiz-adv-x="504" unicode="&#x3e;"/><glyph d="M179 202v50q0 38 18 74t34 54 51 52q24 24 37 39.5t24.5 38 11.5 45.5q0 46-26.5 73t-80.5 27q-56 0-92-35.5t-41-94.5h-78q5 89 63 144t149 55q95 0 142.5-48t47.5-118q0-34-16.5-67.5t-32.5-51-49-48.5q-29-28-44-44.5t-29.5-44.5-14.5-57v-43h-74zM214-5q-26 0-45 18.5t-19 45.5 19 45.5 45 18.5 45-18.5 19-45.5-19-45.5-45-18.5z" glyph-name="question" horiz-adv-x="489" unicode="&#x3f;"/><glyph d="M459-147q-97 0-177 33.5t-131 90.5-78.5 129.5-27.5 153.5q0 181 125.5 304.5t301.5 123.5q177 0 287.5-104.5t110.5-261.5q0-67-18-118.5t-46.5-80-60-42.5-63.5-14q-57 0-82.5 22t-32.5 64q-23-40-63.5-66.5t-85.5-26.5q-73 0-117 47t-44 127q0 100 57 166t140 66q93 0 121-68l7 60h83l-30-252q-10-79 48-79 47 0 81 49t34 144q0 136-87 219t-239 83-251-101-99-259q0-69 21.5-130.5t62.5-109 106.5-75.5 146.5-28q79 0 133 19.5t103 61.5h77q-39-66-123-106.5t-190-40.5zM436 124q50 0 89 44t39 119q0 56-27 84.5t-77 28.5q-49 0-83.5-44.5t-34.5-120.5q0-51 26.5-81t67.5-30z" glyph-name="at" horiz-adv-x="915" unicode="&#x40;"/><glyph d="M36 0l246 715h114l242-715h-86l-70 206h-295l-69-206h-82zM335 643l-124-368h248z" glyph-name="A" horiz-adv-x="674" unicode="&#x41;"/><glyph d="M90 0v715h215q230 0 230-185v-4q0-114-108-151 77-18 110-59t33-112v-4q0-99-62.5-149.5t-172.5-50.5h-245zM175 68h158q152 0 152 133v4q0 67-39.5 98.5t-124.5 31.5h-146v-267zM175 403h130q78 0 111.5 29.5t33.5 96.5v4q0 60-35.5 87t-111.5 27h-128v-244z" glyph-name="B" horiz-adv-x="622" unicode="&#x42;"/><glyph d="M389-9q-155 0-244.5 98t-89.5 264v8q0 159 95 262t241 103q117 0 198-61t92-173h-86q-27 165-203 165-111 0-179-80.5t-68-214.5v-8q0-137 65.5-214.5t180.5-77.5q89 0 146 44.5t70 130.5h81q-18-121-97-183.5t-202-62.5z" glyph-name="C" horiz-adv-x="730" unicode="&#x43;"/><glyph d="M177 71h98q135 0 205.5 75.5t70.5 209.5v8q0 131-67.5 206t-209.5 75h-97v-574zM90 0v715h189q177 0 269.5-97t92.5-254v-9q0-157-92.5-256t-271.5-99h-187z" glyph-name="D" horiz-adv-x="696" unicode="&#x44;"/><glyph d="M90 0v715h417v-71h-330v-243h266v-71h-266v-259h348v-71h-435z" glyph-name="E" horiz-adv-x="566" unicode="&#x45;"/><glyph d="M90 0v715h418v-71h-331v-253h258v-71h-258v-320h-87z" glyph-name="F" horiz-adv-x="546" unicode="&#x46;"/><glyph d="M401-9q-161 0-253.5 100.5t-92.5 261.5v8q0 158 96.5 261.5t249.5 103.5q115 0 195-56.5t96-170.5h-87q-28 158-202 158-121 0-189.5-80.5t-68.5-214.5v-8q0-136 66-214.5t190-78.5q111 0 167 63t58 165h-209v72h294v-53q0-152-84.5-234.5t-225.5-82.5z" glyph-name="G" horiz-adv-x="767" unicode="&#x47;"/><glyph d="M90 0v715h87v-324h376v324h87v-715h-87v318h-376v-318h-87z" glyph-name="H" horiz-adv-x="730" unicode="&#x48;"/><glyph d="M95 0v715h87v-715h-87z" glyph-name="I" horiz-adv-x="277" unicode="&#x49;"/><glyph d="M138-9q-64 0-100 19v72q47-20 95-20 116 0 116 136v517h87v-521q0-102-55-152.5t-143-50.5z" glyph-name="J" horiz-adv-x="420" unicode="&#x4a;"/><glyph d="M90 0v715h87v-344l311 345h97l-318-348 334-368h-105l-319 349v-349h-87z" glyph-name="K" horiz-adv-x="616" unicode="&#x4b;"/><glyph d="M90 0v715h87v-644h327v-71h-414z" glyph-name="L" horiz-adv-x="535" unicode="&#x4c;"/><glyph d="M90 0v715h121l221-557 214 557h120v-715h-87v602l-237-602h-27l-245 602v-602h-80z" glyph-name="M" horiz-adv-x="856" unicode="&#x4d;"/><glyph d="M90 0v715h113l348-591v591h83v-715h-100l-361 613v-613h-83z" glyph-name="N" horiz-adv-x="724" unicode="&#x4e;"/><glyph d="M409 63q118 0 187.5 81t69.5 212v8q0 125-69.5 207.5t-189.5 82.5q-122 0-192-81t-70-211v-8q0-128 75.5-209.5t188.5-81.5zM409-9q-156 0-255 104.5t-99 257.5v8q0 155 98.5 259t253.5 104 252-103.5 97-257.5v-8q0-154-97-259t-250-105z" glyph-name="O" horiz-adv-x="811" unicode="&#x4f;"/><glyph d="M90 0v715h203q111 0 180.5-51.5t69.5-157.5v-4q0-108-69.5-159.5t-180.5-51.5h-116v-291h-87zM177 360h122q76 0 116.5 36.5t40.5 105.5v4q0 139-157 139h-122v-285z" glyph-name="P" horiz-adv-x="581" unicode="&#x50;"/><glyph d="M659-89l-100 112q-67-32-150-32-156 0-255 104.5t-99 257.5v8q0 155 98.5 259t253.5 104 252-103.5 97-257.5v-8q0-90-35.5-166.5t-98.5-126.5l90-100zM409 63q55 0 98 18l-80 90 53 51 91-103q95 81 95 237v8q0 125-69.5 207.5t-189.5 82.5q-122 0-192-81t-70-211v-8q0-128 75.5-209.5t188.5-81.5z" glyph-name="Q" horiz-adv-x="811" unicode="&#x51;"/><glyph d="M90 0v715h215q111 0 180.5-49t69.5-150v-4q0-83-48.5-131.5t-128.5-63.5l219-317h-97l-213 311h-110v-311h-87zM177 380h134q157 0 157 132v4q0 70-40 99.5t-117 29.5h-134v-265z" glyph-name="R" horiz-adv-x="628" unicode="&#x52;"/><glyph d="M321-9q-133 0-197.5 62.5t-75.5 164.5h84q5-35 14.5-61t29.5-49 56.5-35 88.5-12q70 0 116.5 37.5t46.5 97.5q0 62-36 91.5t-137 45.5q-121 18-180 62.5t-59 134.5q0 83 65 138.5t165 55.5q108 0 172-51t74-146h-78q-13 67-53 97t-115 30q-71 0-110-32t-39-84q0-56 34-84t138-44q126-20 184.5-65.5t58.5-142.5q0-90-70.5-150.5t-176.5-60.5z" glyph-name="S" horiz-adv-x="627" unicode="&#x53;"/><glyph d="M237 0v644h-208v71h503v-71h-208v-644h-87z" glyph-name="T" horiz-adv-x="561" unicode="&#x54;"/><glyph d="M341-9q-123 0-190 70t-67 200v454h87v-444q0-111 41-159.5t131-48.5q92 0 137 48t45 173v431h87v-443q0-134-68-207.5t-203-73.5z" glyph-name="U" horiz-adv-x="696" unicode="&#x55;"/><glyph d="M273 0l-243 715h86l213-631 213 631h82l-247-715h-104z" glyph-name="V" horiz-adv-x="654" unicode="&#x56;"/><glyph d="M220 0l-186 715h89l145-577 168 577h62l168-579 147 579h81l-186-715h-80l-162 565-167-565h-79z" glyph-name="W" horiz-adv-x="928" unicode="&#x57;"/><glyph d="M45 0l236 367-220 348h96l178-281 177 281h89l-222-348 233-367h-98l-191 301-191-301h-87z" glyph-name="X" horiz-adv-x="657" unicode="&#x58;"/><glyph d="M262 0v312l-239 403h98l187-332 180 332h87l-226-404v-311h-87z" glyph-name="Y" horiz-adv-x="598" unicode="&#x59;"/><glyph d="M28 0v14l405 630h-369v71h489v-13l-394-628h388v-74h-519z" glyph-name="Z" horiz-adv-x="595" unicode="&#x5a;"/><glyph d="M88-148v924h224v-66h-141v-792h141v-66h-224z" glyph-name="bracketleft" horiz-adv-x="356" unicode="&#x5b;"/><glyph d="M321-148l-291 924h76l291-924h-76z" glyph-name="backslash" horiz-adv-x="403" unicode="&#x5c;"/><glyph d="M44-148v66h141v792h-141v66h224v-924h-224z" glyph-name="bracketright" horiz-adv-x="356" unicode="&#x5d;"/><glyph d="M44 408l167 307h85l167-307h-84l-127 236-126-236h-82z" glyph-name="asciicircum" horiz-adv-x="507" unicode="&#x5e;"/><glyph d="M-1-158v66h396v-66h-396z" glyph-name="underscore" horiz-adv-x="394" unicode="&#x5f;"/><glyph d="M177 613l-104 147h104l62-147h-62z" glyph-name="grave" horiz-adv-x="400" unicode="&#x60;"/><glyph d="M215-9q-77 0-125.5 38.5t-48.5 115.5q0 84 74.5 123t187.5 39h75v38q0 63-26 90.5t-86 27.5q-108 0-120-94h-83q8 84 66 123.5t141 39.5q191 0 191-187v-345h-83v66q-60-75-163-75zM223 57q68 0 111.5 33.5t43.5 92.5v65h-72q-182 0-182-103 0-88 99-88z" glyph-name="a" horiz-adv-x="540" unicode="&#x61;"/><glyph d="M344-9q-61 0-107 26.5t-70 68.5v-86h-83v773h83v-338q24 40 73 68.5t104 28.5q105 0 171.5-71.5t66.5-191.5v-8q0-121-65.5-195.5t-172.5-74.5zM336 60q78 0 119 51t41 146v8q0 95-45.5 146.5t-115.5 51.5q-76 0-123.5-50.5t-47.5-147.5v-8q0-97 46.5-147t125.5-50z" glyph-name="b" horiz-adv-x="627" unicode="&#x62;"/><glyph d="M301-9q-111 0-183.5 72.5t-72.5 192.5v8q0 118 73.5 193t180.5 75q90 0 153-44.5t74-138.5h-82q-18 114-145 114-73 0-120.5-54.5t-47.5-144.5v-8q0-94 46.5-145t124.5-51q59 0 101.5 33.5t48.5 94.5h77q-8-86-71.5-141.5t-156.5-55.5z" glyph-name="c" horiz-adv-x="570" unicode="&#x63;"/><glyph d="M281-9q-105 0-170.5 70t-65.5 190v8q0 120 68 196.5t176 76.5q116 0 171-93v334h83v-773h-83v90q-24-40-74-69.5t-105-29.5zM290 60q77 0 125 50.5t48 147.5v8q0 98-43.5 147.5t-122.5 49.5q-78 0-122-52.5t-44-147.5v-8q0-95 44.5-145t114.5-50z" glyph-name="d" horiz-adv-x="627" unicode="&#x64;"/><glyph d="M298-9q-112 0-182.5 72.5t-70.5 192.5v8q0 118 68.5 193t176.5 75q100 0 167.5-64.5t67.5-195.5v-27h-394q3-90 45.5-137.5t122.5-47.5q123 0 139 91h83q-13-77-73-118.5t-150-41.5zM134 312h306q-11 151-150 151-63 0-104-40.5t-52-110.5z" glyph-name="e" horiz-adv-x="568" unicode="&#x65;"/><glyph d="M102 0v453h-75v70h75v85q0 81 39.5 124.5t116.5 43.5q32 0 62-10v-70q-28 11-59 11-76 0-76-90v-94h128v-70h-128v-453h-83z" glyph-name="f" horiz-adv-x="346" unicode="&#x66;"/><glyph d="M293-191q-109 0-167.5 44.5t-69.5 116.5h85q18-91 151-91 80 0 124 39.5t44 121.5v76q-24-41-73-70t-104-29q-103 0-170.5 70t-67.5 178v7q0 109 69 184.5t175 75.5q116 0 171-93v84h83v-488q-1-111-69-168.5t-181-57.5zM292 86q75 0 123 49.5t48 135.5v7q0 87-44.5 136t-121.5 49-121.5-51.5-44.5-135.5v-8q0-83 46.5-132.5t114.5-49.5z" glyph-name="g" horiz-adv-x="627" unicode="&#x67;"/><glyph d="M84 0v773h83v-333q19 40 63 66t105 26q86 0 135-51t49-160v-321h-83v327q0 69-30 101t-93 32q-61 0-103.5-38t-42.5-105v-317h-83z" glyph-name="h" horiz-adv-x="598" unicode="&#x68;"/><glyph d="M86 0v523h83v-523h-83zM126 632q-22 0-38.5 16t-16.5 39 16.5 39 38.5 16 38.5-16 16.5-39-16.5-39-38.5-16z" glyph-name="i" horiz-adv-x="255" unicode="&#x69;"/><glyph d="M9-191v70q42 4 59.5 24t17.5 57v563h83v-556q0-77-37.5-116t-122.5-42zM126 632q-22 0-38.5 16t-16.5 39 16.5 39 38.5 16 38.5-16 16.5-39-16.5-39-38.5-16z" glyph-name="j" horiz-adv-x="255" unicode="&#x6a;"/><glyph d="M84 0v773h83v-491l217 241h97l-224-243 243-280h-101l-232 271v-271h-83z" glyph-name="k" horiz-adv-x="516" unicode="&#x6b;"/><glyph d="M86 0v773h84v-773h-84z" glyph-name="l" horiz-adv-x="256" unicode="&#x6c;"/><glyph d="M84 0v523h83v-80q19 39 60.5 64t95.5 25q115 0 153-98 25 48 75.5 73t103.5 25q77 0 126.5-50.5t49.5-157.5v-324h-83v330q0 130-111 130-56 0-97-37t-41-103v-320h-83v330q0 130-111 130-56 0-97-37t-41-103v-320h-83z" glyph-name="m" horiz-adv-x="910" unicode="&#x6d;"/><glyph d="M84 0v523h83v-83q19 40 63 66t105 26q86 0 135-51t49-160v-321h-83v327q0 69-30 101t-93 32q-61 0-103.5-38t-42.5-105v-317h-83z" glyph-name="n" horiz-adv-x="598" unicode="&#x6e;"/><glyph d="M302 60q78 0 124.5 54t46.5 143v7q0 91-46.5 145t-124.5 54q-79 0-125-54t-46-144v-8q0-90 46-143.5t125-53.5zM301-9q-111 0-183.5 75.5t-72.5 190.5v8q0 117 72.5 192t184.5 75 184.5-74.5 72.5-191.5v-8q0-118-73-192.5t-185-74.5z" glyph-name="o" horiz-adv-x="604" unicode="&#x6f;"/><glyph d="M84-182v705h83v-88q24 40 73 68.5t104 28.5q105 0 171.5-71.5t66.5-191.5v-8q0-121-65.5-195.5t-172.5-74.5q-61 0-107 26.5t-70 68.5v-268h-83zM336 60q78 0 119 51t41 146v8q0 95-45.5 146.5t-115.5 51.5q-76 0-123.5-50.5t-47.5-147.5v-8q0-97 46.5-147t125.5-50z" glyph-name="p" horiz-adv-x="627" unicode="&#x70;"/><glyph d="M460-182v272q-24-40-74-69.5t-105-29.5q-105 0-170.5 70t-65.5 190v8q0 120 68 196.5t176 76.5q116 0 171-93v84h83v-705h-83zM290 60q77 0 125 50.5t48 147.5v8q0 98-43.5 147.5t-122.5 49.5q-78 0-122-52.5t-44-147.5v-8q0-95 44.5-145t114.5-50z" glyph-name="q" horiz-adv-x="627" unicode="&#x71;"/><glyph d="M84 0v523h83v-94q27 49 66.5 75t105.5 28v-78q-86-4-129-40t-43-127v-287h-83z" glyph-name="r" horiz-adv-x="376" unicode="&#x72;"/><glyph d="M246-9q-94 0-147.5 45t-57.5 125h81q10-101 123-101 114 0 114 83 0 39-28.5 57.5t-93.5 30.5q-102 19-142 52.5t-40 101.5 54.5 107.5 122.5 39.5q170 0 189-151h-80q-9 43-35 62.5t-75 19.5q-45 0-72-20.5t-27-54.5q0-36 25.5-53t96.5-30q47-9 75.5-17.5t56-25.5 40-44.5 12.5-67.5q0-73-49.5-116t-142.5-43z" glyph-name="s" horiz-adv-x="480" unicode="&#x73;"/><glyph d="M243-7q-69 0-105 37t-36 101v322h-75v70h75v119h83v-119h122v-70h-122v-314q0-76 65-76 36 0 64 11v-70q-31-11-71-11z" glyph-name="t" horiz-adv-x="355" unicode="&#x74;"/><glyph d="M261-9q-83 0-132.5 49t-49.5 152v331h83v-327q0-69 29.5-101t91.5-32q59 0 101.5 38t42.5 105v317h83v-523h-83v83q-19-40-62.5-66t-103.5-26z" glyph-name="u" horiz-adv-x="594" unicode="&#x75;"/><glyph d="M215 0l-190 523h90l155-439 153 439h86l-188-523h-106z" glyph-name="v" horiz-adv-x="534" unicode="&#x76;"/><glyph d="M189 0l-161 523h90l122-421 127 421h72l119-421 123 421h85l-163-523h-92l-109 392-122-392h-91z" glyph-name="w" horiz-adv-x="794" unicode="&#x77;"/><glyph d="M28 0l187 269-175 254h97l128-190 127 190h90l-173-248 191-275h-98l-141 211-144-211h-89z" glyph-name="x" horiz-adv-x="528" unicode="&#x78;"/><glyph d="M131-182l99 236-205 469h89l160-375 145 375h85l-289-705h-84z" glyph-name="y" horiz-adv-x="529" unicode="&#x79;"/><glyph d="M21 0v12l309 441h-279v70h407v-15l-302-435h298v-73h-433z" glyph-name="z" horiz-adv-x="483" unicode="&#x7a;"/><glyph d="M337-147q-115 0-166.5 49t-31.5 159l19 104q9 50-19 85t-99 35v62q71 0 99 35t19 85l-19 104q-20 110 31.5 159t166.5 49v-63q-76-1-104-32.5t-15-114.5l19-115q9-54-18-89.5t-80-48.5q53-13 80-48.5t18-89.5l-19-115q-13-83 15-114.5t104-32.5v-63z" glyph-name="braceleft" horiz-adv-x="381" unicode="&#x7b;"/><glyph d="M93-148v924h67v-924h-67z" glyph-name="bar" horiz-adv-x="253" unicode="&#x7c;"/><glyph d="M44-147v63q76 1 104 32.5t15 114.5l-19 115q-9 54 18 89.5t80 48.5q-53 13-80 48.5t-18 89.5l19 115q13 83-15 114.5t-104 32.5v63q115 0 166.5-49t31.5-159l-19-104q-9-50 19-85t99-35v-62q-71 0-99-35t-19-85l19-104q20-110-31.5-159t-166.5-49z" glyph-name="braceright" horiz-adv-x="381" unicode="&#x7d;"/><glyph d="M44 223q5 62 35.5 95t70.5 33q37 0 82.5-25.5t57.5-25.5q17 0 30 13.5t15 39.5h66q-4-63-34-95.5t-69-32.5-85 25.5-57 25.5q-17 0-29.5-14t-16.5-39h-66z" glyph-name="asciitilde" horiz-adv-x="445" unicode="&#x7e;"/><glyph glyph-name="uni00A0" horiz-adv-x="265" unicode="&#xa0;"/><glyph d="M97-117l14 513h64l14-513h-92zM144 475q-26 0-45 18.5t-19 45.5 19 45.5 45 18.5 45-18.5 19-45.5-19-45.5-45-18.5z" glyph-name="exclamdown" horiz-adv-x="288" unicode="&#xa1;"/><glyph d="M267-135v128q-99 10-160.5 81t-61.5 182v8q0 109 62.5 182t159.5 84v99h59v-99q80-7 134.5-51t65.5-130h-82q-15 98-118 112v-399q50 7 85 39.5t41 86.5h77q-8-79-63.5-133.5t-139.5-61.5v-128h-59zM131 256q0-84 36-133.5t100-60.5v398q-61-11-98.5-63.5t-37.5-132.5v-8z" glyph-name="cent" horiz-adv-x="565" unicode="&#xa2;"/><glyph d="M48 315v62h65q-18 76-18 141 0 90 63 148t157 58q95 0 151-51t63-138h-84q-11 60-40.5 89t-89.5 29q-58 0-95-37.5t-37-98.5 17-140h213v-62h-199q15-75 15-132 0-34-13-65 27-7 87.5-30.5t84.5-23.5q86 0 91 86h73q-5-71-45-115t-109-44q-48 0-122.5 31.5t-99.5 31.5q-30 0-46-16t-19-38h-73q4 40 30 76.5t73 45.5q12 29 12 62 0 45-23 131h-82z" glyph-name="sterling" horiz-adv-x="596" unicode="&#xa3;"/><glyph d="M84 281v58h156l-212 376h94l175-324 167 324h84l-200-376h157v-58h-168v-78h168v-58h-168v-145h-85v145h-168v58h168v78h-168z" glyph-name="yen" horiz-adv-x="576" unicode="&#xa5;"/><glyph d="M93-148v445h67v-445h-67zM93 367v409h67v-409h-67z" glyph-name="brokenbar" horiz-adv-x="260" unicode="&#xa6;"/><glyph d="M266-137q-85 0-136 43t-52 120h85q8-93 101-93 50 0 76 25t26 65-28.5 63-112.5 44q-90 23-136.5 61t-46.5 108q0 49 30 84.5t83 50.5q-61 43-61 127 0 69 53.5 116t124.5 47q83 0 132-41t51-116h-84q-3 43-25 65t-72 22-75-25.5-25-65.5 26.5-62.5 107.5-42.5q95-24 142-60.5t47-111.5q0-44-29.5-81t-80.5-53q59-43 59-127 0-68-52.5-115t-127.5-47zM326 185q89 22 89 94 0 41-29.5 62.5t-95.5 38.5l-79 21q-40-8-63.5-33.5t-23.5-61.5q0-38 30-60t97-40z" glyph-name="section" horiz-adv-x="539" unicode="&#xa7;"/><glyph d="M106 634q-22 0-37.5 15.5t-15.5 37.5 15.5 37.5 37.5 15.5 37.5-15.5 15.5-37.5-15.5-37.5-37.5-15.5zM294 634q-22 0-37.5 15.5t-15.5 37.5 15.5 37.5 37.5 15.5 37.5-15.5 15.5-37.5-15.5-37.5-37.5-15.5z" glyph-name="dieresis" horiz-adv-x="400" unicode="&#xa8;"/><glyph d="M423 155q-90 0-141 53.5t-51 144.5v8q0 89 54 144t138 55q70 0 116.5-35.5t52.5-102.5h-76q-12 78-93 78-52 0-82.5-37t-30.5-102v-7q0-66 29.5-102t83.5-36q89 0 101 83h72q-7-70-53.5-107t-119.5-37zM421 33q131 0 225.5 92.5t94.5 233.5q0 140-93 231.5t-225 91.5q-134 0-227-92t-93-233 94.5-232.5 223.5-91.5zM421-9q-153 0-259.5 105.5t-106.5 260.5q0 153 107 260t261 107q155 0 260.5-106t105.5-259q0-156-106.5-262t-261.5-106z" glyph-name="copyright" horiz-adv-x="844" unicode="&#xa9;"/><glyph d="M170 290q-62 0-101 31.5t-39 92.5q0 68 59.5 99.5t152.5 31.5h58v26q0 47-20 68.5t-65 21.5q-79 0-90-68h-77q6 66 53.5 98.5t117.5 32.5q159 0 159-152v-274h-78v52q-46-60-130-60zM184 351q51 0 83.5 25t32.5 69v46h-56q-135 0-135-75 0-65 75-65z" glyph-name="ordfeminine" horiz-adv-x="419" unicode="&#xaa;"/><glyph d="M189 83l-130 178 130 178h82l-125-178 125-178h-82zM367 83l-130 178 130 178h82l-125-178 125-178h-82z" glyph-name="guillemotleft" horiz-adv-x="500" unicode="&#xab;"/><glyph d="M181 396v219h77q84 0 84-66v-1q0-45-45-59l58-93h-50l-53 85h-23v-85h-48zM229 514h28q38 0 38 32v1q0 31-38 31h-28v-64zM257 318q78 0 130 52t52 133q0 82-51 133.5t-131 51.5-131-52-51-134q0-81 52-132.5t130-51.5zM257 282q-93 0-157.5 63.5t-64.5 156.5q0 92 64.5 157t157.5 65q94 0 158-64t64-157-64.5-157-157.5-64z" glyph-name="registered" horiz-adv-x="514" unicode="&#xae;"/><glyph d="M69 648v64h262v-64h-262z" glyph-name="macron" horiz-adv-x="400" unicode="&#xaf;"/><glyph d="M214 464q39 0 64 28.5t25 71.5q0 44-25 73t-64 29q-40 0-66.5-29t-26.5-73q0-42 26.5-71t66.5-29zM214 406q-68 0-116 46.5t-48 111.5q0 66 48 113t116 47q67 0 115-47t48-113q0-65-48-111.5t-115-46.5z" glyph-name="degree" horiz-adv-x="427" unicode="&#xb0;"/><glyph d="M223 145v182h-187v70h187v182h73v-182h187v-70h-187v-182h-73zM36 0v70h447v-70h-447z" glyph-name="plusminus" horiz-adv-x="519" unicode="&#xb1;"/><glyph d="M8 373v11l128 136q54 56 54 97 0 23-13 36.5t-37 13.5q-52 0-60-66h-61q3 56 35.5 87t87.5 31q53 0 83.5-27.5t30.5-73.5q0-58-66-122l-73-72h142v-51h-251z" glyph-name="twosuperior" horiz-adv-x="286" unicode="&#xb2;"/><glyph d="M152 368q-61 0-95 30t-36 81h61q7-61 68-61 63 0 63 54t-60 54h-26v47h25q56 0 56 49 0 21-13.5 34t-38.5 13q-26 0-42.5-14.5t-19.5-40.5h-61q3 47 36.5 76t87.5 29q53 0 84-26t31-66q0-54-57-74 67-15 67-82 0-48-35-75.5t-95-27.5z" glyph-name="threesuperior" horiz-adv-x="311" unicode="&#xb3;"/><glyph d="M161 613l62 147h104l-104-147h-62z" glyph-name="acute" horiz-adv-x="400" unicode="&#xb4;"/><glyph d="M276-100v446h-14q-99 0-158 46.5t-59 134.5q0 92 60 140t157 48h232v-815h-69v758h-81v-758h-68z" glyph-name="paragraph" horiz-adv-x="588" unicode="&#xb6;"/><glyph d="M141 263q-26 0-45 18.5t-19 45.5 19 45.5 45 18.5 45-18.5 19-45.5-19-45.5-45-18.5z" glyph-name="periodcentered" horiz-adv-x="282" unicode="&#xb7;"/><glyph d="M208-214q-43 0-70 23t-30 61h54q8-36 43-36 18 0 29 10t11 26-10 25-26 9q-15 0-28-8l-32 28 42 76h53l-29-53q37 5 65.5-16.5t28.5-64.5q0-39-29-59.5t-72-20.5z" glyph-name="cedilla" horiz-adv-x="400" unicode="&#xb8;"/><glyph d="M105 373v276l-81-54v59l89 61h60v-342h-68z" glyph-name="onesuperior" horiz-adv-x="231" unicode="&#xb9;"/><glyph d="M247 354q59 0 93 41t34 109v6q0 68-34.5 109t-92.5 41q-59 0-93.5-40.5t-34.5-109.5v-6q0-69 34-109.5t94-40.5zM246 290q-91 0-150 60t-59 153v6q0 95 59.5 155t150.5 60 150-59.5 59-153.5v-6q0-96-59-155.5t-151-59.5z" glyph-name="ordmasculine" horiz-adv-x="493" unicode="&#xba;"/><glyph d="M51 83l125 178-125 178h82l130-178-130-178h-82zM229 83l125 178-125 178h82l130-178-130-178h-82z" glyph-name="guillemotright" horiz-adv-x="500" unicode="&#xbb;"/><glyph d="M108 373v276l-81-54v59l89 61h60v-342h-68zM49 0l507 715h66l-507-715h-66zM546 0v69h-172v24l153 249h83v-224h45v-49h-45v-69h-64zM446 118h101v173z" glyph-name="onequarter" horiz-adv-x="678" unicode="&#xbc;"/><glyph d="M108 373v276l-81-54v59l89 61h60v-342h-68zM36 0l507 715h66l-507-715h-66zM395 0v11l128 136q54 56 54 97 0 23-13 36.5t-37 13.5q-52 0-60-66h-61q3 56 35.5 87t87.5 31q53 0 83.5-27.5t30.5-73.5q0-58-66-122l-73-72h142v-51h-251z" glyph-name="onehalf" horiz-adv-x="677" unicode="&#xbd;"/><glyph d="M155 368q-61 0-95 30t-36 81h61q7-61 68-61 63 0 63 54t-60 54h-26v47h25q56 0 56 49 0 21-13.5 34t-38.5 13q-26 0-42.5-14.5t-19.5-40.5h-61q3 47 36.5 76t87.5 29q53 0 84-26t31-66q0-54-57-74 67-15 67-82 0-48-35-75.5t-95-27.5zM85 0l507 715h66l-507-715h-66zM546 0v69h-172v24l153 249h83v-224h45v-49h-45v-69h-64zM446 118h101v173z" glyph-name="threequarters" horiz-adv-x="681" unicode="&#xbe;"/><glyph d="M310 396v-50q0-38-18-74t-34-54-51-52q-24-24-37-39.5t-24.5-38-11.5-45.5q0-46 26.5-73t80.5-27q56 0 92 35.5t41 94.5h78q-5-89-63-144t-149-55q-95 0-142.5 48t-47.5 118q0 34 16.5 67.5t32.5 51 49 48.5q29 28 44 44.5t29.5 44.5 14.5 57v43h74zM275 603q26 0 45-18.5t19-45.5-19-45.5-45-18.5-45 18.5-19 45.5 19 45.5 45 18.5z" glyph-name="questiondown" horiz-adv-x="489" unicode="&#xbf;"/><glyph d="M36 0l246 715h114l242-715h-86l-70 206h-295l-69-206h-82zM335 643l-124-368h248zM312 771l-98 127h104l56-127h-62z" glyph-name="Agrave" horiz-adv-x="674" unicode="&#xc0;"/><glyph d="M36 0l246 715h114l242-715h-86l-70 206h-295l-69-206h-82zM335 643l-124-368h248zM300 771l56 127h104l-98-127h-62z" glyph-name="Aacute" horiz-adv-x="674" unicode="&#xc1;"/><glyph d="M36 0l246 715h114l242-715h-86l-70 206h-295l-69-206h-82zM335 643l-124-368h248zM192 771l108 127h75l107-127h-61l-85 58-85-58h-59z" glyph-name="Acircumflex" horiz-adv-x="674" unicode="&#xc2;"/><glyph d="M36 0l246 715h114l242-715h-86l-70 206h-295l-69-206h-82zM335 643l-124-368h248zM391 774q-23 0-59 21.5t-49 21.5q-14 0-25-12.5t-15-32.5h-60q6 53 34 84.5t67 31.5q23 0 58.5-21.5t48.5-21.5q14 0 25 12.5t15 32.5h60q-6-53-33.5-84.5t-66.5-31.5z" glyph-name="Atilde" horiz-adv-x="674" unicode="&#xc3;"/><glyph d="M36 0l246 715h114l242-715h-86l-70 206h-295l-69-206h-82zM335 643l-124-368h248zM235 789q-22 0-37.5 15.5t-15.5 37.5 15.5 37.5 37.5 15.5 37.5-15.5 15.5-37.5-15.5-37.5-37.5-15.5zM438 789q-22 0-37.5 15.5t-15.5 37.5 15.5 37.5 37.5 15.5 37.5-15.5 15.5-37.5-15.5-37.5-37.5-15.5z" glyph-name="Adieresis" horiz-adv-x="674" unicode="&#xc4;"/><glyph d="M36 0l246 715h114l242-715h-86l-70 206h-295l-69-206h-82zM335 643l-124-368h248zM337 759q-44 0-75.5 30.5t-31.5 73.5 31.5 73.5 75.5 30.5 75.5-30.5 31.5-73.5-31.5-73.5-75.5-30.5zM337 805q23 0 38 16.5t15 41.5-15 41.5-38 16.5-38-16.5-15-41.5 15-41.5 38-16.5z" glyph-name="Aring" horiz-adv-x="674" unicode="&#xc5;"/><glyph d="M29 0l370 715h492v-71h-330v-243h266v-71h-266v-259h348v-71h-435v207h-252l-105-207h-88zM443 644l-187-369h218v369h-31z" glyph-name="AE" horiz-adv-x="950" unicode="&#xc6;"/><glyph d="M381-214q-43 0-70 23t-30 61h54q8-36 43-36 18 0 29 10t11 26-10 25-26 9q-15 0-28-8l-32 28 37 68q-142 10-223 106.5t-81 254.5v8q0 159 95 262t241 103q117 0 198-61t92-173h-86q-27 165-203 165-111 0-179-80.5t-68-214.5v-8q0-137 65.5-214.5t180.5-77.5q89 0 146 44.5t70 130.5h81q-18-115-90-177.5t-186-67.5l-24-45q37 5 65.5-16.5t28.5-64.5q0-39-29-59.5t-72-20.5z" glyph-name="Ccedilla" horiz-adv-x="730" unicode="&#xc7;"/><glyph d="M90 0v715h417v-71h-330v-243h266v-71h-266v-259h348v-71h-435zM281 771l-98 127h104l56-127h-62z" glyph-name="Egrave" horiz-adv-x="566" unicode="&#xc8;"/><glyph d="M90 0v715h417v-71h-330v-243h266v-71h-266v-259h348v-71h-435zM269 771l56 127h104l-98-127h-62z" glyph-name="Eacute" horiz-adv-x="566" unicode="&#xc9;"/><glyph d="M90 0v715h417v-71h-330v-243h266v-71h-266v-259h348v-71h-435zM161 771l108 127h75l107-127h-61l-85 58-85-58h-59z" glyph-name="Ecircumflex" horiz-adv-x="566" unicode="&#xca;"/><glyph d="M90 0v715h417v-71h-330v-243h266v-71h-266v-259h348v-71h-435zM204 789q-22 0-37.5 15.5t-15.5 37.5 15.5 37.5 37.5 15.5 37.5-15.5 15.5-37.5-15.5-37.5-37.5-15.5zM407 789q-22 0-37.5 15.5t-15.5 37.5 15.5 37.5 37.5 15.5 37.5-15.5 15.5-37.5-15.5-37.5-37.5-15.5z" glyph-name="Edieresis" horiz-adv-x="566" unicode="&#xcb;"/><glyph d="M95 0v715h87v-715h-87zM113 771l-98 127h104l56-127h-62z" glyph-name="Igrave" horiz-adv-x="277" unicode="&#xcc;"/><glyph d="M95 0v715h87v-715h-87zM101 771l56 127h104l-98-127h-62z" glyph-name="Iacute" horiz-adv-x="277" unicode="&#xcd;"/><glyph d="M95 0v715h87v-715h-87zM-7 771l108 127h75l107-127h-61l-85 58-85-58h-59z" glyph-name="Icircumflex" horiz-adv-x="277" unicode="&#xce;"/><glyph d="M95 0v715h87v-715h-87zM36 789q-22 0-37.5 15.5t-15.5 37.5 15.5 37.5 37.5 15.5 37.5-15.5 15.5-37.5-15.5-37.5-37.5-15.5zM239 789q-22 0-37.5 15.5t-15.5 37.5 15.5 37.5 37.5 15.5 37.5-15.5 15.5-37.5-15.5-37.5-37.5-15.5z" glyph-name="Idieresis" horiz-adv-x="277" unicode="&#xcf;"/><glyph d="M34 325v67h76v323h189q177 0 269.5-97t92.5-254v-9q0-157-92.5-256t-271.5-99h-187v325h-76zM197 71h98q135 0 205.5 75.5t70.5 209.5v8q0 131-67.5 206t-209.5 75h-97v-253h207v-67h-207v-254z" glyph-name="Eth" horiz-adv-x="716" unicode="&#xd0;"/><glyph d="M90 0v715h113l348-591v591h83v-715h-100l-361 613v-613h-83zM426 774q-23 0-59 21.5t-49 21.5q-14 0-25-12.5t-15-32.5h-60q6 53 34 84.5t67 31.5q23 0 58.5-21.5t48.5-21.5q14 0 25 12.5t15 32.5h60q-6-53-33.5-84.5t-66.5-31.5z" glyph-name="Ntilde" horiz-adv-x="724" unicode="&#xd1;"/><glyph d="M409 63q118 0 187.5 81t69.5 212v8q0 125-69.5 207.5t-189.5 82.5q-122 0-192-81t-70-211v-8q0-128 75.5-209.5t188.5-81.5zM409-9q-156 0-255 104.5t-99 257.5v8q0 155 98.5 259t253.5 104 252-103.5 97-257.5v-8q0-154-97-259t-250-105zM380 771l-98 127h104l56-127h-62z" glyph-name="Ograve" horiz-adv-x="811" unicode="&#xd2;"/><glyph d="M409 63q118 0 187.5 81t69.5 212v8q0 125-69.5 207.5t-189.5 82.5q-122 0-192-81t-70-211v-8q0-128 75.5-209.5t188.5-81.5zM409-9q-156 0-255 104.5t-99 257.5v8q0 155 98.5 259t253.5 104 252-103.5 97-257.5v-8q0-154-97-259t-250-105zM368 771l56 127h104l-98-127h-62z" glyph-name="Oacute" horiz-adv-x="811" unicode="&#xd3;"/><glyph d="M409 63q118 0 187.5 81t69.5 212v8q0 125-69.5 207.5t-189.5 82.5q-122 0-192-81t-70-211v-8q0-128 75.5-209.5t188.5-81.5zM409-9q-156 0-255 104.5t-99 257.5v8q0 155 98.5 259t253.5 104 252-103.5 97-257.5v-8q0-154-97-259t-250-105zM260 771l108 127h75l107-127h-61l-85 58-85-58h-59z" glyph-name="Ocircumflex" horiz-adv-x="811" unicode="&#xd4;"/><glyph d="M409 63q118 0 187.5 81t69.5 212v8q0 125-69.5 207.5t-189.5 82.5q-122 0-192-81t-70-211v-8q0-128 75.5-209.5t188.5-81.5zM409-9q-156 0-255 104.5t-99 257.5v8q0 155 98.5 259t253.5 104 252-103.5 97-257.5v-8q0-154-97-259t-250-105zM459 774q-23 0-59 21.5t-49 21.5q-14 0-25-12.5t-15-32.5h-60q6 53 34 84.5t67 31.5q23 0 58.5-21.5t48.5-21.5q14 0 25 12.5t15 32.5h60q-6-53-33.5-84.5t-66.5-31.5z" glyph-name="Otilde" horiz-adv-x="811" unicode="&#xd5;"/><glyph d="M409 63q118 0 187.5 81t69.5 212v8q0 125-69.5 207.5t-189.5 82.5q-122 0-192-81t-70-211v-8q0-128 75.5-209.5t188.5-81.5zM409-9q-156 0-255 104.5t-99 257.5v8q0 155 98.5 259t253.5 104 252-103.5 97-257.5v-8q0-154-97-259t-250-105zM303 789q-22 0-37.5 15.5t-15.5 37.5 15.5 37.5 37.5 15.5 37.5-15.5 15.5-37.5-15.5-37.5-37.5-15.5zM506 789q-22 0-37.5 15.5t-15.5 37.5 15.5 37.5 37.5 15.5 37.5-15.5 15.5-37.5-15.5-37.5-37.5-15.5z" glyph-name="Odieresis" horiz-adv-x="811" unicode="&#xd6;"/><glyph d="M80 131l-47 48 154 154-154 154 47 48 154-155 154 155 48-48-154-154 154-154-48-48-154 155z" glyph-name="multiply" horiz-adv-x="469" unicode="&#xd7;"/><glyph d="M80-33l-45 45 98 107q-78 98-78 234v8q0 155 98.5 259t253.5 104q123 0 214-70l81 88 45-45-79-87q88-101 88-247v-8q0-154-97-259t-250-105q-136 0-232 82zM409 63q118 0 187.5 81t69.5 212v8q0 112-52 188l-384-421q70-68 179-68zM145 354q0-101 44-173l382 418q-66 55-164 55-122 0-192-81t-70-211v-8z" glyph-name="Oslash" horiz-adv-x="811" unicode="&#xd8;"/><glyph d="M341-9q-123 0-190 70t-67 200v454h87v-444q0-111 41-159.5t131-48.5q92 0 137 48t45 173v431h87v-443q0-134-68-207.5t-203-73.5zM323 771l-98 127h104l56-127h-62z" glyph-name="Ugrave" horiz-adv-x="696" unicode="&#xd9;"/><glyph d="M341-9q-123 0-190 70t-67 200v454h87v-444q0-111 41-159.5t131-48.5q92 0 137 48t45 173v431h87v-443q0-134-68-207.5t-203-73.5zM311 771l56 127h104l-98-127h-62z" glyph-name="Uacute" horiz-adv-x="696" unicode="&#xda;"/><glyph d="M341-9q-123 0-190 70t-67 200v454h87v-444q0-111 41-159.5t131-48.5q92 0 137 48t45 173v431h87v-443q0-134-68-207.5t-203-73.5zM203 771l108 127h75l107-127h-61l-85 58-85-58h-59z" glyph-name="Ucircumflex" horiz-adv-x="696" unicode="&#xdb;"/><glyph d="M341-9q-123 0-190 70t-67 200v454h87v-444q0-111 41-159.5t131-48.5q92 0 137 48t45 173v431h87v-443q0-134-68-207.5t-203-73.5zM246 789q-22 0-37.5 15.5t-15.5 37.5 15.5 37.5 37.5 15.5 37.5-15.5 15.5-37.5-15.5-37.5-37.5-15.5zM449 789q-22 0-37.5 15.5t-15.5 37.5 15.5 37.5 37.5 15.5 37.5-15.5 15.5-37.5-15.5-37.5-37.5-15.5z" glyph-name="Udieresis" horiz-adv-x="696" unicode="&#xdc;"/><glyph d="M262 0v312l-239 403h98l187-332 180 332h87l-226-404v-311h-87zM262 771l56 127h104l-98-127h-62z" glyph-name="Yacute" horiz-adv-x="598" unicode="&#xdd;"/><glyph d="M90 0v715h87v-134h116q112 0 181-50t69-155v-4q0-107-69.5-157t-180.5-50h-116v-165h-87zM177 234h122q157 0 157 138v4q0 73-40 104t-117 31h-122v-277z" glyph-name="Thorn" horiz-adv-x="581" unicode="&#xde;"/><glyph d="M335-9q-52 0-92 16v71q38-18 88-18 130 0 130 150v7q0 81-53 129t-143 45v71q77-2 113 37.5t36 93.5v4q0 53-31.5 82t-90.5 29q-57 0-91-37.5t-34-100.5v-570h-83v566q0 93 61 151.5t148 58.5q89 0 144.5-49.5t55.5-129.5v-4q0-50-31.5-96t-87.5-65q78-20 125.5-78t47.5-136v-6q0-117-60-169t-152-52z" glyph-name="germandbls" horiz-adv-x="590" unicode="&#xdf;"/><glyph d="M215-9q-77 0-125.5 38.5t-48.5 115.5q0 84 74.5 123t187.5 39h75v38q0 63-26 90.5t-86 27.5q-108 0-120-94h-83q8 84 66 123.5t141 39.5q191 0 191-187v-345h-83v66q-60-75-163-75zM223 57q68 0 111.5 33.5t43.5 92.5v65h-72q-182 0-182-103 0-88 99-88zM246 613l-104 147h104l62-147h-62z" glyph-name="agrave" horiz-adv-x="540" unicode="&#xe0;"/><glyph d="M215-9q-77 0-125.5 38.5t-48.5 115.5q0 84 74.5 123t187.5 39h75v38q0 63-26 90.5t-86 27.5q-108 0-120-94h-83q8 84 66 123.5t141 39.5q191 0 191-187v-345h-83v66q-60-75-163-75zM223 57q68 0 111.5 33.5t43.5 92.5v65h-72q-182 0-182-103 0-88 99-88zM234 613l62 147h104l-104-147h-62z" glyph-name="aacute" horiz-adv-x="540" unicode="&#xe1;"/><glyph d="M215-9q-77 0-125.5 38.5t-48.5 115.5q0 84 74.5 123t187.5 39h75v38q0 63-26 90.5t-86 27.5q-108 0-120-94h-83q8 84 66 123.5t141 39.5q191 0 191-187v-345h-83v66q-60-75-163-75zM223 57q68 0 111.5 33.5t43.5 92.5v65h-72q-182 0-182-103 0-88 99-88zM115 613l108 144h75l107-144h-61l-85 75-85-75h-59z" glyph-name="acircumflex" horiz-adv-x="540" unicode="&#xe2;"/><glyph d="M215-9q-77 0-125.5 38.5t-48.5 115.5q0 84 74.5 123t187.5 39h75v38q0 63-26 90.5t-86 27.5q-108 0-120-94h-83q8 84 66 123.5t141 39.5q191 0 191-187v-345h-83v66q-60-75-163-75zM223 57q68 0 111.5 33.5t43.5 92.5v65h-72q-182 0-182-103 0-88 99-88zM325 619q-23 0-59 21.5t-49 21.5q-14 0-25-12.5t-15-32.5h-60q6 53 34 84.5t67 31.5q23 0 58.5-21.5t48.5-21.5q14 0 25 12.5t15 32.5h60q-6-53-33.5-84.5t-66.5-31.5z" glyph-name="atilde" horiz-adv-x="540" unicode="&#xe3;"/><glyph d="M215-9q-77 0-125.5 38.5t-48.5 115.5q0 84 74.5 123t187.5 39h75v38q0 63-26 90.5t-86 27.5q-108 0-120-94h-83q8 84 66 123.5t141 39.5q191 0 191-187v-345h-83v66q-60-75-163-75zM223 57q68 0 111.5 33.5t43.5 92.5v65h-72q-182 0-182-103 0-88 99-88zM177 634q-22 0-37.5 15.5t-15.5 37.5 15.5 37.5 37.5 15.5 37.5-15.5 15.5-37.5-15.5-37.5-37.5-15.5zM365 634q-22 0-37.5 15.5t-15.5 37.5 15.5 37.5 37.5 15.5 37.5-15.5 15.5-37.5-15.5-37.5-37.5-15.5z" glyph-name="adieresis" horiz-adv-x="540" unicode="&#xe4;"/><glyph d="M215-9q-77 0-125.5 38.5t-48.5 115.5q0 84 74.5 123t187.5 39h75v38q0 63-26 90.5t-86 27.5q-108 0-120-94h-83q8 84 66 123.5t141 39.5q191 0 191-187v-345h-83v66q-60-75-163-75zM223 57q68 0 111.5 33.5t43.5 92.5v65h-72q-182 0-182-103 0-88 99-88zM271 644q23 0 38 16.5t15 41.5-15 41.5-38 16.5-38-16.5-15-41.5 15-41.5 38-16.5zM271 598q-44 0-75.5 30.5t-31.5 73.5 31.5 73.5 75.5 30.5 75.5-30.5 31.5-73.5-31.5-73.5-75.5-30.5z" glyph-name="aring" horiz-adv-x="540" unicode="&#xe5;"/><glyph d="M616-9q-133 0-197 108-36-57-84-82.5t-120-25.5q-77 0-125.5 38.5t-48.5 115.5q0 85 73.5 125t185.5 40h78v34q0 62-27 90.5t-85 28.5q-108 0-120-94h-83q8 84 66 123.5t141 39.5q124 0 164-89 64 89 176 89 97 0 162-64t65-196v-25h-379q3-91 43-139t116-48q117 0 133 91h83q-13-77-71.5-118.5t-145.5-41.5zM223 57q68 0 111.5 33.5t43.5 92.5v64h-75q-179 0-179-102 0-88 99-88zM461 310h291q-11 153-142 153-60 0-99.5-41t-49.5-112z" glyph-name="ae" horiz-adv-x="880" unicode="&#xe6;"/><glyph d="M286-214q-43 0-70 23t-30 61h54q8-36 43-36 18 0 29 10t11 26-10 25-26 9q-15 0-28-8l-32 28 38 69q-98 11-159 82t-61 181v8q0 118 73.5 193t180.5 75q90 0 153-44.5t74-138.5h-82q-18 114-145 114-73 0-120.5-54.5t-47.5-144.5v-8q0-94 46.5-145t124.5-51q59 0 101.5 33.5t48.5 94.5h77q-8-82-66-136.5t-146-59.5l-24-45q37 5 65.5-16.5t28.5-64.5q0-39-29-59.5t-72-20.5z" glyph-name="ccedilla" horiz-adv-x="570" unicode="&#xe7;"/><glyph d="M298-9q-112 0-182.5 72.5t-70.5 192.5v8q0 118 68.5 193t176.5 75q100 0 167.5-64.5t67.5-195.5v-27h-394q3-90 45.5-137.5t122.5-47.5q123 0 139 91h83q-13-77-73-118.5t-150-41.5zM134 312h306q-11 151-150 151-63 0-104-40.5t-52-110.5zM265 613l-104 147h104l62-147h-62z" glyph-name="egrave" horiz-adv-x="568" unicode="&#xe8;"/><glyph d="M298-9q-112 0-182.5 72.5t-70.5 192.5v8q0 118 68.5 193t176.5 75q100 0 167.5-64.5t67.5-195.5v-27h-394q3-90 45.5-137.5t122.5-47.5q123 0 139 91h83q-13-77-73-118.5t-150-41.5zM134 312h306q-11 151-150 151-63 0-104-40.5t-52-110.5zM253 613l62 147h104l-104-147h-62z" glyph-name="eacute" horiz-adv-x="568" unicode="&#xe9;"/><glyph d="M298-9q-112 0-182.5 72.5t-70.5 192.5v8q0 118 68.5 193t176.5 75q100 0 167.5-64.5t67.5-195.5v-27h-394q3-90 45.5-137.5t122.5-47.5q123 0 139 91h83q-13-77-73-118.5t-150-41.5zM134 312h306q-11 151-150 151-63 0-104-40.5t-52-110.5zM145 613l108 144h75l107-144h-61l-85 75-85-75h-59z" glyph-name="ecircumflex" horiz-adv-x="568" unicode="&#xea;"/><glyph d="M298-9q-112 0-182.5 72.5t-70.5 192.5v8q0 118 68.5 193t176.5 75q100 0 167.5-64.5t67.5-195.5v-27h-394q3-90 45.5-137.5t122.5-47.5q123 0 139 91h83q-13-77-73-118.5t-150-41.5zM134 312h306q-11 151-150 151-63 0-104-40.5t-52-110.5zM196 634q-22 0-37.5 15.5t-15.5 37.5 15.5 37.5 37.5 15.5 37.5-15.5 15.5-37.5-15.5-37.5-37.5-15.5zM384 634q-22 0-37.5 15.5t-15.5 37.5 15.5 37.5 37.5 15.5 37.5-15.5 15.5-37.5-15.5-37.5-37.5-15.5z" glyph-name="edieresis" horiz-adv-x="568" unicode="&#xeb;"/><glyph d="M86 0v523h83v-523h-83zM102 613l-104 147h104l62-147h-62z" glyph-name="igrave" horiz-adv-x="255" unicode="&#xec;"/><glyph d="M86 0v523h83v-523h-83zM90 613l62 147h104l-104-147h-62z" glyph-name="iacute" horiz-adv-x="255" unicode="&#xed;"/><glyph d="M86 0v523h83v-523h-83zM-18 613l108 144h75l107-144h-61l-85 75-85-75h-59z" glyph-name="icircumflex" horiz-adv-x="255" unicode="&#xee;"/><glyph d="M37 634q-22 0-37.5 15.5t-15.5 37.5 15.5 37.5 37.5 15.5 37.5-15.5 15.5-37.5-15.5-37.5-37.5-15.5zM217 634q-22 0-37.5 15.5t-15.5 37.5 15.5 37.5 37.5 15.5 37.5-15.5 15.5-37.5-15.5-37.5-37.5-15.5zM86 0v523h83v-523h-83z" glyph-name="idieresis" horiz-adv-x="255" unicode="&#xef;"/><glyph d="M185 573l-29 48 97 57q-54 47-124 95h107q45-25 84-55l83 49 29-49-67-39q84-78 139-179.5t55-215.5v-22q0-118-73-194.5t-185-76.5q-111 0-183.5 75.5t-72.5 190.5v8q0 115 70 191t168 76q93 0 151-72-45 91-137 179zM302 60q78 0 124.5 54t46.5 143v7q0 91-46 145t-124 54q-79 0-125.5-54t-46.5-144v-8q0-90 46-143.5t125-53.5z" glyph-name="eth" horiz-adv-x="604" unicode="&#xf0;"/><glyph d="M84 0v523h83v-83q19 40 63 66t105 26q86 0 135-51t49-160v-321h-83v327q0 69-30 101t-93 32q-61 0-103.5-38t-42.5-105v-317h-83zM352 619q-23 0-59 21.5t-49 21.5q-14 0-25-12.5t-15-32.5h-60q6 53 34 84.5t67 31.5q23 0 58.5-21.5t48.5-21.5q14 0 25 12.5t15 32.5h60q-6-53-33.5-84.5t-66.5-31.5z" glyph-name="ntilde" horiz-adv-x="598" unicode="&#xf1;"/><glyph d="M302 60q78 0 124.5 54t46.5 143v7q0 91-46.5 145t-124.5 54q-79 0-125-54t-46-144v-8q0-90 46-143.5t125-53.5zM301-9q-111 0-183.5 75.5t-72.5 190.5v8q0 117 72.5 192t184.5 75 184.5-74.5 72.5-191.5v-8q0-118-73-192.5t-185-74.5zM277 613l-104 147h104l62-147h-62z" glyph-name="ograve" horiz-adv-x="604" unicode="&#xf2;"/><glyph d="M302 60q78 0 124.5 54t46.5 143v7q0 91-46.5 145t-124.5 54q-79 0-125-54t-46-144v-8q0-90 46-143.5t125-53.5zM301-9q-111 0-183.5 75.5t-72.5 190.5v8q0 117 72.5 192t184.5 75 184.5-74.5 72.5-191.5v-8q0-118-73-192.5t-185-74.5zM265 613l62 147h104l-104-147h-62z" glyph-name="oacute" horiz-adv-x="604" unicode="&#xf3;"/><glyph d="M302 60q78 0 124.5 54t46.5 143v7q0 91-46.5 145t-124.5 54q-79 0-125-54t-46-144v-8q0-90 46-143.5t125-53.5zM301-9q-111 0-183.5 75.5t-72.5 190.5v8q0 117 72.5 192t184.5 75 184.5-74.5 72.5-191.5v-8q0-118-73-192.5t-185-74.5zM157 613l108 144h75l107-144h-61l-85 75-85-75h-59z" glyph-name="ocircumflex" horiz-adv-x="604" unicode="&#xf4;"/><glyph d="M302 60q78 0 124.5 54t46.5 143v7q0 91-46.5 145t-124.5 54q-79 0-125-54t-46-144v-8q0-90 46-143.5t125-53.5zM301-9q-111 0-183.5 75.5t-72.5 190.5v8q0 117 72.5 192t184.5 75 184.5-74.5 72.5-191.5v-8q0-118-73-192.5t-185-74.5zM356 619q-23 0-59 21.5t-49 21.5q-14 0-25-12.5t-15-32.5h-60q6 53 34 84.5t67 31.5q23 0 58.5-21.5t48.5-21.5q14 0 25 12.5t15 32.5h60q-6-53-33.5-84.5t-66.5-31.5z" glyph-name="otilde" horiz-adv-x="604" unicode="&#xf5;"/><glyph d="M302 60q78 0 124.5 54t46.5 143v7q0 91-46.5 145t-124.5 54q-79 0-125-54t-46-144v-8q0-90 46-143.5t125-53.5zM301-9q-111 0-183.5 75.5t-72.5 190.5v8q0 117 72.5 192t184.5 75 184.5-74.5 72.5-191.5v-8q0-118-73-192.5t-185-74.5zM208 634q-22 0-37.5 15.5t-15.5 37.5 15.5 37.5 37.5 15.5 37.5-15.5 15.5-37.5-15.5-37.5-37.5-15.5zM396 634q-22 0-37.5 15.5t-15.5 37.5 15.5 37.5 37.5 15.5 37.5-15.5 15.5-37.5-15.5-37.5-37.5-15.5z" glyph-name="odieresis" horiz-adv-x="604" unicode="&#xf6;"/><glyph d="M259 89q-26 0-45 18.5t-19 45.5 19 45.5 45 18.5 45-18.5 19-45.5-19-45.5-45-18.5zM36 307v70h447v-70h-447zM259 467q-26 0-45 18.5t-19 45.5 19 45.5 45 18.5 45-18.5 19-45.5-19-45.5-45-18.5z" glyph-name="divide" horiz-adv-x="519" unicode="&#xf7;"/><glyph d="M67-37l-44 38 77 85q-55 71-55 171v8q0 117 72.5 192t184.5 75q90 0 156-50l68 74 44-38-70-77q59-73 59-175v-8q0-118-73-192.5t-185-74.5q-92 0-160 54zM302 60q78 0 124.5 54t46.5 143v7q0 66-27 117l-256-281q45-40 112-40zM131 257q0-65 24-111l253 280q-43 37-106 37-79 0-125-54t-46-144v-8z" glyph-name="oslash" horiz-adv-x="604" unicode="&#xf8;"/><glyph d="M261-9q-83 0-132.5 49t-49.5 152v331h83v-327q0-69 29.5-101t91.5-32q59 0 101.5 38t42.5 105v317h83v-523h-83v83q-19-40-62.5-66t-103.5-26zM272 613l-104 147h104l62-147h-62z" glyph-name="ugrave" horiz-adv-x="594" unicode="&#xf9;"/><glyph d="M261-9q-83 0-132.5 49t-49.5 152v331h83v-327q0-69 29.5-101t91.5-32q59 0 101.5 38t42.5 105v317h83v-523h-83v83q-19-40-62.5-66t-103.5-26zM260 613l62 147h104l-104-147h-62z" glyph-name="uacute" horiz-adv-x="594" unicode="&#xfa;"/><glyph d="M261-9q-83 0-132.5 49t-49.5 152v331h83v-327q0-69 29.5-101t91.5-32q59 0 101.5 38t42.5 105v317h83v-523h-83v83q-19-40-62.5-66t-103.5-26zM152 613l108 144h75l107-144h-61l-85 75-85-75h-59z" glyph-name="ucircumflex" horiz-adv-x="594" unicode="&#xfb;"/><glyph d="M261-9q-83 0-132.5 49t-49.5 152v331h83v-327q0-69 29.5-101t91.5-32q59 0 101.5 38t42.5 105v317h83v-523h-83v83q-19-40-62.5-66t-103.5-26zM203 634q-22 0-37.5 15.5t-15.5 37.5 15.5 37.5 37.5 15.5 37.5-15.5 15.5-37.5-15.5-37.5-37.5-15.5zM391 634q-22 0-37.5 15.5t-15.5 37.5 15.5 37.5 37.5 15.5 37.5-15.5 15.5-37.5-15.5-37.5-37.5-15.5z" glyph-name="udieresis" horiz-adv-x="594" unicode="&#xfc;"/><glyph d="M131-182l99 236-205 469h89l160-375 145 375h85l-289-705h-84zM235 613l62 147h104l-104-147h-62z" glyph-name="yacute" horiz-adv-x="529" unicode="&#xfd;"/><glyph d="M84-182v955h83v-338q24 40 73 68.5t104 28.5q105 0 171.5-71.5t66.5-191.5v-8q0-121-65.5-195.5t-172.5-74.5q-61 0-107 26.5t-70 68.5v-268h-83zM336 60q78 0 119 51t41 146v8q0 95-45.5 146.5t-115.5 51.5q-76 0-123.5-50.5t-47.5-147.5v-8q0-97 46.5-147t125.5-50z" glyph-name="thorn" horiz-adv-x="627" unicode="&#xfe;"/><glyph d="M131-182l99 236-205 469h89l160-375 145 375h85l-289-705h-84zM178 634q-22 0-37.5 15.5t-15.5 37.5 15.5 37.5 37.5 15.5 37.5-15.5 15.5-37.5-15.5-37.5-37.5-15.5zM366 634q-22 0-37.5 15.5t-15.5 37.5 15.5 37.5 37.5 15.5 37.5-15.5 15.5-37.5-15.5-37.5-37.5-15.5z" glyph-name="ydieresis" horiz-adv-x="529" unicode="&#xff;"/><glyph d="M36 0l246 715h114l242-715h-86l-70 206h-295l-69-206h-82zM335 643l-124-368h248zM204 786v64h266v-64h-266z" glyph-name="Amacron" horiz-adv-x="674" unicode="&#x100;"/><glyph d="M215-9q-77 0-125.5 38.5t-48.5 115.5q0 84 74.5 123t187.5 39h75v38q0 63-26 90.5t-86 27.5q-108 0-120-94h-83q8 84 66 123.5t141 39.5q191 0 191-187v-345h-83v66q-60-75-163-75zM223 57q68 0 111.5 33.5t43.5 92.5v65h-72q-182 0-182-103 0-88 99-88zM140 648v64h262v-64h-262z" glyph-name="amacron" horiz-adv-x="540" unicode="&#x101;"/><glyph d="M36 0l246 715h114l242-715h-86l-70 206h-295l-69-206h-82zM335 643l-124-368h248zM335 767q-54 0-91.5 37.5t-40.5 94.5h66q11-64 66-64 59 0 72 64h64q-3-57-42.5-94.5t-93.5-37.5z" glyph-name="Abreve" horiz-adv-x="674" unicode="&#x102;"/><glyph d="M215-9q-77 0-125.5 38.5t-48.5 115.5q0 84 74.5 123t187.5 39h75v38q0 63-26 90.5t-86 27.5q-108 0-120-94h-83q8 84 66 123.5t141 39.5q191 0 191-187v-345h-83v66q-60-75-163-75zM223 57q68 0 111.5 33.5t43.5 92.5v65h-72q-182 0-182-103 0-88 99-88zM269 619q-54 0-91.5 37.5t-40.5 94.5h66q11-64 66-64 59 0 72 64h64q-3-57-42.5-94.5t-93.5-37.5z" glyph-name="abreve" horiz-adv-x="540" unicode="&#x103;"/><glyph d="M585-182q-47 0-75.5 21.5t-28.5 58.5q0 30 20 56t52 43l-71 209h-295l-69-206h-82l246 715h114l241-712q-77-45-77-89 0-36 38-36 31 0 52 11v-59q-29-12-65-12zM335 643l-124-368h248z" glyph-name="Aogonek" horiz-adv-x="674" unicode="&#x104;"/><glyph d="M407-182q-47 0-75.5 21.5t-28.5 58.5q0 30 21 57t54 44v67q-60-75-163-75-77 0-125.5 38.5t-48.5 115.5q0 84 74.5 123t187.5 39h75v38q0 63-26 90.5t-86 27.5q-108 0-120-94h-83q8 84 66 123.5t141 39.5q191 0 191-187v-341q-79-45-79-90 0-36 38-36 31 0 52 11v-59q-29-12-65-12zM223 57q68 0 111.5 33.5t43.5 92.5v65h-72q-182 0-182-103 0-88 99-88z" glyph-name="aogonek" horiz-adv-x="540" unicode="&#x105;"/><glyph d="M389-9q-155 0-244.5 98t-89.5 264v8q0 159 95 262t241 103q117 0 198-61t92-173h-86q-27 165-203 165-111 0-179-80.5t-68-214.5v-8q0-137 65.5-214.5t180.5-77.5q89 0 146 44.5t70 130.5h81q-18-121-97-183.5t-202-62.5zM356 771l56 127h104l-98-127h-62z" glyph-name="Cacute" horiz-adv-x="730" unicode="&#x106;"/><glyph d="M301-9q-111 0-183.5 72.5t-72.5 192.5v8q0 118 73.5 193t180.5 75q90 0 153-44.5t74-138.5h-82q-18 114-145 114-73 0-120.5-54.5t-47.5-144.5v-8q0-94 46.5-145t124.5-51q59 0 101.5 33.5t48.5 94.5h77q-8-86-71.5-141.5t-156.5-55.5zM261 613l62 147h104l-104-147h-62z" glyph-name="cacute" horiz-adv-x="570" unicode="&#x107;"/><glyph d="M389-9q-155 0-244.5 98t-89.5 264v8q0 159 95 262t241 103q117 0 198-61t92-173h-86q-27 165-203 165-111 0-179-80.5t-68-214.5v-8q0-137 65.5-214.5t180.5-77.5q89 0 146 44.5t70 130.5h81q-18-121-97-183.5t-202-62.5zM248 771l108 127h75l107-127h-61l-85 58-85-58h-59z" glyph-name="Ccircumflex" horiz-adv-x="730" unicode="&#x108;"/><glyph d="M301-9q-111 0-183.5 72.5t-72.5 192.5v8q0 118 73.5 193t180.5 75q90 0 153-44.5t74-138.5h-82q-18 114-145 114-73 0-120.5-54.5t-47.5-144.5v-8q0-94 46.5-145t124.5-51q59 0 101.5 33.5t48.5 94.5h77q-8-86-71.5-141.5t-156.5-55.5zM153 613l108 144h75l107-144h-61l-85 75-85-75h-59z" glyph-name="ccircumflex" horiz-adv-x="570" unicode="&#x109;"/><glyph d="M389-9q-155 0-244.5 98t-89.5 264v8q0 159 95 262t241 103q117 0 198-61t92-173h-86q-27 165-203 165-111 0-179-80.5t-68-214.5v-8q0-137 65.5-214.5t180.5-77.5q89 0 146 44.5t70 130.5h81q-18-121-97-183.5t-202-62.5zM389 787q-23 0-39 16.5t-16 38.5 16 38.5 39 16.5 39-16.5 16-38.5-16-38.5-39-16.5z" glyph-name="Cdotaccent" horiz-adv-x="730" unicode="&#x10a;"/><glyph d="M301-9q-111 0-183.5 72.5t-72.5 192.5v8q0 118 73.5 193t180.5 75q90 0 153-44.5t74-138.5h-82q-18 114-145 114-73 0-120.5-54.5t-47.5-144.5v-8q0-94 46.5-145t124.5-51q59 0 101.5 33.5t48.5 94.5h77q-8-86-71.5-141.5t-156.5-55.5zM298 632q-22 0-38.5 16t-16.5 39 16.5 39 38.5 16 38.5-16 16.5-39-16.5-39-38.5-16z" glyph-name="cdotaccent" horiz-adv-x="570" unicode="&#x10b;"/><glyph d="M389-9q-155 0-244.5 98t-89.5 264v8q0 159 95 262t241 103q117 0 198-61t92-173h-86q-27 165-203 165-111 0-179-80.5t-68-214.5v-8q0-137 65.5-214.5t180.5-77.5q89 0 146 44.5t70 130.5h81q-18-121-97-183.5t-202-62.5zM355 771l-107 127h61l85-58 85 58h59l-108-127h-75z" glyph-name="Ccaron" horiz-adv-x="730" unicode="&#x10c;"/><glyph d="M301-9q-111 0-183.5 72.5t-72.5 192.5v8q0 118 73.5 193t180.5 75q90 0 153-44.5t74-138.5h-82q-18 114-145 114-73 0-120.5-54.5t-47.5-144.5v-8q0-94 46.5-145t124.5-51q59 0 101.5 33.5t48.5 94.5h77q-8-86-71.5-141.5t-156.5-55.5zM260 613l-107 144h61l85-75 85 75h59l-108-144h-75z" glyph-name="ccaron" horiz-adv-x="570" unicode="&#x10d;"/><glyph d="M177 71h98q135 0 205.5 75.5t70.5 209.5v8q0 131-67.5 206t-209.5 75h-97v-574zM90 0v715h189q177 0 269.5-97t92.5-254v-9q0-157-92.5-256t-271.5-99h-187zM278 771l-107 127h61l85-58 85 58h59l-108-127h-75z" glyph-name="Dcaron" horiz-adv-x="696" unicode="&#x10e;"/><glyph d="M281-9q-105 0-170.5 70t-65.5 190v8q0 120 68 196.5t176 76.5q116 0 171-93v334h83v-773h-83v90q-24-40-74-69.5t-105-29.5zM290 60q77 0 125 50.5t48 147.5v8q0 98-43.5 147.5t-122.5 49.5q-78 0-122-52.5t-44-147.5v-8q0-95 44.5-145t114.5-50zM591 598l12 175h94l-48-175h-58z" glyph-name="dcaron" horiz-adv-x="627" unicode="&#x10f;"/><glyph d="M34 325v67h76v323h189q177 0 269.5-97t92.5-254v-9q0-157-92.5-256t-271.5-99h-187v325h-76zM197 71h98q135 0 205.5 75.5t70.5 209.5v8q0 131-67.5 206t-209.5 75h-97v-253h207v-67h-207v-254z" glyph-name="Dcroat" horiz-adv-x="716" unicode="&#x110;"/><glyph d="M282 615v61h178v97h83v-97h75v-61h-75v-615h-83v90q-24-40-74-69.5t-105-29.5q-105 0-170.5 70t-65.5 190v8q0 120 68 196.5t176 76.5q116 0 171-93v176h-178zM290 60q77 0 125 50.5t48 147.5v8q0 98-43.5 147.5t-122.5 49.5q-78 0-122-52.5t-44-147.5v-8q0-95 44.5-145t114.5-50z" glyph-name="dcroat" horiz-adv-x="627" unicode="&#x111;"/><glyph d="M90 0v715h417v-71h-330v-243h266v-71h-266v-259h348v-71h-435zM173 786v64h266v-64h-266z" glyph-name="Emacron" horiz-adv-x="566" unicode="&#x112;"/><glyph d="M298-9q-112 0-182.5 72.5t-70.5 192.5v8q0 118 68.5 193t176.5 75q100 0 167.5-64.5t67.5-195.5v-27h-394q3-90 45.5-137.5t122.5-47.5q123 0 139 91h83q-13-77-73-118.5t-150-41.5zM134 312h306q-11 151-150 151-63 0-104-40.5t-52-110.5zM159 648v64h262v-64h-262z" glyph-name="emacron" horiz-adv-x="568" unicode="&#x113;"/><glyph d="M90 0v715h417v-71h-330v-243h266v-71h-266v-259h348v-71h-435zM311 767q-54 0-91.5 37.5t-40.5 94.5h66q11-64 66-64 59 0 72 64h64q-3-57-42.5-94.5t-93.5-37.5z" glyph-name="Ebreve" horiz-adv-x="566" unicode="&#x114;"/><glyph d="M298-9q-112 0-182.5 72.5t-70.5 192.5v8q0 118 68.5 193t176.5 75q100 0 167.5-64.5t67.5-195.5v-27h-394q3-90 45.5-137.5t122.5-47.5q123 0 139 91h83q-13-77-73-118.5t-150-41.5zM134 312h306q-11 151-150 151-63 0-104-40.5t-52-110.5zM280 619q-54 0-91.5 37.5t-40.5 94.5h66q11-64 66-64 59 0 72 64h64q-3-57-42.5-94.5t-93.5-37.5z" glyph-name="ebreve" horiz-adv-x="568" unicode="&#x115;"/><glyph d="M90 0v715h417v-71h-330v-243h266v-71h-266v-259h348v-71h-435zM306 787q-22 0-38.5 16.5t-16.5 38.5 16.5 38.5 38.5 16.5 38.5-16.5 16.5-38.5-16.5-38.5-38.5-16.5z" glyph-name="Edotaccent" horiz-adv-x="566" unicode="&#x116;"/><glyph d="M298-9q-112 0-182.5 72.5t-70.5 192.5v8q0 118 68.5 193t176.5 75q100 0 167.5-64.5t67.5-195.5v-27h-394q3-90 45.5-137.5t122.5-47.5q123 0 139 91h83q-13-77-73-118.5t-150-41.5zM134 312h306q-11 151-150 151-63 0-104-40.5t-52-110.5zM290 632q-22 0-38.5 16t-16.5 39 16.5 39 38.5 16 38.5-16 16.5-39-16.5-39-38.5-16z" glyph-name="edotaccent" horiz-adv-x="568" unicode="&#x117;"/><glyph d="M454-182q-47 0-75.5 21.5t-28.5 58.5q0 31 22 58t56 44h-338v715h417v-71h-330v-243h266v-71h-266v-259h348v-71h-28q-68-45-68-86 0-36 38-36 31 0 52 11v-59q-29-12-65-12z" glyph-name="Eogonek" horiz-adv-x="566" unicode="&#x118;"/><glyph d="M388-182q-47 0-75.5 21.5t-28.5 58.5q0 29 19 55t50 42q-24-4-55-4-112 0-182.5 72.5t-70.5 192.5v8q0 118 68.5 193t176.5 75q100 0 167.5-64.5t67.5-195.5v-27h-394q3-90 45.5-137.5t122.5-47.5q123 0 139 91h83q-2-12-5.5-23t-7-20-9-18.5-9-16-10.5-14.5-10.5-12.5-11-11-10-9-10-8.5-8.5-7q-67-57-67-97 0-36 38-36 31 0 52 11v-59q-29-12-65-12zM134 312h306q-11 151-150 151-63 0-104-40.5t-52-110.5z" glyph-name="eogonek" horiz-adv-x="568" unicode="&#x119;"/><glyph d="M90 0v715h417v-71h-330v-243h266v-71h-266v-259h348v-71h-435zM272 771l-107 127h61l85-58 85 58h59l-108-127h-75z" glyph-name="Ecaron" horiz-adv-x="566" unicode="&#x11a;"/><glyph d="M298-9q-112 0-182.5 72.5t-70.5 192.5v8q0 118 68.5 193t176.5 75q100 0 167.5-64.5t67.5-195.5v-27h-394q3-90 45.5-137.5t122.5-47.5q123 0 139 91h83q-13-77-73-118.5t-150-41.5zM134 312h306q-11 151-150 151-63 0-104-40.5t-52-110.5zM252 613l-107 144h61l85-75 85 75h59l-108-144h-75z" glyph-name="ecaron" horiz-adv-x="568" unicode="&#x11b;"/><glyph d="M401-9q-161 0-253.5 100.5t-92.5 261.5v8q0 158 96.5 261.5t249.5 103.5q115 0 195-56.5t96-170.5h-87q-28 158-202 158-121 0-189.5-80.5t-68.5-214.5v-8q0-136 66-214.5t190-78.5q111 0 167 63t58 165h-209v72h294v-53q0-152-84.5-234.5t-225.5-82.5zM250 771l108 127h75l107-127h-61l-85 58-85-58h-59z" glyph-name="Gcircumflex" horiz-adv-x="767" unicode="&#x11c;"/><glyph d="M293-191q-109 0-167.5 44.5t-69.5 116.5h85q18-91 151-91 80 0 124 39.5t44 121.5v76q-24-41-73-70t-104-29q-103 0-170.5 70t-67.5 178v7q0 109 69 184.5t175 75.5q116 0 171-93v84h83v-488q-1-111-69-168.5t-181-57.5zM292 86q75 0 123 49.5t48 135.5v7q0 87-44.5 136t-121.5 49-121.5-51.5-44.5-135.5v-8q0-83 46.5-132.5t114.5-49.5zM149 613l108 144h75l107-144h-61l-85 75-85-75h-59z" glyph-name="gcircumflex" horiz-adv-x="627" unicode="&#x11d;"/><glyph d="M401-9q-161 0-253.5 100.5t-92.5 261.5v8q0 158 96.5 261.5t249.5 103.5q115 0 195-56.5t96-170.5h-87q-28 158-202 158-121 0-189.5-80.5t-68.5-214.5v-8q0-136 66-214.5t190-78.5q111 0 167 63t58 165h-209v72h294v-53q0-152-84.5-234.5t-225.5-82.5zM393 767q-54 0-91.5 37.5t-40.5 94.5h66q11-64 66-64 59 0 72 64h64q-3-57-42.5-94.5t-93.5-37.5z" glyph-name="Gbreve" horiz-adv-x="767" unicode="&#x11e;"/><glyph d="M293-191q-109 0-167.5 44.5t-69.5 116.5h85q18-91 151-91 80 0 124 39.5t44 121.5v76q-24-41-73-70t-104-29q-103 0-170.5 70t-67.5 178v7q0 109 69 184.5t175 75.5q116 0 171-93v84h83v-488q-1-111-69-168.5t-181-57.5zM292 86q75 0 123 49.5t48 135.5v7q0 87-44.5 136t-121.5 49-121.5-51.5-44.5-135.5v-8q0-83 46.5-132.5t114.5-49.5zM292 619q-54 0-91.5 37.5t-40.5 94.5h66q11-64 66-64 59 0 72 64h64q-3-57-42.5-94.5t-93.5-37.5z" glyph-name="gbreve" horiz-adv-x="627" unicode="&#x11f;"/><glyph d="M401-9q-161 0-253.5 100.5t-92.5 261.5v8q0 158 96.5 261.5t249.5 103.5q115 0 195-56.5t96-170.5h-87q-28 158-202 158-121 0-189.5-80.5t-68.5-214.5v-8q0-136 66-214.5t190-78.5q111 0 167 63t58 165h-209v72h294v-53q0-152-84.5-234.5t-225.5-82.5zM395 787q-23 0-39 16.5t-16 38.5 16 38.5 39 16.5 39-16.5 16-38.5-16-38.5-39-16.5z" glyph-name="Gdotaccent" horiz-adv-x="767" unicode="&#x120;"/><glyph d="M293-191q-109 0-167.5 44.5t-69.5 116.5h85q18-91 151-91 80 0 124 39.5t44 121.5v76q-24-41-73-70t-104-29q-103 0-170.5 70t-67.5 178v7q0 109 69 184.5t175 75.5q116 0 171-93v84h83v-488q-1-111-69-168.5t-181-57.5zM292 86q75 0 123 49.5t48 135.5v7q0 87-44.5 136t-121.5 49-121.5-51.5-44.5-135.5v-8q0-83 46.5-132.5t114.5-49.5zM294 632q-22 0-38.5 16t-16.5 39 16.5 39 38.5 16 38.5-16 16.5-39-16.5-39-38.5-16z" glyph-name="gdotaccent" horiz-adv-x="627" unicode="&#x121;"/><glyph d="M401-9q-161 0-253.5 100.5t-92.5 261.5v8q0 158 96.5 261.5t249.5 103.5q115 0 195-56.5t96-170.5h-87q-28 158-202 158-121 0-189.5-80.5t-68.5-214.5v-8q0-136 66-214.5t190-78.5q111 0 167 63t58 165h-209v72h294v-53q0-152-84.5-234.5t-225.5-82.5zM362-220l-51 26 58 157 80-24z" glyph-name="Gcommaaccent" horiz-adv-x="767" unicode="&#x122;"/><glyph d="M293-191q-109 0-167.5 44.5t-69.5 116.5h85q18-91 151-91 80 0 124 39.5t44 121.5v76q-24-41-73-70t-104-29q-103 0-170.5 70t-67.5 178v7q0 109 69 184.5t175 75.5q116 0 171-93v84h83v-488q-1-111-69-168.5t-181-57.5zM292 86q75 0 123 49.5t48 135.5v7q0 87-44.5 136t-121.5 49-121.5-51.5-44.5-135.5v-8q0-83 46.5-132.5t114.5-49.5zM334 602l-80 24 87 159 51-26z" glyph-name="gcommaaccent" horiz-adv-x="627" unicode="&#x123;"/><glyph d="M90 0v715h87v-324h376v324h87v-715h-87v318h-376v-318h-87zM220 771l108 127h75l107-127h-61l-85 58-85-58h-59z" glyph-name="Hcircumflex" horiz-adv-x="730" unicode="&#x124;"/><glyph d="M84 0v773h83v-333q19 40 63 66t105 26q86 0 135-51t49-160v-321h-83v327q0 69-30 101t-93 32q-61 0-103.5-38t-42.5-105v-317h-83zM168 821l108 127h75l107-127h-61l-85 58-85-58h-59z" glyph-name="hcircumflex" horiz-adv-x="598" unicode="&#x125;"/><glyph d="M20 493v67h70v155h87v-155h376v155h87v-155h70v-67h-70v-493h-87v318h-376v-318h-87v493h-70zM177 391h376v102h-376v-102z" glyph-name="Hbar" horiz-adv-x="730" unicode="&#x126;"/><glyph d="M9 615v61h75v97h83v-97h178v-61h-178v-175q19 40 63 66t105 26q86 0 135-51t49-160v-321h-83v327q0 69-30 101t-93 32q-61 0-103.5-38t-42.5-105v-317h-83v615h-75z" glyph-name="hbar" horiz-adv-x="598" unicode="&#x127;"/><glyph d="M95 0v715h87v-715h-87zM194 774q-23 0-59 21.5t-49 21.5q-14 0-25-12.5t-15-32.5h-60q6 53 34 84.5t67 31.5q23 0 58.5-21.5t48.5-21.5q14 0 25 12.5t15 32.5h60q-6-53-33.5-84.5t-66.5-31.5z" glyph-name="Itilde" horiz-adv-x="277" unicode="&#x128;"/><glyph d="M86 0v523h83v-523h-83zM182 619q-23 0-59 21.5t-49 21.5q-14 0-25-12.5t-15-32.5h-60q6 53 34 84.5t67 31.5q23 0 58.5-21.5t48.5-21.5q14 0 25 12.5t15 32.5h60q-6-53-33.5-84.5t-66.5-31.5z" glyph-name="itilde" horiz-adv-x="255" unicode="&#x129;"/><glyph d="M95 0v715h87v-715h-87zM5 786v64h266v-64h-266z" glyph-name="Imacron" horiz-adv-x="277" unicode="&#x12a;"/><glyph d="M30 648v64h194v-64h-194zM86 0v523h83v-523h-83z" glyph-name="imacron" horiz-adv-x="255" unicode="&#x12b;"/><glyph d="M95 0v715h87v-715h-87zM138 767q-54 0-91.5 37.5t-40.5 94.5h66q11-64 66-64 59 0 72 64h64q-3-57-42.5-94.5t-93.5-37.5z" glyph-name="Ibreve" horiz-adv-x="277" unicode="&#x12c;"/><glyph d="M86 0v523h83v-523h-83zM126 619q-54 0-91.5 37.5t-40.5 94.5h66q11-64 66-64 59 0 72 64h64q-3-57-42.5-94.5t-93.5-37.5z" glyph-name="ibreve" horiz-adv-x="255" unicode="&#x12d;"/><glyph d="M130-182q-47 0-75.5 21.5t-28.5 58.5q0 59 69 98v719h87v-711q-77-44-77-90 0-36 38-36 31 0 52 11v-59q-29-12-65-12z" glyph-name="Iogonek" horiz-adv-x="277" unicode="&#x12e;"/><glyph d="M120-182q-47 0-75.5 21.5t-28.5 58.5q0 61 70 98v527h83v-520q-74-45-74-89 0-36 38-36 31 0 52 11v-59q-29-12-65-12zM126 632q-22 0-38.5 16t-16.5 39 16.5 39 38.5 16 38.5-16 16.5-39-16.5-39-38.5-16z" glyph-name="iogonek" horiz-adv-x="255" unicode="&#x12f;"/><glyph d="M95 0v715h87v-715h-87zM138 787q-22 0-38.5 16.5t-16.5 38.5 16.5 38.5 38.5 16.5 38.5-16.5 16.5-38.5-16.5-38.5-38.5-16.5z" glyph-name="Idotaccent" horiz-adv-x="277" unicode="&#x130;"/><glyph d="M86 0v523h83v-523h-83z" glyph-name="dotlessi" horiz-adv-x="255" unicode="&#x131;"/><glyph d="M95 0v715h87v-715h-87zM375-9q-64 0-100 19v72q47-20 95-20 116 0 116 136v517h87v-521q0-102-55-152.5t-143-50.5z" glyph-name="IJ" horiz-adv-x="657" unicode="&#x132;"/><glyph d="M86 0v523h83v-523h-83zM126 632q-22 0-38.5 16t-16.5 39 16.5 39 38.5 16 38.5-16 16.5-39-16.5-39-38.5-16zM264-191v70q42 4 59.5 24t17.5 57v563h83v-556q0-77-37.5-116t-122.5-42zM381 632q-23 0-39 16t-16 39 16 39 39 16 39-16 16-39-16-39-39-16z" glyph-name="ij" horiz-adv-x="510" unicode="&#x133;"/><glyph d="M138-9q-64 0-100 19v72q47-20 95-20 116 0 116 136v517h87v-521q0-102-55-152.5t-143-50.5zM145 771l108 127h75l107-127h-61l-85 58-85-58h-59z" glyph-name="Jcircumflex" horiz-adv-x="420" unicode="&#x134;"/><glyph d="M9-191v70q42 4 59.5 24t17.5 57v563h83v-556q0-77-37.5-116t-122.5-42zM-19 613l108 144h75l107-144h-61l-85 75-85-75h-59z" glyph-name="jcircumflex" horiz-adv-x="255" unicode="&#x135;"/><glyph d="M90 0v715h87v-344l311 345h97l-318-348 334-368h-105l-319 349v-349h-87zM289-220l-51 26 58 157 80-24z" glyph-name="Kcommaaccent" horiz-adv-x="616" unicode="&#x136;"/><glyph d="M84 0v773h83v-491l217 241h97l-224-243 243-280h-101l-232 271v-271h-83zM237-220l-51 26 58 157 80-24z" glyph-name="kcommaaccent" horiz-adv-x="516" unicode="&#x137;"/><glyph d="M90 0v715h87v-644h327v-71h-414zM98 771l56 127h104l-98-127h-62z" glyph-name="Lacute" horiz-adv-x="535" unicode="&#x139;"/><glyph d="M86 0v773h84v-773h-84zM92 821l56 127h104l-98-127h-62z" glyph-name="lacute" horiz-adv-x="256" unicode="&#x13a;"/><glyph d="M90 0v715h87v-644h327v-71h-414zM265-220l-51 26 58 157 80-24z" glyph-name="Lcommaaccent" horiz-adv-x="535" unicode="&#x13b;"/><glyph d="M86 0v773h84v-773h-84zM95-220l-51 26 58 157 80-24z" glyph-name="lcommaaccent" horiz-adv-x="256" unicode="&#x13c;"/><glyph d="M293 558l22 157h94l-58-157h-58zM90 0v715h87v-644h327v-71h-414z" glyph-name="Lcaron" horiz-adv-x="535" unicode="&#x13d;"/><glyph d="M86 0v773h84v-773h-84zM218 598l12 175h94l-48-175h-58z" glyph-name="lcaron" horiz-adv-x="256" unicode="&#x13e;"/><glyph d="M90 0v715h87v-644h327v-71h-414zM400 320q-26 0-45 18.5t-19 45.5 19 45.5 45 18.5 45-18.5 19-45.5-19-45.5-45-18.5z" glyph-name="Ldot" horiz-adv-x="535" unicode="&#x13f;"/><glyph d="M86 0v773h84v-773h-84zM290 303q-26 0-45 18.5t-19 45.5 19 45.5 45 18.5 45-18.5 19-45.5-19-45.5-45-18.5z" glyph-name="ldot" horiz-adv-x="328" unicode="&#x140;"/><glyph d="M42 251v68l68 25v371h87v-339l199 73v-68l-199-73v-237h327v-71h-414v276z" glyph-name="Lslash" horiz-adv-x="555" unicode="&#x141;"/><glyph d="M20 311v70l76 43v349h84v-301l80 46v-70l-80-46v-402h-84v354z" glyph-name="lslash" horiz-adv-x="276" unicode="&#x142;"/><glyph d="M90 0v715h113l348-591v591h83v-715h-100l-361 613v-613h-83zM335 771l56 127h104l-98-127h-62z" glyph-name="Nacute" horiz-adv-x="724" unicode="&#x143;"/><glyph d="M84 0v523h83v-83q19 40 63 66t105 26q86 0 135-51t49-160v-321h-83v327q0 69-30 101t-93 32q-61 0-103.5-38t-42.5-105v-317h-83zM261 613l62 147h104l-104-147h-62z" glyph-name="nacute" horiz-adv-x="598" unicode="&#x144;"/><glyph d="M90 0v715h113l348-591v591h83v-715h-100l-361 613v-613h-83zM317-220l-51 26 58 157 80-24z" glyph-name="Ncommaaccent" horiz-adv-x="724" unicode="&#x145;"/><glyph d="M84 0v523h83v-83q19 40 63 66t105 26q86 0 135-51t49-160v-321h-83v327q0 69-30 101t-93 32q-61 0-103.5-38t-42.5-105v-317h-83zM265-220l-51 26 58 157 80-24z" glyph-name="ncommaaccent" horiz-adv-x="598" unicode="&#x146;"/><glyph d="M90 0v715h113l348-591v591h83v-715h-100l-361 613v-613h-83zM334 771l-107 127h61l85-58 85 58h59l-108-127h-75z" glyph-name="Ncaron" horiz-adv-x="724" unicode="&#x147;"/><glyph d="M84 0v523h83v-83q19 40 63 66t105 26q86 0 135-51t49-160v-321h-83v327q0 69-30 101t-93 32q-61 0-103.5-38t-42.5-105v-317h-83zM260 613l-107 144h61l85-75 85 75h59l-108-144h-75z" glyph-name="ncaron" horiz-adv-x="598" unicode="&#x148;"/><glyph d="M84 0v523h83v-83q19 40 63 66t105 26q86 0 135-51t49-160v-321h-83v327q0 69-30 101t-93 32q-61 0-103.5-38t-42.5-105v-317h-83zM7 488l-51 26 89 212 79-36z" glyph-name="napostrophe" horiz-adv-x="598" unicode="&#x149;"/><glyph d="M436-193q-64 0-100 19v72q47-20 95-20 54 0 85.5 30.5t32.5 90.5l-376 614v-613h-83v715h113l348-568v568h83v-705q0-102-55-152.5t-143-50.5z" glyph-name="Eng" horiz-adv-x="724" unicode="&#x14a;"/><glyph d="M359-191v70q42 4 59.5 24t17.5 57v367q0 69-30 101t-93 32q-61 0-103.5-38t-42.5-105v-317h-83v523h83v-83q19 40 63 66t105 26q86 0 135-51t49-160v-354q0-77-37.5-116t-122.5-42z" glyph-name="eng" horiz-adv-x="598" unicode="&#x14b;"/><glyph d="M409 63q118 0 187.5 81t69.5 212v8q0 125-69.5 207.5t-189.5 82.5q-122 0-192-81t-70-211v-8q0-128 75.5-209.5t188.5-81.5zM409-9q-156 0-255 104.5t-99 257.5v8q0 155 98.5 259t253.5 104 252-103.5 97-257.5v-8q0-154-97-259t-250-105zM272 786v64h266v-64h-266z" glyph-name="Omacron" horiz-adv-x="811" unicode="&#x14c;"/><glyph d="M302 60q78 0 124.5 54t46.5 143v7q0 91-46.5 145t-124.5 54q-79 0-125-54t-46-144v-8q0-90 46-143.5t125-53.5zM301-9q-111 0-183.5 75.5t-72.5 190.5v8q0 117 72.5 192t184.5 75 184.5-74.5 72.5-191.5v-8q0-118-73-192.5t-185-74.5zM171 648v64h262v-64h-262z" glyph-name="omacron" horiz-adv-x="604" unicode="&#x14d;"/><glyph d="M409 63q118 0 187.5 81t69.5 212v8q0 125-69.5 207.5t-189.5 82.5q-122 0-192-81t-70-211v-8q0-128 75.5-209.5t188.5-81.5zM409-9q-156 0-255 104.5t-99 257.5v8q0 155 98.5 259t253.5 104 252-103.5 97-257.5v-8q0-154-97-259t-250-105zM403 767q-54 0-91.5 37.5t-40.5 94.5h66q11-64 66-64 59 0 72 64h64q-3-57-42.5-94.5t-93.5-37.5z" glyph-name="Obreve" horiz-adv-x="811" unicode="&#x14e;"/><glyph d="M302 60q78 0 124.5 54t46.5 143v7q0 91-46.5 145t-124.5 54q-79 0-125-54t-46-144v-8q0-90 46-143.5t125-53.5zM301-9q-111 0-183.5 75.5t-72.5 190.5v8q0 117 72.5 192t184.5 75 184.5-74.5 72.5-191.5v-8q0-118-73-192.5t-185-74.5zM300 619q-54 0-91.5 37.5t-40.5 94.5h66q11-64 66-64 59 0 72 64h64q-3-57-42.5-94.5t-93.5-37.5z" glyph-name="obreve" horiz-adv-x="604" unicode="&#x14f;"/><glyph d="M409 63q118 0 187.5 81t69.5 212v8q0 125-69.5 207.5t-189.5 82.5q-122 0-192-81t-70-211v-8q0-128 75.5-209.5t188.5-81.5zM409-9q-156 0-255 104.5t-99 257.5v8q0 155 98.5 259t253.5 104 252-103.5 97-257.5v-8q0-154-97-259t-250-105zM293 771l37 127h95l-72-127h-60zM447 771l37 127h95l-72-127h-60z" glyph-name="Ohungarumlaut" horiz-adv-x="811" unicode="&#x150;"/><glyph d="M302 60q78 0 124.5 54t46.5 143v7q0 91-46.5 145t-124.5 54q-79 0-125-54t-46-144v-8q0-90 46-143.5t125-53.5zM301-9q-111 0-183.5 75.5t-72.5 190.5v8q0 117 72.5 192t184.5 75 184.5-74.5 72.5-191.5v-8q0-118-73-192.5t-185-74.5zM190 613l40 147h95l-75-147h-60zM344 613l40 147h95l-75-147h-60z" glyph-name="ohungarumlaut" horiz-adv-x="604" unicode="&#x151;"/><glyph d="M55 360q0 157 92.5 256t271.5 99h477v-71h-314v-243h250v-71h-250v-259h332v-71h-497q-177 0-269.5 97t-92.5 254v9zM495 644h-74q-135 0-205.5-75.5t-70.5-209.5v-8q0-131 67.5-206t209.5-75h73v574z" glyph-name="OE" horiz-adv-x="955" unicode="&#x152;"/><glyph d="M301-9q-111 0-183.5 75.5t-72.5 190.5v8q0 117 72.5 192t184.5 75q72 0 127-33.5t85-92.5q28 60 80.5 93t122.5 33q100 0 167.5-64.5t67.5-195.5v-27h-394q3-90 45.5-137.5t122.5-47.5q123 0 139 91h83q-13-77-73-118.5t-150-41.5q-74 0-128 32.5t-83 92.5q-30-59-85-92t-128-33zM302 60q78 0 124.5 54t46.5 143v7q0 91-46.5 145t-124.5 54q-79 0-125-54t-46-144v-8q0-90 46-143.5t125-53.5zM561 312h306q-11 151-150 151-63 0-104-40.5t-52-110.5z" glyph-name="oe" horiz-adv-x="995" unicode="&#x153;"/><glyph d="M90 0v715h215q111 0 180.5-49t69.5-150v-4q0-83-48.5-131.5t-128.5-63.5l219-317h-97l-213 311h-110v-311h-87zM177 380h134q157 0 157 132v4q0 70-40 99.5t-117 29.5h-134v-265zM273 771l56 127h104l-98-127h-62z" glyph-name="Racute" horiz-adv-x="628" unicode="&#x154;"/><glyph d="M84 0v523h83v-94q27 49 66.5 75t105.5 28v-78q-86-4-129-40t-43-127v-287h-83zM168 613l62 147h104l-104-147h-62z" glyph-name="racute" horiz-adv-x="376" unicode="&#x155;"/><glyph d="M90 0v715h215q111 0 180.5-49t69.5-150v-4q0-83-48.5-131.5t-128.5-63.5l219-317h-97l-213 311h-110v-311h-87zM177 380h134q157 0 157 132v4q0 70-40 99.5t-117 29.5h-134v-265zM277-220l-51 26 58 157 80-24z" glyph-name="Rcommaaccent" horiz-adv-x="628" unicode="&#x156;"/><glyph d="M84 0v523h83v-94q27 49 66.5 75t105.5 28v-78q-86-4-129-40t-43-127v-287h-83zM90-220l-51 26 58 157 80-24z" glyph-name="rcommaaccent" horiz-adv-x="376" unicode="&#x157;"/><glyph d="M90 0v715h215q111 0 180.5-49t69.5-150v-4q0-83-48.5-131.5t-128.5-63.5l219-317h-97l-213 311h-110v-311h-87zM177 380h134q157 0 157 132v4q0 70-40 99.5t-117 29.5h-134v-265zM272 771l-107 127h61l85-58 85 58h59l-108-127h-75z" glyph-name="Rcaron" horiz-adv-x="628" unicode="&#x158;"/><glyph d="M84 0v523h83v-94q27 49 66.5 75t105.5 28v-78q-86-4-129-40t-43-127v-287h-83zM167 613l-107 144h61l85-75 85 75h59l-108-144h-75z" glyph-name="rcaron" horiz-adv-x="376" unicode="&#x159;"/><glyph d="M321-9q-133 0-197.5 62.5t-75.5 164.5h84q5-35 14.5-61t29.5-49 56.5-35 88.5-12q70 0 116.5 37.5t46.5 97.5q0 62-36 91.5t-137 45.5q-121 18-180 62.5t-59 134.5q0 83 65 138.5t165 55.5q108 0 172-51t74-146h-78q-13 67-53 97t-115 30q-71 0-110-32t-39-84q0-56 34-84t138-44q126-20 184.5-65.5t58.5-142.5q0-90-70.5-150.5t-176.5-60.5zM265 771l56 127h104l-98-127h-62z" glyph-name="Sacute" horiz-adv-x="627" unicode="&#x15a;"/><glyph d="M246-9q-94 0-147.5 45t-57.5 125h81q10-101 123-101 114 0 114 83 0 39-28.5 57.5t-93.5 30.5q-102 19-142 52.5t-40 101.5 54.5 107.5 122.5 39.5q170 0 189-151h-80q-9 43-35 62.5t-75 19.5q-45 0-72-20.5t-27-54.5q0-36 25.5-53t96.5-30q47-9 75.5-17.5t56-25.5 40-44.5 12.5-67.5q0-73-49.5-116t-142.5-43zM201 613l62 147h104l-104-147h-62z" glyph-name="sacute" horiz-adv-x="480" unicode="&#x15b;"/><glyph d="M321-9q-133 0-197.5 62.5t-75.5 164.5h84q5-35 14.5-61t29.5-49 56.5-35 88.5-12q70 0 116.5 37.5t46.5 97.5q0 62-36 91.5t-137 45.5q-121 18-180 62.5t-59 134.5q0 83 65 138.5t165 55.5q108 0 172-51t74-146h-78q-13 67-53 97t-115 30q-71 0-110-32t-39-84q0-56 34-84t138-44q126-20 184.5-65.5t58.5-142.5q0-90-70.5-150.5t-176.5-60.5zM157 771l108 127h75l107-127h-61l-85 58-85-58h-59z" glyph-name="Scircumflex" horiz-adv-x="627" unicode="&#x15c;"/><glyph d="M246-9q-94 0-147.5 45t-57.5 125h81q10-101 123-101 114 0 114 83 0 39-28.5 57.5t-93.5 30.5q-102 19-142 52.5t-40 101.5 54.5 107.5 122.5 39.5q170 0 189-151h-80q-9 43-35 62.5t-75 19.5q-45 0-72-20.5t-27-54.5q0-36 25.5-53t96.5-30q47-9 75.5-17.5t56-25.5 40-44.5 12.5-67.5q0-73-49.5-116t-142.5-43zM93 613l108 144h75l107-144h-61l-85 75-85-75h-59z" glyph-name="scircumflex" horiz-adv-x="480" unicode="&#x15d;"/><glyph d="M290-214q-43 0-70 23t-30 61h54q8-36 43-36 18 0 29 10t11 26-10 25-26 9q-15 0-28-8l-32 28 38 70q-199 22-221 224h84q5-35 14.5-61t29.5-49 56.5-35 88.5-12q70 0 116.5 37.5t46.5 97.5q0 62-36 91.5t-137 45.5q-121 18-180 62.5t-59 134.5q0 83 65 138.5t165 55.5q108 0 172-51t74-146h-78q-13 67-53 97t-115 30q-71 0-110-32t-39-84q0-56 34-84t138-44q126-20 184.5-65.5t58.5-142.5q0-90-70.5-150.5t-176.5-60.5l-24-44q37 5 65.5-16.5t28.5-64.5q0-39-29-59.5t-72-20.5z" glyph-name="Scedilla" horiz-adv-x="627" unicode="&#x15e;"/><glyph d="M227-214q-43 0-70 23t-30 61h54q8-36 43-36 18 0 29 10t11 26-10 25-26 9q-15 0-28-8l-32 28 38 70q-76 8-119 52t-46 115h81q10-101 123-101 114 0 114 83 0 39-28.5 57.5t-93.5 30.5q-102 19-142 52.5t-40 101.5 54.5 107.5 122.5 39.5q170 0 189-151h-80q-9 43-35 62.5t-75 19.5q-45 0-72-20.5t-27-54.5q0-36 25.5-53t96.5-30q47-9 75.5-17.5t56-25.5 40-44.5 12.5-67.5q0-71-46.5-113.5t-133.5-45.5l-24-44q37 5 65.5-16.5t28.5-64.5q0-39-29-59.5t-72-20.5z" glyph-name="scedilla" horiz-adv-x="480" unicode="&#x15f;"/><glyph d="M321-9q-133 0-197.5 62.5t-75.5 164.5h84q5-35 14.5-61t29.5-49 56.5-35 88.5-12q70 0 116.5 37.5t46.5 97.5q0 62-36 91.5t-137 45.5q-121 18-180 62.5t-59 134.5q0 83 65 138.5t165 55.5q108 0 172-51t74-146h-78q-13 67-53 97t-115 30q-71 0-110-32t-39-84q0-56 34-84t138-44q126-20 184.5-65.5t58.5-142.5q0-90-70.5-150.5t-176.5-60.5zM264 771l-107 127h61l85-58 85 58h59l-108-127h-75z" glyph-name="Scaron" horiz-adv-x="627" unicode="&#x160;"/><glyph d="M246-9q-94 0-147.5 45t-57.5 125h81q10-101 123-101 114 0 114 83 0 39-28.5 57.5t-93.5 30.5q-102 19-142 52.5t-40 101.5 54.5 107.5 122.5 39.5q170 0 189-151h-80q-9 43-35 62.5t-75 19.5q-45 0-72-20.5t-27-54.5q0-36 25.5-53t96.5-30q47-9 75.5-17.5t56-25.5 40-44.5 12.5-67.5q0-73-49.5-116t-142.5-43zM200 613l-107 144h61l85-75 85 75h59l-108-144h-75z" glyph-name="scaron" horiz-adv-x="480" unicode="&#x161;"/><glyph d="M237 0v644h-208v71h503v-71h-208v-644h-87zM247-220l-51 26 58 157 80-24z" glyph-name="Tcommaaccent" horiz-adv-x="561" unicode="&#x162;"/><glyph d="M243-7q-69 0-105 37t-36 101v322h-75v70h75v119h83v-119h122v-70h-122v-314q0-76 65-76 36 0 64 11v-70q-31-11-71-11zM158-220l-51 26 58 157 80-24z" glyph-name="tcommaaccent" horiz-adv-x="355" unicode="&#x163;"/><glyph d="M237 0v644h-208v71h503v-71h-208v-644h-87zM242 771l-107 127h61l85-58 85 58h59l-108-127h-75z" glyph-name="Tcaron" horiz-adv-x="561" unicode="&#x164;"/><glyph d="M243-7q-69 0-105 37t-36 101v322h-75v70h75v119h83v-119h122v-70h-122v-314q0-76 65-76 36 0 64 11v-70q-31-11-71-11zM257 598l12 175h94l-48-175h-58z" glyph-name="tcaron" horiz-adv-x="355" unicode="&#x165;"/><glyph d="M92 338v66h145v240h-208v71h503v-71h-208v-240h145v-66h-145v-338h-87v338h-145z" glyph-name="Tbar" horiz-adv-x="561" unicode="&#x166;"/><glyph d="M27 280v59h75v114h-75v70h75v119h83v-119h122v-70h-122v-114h122v-59h-122v-141q0-76 65-76 36 0 64 11v-70q-31-11-71-11-69 0-105 37t-36 101v149h-75z" glyph-name="tbar" horiz-adv-x="355" unicode="&#x167;"/><glyph d="M341-9q-123 0-190 70t-67 200v454h87v-444q0-111 41-159.5t131-48.5q92 0 137 48t45 173v431h87v-443q0-134-68-207.5t-203-73.5zM402 774q-23 0-59 21.5t-49 21.5q-14 0-25-12.5t-15-32.5h-60q6 53 34 84.5t67 31.5q23 0 58.5-21.5t48.5-21.5q14 0 25 12.5t15 32.5h60q-6-53-33.5-84.5t-66.5-31.5z" glyph-name="Utilde" horiz-adv-x="696" unicode="&#x168;"/><glyph d="M261-9q-83 0-132.5 49t-49.5 152v331h83v-327q0-69 29.5-101t91.5-32q59 0 101.5 38t42.5 105v317h83v-523h-83v83q-19-40-62.5-66t-103.5-26zM351 619q-23 0-59 21.5t-49 21.5q-14 0-25-12.5t-15-32.5h-60q6 53 34 84.5t67 31.5q23 0 58.5-21.5t48.5-21.5q14 0 25 12.5t15 32.5h60q-6-53-33.5-84.5t-66.5-31.5z" glyph-name="utilde" horiz-adv-x="594" unicode="&#x169;"/><glyph d="M341-9q-123 0-190 70t-67 200v454h87v-444q0-111 41-159.5t131-48.5q92 0 137 48t45 173v431h87v-443q0-134-68-207.5t-203-73.5zM215 786v64h266v-64h-266z" glyph-name="Umacron" horiz-adv-x="696" unicode="&#x16a;"/><glyph d="M261-9q-83 0-132.5 49t-49.5 152v331h83v-327q0-69 29.5-101t91.5-32q59 0 101.5 38t42.5 105v317h83v-523h-83v83q-19-40-62.5-66t-103.5-26zM166 648v64h262v-64h-262z" glyph-name="umacron" horiz-adv-x="594" unicode="&#x16b;"/><glyph d="M341-9q-123 0-190 70t-67 200v454h87v-444q0-111 41-159.5t131-48.5q92 0 137 48t45 173v431h87v-443q0-134-68-207.5t-203-73.5zM346 767q-54 0-91.5 37.5t-40.5 94.5h66q11-64 66-64 59 0 72 64h64q-3-57-42.5-94.5t-93.5-37.5z" glyph-name="Ubreve" horiz-adv-x="696" unicode="&#x16c;"/><glyph d="M261-9q-83 0-132.5 49t-49.5 152v331h83v-327q0-69 29.5-101t91.5-32q59 0 101.5 38t42.5 105v317h83v-523h-83v83q-19-40-62.5-66t-103.5-26zM295 619q-54 0-91.5 37.5t-40.5 94.5h66q11-64 66-64 59 0 72 64h64q-3-57-42.5-94.5t-93.5-37.5z" glyph-name="ubreve" horiz-adv-x="594" unicode="&#x16d;"/><glyph d="M341-9q-123 0-190 70t-67 200v454h87v-444q0-111 41-159.5t131-48.5q92 0 137 48t45 173v431h87v-443q0-134-68-207.5t-203-73.5zM348 785q23 0 38 16.5t15 41.5-15 41.5-38 16.5-38-16.5-15-41.5 15-41.5 38-16.5zM348 739q-44 0-75.5 30.5t-31.5 73.5 31.5 73.5 75.5 30.5 75.5-30.5 31.5-73.5-31.5-73.5-75.5-30.5z" glyph-name="Uring" horiz-adv-x="696" unicode="&#x16e;"/><glyph d="M261-9q-83 0-132.5 49t-49.5 152v331h83v-327q0-69 29.5-101t91.5-32q59 0 101.5 38t42.5 105v317h83v-523h-83v83q-19-40-62.5-66t-103.5-26zM294 614q23 0 38 16.5t15 41.5-15 41.5-38 16.5-38-16.5-15-41.5 15-41.5 38-16.5zM294 568q-44 0-75.5 30.5t-31.5 73.5 31.5 73.5 75.5 30.5 75.5-30.5 31.5-73.5-31.5-73.5-75.5-30.5z" glyph-name="uring" horiz-adv-x="594" unicode="&#x16f;"/><glyph d="M341-9q-123 0-190 70t-67 200v454h87v-444q0-111 41-159.5t131-48.5q92 0 137 48t45 173v431h87v-443q0-134-68-207.5t-203-73.5zM236 771l37 127h95l-72-127h-60zM390 771l37 127h95l-72-127h-60z" glyph-name="Uhungarumlaut" horiz-adv-x="696" unicode="&#x170;"/><glyph d="M261-9q-83 0-132.5 49t-49.5 152v331h83v-327q0-69 29.5-101t91.5-32q59 0 101.5 38t42.5 105v317h83v-523h-83v83q-19-40-62.5-66t-103.5-26zM185 613l40 147h95l-75-147h-60zM339 613l40 147h95l-75-147h-60z" glyph-name="uhungarumlaut" horiz-adv-x="594" unicode="&#x171;"/><glyph d="M384-182q-47 0-75.5 21.5t-28.5 58.5q0 54 62 93h-1q-123 0-190 70t-67 200v454h87v-444q0-111 41-159.5t131-48.5q92 0 137 48t45 173v431h87v-443q0-192-133-254-35-17-49-24t-35-21-28.5-27.5-7.5-31.5q0-36 38-36 31 0 52 11v-59q-29-12-65-12z" glyph-name="Uogonek" horiz-adv-x="696" unicode="&#x172;"/><glyph d="M459-182q-47 0-75.5 21.5t-28.5 58.5q0 30 20 56t52 43v86q-19-40-62.5-66t-103.5-26q-83 0-132.5 49t-49.5 152v331h83v-327q0-69 29.5-101t91.5-32q59 0 101.5 38t42.5 105v317h83v-518q-76-48-76-91 0-36 38-36 31 0 52 11v-59q-29-12-65-12z" glyph-name="uogonek" horiz-adv-x="594" unicode="&#x173;"/><glyph d="M220 0l-186 715h89l145-577 168 577h62l168-579 147 579h81l-186-715h-80l-162 565-167-565h-79zM319 771l108 127h75l107-127h-61l-85 58-85-58h-59z" glyph-name="Wcircumflex" horiz-adv-x="928" unicode="&#x174;"/><glyph d="M189 0l-161 523h90l122-421 127 421h72l119-421 123 421h85l-163-523h-92l-109 392-122-392h-91zM252 613l108 144h75l107-144h-61l-85 75-85-75h-59z" glyph-name="wcircumflex" horiz-adv-x="794" unicode="&#x175;"/><glyph d="M262 0v312l-239 403h98l187-332 180 332h87l-226-404v-311h-87zM154 771l108 127h75l107-127h-61l-85 58-85-58h-59z" glyph-name="Ycircumflex" horiz-adv-x="598" unicode="&#x176;"/><glyph d="M131-182l99 236-205 469h89l160-375 145 375h85l-289-705h-84zM119 613l108 144h75l107-144h-61l-85 75-85-75h-59z" glyph-name="ycircumflex" horiz-adv-x="529" unicode="&#x177;"/><glyph d="M262 0v312l-239 403h98l187-332 180 332h87l-226-404v-311h-87zM197 789q-22 0-37.5 15.5t-15.5 37.5 15.5 37.5 37.5 15.5 37.5-15.5 15.5-37.5-15.5-37.5-37.5-15.5zM400 789q-22 0-37.5 15.5t-15.5 37.5 15.5 37.5 37.5 15.5 37.5-15.5 15.5-37.5-15.5-37.5-37.5-15.5z" glyph-name="Ydieresis" horiz-adv-x="598" unicode="&#x178;"/><glyph d="M28 0v14l405 630h-369v71h489v-13l-394-628h388v-74h-519zM258 771l56 127h104l-98-127h-62z" glyph-name="Zacute" horiz-adv-x="595" unicode="&#x179;"/><glyph d="M21 0v12l309 441h-279v70h407v-15l-302-435h298v-73h-433zM211 613l62 147h104l-104-147h-62z" glyph-name="zacute" horiz-adv-x="483" unicode="&#x17a;"/><glyph d="M28 0v14l405 630h-369v71h489v-13l-394-628h388v-74h-519zM295 787q-23 0-39 16.5t-16 38.5 16 38.5 39 16.5 39-16.5 16-38.5-16-38.5-39-16.5z" glyph-name="Zdotaccent" horiz-adv-x="595" unicode="&#x17b;"/><glyph d="M21 0v12l309 441h-279v70h407v-15l-302-435h298v-73h-433zM248 632q-22 0-38.5 16t-16.5 39 16.5 39 38.5 16 38.5-16 16.5-39-16.5-39-38.5-16z" glyph-name="zdotaccent" horiz-adv-x="483" unicode="&#x17c;"/><glyph d="M28 0v14l405 630h-369v71h489v-13l-394-628h388v-74h-519zM257 771l-107 127h61l85-58 85 58h59l-108-127h-75z" glyph-name="Zcaron" horiz-adv-x="595" unicode="&#x17d;"/><glyph d="M21 0v12l309 441h-279v70h407v-15l-302-435h298v-73h-433zM210 613l-107 144h61l85-75 85 75h59l-108-144h-75z" glyph-name="zcaron" horiz-adv-x="483" unicode="&#x17e;"/><glyph d="M29 345v68h97l23 152q25 159 169 159 38 0 68-11v-70q-30 12-66 12-75 0-89-94l-23-148h132v-68h-142l-80-527h-83l80 527h-86z" glyph-name="florin" horiz-adv-x="397" unicode="&#x192;"/><glyph d="M36 0l246 715h114l242-715h-86l-70 206h-295l-69-206h-82zM335 643l-124-368h248zM344 749q-44 0-75.5 30.5t-31.5 73.5 31.5 73.5 75.5 30.5 75.5-30.5 31.5-73.5-31.5-73.5-75.5-30.5zM311 986l56 127h104l-98-127h-62zM344 795q23 0 38 16.5t15 41.5-15 41.5-38 16.5-38-16.5-15-41.5 15-41.5 38-16.5z" glyph-name="Aringacute" horiz-adv-x="674" unicode="&#x1fa;"/><glyph d="M215-9q-77 0-125.5 38.5t-48.5 115.5q0 84 74.5 123t187.5 39h75v38q0 63-26 90.5t-86 27.5q-108 0-120-94h-83q8 84 66 123.5t141 39.5q191 0 191-187v-345h-83v66q-60-75-163-75zM223 57q68 0 111.5 33.5t43.5 92.5v65h-72q-182 0-182-103 0-88 99-88zM273 624q23 0 38 16.5t15 41.5-15 41.5-38 16.5-38-16.5-15-41.5 15-41.5 38-16.5zM273 578q-44 0-75.5 30.5t-31.5 73.5 31.5 73.5 75.5 30.5 75.5-30.5 31.5-73.5-31.5-73.5-75.5-30.5zM247 829l56 127h104l-98-127h-62z" glyph-name="aringacute" horiz-adv-x="540" unicode="&#x1fb;"/><glyph d="M29 0l370 715h492v-71h-330v-243h266v-71h-266v-259h348v-71h-435v207h-252l-105-207h-88zM443 644l-187-369h218v369h-31zM573 771l56 127h104l-98-127h-62z" glyph-name="AEacute" horiz-adv-x="950" unicode="&#x1fc;"/><glyph d="M616-9q-133 0-197 108-36-57-84-82.5t-120-25.5q-77 0-125.5 38.5t-48.5 115.5q0 85 73.5 125t185.5 40h78v34q0 62-27 90.5t-85 28.5q-108 0-120-94h-83q8 84 66 123.5t141 39.5q124 0 164-89 64 89 176 89 97 0 162-64t65-196v-25h-379q3-91 43-139t116-48q117 0 133 91h83q-13-77-71.5-118.5t-145.5-41.5zM223 57q68 0 111.5 33.5t43.5 92.5v64h-75q-179 0-179-102 0-88 99-88zM461 310h291q-11 153-142 153-60 0-99.5-41t-49.5-112zM407 613l62 147h104l-104-147h-62z" glyph-name="aeacute" horiz-adv-x="880" unicode="&#x1fd;"/><glyph d="M80-33l-45 45 98 107q-78 98-78 234v8q0 155 98.5 259t253.5 104q123 0 214-70l81 88 45-45-79-87q88-101 88-247v-8q0-154-97-259t-250-105q-136 0-232 82zM409 63q118 0 187.5 81t69.5 212v8q0 112-52 188l-384-421q70-68 179-68zM145 354q0-101 44-173l382 418q-66 55-164 55-122 0-192-81t-70-211v-8zM369 771l56 127h104l-98-127h-62z" glyph-name="Oslashacute" horiz-adv-x="811" unicode="&#x1fe;"/><glyph d="M67-37l-44 38 77 85q-55 71-55 171v8q0 117 72.5 192t184.5 75q90 0 156-50l68 74 44-38-70-77q59-73 59-175v-8q0-118-73-192.5t-185-74.5q-92 0-160 54zM302 60q78 0 124.5 54t46.5 143v7q0 66-27 117l-256-281q45-40 112-40zM131 257q0-65 24-111l253 280q-43 37-106 37-79 0-125-54t-46-144v-8zM264 613l62 147h104l-104-147h-62z" glyph-name="oslashacute" horiz-adv-x="604" unicode="&#x1ff;"/><glyph d="M321-9q-133 0-197.5 62.5t-75.5 164.5h84q5-35 14.5-61t29.5-49 56.5-35 88.5-12q70 0 116.5 37.5t46.5 97.5q0 62-36 91.5t-137 45.5q-121 18-180 62.5t-59 134.5q0 83 65 138.5t165 55.5q108 0 172-51t74-146h-78q-13 67-53 97t-115 30q-71 0-110-32t-39-84q0-56 34-84t138-44q126-20 184.5-65.5t58.5-142.5q0-90-70.5-150.5t-176.5-60.5zM269-220l-51 26 58 157 80-24z" glyph-name="Scommaaccent" horiz-adv-x="627" unicode="&#x218;"/><glyph d="M246-9q-94 0-147.5 45t-57.5 125h81q10-101 123-101 114 0 114 83 0 39-28.5 57.5t-93.5 30.5q-102 19-142 52.5t-40 101.5 54.5 107.5 122.5 39.5q170 0 189-151h-80q-9 43-35 62.5t-75 19.5q-45 0-72-20.5t-27-54.5q0-36 25.5-53t96.5-30q47-9 75.5-17.5t56-25.5 40-44.5 12.5-67.5q0-73-49.5-116t-142.5-43zM205-220l-51 26 58 157 80-24z" glyph-name="scommaaccent" horiz-adv-x="480" unicode="&#x219;"/><glyph d="M9-191v70q42 4 59.5 24t17.5 57v563h83v-556q0-77-37.5-116t-122.5-42z" glyph-name="uni0237" horiz-adv-x="255" unicode="&#x237;"/><glyph d="M55 613l108 144h75l107-144h-61l-85 75-85-75h-59z" glyph-name="circumflex" horiz-adv-x="400" unicode="&#x2c6;"/><glyph d="M162 613l-107 144h61l85-75 85 75h59l-108-144h-75z" glyph-name="caron" horiz-adv-x="400" unicode="&#x2c7;"/><glyph d="M198 619q-54 0-91.5 37.5t-40.5 94.5h66q11-64 66-64 59 0 72 64h64q-3-57-42.5-94.5t-93.5-37.5z" glyph-name="breve" horiz-adv-x="400" unicode="&#x2d8;"/><glyph d="M200 632q-22 0-38.5 16t-16.5 39 16.5 39 38.5 16 38.5-16 16.5-39-16.5-39-38.5-16z" glyph-name="dotaccent" horiz-adv-x="400" unicode="&#x2d9;"/><glyph d="M200 644q23 0 38 16.5t15 41.5-15 41.5-38 16.5-38-16.5-15-41.5 15-41.5 38-16.5zM200 598q-44 0-75.5 30.5t-31.5 73.5 31.5 73.5 75.5 30.5 75.5-30.5 31.5-73.5-31.5-73.5-75.5-30.5z" glyph-name="ring" horiz-adv-x="400" unicode="&#x2da;"/><glyph d="M223-182q-47 0-75.5 21.5t-28.5 58.5q0 31 22 58t56 44h69q-68-45-68-86 0-36 38-36 31 0 52 11v-59q-29-12-65-12z" glyph-name="ogonek" horiz-adv-x="400" unicode="&#x2db;"/><glyph d="M254 619q-23 0-59 21.5t-49 21.5q-14 0-25-12.5t-15-32.5h-60q6 53 34 84.5t67 31.5q23 0 58.5-21.5t48.5-21.5q14 0 25 12.5t15 32.5h60q-6-53-33.5-84.5t-66.5-31.5z" glyph-name="tilde" horiz-adv-x="400" unicode="&#x2dc;"/><glyph d="M96 613l40 147h95l-75-147h-60zM250 613l40 147h95l-75-147h-60z" glyph-name="hungarumlaut" horiz-adv-x="400" unicode="&#x2dd;"/><glyph d="M220 0l-186 715h89l145-577 168 577h62l168-579 147 579h81l-186-715h-80l-162 565-167-565h-79zM442 771l-98 127h104l56-127h-62z" glyph-name="Wgrave" horiz-adv-x="928" unicode="&#x1e80;"/><glyph d="M189 0l-161 523h90l122-421 127 421h72l119-421 123 421h85l-163-523h-92l-109 392-122-392h-91zM381 613l-104 147h104l62-147h-62z" glyph-name="wgrave" horiz-adv-x="794" unicode="&#x1e81;"/><glyph d="M220 0l-186 715h89l145-577 168 577h62l168-579 147 579h81l-186-715h-80l-162 565-167-565h-79zM440 771l56 127h104l-98-127h-62z" glyph-name="Wacute" horiz-adv-x="928" unicode="&#x1e82;"/><glyph d="M189 0l-161 523h90l122-421 127 421h72l119-421 123 421h85l-163-523h-92l-109 392-122-392h-91zM370 613l62 147h104l-104-147h-62z" glyph-name="wacute" horiz-adv-x="794" unicode="&#x1e83;"/><glyph d="M220 0l-186 715h89l145-577 168 577h62l168-579 147 579h81l-186-715h-80l-162 565-167-565h-79zM365 789q-22 0-37.5 15.5t-15.5 37.5 15.5 37.5 37.5 15.5 37.5-15.5 15.5-37.5-15.5-37.5-37.5-15.5zM568 789q-22 0-37.5 15.5t-15.5 37.5 15.5 37.5 37.5 15.5 37.5-15.5 15.5-37.5-15.5-37.5-37.5-15.5z" glyph-name="Wdieresis" horiz-adv-x="928" unicode="&#x1e84;"/><glyph d="M189 0l-161 523h90l122-421 127 421h72l119-421 123 421h85l-163-523h-92l-109 392-122-392h-91zM308 634q-22 0-37.5 15.5t-15.5 37.5 15.5 37.5 37.5 15.5 37.5-15.5 15.5-37.5-15.5-37.5-37.5-15.5zM496 634q-22 0-37.5 15.5t-15.5 37.5 15.5 37.5 37.5 15.5 37.5-15.5 15.5-37.5-15.5-37.5-37.5-15.5z" glyph-name="wdieresis" horiz-adv-x="794" unicode="&#x1e85;"/><glyph d="M262 0v312l-239 403h98l187-332 180 332h87l-226-404v-311h-87zM284 771l-98 127h104l56-127h-62z" glyph-name="Ygrave" horiz-adv-x="598" unicode="&#x1ef2;"/><glyph d="M131-182l99 236-205 469h89l160-375 145 375h85l-289-705h-84zM243 613l-104 147h104l62-147h-62z" glyph-name="ygrave" horiz-adv-x="529" unicode="&#x1ef3;"/><glyph glyph-name="uni2009" horiz-adv-x="110" unicode="&#x2009;"/><glyph d="M45 241v70h436v-70h-436z" glyph-name="endash" horiz-adv-x="526" unicode="&#x2013;"/><glyph d="M45 241v70h795v-70h-795z" glyph-name="emdash" horiz-adv-x="885" unicode="&#x2014;"/><glyph d="M119 488l-79 36 117 202 51-26z" glyph-name="quoteleft" horiz-adv-x="255" unicode="&#x2018;"/><glyph d="M98 488l-51 26 89 212 79-36z" glyph-name="quoteright" horiz-adv-x="255" unicode="&#x2019;"/><glyph d="M98-114l-51 26 89 212 79-36z" glyph-name="quotesinglbase" horiz-adv-x="255" unicode="&#x201a;"/><glyph d="M119 488l-79 36 117 202 51-26zM296 488l-79 36 117 202 51-26z" glyph-name="quotedblleft" horiz-adv-x="432" unicode="&#x201c;"/><glyph d="M98 488l-51 26 89 212 79-36zM275 488l-51 26 89 212 79-36z" glyph-name="quotedblright" horiz-adv-x="432" unicode="&#x201d;"/><glyph d="M98-114l-51 26 89 212 79-36zM275-114l-51 26 89 212 79-36z" glyph-name="quotedblbase" horiz-adv-x="432" unicode="&#x201e;"/><glyph d="M150 213v306h-116v67h116v129h75v-129h115v-67h-115v-306h-75z" glyph-name="dagger" horiz-adv-x="374" unicode="&#x2020;"/><glyph d="M150 409v110h-116v67h116v129h75v-129h115v-67h-115v-110h115v-67h-115v-129h-75v129h-116v67h116z" glyph-name="daggerdbl" horiz-adv-x="374" unicode="&#x2021;"/><glyph d="M166 190q-49 0-82.5 34t-33.5 82 33.5 82 82.5 34q50 0 83-33.5t33-82.5-33-82.5-83-33.5z" glyph-name="bullet" horiz-adv-x="332" unicode="&#x2022;"/><glyph d="M141-5q-26 0-45 18.5t-19 45.5 19 45.5 45 18.5 45-18.5 19-45.5-19-45.5-45-18.5zM403-5q-26 0-45 18.5t-19 45.5 19 45.5 45 18.5 45-18.5 19-45.5-19-45.5-45-18.5zM665-5q-26 0-45 18.5t-19 45.5 19 45.5 45 18.5 45-18.5 19-45.5-19-45.5-45-18.5z" glyph-name="ellipsis" horiz-adv-x="806" unicode="&#x2026;"/><glyph d="M193 459q39 0 61.5 26.5t22.5 72.5q0 45-23 72t-61 27-61-26.5-23-73.5q0-46 23-72t61-26zM193 395q-63 0-111 46.5t-48 114.5q0 70 47 117.5t112 47.5 112-46.5 47-116.5-47.5-116.5-111.5-46.5zM126 0l437 715h76l-437-715h-76zM565 56q39 0 61.5 26.5t22.5 72.5q0 45-23 72t-61 27-61-26.5-23-73.5q0-46 23-72t61-26zM565-8q-63 0-111 46.5t-48 114.5q0 71 47 118t112 47 112-47 47-116q0-70-47.5-116.5t-111.5-46.5zM933 56q39 0 61.5 26.5t22.5 72.5q0 45-23 72t-61 27-61-26.5-23-73.5q0-46 23-72t61-26zM933-8q-63 0-111 46.5t-48 114.5q0 71 47 118t112 47 112-47 47-116q0-70-47.5-116.5t-111.5-46.5z" glyph-name="perthousand" horiz-adv-x="1126" unicode="&#x2030;"/><glyph d="M46 470l25 245h90l-55-245h-60z" glyph-name="uni2032" horiz-adv-x="212" unicode="&#x2032;"/><glyph d="M46 470l25 245h90l-55-245h-60zM209 470l25 245h90l-55-245h-60z" glyph-name="uni2033" horiz-adv-x="375" unicode="&#x2033;"/><glyph d="M189 83l-130 178 130 178h82l-125-178 125-178h-82z" glyph-name="guilsinglleft" horiz-adv-x="322" unicode="&#x2039;"/><glyph d="M51 83l125 178-125 178h82l130-178-130-178h-82z" glyph-name="guilsinglright" horiz-adv-x="322" unicode="&#x203a;"/><glyph d="M-230 0l507 715h66l-507-715h-66z" glyph-name="fraction" horiz-adv-x="113" unicode="&#x2044;"/><glyph d="M32 394v58h74q13 120 83 196t184 76q103 0 167.5-58t76.5-161h-82q-10 72-53 111.5t-109 39.5q-79 0-125.5-54.5t-56.5-149.5h239l-11-58h-230v-78h215l-11-58h-201q10-94 56.5-145t126.5-51q70 0 113.5 41.5t55.5 122.5h81q-12-111-78.5-173t-171.5-62q-112 0-183.5 74t-85.5 193h-74v58h71v78h-71z" glyph-name="Euro" horiz-adv-x="674" unicode="&#x20ac;"/><glyph d="M342 393v322h77l90-226 88 226h78v-322h-56v251l-103-251h-19l-104 251v-251h-51zM132 393v278h-98v44h251v-44h-97v-278h-56z" glyph-name="trademark" horiz-adv-x="716" unicode="&#x2122;"/><glyph d="M108 373v276l-81-54v59l89 61h60v-342h-68zM45 0l507 715h66l-507-715h-66zM560-5q-61 0-95 30t-36 81h61q7-61 68-61 63 0 63 54t-60 54h-26v47h25q56 0 56 49 0 21-13.5 34t-38.5 13q-26 0-42.5-14.5t-19.5-40.5h-61q3 47 36.5 76t87.5 29q53 0 84-26t31-66q0-54-57-74 67-15 67-82 0-48-35-75.5t-95-27.5z" glyph-name="onethird" horiz-adv-x="723" unicode="&#x2153;"/><glyph d="M11 373v11l128 136q54 56 54 97 0 23-13 36.5t-37 13.5q-52 0-60-66h-61q3 56 35.5 87t87.5 31q53 0 83.5-27.5t30.5-73.5q0-58-66-122l-73-72h142v-51h-251zM96 0l507 715h66l-507-715h-66zM597-5q-61 0-95 30t-36 81h61q7-61 68-61 63 0 63 54t-60 54h-26v47h25q56 0 56 49 0 21-13.5 34t-38.5 13q-26 0-42.5-14.5t-19.5-40.5h-61q3 47 36.5 76t87.5 29q53 0 84-26t31-66q0-54-57-74 67-15 67-82 0-48-35-75.5t-95-27.5z" glyph-name="twothirds" horiz-adv-x="760" unicode="&#x2154;"/><glyph d="M108 373v276l-81-54v59l89 61h60v-342h-68zM45 0l507 715h66l-507-715h-66zM553-5q-55 0-92 26.5t-37 74.5q0 65 63 87-50 21-50 71 0 42 34.5 67t82.5 25 82-25 34-66q0-50-51-71 64-24 64-86 0-49-37-76t-93-27zM554 45q27 0 44.5 15t17.5 43q0 26-17.5 41.5t-44.5 15.5-44.5-15.5-17.5-42.5 17.5-42 44.5-15zM554 203q24 0 38 13t14 35q0 21-15 34t-37 13q-23 0-38-13t-15-35 15.5-34.5 37.5-12.5z" glyph-name="oneeighth" horiz-adv-x="714" unicode="&#x215b;"/><glyph d="M155 368q-61 0-95 30t-36 81h61q7-61 68-61 63 0 63 54t-60 54h-26v47h25q56 0 56 49 0 21-13.5 34t-38.5 13q-26 0-42.5-14.5t-19.5-40.5h-61q3 47 36.5 76t87.5 29q53 0 84-26t31-66q0-54-57-74 67-15 67-82 0-48-35-75.5t-95-27.5zM87 0l507 715h66l-507-715h-66zM583-5q-55 0-92 26.5t-37 74.5q0 65 63 87-50 21-50 71 0 42 34.5 67t82.5 25 82-25 34-66q0-50-51-71 64-24 64-86 0-49-37-76t-93-27zM584 45q27 0 44.5 15t17.5 43q0 26-17.5 41.5t-44.5 15.5-44.5-15.5-17.5-42.5 17.5-42 44.5-15zM584 203q24 0 38 13t14 35q0 21-15 34t-37 13q-23 0-38-13t-15-35 15.5-34.5 37.5-12.5z" glyph-name="threeeighths" horiz-adv-x="744" unicode="&#x215c;"/><glyph d="M148 368q-58 0-89.5 28.5t-34.5 75.5h63q4-26 17-39t44-13q27 0 42.5 18t15.5 49q0 30-15.5 47.5t-43.5 17.5q-46 0-70-29h-36l4 192h210v-52h-159l-1-92q26 30 75 30 47 0 76-31t29-84q0-54-35-86t-92-32zM80 0l507 715h66l-507-715h-66zM577-5q-55 0-92 26.5t-37 74.5q0 65 63 87-50 21-50 71 0 42 34.5 67t82.5 25 82-25 34-66q0-50-51-71 64-24 64-86 0-49-37-76t-93-27zM578 45q27 0 44.5 15t17.5 43q0 26-17.5 41.5t-44.5 15.5-44.5-15.5-17.5-42.5 17.5-42 44.5-15zM578 203q24 0 38 13t14 35q0 21-15 34t-37 13q-23 0-38-13t-15-35 15.5-34.5 37.5-12.5z" glyph-name="fiveeighths" horiz-adv-x="738" unicode="&#x215d;"/><glyph d="M69 373l108 287h-157v55h241v-8l-124-334h-68zM33 0l507 715h66l-507-715h-66zM549-5q-55 0-92 26.5t-37 74.5q0 65 63 87-50 21-50 71 0 42 34.5 67t82.5 25 82-25 34-66q0-50-51-71 64-24 64-86 0-49-37-76t-93-27zM550 45q27 0 44.5 15t17.5 43q0 26-17.5 41.5t-44.5 15.5-44.5-15.5-17.5-42.5 17.5-42 44.5-15zM550 203q24 0 38 13t14 35q0 21-15 34t-37 13q-23 0-38-13t-15-35 15.5-34.5 37.5-12.5z" glyph-name="seveneighths" horiz-adv-x="710" unicode="&#x215e;"/><glyph d="M36 307v70h447v-70h-447z" glyph-name="minus" horiz-adv-x="519" unicode="&#x2212;"/><glyph d="M44 166q5 58 35.5 88.5t74.5 30.5q41 0 104.5-22t87.5-22q17 0 30 11.5t15 34.5h63q-4-58-34.5-88.5t-72.5-30.5q-43 0-107 22t-87 22q-17 0-29.5-12t-16.5-34h-63zM44 343q5 58 35.5 88.5t74.5 30.5q41 0 104.5-22t87.5-22q17 0 30 11.5t15 34.5h63q-4-58-34.5-88.5t-72.5-30.5q-43 0-107 22t-87 22q-17 0-29.5-12t-16.5-34h-63z" glyph-name="approxequal" horiz-adv-x="498" unicode="&#x2248;"/><glyph d="M40 376v72h215l40 103h76l-40-103h113v-72h-141l-41-108h182v-72h-210l-40-103h-76l40 103h-118v72h146l41 108h-187z" glyph-name="notequal" horiz-adv-x="484" unicode="&#x2260;"/><glyph d="M437 119l-384 205v20l384 205v-80l-260-135 260-135v-80zM53 0v70h384v-70h-384z" glyph-name="lessequal" horiz-adv-x="504" unicode="&#x2264;"/><glyph d="M67 119v80l260 135-260 135v80l384-205v-20zM67 0v70h384v-70h-384z" glyph-name="greaterequal" horiz-adv-x="504" unicode="&#x2265;"/><glyph d="M304 162v395h128q69 0 108-30.5t39-91.5v-3q0-61-38.5-91t-105.5-30h-55v-149h-76zM380 366h52q74 0 74 66v3q0 63-74 63h-52v-132zM421 33q131 0 225.5 92.5t94.5 233.5q0 140-93 231.5t-225 91.5q-134 0-227-92t-93-233 94.5-232.5 223.5-91.5zM421-9q-153 0-259.5 105.5t-106.5 260.5q0 153 107 260t261 107q155 0 260.5-106t105.5-259q0-156-106.5-262t-261.5-106z" glyph-name="uni24C5" horiz-adv-x="844" unicode="&#x24c5;"/><glyph d="M304 63q84 0 120.5 53.5t36.5 178.5v130q0 229-159 229-162 0-162-236v-125q0-122 41-176t123-54zM304-9q-116 0-184.5 77.5t-68.5 223.5v125q0 149 67 228t184 79 182-77 65-223v-130q0-148-64-225.5t-181-77.5z" glyph-name="zero.tab" unicode="&#xe44f;"/><glyph d="M314 0v627l-205-164v81l201 171h91v-715h-87z" glyph-name="one.tab" unicode="&#xe450;"/><glyph d="M42 0v20l284 299q103 109 103 207 0 60-33.5 94t-94.5 34q-131 0-151-159h-81q8 106 69.5 167.5t162.5 61.5q99 0 157.5-54.5t58.5-146.5q0-119-144-260l-197-192h345v-71h-479z" glyph-name="two.tab" unicode="&#xe451;"/><glyph d="M288-9q-109 0-174.5 62t-69.5 158h80q14-150 166-150 81 0 121 36.5t40 101.5q0 139-151 139h-54v73h50q137 0 137 122 0 54-32.5 87t-95.5 33q-66 0-107.5-36.5t-48.5-98.5h-76q4 87 68 146.5t164 59.5q98 0 155.5-55.5t57.5-133.5q0-109-116-156 65-17 101.5-62.5t36.5-117.5q0-96-69.5-152t-182.5-56z" glyph-name="three.tab" unicode="&#xe452;"/><glyph d="M389 0v150h-348v28l317 537h116v-494h84v-71h-84v-150h-85zM149 221h240v423z" glyph-name="four.tab" unicode="&#xe453;"/><glyph d="M288-9q-111 0-170.5 55t-67.5 147h83q12-65 45-98.5t109-33.5q73 0 115 46t42 127q0 76-41 121.5t-109 45.5q-108 0-169-69h-32v383h402v-75h-330v-218q53 49 146 49 98 0 160-64.5t62-172.5q0-110-70-176.5t-175-66.5z" glyph-name="five.tab" unicode="&#xe454;"/><glyph d="M308-9q-71 0-122 25t-80 71-42 102.5-13 126.5v17q0 188 76.5 289.5t203.5 101.5q85 0 140-44t69-129h-83q-12 52-43 77t-89 25q-83 0-134-74t-54-212q26 44 74.5 70.5t109.5 26.5q105 0 169.5-67t64.5-167q0-108-67-173.5t-180-65.5zM308 59q71 0 114.5 46t43.5 121q0 77-43 123.5t-116 46.5q-72 0-118-44t-46-114q0-85 45.5-132t119.5-47z" glyph-name="six.tab" unicode="&#xe455;"/><glyph d="M166 0l263 645h-359v70h471v-12l-286-703h-89z" glyph-name="seven.tab" unicode="&#xe456;"/><glyph d="M301-9q-61 0-116 22.5t-93 72.5-38 117q0 69 37 116t98 69q-51 20-79.5 59t-28.5 91q0 83 66.5 134.5t153.5 51.5 153-51.5 66-132.5q0-103-110-151 137-50 137-184 0-101-73.5-157.5t-172.5-56.5zM301 62q69 0 113 38.5t44 107.5q0 68-44 105t-111 37q-68 0-114-38t-46-106q0-67 46-105.5t112-38.5zM304 419q58 0 93 32t35 88q0 51-37.5 84t-93.5 33q-57 0-94.5-32.5t-37.5-86.5 39-86 96-32z" glyph-name="eight.tab" unicode="&#xe457;"/><glyph d="M280-8q-98 0-157 48.5t-73 135.5h84q13-56 47.5-84.5t100.5-28.5q87 0 134.5 71.5t48.5 212.5q-26-44-75-69.5t-110-25.5q-104 0-169.5 66t-65.5 168q0 108 67 173.5t180 65.5q126 0 191.5-82.5t65.5-237.5v-45q0-177-70-272.5t-199-95.5zM293 320q72 0 118 43t46 112q0 86-45.5 134t-119.5 48q-71 0-114.5-46t-43.5-121q0-77 43-123.5t116-46.5z" glyph-name="nine.tab" unicode="&#xe458;"/><glyph d="M285-135v128q-99 10-160.5 81t-61.5 182v8q0 109 62.5 182t159.5 84v99h59v-99q80-7 134.5-51t65.5-130h-82q-8 51-39.5 78.5t-78.5 33.5v-399q50 7 85 39.5t41 86.5h77q-8-79-63.5-133.5t-139.5-61.5v-128h-59zM149 256q0-84 36-133.5t100-60.5v398q-61-11-98.5-63.5t-37.5-132.5v-8z" glyph-name="cent.tab" unicode="&#xe459;"/><glyph d="M272-135v127q-218 14-240 226h84q9-71 41-111.5t115-47.5v279q-105 20-158 64t-53 129q0 77 59 131t152 61v90h59v-91q91-8 144.5-59t63.5-136h-78q-22 113-130 127v-250q116-20 169.5-65t53.5-138q0-85-62-143.5t-161-65.5v-127h-59zM471 196q0 57-30 86.5t-110 45.5v-269q63 8 101.5 45t38.5 92zM140 538q0-51 27-79.5t105-44.5v241q-63-5-97.5-37.5t-34.5-79.5z" glyph-name="dollar.tab" unicode="&#xe45a;"/><glyph d="M15 394v58h61q8 127 72.5 199.5t174.5 72.5q92 0 148.5-56t68.5-160h-82q-22 148-135 148-149 0-160-204h220l-11-58h-210v-78h195l-11-58h-183q5-99 44.5-147.5t117.5-48.5q63 0 98.5 39.5t47.5 120.5h81q-12-110-72-170.5t-155-60.5q-109 0-175 69.5t-73 197.5h-62v58h61v78h-61z" glyph-name="Euro.tab" unicode="&#xe45b;"/><glyph d="M276-9q-97 0-164 71t-67 189v8q0 118 69.5 195.5t169.5 77.5q110 0 164-91v82h83v-523h-83v88q-23-40-72-68.5t-100-28.5zM285 60q71 0 118.5 51t47.5 147v8q0 97-43 147t-116 50-117-53-44-147v-8q0-94 44-144.5t110-50.5z" glyph-name="a.alt" horiz-adv-x="615" unicode="&#xe4c0;"/><glyph d="M109 0v453h-82v70h82v119h83v-119h115v-70h-115v-453h-83z" glyph-name="t.alt" horiz-adv-x="338" unicode="&#xe4d3;"/><glyph d="M102 0v453h-75v70h75v85q0 81 39 124.5t115 43.5q36 0 57-8v-70q-22 9-54 9-74 0-74-90v-94h128v-70h-128v-453h-83zM428 0v523h83v-523h-83zM468 632q-22 0-38.5 16t-16.5 39 16.5 39 38.5 16 38.5-16 16.5-39-16.5-39-38.5-16z" glyph-name="f_i" horiz-adv-x="597" unicode="&#xfb01;"/><glyph d="M102 0v453h-75v70h75v85q0 81 39 124.5t115 43.5q36 0 57-8v-70q-22 9-54 9-74 0-74-90v-94h128v-70h-128v-453h-83zM428 0v773h84v-773h-84z" glyph-name="f_l" horiz-adv-x="598" unicode="&#xfb02;"/><glyph d="M126 632q-22 0-38.5 16t-16.5 39 16.5 39 38.5 16 38.5-16 16.5-39-16.5-39-38.5-16zM86 0v523h83v-523h-83z" glyph-name="idotaccent" horiz-adv-x="255"/><glyph d="M179-220l-51 26 58 157 80-24z" glyph-name="space_uni0326" horiz-adv-x="400"/><glyph d="M276-131v123q-212 15-232 219h81q4-32 11.5-54.5t23-45 45-36 71.5-17.5v270q-103 19-153.5 61t-50.5 125q0 76 57 129t147 58v88h58v-89q88-9 140-57.5t61-131.5h-75q-22 109-126 122v-242q112-19 164-62t52-133q0-82-61-139.5t-155-64.5v-123h-58zM469 190q0 55-29 84t-106 44v-260q59 6 97 42.5t38 89.5zM148 522q0-49 26-76.5t102-43.5v233q-60-5-94-36t-34-77z" glyph-name="dollar.old" horiz-adv-x="608"/><glyph d="M31 382v56h71q13 117 81 190.5t179 73.5q100 0 162.5-56t73.5-156h-79q-10 70-51.5 108t-105.5 38q-77 0-122-52.5t-55-145.5h232l-11-56h-223v-75h209l-11-57h-195q10-91 54.5-140.5t123.5-49.5q68 0 110 40.5t54 118.5h78q-11-107-75.5-167.5t-166.5-60.5q-109 0-178.5 71.5t-82.5 187.5h-72v57h69v75h-69z" glyph-name="Euro.old" horiz-adv-x="654"/><glyph d="M47 306v60h62q-17 70-17 136 0 88 61 144t153 56 146-49 61-134h-81q-11 58-39.5 86t-86.5 28q-57 0-92.5-36t-35.5-96q0-62 16-135h207v-60h-194q15-73 15-128 0-33-13-64 27-6 86-29t81-23q84 0 89 83h70q-4-69-43-111.5t-106-42.5q-46 0-118.5 30.5t-96.5 30.5q-30 0-45-15t-18-37h-71q4 38 29 73.5t70 44.5q12 29 12 60 0 44-23 128h-78z" glyph-name="sterling.old" horiz-adv-x="578"/><glyph d="M81 273v56h151l-205 365h91l170-315 162 315h82l-194-365h152v-56h-163v-76h163v-56h-163v-141h-83v141h-163v56h163v76h-163z" glyph-name="yen.old" horiz-adv-x="559"/></font>
</defs>
</svg>
