<svg><defs><font horiz-adv-x="600"><font-face ascent="818" bbox="-263 -220 1071 1113" cap-height="715" descent="-182" panose-1="2 11 5 3 3 2 2 13 2 3" slope="-8" underline-position="-50" underline-thickness="50" unicode-range="U+0020-FB02" x-height="523"/><missing-glyph horiz-adv-x="500"/><glyph d="M338 0l72 453h-202l-71-453h-83l71 453h-74l11 70h74l15 92q12 73 57 112t113 39q43 0 69-13l-10-66q-23 10-55 10-77 0-91-84l-15-90h202l16 102q12 73 57 112t113 39q43 0 69-13l-10-66q-23 10-55 10-77 0-91-84l-16-100h128l-11-70h-128l-72-453h-83z" glyph-name="f_f" horiz-adv-x="620" unicode="&#x66;&#x66;"/><glyph glyph-name=".notdef" horiz-adv-x="500"/><glyph glyph-name=".null" horiz-adv-x="0"/><glyph glyph-name="nonmarkingreturn" horiz-adv-x="333"/><glyph glyph-name="space" horiz-adv-x="265" unicode="&#x20;"/><glyph d="M101 202l68 513h92l-96-513h-64zM113-5q-26 0-45 18.5t-19 45.5 18.5 45.5 44.5 18.5q27 0 46-18.5t19-45.5-19-45.5-45-18.5z" glyph-name="exclam" horiz-adv-x="286" unicode="&#x21;"/><glyph d="M109 470l22 245h90l-52-245h-60zM272 470l22 245h90l-52-245h-60z" glyph-name="quotedbl" horiz-adv-x="375" unicode="&#x22;"/><glyph d="M246 99l43 183h-97l-43-183h-68l43 183h-87l11 70h92l31 132h-88l11 70h94l38 161h68l-38-161h97l38 161h68l-38-161h88l-11-70h-94l-31-132h90l-11-70h-95l-43-183h-68zM239 484l-31-132h97l31 132h-97z" glyph-name="numbersign" horiz-adv-x="503" unicode="&#x23;"/><glyph d="M300-9h-5l-20-126h-59l20 131q-99 16-151 77.5t-53 144.5h84q2-56 34-98t97-55l44 274q-95 30-138 71.5t-43 115.5q0 82 68 139.5t174 58.5l14 89h59l-15-94q80-13 127.5-62.5t49.5-129.5h-78q-10 101-110 123l-40-251q103-32 148.5-74t45.5-116q0-96-68.5-157t-184.5-61zM469 201q0 45-26 71.5t-96 49.5l-41-262q78 1 120.5 38.5t42.5 102.5zM192 529q0-39 23.5-64t87.5-48l38 238q-73-1-111-36t-38-90z" glyph-name="dollar" horiz-adv-x="617" unicode="&#x24;"/><glyph d="M149 535q0-88 80-88 44 0 69.5 33t25.5 85q0 38-19 65t-60 27q-47 0-71.5-34.5t-24.5-87.5zM227 383q-68 0-111 44.5t-43 111.5q0 74 51 128t124 54q69 0 110.5-45.5t41.5-113.5q0-73-50.5-126t-122.5-53zM96 0l547 715h79l-547-715h-79zM493 144q0-88 80-88 44 0 69.5 33t25.5 85q0 38-19 65t-60 27q-47 0-71.5-34.5t-24.5-87.5zM571-8q-68 0-111 44.5t-43 111.5q0 74 51 128t124 54q69 0 110.5-45.5t41.5-113.5q0-73-50.5-126t-122.5-53z" glyph-name="percent" horiz-adv-x="784" unicode="&#x25;"/><glyph d="M603 0h-97l-57 85q-38-39-90-64.5t-109-26.5q-87 0-149.5 45t-62.5 141q0 84 52 137.5t146 90.5q-42 72-42 132 0 81 51 130t127 49q67 0 111-38.5t44-103.5q0-71-47.5-114t-131.5-78l119-181 108 165h80l-148-224zM124 182q0-57 35-89t94-32q88 0 161 78l-146 219q-66-26-105-66t-39-110zM370 655q-42 0-68.5-29t-26.5-78q0-44 42-112 30 12 48.5 21.5t40 25.5 32 39 10.5 53q0 33-20 56.5t-58 23.5z" glyph-name="ampersand" horiz-adv-x="680" unicode="&#x26;"/><glyph d="M109 470l22 245h90l-52-245h-60z" glyph-name="quotesingle" horiz-adv-x="212" unicode="&#x27;"/><glyph d="M155-148q-105 153-105 350 0 325 246 571h91q-251-259-251-571 0-187 99-350h-80z" glyph-name="parenleft" horiz-adv-x="322" unicode="&#x28;"/><glyph d="M181 776q105-153 105-350 0-325-246-571h-91q251 259 251 571 0 187-99 350h80z" glyph-name="parenright" horiz-adv-x="322" unicode="&#x29;"/><glyph d="M162 416l-50 44 99 105-118 36 33 65 110-54 14 131h73l-28-134 125 40 11-67-129-22 67-115-63-37-56 123z" glyph-name="asterisk" horiz-adv-x="422" unicode="&#x2a;"/><glyph d="M197 105l32 202h-187l11 70h187l32 202h73l-32-202h187l-11-70h-187l-32-202h-73z" glyph-name="plus" horiz-adv-x="519" unicode="&#x2b;"/><glyph d="M41-123l-50 28 118 219 75-38z" glyph-name="comma" horiz-adv-x="282" unicode="&#x2c;"/><glyph d="M55 236l12 78h214l-12-78h-214z" glyph-name="hyphen" horiz-adv-x="335" unicode="&#x2d;"/><glyph d="M108-5q-26 0-45 18.5t-19 45.5 18.5 45.5 44.5 18.5q27 0 46-18.5t19-45.5-19-45.5-45-18.5z" glyph-name="period" horiz-adv-x="282" unicode="&#x2e;"/><glyph d="M-59-148l434 924h78l-435-924h-77z" glyph-name="slash" horiz-adv-x="403" unicode="&#x2f;"/><glyph d="M318-9q-124 0-187 77t-64 198q0 50 7 89l6 37q25 153 109.5 242.5t208.5 89.5q122 0 183-78t61-200q0-47-7-88l-6-37q-24-151-106.5-240.5t-204.5-89.5zM323 63q87 0 143 68.5t77 199.5l6 37q6 36 6 78 0 90-37.5 149t-124.5 59q-86 0-145.5-70.5t-80.5-197.5l-6-37q-7-44-7-84 0-56 13-98t52.5-73 103.5-31z" glyph-name="zero" horiz-adv-x="681" unicode="&#x30;"/><glyph d="M151 0l99 627-178-115 13 83 185 120h81l-113-715h-87z" glyph-name="one" horiz-adv-x="399" unicode="&#x31;"/><glyph d="M-33 0l3 20 341 296q131 113 131 221 0 49-30 83t-84 34q-131 2-170-159h-82q18 114 87 172t170 57q85 0 141-50t56-135q0-79-45.5-143t-133.5-138l-221-187h337l-11-71h-489z" glyph-name="two" horiz-adv-x="554" unicode="&#x32;"/><glyph d="M271-9q-110 0-175.5 59.5t-65.5 160.5h82q2-67 41.5-108.5t121.5-41.5q81 0 125 39.5t44 118.5q0 55-34 87t-103 32h-46l12 73h62q62 0 100.5 32t38.5 98q0 53-32 82.5t-89 29.5q-65 0-109-34.5t-60-100.5h-77q13 92 83 149t168 57q83 0 142.5-46t59.5-134q0-62-36.5-108t-99.5-64q52-17 80.5-56.5t28.5-96.5q0-105-72.5-166.5t-189.5-61.5z" glyph-name="three" horiz-adv-x="604" unicode="&#x33;"/><glyph d="M355 0l23 150h-356l5 28 410 537h116l-78-494h99l-12-71h-99l-23-150h-85zM143 221h247l66 420z" glyph-name="four" horiz-adv-x="617" unicode="&#x34;"/><glyph d="M258-9q-98 0-160 52.5t-66 149.5h84q8-132 143-132 82 0 129.5 53.5t47.5 145.5q0 64-36 102.5t-106 38.5q-93 0-166-69h-32l61 383h402l-12-75h-330l-34-214q58 45 140 45 91 0 147-57t56-150q0-117-75-195t-193-78z" glyph-name="five" horiz-adv-x="587" unicode="&#x35;"/><glyph d="M299-9q-116 0-177 63.5t-61 183.5q0 36 9 97l5 31q11 70 33.5 130t59 113 94.5 84 131 31q92 0 143.5-45.5t55.5-127.5h-82q-6 49-34 75.5t-88 26.5q-174 0-225-277 68 88 184 88 92 0 152-57.5t60-150.5q0-113-72.5-189t-187.5-76zM146 211q0-66 39-109t115-43 123 55 47 138q0 62-37.5 103t-110.5 41q-75 0-125.5-53.5t-50.5-131.5z" glyph-name="six" horiz-adv-x="619" unicode="&#x36;"/><glyph d="M88 0l357 645h-357l11 70h471l-2-12-389-703h-91z" glyph-name="seven" horiz-adv-x="525" unicode="&#x37;"/><glyph d="M287-9q-96 0-166.5 52t-70.5 143q0 77 44.5 131t120.5 76q-41 19-64.5 55t-23.5 79q0 86 67.5 141.5t164.5 55.5q82 0 144-49t62-129q0-118-133-162 52-21 82.5-65.5t30.5-99.5q0-106-74-167t-184-61zM139 197q0-61 43-98t110-37q74 0 119 41t45 115q0 60-41 96t-104 36q-76 0-124-40t-48-113zM214 530q0-47 36-79t94-32q57 0 95.5 30.5t38.5 92.5q0 49-35 81.5t-91 32.5q-59 0-98.5-32.5t-39.5-93.5z" glyph-name="eight" horiz-adv-x="607" unicode="&#x38;"/><glyph d="M260-8q-92 0-151.5 45.5t-66.5 138.5h85q9-62 43-87.5t97-25.5q82 0 137.5 68.5t77.5 204.5q-30-40-78.5-62t-105.5-22q-89 0-150 55.5t-61 151.5q0 115 75.5 190.5t192.5 75.5q110 0 168-63.5t59-179.5q0-52-8-100l-7-44q-56-346-307-346zM176 463q0-65 35-104t99-39q83 0 136 47.5t53 136.5q0 65-36.5 109t-110.5 44q-78 0-127-54.5t-49-139.5z" glyph-name="nine" horiz-adv-x="620" unicode="&#x39;"/><glyph d="M112-5q-26 0-45 18.5t-19 45.5 18.5 45.5 44.5 18.5q27 0 46-18.5t19-45.5-19-45.5-45-18.5zM160 292q-26 0-45 18.5t-19 45.5 18.5 45.5 44.5 18.5q27 0 46-18.5t19-45.5-19-45.5-45-18.5z" glyph-name="colon" horiz-adv-x="292" unicode="&#x3a;"/><glyph d="M26-123l-50 28 118 219 75-38zM168 292q-26 0-45 18.5t-19 45.5 18.5 45.5 44.5 18.5q27 0 46-18.5t19-45.5-19-45.5-45-18.5z" glyph-name="semicolon" horiz-adv-x="292" unicode="&#x3b;"/><glyph d="M410 95l-350 221 3 20 418 213-12-82-288-143 241-151z" glyph-name="less" horiz-adv-x="504" unicode="&#x3c;"/><glyph d="M29 196l11 72h404l-11-72h-404zM57 376l11 72h404l-11-72h-404z" glyph-name="equal" horiz-adv-x="484" unicode="&#x3d;"/><glyph d="M111 549l350-221-3-20-418-213 12 84 288 143-241 151z" glyph-name="greater" horiz-adv-x="504" unicode="&#x3e;"/><glyph d="M168 202l8 51q2 14 6 27.5t8 24 12 22 12.5 19 15.5 18.5 15.5 16 17.5 15 17 13.5 18 14 17 12.5q44 33 64 60.5t20 69.5-27.5 66-77.5 24q-54 0-92-34t-48-96h-79q12 94 75.5 147t152.5 52q89 0 135-45.5t46-112.5q0-35-9-62t-32-51-37.5-35.5-49.5-36.5q-32-23-49.5-38t-35-41-22.5-56l-7-44h-74zM188-5q-26 0-45 18.5t-19 45.5 18.5 45.5 44.5 18.5q27 0 46-18.5t19-45.5-19-45.5-45-18.5z" glyph-name="question" horiz-adv-x="489" unicode="&#x3f;"/><glyph d="M674 458l-39-252q-10-79 48-79 48 0 84 49t36 144q0 136-87 219t-239 83-251-101-99-259q0-69 21.5-130.5t62.5-109 106.5-75.5 146.5-28q79 0 133 19.5t103 61.5h77q-39-66-123-106.5t-190-40.5q-97 0-177 33.5t-131 90.5-78.5 129.5-27.5 153.5q0 181 125.5 304.5t301.5 123.5q177 0 287.5-104.5t110.5-261.5q0-67-18.5-118.5t-48.5-80-62-42.5-64-14q-103 0-117 86-49-93-147-93-73 0-116.5 45.5t-43.5 125.5q0 101 58.5 168t145.5 67q49 0 79-19.5t40-48.5l10 60h83zM434 124q52 0 92 48t40 123q0 51-26 78t-70 27q-55 0-91-46t-36-125q0-50 25.5-77.5t65.5-27.5z" glyph-name="at" horiz-adv-x="915" unicode="&#x40;"/><glyph d="M500 0l-37 206h-295l-102-206h-84l359 715h114l129-715h-84zM384 643l-182-368h248z" glyph-name="A" horiz-adv-x="650" unicode="&#x41;"/><glyph d="M48 0l113 715h204q102 0 156-40.5t53-126.5q0-134-135-176 121-30 122-156 0-99-68.5-157.5t-183.5-58.5h-261zM143 68h166q82 0 124.5 40.5t42.5 109.5q0 59-36 88t-117 29h-137zM196 403h132q161 0 161 141 0 53-30 78t-97 25h-127z" glyph-name="B" horiz-adv-x="622" unicode="&#x42;"/><glyph d="M386-9q-147 0-232.5 85t-85.5 228q0 178 107 300t273 122q112 0 185.5-61t80.5-173h-82q-26 165-188 165-131 0-208.5-100.5t-77.5-252.5q0-117 58-180t171-63q84 0 141 47t83 129h83q-28-113-111.5-179.5t-196.5-66.5z" glyph-name="C" horiz-adv-x="728" unicode="&#x43;"/><glyph d="M48 0l113 715h174q169 0 251-83t83-222q0-178-109-294t-303-116h-209zM146 71h108q154 0 240 89.5t86 248.5q0 109-60 172.5t-189 63.5h-94z" glyph-name="D" horiz-adv-x="698" unicode="&#x44;"/><glyph d="M48 0l113 715h413l-12-71h-326l-38-243h266l-11-71h-266l-41-259h348l-11-71h-435z" glyph-name="E" horiz-adv-x="572" unicode="&#x45;"/><glyph d="M48 0l113 715h418l-12-71h-331l-40-253h258l-11-71h-258l-50-320h-87z" glyph-name="F" horiz-adv-x="556" unicode="&#x46;"/><glyph d="M394-9q-152 0-238.5 90.5t-86.5 232.5q0 170 107 290t267 120q115 0 193.5-57.5t85.5-167.5h-86q-7 78-59.5 117t-135.5 39q-128 0-205-98t-77-243q0-117 61-185t176-68q103 0 162.5 61.5t76.5 166.5h-212l12 72h295q-32-370-336-370z" glyph-name="G" horiz-adv-x="770" unicode="&#x47;"/><glyph d="M48 0l113 715h87l-52-324h376l52 324h87l-113-715h-87l50 318h-376l-50-318h-87z" glyph-name="H" horiz-adv-x="730" unicode="&#x48;"/><glyph d="M53 0l113 715h87l-113-715h-87z" glyph-name="I" horiz-adv-x="279" unicode="&#x49;"/><glyph d="M113-9q-72 0-115 26l11 70q52-25 101-25 55 0 86 30.5t41 95.5l83 527h87l-85-535q-15-96-70.5-142.5t-138.5-46.5z" glyph-name="J" horiz-adv-x="420" unicode="&#x4a;"/><glyph d="M48 0l113 715h87l-54-340 363 340h101l-373-345 272-370h-97l-268 359-57-359h-87z" glyph-name="K" horiz-adv-x="616" unicode="&#x4b;"/><glyph d="M48 0l113 715h87l-102-644h327l-11-71h-414z" glyph-name="L" horiz-adv-x="535" unicode="&#x4c;"/><glyph d="M48 0l113 715h118l133-557 302 557h123l-113-715h-87l95 602-332-602h-27l-150 602-95-602h-80z" glyph-name="M" horiz-adv-x="856" unicode="&#x4d;"/><glyph d="M48 0l113 715h111l256-591 94 591h83l-113-715h-98l-266 613-97-613h-83z" glyph-name="N" horiz-adv-x="724" unicode="&#x4e;"/><glyph d="M773 402q0-176-109.5-293.5t-268.5-117.5q-147 0-237 90.5t-90 230.5q0 172 111 292t273 120q149 0 235-92.5t86-229.5zM683 402q0 109-61.5 180.5t-170.5 71.5q-131 0-212-99.5t-81-242.5q0-115 66-182.5t172-67.5q127 0 207 96.5t80 243.5z" glyph-name="O" horiz-adv-x="811" unicode="&#x4f;"/><glyph d="M48 0l113 715h199q101 0 160.5-47.5t59.5-138.5q0-122-78-180t-195-58h-126l-46-291h-87zM192 360h120q90 0 136 43.5t46 124.5q0 60-35 88.5t-108 28.5h-114z" glyph-name="P" horiz-adv-x="581" unicode="&#x50;"/><glyph d="M773 402q0-109-44.5-199t-121.5-145l80-98-60-49-89 109q-67-29-143-29-147 0-237 90.5t-90 230.5q0 172 111 292t273 120q149 0 235-92.5t86-229.5zM683 402q0 109-61.5 180.5t-170.5 71.5q-131 0-212-99.5t-81-242.5q0-115 66-182.5t172-67.5q53 0 95 16l-75 93 60 49 84-104q58 45 90.5 119.5t32.5 166.5z" glyph-name="Q" horiz-adv-x="811" unicode="&#x51;"/><glyph d="M48 0l113 715h211q98 0 158.5-47t59.5-135q0-93-57-148t-147-67l175-318h-94l-170 311h-113l-49-311h-87zM195 380h134q175 0 175 153 1 58-34 85t-103 27h-130z" glyph-name="R" horiz-adv-x="628" unicode="&#x52;"/><glyph d="M300-9q-128 0-196.5 66t-69.5 161h86q3-67 48.5-112t136.5-45q79-1 123.5 37.5t44.5 103.5q0 49-32.5 77t-121.5 54q-109 32-158.5 73.5t-49.5 119.5q0 83 66.5 140.5t173.5 57.5q105 0 167-51.5t64-145.5h-80q-12 127-159 127-74 0-111.5-34.5t-37.5-90.5q0-43 31.5-68.5t123.5-53.5q112-34 160.5-76.5t48.5-119.5q0-96-70.5-158t-187.5-62z" glyph-name="S" horiz-adv-x="627" unicode="&#x53;"/><glyph d="M194 0l101 644h-208l12 71h503l-12-71h-208l-101-644h-87z" glyph-name="T" horiz-adv-x="561" unicode="&#x54;"/><glyph d="M325-9q-137 0-199.5 74.5t-39.5 217.5l69 432h87l-69-433q-18-117 20.5-168t135.5-51q83 0 130.5 46.5t64.5 151.5l72 454h87l-74-466q-20-122-90-190t-194-68z" glyph-name="U" horiz-adv-x="696" unicode="&#x55;"/><glyph d="M222 0l-130 715h85l113-631 313 631h83l-360-715h-104z" glyph-name="V" horiz-adv-x="636" unicode="&#x56;"/><glyph d="M166 0l-73 715h87l54-583 253 583h56l78-585 235 585h83l-295-715h-81l-72 561-247-561h-78z" glyph-name="W" horiz-adv-x="890" unicode="&#x57;"/><glyph d="M-19 0l292 373-163 342h90l137-285 217 285h90l-274-355 172-360h-94l-144 303-233-303h-90z" glyph-name="X" horiz-adv-x="607" unicode="&#x58;"/><glyph d="M217 0l49 312-175 403h93l138-332 232 332h89l-291-410-48-305h-87z" glyph-name="Y" horiz-adv-x="592" unicode="&#x59;"/><glyph d="M-14 0l2 14 501 633h-365l11 68h489l-2-13-492-631h386l-11-71h-519z" glyph-name="Z" horiz-adv-x="595" unicode="&#x5a;"/><glyph d="M22-148l146 924h224l-10-66h-141l-125-792h141l-11-66h-224z" glyph-name="bracketleft" horiz-adv-x="356" unicode="&#x5b;"/><glyph d="M257-148l-147 924h74l147-924h-74z" glyph-name="backslash" horiz-adv-x="403" unicode="&#x5c;"/><glyph d="M-22-148l11 66h141l125 792h-141l10 66h224l-146-924h-224z" glyph-name="bracketright" horiz-adv-x="356" unicode="&#x5d;"/><glyph d="M66 408l213 307h85l121-307h-81l-93 236-160-236h-85z" glyph-name="asciicircum" horiz-adv-x="507" unicode="&#x5e;"/><glyph d="M-68-158l11 66h395l-11-66h-395z" glyph-name="underscore" horiz-adv-x="394" unicode="&#x5f;"/><glyph d="M233 613l-88 147h102l47-147h-61z" glyph-name="grave" horiz-adv-x="400" unicode="&#x60;"/><glyph d="M197-8q-79 0-124 40t-45 108q0 167 254 167h101l6 38q10 61-13 89.5t-85 28.5q-105 0-125-94h-83q11 59 47 97t77 52 87 14q94 0 143.5-47t33.5-147l-29-182q-16-97-9-156h-78q-5 42-1 83-56-91-157-91zM208 57q61 0 103.5 34t52.5 100l9 57h-89q-90 0-132-24.5t-42-83.5q0-37 25-60t73-23z" glyph-name="a" horiz-adv-x="538" unicode="&#x61;"/><glyph d="M325-9q-73 0-118.5 31t-65.5 76l-16-98h-83l122 773h83l-54-342q27 45 76.5 73t106.5 28q93 0 151.5-63t58.5-167q0-131-71-221t-190-90zM320 59q83 0 130.5 66.5t47.5 171.5q0 80-37 123.5t-101 43.5q-87 0-144-66t-57-176q0-76 43.5-119.5t117.5-43.5z" glyph-name="b" horiz-adv-x="627" unicode="&#x62;"/><glyph d="M283-8q-115 0-179.5 65.5t-64.5 172.5q0 139 79.5 220t191.5 81q91 0 149-46.5t63-137.5h-79q-7 64-42 89.5t-95 25.5q-81 0-131.5-61t-50.5-171q0-83 40.5-126.5t120.5-43.5q57 0 99 33.5t52 92.5h78q-16-91-79-142.5t-152-51.5z" glyph-name="c" horiz-adv-x="554" unicode="&#x63;"/><glyph d="M261-9q-98 0-159.5 63t-61.5 168q0 130 74.5 220t196.5 90q125 0 175-104l54 345h83l-97-617q-14-91-11-156h-79q-3 43 4 95-28-48-75.5-76t-103.5-28zM271 60q87 0 141.5 63t54.5 180q0 73-42.5 116.5t-110.5 43.5q-87 0-136.5-66t-49.5-171q0-78 38-122t105-44z" glyph-name="d" horiz-adv-x="622" unicode="&#x64;"/><glyph d="M123 211q0-151 144-151 114 0 144 91h83q-23-78-85-119t-145-41q-105 0-165.5 62t-60.5 162q0 138 78 227t195 89q111 0 167-68.5t36-198.5l-3-19h-387q-1-11-1-34zM306 463q-60 0-107-37.5t-65-113.5h303q6 78-26.5 114.5t-104.5 36.5z" glyph-name="e" horiz-adv-x="553" unicode="&#x65;"/><glyph d="M51 453l11 70h75l16 102q12 73 57 112t113 39q43 0 69-13l-10-66q-23 10-55 10-77 0-91-84l-16-100h128l-11-70h-128l-72-453h-83l72 453h-75z" glyph-name="f" horiz-adv-x="336" unicode="&#x66;"/><glyph d="M272 86q81 0 138 61.5t57 163.5q0 70-43.5 111t-111.5 41q-81 0-130.5-63.5t-49.5-153.5q0-73 36.5-116.5t103.5-43.5zM584 523l-78-497q-17-107-83.5-161.5t-176.5-54.5q-115 0-169.5 46.5t-63.5 113.5h84q17-90 147-90 82 0 124 38t55 116l12 73q-61-88-172-88-96 0-157 62t-61 161q0 120 75.5 205t188.5 85q127 0 177-104l15 95h83z" glyph-name="g" horiz-adv-x="623" unicode="&#x67;"/><glyph d="M42 0l122 773h83l-54-343q26 43 71.5 72.5t104.5 29.5q87 0 128.5-53t23.5-166l-50-313h-83l53 332q21 129-90 129-67 0-116.5-42t-61.5-115l-48-304h-83z" glyph-name="h" horiz-adv-x="592" unicode="&#x68;"/><glyph d="M192 632q-23 0-39 16t-16 38 16.5 39 39.5 17 38.5-16 15.5-38q0-23-16.5-39.5t-38.5-16.5zM44 0l83 523h83l-83-523h-83z" glyph-name="i" horiz-adv-x="255" unicode="&#x69;"/><glyph d="M-63-190l11 69q43 2 63.5 21.5t26.5 58.5l89 564h83l-90-569q-22-144-183-144zM192 632q-23 0-39 16t-16 38 16.5 39 39.5 17 38.5-16 15.5-38q0-23-16.5-39.5t-38.5-16.5z" glyph-name="j" horiz-adv-x="255" unicode="&#x6a;"/><glyph d="M42 0l122 773h83l-76-481 249 231h103l-264-240 195-283h-95l-190 279-44-279h-83z" glyph-name="k" horiz-adv-x="511" unicode="&#x6b;"/><glyph d="M44 0l122 773h84l-122-773h-84z" glyph-name="l" horiz-adv-x="256" unicode="&#x6c;"/><glyph d="M42 0l58 367q12 79 14 156h78q0-55-5-99 28 50 71.5 79t94.5 29q122 0 143-114 32 58 81.5 86t99.5 28q82 0 124.5-53t24.5-168l-49-311h-83l51 324q11 71-10 104t-76 33q-56 0-101.5-39t-57.5-112l-49-310h-83l52 330q21 131-87 131-56 0-102-40t-57-111l-49-310h-83z" glyph-name="m" horiz-adv-x="897" unicode="&#x6d;"/><glyph d="M42 0l58 367q12 79 14 156h78q0-51-6-104 65 113 183 113 87 0 128.5-53t23.5-166l-50-313h-83l53 332q21 129-90 129-67 0-116.5-42t-61.5-115l-48-304h-83z" glyph-name="n" horiz-adv-x="592" unicode="&#x6e;"/><glyph d="M271-8q-107 0-170 65t-63 167q0 131 80 219t198 88q107 0 170.5-63.5t63.5-166.5q0-134-78.5-221.5t-200.5-87.5zM275 60q87 0 137.5 67t50.5 172q0 76-39 120t-113 44q-83 0-135-68t-52-171q0-76 38-120t113-44z" glyph-name="o" horiz-adv-x="589" unicode="&#x6f;"/><glyph d="M376 532q93 0 151.5-63t58.5-167q0-131-71-221t-190-90q-73 0-118.5 31t-65.5 76l-45-280h-83l87 549q12 79 14 156h78q0-53-6-102 28 50 80 80.5t110 30.5zM320 59q83 0 130.5 66.5t47.5 171.5q0 80-37 123.5t-101 43.5q-87 0-144-66t-57-176q0-76 43.5-119.5t117.5-43.5z" glyph-name="p" horiz-adv-x="627" unicode="&#x70;"/><glyph d="M389-182l42 263q-63-90-170-90-98 0-159.5 63t-61.5 168q0 130 74.5 220t196.5 90q125 0 175-104l15 95h83l-112-705h-83zM271 60q87 0 141.5 63t54.5 180q0 73-42.5 116.5t-110.5 43.5q-87 0-136.5-66t-49.5-171q0-78 38-122t105-44z" glyph-name="q" horiz-adv-x="627" unicode="&#x71;"/><glyph d="M42 0l58 367q12 79 14 156h78q0-47-6-107 37 58 79 86.5t114 29.5l-12-78q-84-4-134-45.5t-65-136.5l-43-272h-83z" glyph-name="r" horiz-adv-x="374" unicode="&#x72;"/><glyph d="M229-9q-99 0-150.5 48.5t-53.5 121.5h81q7-101 126-101 107 0 107 86 0 33-23 51.5t-83 33.5q-87 22-123 55.5t-36 93.5q0 71 53.5 111.5t128.5 40.5q81 0 131-37.5t54-113.5h-78q-2 38-31.5 60t-77.5 22q-49 0-75.5-20.5t-26.5-57.5q0-30 22.5-47.5t83.5-32.5q85-21 123.5-54t38.5-101q0-72-52-115.5t-139-43.5z" glyph-name="s" horiz-adv-x="480" unicode="&#x73;"/><glyph d="M204-7q-74 0-105.5 41.5t-21.5 108.5l49 310h-75l11 70h75l19 119h83l-19-119h119l-11-70h-119l-50-313q-7-42 7.5-59.5t50.5-17.5q32 0 62 11l-11-69q-27-12-64-12z" glyph-name="t" horiz-adv-x="343" unicode="&#x74;"/><glyph d="M545 523l-58-367q-14-91-11-156h-79q-3 47 5 104-66-113-182-113-85 0-126 54.5t-24 164.5l50 313h83l-53-332q-20-129 88-129 67 0 115.5 42t60.5 115l48 304h83z" glyph-name="u" horiz-adv-x="588" unicode="&#x75;"/><glyph d="M163 0l-103 523h88l81-443 219 443h88l-267-523h-106z" glyph-name="v" horiz-adv-x="514" unicode="&#x76;"/><glyph d="M135 0l-71 523h88l48-426 192 426h72l50-426 184 426h87l-240-523h-92l-45 397-182-397h-91z" glyph-name="w" horiz-adv-x="767" unicode="&#x77;"/><glyph d="M-29 0l227 276-133 247h93l98-187 153 187h93l-209-256 144-267h-94l-107 209-172-209h-93z" glyph-name="x" horiz-adv-x="492" unicode="&#x78;"/><glyph d="M44-182l140 241-124 464h85l94-375 199 375h89l-395-705h-88z" glyph-name="y" horiz-adv-x="505" unicode="&#x79;"/><glyph d="M-21 0l2 12 366 441h-269l11 70h399l-3-15-357-435h288l-12-73h-425z" glyph-name="z" horiz-adv-x="475" unicode="&#x7a;"/><glyph d="M271-147q-112 6-154 63t-6 160l33 91q19 54-3.5 87t-95.5 35l8 61q75-1 106.5 27.5t29.5 89.5l-3 106q-3 113 54 160.5t178 45.5l-10-62q-83-1-114-32.5t-30-116.5l2-101q1-123-118-152 54-15 72-55.5t-4-106.5l-29-81q-27-83-5.5-117t99.5-39z" glyph-name="braceleft" horiz-adv-x="381" unicode="&#x7b;"/><glyph d="M108-148v924h67v-924h-67z" glyph-name="bar" horiz-adv-x="253" unicode="&#x7c;"/><glyph d="M125 779q112-6 154-63t6-160l-33-93q-19-52 3.5-87t95.5-41l-8-61q-75 6-106.5-20.5t-29.5-88.5l3-106q3-113-54-160.5t-178-45.5l10 62q83 1 114 32.5t30 116.5l-2 107q-1 123 118 142-53 17-72 59t1 100l32 88q27 83 5.5 117t-99.5 39z" glyph-name="braceright" horiz-adv-x="381" unicode="&#x7d;"/><glyph d="M40 223q12 63 42.5 95.5t70.5 32.5q37 0 82-25.5t57-25.5q17 0 32.5 14t19.5 39h66q-11-63-42.5-95.5t-69.5-32.5q-39 0-84.5 25.5t-56.5 25.5q-17 0-31-14t-20-39h-66z" glyph-name="asciitilde" horiz-adv-x="445" unicode="&#x7e;"/><glyph glyph-name="uni00A0" horiz-adv-x="265" unicode="&#xa0;"/><glyph d="M197 396l-68-513h-92l96 513h64zM185 603q26 0 45-18.5t19-45.5-18.5-45.5-44.5-18.5q-27 0-46 18.5t-19 45.5 19 45.5 45 18.5z" glyph-name="exclamdown" horiz-adv-x="288" unicode="&#xa1;"/><glyph d="M287-8h-7l-20-127h-59l21 133q-87 17-135 78t-48 152q0 136 78.5 217.5t188.5 85.5l16 98h59l-16-102q71-12 115.5-57t49.5-123h-79q-8 94-97 111l-63-398q55 0 97 30.5t55 95.5h78q-16-96-81-145t-153-49zM124 228q0-136 109-162l62 395q-75-6-123-67.5t-48-165.5z" glyph-name="cent" horiz-adv-x="562" unicode="&#xa2;"/><glyph d="M57 315l10 62h70q-4 40-4 94 0 110 62 181.5t179 71.5q93 0 147-48t55-141h-85q-3 56-31 87t-90 31q-80 0-115.5-50.5t-35.5-132.5q0-33 2-93h211l-10-62h-197q1-21 1-69 0-81-30-131 22-6 84.5-28.5t87.5-22.5q81 0 94 86h74q-11-74-53.5-116.5t-117.5-42.5q-45 0-122 31.5t-102 31.5q-54 0-66-54h-72q7 41 37.5 78t77.5 44q28 47 28 116 0 21-4 77h-85z" glyph-name="sterling" horiz-adv-x="596" unicode="&#xa3;"/><glyph d="M85 281l9 58h156l-151 376h91l123-324 219 324h87l-260-376h156l-9-58h-168l-12-78h167l-9-58h-167l-23-145h-85l23 145h-169l9 58h169l12 78h-168z" glyph-name="yen" horiz-adv-x="576" unicode="&#xa5;"/><glyph d="M108-148v445h67v-445h-67zM108 367v409h67v-409h-67z" glyph-name="brokenbar" horiz-adv-x="253" unicode="&#xa6;"/><glyph d="M217-137q-79 0-132.5 42t-49.5 121h84q2-93 105-93 46 0 76.5 26t30.5 71q0 34-27 57.5t-101 50.5q-79 29-118.5 66t-39.5 98q0 57 38 93.5t98 50.5q-42 40-42 106 0 77 57.5 124.5t140.5 47.5q76 0 122-39t48-118h-85q-1 87-93 87-48 0-78-23.5t-30-73.5q0-34 25-57t92-47q81-29 122.5-67t41.5-103q0-103-133-140 45-40 45-106 0-81-56-127.5t-141-46.5zM313 180q105 21 105 97 0 63-104 101l-82 30q-41-6-72-31t-31-68q0-32 24-54.5t76-42.5z" glyph-name="section" horiz-adv-x="539" unicode="&#xa7;"/><glyph d="M172 634q-22 0-37.5 15t-15.5 37 16 38 38 16 37-15 15-37-15.5-38-37.5-16zM360 634q-22 0-37.5 15t-15.5 37 16 38 38 16 37-15 15-37-15.5-38-37.5-16z" glyph-name="dieresis" horiz-adv-x="400" unicode="&#xa8;"/><glyph d="M434 155q-90 0-141 53.5t-51 144.5v8q0 89 54 144t138 55q70 0 116.5-35.5t52.5-102.5h-76q-12 78-93 78-52 0-82.5-37t-30.5-102v-7q0-66 29.5-102t83.5-36q89 0 101 83h72q-7-70-53.5-107t-119.5-37zM432 33q131 0 225.5 92.5t94.5 233.5q0 140-93 231.5t-225 91.5q-134 0-227-92t-93-233 94.5-232.5 223.5-91.5zM432-9q-153 0-259.5 105.5t-106.5 260.5q0 153 107 260t261 107q155 0 260.5-106t105.5-259q0-156-106.5-262t-261.5-106z" glyph-name="copyright" horiz-adv-x="844" unicode="&#xa9;"/><glyph d="M184 290q-61 0-96 31.5t-35 84.5q0 139 210 139h73l4 26q7 46-10 68t-64 22q-76 0-91-68h-78q14 68 63 99.5t110 31.5q79 0 119.5-39t27.5-120l-22-140q-12-74-6-127h-75q-4 26-2 55-45-63-128-63zM201 350q104 0 120 97l7 44h-68q-66 0-97.5-19t-31.5-62q0-27 18-43.5t52-16.5z" glyph-name="ordfeminine" horiz-adv-x="419" unicode="&#xaa;"/><glyph d="M160 83l-102 179 158 177h85l-156-181 95-175h-80zM338 83l-102 179 158 177h85l-156-181 95-175h-80z" glyph-name="guillemotleft" horiz-adv-x="500" unicode="&#xab;"/><glyph d="M215 396v219h77q84 0 84-66v-1q0-45-45-59l58-93h-50l-53 85h-23v-85h-48zM263 514h28q38 0 38 32v1q0 31-38 31h-28v-64zM291 318q78 0 130 52t52 133q0 82-51 133.5t-131 51.5-131-52-51-134q0-81 52-132.5t130-51.5zM291 282q-93 0-157.5 63.5t-64.5 156.5q0 92 64.5 157t157.5 65q94 0 158-64t64-157-64.5-157-157.5-64z" glyph-name="registered" horiz-adv-x="514" unicode="&#xae;"/><glyph d="M129 648l10 64h262l-10-64h-262z" glyph-name="macron" horiz-adv-x="400" unicode="&#xaf;"/><glyph d="M257 464q40 0 65.5 28.5t25.5 75.5q0 42-24.5 70t-62.5 28q-41 0-68-29t-27-76q0-41 26-69t65-28zM255 406q-67 0-113.5 44.5t-46.5 108.5q0 70 48 117.5t120 47.5q67 0 113-45t46-110q0-68-48-115.5t-119-47.5z" glyph-name="degree" horiz-adv-x="427" unicode="&#xb0;"/><glyph d="M203 145l29 182h-187l11 70h187l29 182h73l-29-182h187l-11-70h-187l-29-182h-73zM-6 0l11 70h447l-11-70h-447z" glyph-name="plusminus" horiz-adv-x="519" unicode="&#xb1;"/><glyph d="M24 373l2 12 148 131q73 66 72 106-1 22-13.5 33.5t-32.5 11.5q-52 0-67-66h-62q9 55 45.5 86.5t87.5 31.5q46 0 76.5-22t32.5-71q1-34-22.5-66.5t-73.5-75.5l-69-60h136l-8-51h-252z" glyph-name="twosuperior" horiz-adv-x="286" unicode="&#xb2;"/><glyph d="M183 368q-56 0-92 26.5t-37 84.5h63q2-28 18-44.5t47-16.5q27 0 46.5 15t19.5 44q0 49-55 49h-24l7 47h27q28 0 44 13t16 37q0 46-49 46-55 0-68-55h-60q6 48 42.5 76.5t87.5 28.5q49 0 80.5-22t31.5-68q0-28-18-49t-49-31q56-13 56-75 0-49-39.5-77.5t-94.5-28.5z" glyph-name="threesuperior" horiz-adv-x="311" unicode="&#xb3;"/><glyph d="M214 613l79 147h108l-121-147h-66z" glyph-name="acute" horiz-adv-x="400" unicode="&#xb4;"/><glyph d="M218-100l70 446h-3q-92 0-146 42.5t-54 120.5q0 98 67 152t169 54h244l-129-815h-69l120 758h-81l-120-758h-68z" glyph-name="paragraph" horiz-adv-x="588" unicode="&#xb6;"/><glyph d="M150 263q-26 0-45 18.5t-19 45.5 18.5 45.5 44.5 18.5q27 0 46-18.5t19-45.5-19-45.5-45-18.5z" glyph-name="periodcentered" horiz-adv-x="282" unicode="&#xb7;"/><glyph d="M143-214q-41 0-68 21.5t-31 62.5h56q4-36 42-36 40 0 40 38 0 15-10 23.5t-25 8.5q-14 0-26-8l-27 30 57 74h53l-40-53q32 3 56.5-16.5t24.5-55.5q0-43-27.5-66t-74.5-23z" glyph-name="cedilla" horiz-adv-x="400" unicode="&#xb8;"/><glyph d="M122 373l43 274-89-54 9 61 99 61h60l-54-342h-68z" glyph-name="onesuperior" horiz-adv-x="231" unicode="&#xb9;"/><glyph d="M264 290q-87 0-138 51.5t-51 134.5q0 106 65.5 177t161.5 71q87 0 138-51.5t51-134.5q0-108-64-178t-163-70zM268 354q66 0 104 51.5t38 131.5q0 57-29 90t-84 33q-64 0-102.5-52t-38.5-132q0-58 28-90t84-32z" glyph-name="ordmasculine" horiz-adv-x="493" unicode="&#xba;"/><glyph d="M338 439l102-179-158-177h-85l156 181-95 175h80zM160 439l102-179-158-177h-85l156 181-95 175h80z" glyph-name="guillemotright" horiz-adv-x="500" unicode="&#xbb;"/><glyph d="M125 373l43 274-89-54 9 61 99 61h60l-54-342h-68zM20 0l597 715h69l-597-715h-69zM510 0l11 69h-172l4 24 192 249h84l-36-224h46l-8-49h-45l-11-69h-65zM431 118h99l26 169z" glyph-name="onequarter" horiz-adv-x="684" unicode="&#xbc;"/><glyph d="M125 373l43 274-89-54 9 61 99 61h60l-54-342h-68zM7 0l597 715h69l-597-715h-69zM373 0l2 12 148 131q40 35 56 57t16 49q0 22-13 33.5t-33 11.5q-52 0-67-66h-62q9 55 45.5 86.5t87.5 31.5q46 0 77.5-24t31.5-72q0-36-21-63t-77-76l-69-60h138l-8-51h-252z" glyph-name="onehalf" horiz-adv-x="697" unicode="&#xbd;"/><glyph d="M186 368q-56 0-92 26.5t-37 84.5h63q2-28 18-44.5t47-16.5q27 0 46.5 15t19.5 44q0 49-55 49h-24l7 47h27q28 0 44 13t16 37q0 46-49 46-55 0-68-55h-60q6 48 42.5 76.5t87.5 28.5q49 0 80.5-22t31.5-68q0-28-18-49t-49-31q56-13 56-75 0-49-39.5-77.5t-94.5-28.5zM60 0l597 715h69l-597-715h-69zM536 0l11 69h-172l4 24 192 249h84l-36-224h46l-8-49h-45l-11-69h-65zM457 118h99l26 169z" glyph-name="threequarters" horiz-adv-x="710" unicode="&#xbe;"/><glyph d="M328 396l-8-51q-2-14-6-27.5t-8-24-12-22-12.5-19-15.5-18.5-15.5-16-17.5-15-17-13.5-18-14-17-12.5q-44-33-64-60.5t-20-69.5 27.5-66 77.5-24q54 0 92 34t48 96h79q-12-94-75.5-147t-152.5-52q-89 0-135 45.5t-46 112.5q0 35 9 62t32 51 37.5 35.5 49.5 36.5q32 23 49.5 38t35 41 22.5 56l7 44h74zM308 603q26 0 45-18.5t19-45.5-18.5-45.5-44.5-18.5q-27 0-46 18.5t-19 45.5 19 45.5 45 18.5z" glyph-name="questiondown" horiz-adv-x="489" unicode="&#xbf;"/><glyph d="M500 0l-37 206h-295l-102-206h-84l359 715h114l129-715h-84zM384 643l-182-368h248zM379 771l-80 127h101l39-127h-60z" glyph-name="Agrave" horiz-adv-x="650" unicode="&#xc0;"/><glyph d="M500 0l-37 206h-295l-102-206h-84l359 715h114l129-715h-84zM384 643l-182-368h248zM364 771l68 127h106l-108-127h-66z" glyph-name="Aacute" horiz-adv-x="650" unicode="&#xc1;"/><glyph d="M500 0l-37 206h-295l-102-206h-84l359 715h114l129-715h-84zM384 643l-182-368h248zM251 771l124 127h75l91-127h-58l-77 58-93-58h-62z" glyph-name="Acircumflex" horiz-adv-x="650" unicode="&#xc2;"/><glyph d="M500 0l-37 206h-295l-102-206h-84l359 715h114l129-715h-84zM384 643l-182-368h248zM465 774q-26 0-62.5 21.5t-48.5 21.5q-15 0-28-12.5t-18-32.5h-60q10 54 39 85t68 31q25 0 61.5-21.5t48.5-21.5q15 0 27.5 12t17.5 33h60q-10-54-38.5-85t-66.5-31z" glyph-name="Atilde" horiz-adv-x="650" unicode="&#xc3;"/><glyph d="M500 0l-37 206h-295l-102-206h-84l359 715h114l129-715h-84zM384 643l-182-368h248zM305 789q-22 0-37.5 15t-15.5 37 16 38 38 16 37-15 15-37-15.5-38-37.5-16zM508 789q-22 0-37.5 15t-15.5 37 16 38 38 16 37-15 15-37-15.5-38-37.5-16z" glyph-name="Adieresis" horiz-adv-x="650" unicode="&#xc4;"/><glyph d="M500 0l-37 206h-295l-102-206h-84l359 715h114l129-715h-84zM384 643l-182-368h248zM405 759q-44 0-74.5 29.5t-30.5 72.5q0 44 32 75t77 31q44 0 74.5-29.5t30.5-72.5q0-44-32-75t-77-31zM405 805q23 0 39 17t16 43q0 25-14 40.5t-37 15.5-39-17-16-43q0-25 14-40.5t37-15.5z" glyph-name="Aring" horiz-adv-x="650" unicode="&#xc5;"/><glyph d="M-13 0l466 715h505l-12-71h-326l-38-243h266l-11-71h-266l-41-259h348l-11-71h-435l32 207h-253l-133-207h-91zM493 644l-238-369h220l58 369h-40z" glyph-name="AE" horiz-adv-x="950" unicode="&#xc6;"/><glyph d="M302-214q-41 0-68 21.5t-31 62.5h56q4-36 42-36 40 0 40 38 0 15-10 23.5t-25 8.5q-14 0-26-8l-27 30 55 72q-113 21-176.5 102t-63.5 204q0 178 107 300t273 122q112 0 185.5-61t80.5-173h-82q-26 165-188 165-131 0-208.5-100.5t-77.5-252.5q0-117 58-180t171-63q84 0 141 47t83 129h83q-28-113-111.5-179.5t-196.5-66.5q-15 0-29 1l-34-45q32 3 56.5-16.5t24.5-55.5q0-43-27.5-66t-74.5-23z" glyph-name="Ccedilla" horiz-adv-x="728" unicode="&#xc7;"/><glyph d="M48 0l113 715h413l-12-71h-326l-38-243h266l-11-71h-266l-41-259h348l-11-71h-435zM361 771l-80 127h101l39-127h-60z" glyph-name="Egrave" horiz-adv-x="572" unicode="&#xc8;"/><glyph d="M48 0l113 715h413l-12-71h-326l-38-243h266l-11-71h-266l-41-259h348l-11-71h-435zM333 771l68 127h106l-108-127h-66z" glyph-name="Eacute" horiz-adv-x="572" unicode="&#xc9;"/><glyph d="M48 0l113 715h413l-12-71h-326l-38-243h266l-11-71h-266l-41-259h348l-11-71h-435zM222 771l124 127h75l91-127h-58l-77 58-93-58h-62z" glyph-name="Ecircumflex" horiz-adv-x="572" unicode="&#xca;"/><glyph d="M48 0l113 715h413l-12-71h-326l-38-243h266l-11-71h-266l-41-259h348l-11-71h-435zM278 789q-22 0-37.5 15t-15.5 37 16 38 38 16 37-15 15-37-15.5-38-37.5-16zM481 789q-22 0-37.5 15t-15.5 37 16 38 38 16 37-15 15-37-15.5-38-37.5-16z" glyph-name="Edieresis" horiz-adv-x="572" unicode="&#xcb;"/><glyph d="M53 0l113 715h87l-113-715h-87zM194 771l-80 127h101l39-127h-60z" glyph-name="Igrave" horiz-adv-x="279" unicode="&#xcc;"/><glyph d="M53 0l113 715h87l-113-715h-87zM179 771l68 127h106l-108-127h-66z" glyph-name="Iacute" horiz-adv-x="279" unicode="&#xcd;"/><glyph d="M53 0l113 715h87l-113-715h-87zM68 771l124 127h75l91-127h-58l-77 58-93-58h-62z" glyph-name="Icircumflex" horiz-adv-x="279" unicode="&#xce;"/><glyph d="M53 0l113 715h87l-113-715h-87zM127 789q-22 0-37.5 15t-15.5 37 16 38 38 16 37-15 15-37-15.5-38-37.5-16zM330 789q-22 0-37.5 15t-15.5 37 16 38 38 16 37-15 15-37-15.5-38-37.5-16z" glyph-name="Idieresis" horiz-adv-x="279" unicode="&#xcf;"/><glyph d="M43 325l11 67h76l51 323h174q169 0 251-83t83-222q0-178-109-294t-303-116h-209l51 325h-76zM166 71h108q154 0 240 89.5t86 248.5q0 109-60 172.5t-189 63.5h-94l-40-253h207l-11-67h-207z" glyph-name="Eth" horiz-adv-x="718" unicode="&#xd0;"/><glyph d="M48 0l113 715h111l256-591 94 591h83l-113-715h-98l-266 613-97-613h-83zM514 774q-26 0-62.5 21.5t-48.5 21.5q-15 0-28-12.5t-18-32.5h-60q10 54 39 85t68 31q25 0 61.5-21.5t48.5-21.5q15 0 27.5 12t17.5 33h60q-10-54-38.5-85t-66.5-31z" glyph-name="Ntilde" horiz-adv-x="724" unicode="&#xd1;"/><glyph d="M773 402q0-176-109.5-293.5t-268.5-117.5q-147 0-237 90.5t-90 230.5q0 172 111 292t273 120q149 0 235-92.5t86-229.5zM683 402q0 109-61.5 180.5t-170.5 71.5q-131 0-212-99.5t-81-242.5q0-115 66-182.5t172-67.5q127 0 207 96.5t80 243.5zM446 771l-80 127h101l39-127h-60z" glyph-name="Ograve" horiz-adv-x="811" unicode="&#xd2;"/><glyph d="M773 402q0-176-109.5-293.5t-268.5-117.5q-147 0-237 90.5t-90 230.5q0 172 111 292t273 120q149 0 235-92.5t86-229.5zM683 402q0 109-61.5 180.5t-170.5 71.5q-131 0-212-99.5t-81-242.5q0-115 66-182.5t172-67.5q127 0 207 96.5t80 243.5zM434 771l68 127h106l-108-127h-66z" glyph-name="Oacute" horiz-adv-x="811" unicode="&#xd3;"/><glyph d="M773 402q0-176-109.5-293.5t-268.5-117.5q-147 0-237 90.5t-90 230.5q0 172 111 292t273 120q149 0 235-92.5t86-229.5zM683 402q0 109-61.5 180.5t-170.5 71.5q-131 0-212-99.5t-81-242.5q0-115 66-182.5t172-67.5q127 0 207 96.5t80 243.5zM330 771l124 127h75l91-127h-58l-77 58-93-58h-62z" glyph-name="Ocircumflex" horiz-adv-x="811" unicode="&#xd4;"/><glyph d="M773 402q0-176-109.5-293.5t-268.5-117.5q-147 0-237 90.5t-90 230.5q0 172 111 292t273 120q149 0 235-92.5t86-229.5zM683 402q0 109-61.5 180.5t-170.5 71.5q-131 0-212-99.5t-81-242.5q0-115 66-182.5t172-67.5q127 0 207 96.5t80 243.5zM535 774q-26 0-62.5 21.5t-48.5 21.5q-15 0-28-12.5t-18-32.5h-60q10 54 39 85t68 31q25 0 61.5-21.5t48.5-21.5q15 0 27.5 12t17.5 33h60q-10-54-38.5-85t-66.5-31z" glyph-name="Otilde" horiz-adv-x="811" unicode="&#xd5;"/><glyph d="M773 402q0-176-109.5-293.5t-268.5-117.5q-147 0-237 90.5t-90 230.5q0 172 111 292t273 120q149 0 235-92.5t86-229.5zM683 402q0 109-61.5 180.5t-170.5 71.5q-131 0-212-99.5t-81-242.5q0-115 66-182.5t172-67.5q127 0 207 96.5t80 243.5zM378 789q-22 0-37.5 15t-15.5 37 16 38 38 16 37-15 15-37-15.5-38-37.5-16zM581 789q-22 0-37.5 15t-15.5 37 16 38 38 16 37-15 15-37-15.5-38-37.5-16z" glyph-name="Odieresis" horiz-adv-x="811" unicode="&#xd6;"/><glyph d="M67 131l-43 50 172 154-132 153 50 47 134-154 172 154 45-50-174-155 134-153-52-46-133 153z" glyph-name="multiply" horiz-adv-x="469" unicode="&#xd7;"/><glyph d="M73-33l-43 45 100 102q-62 84-62 198 0 172 111 292t273 120q123 0 207-68l84 86 43-45-83-84q70-87 70-211 0-176-109.5-293.5t-268.5-117.5q-135 0-223 77zM683 402q0 89-38 151l-419-429q64-62 170-62 127 0 207 96.5t80 243.5zM158 312q0-81 31-138l417 427q-61 53-155 53-131 0-212-99.5t-81-242.5z" glyph-name="Oslash" horiz-adv-x="811" unicode="&#xd8;"/><glyph d="M325-9q-137 0-199.5 74.5t-39.5 217.5l69 432h87l-69-433q-18-117 20.5-168t135.5-51q83 0 130.5 46.5t64.5 151.5l72 454h87l-74-466q-20-122-90-190t-194-68zM398 771l-80 127h101l39-127h-60z" glyph-name="Ugrave" horiz-adv-x="696" unicode="&#xd9;"/><glyph d="M325-9q-137 0-199.5 74.5t-39.5 217.5l69 432h87l-69-433q-18-117 20.5-168t135.5-51q83 0 130.5 46.5t64.5 151.5l72 454h87l-74-466q-20-122-90-190t-194-68zM383 771l68 127h106l-108-127h-66z" glyph-name="Uacute" horiz-adv-x="696" unicode="&#xda;"/><glyph d="M325-9q-137 0-199.5 74.5t-39.5 217.5l69 432h87l-69-433q-18-117 20.5-168t135.5-51q83 0 130.5 46.5t64.5 151.5l72 454h87l-74-466q-20-122-90-190t-194-68zM272 771l124 127h75l91-127h-58l-77 58-93-58h-62z" glyph-name="Ucircumflex" horiz-adv-x="696" unicode="&#xdb;"/><glyph d="M325-9q-137 0-199.5 74.5t-39.5 217.5l69 432h87l-69-433q-18-117 20.5-168t135.5-51q83 0 130.5 46.5t64.5 151.5l72 454h87l-74-466q-20-122-90-190t-194-68zM331 789q-22 0-37.5 15t-15.5 37 16 38 38 16 37-15 15-37-15.5-38-37.5-16zM534 789q-22 0-37.5 15t-15.5 37 16 38 38 16 37-15 15-37-15.5-38-37.5-16z" glyph-name="Udieresis" horiz-adv-x="696" unicode="&#xdc;"/><glyph d="M217 0l49 312-175 403h93l138-332 232 332h89l-291-410-48-305h-87zM333 771l68 127h106l-108-127h-66z" glyph-name="Yacute" horiz-adv-x="592" unicode="&#xdd;"/><glyph d="M248 715l-21-134h114q100 0 160.5-47t59.5-135q0-81-40-135.5t-98.5-76.5-129.5-22h-132l-26-165h-87l113 715h87zM332 511h-116l-44-277h126q86 0 131.5 42.5t45.5 121.5q1 58-34.5 85.5t-108.5 27.5z" glyph-name="Thorn" horiz-adv-x="581" unicode="&#xde;"/><glyph d="M315-9q-64 0-112 25l11 67q46-24 97-24 69 0 107 47.5t38 122.5q0 77-45.5 120.5t-126.5 43.5l12 70q74 0 122 33.5t48 105.5q0 51-30.5 78.5t-84.5 27.5q-55 0-90-35.5t-45-97.5l-91-575h-83l91 580q14 90 75 142.5t145 52.5q79 0 135.5-46t56.5-128q0-64-39-109.5t-106-65.5q67-22 104.5-75t37.5-126q0-107-61.5-170.5t-165.5-63.5z" glyph-name="germandbls" horiz-adv-x="593" unicode="&#xdf;"/><glyph d="M197-8q-79 0-124 40t-45 108q0 167 254 167h101l6 38q10 61-13 89.5t-85 28.5q-105 0-125-94h-83q11 59 47 97t77 52 87 14q94 0 143.5-47t33.5-147l-29-182q-16-97-9-156h-78q-5 42-1 83-56-91-157-91zM208 57q61 0 103.5 34t52.5 100l9 57h-89q-90 0-132-24.5t-42-83.5q0-37 25-60t73-23zM282 613l-88 147h102l47-147h-61z" glyph-name="agrave" horiz-adv-x="538" unicode="&#xe0;"/><glyph d="M197-8q-79 0-124 40t-45 108q0 167 254 167h101l6 38q10 61-13 89.5t-85 28.5q-105 0-125-94h-83q11 59 47 97t77 52 87 14q94 0 143.5-47t33.5-147l-29-182q-16-97-9-156h-78q-5 42-1 83-56-91-157-91zM208 57q61 0 103.5 34t52.5 100l9 57h-89q-90 0-132-24.5t-42-83.5q0-37 25-60t73-23zM269 613l79 147h108l-121-147h-66z" glyph-name="aacute" horiz-adv-x="538" unicode="&#xe1;"/><glyph d="M197-8q-79 0-124 40t-45 108q0 167 254 167h101l6 38q10 61-13 89.5t-85 28.5q-105 0-125-94h-83q11 59 47 97t77 52 87 14q94 0 143.5-47t33.5-147l-29-182q-16-97-9-156h-78q-5 42-1 83-56-91-157-91zM208 57q61 0 103.5 34t52.5 100l9 57h-89q-90 0-132-24.5t-42-83.5q0-37 25-60t73-23zM157 613l129 144h75l86-144h-58l-74 75-96-75h-62z" glyph-name="acircumflex" horiz-adv-x="538" unicode="&#xe2;"/><glyph d="M197-8q-79 0-124 40t-45 108q0 167 254 167h101l6 38q10 61-13 89.5t-85 28.5q-105 0-125-94h-83q11 59 47 97t77 52 87 14q94 0 143.5-47t33.5-147l-29-182q-16-97-9-156h-78q-5 42-1 83-56-91-157-91zM208 57q61 0 103.5 34t52.5 100l9 57h-89q-90 0-132-24.5t-42-83.5q0-37 25-60t73-23zM376 619q-26 0-62.5 21.5t-48.5 21.5q-15 0-28-12.5t-18-32.5h-60q10 54 39 85t68 31q25 0 61.5-21.5t48.5-21.5q15 0 27.5 12t17.5 33h60q-10-54-38.5-85t-66.5-31z" glyph-name="atilde" horiz-adv-x="538" unicode="&#xe3;"/><glyph d="M197-8q-79 0-124 40t-45 108q0 167 254 167h101l6 38q10 61-13 89.5t-85 28.5q-105 0-125-94h-83q11 59 47 97t77 52 87 14q94 0 143.5-47t33.5-147l-29-182q-16-97-9-156h-78q-5 42-1 83-56-91-157-91zM208 57q61 0 103.5 34t52.5 100l9 57h-89q-90 0-132-24.5t-42-83.5q0-37 25-60t73-23zM223 634q-22 0-37.5 15t-15.5 37 16 38 38 16 37-15 15-37-15.5-38-37.5-16zM411 634q-22 0-37.5 15t-15.5 37 16 38 38 16 37-15 15-37-15.5-38-37.5-16z" glyph-name="adieresis" horiz-adv-x="538" unicode="&#xe4;"/><glyph d="M197-8q-79 0-124 40t-45 108q0 167 254 167h101l6 38q10 61-13 89.5t-85 28.5q-105 0-125-94h-83q11 59 47 97t77 52 87 14q94 0 143.5-47t33.5-147l-29-182q-16-97-9-156h-78q-5 42-1 83-56-91-157-91zM208 57q61 0 103.5 34t52.5 100l9 57h-89q-90 0-132-24.5t-42-83.5q0-37 25-60t73-23zM324 644q23 0 39 17t16 43q0 25-14 40.5t-37 15.5-39-17-16-43q0-25 14-40.5t37-15.5zM324 598q-44 0-74.5 29.5t-30.5 72.5q0 44 32 75t77 31q44 0 74.5-29.5t30.5-72.5q0-44-32-75t-77-31z" glyph-name="aring" horiz-adv-x="538" unicode="&#xe5;"/><glyph d="M458 211q0-151 138-151 109 0 139 91h81q-23-79-82-119.5t-141-40.5q-145 0-196 118-30-56-81.5-86.5t-116.5-30.5q-82 0-126.5 37.5t-44.5 104.5q0 62 37 102.5t93 57 129 16.5h97l6 35q10 61-13.5 89.5t-85.5 28.5q-105 0-125-94h-83q11 59 47 97t77 52 87 14q131 0 163-86 74 85 183 85 110 0 163-68t33-199l-3-17h-374q-1-12-1-36zM206 57q63 0 106 34t53 100l9 56h-90q-89 0-131.5-25.5t-42.5-84.5q0-36 24.5-58t71.5-22zM635 463q-60 0-104.5-37.5t-62.5-115.5h291q6 79-23.5 116t-100.5 37z" glyph-name="ae" horiz-adv-x="875" unicode="&#xe6;"/><glyph d="M209-214q-41 0-68 21.5t-31 62.5h56q4-36 42-36 40 0 40 38 0 15-10 23.5t-25 8.5q-14 0-26-8l-27 30 56 73q-85 17-131 78.5t-46 152.5q0 139 79.5 220t191.5 81q91 0 149-46.5t63-137.5h-79q-7 64-42 89.5t-95 25.5q-81 0-131.5-61t-50.5-171q0-83 40.5-126.5t120.5-43.5q57 0 99 33.5t52 92.5h78q-16-91-79-142.5t-152-51.5h-20l-33-45q32 3 56.5-16.5t24.5-55.5q0-43-27.5-66t-74.5-23z" glyph-name="ccedilla" horiz-adv-x="554" unicode="&#xe7;"/><glyph d="M123 211q0-151 144-151 114 0 144 91h83q-23-78-85-119t-145-41q-105 0-165.5 62t-60.5 162q0 138 78 227t195 89q111 0 167-68.5t36-198.5l-3-19h-387q-1-11-1-34zM306 463q-60 0-107-37.5t-65-113.5h303q6 78-26.5 114.5t-104.5 36.5zM294 613l-88 147h102l47-147h-61z" glyph-name="egrave" horiz-adv-x="553" unicode="&#xe8;"/><glyph d="M123 211q0-151 144-151 114 0 144 91h83q-23-78-85-119t-145-41q-105 0-165.5 62t-60.5 162q0 138 78 227t195 89q111 0 167-68.5t36-198.5l-3-19h-387q-1-11-1-34zM306 463q-60 0-107-37.5t-65-113.5h303q6 78-26.5 114.5t-104.5 36.5zM281 613l79 147h108l-121-147h-66z" glyph-name="eacute" horiz-adv-x="553" unicode="&#xe9;"/><glyph d="M123 211q0-151 144-151 114 0 144 91h83q-23-78-85-119t-145-41q-105 0-165.5 62t-60.5 162q0 138 78 227t195 89q111 0 167-68.5t36-198.5l-3-19h-387q-1-11-1-34zM306 463q-60 0-107-37.5t-65-113.5h303q6 78-26.5 114.5t-104.5 36.5zM169 613l129 144h75l86-144h-58l-74 75-96-75h-62z" glyph-name="ecircumflex" horiz-adv-x="553" unicode="&#xea;"/><glyph d="M123 211q0-151 144-151 114 0 144 91h83q-23-78-85-119t-145-41q-105 0-165.5 62t-60.5 162q0 138 78 227t195 89q111 0 167-68.5t36-198.5l-3-19h-387q-1-11-1-34zM306 463q-60 0-107-37.5t-65-113.5h303q6 78-26.5 114.5t-104.5 36.5zM241 634q-22 0-37.5 15t-15.5 37 16 38 38 16 37-15 15-37-15.5-38-37.5-16zM429 634q-22 0-37.5 15t-15.5 37 16 38 38 16 37-15 15-37-15.5-38-37.5-16z" glyph-name="edieresis" horiz-adv-x="553" unicode="&#xeb;"/><glyph d="M44 0l83 523h83l-83-523h-83zM153 613l-88 147h102l47-147h-61z" glyph-name="igrave" horiz-adv-x="255" unicode="&#xec;"/><glyph d="M44 0l83 523h83l-83-523h-83zM140 613l79 147h108l-121-147h-66z" glyph-name="iacute" horiz-adv-x="255" unicode="&#xed;"/><glyph d="M44 0l83 523h83l-83-523h-83zM28 613l129 144h75l86-144h-58l-74 75-96-75h-62z" glyph-name="icircumflex" horiz-adv-x="255" unicode="&#xee;"/><glyph d="M105 634q-22 0-37.5 15t-15.5 37 16 38 38 16 37-15 15-37-15.5-38-37.5-16zM283 634q-22 0-37.5 15t-15.5 37 16 38 38 16 37-15 15-37-15.5-38-37.5-16zM44 0l83 523h83l-83-523h-83z" glyph-name="idieresis" horiz-adv-x="255" unicode="&#xef;"/><glyph d="M227 574l-26 45 109 59q-45 45-115 95h106q37-22 77-59l93 51 26-46-82-44q135-155 135-345 0-148-75.5-243.5t-206.5-95.5q-102 0-166 64.5t-64 169.5q0 121 75 214t191 93q101 0 150-80-40 107-107 186zM124 222q0-70 36-116t110-46q89 0 141 69.5t52 169.5q0 70-37 117t-113 47q-87 0-138-70.5t-51-170.5z" glyph-name="eth" horiz-adv-x="592" unicode="&#xf0;"/><glyph d="M42 0l58 367q12 79 14 156h78q0-51-6-104 65 113 183 113 87 0 128.5-53t23.5-166l-50-313h-83l53 332q21 129-90 129-67 0-116.5-42t-61.5-115l-48-304h-83zM409 619q-26 0-62.5 21.5t-48.5 21.5q-15 0-28-12.5t-18-32.5h-60q10 54 39 85t68 31q25 0 61.5-21.5t48.5-21.5q15 0 27.5 12t17.5 33h60q-10-54-38.5-85t-66.5-31z" glyph-name="ntilde" horiz-adv-x="592" unicode="&#xf1;"/><glyph d="M271-8q-107 0-170 65t-63 167q0 131 80 219t198 88q107 0 170.5-63.5t63.5-166.5q0-134-78.5-221.5t-200.5-87.5zM275 60q87 0 137.5 67t50.5 172q0 76-39 120t-113 44q-83 0-135-68t-52-171q0-76 38-120t113-44zM307 613l-88 147h102l47-147h-61z" glyph-name="ograve" horiz-adv-x="589" unicode="&#xf2;"/><glyph d="M271-8q-107 0-170 65t-63 167q0 131 80 219t198 88q107 0 170.5-63.5t63.5-166.5q0-134-78.5-221.5t-200.5-87.5zM275 60q87 0 137.5 67t50.5 172q0 76-39 120t-113 44q-83 0-135-68t-52-171q0-76 38-120t113-44zM294 613l79 147h108l-121-147h-66z" glyph-name="oacute" horiz-adv-x="589" unicode="&#xf3;"/><glyph d="M271-8q-107 0-170 65t-63 167q0 131 80 219t198 88q107 0 170.5-63.5t63.5-166.5q0-134-78.5-221.5t-200.5-87.5zM275 60q87 0 137.5 67t50.5 172q0 76-39 120t-113 44q-83 0-135-68t-52-171q0-76 38-120t113-44zM182 613l129 144h75l86-144h-58l-74 75-96-75h-62z" glyph-name="ocircumflex" horiz-adv-x="589" unicode="&#xf4;"/><glyph d="M271-8q-107 0-170 65t-63 167q0 131 80 219t198 88q107 0 170.5-63.5t63.5-166.5q0-134-78.5-221.5t-200.5-87.5zM275 60q87 0 137.5 67t50.5 172q0 76-39 120t-113 44q-83 0-135-68t-52-171q0-76 38-120t113-44zM396 619q-26 0-62.5 21.5t-48.5 21.5q-15 0-28-12.5t-18-32.5h-60q10 54 39 85t68 31q25 0 61.5-21.5t48.5-21.5q15 0 27.5 12t17.5 33h60q-10-54-38.5-85t-66.5-31z" glyph-name="otilde" horiz-adv-x="589" unicode="&#xf5;"/><glyph d="M271-8q-107 0-170 65t-63 167q0 131 80 219t198 88q107 0 170.5-63.5t63.5-166.5q0-134-78.5-221.5t-200.5-87.5zM275 60q87 0 137.5 67t50.5 172q0 76-39 120t-113 44q-83 0-135-68t-52-171q0-76 38-120t113-44zM246 634q-22 0-37.5 15t-15.5 37 16 38 38 16 37-15 15-37-15.5-38-37.5-16zM434 634q-22 0-37.5 15t-15.5 37 16 38 38 16 37-15 15-37-15.5-38-37.5-16z" glyph-name="odieresis" horiz-adv-x="589" unicode="&#xf6;"/><glyph d="M42 307l11 70h447l-11-70h-447zM247 89q-26 0-45 18.5t-19 45.5 19 45.5 45 18.5 45-18.5 19-45.5-19-45.5-45-18.5zM295 467q-26 0-45 18.5t-19 45.5 19 45.5 45 18.5 45-18.5 19-45.5-19-45.5-45-18.5z" glyph-name="divide" horiz-adv-x="519" unicode="&#xf7;"/><glyph d="M51-37l-40 38 72 77q-45 61-45 146 0 131 80 219t198 88q88 0 149-47l67 72 41-38-69-73q46-58 46-144 0-134-78.5-221.5t-200.5-87.5q-88 0-149 47zM275 60q87 0 137.5 67t50.5 172q0 50-16 85l-275-293q37-31 103-31zM124 224q0-53 15-87l275 293q-38 33-103 33-83 0-135-68t-52-171z" glyph-name="oslash" horiz-adv-x="589" unicode="&#xf8;"/><glyph d="M545 523l-58-367q-14-91-11-156h-79q-3 47 5 104-66-113-182-113-85 0-126 54.5t-24 164.5l50 313h83l-53-332q-20-129 88-129 67 0 115.5 42t60.5 115l48 304h83zM319 613l-88 147h102l47-147h-61z" glyph-name="ugrave" horiz-adv-x="588" unicode="&#xf9;"/><glyph d="M545 523l-58-367q-14-91-11-156h-79q-3 47 5 104-66-113-182-113-85 0-126 54.5t-24 164.5l50 313h83l-53-332q-20-129 88-129 67 0 115.5 42t60.5 115l48 304h83zM300 613l79 147h108l-121-147h-66z" glyph-name="uacute" horiz-adv-x="588" unicode="&#xfa;"/><glyph d="M545 523l-58-367q-14-91-11-156h-79q-3 47 5 104-66-113-182-113-85 0-126 54.5t-24 164.5l50 313h83l-53-332q-20-129 88-129 67 0 115.5 42t60.5 115l48 304h83zM194 613l129 144h75l86-144h-58l-74 75-96-75h-62z" glyph-name="ucircumflex" horiz-adv-x="588" unicode="&#xfb;"/><glyph d="M545 523l-58-367q-14-91-11-156h-79q-3 47 5 104-66-113-182-113-85 0-126 54.5t-24 164.5l50 313h83l-53-332q-20-129 88-129 67 0 115.5 42t60.5 115l48 304h83zM256 634q-22 0-37.5 15t-15.5 37 16 38 38 16 37-15 15-37-15.5-38-37.5-16zM444 634q-22 0-37.5 15t-15.5 37 16 38 38 16 37-15 15-37-15.5-38-37.5-16z" glyph-name="udieresis" horiz-adv-x="588" unicode="&#xfc;"/><glyph d="M44-182l140 241-124 464h85l94-375 199 375h89l-395-705h-88zM263 613l79 147h108l-121-147h-66z" glyph-name="yacute" horiz-adv-x="505" unicode="&#xfd;"/><glyph d="M13-182l151 955h83l-54-342q27 45 76.5 73t106.5 28q93 0 151.5-63t58.5-167q0-131-71-221t-190-90q-73 0-118.5 31t-65.5 76l-45-280h-83zM320 59q83 0 130.5 66.5t47.5 171.5q0 80-37 123.5t-101 43.5q-87 0-144-66t-57-176q0-76 43.5-119.5t117.5-43.5z" glyph-name="thorn" horiz-adv-x="631" unicode="&#xfe;"/><glyph d="M44-182l140 241-124 464h85l94-375 199 375h89l-395-705h-88zM223 634q-22 0-37.5 15t-15.5 37 16 38 38 16 37-15 15-37-15.5-38-37.5-16zM411 634q-22 0-37.5 15t-15.5 37 16 38 38 16 37-15 15-37-15.5-38-37.5-16z" glyph-name="ydieresis" horiz-adv-x="505" unicode="&#xff;"/><glyph d="M500 0l-37 206h-295l-102-206h-84l359 715h114l129-715h-84zM384 643l-182-368h248zM273 786l10 64h266l-10-64h-266z" glyph-name="Amacron" horiz-adv-x="650" unicode="&#x100;"/><glyph d="M197-8q-79 0-124 40t-45 108q0 167 254 167h101l6 38q10 61-13 89.5t-85 28.5q-105 0-125-94h-83q11 59 47 97t77 52 87 14q94 0 143.5-47t33.5-147l-29-182q-16-97-9-156h-78q-5 42-1 83-56-91-157-91zM208 57q61 0 103.5 34t52.5 100l9 57h-89q-90 0-132-24.5t-42-83.5q0-37 25-60t73-23zM186 648l10 64h262l-10-64h-262z" glyph-name="amacron" horiz-adv-x="538" unicode="&#x101;"/><glyph d="M500 0l-37 206h-295l-102-206h-84l359 715h114l129-715h-84zM384 643l-182-368h248zM406 767q-56 0-93 36.5t-37 95.5h66q8-64 65-64 61 0 73 64h64q-4-58-44.5-95t-93.5-37z" glyph-name="Abreve" horiz-adv-x="650" unicode="&#x102;"/><glyph d="M197-8q-79 0-124 40t-45 108q0 167 254 167h101l6 38q10 61-13 89.5t-85 28.5q-105 0-125-94h-83q11 59 47 97t77 52 87 14q94 0 143.5-47t33.5-147l-29-182q-16-97-9-156h-78q-5 42-1 83-56-91-157-91zM208 57q61 0 103.5 34t52.5 100l9 57h-89q-90 0-132-24.5t-42-83.5q0-37 25-60t73-23zM315 619q-56 0-93 36.5t-37 95.5h66q8-64 65-64 61 0 73 64h64q-4-58-44.5-95t-93.5-37z" glyph-name="abreve" horiz-adv-x="538" unicode="&#x103;"/><glyph d="M418-101q0 58 82 99l-37 208h-295l-102-206h-84l359 715h114l129-715q-2-1-12.5-7.5t-14.5-8.5-13.5-8.5-14-11l-11.5-11.5t-10.5-13-6-14.5-2.5-16.5q0-31 37-31 25 0 48 10l-9-59q-29-11-58-11-43 0-71.5 20t-27.5 61zM384 643l-182-368h248z" glyph-name="Aogonek" horiz-adv-x="650" unicode="&#x104;"/><glyph d="M370-182q-43 0-71.5 20t-27.5 61q0 58 84 101-5 42-1 83-56-91-157-91-79 0-124 40t-45 108q0 167 254 167h101l6 38q10 61-13 89.5t-85 28.5q-105 0-125-94h-83q11 59 47 97t77 52 87 14q94 0 143.5-47t33.5-147l-29-182q-16-97-9-156-2-1-15.5-9.5t-19-12.5-16.5-13-16-16.5-9.5-18-4.5-21.5q0-31 37-31 25 0 48 10l-9-59q-29-11-58-11zM208 57q61 0 103.5 34t52.5 100l9 57h-89q-90 0-132-24.5t-42-83.5q0-37 25-60t73-23z" glyph-name="aogonek" horiz-adv-x="538" unicode="&#x105;"/><glyph d="M386-9q-147 0-232.5 85t-85.5 228q0 178 107 300t273 122q112 0 185.5-61t80.5-173h-82q-26 165-188 165-131 0-208.5-100.5t-77.5-252.5q0-117 58-180t171-63q84 0 141 47t83 129h83q-28-113-111.5-179.5t-196.5-66.5zM421 771l68 127h106l-108-127h-66z" glyph-name="Cacute" horiz-adv-x="728" unicode="&#x106;"/><glyph d="M283-8q-115 0-179.5 65.5t-64.5 172.5q0 139 79.5 220t191.5 81q91 0 149-46.5t63-137.5h-79q-7 64-42 89.5t-95 25.5q-81 0-131.5-61t-50.5-171q0-83 40.5-126.5t120.5-43.5q57 0 99 33.5t52 92.5h78q-16-91-79-142.5t-152-51.5zM284 613l79 147h108l-121-147h-66z" glyph-name="cacute" horiz-adv-x="554" unicode="&#x107;"/><glyph d="M386-9q-147 0-232.5 85t-85.5 228q0 178 107 300t273 122q112 0 185.5-61t80.5-173h-82q-26 165-188 165-131 0-208.5-100.5t-77.5-252.5q0-117 58-180t171-63q84 0 141 47t83 129h83q-28-113-111.5-179.5t-196.5-66.5zM310 771l124 127h75l91-127h-58l-77 58-93-58h-62z" glyph-name="Ccircumflex" horiz-adv-x="728" unicode="&#x108;"/><glyph d="M283-8q-115 0-179.5 65.5t-64.5 172.5q0 139 79.5 220t191.5 81q91 0 149-46.5t63-137.5h-79q-7 64-42 89.5t-95 25.5q-81 0-131.5-61t-50.5-171q0-83 40.5-126.5t120.5-43.5q57 0 99 33.5t52 92.5h78q-16-91-79-142.5t-152-51.5zM172 613l129 144h75l86-144h-58l-74 75-96-75h-62z" glyph-name="ccircumflex" horiz-adv-x="554" unicode="&#x109;"/><glyph d="M386-9q-147 0-232.5 85t-85.5 228q0 178 107 300t273 122q112 0 185.5-61t80.5-173h-82q-26 165-188 165-131 0-208.5-100.5t-77.5-252.5q0-117 58-180t171-63q84 0 141 47t83 129h83q-28-113-111.5-179.5t-196.5-66.5zM463 787q-23 0-39 16t-16 38q0 23 17 39.5t39 16.5 38-15.5 16-38.5-16.5-39.5-38.5-16.5z" glyph-name="Cdotaccent" horiz-adv-x="728" unicode="&#x10a;"/><glyph d="M283-8q-115 0-179.5 65.5t-64.5 172.5q0 139 79.5 220t191.5 81q91 0 149-46.5t63-137.5h-79q-7 64-42 89.5t-95 25.5q-81 0-131.5-61t-50.5-171q0-83 40.5-126.5t120.5-43.5q57 0 99 33.5t52 92.5h78q-16-91-79-142.5t-152-51.5zM340 632q-23 0-39 16t-16 38 16.5 39 39.5 17 38.5-16 15.5-38q0-23-16.5-39.5t-38.5-16.5z" glyph-name="cdotaccent" horiz-adv-x="554" unicode="&#x10b;"/><glyph d="M386-9q-147 0-232.5 85t-85.5 228q0 178 107 300t273 122q112 0 185.5-61t80.5-173h-82q-26 165-188 165-131 0-208.5-100.5t-77.5-252.5q0-117 58-180t171-63q84 0 141 47t83 129h83q-28-113-111.5-179.5t-196.5-66.5zM611 898l-124-127h-75l-91 127h58l77-58 93 58h62z" glyph-name="Ccaron" horiz-adv-x="728" unicode="&#x10c;"/><glyph d="M283-8q-115 0-179.5 65.5t-64.5 172.5q0 139 79.5 220t191.5 81q91 0 149-46.5t63-137.5h-79q-7 64-42 89.5t-95 25.5q-81 0-131.5-61t-50.5-171q0-83 40.5-126.5t120.5-43.5q57 0 99 33.5t52 92.5h78q-16-91-79-142.5t-152-51.5zM484 757l-129-144h-75l-86 144h58l74-75 96 75h62z" glyph-name="ccaron" horiz-adv-x="554" unicode="&#x10d;"/><glyph d="M48 0l113 715h174q169 0 251-83t83-222q0-178-109-294t-303-116h-209zM146 71h108q154 0 240 89.5t86 248.5q0 109-60 172.5t-189 63.5h-94zM540 898l-124-127h-75l-91 127h58l77-58 93 58h62z" glyph-name="Dcaron" horiz-adv-x="698" unicode="&#x10e;"/><glyph d="M261-9q-98 0-159.5 63t-61.5 168q0 130 74.5 220t196.5 90q125 0 175-104l54 345h83l-97-617q-14-91-11-156h-79q-3 43 4 95-28-48-75.5-76t-103.5-28zM271 60q87 0 141.5 63t54.5 180q0 73-42.5 116.5t-110.5 43.5q-87 0-136.5-66t-49.5-171q0-78 38-122t105-44zM645 598l38 175h91l-70-175h-59z" glyph-name="dcaron" horiz-adv-x="622" unicode="&#x10f;"/><glyph d="M43 325l11 67h76l51 323h174q169 0 251-83t83-222q0-178-109-294t-303-116h-209l51 325h-76zM166 71h108q154 0 240 89.5t86 248.5q0 109-60 172.5t-189 63.5h-94l-40-253h207l-11-67h-207z" glyph-name="Dcroat" horiz-adv-x="718" unicode="&#x110;"/><glyph d="M337 615l10 61h178l15 97h83l-16-97h76l-10-61h-75l-72-459q-14-91-11-156h-79q-3 43 4 95-28-48-75.5-76t-103.5-28q-98 0-159.5 63t-61.5 168q0 130 74.5 220t196.5 90q125 0 175-104l29 187h-178zM314 463q-87 0-136.5-66t-49.5-171q0-80 37-123t106-43q87 0 141.5 63.5t54.5 182.5q0 75-41.5 116t-111.5 41z" glyph-name="dcroat" horiz-adv-x="622" unicode="&#x111;"/><glyph d="M48 0l113 715h413l-12-71h-326l-38-243h266l-11-71h-266l-41-259h348l-11-71h-435zM242 786l10 64h266l-10-64h-266z" glyph-name="Emacron" horiz-adv-x="572" unicode="&#x112;"/><glyph d="M123 211q0-151 144-151 114 0 144 91h83q-23-78-85-119t-145-41q-105 0-165.5 62t-60.5 162q0 138 78 227t195 89q111 0 167-68.5t36-198.5l-3-19h-387q-1-11-1-34zM306 463q-60 0-107-37.5t-65-113.5h303q6 78-26.5 114.5t-104.5 36.5zM198 648l10 64h262l-10-64h-262z" glyph-name="emacron" horiz-adv-x="553" unicode="&#x113;"/><glyph d="M48 0l113 715h413l-12-71h-326l-38-243h266l-11-71h-266l-41-259h348l-11-71h-435zM375 767q-56 0-93 36.5t-37 95.5h66q8-64 65-64 61 0 73 64h64q-4-58-44.5-95t-93.5-37z" glyph-name="Ebreve" horiz-adv-x="572" unicode="&#x114;"/><glyph d="M123 211q0-151 144-151 114 0 144 91h83q-23-78-85-119t-145-41q-105 0-165.5 62t-60.5 162q0 138 78 227t195 89q111 0 167-68.5t36-198.5l-3-19h-387q-1-11-1-34zM306 463q-60 0-107-37.5t-65-113.5h303q6 78-26.5 114.5t-104.5 36.5zM327 619q-56 0-93 36.5t-37 95.5h66q8-64 65-64 61 0 73 64h64q-4-58-44.5-95t-93.5-37z" glyph-name="ebreve" horiz-adv-x="553" unicode="&#x115;"/><glyph d="M48 0l113 715h413l-12-71h-326l-38-243h266l-11-71h-266l-41-259h348l-11-71h-435zM379 787q-23 0-39 16t-16 38q0 23 17 39.5t39 16.5 38-15.5 16-38.5-16.5-39.5-38.5-16.5z" glyph-name="Edotaccent" horiz-adv-x="572" unicode="&#x116;"/><glyph d="M123 211q0-151 144-151 114 0 144 91h83q-23-78-85-119t-145-41q-105 0-165.5 62t-60.5 162q0 138 78 227t195 89q111 0 167-68.5t36-198.5l-3-19h-387q-1-11-1-34zM306 463q-60 0-107-37.5t-65-113.5h303q6 78-26.5 114.5t-104.5 36.5zM337 632q-23 0-39 16t-16 38 17 39 39 17 38-16 16-38q0-23-16.5-39.5t-38.5-16.5z" glyph-name="edotaccent" horiz-adv-x="553" unicode="&#x117;"/><glyph d="M48 0l113 715h413l-12-71h-326l-38-243h266l-11-71h-266l-41-259h348l-11-71h-31q-2-1-14-8.5t-16.5-10.5-15-10.5-15.5-13-11.5-14-9-17.5-2.5-19q0-29 37-29 25 0 48 10l-9-59q-29-11-58-11-43 0-71.5 19t-27.5 57q0 63 80 106h-319z" glyph-name="Eogonek" horiz-adv-x="572" unicode="&#x118;"/><glyph d="M316-182q-43 0-71.5 20t-27.5 61q0 50 77 94-20-2-30-2-105 0-165.5 62t-60.5 162q0 138 78 227t195 89q111 0 167-68.5t36-198.5l-3-19h-387q-1-11-1-34 0-151 144-151 114 0 144 91h83q-18-57-56-97-16-16-54.5-44t-62-52-23.5-49q0-31 37-31 25 0 48 10l-9-59q-29-11-58-11zM306 463q-60 0-107-37.5t-65-113.5h303q6 78-26.5 114.5t-104.5 36.5z" glyph-name="eogonek" horiz-adv-x="553" unicode="&#x119;"/><glyph d="M48 0l113 715h413l-12-71h-326l-38-243h266l-11-71h-266l-41-259h348l-11-71h-435zM525 898l-124-127h-75l-91 127h58l77-58 93 58h62z" glyph-name="Ecaron" horiz-adv-x="572" unicode="&#x11a;"/><glyph d="M123 211q0-151 144-151 114 0 144 91h83q-23-78-85-119t-145-41q-105 0-165.5 62t-60.5 162q0 138 78 227t195 89q111 0 167-68.5t36-198.5l-3-19h-387q-1-11-1-34zM306 463q-60 0-107-37.5t-65-113.5h303q6 78-26.5 114.5t-104.5 36.5zM484 757l-129-144h-75l-86 144h58l74-75 96 75h62z" glyph-name="ecaron" horiz-adv-x="553" unicode="&#x11b;"/><glyph d="M394-9q-152 0-238.5 90.5t-86.5 232.5q0 170 107 290t267 120q115 0 193.5-57.5t85.5-167.5h-86q-7 78-59.5 117t-135.5 39q-128 0-205-98t-77-243q0-117 61-185t176-68q103 0 162.5 61.5t76.5 166.5h-212l12 72h295q-32-370-336-370zM302 771l124 127h75l91-127h-58l-77 58-93-58h-62z" glyph-name="Gcircumflex" horiz-adv-x="770" unicode="&#x11c;"/><glyph d="M272 86q81 0 138 61.5t57 163.5q0 70-43.5 111t-111.5 41q-81 0-130.5-63.5t-49.5-153.5q0-73 36.5-116.5t103.5-43.5zM584 523l-78-497q-17-107-83.5-161.5t-176.5-54.5q-115 0-169.5 46.5t-63.5 113.5h84q17-90 147-90 82 0 124 38t55 116l12 73q-61-88-172-88-96 0-157 62t-61 161q0 120 75.5 205t188.5 85q127 0 177-104l15 95h83zM196 613l129 144h75l86-144h-58l-74 75-96-75h-62z" glyph-name="gcircumflex" horiz-adv-x="623" unicode="&#x11d;"/><glyph d="M394-9q-152 0-238.5 90.5t-86.5 232.5q0 170 107 290t267 120q115 0 193.5-57.5t85.5-167.5h-86q-7 78-59.5 117t-135.5 39q-128 0-205-98t-77-243q0-117 61-185t176-68q103 0 162.5 61.5t76.5 166.5h-212l12 72h295q-32-370-336-370zM455 767q-56 0-93 36.5t-37 95.5h66q8-64 65-64 61 0 73 64h64q-4-58-44.5-95t-93.5-37z" glyph-name="Gbreve" horiz-adv-x="770" unicode="&#x11e;"/><glyph d="M272 86q81 0 138 61.5t57 163.5q0 70-43.5 111t-111.5 41q-81 0-130.5-63.5t-49.5-153.5q0-73 36.5-116.5t103.5-43.5zM584 523l-78-497q-17-107-83.5-161.5t-176.5-54.5q-115 0-169.5 46.5t-63.5 113.5h84q17-90 147-90 82 0 124 38t55 116l12 73q-61-88-172-88-96 0-157 62t-61 161q0 120 75.5 205t188.5 85q127 0 177-104l15 95h83zM354 619q-56 0-93 36.5t-37 95.5h66q8-64 65-64 61 0 73 64h64q-4-58-44.5-95t-93.5-37z" glyph-name="gbreve" horiz-adv-x="623" unicode="&#x11f;"/><glyph d="M394-9q-152 0-238.5 90.5t-86.5 232.5q0 170 107 290t267 120q115 0 193.5-57.5t85.5-167.5h-86q-7 78-59.5 117t-135.5 39q-128 0-205-98t-77-243q0-117 61-185t176-68q103 0 162.5 61.5t76.5 166.5h-212l12 72h295q-32-370-336-370zM457 787q-23 0-39 16t-16 38q0 23 17 39.5t39 16.5 38-15.5 16-38.5-16.5-39.5-38.5-16.5z" glyph-name="Gdotaccent" horiz-adv-x="770" unicode="&#x120;"/><glyph d="M272 86q81 0 138 61.5t57 163.5q0 70-43.5 111t-111.5 41q-81 0-130.5-63.5t-49.5-153.5q0-73 36.5-116.5t103.5-43.5zM584 523l-78-497q-17-107-83.5-161.5t-176.5-54.5q-115 0-169.5 46.5t-63.5 113.5h84q17-90 147-90 82 0 124 38t55 116l12 73q-61-88-172-88-96 0-157 62t-61 161q0 120 75.5 205t188.5 85q127 0 177-104l15 95h83zM365 632q-23 0-39 16t-16 38 17 39 39 17 38-16 16-38q0-23-16.5-39.5t-38.5-16.5z" glyph-name="gdotaccent" horiz-adv-x="623" unicode="&#x121;"/><glyph d="M394-9q-152 0-238.5 90.5t-86.5 232.5q0 170 107 290t267 120q115 0 193.5-57.5t85.5-167.5h-86q-7 78-59.5 117t-135.5 39q-128 0-205-98t-77-243q0-117 61-185t176-68q103 0 162.5 61.5t76.5 166.5h-212l12 72h295q-32-370-336-370zM281-220l-49 26 72 157 78-24z" glyph-name="Gcommaaccent" horiz-adv-x="770" unicode="&#x122;"/><glyph d="M272 86q81 0 138 61.5t57 163.5q0 70-43.5 111t-111.5 41q-81 0-130.5-63.5t-49.5-153.5q0-73 36.5-116.5t103.5-43.5zM584 523l-78-497q-17-107-83.5-161.5t-176.5-54.5q-115 0-169.5 46.5t-63.5 113.5h84q17-90 147-90 82 0 124 38t55 116l12 73q-61-88-172-88-96 0-157 62t-61 161q0 120 75.5 205t188.5 85q127 0 177-104l15 95h83zM387 785l49-26-72-157-78 24z" glyph-name="gcommaaccent" horiz-adv-x="623" unicode="&#x123;"/><glyph d="M48 0l113 715h87l-52-324h376l52 324h87l-113-715h-87l50 318h-376l-50-318h-87zM296 771l124 127h75l91-127h-58l-77 58-93-58h-62z" glyph-name="Hcircumflex" horiz-adv-x="730" unicode="&#x124;"/><glyph d="M42 0l122 773h83l-54-343q26 43 71.5 72.5t104.5 29.5q87 0 128.5-53t23.5-166l-50-313h-83l53 332q21 129-90 129-67 0-116.5-42t-61.5-115l-48-304h-83zM234 821l124 127h75l91-127h-58l-77 58-93-58h-62z" glyph-name="hcircumflex" horiz-adv-x="592" unicode="&#x125;"/><glyph d="M56 493l10 67h70l25 155h87l-25-155h376l25 155h87l-25-155h70l-10-67h-70l-78-493h-87l50 318h-376l-50-318h-87l78 493h-70zM196 391h376l16 102h-376z" glyph-name="Hbar" horiz-adv-x="730" unicode="&#x126;"/><glyph d="M64 615l10 61h74l16 97h83l-16-97h179l-10-61h-178l-29-185q26 43 71.5 72.5t104.5 29.5q87 0 128.5-53t23.5-166l-50-313h-83l53 332q11 68-11 98.5t-79 30.5q-67 0-116.5-42t-61.5-115l-48-304h-83l97 615h-75z" glyph-name="hbar" horiz-adv-x="592" unicode="&#x127;"/><glyph d="M53 0l113 715h87l-113-715h-87zM285 774q-26 0-62.5 21.5t-48.5 21.5q-15 0-28-12.5t-18-32.5h-60q10 54 39 85t68 31q25 0 61.5-21.5t48.5-21.5q15 0 27.5 12t17.5 33h60q-10-54-38.5-85t-66.5-31z" glyph-name="Itilde" horiz-adv-x="279" unicode="&#x128;"/><glyph d="M44 0l83 523h83l-83-523h-83zM247 619q-26 0-62.5 21.5t-48.5 21.5q-15 0-28-12.5t-18-32.5h-60q10 54 39 85t68 31q25 0 61.5-21.5t48.5-21.5q15 0 27.5 12t17.5 33h60q-10-54-38.5-85t-66.5-31z" glyph-name="itilde" horiz-adv-x="255" unicode="&#x129;"/><glyph d="M53 0l113 715h87l-113-715h-87zM88 786l10 64h266l-10-64h-266z" glyph-name="Imacron" horiz-adv-x="279" unicode="&#x12a;"/><glyph d="M91 648l10 64h194l-10-64h-194zM44 0l83 523h83l-83-523h-83z" glyph-name="imacron" horiz-adv-x="255" unicode="&#x12b;"/><glyph d="M53 0l113 715h87l-113-715h-87zM221 767q-56 0-93 36.5t-37 95.5h66q8-64 65-64 61 0 73 64h64q-4-58-44.5-95t-93.5-37z" glyph-name="Ibreve" horiz-adv-x="279" unicode="&#x12c;"/><glyph d="M44 0l83 523h83l-83-523h-83zM186 619q-56 0-93 36.5t-37 95.5h66q8-64 65-64 61 0 73 64h64q-4-58-44.5-95t-93.5-37z" glyph-name="ibreve" horiz-adv-x="255" unicode="&#x12d;"/><glyph d="M71-182q-43 0-71.5 20t-27.5 61q0 57 80 98l114 718h87l-112-709q-88-55-88-97 0-31 37-31 25 0 48 10l-9-59q-29-11-58-11z" glyph-name="Iogonek" horiz-adv-x="279" unicode="&#x12e;"/><glyph d="M44 0l83 523h83l-82-517q-2-1-12-7.5t-13-8.5-12-8.5-13-10-11-10-10.5-12-7.5-12-5.5-14-1.5-14.5q0-31 35-31 25 0 48 10l-9-59q-29-11-58-11-41 0-69.5 20t-27.5 61q0 59 83 101zM192 632q-23 0-39 16t-16 38 16.5 39 39.5 17 38.5-16 15.5-38q0-23-16.5-39.5t-38.5-16.5z" glyph-name="iogonek" horiz-adv-x="255" unicode="&#x12f;"/><glyph d="M53 0l113 715h87l-113-715h-87zM225 787q-23 0-39 16t-16 38q0 23 17 39.5t39 16.5 38-15.5 16-38.5-16.5-39.5-38.5-16.5z" glyph-name="Idotaccent" horiz-adv-x="279" unicode="&#x130;"/><glyph d="M44 0l83 523h83l-83-523h-83z" glyph-name="dotlessi" horiz-adv-x="255" unicode="&#x131;"/><glyph d="M11 0l113 715h87l-113-715h-87zM308-9q-72 0-115 26l11 70q52-25 101-25 55 0 86 30.5t41 95.5l83 527h87l-85-535q-15-96-70.5-142.5t-138.5-46.5z" glyph-name="IJ" horiz-adv-x="657" unicode="&#x132;"/><glyph d="M192 632q-23 0-39 16t-16 38 16.5 39 39.5 17 38.5-16 15.5-38q0-23-16.5-39.5t-38.5-16.5zM44 0l83 523h83l-83-523h-83zM192-190l11 69q43 2 63.5 21.5t26.5 58.5l89 564h83l-90-569q-22-144-183-144zM447 632q-23 0-39 16t-16 38 17 39 39 17 38-16 16-38q0-23-16.5-39.5t-38.5-16.5z" glyph-name="ij" horiz-adv-x="510" unicode="&#x133;"/><glyph d="M113-9q-72 0-115 26l11 70q52-25 101-25 55 0 86 30.5t41 95.5l83 527h87l-85-535q-15-96-70.5-142.5t-138.5-46.5zM225 771l124 127h75l91-127h-58l-77 58-93-58h-62z" glyph-name="Jcircumflex" horiz-adv-x="420" unicode="&#x134;"/><glyph d="M-63-190l11 69q43 2 63.5 21.5t26.5 58.5l89 564h83l-90-569q-22-144-183-144zM28 613l129 144h75l86-144h-58l-74 75-96-75h-62z" glyph-name="jcircumflex" horiz-adv-x="255" unicode="&#x135;"/><glyph d="M48 0l113 715h87l-54-340 363 340h101l-373-345 272-370h-97l-268 359-57-359h-87zM224-220l-49 26 72 157 78-24z" glyph-name="Kcommaaccent" horiz-adv-x="616" unicode="&#x136;"/><glyph d="M42 0l122 773h83l-76-481 249 231h103l-264-240 195-283h-95l-190 278-44-278h-83zM178-220l-49 26 72 157 78-24z" glyph-name="kcommaaccent" horiz-adv-x="511" unicode="&#x137;"/><glyph d="M48 0l113 715h87l-102-644h327l-11-71h-414zM176 771l68 127h106l-108-127h-66z" glyph-name="Lacute" horiz-adv-x="535" unicode="&#x139;"/><glyph d="M44 0l122 773h84l-122-773h-84zM179 821l68 127h106l-108-127h-66z" glyph-name="lacute" horiz-adv-x="256" unicode="&#x13a;"/><glyph d="M48 0l113 715h87l-102-644h327l-11-71h-414zM190-220l-49 26 72 157 78-24z" glyph-name="Lcommaaccent" horiz-adv-x="535" unicode="&#x13b;"/><glyph d="M44 0l122 773h84l-122-773h-84zM23-220l-49 26 72 157 78-24z" glyph-name="lcommaaccent" horiz-adv-x="256" unicode="&#x13c;"/><glyph d="M384 558l43 157h95l-79-157h-59zM48 0l113 715h87l-102-644h327l-11-71h-414z" glyph-name="Lcaron" horiz-adv-x="535" unicode="&#x13d;"/><glyph d="M44 0l122 773h84l-122-773h-84zM272 598l38 175h91l-70-175h-59z" glyph-name="lcaron" horiz-adv-x="256" unicode="&#x13e;"/><glyph d="M48 0l113 715h87l-102-644h327l-11-71h-414zM448 320q-26 0-45 18.5t-19 45.5 18.5 45.5 44.5 18.5q27 0 46-18.5t19-45.5-19-45.5-45-18.5z" glyph-name="Ldot" horiz-adv-x="535" unicode="&#x13f;"/><glyph d="M44 0l122 773h84l-122-773h-84zM307 303q-26 0-45 18.5t-19 45.5 18.5 45.5 44.5 18.5q27 0 46-18.5t19-45.5-19-45.5-45-18.5z" glyph-name="ldot" horiz-adv-x="328" unicode="&#x140;"/><glyph d="M39 248l11 71 72 25 59 371h87l-54-339 211 73-11-71-211-73-37-234h327l-11-71h-414l43 273z" glyph-name="Lslash" horiz-adv-x="555" unicode="&#x141;"/><glyph d="M27 311l12 73 82 42 55 347h84l-48-300 88 45-13-73-86-45-63-400h-84l56 353z" glyph-name="lslash" horiz-adv-x="276" unicode="&#x142;"/><glyph d="M48 0l113 715h111l256-591 94 591h83l-113-715h-98l-266 613-97-613h-83zM414 771l68 127h106l-108-127h-66z" glyph-name="Nacute" horiz-adv-x="724" unicode="&#x143;"/><glyph d="M42 0l58 367q12 79 14 156h78q0-51-6-104 65 113 183 113 87 0 128.5-53t23.5-166l-50-313h-83l53 332q21 129-90 129-67 0-116.5-42t-61.5-115l-48-304h-83zM303 613l79 147h108l-121-147h-66z" glyph-name="nacute" horiz-adv-x="592" unicode="&#x144;"/><glyph d="M48 0l113 715h111l256-591 94 591h83l-113-715h-98l-266 613-97-613h-83zM262-220l-49 26 72 157 78-24z" glyph-name="Ncommaaccent" horiz-adv-x="724" unicode="&#x145;"/><glyph d="M42 0l58 367q12 79 14 156h78q0-51-6-104 65 113 183 113 87 0 128.5-53t23.5-166l-50-313h-83l53 332q21 129-90 129-67 0-116.5-42t-61.5-115l-48-304h-83zM185-220l-49 26 72 157 78-24z" glyph-name="ncommaaccent" horiz-adv-x="592" unicode="&#x146;"/><glyph d="M48 0l113 715h111l256-591 94 591h83l-113-715h-98l-266 613-97-613h-83zM606 898l-124-127h-75l-91 127h58l77-58 93 58h62z" glyph-name="Ncaron" horiz-adv-x="724" unicode="&#x147;"/><glyph d="M42 0l58 367q12 79 14 156h78q0-51-6-104 65 113 183 113 87 0 128.5-53t23.5-166l-50-313h-83l53 332q21 129-90 129-67 0-116.5-42t-61.5-115l-48-304h-83zM505 757l-129-144h-75l-86 144h58l74-75 96 75h62z" glyph-name="ncaron" horiz-adv-x="592" unicode="&#x148;"/><glyph d="M48 0l58 367q12 79 14 156h78q0-51-6-104 65 113 183 113 87 0 128.5-53t23.5-166l-50-313h-83l53 332q21 129-90 129-67 0-116.5-42t-61.5-115l-48-304h-83zM41 488l-49 26 103 212 77-36z" glyph-name="napostrophe" horiz-adv-x="598" unicode="&#x149;"/><glyph d="M374-122q54 0 86 26.5t44 86.5l-276 622-97-613h-83l113 715h114l256-573 91 573h83l-112-705q-32-203-210-203-70 0-111 24l11 70q44-23 91-23z" glyph-name="Eng" horiz-adv-x="724" unicode="&#x14a;"/><glyph d="M42 0l58 367q12 79 14 156h78q0-51-6-104 65 113 183 113 87 0 128.5-53t23.5-166l-57-359q-11-70-53-106.5t-130-38.5l11 70q44 3 64 22.5t26 59.5l59 371q21 129-90 129-67 0-116.5-42t-61.5-115l-48-304h-83z" glyph-name="eng" horiz-adv-x="592" unicode="&#x14b;"/><glyph d="M773 402q0-176-109.5-293.5t-268.5-117.5q-147 0-237 90.5t-90 230.5q0 172 111 292t273 120q149 0 235-92.5t86-229.5zM683 402q0 109-61.5 180.5t-170.5 71.5q-131 0-212-99.5t-81-242.5q0-115 66-182.5t172-67.5q127 0 207 96.5t80 243.5zM350 786l10 64h266l-10-64h-266z" glyph-name="Omacron" horiz-adv-x="811" unicode="&#x14c;"/><glyph d="M271-8q-107 0-170 65t-63 167q0 131 80 219t198 88q107 0 170.5-63.5t63.5-166.5q0-134-78.5-221.5t-200.5-87.5zM275 60q87 0 137.5 67t50.5 172q0 76-39 120t-113 44q-83 0-135-68t-52-171q0-76 38-120t113-44zM211 648l10 64h262l-10-64h-262z" glyph-name="omacron" horiz-adv-x="589" unicode="&#x14d;"/><glyph d="M773 402q0-176-109.5-293.5t-268.5-117.5q-147 0-237 90.5t-90 230.5q0 172 111 292t273 120q149 0 235-92.5t86-229.5zM683 402q0 109-61.5 180.5t-170.5 71.5q-131 0-212-99.5t-81-242.5q0-115 66-182.5t172-67.5q127 0 207 96.5t80 243.5zM483 767q-56 0-93 36.5t-37 95.5h66q8-64 65-64 61 0 73 64h64q-4-58-44.5-95t-93.5-37z" glyph-name="Obreve" horiz-adv-x="811" unicode="&#x14e;"/><glyph d="M271-8q-107 0-170 65t-63 167q0 131 80 219t198 88q107 0 170.5-63.5t63.5-166.5q0-134-78.5-221.5t-200.5-87.5zM275 60q87 0 137.5 67t50.5 172q0 76-39 120t-113 44q-83 0-135-68t-52-171q0-76 38-120t113-44zM340 619q-56 0-93 36.5t-37 95.5h66q8-64 65-64 61 0 73 64h64q-4-58-44.5-95t-93.5-37z" glyph-name="obreve" horiz-adv-x="589" unicode="&#x14f;"/><glyph d="M773 402q0-176-109.5-293.5t-268.5-117.5q-147 0-237 90.5t-90 230.5q0 172 111 292t273 120q149 0 235-92.5t86-229.5zM683 402q0 109-61.5 180.5t-170.5 71.5q-131 0-212-99.5t-81-242.5q0-115 66-182.5t172-67.5q127 0 207 96.5t80 243.5zM362 771l46 127h96l-81-127h-61zM516 771l46 127h96l-81-127h-61z" glyph-name="Ohungarumlaut" horiz-adv-x="811" unicode="&#x150;"/><glyph d="M271-8q-107 0-170 65t-63 167q0 131 80 219t198 88q107 0 170.5-63.5t63.5-166.5q0-134-78.5-221.5t-200.5-87.5zM275 60q87 0 137.5 67t50.5 172q0 76-39 120t-113 44q-83 0-135-68t-52-171q0-76 38-120t113-44zM228 613l53 147h96l-88-147h-61zM382 613l53 147h96l-88-147h-61z" glyph-name="ohungarumlaut" horiz-adv-x="589" unicode="&#x151;"/><glyph d="M877 0h-471q-169 0-253 83.5t-85 222.5q0 177 110 293t304 116h486l-12-71h-310l-38-243h250l-11-71h-250l-41-259h332zM559 644h-74q-154 0-241-89.5t-87-247.5q0-108 62-172.5t191-64.5h59z" glyph-name="OE" horiz-adv-x="960" unicode="&#x152;"/><glyph d="M544 211q0-151 144-151 114 0 144 91h83q-23-78-85-119t-145-41q-150 0-197 122-35-57-91-89t-126-32q-107 0-170 65t-63 167q0 131 80 219t198 88q73 0 125-33.5t77-92.5q35 60 90 93t124 33q111 0 167-68.5t36-198.5l-3-19h-387q-1-11-1-34zM275 60q87 0 137.5 67t50.5 172q0 76-39 120t-113 44q-83 0-135-68t-52-171q0-76 38-120t113-44zM727 463q-60 0-107-37.5t-65-113.5h303q6 78-26.5 114.5t-104.5 36.5z" glyph-name="oe" horiz-adv-x="974" unicode="&#x153;"/><glyph d="M48 0l113 715h211q98 0 158.5-47t59.5-135q0-93-57-148t-147-67l175-318h-94l-170 311h-113l-49-311h-87zM195 380h134q175 0 175 153 1 58-34 85t-103 27h-130zM333 771l68 127h106l-108-127h-66z" glyph-name="Racute" horiz-adv-x="628" unicode="&#x154;"/><glyph d="M42 0l58 367q12 79 14 156h78q0-47-6-107 37 58 79 86.5t114 29.5l-12-78q-84-4-134-45.5t-65-136.5l-43-272h-83zM225 613l79 147h108l-121-147h-66z" glyph-name="racute" horiz-adv-x="374" unicode="&#x155;"/><glyph d="M48 0l113 715h211q98 0 158.5-47t59.5-135q0-93-57-148t-147-67l175-318h-94l-170 311h-113l-49-311h-87zM195 380h134q175 0 175 153 1 58-34 85t-103 27h-130zM229-220l-49 26 72 157 78-24z" glyph-name="Rcommaaccent" horiz-adv-x="628" unicode="&#x156;"/><glyph d="M42 0l58 367q12 79 14 156h78q0-47-6-107 37 58 79 86.5t114 29.5l-12-78q-84-4-134-45.5t-65-136.5l-43-272h-83zM17-220l-49 26 72 157 78-24z" glyph-name="rcommaaccent" horiz-adv-x="374" unicode="&#x157;"/><glyph d="M48 0l113 715h211q98 0 158.5-47t59.5-135q0-93-57-148t-147-67l175-318h-94l-170 311h-113l-49-311h-87zM195 380h134q175 0 175 153 1 58-34 85t-103 27h-130zM518 898l-124-127h-75l-91 127h58l77-58 93 58h62z" glyph-name="Rcaron" horiz-adv-x="628" unicode="&#x158;"/><glyph d="M42 0l58 367q12 79 14 156h78q0-47-6-107 37 58 79 86.5t114 29.5l-12-78q-84-4-134-45.5t-65-136.5l-43-272h-83zM422 757l-129-144h-75l-86 144h58l74-75 96 75h62z" glyph-name="rcaron" horiz-adv-x="374" unicode="&#x159;"/><glyph d="M300-9q-128 0-196.5 66t-69.5 161h86q3-67 48.5-112t136.5-45q79-1 123.5 37.5t44.5 103.5q0 49-32.5 77t-121.5 54q-109 32-158.5 73.5t-49.5 119.5q0 83 66.5 140.5t173.5 57.5q105 0 167-51.5t64-145.5h-80q-12 127-159 127-74 0-111.5-34.5t-37.5-90.5q0-43 31.5-68.5t123.5-53.5q112-34 160.5-76.5t48.5-119.5q0-96-70.5-158t-187.5-62zM339 771l68 127h106l-108-127h-66z" glyph-name="Sacute" horiz-adv-x="627" unicode="&#x15a;"/><glyph d="M229-9q-99 0-150.5 48.5t-53.5 121.5h81q7-101 126-101 107 0 107 86 0 33-23 51.5t-83 33.5q-87 22-123 55.5t-36 93.5q0 71 53.5 111.5t128.5 40.5q81 0 131-37.5t54-113.5h-78q-2 38-31.5 60t-77.5 22q-49 0-75.5-20.5t-26.5-57.5q0-30 22.5-47.5t83.5-32.5q85-21 123.5-54t38.5-101q0-72-52-115.5t-139-43.5zM239 613l79 147h108l-121-147h-66z" glyph-name="sacute" horiz-adv-x="480" unicode="&#x15b;"/><glyph d="M300-9q-128 0-196.5 66t-69.5 161h86q3-67 48.5-112t136.5-45q79-1 123.5 37.5t44.5 103.5q0 49-32.5 77t-121.5 54q-109 32-158.5 73.5t-49.5 119.5q0 83 66.5 140.5t173.5 57.5q105 0 167-51.5t64-145.5h-80q-12 127-159 127-74 0-111.5-34.5t-37.5-90.5q0-43 31.5-68.5t123.5-53.5q112-34 160.5-76.5t48.5-119.5q0-96-70.5-158t-187.5-62zM228 771l124 127h75l91-127h-58l-77 58-93-58h-62z" glyph-name="Scircumflex" horiz-adv-x="627" unicode="&#x15c;"/><glyph d="M229-9q-99 0-150.5 48.5t-53.5 121.5h81q7-101 126-101 107 0 107 86 0 33-23 51.5t-83 33.5q-87 22-123 55.5t-36 93.5q0 71 53.5 111.5t128.5 40.5q81 0 131-37.5t54-113.5h-78q-2 38-31.5 60t-77.5 22q-49 0-75.5-20.5t-26.5-57.5q0-30 22.5-47.5t83.5-32.5q85-21 123.5-54t38.5-101q0-72-52-115.5t-139-43.5zM127 613l129 144h75l86-144h-58l-74 75-96-75h-62z" glyph-name="scircumflex" horiz-adv-x="480" unicode="&#x15d;"/><glyph d="M232-214q-41 0-68 21.5t-31 62.5h56q4-36 42-36 40 0 40 38 0 15-10 23.5t-25 8.5q-14 0-26-8l-27 30 54 70q-98 16-150 77.5t-53 144.5h86q3-67 48.5-112t136.5-45q79-1 123.5 37.5t44.5 103.5q0 49-32.5 77t-121.5 54q-109 32-158.5 73.5t-49.5 119.5q0 83 66.5 140.5t173.5 57.5q105 0 167-51.5t64-145.5h-80q-12 127-159 127-74 0-111.5-34.5t-37.5-90.5q0-43 31.5-68.5t123.5-53.5q112-34 160.5-76.5t48.5-119.5q0-96-70.5-158t-187.5-62h-14l-33-44q32 3 56.5-16.5t24.5-55.5q0-43-27.5-66t-74.5-23z" glyph-name="Scedilla" horiz-adv-x="627" unicode="&#x15e;"/><glyph d="M169-214q-41 0-68 21.5t-31 62.5h56q4-36 42-36 40 0 40 38 0 15-10 23.5t-25 8.5q-14 0-26-8l-27 30 53 70q-72 13-109.5 58.5t-38.5 106.5h81q7-101 126-101 107 0 107 86 0 33-23 51.5t-83 33.5q-87 22-123 55.5t-36 93.5q0 71 53.5 111.5t128.5 40.5q81 0 131-37.5t54-113.5h-78q-2 38-31.5 60t-77.5 22q-49 0-75.5-20.5t-26.5-57.5q0-30 22.5-47.5t83.5-32.5q85-21 123.5-54t38.5-101q0-72-52-115.5t-139-43.5h-6l-33-44q32 3 56.5-16.5t24.5-55.5q0-43-27.5-66t-74.5-23z" glyph-name="scedilla" horiz-adv-x="480" unicode="&#x15f;"/><glyph d="M300-9q-128 0-196.5 66t-69.5 161h86q3-67 48.5-112t136.5-45q79-1 123.5 37.5t44.5 103.5q0 49-32.5 77t-121.5 54q-109 32-158.5 73.5t-49.5 119.5q0 83 66.5 140.5t173.5 57.5q105 0 167-51.5t64-145.5h-80q-12 127-159 127-74 0-111.5-34.5t-37.5-90.5q0-43 31.5-68.5t123.5-53.5q112-34 160.5-76.5t48.5-119.5q0-96-70.5-158t-187.5-62zM520 898l-124-127h-75l-91 127h58l77-58 93 58h62z" glyph-name="Scaron" horiz-adv-x="627" unicode="&#x160;"/><glyph d="M229-9q-99 0-150.5 48.5t-53.5 121.5h81q7-101 126-101 107 0 107 86 0 33-23 51.5t-83 33.5q-87 22-123 55.5t-36 93.5q0 71 53.5 111.5t128.5 40.5q81 0 131-37.5t54-113.5h-78q-2 38-31.5 60t-77.5 22q-49 0-75.5-20.5t-26.5-57.5q0-30 22.5-47.5t83.5-32.5q85-21 123.5-54t38.5-101q0-72-52-115.5t-139-43.5zM442 757l-129-144h-75l-86 144h58l74-75 96 75h62z" glyph-name="scaron" horiz-adv-x="480" unicode="&#x161;"/><glyph d="M194 0l101 644h-208l12 71h503l-12-71h-208l-101-644h-87zM174-220l-49 26 72 157 78-24z" glyph-name="Tcommaaccent" horiz-adv-x="561" unicode="&#x162;"/><glyph d="M204-7q-74 0-105.5 41.5t-21.5 108.5l49 310h-75l11 70h75l19 119h83l-19-119h119l-11-70h-119l-50-313q-7-42 7.5-59.5t50.5-17.5q32 0 62 11l-11-69q-27-12-64-12zM90-220l-49 26 72 157 78-24z" glyph-name="tcommaaccent" horiz-adv-x="343" unicode="&#x163;"/><glyph d="M194 0l101 644h-208l12 71h503l-12-71h-208l-101-644h-87zM511 898l-124-127h-75l-91 127h58l77-58 93 58h62z" glyph-name="Tcaron" horiz-adv-x="561" unicode="&#x164;"/><glyph d="M204-7q-74 0-105.5 41.5t-21.5 108.5l49 310h-75l11 70h75l19 119h83l-19-119h119l-11-70h-119l-50-313q-7-42 7.5-59.5t50.5-17.5q32 0 62 11l-11-69q-27-12-64-12zM311 598l38 175h91l-70-175h-59z" glyph-name="tcaron" horiz-adv-x="343" unicode="&#x165;"/><glyph d="M104 338l10 66h143l38 240h-208l12 71h503l-12-71h-208l-38-240h145l-10-66h-145l-53-338h-87l53 338h-143z" glyph-name="Tbar" horiz-adv-x="561" unicode="&#x166;"/><glyph d="M24 280l9 59h75l18 114h-75l11 70h75l19 119h83l-19-119h119l-11-70h-119l-18-114h119l-9-59h-120l-22-140q-7-42 7.5-59.5t50.5-17.5q32 0 62 11l-11-69q-27-12-64-12-74 0-105.5 41.5t-21.5 108.5l21 137h-74z" glyph-name="tbar" horiz-adv-x="343" unicode="&#x167;"/><glyph d="M325-9q-137 0-199.5 74.5t-39.5 217.5l69 432h87l-69-433q-18-117 20.5-168t135.5-51q83 0 130.5 46.5t64.5 151.5l72 454h87l-74-466q-20-122-90-190t-194-68zM490 774q-26 0-62.5 21.5t-48.5 21.5q-15 0-28-12.5t-18-32.5h-60q10 54 39 85t68 31q25 0 61.5-21.5t48.5-21.5q15 0 27.5 12t17.5 33h60q-10-54-38.5-85t-66.5-31z" glyph-name="Utilde" horiz-adv-x="696" unicode="&#x168;"/><glyph d="M545 523l-58-367q-14-91-11-156h-79q-3 47 5 104-66-113-182-113-85 0-126 54.5t-24 164.5l50 313h83l-53-332q-20-129 88-129 67 0 115.5 42t60.5 115l48 304h83zM402 619q-26 0-62.5 21.5t-48.5 21.5q-15 0-28-12.5t-18-32.5h-60q10 54 39 85t68 31q25 0 61.5-21.5t48.5-21.5q15 0 27.5 12t17.5 33h60q-10-54-38.5-85t-66.5-31z" glyph-name="utilde" horiz-adv-x="588" unicode="&#x169;"/><glyph d="M325-9q-137 0-199.5 74.5t-39.5 217.5l69 432h87l-69-433q-18-117 20.5-168t135.5-51q83 0 130.5 46.5t64.5 151.5l72 454h87l-74-466q-20-122-90-190t-194-68zM293 786l10 64h266l-10-64h-266z" glyph-name="Umacron" horiz-adv-x="696" unicode="&#x16a;"/><glyph d="M545 523l-58-367q-14-91-11-156h-79q-3 47 5 104-66-113-182-113-85 0-126 54.5t-24 164.5l50 313h83l-53-332q-20-129 88-129 67 0 115.5 42t60.5 115l48 304h83zM213 648l10 64h262l-10-64h-262z" glyph-name="umacron" horiz-adv-x="588" unicode="&#x16b;"/><glyph d="M325-9q-137 0-199.5 74.5t-39.5 217.5l69 432h87l-69-433q-18-117 20.5-168t135.5-51q83 0 130.5 46.5t64.5 151.5l72 454h87l-74-466q-20-122-90-190t-194-68zM426 767q-56 0-93 36.5t-37 95.5h66q8-64 65-64 61 0 73 64h64q-4-58-44.5-95t-93.5-37z" glyph-name="Ubreve" horiz-adv-x="696" unicode="&#x16c;"/><glyph d="M545 523l-58-367q-14-91-11-156h-79q-3 47 5 104-66-113-182-113-85 0-126 54.5t-24 164.5l50 313h83l-53-332q-20-129 88-129 67 0 115.5 42t60.5 115l48 304h83zM347 619q-56 0-93 36.5t-37 95.5h66q8-64 65-64 61 0 73 64h64q-4-58-44.5-95t-93.5-37z" glyph-name="ubreve" horiz-adv-x="588" unicode="&#x16d;"/><glyph d="M325-9q-137 0-199.5 74.5t-39.5 217.5l69 432h87l-69-433q-18-117 20.5-168t135.5-51q83 0 130.5 46.5t64.5 151.5l72 454h87l-74-466q-20-122-90-190t-194-68zM433 785q23 0 39 17t16 43q0 25-14 40.5t-37 15.5-39-17-16-43q0-25 14-40.5t37-15.5zM433 739q-44 0-74.5 29.5t-30.5 72.5q0 44 32 75t77 31q44 0 74.5-29.5t30.5-72.5q0-44-32-75t-77-31z" glyph-name="Uring" horiz-adv-x="696" unicode="&#x16e;"/><glyph d="M545 523l-58-367q-14-91-11-156h-79q-3 47 5 104-66-113-182-113-85 0-126 54.5t-24 164.5l50 313h83l-53-332q-20-129 88-129 67 0 115.5 42t60.5 115l48 304h83zM347 644q23 0 39 17t16 43q0 25-14 40.5t-37 15.5-39-17-16-43q0-25 14-40.5t37-15.5zM347 598q-44 0-74.5 29.5t-30.5 72.5q0 44 32 75t77 31q44 0 74.5-29.5t30.5-72.5q0-44-32-75t-77-31z" glyph-name="uring" horiz-adv-x="588" unicode="&#x16f;"/><glyph d="M325-9q-137 0-199.5 74.5t-39.5 217.5l69 432h87l-69-433q-18-117 20.5-168t135.5-51q83 0 130.5 46.5t64.5 151.5l72 454h87l-74-466q-20-122-90-190t-194-68zM313 771l46 127h96l-81-127h-61zM467 771l46 127h96l-81-127h-61z" glyph-name="Uhungarumlaut" horiz-adv-x="696" unicode="&#x170;"/><glyph d="M545 523l-58-367q-14-91-11-156h-79q-3 47 5 104-66-113-182-113-85 0-126 54.5t-24 164.5l50 313h83l-53-332q-20-129 88-129 67 0 115.5 42t60.5 115l48 304h83zM239 613l53 147h96l-88-147h-61zM393 613l53 147h96l-88-147h-61z" glyph-name="uhungarumlaut" horiz-adv-x="588" unicode="&#x171;"/><glyph d="M344-182q-43 0-71.5 20t-27.5 61q0 53 70 92-132 2-192 76.5t-37 215.5l69 432h87l-69-433q-18-117 20-168t135-51q83 0 131 46.5t65 151.5l72 454h87l-74-466q-25-162-140-226-9-5-39-18t-49.5-23.5-37-30-17.5-42.5q0-31 37-31 25 0 48 10l-9-59q-29-11-58-11z" glyph-name="Uogonek" horiz-adv-x="696" unicode="&#x172;"/><glyph d="M545 523l-58-367q-14-91-11-156-1-1-9.5-6t-11-6.5-10.5-7-11.5-8-10.5-8.5-10-9.5-7.5-9.5-7-11.5-4-12-1.5-12.5q0-31 37-31 25 0 48 10l-9-59q-29-11-58-11-43 0-71.5 20t-27.5 61q0 59 85 101-3 47 5 104-66-113-182-113-85 0-126 54.5t-24 164.5l50 313h83l-53-332q-20-129 88-129 67 0 115.5 42t60.5 115l48 304h83z" glyph-name="uogonek" horiz-adv-x="588" unicode="&#x173;"/><glyph d="M166 0l-73 715h87l54-583 253 583h56l78-585 235 585h83l-295-715h-81l-72 561-247-561h-78zM371 771l124 127h75l91-127h-58l-77 58-93-58h-62z" glyph-name="Wcircumflex" horiz-adv-x="890" unicode="&#x174;"/><glyph d="M135 0l-71 523h88l48-426 192 426h72l50-426 184 426h87l-240-523h-92l-45 397-182-397h-91zM289 613l129 144h75l86-144h-58l-74 75-96-75h-62z" glyph-name="wcircumflex" horiz-adv-x="767" unicode="&#x175;"/><glyph d="M217 0l49 312-175 403h93l138-332 232 332h89l-291-410-48-305h-87zM222 771l124 127h75l91-127h-58l-77 58-93-58h-62z" glyph-name="Ycircumflex" horiz-adv-x="592" unicode="&#x176;"/><glyph d="M44-182l140 241-124 464h85l94-375 199 375h89l-395-705h-88zM151 613l129 144h75l86-144h-58l-74 75-96-75h-62z" glyph-name="ycircumflex" horiz-adv-x="505" unicode="&#x177;"/><glyph d="M217 0l49 312-175 403h93l138-332 232 332h89l-291-410-48-305h-87zM281 789q-22 0-37.5 15t-15.5 37 16 38 38 16 37-15 15-37-15.5-38-37.5-16zM484 789q-22 0-37.5 15t-15.5 37 16 38 38 16 37-15 15-37-15.5-38-37.5-16z" glyph-name="Ydieresis" horiz-adv-x="592" unicode="&#x178;"/><glyph d="M-14 0l2 14 501 633h-365l11 68h489l-2-13-492-631h386l-11-71h-519zM337 771l68 127h106l-108-127h-66z" glyph-name="Zacute" horiz-adv-x="595" unicode="&#x179;"/><glyph d="M-21 0l2 12 366 441h-269l11 70h399l-3-15-357-435h288l-12-73h-425zM252 613l79 147h108l-121-147h-66z" glyph-name="zacute" horiz-adv-x="475" unicode="&#x17a;"/><glyph d="M-14 0l2 14 501 633h-365l11 68h489l-2-13-492-631h386l-11-71h-519zM383 787q-23 0-39 16t-16 38q0 23 17 39.5t39 16.5 38-15.5 16-38.5-16.5-39.5-38.5-16.5z" glyph-name="Zdotaccent" horiz-adv-x="595" unicode="&#x17b;"/><glyph d="M-21 0l2 12 366 441h-269l11 70h399l-3-15-357-435h288l-12-73h-425zM304 632q-23 0-39 16t-16 38 16.5 39 39.5 17 38.5-16 15.5-38q0-23-16.5-39.5t-38.5-16.5z" glyph-name="zdotaccent" horiz-adv-x="475" unicode="&#x17c;"/><glyph d="M-14 0l2 14 501 633h-365l11 68h489l-2-13-492-631h386l-11-71h-519zM533 898l-124-127h-75l-91 127h58l77-58 93 58h62z" glyph-name="Zcaron" horiz-adv-x="595" unicode="&#x17d;"/><glyph d="M-21 0l2 12 366 441h-269l11 70h399l-3-15-357-435h288l-12-73h-425zM451 757l-129-144h-75l-86 144h58l74-75 96 75h62z" glyph-name="zcaron" horiz-adv-x="475" unicode="&#x17e;"/><glyph d="M38 345l11 68h96l29 152q14 77 58 118t112 41q46 0 74-16l-10-65q-29 12-63 12-72 0-89-94l-28-148h132l-11-68h-133l-99-527h-83l99 527h-95z" glyph-name="florin" horiz-adv-x="397" unicode="&#x192;"/><glyph d="M500 0l-37 206h-295l-102-206h-84l359 715h114l129-715h-84zM384 643l-182-368h248zM410 749q-44 0-74.5 29.5t-30.5 72.5q0 44 32 75t77 31q44 0 74.5-29.5t30.5-72.5q0-44-32-75t-77-31zM391 986l68 127h106l-108-127h-66zM410 795q23 0 39 17t16 43q0 25-14 40.5t-37 15.5-39-17-16-43q0-25 14-40.5t37-15.5z" glyph-name="Aringacute" horiz-adv-x="650" unicode="&#x1fa;"/><glyph d="M197-8q-79 0-124 40t-45 108q0 167 254 167h101l6 38q10 61-13 89.5t-85 28.5q-105 0-125-94h-83q11 59 47 97t77 52 87 14q94 0 143.5-47t33.5-147l-29-182q-16-97-9-156h-78q-5 42-1 83-56-91-157-91zM208 57q61 0 103.5 34t52.5 100l9 57h-89q-90 0-132-24.5t-42-83.5q0-37 25-60t73-23zM326 624q23 0 39 17t16 43q0 25-14 40.5t-37 15.5-39-17-16-43q0-25 14-40.5t37-15.5zM326 578q-44 0-74.5 29.5t-30.5 72.5q0 44 32 75t77 31q44 0 74.5-29.5t30.5-72.5q0-44-32-75t-77-31zM312 829l68 127h106l-108-127h-66z" glyph-name="aringacute" horiz-adv-x="538" unicode="&#x1fb;"/><glyph d="M-13 0l466 715h505l-12-71h-326l-38-243h266l-11-71h-266l-41-259h348l-11-71h-435l32 207h-253l-133-207h-91zM493 644l-238-369h220l58 369h-40zM662 771l68 127h106l-108-127h-66z" glyph-name="AEacute" horiz-adv-x="950" unicode="&#x1fc;"/><glyph d="M458 211q0-151 138-151 109 0 139 91h81q-23-79-82-119.5t-141-40.5q-145 0-196 118-30-56-81.5-86.5t-116.5-30.5q-82 0-126.5 37.5t-44.5 104.5q0 62 37 102.5t93 57 129 16.5h97l6 35q10 61-13.5 89.5t-85.5 28.5q-105 0-125-94h-83q11 59 47 97t77 52 87 14q131 0 163-86 74 85 183 85 110 0 163-68t33-199l-3-17h-374q-1-12-1-36zM206 57q63 0 106 34t53 100l9 56h-90q-89 0-131.5-25.5t-42.5-84.5q0-36 24.5-58t71.5-22zM635 463q-60 0-104.5-37.5t-62.5-115.5h291q6 79-23.5 116t-100.5 37zM446 613l79 147h108l-121-147h-66z" glyph-name="aeacute" horiz-adv-x="875" unicode="&#x1fd;"/><glyph d="M73-33l-43 45 100 102q-62 84-62 198 0 172 111 292t273 120q123 0 207-68l84 86 43-45-83-84q70-87 70-211 0-176-109.5-293.5t-268.5-117.5q-135 0-223 77zM683 402q0 89-38 151l-419-429q64-62 170-62 127 0 207 96.5t80 243.5zM158 312q0-81 31-138l417 427q-61 53-155 53-131 0-212-99.5t-81-242.5zM441 771l68 127h106l-108-127h-66z" glyph-name="Oslashacute" horiz-adv-x="811" unicode="&#x1fe;"/><glyph d="M51-37l-40 38 72 77q-45 61-45 146 0 131 80 219t198 88q88 0 149-47l67 72 41-38-69-73q46-58 46-144 0-134-78.5-221.5t-200.5-87.5q-88 0-149 47zM275 60q87 0 137.5 67t50.5 172q0 50-16 85l-275-293q37-31 103-31zM124 224q0-53 15-87l275 293q-38 33-103 33-83 0-135-68t-52-171zM294 613l79 147h108l-121-147h-66z" glyph-name="oslashacute" horiz-adv-x="589" unicode="&#x1ff;"/><glyph d="M300-9q-128 0-196.5 66t-69.5 161h86q3-67 48.5-112t136.5-45q79-1 123.5 37.5t44.5 103.5q0 49-32.5 77t-121.5 54q-109 32-158.5 73.5t-49.5 119.5q0 83 66.5 140.5t173.5 57.5q105 0 167-51.5t64-145.5h-80q-12 127-159 127-74 0-111.5-34.5t-37.5-90.5q0-43 31.5-68.5t123.5-53.5q112-34 160.5-76.5t48.5-119.5q0-96-70.5-158t-187.5-62zM194-220l-49 26 72 157 78-24z" glyph-name="Scommaaccent" horiz-adv-x="627" unicode="&#x218;"/><glyph d="M229-9q-99 0-150.5 48.5t-53.5 121.5h81q7-101 126-101 107 0 107 86 0 33-23 51.5t-83 33.5q-87 22-123 55.5t-36 93.5q0 71 53.5 111.5t128.5 40.5q81 0 131-37.5t54-113.5h-78q-2 38-31.5 60t-77.5 22q-49 0-75.5-20.5t-26.5-57.5q0-30 22.5-47.5t83.5-32.5q85-21 123.5-54t38.5-101q0-72-52-115.5t-139-43.5zM130-220l-49 26 72 157 78-24z" glyph-name="scommaaccent" horiz-adv-x="480" unicode="&#x219;"/><glyph d="M-63-190l11 69q43 2 63.5 21.5t26.5 58.5l89 564h83l-90-569q-22-144-183-144z" glyph-name="uni0237" horiz-adv-x="255" unicode="&#x237;"/><glyph d="M110 613l129 144h75l86-144h-58l-74 75-96-75h-62z" glyph-name="circumflex" horiz-adv-x="400" unicode="&#x2c6;"/><glyph d="M422 757l-129-144h-75l-86 144h58l74-75 96 75h62z" glyph-name="caron" horiz-adv-x="400" unicode="&#x2c7;"/><glyph d="M268 619q-56 0-93 36.5t-37 95.5h66q8-64 65-64 61 0 73 64h64q-4-58-44.5-95t-93.5-37z" glyph-name="breve" horiz-adv-x="400" unicode="&#x2d8;"/><glyph d="M266 632q-23 0-39 16t-16 38 16.5 39 39.5 17 38.5-16 15.5-38q0-23-16.5-39.5t-38.5-16.5z" glyph-name="dotaccent" horiz-adv-x="400" unicode="&#x2d9;"/><glyph d="M267 644q23 0 39 17t16 43q0 25-14 40.5t-37 15.5-39-17-16-43q0-25 14-40.5t37-15.5zM267 598q-44 0-74.5 29.5t-30.5 72.5q0 44 32 75t77 31q44 0 74.5-29.5t30.5-72.5q0-44-32-75t-77-31z" glyph-name="ring" horiz-adv-x="400" unicode="&#x2da;"/><glyph d="M161-182q-43 0-71.5 20t-27.5 61q0 59 87 101h78q-2-1-14-8t-16.5-10.5-15-10.5-15.5-13-11.5-14-9-16.5-2.5-18.5q0-31 37-31 25 0 48 10l-9-59q-29-11-58-11z" glyph-name="ogonek" horiz-adv-x="400" unicode="&#x2db;"/><glyph d="M319 619q-26 0-62.5 21.5t-48.5 21.5q-15 0-28-12.5t-18-32.5h-60q10 54 39 85t68 31q25 0 61.5-21.5t48.5-21.5q15 0 27.5 12t17.5 33h60q-10-54-38.5-85t-66.5-31z" glyph-name="tilde" horiz-adv-x="400" unicode="&#x2dc;"/><glyph d="M146 613l53 147h96l-88-147h-61zM300 613l53 147h96l-88-147h-61z" glyph-name="hungarumlaut" horiz-adv-x="400" unicode="&#x2dd;"/><glyph d="M166 0l-73 715h87l54-583 253 583h56l78-585 235 585h83l-295-715h-81l-72 561-247-561h-78zM491 771l-80 127h101l39-127h-60z" glyph-name="Wgrave" horiz-adv-x="890" unicode="&#x1e80;"/><glyph d="M135 0l-71 523h88l48-426 192 426h72l50-426 184 426h87l-240-523h-92l-45 397-182-397h-91zM405 613l-88 147h102l47-147h-61z" glyph-name="wgrave" horiz-adv-x="767" unicode="&#x1e81;"/><glyph d="M166 0l-73 715h87l54-583 253 583h56l78-585 235 585h83l-295-715h-81l-72 561-247-561h-78zM486 771l68 127h106l-108-127h-66z" glyph-name="Wacute" horiz-adv-x="890" unicode="&#x1e82;"/><glyph d="M135 0l-71 523h88l48-426 192 426h72l50-426 184 426h87l-240-523h-92l-45 397-182-397h-91zM411 613l79 147h108l-121-147h-66z" glyph-name="wacute" horiz-adv-x="767" unicode="&#x1e83;"/><glyph d="M166 0l-73 715h87l54-583 253 583h56l78-585 235 585h83l-295-715h-81l-72 561-247-561h-78zM427 789q-22 0-37.5 15t-15.5 37 16 38 38 16 37-15 15-37-15.5-38-37.5-16zM630 789q-22 0-37.5 15t-15.5 37 16 38 38 16 37-15 15-37-15.5-38-37.5-16z" glyph-name="Wdieresis" horiz-adv-x="890" unicode="&#x1e84;"/><glyph d="M135 0l-71 523h88l48-426 192 426h72l50-426 184 426h87l-240-523h-92l-45 397-182-397h-91zM355 634q-22 0-37.5 15t-15.5 37 16 38 38 16 37-15 15-37-15.5-38-37.5-16zM543 634q-22 0-37.5 15t-15.5 37 16 38 38 16 37-15 15-37-15.5-38-37.5-16z" glyph-name="wdieresis" horiz-adv-x="767" unicode="&#x1e85;"/><glyph d="M217 0l49 312-175 403h93l138-332 232 332h89l-291-410-48-305h-87zM348 771l-80 127h101l39-127h-60z" glyph-name="Ygrave" horiz-adv-x="592" unicode="&#x1ef2;"/><glyph d="M44-182l140 241-124 464h85l94-375 199 375h89l-395-705h-88zM276 613l-88 147h102l47-147h-61z" glyph-name="ygrave" horiz-adv-x="505" unicode="&#x1ef3;"/><glyph glyph-name="uni2009" horiz-adv-x="100" unicode="&#x2009;"/><glyph d="M41 241l11 70h436l-11-70h-436z" glyph-name="endash" horiz-adv-x="526" unicode="&#x2013;"/><glyph d="M41 241l11 70h795l-11-70h-795z" glyph-name="emdash" horiz-adv-x="885" unicode="&#x2014;"/><glyph d="M157 488l-77 36 131 202 49-26z" glyph-name="quoteleft" horiz-adv-x="241" unicode="&#x2018;"/><glyph d="M136 488l-49 26 103 212 77-36z" glyph-name="quoteright" horiz-adv-x="241" unicode="&#x2019;"/><glyph d="M25-114l-47 26 102 212 76-36z" glyph-name="quotesinglbase" horiz-adv-x="241" unicode="&#x201a;"/><glyph d="M157 488l-77 36 131 202 49-26zM334 488l-77 36 131 202 49-26z" glyph-name="quotedblleft" horiz-adv-x="418" unicode="&#x201c;"/><glyph d="M136 488l-49 26 103 212 77-36zM313 488l-49 26 103 212 77-36z" glyph-name="quotedblright" horiz-adv-x="418" unicode="&#x201d;"/><glyph d="M25-114l-47 26 102 212 76-36zM202-114l-48 26 103 212 76-36z" glyph-name="quotedblbase" horiz-adv-x="418" unicode="&#x201e;"/><glyph d="M141 213l49 306h-116l10 67h116l21 129h75l-21-129h115l-10-67h-115l-49-306h-75z" glyph-name="dagger" horiz-adv-x="374" unicode="&#x2020;"/><glyph d="M172 409l18 110h-116l10 67h116l21 129h75l-21-129h115l-10-67h-115l-18-110h115l-10-67h-115l-21-129h-75l21 129h-116l10 67h116z" glyph-name="daggerdbl" horiz-adv-x="374" unicode="&#x2021;"/><glyph d="M168 190q-47 0-79 32.5t-32 78.5q0 51 34 86t86 35q48 0 80-32.5t32-78.5q0-51-34-86t-87-35z" glyph-name="bullet" horiz-adv-x="332" unicode="&#x2022;"/><glyph d="M108-5q-26 0-45 18.5t-19 45.5 18.5 45.5 44.5 18.5q27 0 46-18.5t19-45.5-19-45.5-45-18.5zM370-5q-26 0-45 18.5t-19 45.5 18.5 45.5 44.5 18.5q27 0 46-18.5t19-45.5-19-45.5-45-18.5zM632-5q-26 0-45 18.5t-19 45.5 18.5 45.5 44.5 18.5q27 0 46-18.5t19-45.5-19-45.5-45-18.5z" glyph-name="ellipsis" horiz-adv-x="806" unicode="&#x2026;"/><glyph d="M150 541q0-35 18.5-59t59.5-24 66.5 31.5 25.5 80.5q0 36-19 61.5t-58 25.5q-44 0-68.5-33t-24.5-83zM226 394q-66 0-108.5 43.5t-42.5 107.5q0 71 50 123.5t121 52.5q67 0 108-44t41-110q0-70-49.5-121.5t-119.5-51.5zM81 0l547 715h79l-547-715h-79zM459 139q0-35 18.5-59t59.5-24 66.5 31.5 25.5 80.5q0 36-19 61.5t-58 25.5q-44 0-68.5-33t-24.5-83zM535-8q-66 0-108.5 43.5t-42.5 107.5q0 71 50 123.5t121 52.5q67 0 108-44t41-110q0-70-49.5-121.5t-119.5-51.5zM826 139q0-35 18.5-59t59.5-24 66.5 31.5 25.5 80.5q0 36-19 61.5t-58 25.5q-44 0-68.5-33t-24.5-83zM902-8q-66 0-108.5 43.5t-42.5 107.5q0 71 50 123.5t121 52.5q67 0 108-44t41-110q0-70-49.5-121.5t-119.5-51.5z" glyph-name="perthousand" horiz-adv-x="1116" unicode="&#x2030;"/><glyph d="M73 470l65 245h94l-98-245h-61z" glyph-name="uni2032" horiz-adv-x="212" unicode="&#x2032;"/><glyph d="M73 470l65 245h94l-98-245h-61zM236 470l65 245h94l-98-245h-61z" glyph-name="uni2033" horiz-adv-x="375" unicode="&#x2033;"/><glyph d="M160 83l-102 179 158 177h85l-156-181 95-175h-80z" glyph-name="guilsinglleft" horiz-adv-x="322" unicode="&#x2039;"/><glyph d="M160 439l102-179-158-177h-85l156 181-95 175h80z" glyph-name="guilsinglright" horiz-adv-x="322" unicode="&#x203a;"/><glyph d="M-263 0l597 715h69l-597-715h-69z" glyph-name="fraction" horiz-adv-x="113" unicode="&#x2044;"/><glyph d="M53 394l9 58h72q26 122 100 197t191 75q103 0 161.5-57t61.5-162h-83q-2 65-38 108t-106 43q-157 0-201-204h232l-18-58h-224l-12-78h212l-18-58h-201q-2-38 4-70t22-61.5 50.5-47 84.5-17.5q146 0 187 164h80q-23-116-96-175.5t-174-59.5q-125 0-186 75.5t-57 191.5h-74l9 58h71l12 78h-71z" glyph-name="Euro" horiz-adv-x="668" unicode="&#x20ac;"/><glyph d="M352 393l51 322h75l54-226 124 226h80l-51-322h-56l39 251-142-251h-19l-65 251-39-251h-51zM142 393l44 278h-98l7 44h251l-7-44h-97l-44-278h-56z" glyph-name="trademark" horiz-adv-x="716" unicode="&#x2122;"/><glyph d="M125 373l43 274-89-54 9 61 99 61h60l-54-342h-68zM17 0l597 715h69l-597-715h-69zM542-5q-56 0-92 26.5t-37 84.5h63q2-28 18-44.5t47-16.5q27 0 46.5 15t19.5 44q0 49-55 49h-24l7 47h27q28 0 44 13t16 37q0 46-49 46-55 0-68-55h-60q6 48 42.5 76.5t87.5 28.5q49 0 80.5-22t31.5-68q0-28-18-49t-49-31q56-13 56-75 0-49-39.5-77.5t-94.5-28.5z" glyph-name="onethird" horiz-adv-x="732" unicode="&#x2153;"/><glyph d="M27 373l2 12 148 131q40 35 56 57t16 49q0 22-13 33.5t-33 11.5q-52 0-67-66h-62q9 55 45.5 86.5t87.5 31.5q46 0 77.5-24t31.5-72q0-36-21-63t-77-76l-69-60h138l-8-51h-252zM64 0l597 715h69l-597-715h-69zM580-5q-56 0-92 26.5t-37 84.5h63q2-28 18-44.5t47-16.5q27 0 46.5 15t19.5 44q0 49-55 49h-24l7 47h27q28 0 44 13t16 37q0 46-49 46-55 0-68-55h-60q6 48 42.5 76.5t87.5 28.5q49 0 80.5-22t31.5-68q0-28-18-49t-49-31q56-13 56-75 0-49-39.5-77.5t-94.5-28.5z" glyph-name="twothirds" horiz-adv-x="770" unicode="&#x2154;"/><glyph d="M125 373l43 274-89-54 9 61 99 61h60l-54-342h-68zM16 0l597 715h69l-597-715h-69zM533-5q-51 0-87.5 24t-36.5 72q0 72 77 95-41 20-41 63 0 44 36 70.5t86 26.5q43 0 77-22.5t34-65.5q0-54-60-77 50-23 50-77 0-52-39-80.5t-96-28.5zM477 98q0-24 15-38.5t44-14.5q27 0 46 15t19 45q0 25-15.5 40t-42.5 15-46.5-16.5-19.5-45.5zM509 247q0-20 14-32t35-12q26 0 41 13t15 38q0 19-14 31.5t-37 12.5-38.5-13.5-15.5-37.5z" glyph-name="oneeighth" horiz-adv-x="722" unicode="&#x215b;"/><glyph d="M186 368q-56 0-92 26.5t-37 84.5h63q2-28 18-44.5t47-16.5q27 0 46.5 15t19.5 44q0 49-55 49h-24l7 47h27q28 0 44 13t16 37q0 46-49 46-55 0-68-55h-60q6 48 42.5 76.5t87.5 28.5q49 0 80.5-22t31.5-68q0-28-18-49t-49-31q56-13 56-75 0-49-39.5-77.5t-94.5-28.5zM62 0l597 715h69l-597-715h-69zM569-5q-51 0-87.5 24t-36.5 72q0 72 77 95-41 20-41 63 0 44 36 70.5t86 26.5q43 0 77-22.5t34-65.5q0-54-60-77 50-23 50-77 0-52-39-80.5t-96-28.5zM513 98q0-24 15-38.5t44-14.5q27 0 46 15t19 45q0 25-15.5 40t-42.5 15-46.5-16.5-19.5-45.5zM545 247q0-20 14-32t35-12q26 0 41 13t15 38q0 19-14 31.5t-37 12.5-38.5-13.5-15.5-37.5z" glyph-name="threeeighths" horiz-adv-x="758" unicode="&#x215c;"/><glyph d="M177 368q-118 0-122 104h63q5-52 59-52 29 0 46.5 20t17.5 55q0 57-58 57-40 0-67-29h-35l35 192h210l-8-52h-159l-15-86q26 24 69 24 42 0 70-27t27-74q-1-60-37-95.5t-96-36.5zM55 0l597 715h69l-597-715h-69zM562-5q-51 0-87.5 24t-36.5 72q0 72 77 95-41 20-41 63 0 44 36 70.5t86 26.5q44 0 77.5-22.5t33.5-65.5q0-54-60-77 50-23 50-77 0-52-39-80.5t-96-28.5zM506 98q0-24 15-38.5t44-14.5q27 0 46 15t19 45q0 25-15.5 40t-42.5 15-46.5-16.5-19.5-45.5zM538 247q0-20 14-32t35-12q26 0 41 13t15 38q0 19-14 31.5t-37 12.5-38.5-13.5-15.5-37.5z" glyph-name="fiveeighths" horiz-adv-x="751" unicode="&#x215d;"/><glyph d="M83 373l153 287h-160l9 55h247l-2-8-176-334h-71zM0 0l597 715h69l-597-715h-69zM520-5q-51 0-87.5 24t-36.5 72q0 72 77 95-41 20-41 63 0 44 36 70.5t86 26.5q44 0 77.5-22.5t33.5-65.5q0-54-60-77 50-23 50-77 0-52-39-80.5t-96-28.5zM464 98q0-24 15-38.5t44-14.5q27 0 46 15t19 45q0 25-15.5 40t-42.5 15-46.5-16.5-19.5-45.5zM496 247q0-20 14-32t35-12q26 0 41 13t15 38q0 19-14 31.5t-37 12.5-38.5-13.5-15.5-37.5z" glyph-name="seveneighths" horiz-adv-x="709" unicode="&#x215e;"/><glyph d="M42 307l11 70h447l-11-70h-447z" glyph-name="minus" horiz-adv-x="519" unicode="&#x2212;"/><glyph d="M61 343q9 58 42 88.5t76 30.5q38 0 101.5-22t87.5-22q17 0 31.5 12t18.5 34h63q-9-58-41-88.5t-74-30.5q-40 0-104 22t-87 22q-39 0-51-46h-63zM32 166q9 58 42 88.5t76 30.5q38 0 101.5-22t87.5-22q17 0 31.5 12t18.5 34h63q-9-58-41-88.5t-74-30.5q-40 0-104 22t-87 22q-39 0-51-46h-63z" glyph-name="approxequal" horiz-adv-x="498" unicode="&#x2248;"/><glyph d="M57 376l11 72h210l52 103h76l-52-103h118l-11-72h-143l-55-108h181l-11-72h-206l-51-103h-76l51 103h-122l11 72h147l55 108h-185z" glyph-name="notequal" horiz-adv-x="484" unicode="&#x2260;"/><glyph d="M413 119l-351 208 3 20 416 202-13-83-281-132 238-138zM11 0l11 70h384l-11-70h-384z" glyph-name="lessequal" horiz-adv-x="504" unicode="&#x2264;"/><glyph d="M25 0l11 70h384l-11-70h-384zM111 549l351-208-3-20-416-202 13 83 281 132-238 138z" glyph-name="greaterequal" horiz-adv-x="504" unicode="&#x2265;"/><glyph d="M315 162v395h128q69 0 108-30.5t39-91.5v-3q0-61-38.5-91t-105.5-30h-55v-149h-76zM391 366h52q74 0 74 66v3q0 63-74 63h-52v-132zM432 33q131 0 225.5 92.5t94.5 233.5q0 140-93 231.5t-225 91.5q-134 0-227-92t-93-233 94.5-232.5 223.5-91.5zM432-9q-153 0-259.5 105.5t-106.5 260.5q0 153 107 260t261 107q155 0 260.5-106t105.5-259q0-156-106.5-262t-261.5-106z" glyph-name="uni24C5" horiz-adv-x="844" unicode="&#x24c5;"/><glyph d="M146 303q-7-47-7-79 0-161 140-161 80 0 122.5 51t61.5 169l20 126q7 47 7 80 0 165-137 165-78 0-123.5-55t-63.5-170zM279-9q-110 0-168.5 63.5t-57.5 167.5q0 41 7 88l20 126q23 144 93 216t181 72q113 0 167-63t54-171q0-46-7-89l-20-126q-46-284-269-284z" glyph-name="zero.tab" unicode="&#xe44f;"/><glyph d="M272 0l99 624-233-161 13 84 232 168h89l-113-715h-87z" glyph-name="one.tab" unicode="&#xe450;"/><glyph d="M-8 0l3 20 341 296q131 113 131 221 0 49-30 83t-84 34q-131 2-170-159h-82q18 114 87 172t170 57q85 0 141-50t56-135q0-79-45.5-143t-133.5-138l-221-187h337l-11-71h-489z" glyph-name="two.tab" unicode="&#xe451;"/><glyph d="M270-9q-110 0-175.5 59.5t-65.5 160.5h82q2-67 41.5-108.5t121.5-41.5q81 0 125 39.5t44 118.5q0 55-34 87t-103 32h-46l12 73h62q62 0 100.5 32t38.5 98q0 53-32 82.5t-89 29.5q-65 0-109-34.5t-60-100.5h-77q13 92 83 149t168 57q83 0 142.5-46t59.5-134q0-62-36.5-108t-99.5-64q52-17 80.5-56.5t28.5-96.5q0-105-72.5-166.5t-189.5-61.5z" glyph-name="three.tab" unicode="&#xe452;"/><glyph d="M347 0l23 150h-348l5 28 400 537h118l-78-494h84l-12-71h-84l-23-150h-85zM146 221h236l66 420z" glyph-name="four.tab" unicode="&#xe453;"/><glyph d="M265-9q-98 0-160 52.5t-66 149.5h84q8-132 143-132 82 0 129.5 53.5t47.5 145.5q0 64-36 102.5t-106 38.5q-93 0-166-69h-32l61 383h402l-12-75h-330l-34-214q58 45 140 45 91 0 147-57t56-150q0-117-75-195t-193-78z" glyph-name="five.tab" unicode="&#xe454;"/><glyph d="M290-9q-116 0-177 63.5t-61 183.5q0 36 9 97l5 31q11 70 33.5 130t59 113 94.5 84 131 31q92 0 143.5-45.5t55.5-127.5h-82q-6 49-34 75.5t-88 26.5q-49 0-89-23t-66.5-64-43.5-88-27-104q69 90 185 90 92 0 152-57.5t60-150.5q0-113-72.5-189t-187.5-76zM137 211q0-66 39-109t115-43 123 55 47 138q0 62-37.5 103t-110.5 41q-77 0-126.5-51.5t-49.5-133.5z" glyph-name="six.tab" unicode="&#xe455;"/><glyph d="M123 0l357 645h-369l11 70h481l-2-12-389-703h-89z" glyph-name="seven.tab" unicode="&#xe456;"/><glyph d="M282-9q-96 0-166.5 52t-70.5 143q0 77 44.5 131t120.5 76q-41 19-64.5 55t-23.5 79q0 86 67.5 141.5t164.5 55.5q82 0 144-49t62-129q0-118-133-162 52-21 82.5-65.5t30.5-99.5q0-106-74-167t-184-61zM134 197q0-61 43-98t110-37q74 0 119 41t45 115q0 60-41 96t-104 36q-76 0-124-40t-48-113zM209 530q0-47 36-79t94-32q57 0 95.5 30.5t38.5 92.5q0 49-35 81.5t-91 32.5q-59 0-98.5-32.5t-39.5-93.5z" glyph-name="eight.tab" unicode="&#xe457;"/><glyph d="M253-8q-92 0-151.5 45.5t-66.5 138.5h85q9-62 43-87.5t97-25.5q82 0 137.5 68.5t77.5 204.5q-30-40-78.5-62t-105.5-22q-89 0-150 55.5t-61 151.5q0 115 75.5 190.5t192.5 75.5q110 0 168-63.5t59-179.5q0-52-8-100l-7-44q-56-346-307-346zM169 463q0-65 35-104t99-39q83 0 136 47.5t53 136.5q0 65-36.5 109t-110.5 44q-78 0-127-54.5t-49-139.5z" glyph-name="nine.tab" unicode="&#xe458;"/><glyph d="M224-135l21 132q-86 16-135.5 77.5t-49.5 153.5q0 136 79 218t190 85l16 98h59l-16-102q71-12 115.5-57.5t47.5-122.5h-79q-4 92-95 111l-63-398q54 2 93 33t53 93h79q-20-94-83.5-143.5t-152.5-50.5l-20-127h-59zM145 228q0-138 111-163l62 396q-76-5-124.5-67t-48.5-166z" glyph-name="cent.tab" unicode="&#xe459;"/><glyph d="M291-9h-5l-20-126h-59l20 131q-99 16-151 77.5t-53 144.5h84q2-56 34-98t97-55l44 274q-95 30-138 71.5t-43 115.5q0 82 68 139.5t174 58.5l14 89h59l-15-94q80-13 127.5-62.5t49.5-129.5h-78q-10 101-110 123l-40-251q103-32 148.5-74t45.5-116q0-96-68.5-157t-184.5-61zM460 201q0 45-26 71.5t-96 49.5l-41-262q78 1 120.5 38.5t42.5 102.5zM183 529q0-39 23.5-64t87.5-48l38 238q-73-1-111-36t-38-90z" glyph-name="dollar.tab" unicode="&#xe45a;"/></font>
</defs>
</svg>
