<?xml version="1.0" standalone="no"?>
<!DOCTYPE svg PUBLIC "-//W3C//DTD SVG 1.1//EN" "http://www.w3.org/Graphics/SVG/1.1/DTD/svg11.dtd" >
<svg>
<metadata>
Created by FontForge 20120731 at Thu May  5 19:40:38 2016
 By ,,,
Copyright (c) Carter &#38; Cone Type, Inc., 2003. All rights reserved.
</metadata>
<defs>
<font id="MillerDisplay-LightItalic" horiz-adv-x="500" >
  <font-face 
    font-family="MillerDisplay LightItalic"
    font-weight="300"
    font-style="italic"
    font-stretch="normal"
    units-per-em="1000"
    panose-1="2 0 5 3 8 0 0 2 0 4"
    ascent="764"
    descent="-236"
    x-height="459"
    cap-height="683"
    bbox="-237 -240 1142 932"
    underline-thickness="20"
    underline-position="-113"
    unicode-range="U+000D-FB02"
  />
<missing-glyph 
 />
    <glyph glyph-name="fi" unicode="fi" horiz-adv-x="555" 
d="M423 420h-202q-83 -319 -107 -396q-41 -130 -109 -200q-60 -60 -128 -60q-47 0 -68 21.5t-21 51.5q0 16 12 30.5t32 14.5q17 0 31.5 -10.5t14.5 -30.5q0 -6 -2 -12.5t-4 -10t-7 -11.5t-6 -10q1 -8 7.5 -13t12.5 -5q55 0 92 49.5t73 167.5q26 84 113 424h-106l7 25h106
l11 40q33 121 103 189q71 69 156 69q51 0 82.5 -20.5t31.5 -55.5q0 -18 -11.5 -30.5t-32.5 -12.5q-16 0 -32 9.5t-16 27.5q0 11 7 27.5t8 24.5q-1 6 -14 10.5t-23 4.5q-63 0 -109 -51t-78 -162l-20 -70h270q-12 -74 -49 -170l-57 -147q-23 -60 -23 -90q0 -32 36 -32
q63 0 117 138l12 -4q-31 -76 -62 -113.5t-80 -37.5q-80 0 -80 78q0 29 20 83l67 170q25 63 25 100z" />
    <glyph glyph-name="fl" unicode="fl" horiz-adv-x="574" 
d="M509 635q-11 -8 -25 -8q-15 0 -28 9t-13 26q0 9 6 23.5t7 20.5q-4 14 -10.5 18t-21.5 4q-116 0 -177 -213l-20 -70h126l-8 -25h-124q-83 -319 -107 -396q-41 -130 -109 -200q-60 -60 -128 -60q-47 0 -68 21.5t-21 51.5q0 16 12 30.5t32 14.5q17 0 31.5 -10.5t14.5 -30.5
q0 -6 -2 -12.5t-4 -10t-7 -11.5t-6 -10q1 -8 7.5 -13t12.5 -5q55 0 92 49.5t73 167.5q26 84 113 424h-106l7 25h106l11 40q33 117 99 185q71 73 160 73q57 0 80 -39l95 38l-197 -616q-19 -58 -19 -87q0 -32 34 -32q66 0 119 137l12 -4q-31 -76 -62.5 -113.5t-80.5 -37.5
q-78 0 -78 77q0 26 18 84q4 14 11.5 37.5t28 87t38 119.5t36 114t29.5 92z" />
    <glyph glyph-name="f_f_l" unicode="ffl" horiz-adv-x="872" 
d="M457 420h-236q-83 -319 -107 -396q-41 -130 -109 -200q-60 -60 -128 -60q-47 0 -68 21.5t-21 51.5q0 16 12 30.5t32 14.5q17 0 31.5 -10.5t14.5 -30.5q0 -6 -2 -12.5t-4 -10t-7 -11.5t-6 -10q1 -8 7.5 -13t12.5 -5q55 0 92 49.5t73 167.5q26 84 113 424h-106l7 25h106
l11 40q28 109 103.5 179t172.5 70q49 0 78 -21.5t31 -55.5q2 2 6 6.5t6 6.5q71 73 160 73q57 0 80 -39l95 38l-197 -616q-19 -58 -19 -87q0 -32 34 -32q66 0 119 137l12 -4q-31 -76 -62.5 -113.5t-80.5 -37.5q-78 0 -78 77q0 26 18 84q4 14 11.5 37.5t28 87t38 119.5t36 114
t29.5 92l11 35q-11 -8 -25 -8q-15 0 -28 9t-13 26q0 9 6 23.5t7 20.5q-4 14 -10.5 18t-21.5 4q-116 0 -177 -213l-20 -70h126l-8 -25h-124q-83 -319 -107 -396q-41 -130 -109 -200q-60 -60 -128 -60q-47 0 -68 21.5t-21 51.5q0 16 12 30.5t32 14.5q17 0 31.5 -10.5
t14.5 -30.5q0 -6 -2 -12.5t-4 -10t-7 -11.5t-6 -10q1 -8 7.5 -13t12.5 -5q55 0 92 49.5t73 167.5q35 117 115 424zM530 616q-2 0 -6.5 -0.5t-7.5 -0.5q-16 0 -32 9.5t-16 27.5q0 11 7 27.5t8 24.5q-1 6 -16.5 10.5t-25.5 4.5q-136 0 -194 -204l-20 -70h236l10 40
q20 75 57 131z" />
    <glyph glyph-name="f_f_i" unicode="ffi" horiz-adv-x="853" 
d="M457 420h-236q-83 -319 -107 -396q-41 -130 -109 -200q-60 -60 -128 -60q-47 0 -68 21.5t-21 51.5q0 16 12 30.5t32 14.5q17 0 31.5 -10.5t14.5 -30.5q0 -6 -2 -12.5t-4 -10t-7 -11.5t-6 -10q1 -8 7.5 -13t12.5 -5q55 0 92 49.5t73 167.5q26 84 113 424h-106l7 25h106
l11 40q28 109 103.5 179t172.5 70q49 0 78 -21.5t31 -55.5q5 6 16 17q71 69 156 69q51 0 82.5 -20.5t31.5 -55.5q0 -18 -11.5 -30.5t-32.5 -12.5q-16 0 -32 9.5t-16 27.5q0 11 7 27.5t8 24.5q-1 6 -14 10.5t-23 4.5q-63 0 -109 -51t-78 -162l-20 -70h270q-12 -74 -49 -170
l-57 -147q-23 -60 -23 -90q0 -32 36 -32q63 0 117 138l12 -4q-31 -76 -62 -113.5t-80 -37.5q-80 0 -80 78q0 29 20 83l67 170q25 63 25 100h-202q-83 -319 -107 -396q-41 -130 -109 -200q-60 -60 -128 -60q-47 0 -68 21.5t-21 51.5q0 16 12 30.5t32 14.5q17 0 31.5 -10.5
t14.5 -30.5q0 -6 -2 -12.5t-4 -10t-7 -11.5t-6 -10q1 -8 7.5 -13t12.5 -5q55 0 92 49.5t73 167.5q35 117 115 424zM530 616q-2 0 -6.5 -0.5t-7.5 -0.5q-16 0 -32 9.5t-16 27.5q0 11 7 27.5t8 24.5q-1 6 -16.5 10.5t-25.5 4.5q-136 0 -194 -204l-20 -70h236l10 40
q20 77 57 131z" />
    <glyph glyph-name="f_j" unicode="fj" horiz-adv-x="542" 
d="M247 515l-20 -70h283q-6 -53 -30 -142q-48 -186 -77 -281q-24 -78 -59 -134q-79 -124 -179 -124q-39 0 -60.5 20.5t-21.5 47.5q0 19 11.5 32.5t30.5 13.5t31 -11t12 -28q0 -21 -17 -42q2 -18 17 -18q54 0 91 49t72 166q32 107 97 354q7 29 13 72h-220q-83 -319 -107 -396
q-41 -130 -109 -200q-60 -60 -128 -60q-47 0 -68 21.5t-21 51.5q0 16 12 30.5t32 14.5q17 0 31.5 -10.5t14.5 -30.5q0 -6 -2 -12.5t-4 -10t-7 -11.5t-6 -10q1 -8 7.5 -13t12.5 -5q55 0 92 49.5t73 167.5q26 84 113 424h-106l7 25h106l11 40q33 121 103 189q71 69 156 69
q51 0 82.5 -20.5t31.5 -55.5q0 -18 -11.5 -30.5t-32.5 -12.5q-16 0 -32 9.5t-16 27.5q0 11 7 27.5t8 24.5q-1 6 -14 10.5t-23 4.5q-63 0 -109 -51t-78 -162z" />
    <glyph glyph-name="f_f" unicode="ff" horiz-adv-x="605" 
d="M560 657q2 2 6 6.5t6 6.5q71 73 160 73q44 0 66.5 -21.5t22.5 -49.5q0 -20 -12 -34t-32 -14q-16 0 -32 9.5t-16 27.5q0 11 7 27.5t8 24.5q0 15 -22 15q-116 0 -177 -213l-20 -70h126l-8 -25h-124q-83 -319 -107 -396q-41 -130 -109 -200q-60 -60 -128 -60q-47 0 -68 21.5
t-21 51.5q0 16 12 30.5t32 14.5q17 0 31.5 -10.5t14.5 -30.5q0 -6 -2 -12.5t-4 -10t-7 -11.5t-6 -10q1 -8 7.5 -13t12.5 -5q55 0 92 49.5t73 167.5q26 84 113 424h-234q-83 -319 -107 -396q-41 -130 -109 -200q-60 -60 -128 -60q-47 0 -68 21.5t-21 51.5q0 16 12 30.5
t32 14.5q17 0 31.5 -10.5t14.5 -30.5q0 -6 -2 -12.5t-4 -10t-7 -11.5t-6 -10q1 -8 7.5 -13t12.5 -5q55 0 92 49.5t73 167.5q26 84 113 424h-106l7 25h106l11 40q28 109 103.5 179t172.5 70q50 0 78.5 -21.5t30.5 -55.5zM530 616q-2 0 -6.5 -0.5t-7.5 -0.5q-16 0 -32 9.5
t-16 27.5q0 11 7 27.5t8 24.5q-1 6 -16.5 10.5t-25.5 4.5q-136 0 -194 -204l-20 -70h235l11 40q20 75 57 131z" />
    <glyph glyph-name=".notdef" 
 />
    <glyph glyph-name=".notdef" 
 />
    <glyph glyph-name=".null" horiz-adv-x="0" 
 />
    <glyph glyph-name="nonmarkingreturn" horiz-adv-x="333" 
 />
    <glyph glyph-name="CR" unicode="&#xd;" horiz-adv-x="0" 
 />
    <glyph glyph-name="space" unicode=" " horiz-adv-x="228" 
 />
    <glyph glyph-name="exclam" unicode="!" horiz-adv-x="310" 
d="M313 655q0 -30 -148 -444l-21 4q13 68 30.5 171t29 174.5t15.5 85.5q14 51 55 51q39 0 39 -42zM167 44q0 -22 -15 -37t-38 -15t-38 15t-15 37t15.5 37.5t37.5 15.5t37.5 -15.5t15.5 -37.5z" />
    <glyph glyph-name="quotedbl" unicode="&#x22;" horiz-adv-x="376" 
d="M418 685q0 -8 -3.5 -19.5t-11.5 -31t-16.5 -39t-24 -55.5t-29.5 -68h-12q5 78 5 195q0 70 48 70q44 0 44 -52zM223 685q0 -8 -3.5 -19.5t-11.5 -31t-16.5 -39t-24 -55.5t-29.5 -68h-12q5 78 5 195q0 70 48 70q44 0 44 -52z" />
    <glyph glyph-name="numbersign" unicode="#" horiz-adv-x="572" 
d="M477 242l-121 -28l-59 -221h-14l58 216l-125 -29l-50 -187h-13l48 182l-121 -28l20 74l121 28l29 108l-121 -28l19 73l122 28l53 197h13l-52 -192l125 29l44 163h14l-43 -158l122 28l-20 -74l-122 -28l-29 -108l122 28zM360 283l29 108l-125 -30l-29 -108z" />
    <glyph glyph-name="dollar" unicode="$" horiz-adv-x="593" 
d="M282 -1h-15q-34 0 -67 5l-36 -146h-13l37 149q-64 14 -95 49t-31 72q0 33 19.5 58.5t48.5 25.5q19 0 30 -10.5t11 -28.5q0 -17 -6.5 -26.5t-19.5 -18.5t-19 -16q-3 -16 -2 -32.5t18.5 -32.5t49.5 -24l66 266q-117 36 -117 128q0 73 52 129.5t146 65.5l25 101h13l-25 -100
q7 1 21 1q34 0 61 -6l26 105h13l-27 -107q55 -13 83 -42.5t28 -60.5q0 -30 -16 -53.5t-39 -23.5q-18 0 -29.5 9t-11.5 24q0 18 8.5 29t21.5 21t19 20q-1 16 -16 33.5t-52 27.5l-63 -254q67 -18 99.5 -47t32.5 -76q0 -87 -57 -146t-159 -67l-35 -142h-13zM361 265l-62 -248
q69 9 110.5 49.5t41.5 91.5q0 46 -19.5 69.5t-70.5 37.5zM286 16l63 252q-6 2 -38 9q-7 2 -20.5 5t-20.5 4l-66 -266q28 -5 63 -5q13 0 19 1zM430 593q-26 6 -62 6q-13 0 -20 -1l-60 -241q24 -6 54 -12q9 -2 25 -6zM335 596q-61 -9 -96.5 -47t-35.5 -86q0 -43 17 -65.5
t56 -36.5l6 25q6 24 15 58.5t17.5 69t14.5 58.5z" />
    <glyph glyph-name="percent" unicode="%" horiz-adv-x="810" 
d="M402 494q0 -80 -64.5 -137t-135.5 -57q-53 0 -88 34t-35 89q0 76 58 136t130 60q56 0 95.5 -34.5t39.5 -90.5zM747 676l-652 -774l-16 10l651 774zM760 181q0 -80 -64.5 -137t-135.5 -57q-53 0 -88 34t-35 89q0 76 58 136t130 60q56 0 95.5 -34.5t39.5 -90.5zM336 516
q0 38 -18 62.5t-48 24.5q-53 0 -89 -65t-36 -136q0 -85 57 -85q54 0 94 60.5t40 138.5zM694 203q0 38 -18 62.5t-48 24.5q-53 0 -89 -65t-36 -136q0 -85 57 -85q54 0 94 60.5t40 138.5z" />
    <glyph glyph-name="ampersand" unicode="&#x26;" horiz-adv-x="828" 
d="M835 575q0 -60 -38.5 -92.5t-116.5 -28.5q86 -49 86 -167q0 -40 -10.5 -79.5t-38 -81t-70 -72.5t-111.5 -51t-157 -20q-125 0 -212.5 65.5t-87.5 161.5q0 40 17 70t36.5 44.5t52.5 32.5q-67 47 -67 120q0 56 45.5 98t119.5 42q114 0 150 -124l-11 -6q-26 42 -55.5 63
t-72.5 21q-60 0 -93.5 -33t-33.5 -90q0 -49 36 -82q51 17 87 17q26 0 41 -10.5t15 -27.5q0 -14 -11 -24t-28 -10q-63 0 -109 39q-67 -30 -72 -92q-7 -85 76.5 -151t249.5 -66q75 0 133 23t91.5 61t50 82t16.5 90q0 82 -40 124t-102 42q-52 0 -84.5 -29.5t-32.5 -75.5
q0 -40 24.5 -63t57.5 -23q34 0 46 15q-17 7 -25.5 11.5t-16.5 15t-8 25.5q0 22 13 32t29 10q57 0 57 -53q0 -28 -21 -50t-59 -22q-47 0 -86 33.5t-39 88.5q0 49 29 79.5t63.5 39.5t74.5 9q13 0 54 -2.5t52 -2.5q41 0 66 21.5t25 57.5q0 42 -21 63.5t-52 21.5q-19 0 -27.5 -9
t-8.5 -18q2 -2 11.5 -6.5t16 -11.5t6.5 -19q0 -38 -38 -38q-20 0 -35 13t-15 39q0 24 22.5 43t61.5 19q43 0 68.5 -27t25.5 -75z" />
    <glyph glyph-name="quotesingle" unicode="'" horiz-adv-x="181" 
d="M223 685q0 -8 -3.5 -19.5t-11.5 -31t-16.5 -39t-24 -55.5t-29.5 -68h-12q5 78 5 195q0 70 48 70q44 0 44 -52z" />
    <glyph glyph-name="parenleft" unicode="(" horiz-adv-x="341" 
d="M71 193q0 -104 38 -182.5t113 -149.5l-25 -19q-162 146 -162 343q0 326 351 561l18 -24q-166 -110 -249.5 -244.5t-83.5 -284.5z" />
    <glyph glyph-name="parenright" unicode=")" horiz-adv-x="341" 
d="M282 395q0 104 -38 182.5t-113 149.5l25 19q162 -146 162 -343q0 -326 -351 -561l-18 24q166 110 249.5 244.5t83.5 284.5z" />
    <glyph glyph-name="asterisk" unicode="*" horiz-adv-x="389" 
d="M369 453q-6 -22 -27 -17q-5 1 -17 16.5t-31 42t-34 43.5q-3 -19 -6 -47t-5 -48.5t-3 -25.5q-6 -20 -27 -14q-20 6 -15 26q2 6 9.5 23.5t19.5 43.5t19 44q-22 -7 -52.5 -19.5t-49 -20t-23.5 -6.5q-7 2 -11.5 10.5t-2.5 16.5q3 10 17.5 14.5t55 7.5t66.5 7q-15 12 -34 26
t-31 22.5t-23 17.5t-15.5 16t-2.5 14q2 8 10 13t15 3t19.5 -18t31.5 -42t35 -43q14 119 14 121q2 9 9.5 13.5t16.5 1.5q22 -7 16 -26q-2 -6 -21 -47.5t-28 -64.5q21 8 52 21.5t48.5 20.5t24.5 5q18 -6 13 -27q-3 -10 -18 -14.5t-54.5 -8t-64.5 -7.5q14 -11 33 -24.5
t30.5 -22t22.5 -17.5t15.5 -16.5t2.5 -13.5z" />
    <glyph glyph-name="plus" unicode="+" horiz-adv-x="556" 
d="M525 245h-227v-226h-28v226h-227v29h227v227h28v-227h227v-29z" />
    <glyph glyph-name="comma" unicode="," horiz-adv-x="206" 
d="M141 38q0 -57 -41.5 -102t-98.5 -74l-4 12q41 22 72.5 57.5t35.5 70.5h-23q-55 0 -55 44q0 22 15.5 39t40.5 17q28 0 43 -17.5t15 -46.5z" />
    <glyph glyph-name="hyphen" unicode="-" horiz-adv-x="387" 
d="M347 222h-308l14 54h308z" />
    <glyph glyph-name="period" unicode="." horiz-adv-x="206" 
d="M139 47q0 -23 -16 -39t-39 -16t-39 16t-16 39t16.5 39t38.5 16q23 0 39 -16t16 -39z" />
    <glyph glyph-name="slash" unicode="/" horiz-adv-x="402" 
d="M503 743l-568 -952l-28 9l568 952z" />
    <glyph glyph-name="zero" unicode="0" horiz-adv-x="590" 
d="M569 388q0 -159 -93.5 -280.5t-216.5 -121.5q-97 0 -152.5 64t-55.5 164q0 159 100 282.5t223 123.5q90 0 142.5 -59.5t52.5 -172.5zM494 440q0 70 -29 117t-83 47q-63 0 -123 -66.5t-96.5 -169.5t-36.5 -206q0 -68 35 -114t87 -46q64 0 122.5 70t91 171t32.5 197z" />
    <glyph glyph-name="one" unicode="1" horiz-adv-x="403" 
d="M367 619q-33 -74 -54 -150l-109 -393q-3 -12 -3 -20q0 -18 21 -28q8 -4 31.5 -9t37.5 -6l-2 -13h-279l2 13q55 3 75 10q32 11 43 49l131 467q-15 -4 -37 -4q-52 0 -102 58l7 7q46 -23 98 -23q16 0 31 2.5t29.5 8t23 9t23.5 12t20 10.5h13z" />
    <glyph glyph-name="two" unicode="2" horiz-adv-x="545" 
d="M520 483q0 -106 -87 -192.5t-284 -184.5l-52 -38h238q43 0 66 19.5t61 75.5q6 9 9 14l10 -6l-92 -171h-382l5 25q160 106 286 215q145 126 145 257q0 107 -99 107q-72 0 -133.5 -60.5t-61.5 -120.5q0 -74 66 -74q17 0 34.5 8t26.5 15.5t30 26.5l7 -7q-37 -41 -68 -57
t-69 -16q-39 0 -64 24.5t-25 62.5q0 74 85.5 144t186.5 70q80 0 120.5 -36t40.5 -101z" />
    <glyph glyph-name="three" unicode="3" horiz-adv-x="537" 
d="M534 495q0 -57 -49 -100.5t-140 -57.5l-21 -13h37q56 0 86 -28t30 -82q0 -106 -83 -173t-205 -67q-77 0 -132.5 33.5t-55.5 92.5q0 35 23 63.5t58 28.5q20 0 31.5 -9.5t11.5 -25.5q0 -21 -10 -32.5t-21.5 -14t-21.5 -11.5t-10 -27q0 -37 29.5 -59.5t77.5 -22.5
q90 0 163 76t73 168q0 36 -19.5 56t-52.5 20q-6 0 -12 -1t-13 -3t-12 -4t-12.5 -6t-12 -6.5t-13 -8t-12 -8t-13 -9t-12.5 -8.5l-11 19q141 71 198.5 121.5t57.5 117.5q0 90 -100 90q-56 0 -112 -42t-56 -100q0 -49 55 -49q39 0 75 31l7 -9q-67 -59 -127 -59q-28 0 -50 19.5
t-22 52.5q0 63 78.5 117.5t173.5 54.5q74 0 110 -35.5t36 -89.5z" />
    <glyph glyph-name="four" unicode="4" horiz-adv-x="502" 
d="M282 42l89 253h66l-93 -260q45 3 72 21.5t58 56.5l8 -7q-40 -55 -61 -72q-37 -30 -90 -34l-63 -177h-63l65 184q-1 0 -69.5 20t-119.5 20q-8 0 -30 -2q-48 -41 -71 -41q-35 0 -35 24q0 29 100 29q124 111 256 563h87q-142 -439 -324 -563q33 4 73 4q29 0 56 -3.5t53 -9
t36 -6.5z" />
    <glyph glyph-name="five" unicode="5" horiz-adv-x="499" 
d="M552 625q-49 -67 -112.5 -92t-142.5 -25q-45 0 -70 7l-82 -180q58 38 129 38q79 0 126.5 -41.5t47.5 -114.5q0 -96 -76.5 -163.5t-199.5 -67.5q-72 0 -118 34.5t-46 80.5q0 32 20.5 49.5t43.5 17.5q39 0 39 -37q0 -16 -14 -32.5t-16 -28.5q0 -29 23.5 -49.5t63.5 -20.5
q88 0 146.5 73.5t58.5 170.5q0 112 -115 112q-95 0 -136 -76l-17 3l149 334h16q28 -39 132 -39q76 0 143 53z" />
    <glyph glyph-name="six" unicode="6" horiz-adv-x="531" 
d="M580 613q0 -27 -12.5 -44t-35.5 -17q-41 0 -43 61q-1 35 -12 50t-46 15q-69 0 -152.5 -100.5t-133.5 -243.5l2 -2q77 92 183 92q72 0 110 -45.5t38 -123.5q0 -98 -72.5 -183.5t-180.5 -85.5q-85 0 -130 54t-45 157q0 117 61 234.5t158.5 193t197.5 75.5q61 0 87 -25.5
t26 -61.5zM406 278q0 55 -29.5 87.5t-81.5 32.5q-74 0 -131.5 -74t-57.5 -179q0 -66 28 -104t79 -38q54 0 99.5 44.5t69.5 107t24 123.5z" />
    <glyph glyph-name="seven" unicode="7" horiz-adv-x="491" 
d="M577 595l-2 -9q-93 -101 -158 -190q-91 -126 -143.5 -228.5t-82.5 -209.5q-2 -6 -4.5 -16.5t-4 -15.5t-4 -13t-4.5 -11.5t-5.5 -8.5t-7.5 -7t-9.5 -3.5t-11.5 -1.5q-43 0 -43 43q0 74 179 316q103 138 228 288h-255q-57 0 -94.5 -34t-80.5 -104l-12 4l128 257h11l-7 -56
h383z" />
    <glyph glyph-name="eight" unicode="8" horiz-adv-x="532" 
d="M370 325q42 -18 72 -51t30 -80q0 -93 -72.5 -151.5t-168.5 -58.5q-83 0 -138.5 42.5t-55.5 107.5q0 60 53.5 111.5t121.5 70.5v3q-83 41 -83 124q0 71 64.5 127.5t155.5 56.5q73 0 119 -37t48 -96q1 -59 -39 -103t-107 -64v-2zM345 335q63 19 98 68t33 99
q-2 48 -37.5 78.5t-91.5 30.5q-68 0 -109 -42t-41 -92q0 -49 27 -75.5t121 -66.5zM238 308q-68 -23 -109.5 -74t-41.5 -111q0 -51 38 -87t108 -36t120 45t50 106q0 29 -4 45.5t-20.5 36t-49.5 36.5t-91 39z" />
    <glyph glyph-name="nine" unicode="9" horiz-adv-x="531" 
d="M-33 -15q0 27 12.5 44t35.5 17q41 0 43 -61q1 -35 12 -50t46 -15q94 0 169.5 96.5t131.5 255.5l-2 2q-77 -92 -183 -92q-72 0 -110 45.5t-38 123.5q0 98 72.5 183.5t180.5 85.5q85 0 130 -54t45 -157q0 -118 -57.5 -236.5t-157 -196.5t-207.5 -78q-61 0 -92 26.5
t-31 60.5zM156 328q0 -55 29.5 -87.5t81.5 -32.5q74 0 131.5 74t57.5 179q0 66 -28 104t-79 38q-54 0 -99.5 -44.5t-69.5 -107t-24 -123.5z" />
    <glyph glyph-name="colon" unicode=":" horiz-adv-x="272" 
d="M243 399q0 -23 -16 -39t-39 -16t-39 16t-16 39t16.5 39t38.5 16q23 0 39 -16t16 -39zM156 47q0 -23 -16.5 -39t-39.5 -16t-39 16t-16 39t16.5 39t38.5 16q23 0 39.5 -16t16.5 -39z" />
    <glyph glyph-name="semicolon" unicode=";" horiz-adv-x="272" 
d="M244 399q0 -23 -16 -39t-39 -16t-39 16t-16 39t16 39t39 16t39 -16t16 -39zM159 38q0 -57 -41.5 -102t-98.5 -74l-4 12q41 22 72.5 57.5t35.5 70.5h-23q-55 0 -55 44q0 22 15.5 39t40.5 17q28 0 43 -17.5t15 -46.5z" />
    <glyph glyph-name="less" unicode="&#x3c;" horiz-adv-x="556" 
d="M507 35l-442 215v20l442 215v-29l-405 -196l405 -196v-29z" />
    <glyph glyph-name="equal" unicode="=" horiz-adv-x="556" 
d="M518 334h-442v27h442v-27zM518 159h-442v27h442v-27z" />
    <glyph glyph-name="greater" unicode="&#x3e;" horiz-adv-x="556" 
d="M517 250l-442 -215v29l405 196l-405 196v29l442 -215v-20z" />
    <glyph glyph-name="question" unicode="?" horiz-adv-x="404" 
d="M448 547q0 -57 -33.5 -96t-102.5 -69q-77 -34 -120.5 -69t-43.5 -82q0 -27 18 -41.5t45 -14.5q50 0 65 82l12 -4q-8 -44 -30 -68.5t-55 -24.5q-37 0 -59 25t-22 69q0 55 37 92.5t114 74.5q72 34 97 66.5t25 82.5q0 47 -30 80t-88 33q-49 0 -80 -30t-31 -70
q0 -35 20 -58.5t52 -23.5q15 0 23 4v3q-11 -1 -23.5 8t-12.5 24q0 17 11 28t27 11q21 0 33 -11t12 -30q0 -23 -18.5 -37t-49.5 -14q-37 0 -63 27t-26 68q0 49 40 83t102 34q74 0 114.5 -44.5t40.5 -107.5zM199 43q0 -22 -15 -37t-38 -15t-38 15t-15 37q0 23 15.5 38t37.5 15
t37.5 -15t15.5 -38z" />
    <glyph glyph-name="at" unicode="@" horiz-adv-x="982" 
d="M935 117q-44 -151 -167.5 -241.5t-273.5 -90.5q-77 0 -150 25t-134 72t-98.5 124t-37.5 173q0 121 60.5 230t172.5 178t248 69q79 0 142.5 -27t102.5 -73t60 -103t21 -119q0 -121 -77.5 -211t-173.5 -90q-37 0 -61.5 23.5t-23.5 66.5l-3 1q-20 -36 -54 -62.5t-67 -26.5
q-38 0 -70.5 30t-32.5 103q0 29 15 71t41 85t70 72.5t94 29.5q29 0 51.5 -17.5t26.5 -48.5h3l23 60h48l-92 -263q-11 -29 -11 -55t13 -42t33 -16q85 0 160 83.5t75 212.5q0 126 -88 212t-227 86q-73 0 -145 -31.5t-130.5 -87.5t-94.5 -143.5t-36 -191.5q0 -168 101.5 -270.5
t243.5 -102.5q158 0 272.5 82t162.5 226zM611 335q-7 43 -26 61t-54 18q-41 0 -79.5 -47t-59.5 -107t-21 -106q0 -30 5.5 -51t14.5 -30.5t16.5 -13.5t15.5 -4q74 0 131 107z" />
    <glyph glyph-name="A" unicode="A" horiz-adv-x="630" 
d="M199 279q-102 -137 -111 -150q-39 -56 -39 -71q0 -20 33.5 -32.5t65.5 -14.5l-3 -11h-260l3 11q31 2 70 20q29 14 91 88q205 256 450 575h13v-615q0 -25 3 -36.5t17 -18.5q20 -11 61 -13l-3 -11h-267l3 11q52 3 79 13q35 13 35 52v203h-241zM211 295h229v293
q-125 -158 -229 -293z" />
    <glyph glyph-name="B" unicode="B" horiz-adv-x="612" 
d="M612 556q0 -139 -187 -186v-4q144 -25 144 -145q0 -97 -85 -159t-228 -62h-284l2 11q55 3 75 10q32 11 43 49l149 534q4 18 4 23q0 17 -20 27q-35 15 -67 17l3 12h278q82 0 127.5 -33.5t45.5 -93.5zM531 547q0 55 -31 87t-85 32q-36 0 -84 -2l-82 -294h51q111 0 171 49.5
t60 127.5zM488 219q0 68 -44.5 101t-119.5 33q-42 0 -80 -2l-76 -272q-4 -33 18.5 -47t72.5 -14q106 0 167.5 60t61.5 141z" />
    <glyph glyph-name="C" unicode="C" horiz-adv-x="616" 
d="M654 693l-48 -247h-14q-5 56 -14 93t-27.5 71t-51.5 50.5t-82 16.5q-112 0 -198 -122.5t-86 -290.5q0 -111 51 -179t148 -68q71 0 121 41t106 124l15 -9q-23 -35 -38.5 -56t-42.5 -49.5t-53 -44t-63.5 -27t-81.5 -11.5q-106 0 -175.5 72t-69.5 189q0 186 117 318t269 132
q86 0 146 -54l41 51h31z" />
    <glyph glyph-name="D" unicode="D" horiz-adv-x="725" 
d="M714 418q0 -127 -63 -223.5t-166.5 -145.5t-229.5 -49h-283l2 11q55 3 75 10q32 11 43 49l149 534q4 18 4 23q0 17 -20 27q-35 15 -67 17l3 12h283q115 0 192.5 -64t77.5 -201zM633 409q0 132 -58.5 194t-163.5 62q-35 0 -79 -2l-159 -567q-12 -43 8.5 -60t82.5 -17
q153 0 261 110t108 280z" />
    <glyph glyph-name="E" unicode="E" horiz-adv-x="622" 
d="M654 683l-43 -156h-15v8q0 47 -18 85t-49 42q-28 4 -78 4h-118l-84 -299h88q58 0 95 32q27 21 55 91h16l-78 -278h-14q6 36 6 55q0 39 -8 52q-21 31 -76 31h-88l-68 -241q-10 -33 -10 -48q0 -27 21.5 -35t79.5 -8q145 0 174 23q30 24 67.5 73t52.5 78h15l-65 -192h-549
l4 11q50 0 84 12q33 12 43 50l147 530q4 18 4 24q0 18 -20 27q-34 15 -75 17l4 12h500z" />
    <glyph glyph-name="F" unicode="F" horiz-adv-x="597" 
d="M679 683l-43 -162h-15q0 56 -17 96t-54 45q-31 4 -82 4h-135l-85 -301h100q57 0 98 31q13 10 29.5 36.5t27.5 55.5h17l-79 -281h-17q5 26 5.5 60t-6.5 49q-21 31 -80 31h-99l-75 -267q-4 -12 -4 -24q0 -18 20 -27q34 -15 75 -17l-4 -12h-293l4 11q50 0 84 12q33 12 43 50
l147 530q4 18 4 24q0 18 -20 27q-34 15 -75 17l4 12h525z" />
    <glyph glyph-name="G" unicode="G" horiz-adv-x="690" 
d="M706 302l-3 -13q-58 -9 -70 -14q-35 -14 -44 -52l-65 -242l-9 -2l-13 61q-4 -1 -22.5 -8.5t-22 -9t-20 -7.5t-21 -7.5t-18.5 -6.5t-20.5 -6t-19 -4t-21 -3.5t-20 -1.5t-22.5 -1q-105 0 -175 68.5t-70 198.5q0 114 52 216t146.5 165t207.5 63q94 0 154 -54l45 51h29
l-55 -240h-13q-7 106 -44.5 165t-132.5 59q-117 0 -210.5 -119t-93.5 -296q0 -120 50 -187.5t133 -67.5q77 0 119.5 42t63.5 117l13 48q11 47 -18 59q-30 12 -94 16l3 13h301z" />
    <glyph glyph-name="H" unicode="H" horiz-adv-x="794" 
d="M867 683l-4 -12q-40 -2 -75 -12q-32 -9 -43 -50l-150 -535q-4 -18 -4 -21q0 -14 21 -27q21 -12 68 -15l-3 -11h-281l3 11q59 3 78 10q33 11 43 49l80 284h-354l-79 -280q-3 -14 -3 -20q0 -18 21 -28q8 -4 31.5 -9t37.5 -6l-2 -11h-280l2 11q55 3 75 10q32 11 43 49
l149 534q4 18 4 23q0 17 -20 27q-35 15 -67 17l3 12h281l-3 -12q-41 -2 -78 -12q-33 -10 -44 -50l-66 -237h353l65 232q4 18 4 24q0 15 -20 26q-38 15 -71 17l5 12h280z" />
    <glyph glyph-name="I" unicode="I" horiz-adv-x="373" 
d="M450 683l-3 -12q-40 -2 -78 -12q-33 -10 -44 -50l-150 -535q-3 -14 -3 -20q0 -18 21 -28q8 -4 31.5 -9t37.5 -6l-2 -11h-280l2 11q55 3 75 10q32 11 43 49l149 534q4 18 4 23q0 17 -20 27q-35 15 -67 17l3 12h281z" />
    <glyph glyph-name="J" unicode="J" horiz-adv-x="532" 
d="M404 356l130 4l-8 -25l-127 -1q-26 -127 -67 -264q-37 -123 -103 -183t-148 -60q-55 0 -78.5 22t-23.5 54q0 18 13.5 30.5t31.5 12.5q46 0 46 -41q0 -15 -20 -40q0 -25 32 -25q64 0 104 46t74 168q14 50 64 279l-130 -1l3 17l133 4q40 119 120 198q-25 -3 -87 -3
q-27 0 -48.5 12t-36 30t-29.5 35.5t-35.5 31t-45.5 14.5q-30 0 -56 -27t-26 -54q0 -12 6 -21q18 -1 34 -12t16 -28q0 -13 -11 -24t-26 -11q-23 0 -35.5 19t-12.5 47q0 46 46.5 94t105.5 48q34 0 59 -13t40.5 -32t31 -38.5t40.5 -35t59 -18.5h22q10 12 28 35.5t28 35.5
t23.5 22t25.5 10q24 0 24 -27q0 -21 -36.5 -49t-93.5 -40q-24 -56 -56 -196z" />
    <glyph glyph-name="K" unicode="K" horiz-adv-x="703" 
d="M779 683l-3 -12q-88 -5 -145 -52q-32 -27 -96 -82t-111 -92.5t-96 -71.5q27 -34 62 -86t79 -121.5t46 -73.5q29 -44 73 -66q25 -12 65 -14l-2 -12h-316l2 12q58 5 81.5 13t23.5 28q0 25 -57 122t-113 165h-29l-76 -266q-3 -12 -3 -20q0 -18 21 -28q8 -4 31.5 -9t37.5 -6
l-2 -11h-280l2 11q55 3 75 10q32 11 43 49l149 534q4 18 4 23q0 17 -20 27q-31 13 -87 17l3 12h301l-3 -12q-41 -2 -78 -12q-33 -10 -44 -50l-71 -255h21q123 82 219.5 164t105.5 117q8 31 -74 36l3 12h258z" />
    <glyph glyph-name="L" unicode="L" horiz-adv-x="614" 
d="M577 194l-67 -194h-547l4 11q50 0 84 12q33 12 43 50l147 530q4 18 4 24q0 18 -20 27q-34 15 -75 17l4 12h288l-3 -12q-41 -2 -78 -12q-33 -10 -44 -50l-140 -500q-17 -58 -1 -74.5t96 -16.5q47 0 97.5 7.5t65.5 18.5q27 21 67.5 68.5t59.5 81.5h15z" />
    <glyph glyph-name="M" unicode="M" horiz-adv-x="916" 
d="M986 683l-3 -12q-40 -2 -78 -12q-33 -10 -44 -50l-139 -535q-3 -9 -3 -20q0 -18 21 -28q25 -12 73 -15l-2 -11h-279l2 11q51 3 71 10q34 12 43 49l137 538l-401 -597h-8q-1 19 -5.5 41.5t-12 53t-10.5 44.5l-93 441l-107 -401q-19 -70 -19 -102t13 -45q10 -11 50.5 -21
t59.5 -11l-3 -11h-299l3 11q18 1 52 9.5t48 17.5q38 24 72 147l102 376q15 58 -9 82q-26 26 -82 28l3 12h168l124 -571l324 485q32 47 46 86h185z" />
    <glyph glyph-name="N" unicode="N" horiz-adv-x="732" 
d="M836 683l-3 -11q-16 -1 -50.5 -9t-48.5 -16q-38 -21 -69 -134l-139 -520h-13l-260 603l-108 -416q-16 -57 -16 -92q0 -32 13 -45q10 -11 44 -21t51 -11l-3 -11h-284l3 11q18 1 52.5 10t47.5 17q40 25 70 137l100 373q4 16 4 34q0 36 -19 55q-31 31 -101 34l4 12h181
l248 -574l103 398q16 62 16 93t-14 42q-12 9 -44 19t-50 11l3 11h282z" />
    <glyph glyph-name="O" unicode="O" horiz-adv-x="701" 
d="M687 430q0 -111 -49 -213t-139.5 -167.5t-198.5 -65.5q-94 0 -170 76t-76 197q0 119 56.5 222t144.5 161t183 58q99 0 174 -75.5t75 -192.5zM606 451q0 98 -43 162.5t-129 64.5q-90 0 -160.5 -69.5t-104.5 -170t-34 -208.5q0 -98 45 -162t128 -64q89 0 159 68t104.5 169
t34.5 210z" />
    <glyph glyph-name="P" unicode="P" horiz-adv-x="588" 
d="M610 536q0 -99 -85 -156t-228 -57h-60l-70 -250q-3 -10 -3 -19q0 -18 21 -28q8 -4 31.5 -9t37.5 -6l-2 -11h-280l2 11q55 3 75 10q32 11 43 49l149 534q4 18 4 23q0 17 -20 27q-35 15 -67 17l3 12h260q94 0 141.5 -39.5t47.5 -107.5zM529 527q0 66 -34.5 102t-104.5 36
h-58l-89 -322h61q110 0 167.5 46.5t57.5 137.5z" />
    <glyph glyph-name="Q" unicode="Q" horiz-adv-x="651" 
d="M304 34q27 -18 56.5 -51t55 -63.5t56 -60t72 -47t91.5 -17.5q59 0 83 11v3q-34 12 -34 42q0 17 14.5 29t32.5 12q17 0 26.5 -11t9.5 -25q0 -36 -47 -65.5t-114 -29.5q-65 0 -114.5 19t-80.5 51t-53 64t-45.5 68.5t-43.5 54.5q-82 -33 -159 -33q-50 0 -85.5 16.5
t-35.5 47.5q0 27 36 48t82 21q80 0 183 -72q115 61 191 181t76 270q0 76 -37.5 129t-114.5 53q-78 0 -145 -47.5t-103 -118t-36 -142.5q0 -63 34 -98t89 -35q63 0 103.5 35.5t40.5 118.5q0 43 -14.5 70.5t-34.5 31.5q10 -27 1 -47.5t-32 -20.5q-39 0 -39 37q0 20 18.5 37.5
t45.5 17.5q39 0 64 -32t25 -81q0 -81 -55.5 -133.5t-123.5 -52.5q-74 0 -119.5 52t-45.5 136q0 114 98 202.5t224 88.5q121 0 177.5 -65.5t56.5 -169.5q0 -135 -97 -250t-233 -179zM257 30q-72 74 -146 74q-26 0 -48 -15.5t-25 -36.5q6 -23 30 -37.5t51 -14.5q69 0 138 30z
" />
    <glyph glyph-name="R" unicode="R" horiz-adv-x="696" 
d="M667 152q-24 -80 -54 -121.5t-82 -41.5q-51 0 -72 25t-21 79v106q0 92 -31.5 118t-127.5 26h-37l-76 -269q-3 -12 -3 -20q0 -18 21 -28q8 -4 32 -9t38 -6l-2 -11h-280l2 11q55 3 75 10q32 11 43 49l149 534q4 18 4 23q0 17 -20 27q-35 15 -67 17l3 12h265q99 0 149 -35
t50 -99q0 -151 -218 -194v-3q108 -16 108 -142v-115q0 -39 10 -54.5t32 -15.5q58 0 96 131zM543 538q0 64 -35 95.5t-98 31.5h-78l-85 -303h64q103 0 167.5 44t64.5 132z" />
    <glyph glyph-name="S" unicode="S" horiz-adv-x="522" 
d="M564 693l-57 -227h-12q-10 105 -42.5 157.5t-107.5 52.5q-66 0 -112.5 -37t-46.5 -100q0 -52 27 -82t104 -74q86 -48 122 -83t36 -90q0 -99 -74.5 -161t-186.5 -62q-52 0 -98 15t-70 35l-46 -47h-24l56 234h13q26 -217 187 -217q85 0 134 45.5t49 108.5q0 58 -27 85
t-116 77q-75 42 -110 79t-35 91q0 82 64.5 142.5t165.5 60.5q86 0 136 -50l47 47h24z" />
    <glyph glyph-name="T" unicode="T" horiz-adv-x="617" 
d="M719 683l-49 -174h-14q0 60 -16 104.5t-48 48.5t-80 4h-52l-161 -588q-3 -9 -3 -22q0 -18 20 -28q8 -4 41.5 -10t47.5 -7l-3 -11h-316l3 11q66 4 89 12q34 12 44 50l164 593h-52q-50 0 -82 -4q-31 -4 -80 -58.5t-70 -94.5h-14l49 174h582z" />
    <glyph glyph-name="U" unicode="U" horiz-adv-x="786" 
d="M871 683l-3 -11q-16 -1 -50.5 -9t-48.5 -16q-36 -20 -72 -143l-78 -273q-36 -126 -103.5 -186.5t-189.5 -60.5q-210 0 -210 158q0 46 14 95l102 367q4 18 4 23q0 17 -20 27q-35 15 -67 17l3 12h281l-3 -12q-41 -2 -78 -12q-33 -10 -44 -50l-98 -352q-19 -68 -19 -117
q0 -53 44 -88t121 -35q95 0 154 54t90 164l75 263q19 70 19 102q0 31 -14 42q-12 9 -44 19t-50 11l3 11h282z" />
    <glyph glyph-name="V" unicode="V" horiz-adv-x="630" 
d="M792 683l-3 -11q-31 -2 -70 -20q-21 -10 -39 -28t-52 -60q-177 -220 -450 -575h-13v615q0 25 -3 36.5t-17 18.5q-20 11 -61 13l3 11h267l-3 -11q-52 -3 -79 -13q-35 -13 -35 -52v-512l225 288q70 89 127 171q39 56 39 71q0 20 -33.5 32.5t-65.5 14.5l3 11h260z" />
    <glyph glyph-name="W" unicode="W" horiz-adv-x="947" 
d="M1103 683l-3 -12q-31 -2 -70 -20q-30 -15 -75 -83l-385 -576h-22v540l-360 -540h-23v612q0 17 -0.5 25t-5.5 16.5t-14 13.5q-20 11 -61 13l3 11h267l-3 -11q-52 -3 -79 -13q-35 -13 -35 -52v-516l305 465q6 29 6 56q0 37 -20 47q-20 11 -61 13l3 11h266l-3 -11
q-52 -3 -79 -13q-35 -13 -35 -52v-515l278 425q47 72 47 106q0 21 -29.5 33t-68.5 15l3 12h254z" />
    <glyph glyph-name="X" unicode="X" horiz-adv-x="713" 
d="M350 335q-57 137 -107 255q-13 30 -22 41.5t-32 25.5q-19 11 -72 14l3 12h328l-8 -12q-123 -6 -123 -50q0 -32 84 -236q57 53 138.5 141.5t81.5 107.5q0 32 -95 37l3 12h269l-3 -12q-35 -2 -67 -14q-43 -16 -100 -67q-31 -27 -73.5 -70.5t-90.5 -94t-56 -58.5
q36 -88 114 -274q15 -36 31 -52q14 -16 32.5 -21t58.5 -8l-3 -12h-328l3 12q68 3 100 13.5t32 37.5q0 33 -91 256q-244 -236 -244 -268q0 -20 22.5 -28.5t71.5 -10.5l-3 -12h-269l3 12q35 2 67 14q47 18 100 67q20 18 54 51.5t94.5 94z" />
    <glyph glyph-name="Y" unicode="Y" horiz-adv-x="613" 
d="M715 649q0 -23 -14 -35.5t-33 -12.5q-21 0 -30.5 10.5t-9.5 22.5q0 21 13 38l-4 4q-28 -3 -63.5 -26t-73.5 -63t-72.5 -105.5t-54.5 -144.5l-66 -263q-3 -12 -3 -20q1 -19 23 -29q8 -4 37 -9t43 -5l-2 -11h-288l2 11q51 3 72 10q32 11 41 49l63 255q15 60 15 136
q0 77 -30.5 130t-96.5 53q-36 0 -66.5 -28t-46.5 -79l-13 4q52 154 174 154q48 0 80 -30t44.5 -72.5t12.5 -94.5q0 -36 -9 -96h9q122 294 288 294q26 0 42.5 -13t16.5 -34z" />
    <glyph glyph-name="Z" unicode="Z" horiz-adv-x="581" 
d="M667 683l-4 -12l-628 -654h196q125 0 160 26q36 28 78.5 77t65.5 85h14l-73 -205h-538l3 12l628 654h-182q-61 0 -87 -5q-38 -7 -89 -59.5t-83 -102.5h-14l68 184h485z" />
    <glyph glyph-name="bracketleft" unicode="[" horiz-adv-x="590" 
d="M660 727q0 -54 -55.5 -89t-126.5 -35q-18 0 -35.5 2t-30.5 4t-32 9.5t-27 10t-30 14t-27.5 14.5t-33 19t-33.5 19l-222 -822q9 4 43.5 19t42.5 18.5t36 15t38 14.5t32.5 10t36 9t32.5 4t37 2q62 0 95 -22.5t33 -60.5q0 -43 -51 -84l-12 4q9 7 20.5 25t11.5 34
q0 32 -88 32q-119 0 -325 -44l-20 -8l237 886l16 -8q104 -25 163 -34.5t142 -9.5q114 0 114 57q0 16 -7 31l11 6q15 -13 15 -42z" />
    <glyph glyph-name="backslash" unicode="\" horiz-adv-x="402" 
d="M166 744l30 8l58 -952l-30 -8z" />
    <glyph glyph-name="bracketright" unicode="]" horiz-adv-x="590" 
d="M-55 -160q0 54 55.5 89t126.5 35q18 0 35.5 -2t30.5 -4t32 -9.5t27 -10t30 -14t28 -14.5t33 -19t33 -19l222 822q-9 -4 -43.5 -19t-42.5 -18.5t-36 -15t-38 -14.5t-32.5 -10t-36 -9t-32.5 -4t-37 -2q-62 0 -95 22.5t-33 60.5q0 43 51 84l12 -4q-9 -7 -20.5 -25t-11.5 -34
q0 -32 88 -32q119 0 325 44l20 8l-237 -886l-16 8q-104 25 -163 34.5t-142 9.5q-114 0 -114 -57q0 -16 7 -31l-11 -6q-15 13 -15 42z" />
    <glyph glyph-name="asciicircum" unicode="^" horiz-adv-x="656" 
d="M414 196q91 200 165 200q33 0 50 -17.5t17 -40.5q0 -17 -9 -30t-26 -13q-25 0 -37.5 19.5t-29.5 19.5q-24 0 -53.5 -39t-68.5 -114q54 -101 54 -160q0 -112 -59.5 -181.5t-165.5 -74.5l-3 24q85 0 133.5 34.5t48.5 126.5q0 61 -49 162q-79 -126 -197 -126
q-69 0 -116.5 41.5t-47.5 111.5q0 76 55.5 138.5t156.5 105.5q-32 72 -32 120q0 82 50 138t127 56q48 0 80 -29.5t32 -77.5q0 -130 -188 -194q18 -38 59.5 -108t53.5 -92zM296 408q159 66 159 177q0 38 -20.5 63.5t-60.5 25.5q-48 0 -80 -42.5t-32 -96.5q0 -52 34 -127z
M237 372q-67 -35 -106 -87.5t-39 -112.5q0 -61 32.5 -102.5t87.5 -41.5q93 0 162 97q-17 32 -66.5 117.5t-70.5 129.5z" />
    <glyph glyph-name="underscore" unicode="_" horiz-adv-x="596" 
d="M504 -140h-610v30h610v-30z" />
    <glyph glyph-name="grave" unicode="`" 
d="M415 533l-11 -6q-24 24 -64 68.5t-50 54.5q-25 24 -25 49q0 14 9 23t22 9q16 0 25.5 -10t20.5 -33q6 -14 32.5 -69.5t40.5 -85.5z" />
    <glyph glyph-name="a" unicode="a" horiz-adv-x="528" 
d="M481 455l-115 -327q-43 -122 12 -122q35 0 67.5 36.5t57.5 101.5l12 -4q-30 -74 -65 -112.5t-86 -38.5q-40 0 -56.5 28t-0.5 87l-2 1q-62 -118 -154 -118q-56 0 -92 36.5t-36 120.5q0 42 16.5 94t47 103t83 85.5t116.5 34.5q44 0 71 -24.5t33 -54.5h2l26 73h63zM384 360
q-6 37 -31.5 61.5t-68.5 24.5q-57 0 -102.5 -57t-67 -130t-21.5 -139q0 -109 71 -109q44 0 77.5 29.5t63.5 85.5z" />
    <glyph glyph-name="b" unicode="b" horiz-adv-x="488" 
d="M465 304q0 -42 -16 -94t-45.5 -103t-83 -85.5t-118.5 -34.5q-74 0 -113.5 39.5t-39.5 97.5q0 33 14 75l134 418q15 45 15 67q0 27 -40 32q-18 2 -63 4v12l194 10l-124 -377l2 -1q22 36 64 66.5t85 30.5q57 0 96 -37t39 -120zM395 328q0 109 -78 109q-43 0 -83 -33.5
t-68 -81.5l-66 -209q0 -54 28.5 -82.5t75.5 -28.5q57 0 102.5 57t67 130t21.5 139z" />
    <glyph glyph-name="c" unicode="c" horiz-adv-x="389" 
d="M385 366q0 -25 -11.5 -37.5t-28.5 -12.5q-18 0 -32 11.5t-14 28.5q0 15 13 29.5t34 22.5q-1 17 -19.5 29t-43.5 12q-48 0 -92.5 -52.5t-70.5 -128t-26 -145.5q0 -54 22 -82.5t61 -28.5q52 0 97.5 38t78.5 100l12 -6q-86 -158 -204 -158q-53 0 -95.5 36.5t-42.5 121.5
q0 63 33 135.5t94.5 127t129.5 54.5q48 0 76.5 -26t28.5 -69z" />
    <glyph glyph-name="d" unicode="d" horiz-adv-x="538" 
d="M572 742l-193 -614q-39 -122 17 -122q63 0 117 138l12 -4q-31 -77 -62 -114t-81 -37q-40 0 -57.5 28t-3.5 87l-2 1q-33 -54 -77.5 -86t-90.5 -32q-56 0 -92 36.5t-36 120.5q0 42 16 94t45.5 103t83 85.5t118.5 34.5q44 0 72.5 -24.5t36.5 -54.5h2l71 235q15 47 15 67
q0 27 -41 32q-14 2 -73 4v12zM389 360q-6 36 -34 61t-71 25q-57 0 -102.5 -57t-67 -130t-21.5 -139q0 -109 71 -109q45 0 85 31.5t69 83.5z" />
    <glyph glyph-name="e" unicode="e" horiz-adv-x="390" 
d="M104 212q-11 -47 -11 -92q0 -51 22.5 -79.5t63.5 -28.5q96 0 172 141l12 -5q-85 -162 -199 -162q-25 0 -48 7.5t-45 24.5t-35 50t-13 78q0 41 19 93t52 102.5t87 85t116 34.5q37 0 63 -17.5t26 -49.5q0 -54 -47.5 -96.5t-109.5 -62.5t-125 -23zM106 223q58 6 103 25.5
t69 45t35.5 49.5t11.5 45q0 58 -51 58q-49 0 -97.5 -66t-70.5 -157z" />
    <glyph glyph-name="f" unicode="f" horiz-adv-x="307" 
d="M479 624q-16 0 -32 9.5t-16 27.5q0 11 7 27.5t8 24.5q0 15 -22 15q-116 0 -177 -213l-20 -70h126l-8 -25h-124q-83 -319 -107 -396q-41 -130 -109 -200q-60 -60 -128 -60q-47 0 -68 21.5t-21 51.5q0 16 12 30.5t32 14.5q17 0 31.5 -10.5t14.5 -30.5q0 -6 -2 -12.5t-4 -10
t-7 -11.5t-6 -10q1 -8 7.5 -13t12.5 -5q55 0 91.5 48t73.5 169q26 84 113 424h-106l7 25h106l11 40q33 117 99 185q71 73 160 73q44 0 66.5 -21.5t22.5 -49.5q0 -20 -12 -34t-32 -14z" />
    <glyph glyph-name="g" unicode="g" horiz-adv-x="458" 
d="M490 419q0 -19 -11.5 -31t-29.5 -12q-36 0 -36 59q-33 0 -61 -19v-5q23 -35 23 -73q0 -74 -48.5 -121t-120.5 -47h-66q-23 -6 -39.5 -21t-17.5 -33q-1 -28 25 -39t100 -16q44 -3 98 -11q49 -8 71 -32t22 -71q0 -72 -75 -126.5t-192 -54.5q-82 0 -129.5 30.5t-47.5 79.5
q0 52 44 88.5t125 47.5v3q-88 16 -88 67q0 37 32.5 61.5t68.5 35.5v2q-36 16 -56 44.5t-20 61.5q0 73 54.5 123.5t134.5 50.5q24 0 46 -7t38.5 -16.5t17.5 -9.5q62 33 97 33q16 0 28.5 -12t12.5 -30zM315 364q0 41 -19 62.5t-52 21.5q-52 0 -85.5 -59.5t-33.5 -109.5
q0 -46 22.5 -71t56.5 -25q35 0 61.5 33.5t38 73.5t11.5 74zM306 -13q-52 12 -177 18q-48 -12 -80 -45.5t-32 -79.5q0 -44 37 -71.5t103 -27.5q89 0 137.5 42t48.5 107q0 48 -37 57z" />
    <glyph glyph-name="h" unicode="h" horiz-adv-x="529" 
d="M514 140q-31 -76 -62.5 -113.5t-80.5 -37.5q-85 0 -85 78q0 25 22 83l59 156q22 60 22 83q0 48 -60 48q-49 0 -91.5 -40.5t-65.5 -85.5l-98 -311h-64l195 617q14 42 14 67q0 27 -39 32q-19 2 -63 4v12l194 10l-127 -384l2 -1q30 46 71.5 75t83.5 29q48 0 76 -31t28 -75
q0 -29 -19 -80l-56 -147q-24 -65 -24 -89q0 -33 37 -33q65 0 119 138z" />
    <glyph glyph-name="i" unicode="i" horiz-adv-x="315" 
d="M318 652q0 -26 -14.5 -43.5t-39.5 -17.5q-20 0 -31 13.5t-11 34.5q0 26 15.5 43t42.5 17q17 0 27.5 -14.5t10.5 -32.5zM293 140q-31 -76 -62 -113.5t-80 -37.5q-80 0 -80 78q0 29 20 83l67 170q23 59 23 89q0 36 -32 36q-35 0 -62 -35.5t-54 -104.5l-12 4
q32 77 62.5 114.5t79.5 37.5q34 0 55 -21.5t21 -63.5q0 -26 -31 -101l-57 -147q-23 -60 -23 -90q0 -32 36 -32q63 0 117 138z" />
    <glyph glyph-name="j" unicode="j" horiz-adv-x="272" 
d="M310 652q0 -26 -14.5 -43.5t-39.5 -17.5q-20 0 -31 13.5t-11 34.5q0 26 15.5 43t42.5 17q17 0 27.5 -14.5t10.5 -32.5zM239 377q0 -24 -14 -74q-48 -186 -77 -281q-24 -78 -59 -134q-79 -124 -179 -124q-39 0 -60.5 20.5t-21.5 47.5q0 19 11.5 32.5t30.5 13.5t31 -11
t12 -28q0 -21 -17 -42q2 -18 17 -18q54 0 91 49t72 166q33 109 97 354q8 32 8 57q0 40 -30 40q-62 0 -116 -140l-12 4q30 76 61 114t81 38q74 0 74 -84z" />
    <glyph glyph-name="k" unicode="k" horiz-adv-x="523" 
d="M516 399q0 -22 -14.5 -39.5t-36.5 -17.5q-14 0 -26 9t-12 21q0 24 16 37.5t18 22.5q-7 19 -30 19q-22 0 -39.5 -24.5t-29.5 -55t-39 -62t-65 -41.5q43 -16 62 -34.5t19 -60.5q0 -30 -8.5 -69.5t-8.5 -53.5q0 -43 34 -43q67 0 119 137l12 -4q-30 -75 -62.5 -113t-81.5 -38
q-42 0 -62.5 17.5t-20.5 60.5q0 24 10 70t10 59q0 34 -19 49t-62 15q-20 0 -44 -2l-83 -258h-64l196 617q14 43 14 67q0 27 -39 32q-19 2 -63 4v12l194 10l-151 -468q15 -1 57 -1q36 0 61 19.5t39 47t27.5 55t37.5 47t59 19.5q76 0 76 -62z" />
    <glyph glyph-name="l" unicode="l" horiz-adv-x="274" 
d="M309 742l-197 -616q-19 -58 -19 -87q0 -32 34 -32q66 0 119 137l12 -4q-31 -76 -62.5 -113.5t-80.5 -37.5q-78 0 -78 77q0 24 18 84l148 467q14 43 14 67q0 27 -40 32q-18 2 -63 4v12z" />
    <glyph glyph-name="m" unicode="m" horiz-adv-x="839" 
d="M825 140q-31 -76 -62.5 -113.5t-80.5 -37.5q-85 0 -85 78q0 25 22 83l59 156q22 60 22 83q0 48 -60 48q-74 0 -144 -103l-109 -334h-67l106 320q16 45 16 69q0 48 -60 48q-49 0 -91.5 -40.5t-65.5 -85.5l-104 -311h-67l108 320q22 63 22 95q0 30 -28 30q-65 0 -119 -140
l-12 4q32 77 62.5 114.5t79.5 37.5q37 0 57 -28t6 -87l2 -1q28 51 73.5 83.5t88.5 32.5q50 0 75.5 -31.5t18.5 -83.5l2 -1q28 51 73.5 83.5t88.5 32.5q48 0 76 -31t28 -75q0 -29 -19 -80l-56 -147q-24 -63 -24 -89q0 -33 37 -33q65 0 119 138z" />
    <glyph glyph-name="n" unicode="n" horiz-adv-x="581" 
d="M567 140q-31 -76 -62.5 -113.5t-80.5 -37.5q-85 0 -85 78q0 25 22 83l59 156q22 60 22 83q0 48 -60 48q-49 0 -91.5 -40.5t-65.5 -85.5l-102 -311h-69l108 320q22 63 22 95q0 30 -28 30q-65 0 -119 -140l-12 4q32 77 62.5 114.5t79.5 37.5q37 0 57 -28t6 -87l2 -1
q28 51 73.5 83.5t88.5 32.5q48 0 76 -31t28 -71q0 -33 -19 -84l-56 -147q-24 -65 -24 -89q0 -33 37 -33q65 0 119 138z" />
    <glyph glyph-name="o" unicode="o" horiz-adv-x="457" 
d="M431 285q0 -40 -17.5 -90t-49 -97.5t-83.5 -79.5t-112 -32t-101 45t-41 130q0 57 30.5 125t92 121.5t135.5 53.5q62 0 104 -45.5t42 -130.5zM361 307q0 74 -24.5 107.5t-56.5 33.5q-50 0 -93.5 -49t-66.5 -119t-23 -138q0 -72 24 -107.5t57 -35.5q53 0 96.5 52t65 121.5
t21.5 134.5z" />
    <glyph glyph-name="p" unicode="p" horiz-adv-x="542" 
d="M521 304q0 -42 -16 -94t-45.5 -103t-83 -85.5t-118.5 -34.5q-44 0 -72.5 24.5t-36.5 54.5h-2l-56 -185q-14 -48 -14 -67q0 -27 41 -32q20 -2 59 -4l-3 -12h-260l3 11q52 0 71 22q16 17 38 84l137 437q21 66 20 95.5t-28 29.5q-64 0 -118 -140l-12 4q31 76 62.5 114
t79.5 38q37 0 54.5 -29.5t4.5 -87.5l2 -1q33 55 76 86.5t89 31.5q56 0 92 -36.5t36 -120.5zM451 328q0 109 -71 109q-43 0 -83 -33.5t-68 -81.5l-73 -234q6 -36 33.5 -61t70.5 -25q57 0 102.5 57t67 130t21.5 139z" />
    <glyph glyph-name="q" unicode="q" horiz-adv-x="494" 
d="M489 455l-183 -574q-14 -45 -14 -67q0 -27 40 -32q23 -3 52 -4l-3 -12h-262l3 11q64 0 83 22t38 84q42 127 66 208l-2 1q-26 -43 -69 -74t-87 -31q-128 0 -128 157q0 42 16 93.5t45.5 103t83 86t118.5 34.5q45 0 76.5 -25t37.5 -54h2l45 73h42zM394 360q-6 35 -36 60.5
t-74 25.5q-57 0 -102.5 -57t-67 -130t-21.5 -139q0 -109 71 -109q88 0 151 115z" />
    <glyph glyph-name="r" unicode="r" horiz-adv-x="397" 
d="M414 409q0 -21 -12 -38.5t-34 -17.5q-42 0 -42 39q0 10 10.5 20.5t10.5 12.5q0 11 -11 11q-23 0 -56 -41.5t-57 -88.5l-95 -306h-66l100 320q19 60 19 90q0 35 -26 35q-63 0 -118 -141l-12 5q31 77 62 114.5t80 37.5q37 0 57 -28.5t7 -85.5l2 -1q18 41 53 78t73 37
q25 0 40 -15t15 -37z" />
    <glyph glyph-name="s" unicode="s" horiz-adv-x="362" 
d="M342 360q0 -26 -12 -41.5t-35 -15.5q-15 0 -27 9.5t-12 27.5q0 22 25 39t25 18q-1 6 -3.5 13t-9.5 17t-23.5 16t-39.5 6q-37 0 -65 -23.5t-28 -67.5q0 -33 26 -62t56.5 -47.5t56.5 -50.5t26 -71q0 -57 -42.5 -99t-111.5 -42q-77 0 -110 35t-33 77q0 26 16 44t39 18
t32.5 -12.5t9.5 -27.5t-9.5 -27t-29.5 -12q-21 0 -23 -6q-1 -3 -1 -7q0 -25 28.5 -47t79.5 -22q46 0 76.5 23.5t30.5 63.5q0 31 -17 56t-42 42t-49.5 35t-41.5 45t-17 61q0 53 42 94.5t102 41.5q36 0 60 -11.5t34 -30t13.5 -32.5t3.5 -27z" />
    <glyph glyph-name="t" unicode="t" horiz-adv-x="309" 
d="M341 445l-8 -25h-127q-86 -288 -87 -294q-19 -71 -19 -81q0 -39 35 -39t68 37.5t58 102.5l12 -4q-30 -74 -65 -113.5t-84 -39.5q-80 0 -80 77q0 21 10 58q8 29 89 296h-96l8 25h97l44 155h63l-46 -155h128z" />
    <glyph glyph-name="u" unicode="u" horiz-adv-x="573" 
d="M560 140q-31 -76 -62.5 -113.5t-80.5 -37.5q-89 0 -68 113l-2 1q-28 -51 -73.5 -83.5t-88.5 -32.5q-48 0 -76 32.5t-28 79.5q0 27 19 74l57 147q22 57 22 86q0 39 -30 39q-61 0 -115 -140l-12 4q30 76 60.5 113t79.5 37q35 0 55.5 -19t20.5 -59q0 -26 -21 -83l-61 -156
q-18 -45 -18 -81q0 -50 59 -50q46 0 86.5 36t68.5 85l99 314h68l-105 -318q-16 -48 -16 -82q0 -18 8.5 -29t22.5 -11q65 0 119 138z" />
    <glyph glyph-name="v" unicode="v" horiz-adv-x="494" 
d="M477 387q0 -105 -29 -194.5t-89.5 -148t-141.5 -58.5q-52 0 -92 35.5t-40 97.5q0 71 44.5 139t131.5 145l-3 3q-65 -40 -125 -40q-44 0 -64 13l-36 -102l-12 4l61 178h7q13 -26 40.5 -40t57.5 -14q66 0 132 59l8 -7q-67 -65 -120.5 -152.5t-53.5 -171.5q0 -114 103 -114
q70 0 126.5 77t56.5 199q0 31 -24.5 62.5t-24.5 59.5q0 17 14 29.5t33 12.5q40 0 40 -72z" />
    <glyph glyph-name="w" unicode="w" horiz-adv-x="677" 
d="M309 58q-62 -71 -122 -71q-43 0 -74 36.5t-31 98.5q0 125 171 280l-3 4q-63 -38 -118 -38q-43 0 -65 13l-35 -99l-11 4l59 173h6q12 -25 43.5 -39.5t56.5 -14.5q34 0 60.5 13.5t62.5 45.5l8 -7q-62 -62 -115 -159t-53 -181q0 -49 20 -73.5t46 -24.5q41 0 89 51
q-16 41 -16 94q0 50 24.5 119.5t66 123.5t80.5 54q24 0 24 -60q0 -51 -37 -134t-93 -161q16 -44 44.5 -66t52.5 -22q67 0 121.5 83.5t54.5 193.5q0 35 -29 64t-29 60q0 16 12.5 29t31.5 13q29 0 38 -20t9 -57q0 -165 -68.5 -281.5t-175.5 -116.5q-73 0 -106 72zM349 121
q46 66 78 141.5t32 120.5q0 31 -26 31q-27 0 -49 -28q-43 -57 -43 -196q0 -37 8 -69z" />
    <glyph glyph-name="x" unicode="x" horiz-adv-x="508" 
d="M213 121h-4q-58 -133 -147 -133q-40 0 -60 19t-20 49q0 69 85 141l8 -8q-33 -75 -33 -132q0 -51 31 -51q21 0 40 10t35 31.5t27.5 40.5t23.5 51t18 48.5t15 46.5q29 93 29 145q0 66 -50 66q-36 0 -71 -38t-60 -102l-12 4q62 152 154 152q40 0 65.5 -24.5t26.5 -97.5h3
q18 47 55.5 84.5t81.5 37.5q73 0 73 -73q0 -58 -72 -123l-8 8q13 23 24 61.5t11 69.5q0 44 -32 44q-96 0 -158 -236q-23 -89 -23 -125q0 -43 15 -60.5t45 -17.5q77 0 131 136l12 -4q-60 -153 -156 -153q-108 0 -103 133z" />
    <glyph glyph-name="y" unicode="y" horiz-adv-x="518" 
d="M518 446l-105 -340q-107 -345 -323 -345q-41 0 -68 9.5t-38 24.5t-14.5 26.5t-3.5 23.5q0 27 17.5 43t39.5 16q19 0 29.5 -11t9.5 -25q-1 -19 -10 -28.5t-18.5 -10t-17.5 -4.5t-8 -14q3 -36 76 -36q102 0 162.5 83t105.5 244l-2 1q-28 -51 -74.5 -83.5t-90.5 -32.5
q-48 0 -76 32.5t-28 79.5q0 27 19 74l57 147q22 55 22 86q0 39 -30 39q-61 0 -115 -140l-12 4q30 76 60.5 113t79.5 37q35 0 55.5 -19t20.5 -59q0 -26 -21 -83l-61 -156q-18 -45 -18 -81q0 -50 59 -50q46 0 88.5 35.5t70.5 85.5l97 314h65z" />
    <glyph glyph-name="z" unicode="z" horiz-adv-x="407" 
d="M436 430q0 -19 -11.5 -36t-46.5 -45q-34 -27 -317 -251l1 -3q26 -1 81 -20t94 -20q80 -3 87 51q5 45 -46 55l4 12q80 -17 80 -93q0 -38 -28 -65t-62 -27q-47 0 -118.5 47t-102.5 47q-7 -2 -12 -5.5t-6.5 -10.5t-2 -10.5t0 -14.5t0.5 -15q0 -39 -28 -39q-11 0 -19.5 8.5
t-8.5 25.5q0 28 56 73q221 182 326 256l-1 3q-31 -2 -97.5 17t-90.5 19q-64 0 -64 -48q0 -42 61 -61l-6 -11q-99 33 -99 95q0 37 27.5 66t65.5 29q35 0 69 -23.5t65 -47t59 -23.5q7 0 12 0.5t8.5 3t6.5 3.5t4.5 5.5t2.5 6t1.5 7t0.5 7.5v8.5v8.5q0 21 9.5 33t22.5 12
q22 0 22 -30z" />
    <glyph glyph-name="braceleft" unicode="{" horiz-adv-x="406" 
d="M488 744l-3 -14q-87 -6 -125 -46.5t-47 -139.5q-6 -63 -25.5 -108t-52 -72t-69.5 -41.5t-88 -22.5l-6 -25q71 -10 105.5 -37.5t34.5 -83.5q0 -44 -26.5 -118.5t-26.5 -103.5q0 -44 22.5 -63.5t81.5 -23.5l-3 -14q-97 0 -130.5 24t-33.5 83q0 47 31.5 123.5t31.5 110.5
q0 48 -30 70t-101 27l7 37q56 6 90 16.5t60 32.5t38 57.5t16 92.5q9 135 59 187t190 52z" />
    <glyph glyph-name="bar" unicode="|" horiz-adv-x="292" 
d="M181 -207h-30v953h30v-953z" />
    <glyph glyph-name="braceright" unicode="}" horiz-adv-x="406" 
d="M-55 -169l3 14q87 6 125 46.5t47 139.5q6 63 25.5 108t52 72t69.5 41.5t88 22.5l6 25q-71 10 -105.5 37.5t-34.5 83.5q0 44 26.5 118.5t26.5 103.5q0 44 -22.5 63.5t-81.5 23.5l3 14q97 0 130.5 -24t33.5 -83q0 -47 -31.5 -123.5t-31.5 -110.5q0 -48 30 -70t101 -27
l-7 -37q-56 -6 -90 -16.5t-60 -32.5t-38 -57.5t-16 -92.5q-9 -135 -59 -187t-190 -52z" />
    <glyph glyph-name="asciitilde" unicode="~" horiz-adv-x="520" 
d="M496 329q-26 -48 -69 -83.5t-89 -35.5q-44 0 -92 22t-70 22q-75 0 -125 -63l-9 3q25 46 73.5 80.5t95.5 34.5q41 0 90 -22t71 -22q36 0 62.5 16t53.5 51z" />
    <glyph glyph-name="nbspace" unicode="&#xa0;" horiz-adv-x="114" 
 />
    <glyph glyph-name="exclamdown" unicode="&#xa1;" horiz-adv-x="310" 
d="M216 645q0 22 15 37t38 15t38 -15t15 -37q0 -23 -15 -38t-38 -15t-38 15t-15 38zM70 34q0 30 148 444l21 -4q-13 -68 -30.5 -171t-29 -174.5t-15.5 -85.5q-14 -51 -55 -51q-39 0 -39 42z" />
    <glyph glyph-name="cent" unicode="&#xa2;" horiz-adv-x="439" 
d="M157 70q-95 28 -95 152q0 63 33 135.5t94 127t130 54.5h9l49 131l11 -3l-48 -130q39 -5 61.5 -30t22.5 -63q0 -35 -21.5 -46t-43 1t-21.5 35q0 15 13 29.5t34 22.5q-2 15 -15.5 26t-33.5 13l-157 -427q18 -8 37 -8q52 0 97.5 38t78.5 100l12 -6q-86 -158 -204 -158
q-16 0 -32 3l-66 -179l-11 3zM324 527h-2q-46 0 -91 -53.5t-71.5 -129.5t-26.5 -143q0 -69 36 -97z" />
    <glyph glyph-name="sterling" unicode="&#xa3;" horiz-adv-x="746" 
d="M265 283h-136v13h138q5 28 10 47q17 64 44 121t66 106t93 78t116 29q80 0 117 -43t37 -102q0 -77 -44 -126t-117 -49q-43 0 -72 28t-29 71q0 54 29 98l12 -4q-23 -39 -23 -86q0 -40 22.5 -64t60.5 -24q51 0 82 46t31 110q0 53 -25 91.5t-79 38.5q-184 0 -230 -287
q-7 -50 -13 -79h191v-13h-193q-9 -54 -20 -88h194v-12h-198q-25 -72 -68 -120q43 -11 126 -51t135 -40q30 0 51.5 10.5t35.5 31.5t23.5 44t20.5 56q3 9 4 13l12 -4q-11 -42 -25 -74t-40 -64.5t-69.5 -50.5t-102.5 -18q-25 0 -53.5 9t-48.5 19.5t-54.5 29.5t-52.5 28
q-74 -94 -169 -94q-46 0 -69 19t-23 49q0 45 55 72.5t134 27.5q49 0 90 -9q15 27 17 116h-147v12h148q2 58 6 88zM208 9q-70 34 -136 34q-41 0 -67 -22t-26 -47q0 -24 21.5 -37t53.5 -13q82 0 154 85z" />
    <glyph glyph-name="currency" unicode="&#xa4;" horiz-adv-x="595" 
d="M117 341h-54v13h58q39 115 127.5 190.5t191.5 75.5q76 0 115.5 -32.5t39.5 -76.5q0 -37 -17 -56t-45 -19q-17 0 -27.5 10t-10.5 26q0 21 18 38.5t22 32.5q2 23 -25.5 42t-76.5 19q-72 0 -134.5 -71t-97.5 -179h254v-13h-257q-14 -48 -19 -86h208v-13h-210q-4 -32 -4 -70
q0 -157 134 -157q112 0 212 134l9 -6q-45 -69 -106 -113t-131 -44q-90 0 -141.5 60.5t-51.5 167.5q0 19 1 28h-64v13h65q4 42 17 86z" />
    <glyph glyph-name="yen" unicode="&#xa5;" horiz-adv-x="555" 
d="M662 607l-3 -14q-24 -2 -54 -16q-57 -28 -253 -270q-22 -25 -31 -42h155v-13h-162q-8 -17 -15 -41l-11 -41h162v-13h-166l-23 -81q-3 -14 -3 -20q0 -18 21 -28q8 -4 31.5 -9t37.5 -6l-2 -13h-277l2 13q55 3 75 10q32 11 43 49l25 85h-155v13h158l23 82h-155v13h154
q0 11 -6 41q-21 87 -58 209q-15 48 -40 64q-18 12 -46 14l3 14h257l-3 -14q-96 -7 -96 -29q0 -7 6.5 -40t22.5 -97.5t36 -134.5q84 94 149.5 175t65.5 92q0 26 -99 34l3 14h228z" />
    <glyph glyph-name="brokenbar" unicode="&#xa6;" horiz-adv-x="292" 
d="M161 363h-30v383h30v-383zM161 -207h-30v392h30v-392z" />
    <glyph glyph-name="section" unicode="&#xa7;" horiz-adv-x="484" 
d="M233 464q-20 51 -20 95q0 75 51 127t128 52q84 0 84 -74q0 -28 -17.5 -45t-40.5 -17q-16 0 -27.5 9t-11.5 24q0 22 23.5 36t25.5 26q2 13 -8.5 19t-30.5 6q-59 0 -94.5 -35t-35.5 -90q0 -36 16.5 -74t67.5 -123q49 -82 68 -128t19 -92q0 -56 -39.5 -91t-110.5 -41
q20 -51 20 -95q0 -75 -51 -127t-128 -52q-84 0 -84 74q0 28 17.5 45t40.5 17q16 0 27.5 -9t11.5 -24q0 -22 -23.5 -36t-25.5 -26q-2 -13 8.5 -19t30.5 -6q59 0 94.5 35t35.5 90q0 36 -16.5 74t-67.5 123q-49 82 -68 128t-19 92q0 56 39.5 91t110.5 41zM276 57q106 15 106 98
q0 32 -18 69.5t-78 139.5q-33 55 -49 91q-106 -15 -106 -98q0 -32 18 -69.5t78 -139.5q33 -55 49 -91z" />
    <glyph glyph-name="dieresis" unicode="&#xa8;" 
d="M488 644q0 -23 -15 -40t-40 -17q-20 0 -31 13t-11 31q0 23 16 39.5t42 16.5q16 0 27.5 -13.5t11.5 -29.5zM295 644q0 -23 -15 -40t-40 -17q-20 0 -31 13t-11 31q0 23 16 39.5t42 16.5q16 0 27.5 -13.5t11.5 -29.5z" />
    <glyph glyph-name="copyright" unicode="&#xa9;" horiz-adv-x="939" 
d="M906 251q0 -177 -128 -304.5t-301 -127.5q-174 0 -302 127.5t-128 304.5q0 176 128 303t302 127q84 0 163 -34.5t137.5 -92t93.5 -137t35 -166.5zM880 251q0 166 -120 286t-283 120q-164 0 -284 -119.5t-120 -286.5q0 -110 55.5 -204.5t148.5 -149t200 -54.5
q163 0 283 120t120 288zM670 158q-65 -145 -187 -145q-104 0 -168 63.5t-64 170.5q0 104 70 173.5t176 69.5q27 0 62.5 -9.5t53.5 -21.5l22 38h14l4 -181h-10q-11 32 -23 56.5t-31 49t-47.5 37.5t-63.5 13q-57 0 -99.5 -56.5t-42.5 -163.5q0 -91 48.5 -149t118.5 -58
q98 0 156 118z" />
    <glyph glyph-name="ordfeminine" unicode="&#xaa;" horiz-adv-x="360" 
d="M367 448q-16 -41 -33.5 -62.5t-45.5 -21.5q-16 0 -28.5 12.5t-13.5 38.5h-2q-10 -19 -30 -36t-45 -17q-32 0 -54 20t-22 67q0 53 43 112t110 59q39 0 49 -38h2l10 35h42l-60 -175q-11 -29 -11 -46q0 -19 15 -19q37 0 64 75zM291 292l-4 -17h-215l4 17h215zM287 572
q-7 38 -40 38q-39 0 -73 -61t-34 -113q0 -58 39 -58q33 0 62 49z" />
    <glyph glyph-name="guillemotleft" unicode="&#xab;" horiz-adv-x="541" 
d="M424 25l-10 -7q-129 148 -148 169q-17 19 -12 37q5 19 30 35q189 126 248 170l6 -7l-210 -200zM215 25l-10 -7q-129 148 -148 169q-17 19 -12 37q5 19 30 35q189 126 248 170l6 -7l-210 -200z" />
    <glyph glyph-name="logicalnot" unicode="&#xac;" horiz-adv-x="556" 
d="M491 39h-32v218h-417v28h449v-246z" />
    <glyph glyph-name="registered" unicode="&#xae;" horiz-adv-x="468" 
d="M492 521q0 -77 -52.5 -129.5t-126.5 -52.5t-126.5 52.5t-52.5 129.5t52.5 129.5t126.5 52.5t126.5 -52.5t52.5 -129.5zM479 521q0 72 -48.5 121.5t-117.5 49.5t-117.5 -49.5t-48.5 -121.5t48.5 -121.5t117.5 -49.5t117.5 49.5t48.5 121.5zM423 465q0 -23 -7 -32.5
t-27 -9.5q-34 0 -40 51q-7 53 -47 53h-20v-76q0 -11 9 -15q6 -3 20 -3v-7h-88v7q14 0 20 3q9 4 9 15v155q0 12 -9 15q-12 4 -20 4v6h102q25 0 44 -11.5t19 -34.5q0 -34 -58 -50v-3q14 -2 28 -10.5t18 -23.5q2 -7 6 -24t6 -25q4 -13 15 -13q16 0 16 29h4zM353 579
q0 45 -44 45h-27v-89h19q52 0 52 44z" />
    <glyph glyph-name="macron" unicode="&#xaf;" 
d="M512 602h-330l13 49h330z" />
    <glyph glyph-name="degree" unicode="&#xb0;" horiz-adv-x="406" 
d="M438 560q0 -60 -44.5 -103t-102.5 -43q-61 0 -102 38.5t-41 106.5q0 64 44 107.5t99 43.5q62 0 104.5 -38.5t42.5 -111.5zM384 558q0 60 -24 97.5t-68 37.5q-43 0 -67 -37.5t-24 -92.5q0 -57 24 -94.5t69 -37.5q38 0 64 36.5t26 90.5z" />
    <glyph glyph-name="plusminus" unicode="&#xb1;" horiz-adv-x="872" 
d="M457 420h-236q-83 -319 -107 -396q-41 -130 -109 -200q-60 -60 -128 -60q-47 0 -68 21.5t-21 51.5q0 16 12 30.5t32 14.5q17 0 31.5 -10.5t14.5 -30.5q0 -6 -2 -12.5t-4 -10t-7 -11.5t-6 -10q1 -8 7.5 -13t12.5 -5q55 0 92 49.5t73 167.5q26 84 113 424h-106l7 25h106
l11 40q28 109 103.5 179t172.5 70q49 0 78 -21.5t31 -55.5q2 2 6 6.5t6 6.5q71 73 160 73q57 0 80 -39l95 38l-197 -616q-19 -58 -19 -87q0 -32 34 -32q66 0 119 137l12 -4q-31 -76 -62.5 -113.5t-80.5 -37.5q-78 0 -78 77q0 26 18 84q4 14 11.5 37.5t28 87t38 119.5t36 114
t29.5 92l11 35q-11 -8 -25 -8q-15 0 -28 9t-13 26q0 9 6 23.5t7 20.5q-4 14 -10.5 18t-21.5 4q-116 0 -177 -213l-20 -70h126l-8 -25h-124q-83 -319 -107 -396q-41 -130 -109 -200q-60 -60 -128 -60q-47 0 -68 21.5t-21 51.5q0 16 12 30.5t32 14.5q17 0 31.5 -10.5
t14.5 -30.5q0 -6 -2 -12.5t-4 -10t-7 -11.5t-6 -10q1 -8 7.5 -13t12.5 -5q55 0 92 49.5t73 167.5q35 117 115 424zM530 616q-2 0 -6.5 -0.5t-7.5 -0.5q-16 0 -32 9.5t-16 27.5q0 11 7 27.5t8 24.5q-1 6 -16.5 10.5t-25.5 4.5q-136 0 -194 -204l-20 -70h236l10 40
q20 75 57 131z" />
    <glyph glyph-name="twosuperior" unicode="&#xb2;" horiz-adv-x="617" 
d="M597 291q0 -31 -21.5 -52.5t-53.5 -21.5q-24 0 -56.5 23t-59.5 27l-9 -8q-6 -35 -39 -60l-1 -10q15 -20 53 -39q55 -26 55 -76q0 -30 -23 -53t-55 -23q-31 0 -53 21.5t-22 53.5q0 14 9 43t9 51v11l-7 5q-7 -1 -20 -1q-30 0 -56 18l-13 -1q-15 -22 -21 -61
q-14 -83 -78 -83q-31 0 -54 22.5t-23 54.5t24 53.5t59 21.5q49 0 74 13l3 14q-10 22 -10 43q0 13 3 25l-5 13q-9 3 -27 3q-15 0 -35 -3.5t-29 -3.5q-33 0 -55 22.5t-22 53.5t22 54t54 23q45 0 67 -42q4 -7 9 -24t11.5 -31.5t17.5 -25.5l15 1q28 30 69 30l11 7q0 28 -17 61.5
t-17 52.5q0 32 22 52.5t54 20.5t53 -22.5t21 -53.5q0 -22 -10 -37.5t-22.5 -23t-29 -22.5t-26.5 -33l4 -12q38 -20 48 -58l12 -6q23 8 54.5 39t63.5 31q30 0 51.5 -22.5t21.5 -54.5zM370 278q0 29 -19 48.5t-48 19.5q-28 0 -47.5 -19.5t-19.5 -48.5t19.5 -49.5t47.5 -20.5
q29 0 48 20t19 50z" />
    <glyph glyph-name="threesuperior" unicode="&#xb3;" horiz-adv-x="617" 
d="M597 291q0 -31 -21.5 -52.5t-53.5 -21.5q-24 0 -56.5 23t-59.5 27l-9 -8q-6 -35 -39 -60l-1 -10q15 -20 53 -39q55 -26 55 -76q0 -30 -23 -53t-55 -23q-31 0 -53 21.5t-22 53.5q0 14 9 43t9 51v11l-7 5q-7 -1 -20 -1q-30 0 -56 18l-13 -1q-15 -22 -21 -61
q-14 -83 -78 -83q-31 0 -54 22.5t-23 54.5t24 53.5t59 21.5q49 0 74 13l3 14q-10 22 -10 43q0 13 3 25l-5 13q-9 3 -27 3q-15 0 -35 -3.5t-29 -3.5q-33 0 -55 22.5t-22 53.5t22 54t54 23q45 0 67 -42q4 -7 9 -24t11.5 -31.5t17.5 -25.5l15 1q28 30 69 30l11 7q0 28 -17 61.5
t-17 52.5q0 32 22 52.5t54 20.5t53 -22.5t21 -53.5q0 -22 -10 -37.5t-22.5 -23t-29 -22.5t-26.5 -33l4 -12q38 -20 48 -58l12 -6q23 8 54.5 39t63.5 31q30 0 51.5 -22.5t21.5 -54.5zM370 278q0 29 -19 48.5t-48 19.5q-28 0 -47.5 -19.5t-19.5 -48.5t19.5 -49.5t47.5 -20.5
q29 0 48 20t19 50z" />
    <glyph glyph-name="acute" unicode="&#xb4;" 
d="M476 703q0 -25 -45 -56q-8 -5 -43 -27.5t-72 -47t-68 -45.5l-7 8q109 115 143 157q32 38 63 38q13 0 21 -8t8 -19z" />
    <glyph glyph-name="mu" unicode="&#xb5;" horiz-adv-x="562" 
d="M551 140q-31 -76 -62.5 -113.5t-80.5 -37.5q-89 0 -68 113l-2 1q-28 -51 -73.5 -83.5t-88.5 -32.5q-77 0 -102 85h-2l-12 -56q-19 -90 -19 -127q0 -115 -48 -115q-11 0 -20 8.5t-9 25.5t5.5 33.5t20 46t22.5 48.5q27 67 45 127l115 383h68l-89 -298q-19 -63 -19 -86
q0 -51 56 -51q46 0 86.5 36t68.5 85l99 314h68l-105 -318q-16 -48 -16 -82q0 -18 8.5 -29t22.5 -11q65 0 119 138z" />
    <glyph glyph-name="paragraph" unicode="&#xb6;" horiz-adv-x="585" 
d="M669 683l-3 -14h-141l-199 -794h-16l198 794h-108l-198 -794h-16l120 484h-9q-91 0 -143 39t-52 104q0 70 59 123.5t164 57.5h344z" />
    <glyph glyph-name="periodcentered" unicode="&#xb7;" horiz-adv-x="282" 
d="M216 272q0 -27 -19 -45.5t-46 -18.5t-46 18.5t-19 45.5t19 46t46 19t46 -19t19 -46z" />
    <glyph glyph-name="cedilla" unicode="&#xb8;" 
d="M275 -120q0 -53 -65 -80t-152 -27l6 17q63 1 107.5 17t44.5 47q0 20 -17.5 27t-58.5 7l39 120h18l-20 -63q42 0 70 -15.5t28 -49.5z" />
    <glyph glyph-name="onesuperior" unicode="&#xb9;" horiz-adv-x="617" 
d="M597 291q0 -31 -21.5 -52.5t-53.5 -21.5q-24 0 -56.5 23t-59.5 27l-9 -8q-6 -35 -39 -60l-1 -10q15 -20 53 -39q55 -26 55 -76q0 -30 -23 -53t-55 -23q-31 0 -53 21.5t-22 53.5q0 14 9 43t9 51v11l-7 5q-7 -1 -20 -1q-30 0 -56 18l-13 -1q-15 -22 -21 -61
q-14 -83 -78 -83q-31 0 -54 22.5t-23 54.5t24 53.5t59 21.5q49 0 74 13l3 14q-10 22 -10 43q0 13 3 25l-5 13q-9 3 -27 3q-15 0 -35 -3.5t-29 -3.5q-33 0 -55 22.5t-22 53.5t22 54t54 23q45 0 67 -42q4 -7 9 -24t11.5 -31.5t17.5 -25.5l15 1q28 30 69 30l11 7q0 28 -17 61.5
t-17 52.5q0 32 22 52.5t54 20.5t53 -22.5t21 -53.5q0 -22 -10 -37.5t-22.5 -23t-29 -22.5t-26.5 -33l4 -12q38 -20 48 -58l12 -6q23 8 54.5 39t63.5 31q30 0 51.5 -22.5t21.5 -54.5zM370 278q0 29 -19 48.5t-48 19.5q-28 0 -47.5 -19.5t-19.5 -48.5t19.5 -49.5t47.5 -20.5
q29 0 48 20t19 50z" />
    <glyph glyph-name="ordmasculine" unicode="&#xba;" horiz-adv-x="317" 
d="M317 524q0 -52 -41 -107t-107 -55q-30 0 -53 24t-23 72q0 52 41.5 107t106.5 55q29 0 52.5 -24.5t23.5 -71.5zM284 292l-4 -17h-215l4 17h215zM272 537q0 33 -11 53.5t-25 20.5q-40 0 -69 -56t-29 -108q0 -34 11 -54.5t26 -20.5q44 0 70.5 54.5t26.5 110.5z" />
    <glyph glyph-name="guillemotright" unicode="&#xbb;" horiz-adv-x="541" 
d="M208 25l210 197l-96 200l10 7q34 -46 150 -170q10 -10 11.5 -16t-1.5 -19q-5 -18 -32 -37q-103 -69 -246 -169zM-1 25l210 197l-96 200l10 7q34 -46 150 -170q10 -10 11.5 -16t-1.5 -19q-5 -18 -32 -37q-103 -69 -246 -169z" />
    <glyph glyph-name="onequarter" unicode="&#xbc;" horiz-adv-x="581" 
d="M450 339h-252l3 12q66 4 71 6q26 7 33 32l81 304q-14 -3 -43 -3q-32 0 -69 37l6 9q37 -16 73 -16q13 0 26.5 1.5t21.5 3t20 6t15.5 5.5t16.5 7l13 6h13q-25 -56 -37 -102l-68 -255q-7 -24 14 -32q12 -5 65 -9zM520 248h-455l6 21h455zM415 -77q-44 -57 -96 -66l-34 -97
h-55l32 95q-10 2 -55.5 16.5t-72.5 14.5q-17 0 -29 -2q-16 -17 -37 -24.5t-35 -3t-14 18.5q0 24 40 24q12 0 36 -2q79 63 139 289h78q-63 -205 -192 -292q4 0 16.5 2.5t16.5 2.5q10 0 118 -12l50 137h57l-50 -137q50 6 82 41z" />
    <glyph glyph-name="onehalf" unicode="&#xbd;" horiz-adv-x="581" 
d="M448 339h-247l-1 12q65 4 71 6q26 7 33 32l81 304q-14 -3 -43 -3q-31 0 -70 37l7 9q37 -16 73 -16q13 0 26.5 1.5t21.5 3t20 6t15.5 5.5t16.5 7l13 6h13q-25 -56 -37 -102l-68 -255q-7 -24 14 -32q12 -5 65 -9zM519 248h-455l6 21h455zM398 -96l-98 -131h-288l7 28
q11 6 40.5 22t38.5 21t30.5 17t31 18t25.5 16t28 19t25 19q65 50 88.5 89.5t23.5 82.5q0 29 -19 46t-50 17q-50 0 -101 -37t-51 -79q0 -43 47 -43q19 0 38.5 11.5t27.5 19.5t23 26l6 -6q-69 -81 -131 -81q-27 0 -44 16t-17 41q0 52 68.5 99t140.5 47q60 0 94.5 -31.5
t34.5 -73.5q0 -59 -57 -107.5t-195 -99.5l-73 -42h196q7 0 14.5 2t15.5 7.5t14 10t15 13.5l14 14t15.5 17t14.5 16z" />
    <glyph glyph-name="threequarters" unicode="&#xbe;" horiz-adv-x="581" 
d="M286 332q-54 0 -90.5 22t-36.5 58q0 30 20 48.5t40 18.5q37 0 37 -28q0 -22 -11 -30.5t-23.5 -12.5t-15.5 -14q-5 -18 14.5 -32.5t59.5 -14.5q65 0 115.5 45t50.5 109q0 52 -41 52q-17 0 -85 -45l-7 17q18 9 47 22.5t41.5 19.5t31.5 16.5t26.5 18.5t16.5 20t12 25.5
t3 31.5q0 53 -61 53q-40 0 -81 -26t-41 -62q0 -30 42 -30q8 0 16 3t12.5 6t12.5 9t10 7l5 -7q-45 -43 -87 -43q-61 0 -61 44q0 48 59 80.5t124 32.5q61 0 88 -25.5t27 -58.5q0 -35 -32.5 -61t-103.5 -34q38 0 67 -23t29 -61q0 -67 -73.5 -109t-156.5 -42zM520 248h-455l5 21
h455zM410 -77q-44 -57 -96 -66l-34 -97h-55l32 95q-10 2 -55.5 16.5t-72.5 14.5q-17 0 -29 -2q-16 -17 -37 -24.5t-35 -3t-14 18.5q0 24 40 24q12 0 36 -2q79 63 139 289h78q-63 -205 -192 -292q4 0 16.5 2.5t16.5 2.5q10 0 118 -12l50 137h57l-50 -137q50 6 82 41z" />
    <glyph glyph-name="questiondown" unicode="&#xbf;" horiz-adv-x="404" 
d="M251 647q0 22 15 37t38 15t38 -15t15 -37q0 -23 -15.5 -38t-37.5 -15t-37.5 15t-15.5 38zM2 143q0 57 33.5 96t102.5 69q77 34 120.5 69t43.5 82q0 27 -18 41.5t-45 14.5q-50 0 -65 -82l-12 4q8 44 30 68.5t55 24.5q37 0 59 -25t22 -69q0 -55 -37 -92.5t-114 -74.5
q-72 -34 -97 -66.5t-25 -82.5q0 -47 30 -80t88 -33q49 0 80 30t31 70q0 35 -20 58.5t-52 23.5q-15 0 -23 -4v-3q11 1 23.5 -8t12.5 -24q0 -17 -11 -28t-27 -11q-21 0 -33 11t-12 30q0 23 18.5 37t49.5 14q37 0 63 -27t26 -68q0 -49 -40 -83t-102 -34q-74 0 -114.5 44.5
t-40.5 107.5z" />
    <glyph glyph-name="Agrave" unicode="&#xc0;" horiz-adv-x="630" 
d="M199 279q-102 -137 -111 -150q-39 -56 -39 -71q0 -20 33.5 -32.5t65.5 -14.5l-3 -11h-260l3 11q31 2 70 20q29 14 91 88q205 256 450 575h13v-615q0 -25 3 -36.5t17 -18.5q20 -11 61 -13l-3 -11h-267l3 11q52 3 79 13q35 13 35 52v203h-241zM211 295h229v293
q-125 -158 -229 -293zM542 724l-11 -6q-24 24 -64 68.5t-50 54.5q-25 24 -25 49q0 14 9 23t22 9q16 0 25.5 -10t20.5 -33q6 -14 32.5 -69.5t40.5 -85.5z" />
    <glyph glyph-name="Aacute" unicode="&#xc1;" horiz-adv-x="630" 
d="M199 279q-102 -137 -111 -150q-39 -56 -39 -71q0 -20 33.5 -32.5t65.5 -14.5l-3 -11h-260l3 11q31 2 70 20q29 14 91 88q205 256 450 575h13v-615q0 -25 3 -36.5t17 -18.5q20 -11 61 -13l-3 -11h-267l3 11q52 3 79 13q35 13 35 52v203h-241zM211 295h229v293
q-125 -158 -229 -293zM693 894q0 -25 -45 -56q-8 -5 -43 -27.5t-72 -47t-68 -45.5l-7 8q109 115 143 157q32 38 63 38q13 0 21 -8t8 -19z" />
    <glyph glyph-name="Acircumflex" unicode="&#xc2;" horiz-adv-x="630" 
d="M199 279q-102 -137 -111 -150q-39 -56 -39 -71q0 -20 33.5 -32.5t65.5 -14.5l-3 -11h-260l3 11q31 2 70 20q29 14 91 88q205 256 450 575h13v-615q0 -25 3 -36.5t17 -18.5q20 -11 61 -13l-3 -11h-267l3 11q52 3 79 13q35 13 35 52v203h-241zM211 295h229v293
q-125 -158 -229 -293zM664 703l-11 -6l-106 144l-183 -143l-7 6q17 19 79.5 88.5t78.5 87.5q11 12 18 15.5t25 3.5q15 0 20 -3t10 -14q6 -14 34.5 -81.5t41.5 -97.5z" />
    <glyph glyph-name="Atilde" unicode="&#xc3;" horiz-adv-x="630" 
d="M199 279q-102 -137 -111 -150q-39 -56 -39 -71q0 -20 33.5 -32.5t65.5 -14.5l-3 -11h-260l3 11q31 2 70 20q29 14 91 88q205 256 450 575h13v-615q0 -25 3 -36.5t17 -18.5q20 -11 61 -13l-3 -11h-267l3 11q52 3 79 13q35 13 35 52v203h-241zM211 295h229v293
q-125 -158 -229 -293zM719 887q-72 -126 -137 -126q-30 0 -69 28.5t-61 28.5q-30 0 -56.5 -23.5t-42.5 -49.5l-12 4q13 22 29 45t47.5 49.5t58.5 26.5q33 0 70.5 -28.5t59.5 -28.5q50 0 101 78z" />
    <glyph glyph-name="Adieresis" unicode="&#xc4;" horiz-adv-x="630" 
d="M199 279q-102 -137 -111 -150q-39 -56 -39 -71q0 -20 33.5 -32.5t65.5 -14.5l-3 -11h-260l3 11q31 2 70 20q29 14 91 88q205 256 450 575h13v-615q0 -25 3 -36.5t17 -18.5q20 -11 61 -13l-3 -11h-267l3 11q52 3 79 13q35 13 35 52v203h-241zM211 295h229v293
q-125 -158 -229 -293zM675 825q0 -23 -15 -40t-40 -17q-20 0 -31 13t-11 31q0 23 16 39.5t42 16.5q16 0 27.5 -13.5t11.5 -29.5zM482 825q0 -23 -15 -40t-40 -17q-20 0 -31 13t-11 31q0 23 16 39.5t42 16.5q16 0 27.5 -13.5t11.5 -29.5z" />
    <glyph glyph-name="Aring" unicode="&#xc5;" horiz-adv-x="630" 
d="M524 721q-42 0 -71 23t-29 58q0 48 39 79.5t88 31.5q42 0 70 -23t28 -60q0 -45 -37.5 -77t-87.5 -32zM199 279q-102 -137 -111 -150q-39 -56 -39 -71q0 -20 33.5 -32.5t65.5 -14.5l-3 -11h-260l3 11q31 2 70 20q29 14 91 88q205 256 450 575h13v-615q0 -25 3 -36.5
t17 -18.5q20 -11 61 -13l-3 -11h-267l3 11q52 3 79 13q35 13 35 52v203h-241zM605 842q0 58 -53 58q-36 0 -59.5 -34.5t-23.5 -75.5q0 -56 53 -56q36 0 59.5 34.5t23.5 73.5zM211 295h229v293q-125 -158 -229 -293z" />
    <glyph glyph-name="AE" unicode="&#xc6;" horiz-adv-x="951" 
d="M257 284q-136 -161 -137 -163q-31 -42 -36 -59q-6 -20 26.5 -34.5t72.5 -16.5l-4 -11h-270l4 11q37 2 73 19q34 16 92 78q43 47 206 236t266 311q-38 13 -85 17l2 11h516l-43 -156h-15v8q0 47 -18 85t-49 42q-28 4 -78 4l-118 -1l-84 -298h88q58 0 95 32q27 21 55 91h16
l-78 -278h-14q6 36 6 55q0 39 -8 52q-21 31 -76 31h-88l-68 -241q-10 -30 -10 -48q0 -26 20 -34.5t59 -8.5q167 0 196 23q30 24 67.5 73t52.5 78h15l-65 -192h-551l4 11q60 3 82 11q35 12 45 49l61 213h-225zM271 300h215l102 355h-16q-169 -200 -301 -355z" />
    <glyph glyph-name="Ccedilla" unicode="&#xc7;" horiz-adv-x="616" 
d="M265 -13q-95 10 -155 80.5t-60 178.5q0 186 117 318t269 132q86 0 146 -54l41 51h31l-48 -247h-14q-5 56 -14 93t-27.5 71t-51.5 50.5t-82 16.5q-112 0 -198 -122.5t-86 -290.5q0 -111 51 -179t148 -68q71 0 121 41t106 124l15 -9q-23 -35 -38.5 -56t-42.5 -49.5t-53 -44
t-63.5 -27t-81.5 -11.5h-12l-13 -40q42 0 70 -15.5t28 -49.5q0 -53 -65 -80t-152 -27l6 17q63 1 107.5 17t44.5 47q0 20 -17.5 27t-58.5 7z" />
    <glyph glyph-name="Egrave" unicode="&#xc8;" horiz-adv-x="622" 
d="M654 683l-43 -156h-15v8q0 47 -18 85t-49 42q-28 4 -78 4h-118l-84 -299h88q58 0 95 32q27 21 55 91h16l-78 -278h-14q6 36 6 55q0 39 -8 52q-21 31 -76 31h-88l-68 -241q-10 -33 -10 -48q0 -27 21.5 -35t79.5 -8q145 0 174 23q30 24 67.5 73t52.5 78h15l-65 -192h-549
l4 11q50 0 84 12q33 12 43 50l147 530q4 18 4 24q0 18 -20 27q-34 15 -75 17l4 12h500zM538 724l-11 -6q-24 24 -64 68.5t-50 54.5q-25 24 -25 49q0 14 9 23t22 9q16 0 25.5 -10t20.5 -33q6 -14 32.5 -69.5t40.5 -85.5z" />
    <glyph glyph-name="Eacute" unicode="&#xc9;" horiz-adv-x="622" 
d="M654 683l-43 -156h-15v8q0 47 -18 85t-49 42q-28 4 -78 4h-118l-84 -299h88q58 0 95 32q27 21 55 91h16l-78 -278h-14q6 36 6 55q0 39 -8 52q-21 31 -76 31h-88l-68 -241q-10 -33 -10 -48q0 -27 21.5 -35t79.5 -8q145 0 174 23q30 24 67.5 73t52.5 78h15l-65 -192h-549
l4 11q50 0 84 12q33 12 43 50l147 530q4 18 4 24q0 18 -20 27q-34 15 -75 17l4 12h500zM599 894q0 -25 -45 -56q-8 -5 -43 -27.5t-72 -47t-68 -45.5l-7 8q109 115 143 157q32 38 63 38q13 0 21 -8t8 -19z" />
    <glyph glyph-name="Ecircumflex" unicode="&#xca;" horiz-adv-x="622" 
d="M654 683l-43 -156h-15v8q0 47 -18 85t-49 42q-28 4 -78 4h-118l-84 -299h88q58 0 95 32q27 21 55 91h16l-78 -278h-14q6 36 6 55q0 39 -8 52q-21 31 -76 31h-88l-68 -241q-10 -33 -10 -48q0 -27 21.5 -35t79.5 -8q145 0 174 23q30 24 67.5 73t52.5 78h15l-65 -192h-549
l4 11q50 0 84 12q33 12 43 50l147 530q4 18 4 24q0 18 -20 27q-34 15 -75 17l4 12h500zM608 723l-11 -6l-106 144l-183 -143l-7 6q17 19 79.5 88.5t78.5 87.5q11 12 18 15.5t25 3.5q15 0 20 -3t10 -14q6 -14 34.5 -81.5t41.5 -97.5z" />
    <glyph glyph-name="Edieresis" unicode="&#xcb;" horiz-adv-x="622" 
d="M654 683l-43 -156h-15v8q0 47 -18 85t-49 42q-28 4 -78 4h-118l-84 -299h88q58 0 95 32q27 21 55 91h16l-78 -278h-14q6 36 6 55q0 39 -8 52q-21 31 -76 31h-88l-68 -241q-10 -33 -10 -48q0 -27 21.5 -35t79.5 -8q145 0 174 23q30 24 67.5 73t52.5 78h15l-65 -192h-549
l4 11q50 0 84 12q33 12 43 50l147 530q4 18 4 24q0 18 -20 27q-34 15 -75 17l4 12h500zM611 835q0 -23 -15 -40t-40 -17q-20 0 -31 13t-11 31q0 23 16 39.5t42 16.5q16 0 27.5 -13.5t11.5 -29.5zM418 835q0 -23 -15 -40t-40 -17q-20 0 -31 13t-11 31q0 23 16 39.5t42 16.5
q16 0 27.5 -13.5t11.5 -29.5z" />
    <glyph glyph-name="Igrave" unicode="&#xcc;" horiz-adv-x="373" 
d="M450 683l-3 -12q-40 -2 -78 -12q-33 -10 -44 -50l-150 -535q-3 -14 -3 -20q0 -18 21 -28q8 -4 31.5 -9t37.5 -6l-2 -11h-280l2 11q55 3 75 10q32 11 43 49l149 534q4 18 4 23q0 17 -20 27q-35 15 -67 17l3 12h281zM413 724l-11 -6q-24 24 -64 68.5t-50 54.5
q-25 24 -25 49q0 14 9 23t22 9q16 0 25.5 -10t20.5 -33q6 -14 32.5 -69.5t40.5 -85.5z" />
    <glyph glyph-name="Iacute" unicode="&#xcd;" horiz-adv-x="373" 
d="M450 683l-3 -12q-40 -2 -78 -12q-33 -10 -44 -50l-150 -535q-3 -14 -3 -20q0 -18 21 -28q8 -4 31.5 -9t37.5 -6l-2 -11h-280l2 11q55 3 75 10q32 11 43 49l149 534q4 18 4 23q0 17 -20 27q-35 15 -67 17l3 12h281zM474 894q0 -25 -45 -56q-8 -5 -43 -27.5t-72 -47
t-68 -45.5l-7 8q109 115 143 157q32 38 63 38q13 0 21 -8t8 -19z" />
    <glyph glyph-name="Icircumflex" unicode="&#xce;" horiz-adv-x="373" 
d="M450 683l-3 -12q-40 -2 -78 -12q-33 -10 -44 -50l-150 -535q-3 -14 -3 -20q0 -18 21 -28q8 -4 31.5 -9t37.5 -6l-2 -11h-280l2 11q55 3 75 10q32 11 43 49l149 534q4 18 4 23q0 17 -20 27q-35 15 -67 17l3 12h281zM471 723l-11 -6l-106 144l-183 -143l-7 6
q17 19 79.5 88.5t78.5 87.5q11 12 18 15.5t25 3.5q15 0 20 -3t10 -14q6 -14 34.5 -81.5t41.5 -97.5z" />
    <glyph glyph-name="Idieresis" unicode="&#xcf;" horiz-adv-x="373" 
d="M450 683l-3 -12q-40 -2 -78 -12q-33 -10 -44 -50l-150 -535q-3 -14 -3 -20q0 -18 21 -28q8 -4 31.5 -9t37.5 -6l-2 -11h-280l2 11q55 3 75 10q32 11 43 49l149 534q4 18 4 23q0 17 -20 27q-35 15 -67 17l3 12h281zM486 835q0 -23 -15 -40t-40 -17q-20 0 -31 13t-11 31
q0 23 16 39.5t42 16.5q16 0 27.5 -13.5t11.5 -29.5zM293 835q0 -23 -15 -40t-40 -17q-20 0 -31 13t-11 31q0 23 16 39.5t42 16.5q16 0 27.5 -13.5t11.5 -29.5z" />
    <glyph glyph-name="Eth" unicode="&#xd0;" horiz-adv-x="725" 
d="M169 347h-105l6 25h106l65 232q4 18 4 23q0 17 -20 27q-35 15 -67 17l3 12h283q115 0 192.5 -64t77.5 -201q0 -127 -63 -223.5t-166.5 -145.5t-229.5 -49h-283l2 11q55 3 75 10q32 11 43 49zM250 372h165l-6 -25h-166l-70 -251q-12 -43 8.5 -60t82.5 -17q153 0 261 110
t108 280q0 132 -58.5 194t-163.5 62q-35 0 -79 -2z" />
    <glyph glyph-name="Ntilde" unicode="&#xd1;" horiz-adv-x="732" 
d="M836 683l-3 -11q-16 -1 -50.5 -9t-48.5 -16q-38 -21 -69 -134l-139 -520h-13l-260 603l-108 -416q-16 -57 -16 -92q0 -32 13 -45q10 -11 44 -21t51 -11l-3 -11h-284l3 11q18 1 52.5 10t47.5 17q40 25 70 137l100 373q4 16 4 34q0 36 -19 55q-31 31 -101 34l4 12h181
l248 -574l103 398q16 62 16 93t-14 42q-12 9 -44 19t-50 11l3 11h282zM700 887q-72 -126 -137 -126q-30 0 -69 28.5t-61 28.5q-30 0 -56.5 -23.5t-42.5 -49.5l-12 4q13 22 29 45t47.5 49.5t58.5 26.5q33 0 70.5 -28.5t59.5 -28.5q50 0 101 78z" />
    <glyph glyph-name="Ograve" unicode="&#xd2;" horiz-adv-x="701" 
d="M687 430q0 -111 -49 -213t-139.5 -167.5t-198.5 -65.5q-94 0 -170 76t-76 197q0 119 56.5 222t144.5 161t183 58q99 0 174 -75.5t75 -192.5zM606 451q0 98 -43 162.5t-129 64.5q-90 0 -160.5 -69.5t-104.5 -170t-34 -208.5q0 -98 45 -162t128 -64q89 0 159 68t104.5 169
t34.5 210zM487 724l-11 -6q-24 24 -64 68.5t-50 54.5q-25 24 -25 49q0 14 9 23t22 9q16 0 25.5 -10t20.5 -33q6 -14 32.5 -69.5t40.5 -85.5z" />
    <glyph glyph-name="Oacute" unicode="&#xd3;" horiz-adv-x="701" 
d="M687 430q0 -111 -49 -213t-139.5 -167.5t-198.5 -65.5q-94 0 -170 76t-76 197q0 119 56.5 222t144.5 161t183 58q99 0 174 -75.5t75 -192.5zM606 451q0 98 -43 162.5t-129 64.5q-90 0 -160.5 -69.5t-104.5 -170t-34 -208.5q0 -98 45 -162t128 -64q89 0 159 68t104.5 169
t34.5 210zM638 894q0 -25 -45 -56q-8 -5 -43 -27.5t-72 -47t-68 -45.5l-7 8q109 115 143 157q32 38 63 38q13 0 21 -8t8 -19z" />
    <glyph glyph-name="Ocircumflex" unicode="&#xd4;" horiz-adv-x="701" 
d="M687 430q0 -111 -49 -213t-139.5 -167.5t-198.5 -65.5q-94 0 -170 76t-76 197q0 119 56.5 222t144.5 161t183 58q99 0 174 -75.5t75 -192.5zM606 451q0 98 -43 162.5t-129 64.5q-90 0 -160.5 -69.5t-104.5 -170t-34 -208.5q0 -98 45 -162t128 -64q89 0 159 68t104.5 169
t34.5 210zM602 723l-11 -6l-106 144l-183 -143l-7 6q17 19 79.5 88.5t78.5 87.5q11 12 18 15.5t25 3.5q15 0 20 -3t10 -14q6 -14 34.5 -81.5t41.5 -97.5z" />
    <glyph glyph-name="Otilde" unicode="&#xd5;" horiz-adv-x="701" 
d="M687 430q0 -111 -49 -213t-139.5 -167.5t-198.5 -65.5q-94 0 -170 76t-76 197q0 119 56.5 222t144.5 161t183 58q99 0 174 -75.5t75 -192.5zM606 451q0 98 -43 162.5t-129 64.5q-90 0 -160.5 -69.5t-104.5 -170t-34 -208.5q0 -98 45 -162t128 -64q89 0 159 68t104.5 169
t34.5 210zM669 887q-72 -126 -137 -126q-30 0 -69 28.5t-61 28.5q-30 0 -56.5 -23.5t-42.5 -49.5l-12 4q13 22 29 45t47.5 49.5t58.5 26.5q33 0 70.5 -28.5t59.5 -28.5q50 0 101 78z" />
    <glyph glyph-name="Odieresis" unicode="&#xd6;" horiz-adv-x="701" 
d="M687 430q0 -111 -49 -213t-139.5 -167.5t-198.5 -65.5q-94 0 -170 76t-76 197q0 119 56.5 222t144.5 161t183 58q99 0 174 -75.5t75 -192.5zM606 451q0 98 -43 162.5t-129 64.5q-90 0 -160.5 -69.5t-104.5 -170t-34 -208.5q0 -98 45 -162t128 -64q89 0 159 68t104.5 169
t34.5 210zM615 825q0 -23 -15 -40t-40 -17q-20 0 -31 13t-11 31q0 23 16 39.5t42 16.5q16 0 27.5 -13.5t11.5 -29.5zM422 825q0 -23 -15 -40t-40 -17q-20 0 -31 13t-11 31q0 23 16 39.5t42 16.5q16 0 27.5 -13.5t11.5 -29.5z" />
    <glyph glyph-name="multiply" unicode="&#xd7;" horiz-adv-x="556" 
d="M497 36l-202 202l-202 -202l-22 22l202 202l-202 202l21 20l201 -201l203 203l23 -23l-203 -203l201 -201z" />
    <glyph glyph-name="Oslash" unicode="&#xd8;" horiz-adv-x="701" 
d="M107 87q-53 73 -53 170q0 119 56.5 222t144.5 161t183 58q107 0 181 -82l99 102l14 -15l-100 -103q55 -73 55 -170q0 -111 -49 -213t-139.5 -167.5t-198.5 -65.5q-105 0 -180 87l-107 -110l-14 14zM149 130l433 448q-44 100 -148 100q-90 0 -160.5 -69.5t-104.5 -170
t-34 -208.5q0 -52 14 -100zM590 557l-433 -447q44 -106 151 -106q89 0 159 68t104.5 169t34.5 210q0 59 -16 106z" />
    <glyph glyph-name="Ugrave" unicode="&#xd9;" horiz-adv-x="786" 
d="M871 683l-3 -11q-16 -1 -50.5 -9t-48.5 -16q-36 -20 -72 -143l-78 -273q-36 -126 -103.5 -186.5t-189.5 -60.5q-210 0 -210 158q0 46 14 95l102 367q4 18 4 23q0 17 -20 27q-35 15 -67 17l3 12h281l-3 -12q-41 -2 -78 -12q-33 -10 -44 -50l-98 -352q-19 -68 -19 -117
q0 -53 44 -88t121 -35q95 0 154 54t90 164l75 263q19 70 19 102q0 31 -14 42q-12 9 -44 19t-50 11l3 11h282zM590 724l-11 -6q-24 24 -64 68.5t-50 54.5q-25 24 -25 49q0 14 9 23t22 9q16 0 25.5 -10t20.5 -33q6 -14 32.5 -69.5t40.5 -85.5z" />
    <glyph glyph-name="Uacute" unicode="&#xda;" horiz-adv-x="786" 
d="M871 683l-3 -11q-16 -1 -50.5 -9t-48.5 -16q-36 -20 -72 -143l-78 -273q-36 -126 -103.5 -186.5t-189.5 -60.5q-210 0 -210 158q0 46 14 95l102 367q4 18 4 23q0 17 -20 27q-35 15 -67 17l3 12h281l-3 -12q-41 -2 -78 -12q-33 -10 -44 -50l-98 -352q-19 -68 -19 -117
q0 -53 44 -88t121 -35q95 0 154 54t90 164l75 263q19 70 19 102q0 31 -14 42q-12 9 -44 19t-50 11l3 11h282zM681 894q0 -25 -45 -56q-8 -5 -43 -27.5t-72 -47t-68 -45.5l-7 8q109 115 143 157q32 38 63 38q13 0 21 -8t8 -19z" />
    <glyph glyph-name="Ucircumflex" unicode="&#xdb;" horiz-adv-x="786" 
d="M871 683l-3 -11q-16 -1 -50.5 -9t-48.5 -16q-36 -20 -72 -143l-78 -273q-36 -126 -103.5 -186.5t-189.5 -60.5q-210 0 -210 158q0 46 14 95l102 367q4 18 4 23q0 17 -20 27q-35 15 -67 17l3 12h281l-3 -12q-41 -2 -78 -12q-33 -10 -44 -50l-98 -352q-19 -68 -19 -117
q0 -53 44 -88t121 -35q95 0 154 54t90 164l75 263q19 70 19 102q0 31 -14 42q-12 9 -44 19t-50 11l3 11h282zM672 723l-11 -6l-106 144l-183 -143l-7 6q17 19 79.5 88.5t78.5 87.5q11 12 18 15.5t25 3.5q15 0 20 -3t10 -14q6 -14 34.5 -81.5t41.5 -97.5z" />
    <glyph glyph-name="Udieresis" unicode="&#xdc;" horiz-adv-x="786" 
d="M871 683l-3 -11q-16 -1 -50.5 -9t-48.5 -16q-36 -20 -72 -143l-78 -273q-36 -126 -103.5 -186.5t-189.5 -60.5q-210 0 -210 158q0 46 14 95l102 367q4 18 4 23q0 17 -20 27q-35 15 -67 17l3 12h281l-3 -12q-41 -2 -78 -12q-33 -10 -44 -50l-98 -352q-19 -68 -19 -117
q0 -53 44 -88t121 -35q95 0 154 54t90 164l75 263q19 70 19 102q0 31 -14 42q-12 9 -44 19t-50 11l3 11h282zM683 835q0 -23 -15 -40t-40 -17q-20 0 -31 13t-11 31q0 23 16 39.5t42 16.5q16 0 27.5 -13.5t11.5 -29.5zM490 835q0 -23 -15 -40t-40 -17q-20 0 -31 13t-11 31
q0 23 16 39.5t42 16.5q16 0 27.5 -13.5t11.5 -29.5z" />
    <glyph glyph-name="Yacute" unicode="&#xdd;" horiz-adv-x="613" 
d="M715 649q0 -23 -14 -35.5t-33 -12.5q-21 0 -30.5 10.5t-9.5 22.5q0 21 13 38l-4 4q-28 -3 -63.5 -26t-73.5 -63t-72.5 -105.5t-54.5 -144.5l-66 -263q-3 -12 -3 -20q1 -19 23 -29q8 -4 37 -9t43 -5l-2 -11h-288l2 11q51 3 72 10q32 11 41 49l63 255q15 60 15 136
q0 77 -30.5 130t-96.5 53q-36 0 -66.5 -28t-46.5 -79l-13 4q52 154 174 154q48 0 80 -30t44.5 -72.5t12.5 -94.5q0 -36 -9 -96h9q122 294 288 294q26 0 42.5 -13t16.5 -34zM594 894q0 -25 -45 -56q-8 -5 -43 -27.5t-72 -47t-68 -45.5l-7 8q109 115 143 157q32 38 63 38
q13 0 21 -8t8 -19z" />
    <glyph glyph-name="Thorn" unicode="&#xde;" horiz-adv-x="588" 
d="M382 544q94 0 141.5 -39.5t47.5 -107.5q0 -99 -85 -156t-228 -57h-60l-31 -111q-3 -10 -3 -19q0 -18 21 -28q8 -4 31.5 -9t37.5 -6l-2 -11h-280l2 11q55 3 75 10q32 11 43 49l149 534q4 18 4 23q0 17 -20 27q-35 15 -67 17l3 12h274l-3 -12q-42 -4 -71 -12
q-35 -11 -44 -50l-19 -65h84zM490 388q0 66 -34.5 102t-104.5 36h-58l-89 -322h61q110 0 167.5 46.5t57.5 137.5z" />
    <glyph glyph-name="germandbls" unicode="&#xdf;" horiz-adv-x="542" 
d="M548 628q0 -66 -29 -118q-125 -49 -125 -114q0 -49 47 -123t48 -115q3 -83 -43.5 -127.5t-103.5 -44.5q-53 0 -80 26.5t-27 57.5q0 23 13.5 40t35.5 17q44 0 44 -36q0 -14 -7 -21.5t-16 -9.5t-16 -5.5t-7 -10.5q0 -45 67 -45q38 0 60 27.5t22 75.5q0 37 -14.5 72t-32 57
t-32 53t-14.5 61q0 82 97 135q27 21 46.5 58t19.5 78q0 51 -23 82.5t-65 31.5q-53 0 -98.5 -56t-75.5 -159q-15 -52 -59.5 -227.5t-71.5 -263.5q-35 -109 -95 -179q-69 -81 -142 -81q-44 0 -65.5 18t-21.5 46q0 16 12 30.5t32 14.5q17 0 31.5 -10.5t14.5 -30.5
q0 -14 -17 -40q1 -17 18 -17q54 0 89 49.5t72 171.5q27 88 66.5 249.5t61.5 239.5q19 70 45.5 115.5t72.5 87.5q29 26 69.5 40.5t78.5 14.5q60 0 89 -32t29 -83z" />
    <glyph glyph-name="agrave" unicode="&#xe0;" horiz-adv-x="528" 
d="M481 455l-115 -327q-43 -122 12 -122q35 0 67.5 36.5t57.5 101.5l12 -4q-30 -74 -65 -112.5t-86 -38.5q-40 0 -56.5 28t-0.5 87l-2 1q-62 -118 -154 -118q-56 0 -92 36.5t-36 120.5q0 42 16.5 94t47 103t83 85.5t116.5 34.5q44 0 71 -24.5t33 -54.5h2l26 73h63zM384 360
q-6 37 -31.5 61.5t-68.5 24.5q-57 0 -102.5 -57t-67 -130t-21.5 -139q0 -109 71 -109q44 0 77.5 29.5t63.5 85.5zM389 533l-11 -6q-24 24 -64 68.5t-50 54.5q-25 24 -25 49q0 14 9 23t22 9q16 0 25.5 -10t20.5 -33q6 -14 32.5 -69.5t40.5 -85.5z" />
    <glyph glyph-name="aacute" unicode="&#xe1;" horiz-adv-x="528" 
d="M481 455l-115 -327q-43 -122 12 -122q35 0 67.5 36.5t57.5 101.5l12 -4q-30 -74 -65 -112.5t-86 -38.5q-40 0 -56.5 28t-0.5 87l-2 1q-62 -118 -154 -118q-56 0 -92 36.5t-36 120.5q0 42 16.5 94t47 103t83 85.5t116.5 34.5q44 0 71 -24.5t33 -54.5h2l26 73h63zM384 360
q-6 37 -31.5 61.5t-68.5 24.5q-57 0 -102.5 -57t-67 -130t-21.5 -139q0 -109 71 -109q44 0 77.5 29.5t63.5 85.5zM490 703q0 -25 -45 -56q-8 -5 -43 -27.5t-72 -47t-68 -45.5l-7 8q109 115 143 157q32 38 63 38q13 0 21 -8t8 -19z" />
    <glyph glyph-name="acircumflex" unicode="&#xe2;" horiz-adv-x="528" 
d="M481 455l-115 -327q-43 -122 12 -122q35 0 67.5 36.5t57.5 101.5l12 -4q-30 -74 -65 -112.5t-86 -38.5q-40 0 -56.5 28t-0.5 87l-2 1q-62 -118 -154 -118q-56 0 -92 36.5t-36 120.5q0 42 16.5 94t47 103t83 85.5t116.5 34.5q44 0 71 -24.5t33 -54.5h2l26 73h63zM384 360
q-6 37 -31.5 61.5t-68.5 24.5q-57 0 -102.5 -57t-67 -130t-21.5 -139q0 -109 71 -109q44 0 77.5 29.5t63.5 85.5zM479 532l-11 -6l-106 144l-183 -143l-7 6q17 19 79.5 88.5t78.5 87.5q11 12 18 15.5t25 3.5q15 0 20 -3t10 -14q6 -14 34.5 -81.5t41.5 -97.5z" />
    <glyph glyph-name="atilde" unicode="&#xe3;" horiz-adv-x="528" 
d="M481 455l-115 -327q-43 -122 12 -122q35 0 67.5 36.5t57.5 101.5l12 -4q-30 -74 -65 -112.5t-86 -38.5q-40 0 -56.5 28t-0.5 87l-2 1q-62 -118 -154 -118q-56 0 -92 36.5t-36 120.5q0 42 16.5 94t47 103t83 85.5t116.5 34.5q44 0 71 -24.5t33 -54.5h2l26 73h63zM384 360
q-6 37 -31.5 61.5t-68.5 24.5q-57 0 -102.5 -57t-67 -130t-21.5 -139q0 -109 71 -109q44 0 77.5 29.5t63.5 85.5zM516 696q-72 -126 -137 -126q-30 0 -69 28.5t-61 28.5q-30 0 -56.5 -23.5t-42.5 -49.5l-12 4q13 22 29 45t47.5 49.5t58.5 26.5q33 0 70.5 -28.5t59.5 -28.5
q50 0 101 78z" />
    <glyph glyph-name="adieresis" unicode="&#xe4;" horiz-adv-x="528" 
d="M481 455l-115 -327q-43 -122 12 -122q35 0 67.5 36.5t57.5 101.5l12 -4q-30 -74 -65 -112.5t-86 -38.5q-40 0 -56.5 28t-0.5 87l-2 1q-62 -118 -154 -118q-56 0 -92 36.5t-36 120.5q0 42 16.5 94t47 103t83 85.5t116.5 34.5q44 0 71 -24.5t33 -54.5h2l26 73h63zM384 360
q-6 37 -31.5 61.5t-68.5 24.5q-57 0 -102.5 -57t-67 -130t-21.5 -139q0 -109 71 -109q44 0 77.5 29.5t63.5 85.5zM482 644q0 -23 -15 -40t-40 -17q-20 0 -31 13t-11 31q0 23 16 39.5t42 16.5q16 0 27.5 -13.5t11.5 -29.5zM289 644q0 -23 -15 -40t-40 -17q-20 0 -31 13
t-11 31q0 23 16 39.5t42 16.5q16 0 27.5 -13.5t11.5 -29.5z" />
    <glyph glyph-name="aring" unicode="&#xe5;" horiz-adv-x="528" 
d="M481 455l-115 -327q-43 -122 12 -122q35 0 67.5 36.5t57.5 101.5l12 -4q-30 -74 -65 -112.5t-86 -38.5q-40 0 -56.5 28t-0.5 87l-2 1q-62 -118 -154 -118q-56 0 -92 36.5t-36 120.5q0 42 16.5 94t47 103t83 85.5t116.5 34.5q44 0 71 -24.5t33 -54.5h2l26 73h63zM384 360
q-6 37 -31.5 61.5t-68.5 24.5q-57 0 -102.5 -57t-67 -130t-21.5 -139q0 -109 71 -109q44 0 77.5 29.5t63.5 85.5zM336 530q-42 0 -71 23t-29 58q0 48 39 79.5t88 31.5q42 0 70 -23t28 -60q0 -45 -37.5 -77t-87.5 -32zM417 651q0 58 -53 58q-36 0 -59.5 -34.5t-23.5 -75.5
q0 -56 53 -56q36 0 59.5 34.5t23.5 73.5z" />
    <glyph glyph-name="ae" unicode="&#xe6;" horiz-adv-x="683" 
d="M317 121l-2 1q-65 -135 -164 -135q-56 0 -92 36.5t-36 120.5q0 42 16.5 94t47 103t83 85.5t116.5 34.5q44 0 71 -24.5t33 -54.5h2l26 73h53l-19 -55q63 61 138 61q37 0 63 -17.5t26 -49.5q0 -54 -47.5 -96.5t-109.5 -62.5t-126 -23q-10 -52 -10 -92q0 -51 22.5 -79.5
t63.5 -28.5q96 0 172 141l12 -5q-85 -162 -199 -162q-51 0 -92 31.5t-48 103.5zM399 224q58 6 103 25.5t68.5 45t35.5 49.5t12 44q0 58 -51 58q-49 0 -97.5 -66t-70.5 -156zM384 360q-6 37 -31.5 61.5t-68.5 24.5q-57 0 -102.5 -57t-67 -130t-21.5 -139q0 -109 71 -109
q44 0 77.5 29.5t63.5 85.5z" />
    <glyph glyph-name="ccedilla" unicode="&#xe7;" horiz-adv-x="389" 
d="M127 -10q-44 10 -74 46.5t-30 107.5q0 63 33 135.5t94.5 127t129.5 54.5q48 0 76.5 -26t28.5 -69q0 -25 -11.5 -37.5t-28.5 -12.5q-18 0 -32 11.5t-14 28.5q0 15 13 29.5t34 22.5q-1 17 -19.5 29t-43.5 12q-48 0 -92.5 -52.5t-70.5 -128t-26 -145.5q0 -54 22 -82.5
t61 -28.5q52 0 97.5 38t78.5 100l12 -6q-86 -158 -204 -158q-11 0 -17 1l-13 -42q42 0 70 -15.5t28 -49.5q0 -53 -65 -80t-152 -27l6 17q63 1 107.5 17t44.5 47q0 20 -17.5 27t-58.5 7z" />
    <glyph glyph-name="egrave" unicode="&#xe8;" horiz-adv-x="390" 
d="M104 212q-11 -47 -11 -92q0 -51 22.5 -79.5t63.5 -28.5q96 0 172 141l12 -5q-85 -162 -199 -162q-25 0 -48 7.5t-45 24.5t-35 50t-13 78q0 41 19 93t52 102.5t87 85t116 34.5q37 0 63 -17.5t26 -49.5q0 -54 -47.5 -96.5t-109.5 -62.5t-125 -23zM106 223q58 6 103 25.5
t69 45t35.5 49.5t11.5 45q0 58 -51 58q-49 0 -97.5 -66t-70.5 -157zM340 533l-11 -6q-24 24 -64 68.5t-50 54.5q-25 24 -25 49q0 14 9 23t22 9q16 0 25.5 -10t20.5 -33q6 -14 32.5 -69.5t40.5 -85.5z" />
    <glyph glyph-name="eacute" unicode="&#xe9;" horiz-adv-x="390" 
d="M104 212q-11 -47 -11 -92q0 -51 22.5 -79.5t63.5 -28.5q96 0 172 141l12 -5q-85 -162 -199 -162q-25 0 -48 7.5t-45 24.5t-35 50t-13 78q0 41 19 93t52 102.5t87 85t116 34.5q37 0 63 -17.5t26 -49.5q0 -54 -47.5 -96.5t-109.5 -62.5t-125 -23zM106 223q58 6 103 25.5
t69 45t35.5 49.5t11.5 45q0 58 -51 58q-49 0 -97.5 -66t-70.5 -157zM451 703q0 -25 -45 -56q-8 -5 -43 -27.5t-72 -47t-68 -45.5l-7 8q109 115 143 157q32 38 63 38q13 0 21 -8t8 -19z" />
    <glyph glyph-name="ecircumflex" unicode="&#xea;" horiz-adv-x="390" 
d="M104 212q-11 -47 -11 -92q0 -51 22.5 -79.5t63.5 -28.5q96 0 172 141l12 -5q-85 -162 -199 -162q-25 0 -48 7.5t-45 24.5t-35 50t-13 78q0 41 19 93t52 102.5t87 85t116 34.5q37 0 63 -17.5t26 -49.5q0 -54 -47.5 -96.5t-109.5 -62.5t-125 -23zM106 223q58 6 103 25.5
t69 45t35.5 49.5t11.5 45q0 58 -51 58q-49 0 -97.5 -66t-70.5 -157zM430 512l-11 -6l-106 144l-183 -143l-7 6q17 19 79.5 88.5t78.5 87.5q11 12 18 15.5t25 3.5q15 0 20 -3t10 -14q6 -14 34.5 -81.5t41.5 -97.5z" />
    <glyph glyph-name="edieresis" unicode="&#xeb;" horiz-adv-x="390" 
d="M104 212q-11 -47 -11 -92q0 -51 22.5 -79.5t63.5 -28.5q96 0 172 141l12 -5q-85 -162 -199 -162q-25 0 -48 7.5t-45 24.5t-35 50t-13 78q0 41 19 93t52 102.5t87 85t116 34.5q37 0 63 -17.5t26 -49.5q0 -54 -47.5 -96.5t-109.5 -62.5t-125 -23zM106 223q58 6 103 25.5
t69 45t35.5 49.5t11.5 45q0 58 -51 58q-49 0 -97.5 -66t-70.5 -157zM433 624q0 -23 -15 -40t-40 -17q-20 0 -31 13t-11 31q0 23 16 39.5t42 16.5q16 0 27.5 -13.5t11.5 -29.5zM240 624q0 -23 -15 -40t-40 -17q-20 0 -31 13t-11 31q0 23 16 39.5t42 16.5q16 0 27.5 -13.5
t11.5 -29.5z" />
    <glyph glyph-name="igrave" unicode="&#xec;" horiz-adv-x="315" 
d="M293 140q-31 -76 -62 -113.5t-80 -37.5q-80 0 -80 78q0 29 20 83l67 170q23 59 23 89q0 36 -32 36q-35 0 -62 -35.5t-54 -104.5l-12 4q32 77 62.5 114.5t79.5 37.5q34 0 55 -21.5t21 -63.5q0 -26 -31 -101l-57 -147q-23 -60 -23 -90q0 -32 36 -32q63 0 117 138zM292 533
l-11 -6q-24 24 -64 68.5t-50 54.5q-25 24 -25 49q0 14 9 23t22 9q16 0 25.5 -10t20.5 -33q6 -14 32.5 -69.5t40.5 -85.5z" />
    <glyph glyph-name="iacute" unicode="&#xed;" horiz-adv-x="315" 
d="M293 140q-31 -76 -62 -113.5t-80 -37.5q-80 0 -80 78q0 29 20 83l67 170q23 59 23 89q0 36 -32 36q-35 0 -62 -35.5t-54 -104.5l-12 4q32 77 62.5 114.5t79.5 37.5q34 0 55 -21.5t21 -63.5q0 -26 -31 -101l-57 -147q-23 -60 -23 -90q0 -32 36 -32q63 0 117 138zM383 703
q0 -25 -45 -56q-8 -5 -43 -27.5t-72 -47t-68 -45.5l-7 8q109 115 143 157q32 38 63 38q13 0 21 -8t8 -19z" />
    <glyph glyph-name="icircumflex" unicode="&#xee;" horiz-adv-x="315" 
d="M372 512l-11 -6l-96 144l-173 -143l-7 6q29 33 84 99.5t64 76.5q11 12 18 15.5t25 3.5q15 0 20 -3t10 -14q5 -12 29 -79.5t37 -99.5zM293 140q-31 -76 -62 -113.5t-80 -37.5q-80 0 -80 78q0 29 20 83l67 170q23 59 23 89q0 36 -32 36q-35 0 -62 -35.5t-54 -104.5l-12 4
q32 77 62.5 114.5t79.5 37.5q34 0 55 -21.5t21 -63.5q0 -26 -31 -101l-57 -147q-23 -60 -23 -90q0 -32 36 -32q63 0 117 138z" />
    <glyph glyph-name="idieresis" unicode="&#xef;" horiz-adv-x="315" 
d="M385 644q0 -23 -15 -40t-40 -17q-20 0 -31 13t-11 31q0 23 16 39.5t42 16.5q16 0 27.5 -13.5t11.5 -29.5zM212 644q0 -23 -15 -40t-40 -17q-20 0 -31 13t-11 31q0 23 16 39.5t42 16.5q16 0 27.5 -13.5t11.5 -29.5zM293 140q-31 -76 -62 -113.5t-80 -37.5q-80 0 -80 78
q0 29 20 83l67 170q23 59 23 89q0 36 -32 36q-35 0 -62 -35.5t-54 -104.5l-12 4q32 77 62.5 114.5t79.5 37.5q34 0 55 -21.5t21 -63.5q0 -26 -31 -101l-57 -147q-23 -60 -23 -90q0 -32 36 -32q63 0 117 138z" />
    <glyph glyph-name="eth" unicode="&#xf0;" horiz-adv-x="459" 
d="M363 676l94 74l10 -14l-93 -73q85 -97 85 -240q0 -183 -83 -310t-212 -127q-57 0 -97 44t-40 131q0 59 31.5 127t93.5 120.5t134 52.5q30 0 59 -15.5t42 -42.5h2q4 36 4 65q0 92 -45 175l-109 -86l-9 14l110 87q-30 47 -71 77l9 9q49 -30 85 -68zM362 307q0 67 -22.5 104
t-58.5 37q-50 0 -93.5 -51.5t-67 -121.5t-23.5 -133q0 -72 24.5 -108t57.5 -36q53 0 96.5 53t65 123t21.5 133z" />
    <glyph glyph-name="ntilde" unicode="&#xf1;" horiz-adv-x="581" 
d="M567 140q-31 -76 -62.5 -113.5t-80.5 -37.5q-85 0 -85 78q0 25 22 83l59 156q22 60 22 83q0 48 -60 48q-49 0 -91.5 -40.5t-65.5 -85.5l-102 -311h-69l108 320q22 63 22 95q0 30 -28 30q-65 0 -119 -140l-12 4q32 77 62.5 114.5t79.5 37.5q37 0 57 -28t6 -87l2 -1
q28 51 73.5 83.5t88.5 32.5q48 0 76 -31t28 -71q0 -33 -19 -84l-56 -147q-24 -65 -24 -89q0 -33 37 -33q65 0 119 138zM582 696q-72 -126 -137 -126q-30 0 -69 28.5t-61 28.5q-30 0 -56.5 -23.5t-42.5 -49.5l-12 4q13 22 29 45t47.5 49.5t58.5 26.5q33 0 70.5 -28.5
t59.5 -28.5q50 0 101 78z" />
    <glyph glyph-name="ograve" unicode="&#xf2;" horiz-adv-x="457" 
d="M431 285q0 -40 -17.5 -90t-49 -97.5t-83.5 -79.5t-112 -32t-101 45t-41 130q0 57 30.5 125t92 121.5t135.5 53.5q62 0 104 -45.5t42 -130.5zM361 307q0 74 -24.5 107.5t-56.5 33.5q-50 0 -93.5 -49t-66.5 -119t-23 -138q0 -72 24 -107.5t57 -35.5q53 0 96.5 52t65 121.5
t21.5 134.5zM363 533l-11 -6q-24 24 -64 68.5t-50 54.5q-25 24 -25 49q0 14 9 23t22 9q16 0 25.5 -10t20.5 -33q6 -14 32.5 -69.5t40.5 -85.5z" />
    <glyph glyph-name="oacute" unicode="&#xf3;" horiz-adv-x="457" 
d="M431 285q0 -40 -17.5 -90t-49 -97.5t-83.5 -79.5t-112 -32t-101 45t-41 130q0 57 30.5 125t92 121.5t135.5 53.5q62 0 104 -45.5t42 -130.5zM361 307q0 74 -24.5 107.5t-56.5 33.5q-50 0 -93.5 -49t-66.5 -119t-23 -138q0 -72 24 -107.5t57 -35.5q53 0 96.5 52t65 121.5
t21.5 134.5zM454 703q0 -25 -45 -56q-8 -5 -43 -27.5t-72 -47t-68 -45.5l-7 8q109 115 143 157q32 38 63 38q13 0 21 -8t8 -19z" />
    <glyph glyph-name="ocircumflex" unicode="&#xf4;" horiz-adv-x="457" 
d="M431 285q0 -40 -17.5 -90t-49 -97.5t-83.5 -79.5t-112 -32t-101 45t-41 130q0 57 30.5 125t92 121.5t135.5 53.5q62 0 104 -45.5t42 -130.5zM361 307q0 74 -24.5 107.5t-56.5 33.5q-50 0 -93.5 -49t-66.5 -119t-23 -138q0 -72 24 -107.5t57 -35.5q53 0 96.5 52t65 121.5
t21.5 134.5zM443 512l-11 -6l-106 144l-183 -143l-7 6q17 19 79.5 88.5t78.5 87.5q11 12 18 15.5t25 3.5q15 0 20 -3t10 -14q6 -14 34.5 -81.5t41.5 -97.5z" />
    <glyph glyph-name="otilde" unicode="&#xf5;" horiz-adv-x="457" 
d="M431 285q0 -40 -17.5 -90t-49 -97.5t-83.5 -79.5t-112 -32t-101 45t-41 130q0 57 30.5 125t92 121.5t135.5 53.5q62 0 104 -45.5t42 -130.5zM361 307q0 74 -24.5 107.5t-56.5 33.5q-50 0 -93.5 -49t-66.5 -119t-23 -138q0 -72 24 -107.5t57 -35.5q53 0 96.5 52t65 121.5
t21.5 134.5zM500 676q-72 -126 -137 -126q-30 0 -69 28.5t-61 28.5q-30 0 -56.5 -23.5t-42.5 -49.5l-12 4q13 22 29 45t47.5 49.5t58.5 26.5q33 0 70.5 -28.5t59.5 -28.5q50 0 101 78z" />
    <glyph glyph-name="odieresis" unicode="&#xf6;" horiz-adv-x="457" 
d="M431 285q0 -40 -17.5 -90t-49 -97.5t-83.5 -79.5t-112 -32t-101 45t-41 130q0 57 30.5 125t92 121.5t135.5 53.5q62 0 104 -45.5t42 -130.5zM361 307q0 74 -24.5 107.5t-56.5 33.5q-50 0 -93.5 -49t-66.5 -119t-23 -138q0 -72 24 -107.5t57 -35.5q53 0 96.5 52t65 121.5
t21.5 134.5zM456 624q0 -23 -15 -40t-40 -17q-20 0 -31 13t-11 31q0 23 16 39.5t42 16.5q16 0 27.5 -13.5t11.5 -29.5zM263 624q0 -23 -15 -40t-40 -17q-20 0 -31 13t-11 31q0 23 16 39.5t42 16.5q16 0 27.5 -13.5t11.5 -29.5z" />
    <glyph glyph-name="divide" unicode="&#xf7;" horiz-adv-x="556" 
d="M342 443q0 -24 -17 -40.5t-41 -16.5t-40.5 16.5t-16.5 40.5t16.5 41t40.5 17t41 -17t17 -41zM525 245h-482v29h482v-29zM342 75q0 -24 -17 -40.5t-41 -16.5t-40.5 16.5t-16.5 40.5t16.5 41t40.5 17t41 -17t17 -41z" />
    <glyph glyph-name="oslash" unicode="&#xf8;" horiz-adv-x="457" 
d="M55 48q-28 46 -28 113q0 57 30.5 125t92 121.5t135.5 53.5q64 0 104 -46l64 71l9 -10q-64 -71 -64 -72q33 -44 33 -119q0 -40 -17.5 -90t-49 -97.5t-83.5 -79.5t-112 -32q-65 0 -106 51l-68 -74l-9 9zM100 97l253 279q-19 72 -73 72q-50 0 -93.5 -49t-66.5 -119t-23 -138
q0 -24 3 -45zM357 360l-254 -279q9 -41 30 -61.5t45 -20.5q53 0 96.5 52t65 121.5t21.5 134.5q0 23 -4 53z" />
    <glyph glyph-name="ugrave" unicode="&#xf9;" horiz-adv-x="573" 
d="M560 140q-31 -76 -62.5 -113.5t-80.5 -37.5q-89 0 -68 113l-2 1q-28 -51 -73.5 -83.5t-88.5 -32.5q-48 0 -76 32.5t-28 79.5q0 27 19 74l57 147q22 57 22 86q0 39 -30 39q-61 0 -115 -140l-12 4q30 76 60.5 113t79.5 37q35 0 55.5 -19t20.5 -59q0 -26 -21 -83l-61 -156
q-18 -45 -18 -81q0 -50 59 -50q46 0 86.5 36t68.5 85l99 314h68l-105 -318q-16 -48 -16 -82q0 -18 8.5 -29t22.5 -11q65 0 119 138zM429 533l-11 -6q-24 24 -64 68.5t-50 54.5q-25 24 -25 49q0 14 9 23t22 9q16 0 25.5 -10t20.5 -33q6 -14 32.5 -69.5t40.5 -85.5z" />
    <glyph glyph-name="uacute" unicode="&#xfa;" horiz-adv-x="573" 
d="M560 140q-31 -76 -62.5 -113.5t-80.5 -37.5q-89 0 -68 113l-2 1q-28 -51 -73.5 -83.5t-88.5 -32.5q-48 0 -76 32.5t-28 79.5q0 27 19 74l57 147q22 57 22 86q0 39 -30 39q-61 0 -115 -140l-12 4q30 76 60.5 113t79.5 37q35 0 55.5 -19t20.5 -59q0 -26 -21 -83l-61 -156
q-18 -45 -18 -81q0 -50 59 -50q46 0 86.5 36t68.5 85l99 314h68l-105 -318q-16 -48 -16 -82q0 -18 8.5 -29t22.5 -11q65 0 119 138zM510 703q0 -25 -45 -56q-8 -5 -43 -27.5t-72 -47t-68 -45.5l-7 8q109 115 143 157q32 38 63 38q13 0 21 -8t8 -19z" />
    <glyph glyph-name="ucircumflex" unicode="&#xfb;" horiz-adv-x="573" 
d="M560 140q-31 -76 -62.5 -113.5t-80.5 -37.5q-89 0 -68 113l-2 1q-28 -51 -73.5 -83.5t-88.5 -32.5q-48 0 -76 32.5t-28 79.5q0 27 19 74l57 147q22 57 22 86q0 39 -30 39q-61 0 -115 -140l-12 4q30 76 60.5 113t79.5 37q35 0 55.5 -19t20.5 -59q0 -26 -21 -83l-61 -156
q-18 -45 -18 -81q0 -50 59 -50q46 0 86.5 36t68.5 85l99 314h68l-105 -318q-16 -48 -16 -82q0 -18 8.5 -29t22.5 -11q65 0 119 138zM519 532l-11 -6l-106 144l-183 -143l-7 6q17 19 79.5 88.5t78.5 87.5q11 12 18 15.5t25 3.5q15 0 20 -3t10 -14q6 -14 34.5 -81.5
t41.5 -97.5z" />
    <glyph glyph-name="udieresis" unicode="&#xfc;" horiz-adv-x="573" 
d="M560 140q-31 -76 -62.5 -113.5t-80.5 -37.5q-89 0 -68 113l-2 1q-28 -51 -73.5 -83.5t-88.5 -32.5q-48 0 -76 32.5t-28 79.5q0 27 19 74l57 147q22 57 22 86q0 39 -30 39q-61 0 -115 -140l-12 4q30 76 60.5 113t79.5 37q35 0 55.5 -19t20.5 -59q0 -26 -21 -83l-61 -156
q-18 -45 -18 -81q0 -50 59 -50q46 0 86.5 36t68.5 85l99 314h68l-105 -318q-16 -48 -16 -82q0 -18 8.5 -29t22.5 -11q65 0 119 138zM522 644q0 -23 -15 -40t-40 -17q-20 0 -31 13t-11 31q0 23 16 39.5t42 16.5q16 0 27.5 -13.5t11.5 -29.5zM329 644q0 -23 -15 -40t-40 -17
q-20 0 -31 13t-11 31q0 23 16 39.5t42 16.5q16 0 27.5 -13.5t11.5 -29.5z" />
    <glyph glyph-name="yacute" unicode="&#xfd;" horiz-adv-x="518" 
d="M518 446l-105 -340q-107 -345 -323 -345q-41 0 -68 9.5t-38 24.5t-14.5 26.5t-3.5 23.5q0 27 17.5 43t39.5 16q19 0 29.5 -11t9.5 -25q-1 -19 -10 -28.5t-18.5 -10t-17.5 -4.5t-8 -14q3 -36 76 -36q102 0 162.5 83t105.5 244l-2 1q-28 -51 -74.5 -83.5t-90.5 -32.5
q-48 0 -76 32.5t-28 79.5q0 27 19 74l57 147q22 55 22 86q0 39 -30 39q-61 0 -115 -140l-12 4q30 76 60.5 113t79.5 37q35 0 55.5 -19t20.5 -59q0 -26 -21 -83l-61 -156q-18 -45 -18 -81q0 -50 59 -50q46 0 88.5 35.5t70.5 85.5l97 314h65zM485 703q0 -25 -45 -56
q-8 -5 -43 -27.5t-72 -47t-68 -45.5l-7 8q109 115 143 157q32 38 63 38q13 0 21 -8t8 -19z" />
    <glyph glyph-name="thorn" unicode="&#xfe;" horiz-adv-x="479" 
d="M195 -13q-44 0 -72.5 24.5t-36.5 54.5h-2l-56 -185q-14 -48 -14 -67q0 -27 41 -32q20 -2 59 -4l-3 -12h-260l3 11q52 0 71 22q16 17 38 84l234 734q15 45 15 67q0 27 -40 32q-18 2 -63 4v12l194 10l-123 -374l2 -1q22 35 63 64.5t85 29.5q56 0 92 -36.5t36 -120.5
q0 -42 -16 -94t-45.5 -103t-83 -85.5t-118.5 -34.5zM388 328q0 109 -71 109q-43 0 -83 -33.5t-68 -81.5l-73 -234q6 -36 33.5 -61t70.5 -25q57 0 102.5 57t67 130t21.5 139z" />
    <glyph glyph-name="ydieresis" unicode="&#xff;" horiz-adv-x="518" 
d="M518 446l-105 -340q-107 -345 -323 -345q-41 0 -68 9.5t-38 24.5t-14.5 26.5t-3.5 23.5q0 27 17.5 43t39.5 16q19 0 29.5 -11t9.5 -25q-1 -19 -10 -28.5t-18.5 -10t-17.5 -4.5t-8 -14q3 -36 76 -36q102 0 162.5 83t105.5 244l-2 1q-28 -51 -74.5 -83.5t-90.5 -32.5
q-48 0 -76 32.5t-28 79.5q0 27 19 74l57 147q22 55 22 86q0 39 -30 39q-61 0 -115 -140l-12 4q30 76 60.5 113t79.5 37q35 0 55.5 -19t20.5 -59q0 -26 -21 -83l-61 -156q-18 -45 -18 -81q0 -50 59 -50q46 0 88.5 35.5t70.5 85.5l97 314h65zM517 644q0 -23 -15 -40t-40 -17
q-20 0 -31 13t-11 31q0 23 16 39.5t42 16.5q16 0 27.5 -13.5t11.5 -29.5zM324 644q0 -23 -15 -40t-40 -17q-20 0 -31 13t-11 31q0 23 16 39.5t42 16.5q16 0 27.5 -13.5t11.5 -29.5z" />
    <glyph glyph-name="dotlessi" unicode="&#x131;" horiz-adv-x="315" 
d="M293 140q-31 -76 -62 -113.5t-80 -37.5q-80 0 -80 78q0 29 20 83l67 170q23 59 23 89q0 36 -32 36q-35 0 -62 -35.5t-54 -104.5l-12 4q32 77 62.5 114.5t79.5 37.5q34 0 55 -21.5t21 -63.5q0 -26 -31 -101l-57 -147q-23 -60 -23 -90q0 -32 36 -32q63 0 117 138z" />
    <glyph glyph-name="Lslash" unicode="&#x141;" horiz-adv-x="614" 
d="M241 339l-64 -230q-17 -58 -1 -74.5t96 -16.5q135 0 166 24q28 21 66 68t59 84h14l-67 -194h-547l4 11q50 0 84 12q33 12 43 50l66 239l-27 -9q-27 -9 -55 -18l-27 -9l-5 18q8 3 20 7t38.5 12.5t43.5 14.5l18 5l75 270q4 18 4 24q0 18 -20 27q-34 15 -75 17l4 12h288
l-3 -12q-41 -2 -78 -12q-33 -10 -44 -50l-70 -248l197 65l4 -19q-206 -68 -207 -68z" />
    <glyph glyph-name="lslash" unicode="&#x142;" horiz-adv-x="274" 
d="M175 323l-63 -197q-19 -58 -19 -87q0 -32 34 -32q66 0 119 137l12 -4q-31 -76 -62.5 -113.5t-80.5 -37.5q-78 0 -78 77q0 24 18 84l47 149l-82 -27l-4 16l92 31l95 298q14 43 14 67q0 27 -40 32q-18 2 -63 4v12l195 10l-128 -399l110 36l4 -17z" />
    <glyph glyph-name="OE" unicode="&#x152;" horiz-adv-x="1008" 
d="M1010 683l-43 -156h-15v8q0 47 -18 85t-49 42q-28 4 -78 4h-118l-84 -299h88q58 0 95 32q27 21 55 91h16l-78 -278h-14q6 36 6 55q0 39 -8 52q-21 31 -76 31h-88l-68 -241q-10 -33 -10 -48q0 -27 21.5 -35t79.5 -8q145 0 174 23q30 24 67.5 73t52.5 78h15l-65 -192h-562
q-107 0 -179.5 67.5t-72.5 189.5q0 183 117 304.5t282 121.5h557zM135 230q0 -93 48 -152.5t125 -59.5q96 0 125 44q20 33 38 89t61 211q50 182 51 235q0 33 -30.5 50t-108.5 17q-99 0 -171 -63.5t-105 -160t-33 -210.5z" />
    <glyph glyph-name="oe" unicode="&#x153;" horiz-adv-x="701" 
d="M349 85q-72 -99 -180 -99q-60 0 -101 45t-41 130q0 57 30.5 125t92 121.5t135.5 53.5q49 0 83.5 -31t46.5 -86q82 117 193 117q37 0 63 -17.5t26 -49.5q0 -54 -47.5 -96.5t-109.5 -62.5t-125 -23q-11 -47 -11 -92q0 -51 22.5 -79.5t63.5 -28.5q96 0 172 141l12 -5
q-85 -162 -199 -162q-40 0 -75.5 24.5t-50.5 74.5zM417 223q109 11 164 64t55 101q0 58 -51 58q-49 0 -97.5 -66t-70.5 -157zM361 307q0 74 -24.5 107.5t-56.5 33.5q-50 0 -93.5 -49t-66.5 -119t-23 -138q0 -72 24 -107.5t57 -35.5q53 0 96.5 52t65 121.5t21.5 134.5z" />
    <glyph glyph-name="Scaron" unicode="&#x160;" horiz-adv-x="522" 
d="M564 693l-57 -227h-12q-10 105 -42.5 157.5t-107.5 52.5q-66 0 -112.5 -37t-46.5 -100q0 -52 27 -82t104 -74q86 -48 122 -83t36 -90q0 -99 -74.5 -161t-186.5 -62q-52 0 -98 15t-70 35l-46 -47h-24l56 234h13q26 -217 187 -217q85 0 134 45.5t49 108.5q0 58 -27 85
t-116 77q-75 42 -110 79t-35 91q0 82 64.5 142.5t165.5 60.5q86 0 136 -50l47 47h24zM296 926l11 6l106 -144l183 143l7 -6q-17 -19 -79.5 -88.5t-78.5 -87.5q-11 -12 -18 -15.5t-25 -3.5q-15 0 -20 3t-10 14q-6 14 -34.5 81.5t-41.5 97.5z" />
    <glyph glyph-name="scaron" unicode="&#x161;" horiz-adv-x="362" 
d="M342 360q0 -26 -12 -41.5t-35 -15.5q-15 0 -27 9.5t-12 27.5q0 22 25 39t25 18q-1 6 -3.5 13t-9.5 17t-23.5 16t-39.5 6q-37 0 -65 -23.5t-28 -67.5q0 -33 26 -62t56.5 -47.5t56.5 -50.5t26 -71q0 -57 -42.5 -99t-111.5 -42q-77 0 -110 35t-33 77q0 26 16 44t39 18
t32.5 -12.5t9.5 -27.5t-9.5 -27t-29.5 -12q-21 0 -23 -6q-1 -3 -1 -7q0 -25 28.5 -47t79.5 -22q46 0 76.5 23.5t30.5 63.5q0 31 -17 56t-42 42t-49.5 35t-41.5 45t-17 61q0 53 42 94.5t102 41.5q36 0 60 -11.5t34 -30t13.5 -32.5t3.5 -27zM154 735l11 6l106 -144l183 143
l7 -6q-17 -19 -79.5 -88.5t-78.5 -87.5q-11 -12 -18 -15.5t-25 -3.5q-15 0 -20 3t-10 14q-6 14 -34.5 81.5t-41.5 97.5z" />
    <glyph glyph-name="Ydieresis" unicode="&#x178;" horiz-adv-x="613" 
d="M715 649q0 -23 -14 -35.5t-33 -12.5q-21 0 -30.5 10.5t-9.5 22.5q0 21 13 38l-4 4q-28 -3 -63.5 -26t-73.5 -63t-72.5 -105.5t-54.5 -144.5l-66 -263q-3 -12 -3 -20q1 -19 23 -29q8 -4 37 -9t43 -5l-2 -11h-288l2 11q51 3 72 10q32 11 41 49l63 255q15 60 15 136
q0 77 -30.5 130t-96.5 53q-36 0 -66.5 -28t-46.5 -79l-13 4q52 154 174 154q48 0 80 -30t44.5 -72.5t12.5 -94.5q0 -36 -9 -96h9q122 294 288 294q26 0 42.5 -13t16.5 -34zM606 835q0 -23 -15 -40t-40 -17q-20 0 -31 13t-11 31q0 23 16 39.5t42 16.5q16 0 27.5 -13.5
t11.5 -29.5zM413 835q0 -23 -15 -40t-40 -17q-20 0 -31 13t-11 31q0 23 16 39.5t42 16.5q16 0 27.5 -13.5t11.5 -29.5z" />
    <glyph glyph-name="Zcaron" unicode="&#x17d;" horiz-adv-x="581" 
d="M667 683l-4 -12l-628 -654h196q125 0 160 26q36 28 78.5 77t65.5 85h14l-73 -205h-538l3 12l628 654h-182q-61 0 -87 -5q-38 -7 -89 -59.5t-83 -102.5h-14l68 184h485zM325 926l11 6l106 -144l183 143l7 -6q-17 -19 -79.5 -88.5t-78.5 -87.5q-11 -12 -18 -15.5t-25 -3.5
q-15 0 -20 3t-10 14q-6 14 -34.5 81.5t-41.5 97.5z" />
    <glyph glyph-name="zcaron" unicode="&#x17e;" horiz-adv-x="407" 
d="M436 430q0 -19 -11.5 -36t-46.5 -45q-34 -27 -317 -251l1 -3q26 -1 81 -20t94 -20q80 -3 87 51q5 45 -46 55l4 12q80 -17 80 -93q0 -38 -28 -65t-62 -27q-47 0 -118.5 47t-102.5 47q-7 -2 -12 -5.5t-6.5 -10.5t-2 -10.5t0 -14.5t0.5 -15q0 -39 -28 -39q-11 0 -19.5 8.5
t-8.5 25.5q0 28 56 73q221 182 326 256l-1 3q-31 -2 -97.5 17t-90.5 19q-64 0 -64 -48q0 -42 61 -61l-6 -11q-99 33 -99 95q0 37 27.5 66t65.5 29q35 0 69 -23.5t65 -47t59 -23.5q7 0 12 0.5t8.5 3t6.5 3.5t4.5 5.5t2.5 6t1.5 7t0.5 7.5v8.5v8.5q0 21 9.5 33t22.5 12
q22 0 22 -30zM176 735l11 6l106 -144l183 143l7 -6q-17 -19 -79.5 -88.5t-78.5 -87.5q-11 -12 -18 -15.5t-25 -3.5q-15 0 -20 3t-10 14q-6 14 -34.5 81.5t-41.5 97.5z" />
    <glyph glyph-name="florin" unicode="&#x192;" horiz-adv-x="450" 
d="M527 566q0 -21 -9.5 -36t-29.5 -15q-43 0 -43 39q0 17 13 44q-6 12 -32 12q-111 0 -173 -214l-17 -59h126l-5 -17h-124q-52 -175 -79 -254q-41 -118 -111 -188q-70 -72 -141 -72q-35 0 -58.5 16t-23.5 41q0 21 11.5 35.5t32.5 14.5q43 0 43 -43q0 -22 -18 -40
q5 -10 17 -10q55 0 93 49.5t78 168.5q21 61 86 282h-106l4 17h105q22 81 51.5 134t78.5 95q67 58 135 58q44 0 70 -17t26 -41z" />
    <glyph glyph-name="circumflex" unicode="&#x2c6;" 
d="M485 532l-11 -6l-106 144l-183 -143l-7 6q17 19 79.5 88.5t78.5 87.5q11 12 18 15.5t25 3.5q15 0 20 -3t10 -14q6 -14 34.5 -81.5t41.5 -97.5z" />
    <glyph glyph-name="caron" unicode="&#x2c7;" 
d="M223 735l11 6l106 -144l183 143l7 -6q-17 -19 -79.5 -88.5t-78.5 -87.5q-11 -12 -18 -15.5t-25 -3.5q-15 0 -20 3t-10 14q-6 14 -34.5 81.5t-41.5 97.5z" />
    <glyph glyph-name="breve" unicode="&#x2d8;" 
d="M530 721q-38 -72 -93 -127t-101 -55q-45 0 -74.5 55.5t-31.5 126.5l10 4q4 -19 11 -38t20 -40t33.5 -34t45.5 -13q44 0 89.5 38t80.5 87z" />
    <glyph glyph-name="dotaccent" unicode="&#x2d9;" 
d="M419 659q0 -25 -17.5 -43t-42.5 -18q-23 0 -40 17t-17 40q0 24 17 41.5t40 17.5q26 0 43 -16.5t17 -38.5z" />
    <glyph glyph-name="ring" unicode="&#x2da;" 
d="M342 530q-42 0 -71 23t-29 58q0 48 39 79.5t88 31.5q42 0 70 -23t28 -60q0 -45 -37.5 -77t-87.5 -32zM423 651q0 58 -53 58q-36 0 -59.5 -34.5t-23.5 -75.5q0 -56 53 -56q36 0 59.5 34.5t23.5 73.5z" />
    <glyph glyph-name="ogonek" unicode="&#x2db;" 
d="M227 0q-121 -89 -125 -145q-2 -26 21.5 -43t76.5 -21l-6 -17q-68 0 -110 18t-42 53q0 79 163 155h22z" />
    <glyph glyph-name="tilde" unicode="&#x2dc;" 
d="M522 696q-72 -126 -137 -126q-30 0 -69 28.5t-61 28.5q-30 0 -56.5 -23.5t-42.5 -49.5l-12 4q13 22 29 45t47.5 49.5t58.5 26.5q33 0 70.5 -28.5t59.5 -28.5q50 0 101 78z" />
    <glyph glyph-name="hungarumlaut" unicode="&#x2dd;" 
d="M547 717q0 -29 -42 -56q-15 -10 -80 -55.5t-101 -69.5l-6 8q18 20 72.5 79.5t70.5 78.5q33 40 61 40q11 0 18 -7.5t7 -17.5zM364 717q0 -29 -42 -56q-15 -9 -79 -55t-100 -70l-6 8q140 157 141 158q33 40 61 40q11 0 18 -7.5t7 -17.5z" />
    <glyph glyph-name="pi" unicode="&#x3c0;" horiz-adv-x="939" 
d="M906 251q0 -177 -128 -304.5t-301 -127.5q-174 0 -302 127.5t-128 304.5q0 176 128 303t302 127q84 0 163 -34.5t137.5 -92t93.5 -137t35 -166.5zM880 251q0 166 -120 286t-283 120q-164 0 -284 -119.5t-120 -286.5q0 -110 55.5 -204.5t148.5 -149t200 -54.5
q163 0 283 120t120 288zM683 370q0 -64 -51.5 -102.5t-123.5 -38.5h-60v-153q0 -23 21 -30q20 -7 73 -10v-11h-252v11q37 2 60 10t23 30v348q0 25 -23 31q-40 11 -63 12v11h251q64 0 104.5 -29.5t40.5 -78.5zM596 353q0 42 -24.5 76.5t-73.5 34.5h-50v-219h37
q32 0 55.5 12.5t34.5 31.5t16 35t5 29z" />
    <glyph glyph-name="endash" unicode="&#x2013;" horiz-adv-x="544" 
d="M497 243h-442l12 44h442z" />
    <glyph glyph-name="emdash" unicode="&#x2014;" horiz-adv-x="934" 
d="M860 233h-782l12 43h782z" />
    <glyph glyph-name="quoteleft" unicode="&#x2018;" horiz-adv-x="166" 
d="M246 713l4 -12q-96 -50 -120 -121h33q27 0 39.5 -12.5t12.5 -30.5q0 -24 -18 -42.5t-46 -18.5q-54 0 -54 63q0 108 149 174z" />
    <glyph glyph-name="quoteright" unicode="&#x2019;" horiz-adv-x="166" 
d="M125 500l-4 12q96 50 120 121h-33q-27 0 -39.5 12.5t-12.5 30.5q0 24 18 42.5t46 18.5q54 0 54 -63q0 -108 -149 -174z" />
    <glyph glyph-name="quotesinglbase" unicode="&#x201a;" horiz-adv-x="166" 
d="M-60 -131l-4 12q96 50 120 121h-33q-27 0 -39.5 12.5t-12.5 30.5q0 24 18 42.5t46 18.5q54 0 54 -63q0 -108 -149 -174z" />
    <glyph glyph-name="quotedblleft" unicode="&#x201c;" horiz-adv-x="336" 
d="M416 713l4 -12q-96 -50 -120 -121h33q27 0 39.5 -12.5t12.5 -30.5q0 -24 -18 -42.5t-46 -18.5q-54 0 -54 63q0 108 149 174zM246 713l4 -12q-96 -50 -120 -121h33q27 0 39.5 -12.5t12.5 -30.5q0 -24 -18 -42.5t-46 -18.5q-54 0 -54 63q0 108 149 174z" />
    <glyph glyph-name="quotedblright" unicode="&#x201d;" horiz-adv-x="336" 
d="M295 500l-4 12q96 50 120 121h-33q-27 0 -39.5 12.5t-12.5 30.5q0 24 18 42.5t46 18.5q54 0 54 -63q0 -108 -149 -174zM125 500l-4 12q96 50 120 121h-33q-27 0 -39.5 12.5t-12.5 30.5q0 24 18 42.5t46 18.5q54 0 54 -63q0 -108 -149 -174z" />
    <glyph glyph-name="quotedblbase" unicode="&#x201e;" horiz-adv-x="336" 
d="M110 -131l-4 12q96 50 120 121h-33q-27 0 -39.5 12.5t-12.5 30.5q0 24 18 42.5t46 18.5q54 0 54 -63q0 -108 -149 -174zM-60 -131l-4 12q96 50 120 121h-33q-27 0 -39.5 12.5t-12.5 30.5q0 24 18 42.5t46 18.5q54 0 54 -63q0 -108 -149 -174z" />
    <glyph glyph-name="dagger" unicode="&#x2020;" horiz-adv-x="408" 
d="M439 467q-10 -38 -52 -28q-15 4 -33 32.5t-29 31.5q-9 2 -15 -4t-11 -23q-103 -314 -117 -364l-12 3q37 156 80 374q6 32 -10 37q-10 3 -40 -13t-45 -12q-40 11 -30 50q7 26 32 20q21 -5 21 -37q6 -1 29.5 3.5t33.5 1.5q28 -7 36 -21q5 24 6.5 76t5.5 66q12 39 41 31
q33 -9 21 -48q-4 -14 -29 -60t-33 -68q17 7 43 0q10 -3 28 -18.5t24 -17.5q15 27 41 20q21 -5 14 -32z" />
    <glyph glyph-name="daggerdbl" unicode="&#x2021;" horiz-adv-x="435" 
d="M461 521q-8 -29 -37 -21q-15 4 -35.5 23t-35.5 23q-17 5 -33 -30q-22 -47 -58 -152l-12 4q20 90 30 160q5 37 -12 42q-16 5 -41.5 -0.5t-39.5 -1.5q-15 4 -21.5 15t-2.5 23q8 26 32 19q23 -8 21 -37q3 0 22 -0.5t31 -4.5q27 -8 35 -21q1 6 -1 45t3 48q12 38 41 30
q30 -9 18 -47q-5 -16 -25 -46t-22 -34q14 7 41 -1q13 -4 30 -13.5t18 -10.5q15 27 40 20q21 -6 14 -32zM42 182q9 30 37 21q14 -4 35 -22.5t37 -23.5t32 29q22 49 58 152l13 -3q-20 -80 -31 -160q-5 -37 12 -42q16 -5 41.5 0.5t39.5 1.5q15 -4 21.5 -15t2.5 -23
q-9 -26 -32 -19q-23 8 -21 37q-3 0 -21.5 0.5t-30.5 4.5q-26 7 -36 21q-1 -6 1 -45t-3 -48q-12 -38 -40 -30q-31 8 -19 47q5 17 25.5 46.5t22.5 33.5q-18 -8 -42 0q-13 4 -29 14t-19 11q-15 -28 -40 -20q-22 7 -14 32z" />
    <glyph glyph-name="bullet" unicode="&#x2022;" horiz-adv-x="400" 
d="M360 325q0 -54 -40 -94t-89 -40t-89 40t-40 94t40.5 95t88.5 41t88.5 -41t40.5 -95z" />
    <glyph glyph-name="ellipsis" unicode="&#x2026;" horiz-adv-x="618" 
d="M551 47q0 -23 -16 -39t-39 -16t-39 16t-16 39t16.5 39t38.5 16q23 0 39 -16t16 -39zM345 47q0 -23 -16 -39t-39 -16t-39 16t-16 39t16.5 39t38.5 16q23 0 39 -16t16 -39zM139 47q0 -23 -16 -39t-39 -16t-39 16t-16 39t16.5 39t38.5 16q23 0 39 -16t16 -39z" />
    <glyph glyph-name="perthousand" unicode="&#x2030;" horiz-adv-x="1192" 
d="M402 494q0 -80 -64.5 -137t-135.5 -57q-53 0 -88 34t-35 89q0 76 58 136t130 60q56 0 95.5 -34.5t39.5 -90.5zM747 676l-652 -774l-16 10l651 774zM1142 181q0 -80 -64.5 -137t-135.5 -57q-53 0 -88 34t-35 89q0 76 58 136t130 60q56 0 95.5 -34.5t39.5 -90.5zM760 181
q0 -80 -64.5 -137t-135.5 -57q-53 0 -88 34t-35 89q0 76 58 136t130 60q56 0 95.5 -34.5t39.5 -90.5zM336 516q0 38 -18 62.5t-48 24.5q-53 0 -89 -65t-36 -136q0 -85 57 -85q54 0 94 60.5t40 138.5zM1076 203q0 38 -18 62.5t-48 24.5q-53 0 -89 -65t-36 -136q0 -85 57 -85
q54 0 94 60.5t40 138.5zM694 203q0 38 -18 62.5t-48 24.5q-53 0 -89 -65t-36 -136q0 -85 57 -85q54 0 94 60.5t40 138.5z" />
    <glyph glyph-name="guilsinglleft" unicode="&#x2039;" horiz-adv-x="332" 
d="M205 25l-10 -7q-129 148 -148 169q-17 19 -12 37q5 19 30 35q189 126 248 170l6 -7l-210 -200z" />
    <glyph glyph-name="guilsinglright" unicode="&#x203a;" horiz-adv-x="332" 
d="M0 25l210 197l-96 200l10 7q34 -46 150 -170q10 -10 11.5 -16t-1.5 -19q-5 -18 -32 -37q-103 -69 -246 -169z" />
    <glyph glyph-name="fraction" unicode="&#x2044;" horiz-adv-x="322" 
d="M559 739l-774 -943l-22 13l773 943z" />
    <glyph glyph-name="Euro" unicode="&#x20ac;" horiz-adv-x="595" 
d="M117 341h-54v13h58q39 115 127.5 190.5t191.5 75.5q76 0 115.5 -32.5t39.5 -76.5q0 -37 -17 -56t-45 -19q-17 0 -27.5 10t-10.5 26q0 21 18 38.5t22 32.5q2 23 -25.5 42t-76.5 19q-72 0 -134.5 -71t-97.5 -179h254v-13h-257q-14 -48 -19 -86h208v-13h-210q-4 -32 -4 -70
q0 -157 134 -157q112 0 212 134l9 -6q-45 -69 -106 -113t-131 -44q-90 0 -141.5 60.5t-51.5 167.5q0 19 1 28h-64v13h65q4 42 17 86z" />
    <glyph glyph-name="trademark" unicode="&#x2122;" horiz-adv-x="629" 
d="M712 433h-127v8q1 0 10.5 1t17 2.5t9.5 2.5q10 6 10 18v179h-6l-78 -208h-4q-7 22 -19 52l-61 151h-6v-137q0 -39 12 -49q8 -7 39 -12v-8h-113v8q31 5 37 9q12 8 12 49v134q0 23 -11 30q-18 11 -35 11v9h85l76 -185l55 152q6 17 8 33h88v-9q-10 0 -31 -6q-10 -4 -10 -17
v-186q0 -13 10 -17q5 -3 32 -7v-8zM360 609h-4q-20 59 -37 61q-9 1 -29 1h-22v-207q0 -12 11 -17q25 -5 32 -6v-8h-127v8q32 5 33 5q12 4 12 16v209h-15q-28 0 -37 -1q-11 -1 -22.5 -23t-15.5 -38h-4v74h225v-74z" />
    <glyph glyph-name="Omega" unicode="&#x2126;" horiz-adv-x="556" 
d="M525 245h-482v29h482v-29z" />
    <glyph glyph-name="partialdiff" unicode="&#x2202;" horiz-adv-x="617" 
d="M597 291q0 -31 -21.5 -52.5t-53.5 -21.5q-24 0 -56.5 23t-59.5 27l-9 -8q-6 -35 -39 -60l-1 -10q15 -20 53 -39q55 -26 55 -76q0 -30 -23 -53t-55 -23q-31 0 -53 21.5t-22 53.5q0 14 9 43t9 51v11l-7 5q-7 -1 -20 -1q-30 0 -56 18l-13 -1q-15 -22 -21 -61
q-14 -83 -78 -83q-31 0 -54 22.5t-23 54.5t24 53.5t59 21.5q49 0 74 13l3 14q-10 22 -10 43q0 13 3 25l-5 13q-9 3 -27 3q-15 0 -35 -3.5t-29 -3.5q-33 0 -55 22.5t-22 53.5t22 54t54 23q45 0 67 -42q4 -7 9 -24t11.5 -31.5t17.5 -25.5l15 1q28 30 69 30l11 7q0 28 -17 61.5
t-17 52.5q0 32 22 52.5t54 20.5t53 -22.5t21 -53.5q0 -22 -10 -37.5t-22.5 -23t-29 -22.5t-26.5 -33l4 -12q38 -20 48 -58l12 -6q23 8 54.5 39t63.5 31q30 0 51.5 -22.5t21.5 -54.5zM370 278q0 29 -19 48.5t-48 19.5q-28 0 -47.5 -19.5t-19.5 -48.5t19.5 -49.5t47.5 -20.5
q29 0 48 20t19 50z" />
    <glyph glyph-name="Delta" unicode="&#x2206;" horiz-adv-x="542" 
d="M247 515l-20 -70h283q-6 -53 -30 -142q-48 -186 -77 -281q-24 -78 -59 -134q-79 -124 -179 -124q-39 0 -60.5 20.5t-21.5 47.5q0 19 11.5 32.5t30.5 13.5t31 -11t12 -28q0 -21 -17 -42q2 -18 17 -18q54 0 91 49t72 166q32 107 97 354q7 29 13 72h-220q-83 -319 -107 -396
q-41 -130 -109 -200q-60 -60 -128 -60q-47 0 -68 21.5t-21 51.5q0 16 12 30.5t32 14.5q17 0 31.5 -10.5t14.5 -30.5q0 -6 -2 -12.5t-4 -10t-7 -11.5t-6 -10q1 -8 7.5 -13t12.5 -5q55 0 92 49.5t73 167.5q26 84 113 424h-106l7 25h106l11 40q33 121 103 189q71 69 156 69
q51 0 82.5 -20.5t31.5 -55.5q0 -18 -11.5 -30.5t-32.5 -12.5q-16 0 -32 9.5t-16 27.5q0 11 7 27.5t8 24.5q-1 6 -14 10.5t-23 4.5q-63 0 -109 -51t-78 -162z" />
    <glyph glyph-name="product" unicode="&#x220f;" horiz-adv-x="581" 
d="M448 339h-247l-1 12q65 4 71 6q26 7 33 32l81 304q-14 -3 -43 -3q-31 0 -70 37l7 9q37 -16 73 -16q13 0 26.5 1.5t21.5 3t20 6t15.5 5.5t16.5 7l13 6h13q-25 -56 -37 -102l-68 -255q-7 -24 14 -32q12 -5 65 -9zM519 248h-455l6 21h455zM398 -96l-98 -131h-288l7 28
q11 6 40.5 22t38.5 21t30.5 17t31 18t25.5 16t28 19t25 19q65 50 88.5 89.5t23.5 82.5q0 29 -19 46t-50 17q-50 0 -101 -37t-51 -79q0 -43 47 -43q19 0 38.5 11.5t27.5 19.5t23 26l6 -6q-69 -81 -131 -81q-27 0 -44 16t-17 41q0 52 68.5 99t140.5 47q60 0 94.5 -31.5
t34.5 -73.5q0 -59 -57 -107.5t-195 -99.5l-73 -42h196q7 0 14.5 2t15.5 7.5t14 10t15 13.5l14 14t15.5 17t14.5 16z" />
    <glyph glyph-name="summation" unicode="&#x2211;" horiz-adv-x="581" 
d="M450 339h-252l3 12q66 4 71 6q26 7 33 32l81 304q-14 -3 -43 -3q-32 0 -69 37l6 9q37 -16 73 -16q13 0 26.5 1.5t21.5 3t20 6t15.5 5.5t16.5 7l13 6h13q-25 -56 -37 -102l-68 -255q-7 -24 14 -32q12 -5 65 -9zM520 248h-455l6 21h455zM415 -77q-44 -57 -96 -66l-34 -97
h-55l32 95q-10 2 -55.5 16.5t-72.5 14.5q-17 0 -29 -2q-16 -17 -37 -24.5t-35 -3t-14 18.5q0 24 40 24q12 0 36 -2q79 63 139 289h78q-63 -205 -192 -292q4 0 16.5 2.5t16.5 2.5q10 0 118 -12l50 137h57l-50 -137q50 6 82 41z" />
    <glyph glyph-name="minus" unicode="&#x2212;" horiz-adv-x="556" 
d="M525 245h-482v29h482v-29z" />
    <glyph glyph-name="radical" unicode="&#x221a;" horiz-adv-x="581" 
d="M286 332q-54 0 -90.5 22t-36.5 58q0 30 20 48.5t40 18.5q37 0 37 -28q0 -22 -11 -30.5t-23.5 -12.5t-15.5 -14q-5 -18 14.5 -32.5t59.5 -14.5q65 0 115.5 45t50.5 109q0 52 -41 52q-17 0 -85 -45l-7 17q18 9 47 22.5t41.5 19.5t31.5 16.5t26.5 18.5t16.5 20t12 25.5
t3 31.5q0 53 -61 53q-40 0 -81 -26t-41 -62q0 -30 42 -30q8 0 16 3t12.5 6t12.5 9t10 7l5 -7q-45 -43 -87 -43q-61 0 -61 44q0 48 59 80.5t124 32.5q61 0 88 -25.5t27 -58.5q0 -35 -32.5 -61t-103.5 -34q38 0 67 -23t29 -61q0 -67 -73.5 -109t-156.5 -42zM520 248h-455l5 21
h455zM410 -77q-44 -57 -96 -66l-34 -97h-55l32 95q-10 2 -55.5 16.5t-72.5 14.5q-17 0 -29 -2q-16 -17 -37 -24.5t-35 -3t-14 18.5q0 24 40 24q12 0 36 -2q79 63 139 289h78q-63 -205 -192 -292q4 0 16.5 2.5t16.5 2.5q10 0 118 -12l50 137h57l-50 -137q50 6 82 41z" />
    <glyph glyph-name="infinity" unicode="&#x221e;" horiz-adv-x="853" 
d="M457 420h-236q-83 -319 -107 -396q-41 -130 -109 -200q-60 -60 -128 -60q-47 0 -68 21.5t-21 51.5q0 16 12 30.5t32 14.5q17 0 31.5 -10.5t14.5 -30.5q0 -6 -2 -12.5t-4 -10t-7 -11.5t-6 -10q1 -8 7.5 -13t12.5 -5q55 0 92 49.5t73 167.5q26 84 113 424h-106l7 25h106
l11 40q28 109 103.5 179t172.5 70q49 0 78 -21.5t31 -55.5q5 6 16 17q71 69 156 69q51 0 82.5 -20.5t31.5 -55.5q0 -18 -11.5 -30.5t-32.5 -12.5q-16 0 -32 9.5t-16 27.5q0 11 7 27.5t8 24.5q-1 6 -14 10.5t-23 4.5q-63 0 -109 -51t-78 -162l-20 -70h270q-12 -74 -49 -170
l-57 -147q-23 -60 -23 -90q0 -32 36 -32q63 0 117 138l12 -4q-31 -76 -62 -113.5t-80 -37.5q-80 0 -80 78q0 29 20 83l67 170q25 63 25 100h-202q-83 -319 -107 -396q-41 -130 -109 -200q-60 -60 -128 -60q-47 0 -68 21.5t-21 51.5q0 16 12 30.5t32 14.5q17 0 31.5 -10.5
t14.5 -30.5q0 -6 -2 -12.5t-4 -10t-7 -11.5t-6 -10q1 -8 7.5 -13t12.5 -5q55 0 92 49.5t73 167.5q35 117 115 424zM530 616q-2 0 -6.5 -0.5t-7.5 -0.5q-16 0 -32 9.5t-16 27.5q0 11 7 27.5t8 24.5q-1 6 -16.5 10.5t-25.5 4.5q-136 0 -194 -204l-20 -70h236l10 40
q20 77 57 131z" />
    <glyph glyph-name="integral" unicode="&#x222b;" horiz-adv-x="617" 
d="M597 291q0 -31 -21.5 -52.5t-53.5 -21.5q-24 0 -56.5 23t-59.5 27l-9 -8q-6 -35 -39 -60l-1 -10q15 -20 53 -39q55 -26 55 -76q0 -30 -23 -53t-55 -23q-31 0 -53 21.5t-22 53.5q0 14 9 43t9 51v11l-7 5q-7 -1 -20 -1q-30 0 -56 18l-13 -1q-15 -22 -21 -61
q-14 -83 -78 -83q-31 0 -54 22.5t-23 54.5t24 53.5t59 21.5q49 0 74 13l3 14q-10 22 -10 43q0 13 3 25l-5 13q-9 3 -27 3q-15 0 -35 -3.5t-29 -3.5q-33 0 -55 22.5t-22 53.5t22 54t54 23q45 0 67 -42q4 -7 9 -24t11.5 -31.5t17.5 -25.5l15 1q28 30 69 30l11 7q0 28 -17 61.5
t-17 52.5q0 32 22 52.5t54 20.5t53 -22.5t21 -53.5q0 -22 -10 -37.5t-22.5 -23t-29 -22.5t-26.5 -33l4 -12q38 -20 48 -58l12 -6q23 8 54.5 39t63.5 31q30 0 51.5 -22.5t21.5 -54.5zM370 278q0 29 -19 48.5t-48 19.5q-28 0 -47.5 -19.5t-19.5 -48.5t19.5 -49.5t47.5 -20.5
q29 0 48 20t19 50z" />
    <glyph glyph-name="approxequal" unicode="&#x2248;" horiz-adv-x="556" 
d="M497 36l-202 202l-202 -202l-22 22l202 202l-202 202l21 20l201 -201l203 203l23 -23l-203 -203l201 -201z" />
    <glyph glyph-name="notequal" unicode="&#x2260;" horiz-adv-x="605" 
d="M560 657q2 2 6 6.5t6 6.5q71 73 160 73q44 0 66.5 -21.5t22.5 -49.5q0 -20 -12 -34t-32 -14q-16 0 -32 9.5t-16 27.5q0 11 7 27.5t8 24.5q0 15 -22 15q-116 0 -177 -213l-20 -70h126l-8 -25h-124q-83 -319 -107 -396q-41 -130 -109 -200q-60 -60 -128 -60q-47 0 -68 21.5
t-21 51.5q0 16 12 30.5t32 14.5q17 0 31.5 -10.5t14.5 -30.5q0 -6 -2 -12.5t-4 -10t-7 -11.5t-6 -10q1 -8 7.5 -13t12.5 -5q55 0 92 49.5t73 167.5q26 84 113 424h-234q-83 -319 -107 -396q-41 -130 -109 -200q-60 -60 -128 -60q-47 0 -68 21.5t-21 51.5q0 16 12 30.5
t32 14.5q17 0 31.5 -10.5t14.5 -30.5q0 -6 -2 -12.5t-4 -10t-7 -11.5t-6 -10q1 -8 7.5 -13t12.5 -5q55 0 92 49.5t73 167.5q26 84 113 424h-106l7 25h106l11 40q28 109 103.5 179t172.5 70q50 0 78.5 -21.5t30.5 -55.5zM530 616q-2 0 -6.5 -0.5t-7.5 -0.5q-16 0 -32 9.5
t-16 27.5q0 11 7 27.5t8 24.5q-1 6 -16.5 10.5t-25.5 4.5q-136 0 -194 -204l-20 -70h235l11 40q20 75 57 131z" />
    <glyph glyph-name="lessequal" unicode="&#x2264;" horiz-adv-x="684" 
d="M643 12l-3 -12h-178q0 91 -1.5 138t-11 96.5t-28.5 72.5q-30 36 -108 36h-72q-29 -108 -75 -269q-3 -14 -3 -20q0 -18 22 -28q8 -4 31.5 -9t37.5 -6l-2 -11h-280l2 11q55 3 75 10q32 11 43 49l149 534q4 18 4 23q0 17 -20 27q-35 15 -67 17l3 12h265q99 0 149 -35t50 -99
q0 -151 -218 -194v-3q59 -9 85 -41t35 -96q8 -66 12 -123q4 -63 46 -72q31 -6 58 -8zM543 538q0 64 -35 95.5t-98 31.5h-78l-85 -303h64q103 0 167.5 44t64.5 132z" />
    <glyph glyph-name="greaterequal" unicode="&#x2265;" horiz-adv-x="397" 
d="M414 409q0 -21 -12 -38.5t-34 -17.5q-42 0 -42 39q0 10 10.5 20.5t10.5 12.5q0 11 -11 11q-23 0 -56 -41.5t-57 -88.5l-95 -306h-66l100 320q19 60 19 90q0 35 -26 35q-63 0 -118 -141l-12 5q31 77 62 114.5t80 37.5q37 0 57 -28.5t7 -85.5l2 -1q18 41 53 78t73 37
q25 0 40 -15t15 -37z" />
    <glyph glyph-name="lozenge" unicode="&#x25ca;" horiz-adv-x="378" 
d="M164 434q-6 -27 -6 -58q0 -77 58 -77q36 0 71 28.5t58 71.5l10 -6q-58 -115 -147 -115q-46 0 -81.5 27t-35.5 89q0 70 62 148t148 78q70 0 70 -51q0 -56 -61.5 -90.5t-145.5 -44.5zM166 446q82 13 119 50t37 69q0 39 -35 39q-33 0 -69.5 -46t-51.5 -112z" />
    <glyph glyph-name="NUL" unicode="&#xe000;" horiz-adv-x="0" 
 />
    <glyph glyph-name="HT" unicode="&#xe001;" horiz-adv-x="0" 
 />
    <glyph glyph-name="apple" unicode="&#xf8ff;" horiz-adv-x="617" 
d="M597 291q0 -31 -21.5 -52.5t-53.5 -21.5q-24 0 -56.5 23t-59.5 27l-9 -8q-6 -35 -39 -60l-1 -10q15 -20 53 -39q55 -26 55 -76q0 -30 -23 -53t-55 -23q-31 0 -53 21.5t-22 53.5q0 14 9 43t9 51v11l-7 5q-7 -1 -20 -1q-30 0 -56 18l-13 -1q-15 -22 -21 -61
q-14 -83 -78 -83q-31 0 -54 22.5t-23 54.5t24 53.5t59 21.5q49 0 74 13l3 14q-10 22 -10 43q0 13 3 25l-5 13q-9 3 -27 3q-15 0 -35 -3.5t-29 -3.5q-33 0 -55 22.5t-22 53.5t22 54t54 23q45 0 67 -42q4 -7 9 -24t11.5 -31.5t17.5 -25.5l15 1q28 30 69 30l11 7q0 28 -17 61.5
t-17 52.5q0 32 22 52.5t54 20.5t53 -22.5t21 -53.5q0 -22 -10 -37.5t-22.5 -23t-29 -22.5t-26.5 -33l4 -12q38 -20 48 -58l12 -6q23 8 54.5 39t63.5 31q30 0 51.5 -22.5t21.5 -54.5zM370 278q0 29 -19 48.5t-48 19.5q-28 0 -47.5 -19.5t-19.5 -48.5t19.5 -49.5t47.5 -20.5
q29 0 48 20t19 50z" />
    <glyph glyph-name="R.alt" horiz-adv-x="684" 
d="M643 12l-3 -12h-178q0 91 -1.5 138t-11 96.5t-28.5 72.5q-30 36 -108 36h-72q-29 -108 -75 -269q-3 -14 -3 -20q0 -18 22 -28q8 -4 31.5 -9t37.5 -6l-2 -11h-280l2 11q55 3 75 10q32 11 43 49l149 534q4 18 4 23q0 17 -20 27q-35 15 -67 17l3 12h265q99 0 149 -35t50 -99
q0 -151 -218 -194v-3q59 -9 85 -41t35 -96q8 -66 12 -123q4 -63 46 -72q31 -6 58 -8zM543 538q0 64 -35 95.5t-98 31.5h-78l-85 -303h64q103 0 167.5 44t64.5 132z" />
    <glyph glyph-name="r.alt" horiz-adv-x="397" 
d="M414 409q0 -21 -12 -38.5t-34 -17.5q-42 0 -42 39q0 10 10.5 20.5t10.5 12.5q0 11 -11 11q-23 0 -56 -41.5t-57 -88.5l-95 -306h-66l100 320q19 60 19 90q0 35 -26 35q-63 0 -118 -141l-12 5q31 77 62 114.5t80 37.5q37 0 57 -28.5t7 -85.5l2 -1q18 41 53 78t73 37
q25 0 40 -15t15 -37z" />
    <glyph glyph-name="ampersand.alt" horiz-adv-x="656" 
d="M414 196q91 200 165 200q33 0 50 -17.5t17 -40.5q0 -17 -9 -30t-26 -13q-25 0 -37.5 19.5t-29.5 19.5q-24 0 -53.5 -39t-68.5 -114q54 -101 54 -160q0 -112 -59.5 -181.5t-165.5 -74.5l-3 24q85 0 133.5 34.5t48.5 126.5q0 61 -49 162q-79 -126 -197 -126
q-69 0 -116.5 41.5t-47.5 111.5q0 76 55.5 138.5t156.5 105.5q-32 72 -32 120q0 82 50 138t127 56q48 0 80 -29.5t32 -77.5q0 -130 -188 -194q18 -38 59.5 -108t53.5 -92zM296 408q159 66 159 177q0 38 -20.5 63.5t-60.5 25.5q-48 0 -80 -42.5t-32 -96.5q0 -52 34 -127z
M237 372q-67 -35 -106 -87.5t-39 -112.5q0 -61 32.5 -102.5t87.5 -41.5q93 0 162 97q-17 32 -66.5 117.5t-70.5 129.5z" />
    </font>
</defs>
</svg>
