<svg viewBox="0 0 20 20"><path d="M17.73 5.27a.89.89 0 0 1-.9.9h-2.26a.89.89 0 0 1-.9-.9V3.13a.87.87 0 0 1 .26-.63.85.85 0 0 1 .64-.27h2.27a.85.85 0 0 1 .64.27.87.87 0 0 1 .26.63zm0 11.63a.76.76 0 0 1-.23.57.77.77 0 0 1-.56.23H3a.78.78 0 0 1-.79-.8V8.46h1.85a5.58 5.58 0 0 0-.26 1.7 5.72 5.72 0 0 0 1.82 4.27A6.08 6.08 0 0 0 10 16.2a6.26 6.26 0 0 0 3.13-.81 6.07 6.07 0 0 0 2.27-2.19 5.77 5.77 0 0 0 .83-3A5.64 5.64 0 0 0 16 8.46h1.76zM7.18 7.21A3.93 3.93 0 0 1 10 6.07a3.94 3.94 0 0 1 2.84 1.14A3.69 3.69 0 0 1 14 10a3.69 3.69 0 0 1-1.18 2.75 3.94 3.94 0 0 1-2.82 1.1 3.94 3.94 0 0 1-2.83-1.14 3.81 3.81 0 0 1 0-5.51M19.25.76A2.47 2.47 0 0 0 17.43 0H2.57A2.46 2.46 0 0 0 .76.76 2.46 2.46 0 0 0 0 2.57v14.86a2.47 2.47 0 0 0 .76 1.81 2.46 2.46 0 0 0 1.81.76h14.86A2.58 2.58 0 0 0 20 17.43V2.57a2.47 2.47 0 0 0-.75-1.81"/></svg>