<svg viewBox="0 0 20 20"><path d="M0 9.68a6.36 6.36 0 0 0 4 6.24A6.27 6.27 0 0 0 11.28 14a7.28 7.28 0 0 0 1.14-4.9H6.35v2.17h3.63C9.45 14 5.8 14.85 3.87 13.1A4.07 4.07 0 0 1 4 6.76a4.19 4.19 0 0 1 5 .13 22.61 22.61 0 0 0 1.6-1.67 6.44 6.44 0 0 0-4.25-1.57A6.34 6.34 0 0 0 0 9.68zm16.37-2.41v1.81h-1.83v1.8h1.81v1.81h1.81v-1.81h1.81V9.09h-1.78V7.28z"/><path d="M0 9.68a6.34 6.34 0 0 1 6.34-6 6.44 6.44 0 0 1 4.26 1.54A22.61 22.61 0 0 1 9 6.89a4.19 4.19 0 0 0-5-.13 4.07 4.07 0 0 0-.17 6.34c1.97 1.75 5.62.9 6.17-1.8H6.37V9.13h6.07A7.28 7.28 0 0 1 11.28 14a6.27 6.27 0 0 1-7.23 1.92A6.36 6.36 0 0 1 0 9.68zm16.37-2.41h1.8v1.81H20v1.8h-1.81v1.81h-1.82v-1.81h-1.81V9.09h1.81q-.01-.92 0-1.82z"/></svg>