<svg xmlns="http://www.w3.org/2000/svg" viewBox="0 0 28.35 28.35"><path d="M14 6.49c2.503 0 2.8.009 3.788.054.914.042 1.41.194 1.741.323.438.17.75.373 1.078.7.328.329.531.641.701 1.079.129.33.281.827.323 1.74.045.99.055 1.286.055 3.789s-.01 2.8-.055 3.788c-.042.914-.194 1.41-.323 1.741-.17.438-.373.75-.7 1.078-.329.328-.641.531-1.079.701-.33.129-.827.281-1.74.323-.99.045-1.286.055-3.789.055s-2.8-.01-3.788-.055c-.914-.042-1.41-.194-1.741-.323a2.905 2.905 0 0 1-1.078-.7 2.905 2.905 0 0 1-.701-1.079c-.129-.33-.281-.827-.323-1.74-.045-.99-.055-1.286-.055-3.789s.01-2.8.055-3.788c.042-.914.194-1.41.323-1.741.17-.438.373-.75.7-1.078.329-.328.641-.531 1.079-.701.33-.129.827-.281 1.74-.323.99-.045 1.286-.055 3.789-.055M14 4.8c-2.546 0-2.865.01-3.865.056-.998.046-1.68.204-2.276.436-.616.24-1.14.56-1.66 1.082a4.595 4.595 0 0 0-1.082 1.66c-.232.596-.39 1.278-.436 2.276-.045 1-.056 1.319-.056 3.865 0 2.546.01 2.865.056 3.865.046.998.204 1.68.436 2.276.24.616.56 1.14 1.081 1.66a4.595 4.595 0 0 0 1.661 1.082c.596.232 1.278.39 2.276.436 1 .045 1.319.056 3.865.056s2.865-.01 3.865-.056c.998-.046 1.68-.204 2.276-.436.616-.24 1.14-.56 1.66-1.082a4.595 4.595 0 0 0 1.082-1.66c.232-.596.39-1.278.436-2.276.045-1 .056-1.319.056-3.865s-.01-2.865-.056-3.865c-.046-.998-.204-1.68-.436-2.276a4.596 4.596 0 0 0-1.081-1.66 4.595 4.595 0 0 0-1.661-1.082c-.596-.232-1.278-.39-2.276-.436-1-.045-1.319-.056-3.865-.056z"/><path d="M14 9.36a4.814 4.814 0 1 0 0 9.63 4.814 4.814 0 0 0 0-9.63zm0 7.94a3.125 3.125 0 1 1 0-6.25 3.125 3.125 0 0 1 0 6.25z"/><circle cx="19.004" cy="9.171" r="1.125"/></svg>