<svg xmlns="http://www.w3.org/2000/svg" viewBox="0 0 28.4 28.4"><path d="M5.7 13.9c-.2 2.3 1.3 4.5 3.4 5.3 2.1.8 4.8.3 6.1-1.6.9-1.2 1.1-2.7 1-4.2H11v1.8h3.1c-.5 2.3-3.6 3-5.2 1.5-1.7-1.3-1.6-4.2.1-5.4 1.2-1 3-.7 4.2.1.5-.4.9-.9 1.4-1.4-1-.8-2.3-1.4-3.6-1.3-2.7 0-5.3 2.4-5.3 5.2zm13.9-2v1.5h-1.5v1.5h1.5v1.5h1.5v-1.5h1.5v-1.5h-1.5v-1.5h-1.5z"/><path d="M5.7 13.9c0-2.8 2.6-5.2 5.4-5.1 1.3-.1 2.6.5 3.6 1.3-.4.5-.9 1-1.4 1.4-1.2-.8-3-1.1-4.2-.1-1.8 1.2-1.8 4.1-.1 5.4 1.6 1.5 4.7.8 5.2-1.5h-3.1v-1.8h5.2c.1 1.4-.1 3-1 4.2-1.3 1.9-4 2.4-6.1 1.6-2.2-.9-3.7-3.1-3.5-5.4zM19.6 11.9h1.5v1.5h1.5v1.5h-1.5v1.5h-1.5v-1.5h-1.5v-1.5h1.5v-1.5z"/></svg>