<svg viewBox="0 0 20 20"><title>Pinterest</title><path d="M10 0a10 10 0 00-4 19.16 8.78 8.78 0 01.17-2.3l1.29-5.45a3.84 3.84 0 01-.32-1.58c0-1.48.86-2.59 1.93-2.59a1.34 1.34 0 011.35 1.5 21.52 21.52 0 01-.88 3.55 1.55 1.55 0 001.58 1.93c1.89 0 3.17-2.43 3.17-5.32 0-2.19-1.48-3.83-4.16-3.83a4.74 4.74 0 00-4.94 4.79 2.89 2.89 0 00.66 2 .48.48 0 01.14.56l-.2.8a.34.34 0 01-.5.25c-1.4-.57-2-2.1-2-3.82 0-2.84 2.4-6.25 7.15-6.25 3.82 0 6.33 2.76 6.33 5.73 0 3.92-2.18 6.85-5.4 6.85a2.87 2.87 0 01-2.49-1.28s-.58 2.3-.7 2.75a8.38 8.38 0 01-1 2.14A10 10 0 1010 0z"/></svg>