<svg xmlns="http://www.w3.org/2000/svg" viewBox="0 0 300 300"><path fill="#040404" d="M150 300.1c82.8 0 150-67.2 150-150S232.8.1 150 .1 0 67.3 0 150.1s67.2 150 150 150"/><path fill="none" d="M0 .1h300v300H0z"/><linearGradient id="a" gradientUnits="userSpaceOnUse" x1="76.1" y1="151.9" x2="223.9" y2="151.9" gradientTransform="matrix(1 0 0 -1 0 302)"><stop offset="0" stop-color="#fff"/><stop offset="1" stop-color="#b0b1b1"/></linearGradient><path fill="url(#a)" d="M88.4 222.8c-2.2-4.1-2.2-8.5-2.2-8.5V85.9c0-6.6 2.4-11.1 7.5-13.8 4.1-2.2 8.5-2.2 8.5-2.2h95.7c6.6 0 11.1 2.4 13.8 7.5 2.2 4.1 2.2 8.5 2.2 8.5v128.3c0 6.6-2.4 11.1-7.5 13.8-4.1 2.1-8.4 2.2-8.5 2.2h-95.7c-6.7 0-11.2-2.4-13.8-7.4M99.9 60c-2.4.3-6.4 1-10.5 3-6.1 3-13.3 9.5-13.3 22.9v128.3c0 .7.1 6.6 3.2 12.7 3 6.1 9.5 13.3 22.9 13.3h95.7c.7 0 6.6-.1 12.7-3.2 6.1-3 13.3-9.5 13.3-22.9V85.9c0-.7-.1-6.6-3.2-12.7-2.8-5.6-8.4-12.2-19.7-13.2H99.9z"/><linearGradient id="b" gradientUnits="userSpaceOnUse" x1="-208.099" y1="152.95" x2="-111.799" y2="152.95" gradientTransform="rotate(180 -5 151)"><stop offset="0" stop-color="#fff"/><stop offset="1" stop-color="#b0b1b1"/></linearGradient><path fill="url(#b)" d="M106.8 198.5c-2.8 0-5 2.2-5 5s2.2 5 5 5h86.3c2.8 0 5-2.2 5-5s-2.2-5-5-5h-86.3zm0-26.1c-2.8 0-5 2.2-5 5s2.2 5 5 5h86.3c2.8 0 5-2.2 5-5s-2.2-5-5-5h-86.3zm0-26.1c-2.8 0-5 2.2-5 5s2.2 5 5 5h86.3c2.8 0 5-2.2 5-5s-2.2-5-5-5h-86.3zm0-56.7c-2.8 0-5 2.2-5 5s2.2 5 5 5h86.3c2.8 0 5-2.2 5-5s-2.2-5-5-5h-86.3z"/><path fill="#FFF" d="M111.5 121.8c0-2.7-2.2-4.8-4.8-4.8-2.7 0-4.8 2.2-4.8 4.8 0 2.7 2.2 4.8 4.8 4.8 2.7.1 4.8-2.1 4.8-4.8m21.7 0c0-2.7-2.2-4.8-4.8-4.8-2.7 0-4.8 2.2-4.8 4.8 0 2.7 2.2 4.8 4.8 4.8 2.6.1 4.8-2.1 4.8-4.8m21.6 0c0-2.7-2.2-4.8-4.8-4.8s-4.8 2.2-4.8 4.8c0 2.7 2.2 4.8 4.8 4.8s4.8-2.1 4.8-4.8m21.7 0c0-2.7-2.2-4.8-4.8-4.8s-4.8 2.2-4.8 4.8c0 2.7 2.2 4.8 4.8 4.8s4.8-2.1 4.8-4.8m21.7 0c0-2.7-2.2-4.8-4.8-4.8-2.7 0-4.8 2.2-4.8 4.8 0 2.7 2.2 4.8 4.8 4.8 2.6.1 4.8-2.1 4.8-4.8"/><path fill="none" d="M0 .1h300v300H0z"/></svg>