<svg viewBox="0 0 300 300" xmlns="http://www.w3.org/2000/svg" xmlns:xlink="http://www.w3.org/1999/xlink"><linearGradient id="a"><stop offset="0" stop-color="#fff"/><stop offset="1" stop-color="#b0b1b1"/></linearGradient><linearGradient id="b" gradientTransform="matrix(1 0 0 -1 0 302)" gradientUnits="userSpaceOnUse" x1="76.1" x2="223.9" xlink:href="#a" y1="151.9" y2="151.9"/><linearGradient id="c" gradientTransform="matrix(-1 0 0 -1 -10 302)" gradientUnits="userSpaceOnUse" x1="-208.099" x2="-111.799" xlink:href="#a" y1="152.95" y2="152.95"/><path d="m150 300.1c82.8 0 150-67.2 150-150s-67.2-150-150-150-150 67.2-150 150 67.2 150 150 150" fill="#040404"/><path d="m0 .1h300v300h-300z" fill="none"/><path d="m88.4 222.8c-2.2-4.1-2.2-8.5-2.2-8.5v-128.4c0-6.6 2.4-11.1 7.5-13.8 4.1-2.2 8.5-2.2 8.5-2.2h95.7c6.6 0 11.1 2.4 13.8 7.5 2.2 4.1 2.2 8.5 2.2 8.5v128.3c0 6.6-2.4 11.1-7.5 13.8-4.1 2.1-8.4 2.2-8.5 2.2h-95.7c-6.7 0-11.2-2.4-13.8-7.4m11.5-162.8c-2.4.3-6.4 1-10.5 3-6.1 3-13.3 9.5-13.3 22.9v128.3c0 .7.1 6.6 3.2 12.7 3 6.1 9.5 13.3 22.9 13.3h95.7c.7 0 6.6-.1 12.7-3.2 6.1-3 13.3-9.5 13.3-22.9v-128.2c0-.7-.1-6.6-3.2-12.7-2.8-5.6-8.4-12.2-19.7-13.2z" fill="url(#b)"/><path d="m106.8 198.5c-2.8 0-5 2.2-5 5s2.2 5 5 5h86.3c2.8 0 5-2.2 5-5s-2.2-5-5-5zm0-26.1c-2.8 0-5 2.2-5 5s2.2 5 5 5h86.3c2.8 0 5-2.2 5-5s-2.2-5-5-5zm0-26.1c-2.8 0-5 2.2-5 5s2.2 5 5 5h86.3c2.8 0 5-2.2 5-5s-2.2-5-5-5zm0-56.7c-2.8 0-5 2.2-5 5s2.2 5 5 5h86.3c2.8 0 5-2.2 5-5s-2.2-5-5-5z" fill="url(#c)"/><path d="m111.5 121.8c0-2.7-2.2-4.8-4.8-4.8-2.7 0-4.8 2.2-4.8 4.8 0 2.7 2.2 4.8 4.8 4.8 2.7.1 4.8-2.1 4.8-4.8m21.7 0c0-2.7-2.2-4.8-4.8-4.8-2.7 0-4.8 2.2-4.8 4.8 0 2.7 2.2 4.8 4.8 4.8 2.6.1 4.8-2.1 4.8-4.8m21.6 0c0-2.7-2.2-4.8-4.8-4.8s-4.8 2.2-4.8 4.8c0 2.7 2.2 4.8 4.8 4.8s4.8-2.1 4.8-4.8m21.7 0c0-2.7-2.2-4.8-4.8-4.8s-4.8 2.2-4.8 4.8c0 2.7 2.2 4.8 4.8 4.8s4.8-2.1 4.8-4.8m21.7 0c0-2.7-2.2-4.8-4.8-4.8-2.7 0-4.8 2.2-4.8 4.8 0 2.7 2.2 4.8 4.8 4.8 2.6.1 4.8-2.1 4.8-4.8" fill="#fff"/><path d="m0 .1h300v300h-300z" fill="none"/></svg>