<svg xmlns="http://www.w3.org/2000/svg" viewBox="0 0 28.4 28.4"><path d="M1.4 22.8c-.2 0-.4 0-.5-.1-.3-.2-.5-.5-.5-.9V6.6c0-.3.2-.7.5-.9.3-.2.7-.2 1 0l15.2 7.6c.3.2.6.5.6.9s-.2.7-.6.9L1.9 22.7c-.2 0-.3.1-.5.1zm1-14.6v11.9l11.9-6L2.4 8.2zM24.7 22.6c-.2 0-.4-.1-.6-.2-.5-.3-.6-.9-.3-1.4 1.4-2 2.1-4.4 2.1-6.9s-.7-4.8-2.1-6.9c-.3-.5-.2-1.1.3-1.4s1.1-.2 1.4.3c1.6 2.4 2.4 5.1 2.4 8s-.8 5.6-2.4 8c-.2.3-.5.5-.8.5zM20.2 20.3c-.2 0-.4-.1-.6-.2-.4-.3-.5-1-.2-1.4 1-1.3 1.5-2.9 1.5-4.5s-.5-3.2-1.5-4.5c-.3-.4-.2-1.1.2-1.4.5-.4 1.1-.3 1.4.2 1.3 1.7 1.9 3.6 1.9 5.7s-.7 4.1-1.9 5.7c-.2.3-.5.4-.8.4z"/></svg>