<svg xmlns="http://www.w3.org/2000/svg" viewBox="0 0 28.4 28.4"><path d="M17.8 15.6c0-.1-.2-.1-.3-.2l-1.2-.6c-.2-.1-.3-.1-.4.1-.1.2-.4.5-.5.7-.1.1-.2.1-.4 0s-.7-.3-1.4-.8c-.5-.5-.9-1-1-1.2s0-.3.1-.3l.3-.3c.1-.1.1-.2.2-.3.1-.1 0-.2 0-.3s-.4-.9-.5-1.3c-.1-.3-.3-.3-.4-.3H12c-.1 0-.3 0-.5.2s-.6.6-.6 1.4c0 .8.6 1.6.7 1.8.1.1 1.2 1.9 2.9 2.6s1.7.5 2 .4c.3 0 1-.4 1.2-.8.2-.4.2-.7.1-.8m-3.5-7.4c-3.2 0-5.8 2.6-5.8 5.8 0 1.3.4 2.4 1.1 3.4l-.7 2.2 2.2-.7c.9.6 2 1 3.2 1 3.2 0 5.8-2.6 5.8-5.8.1-3.3-2.6-5.9-5.8-5.9m7 5.8c0 3.8-3.1 6.9-7 6.9-1.2 0-2.4-.3-3.4-.9L7 21.2l1.3-3.7c-.6-1-1-2.3-1-3.6 0-3.8 3.1-6.9 7-6.9 3.8.1 7 3.2 7 7"/></svg>