<svg xmlns="http://www.w3.org/2000/svg" viewBox="0 0 28.4 28.4"><path d="M14.2 7.1c-3.9 0-7.1 3.2-7.1 7.1 0 2.9 1.7 5.4 4.2 6.5 0-.5 0-1.1.1-1.6.1-.6.9-3.9.9-3.9s-.2-.5-.2-1.1c0-1.1.6-1.8 1.4-1.8.6 0 1 .5 1 1.1s-.4 1.6-.6 2.5c-.2.8.4 1.4 1.1 1.4 1.3 0 2.2-1.7 2.2-3.8 0-1.6-1-2.7-2.9-2.7-2.1 0-3.5 1.6-3.5 3.4 0 .6.2 1.1.5 1.4.1.2.1.2.1.4 0 .1-.1.4-.1.6s-.2.2-.4.2c-1-.4-1.5-1.5-1.5-2.7 0-2 1.7-4.4 5.1-4.4 2.7 0 4.5 2 4.5 4.1 0 2.8-1.5 4.9-3.8 4.9-.8 0-1.5-.4-1.7-.9 0 0-.4 1.6-.5 1.9-.2.5-.4 1.1-.7 1.5.6.2 1.3.3 2 .3 3.9 0 7.1-3.2 7.1-7.1-.1-4.1-3.3-7.3-7.2-7.3z"/></svg>