<svg xmlns="http://www.w3.org/2000/svg" viewBox="0 0 18 18"><path d="M0 8.7c-.2 2.4 1.4 4.8 3.6 5.6 2.2.9 5.1.3 6.5-1.7.9-1.3 1.1-2.9 1-4.4H5.6v1.9h3.3c-.5 2.4-3.8 3.2-5.5 1.6-1.8-1.4-1.7-4.4.2-5.7 1.3-1 3.1-.8 4.4.1.5-.5 1-1 1.4-1.5-.9-.8-2.3-1.4-3.7-1.3C2.8 3.2.1 5.8 0 8.7zm14.7-2.2v1.6h-1.6v1.6h1.6v1.6h1.6V9.7h1.6V8.1h-1.6V6.5h-1.6z"/><path d="M0 8.7c0-2.9 2.8-5.5 5.7-5.4 1.4-.1 2.7.5 3.8 1.4-.5.5-.9 1-1.4 1.5-1.3-.9-3.2-1.2-4.5-.1-1.9 1.3-1.9 4.3-.2 5.7 1.7 1.6 5 .8 5.5-1.6H5.6V8.3h5.5c.1 1.5-.1 3.2-1 4.4-1.4 2-4.3 2.6-6.5 1.7-2.2-.9-3.8-3.3-3.6-5.7zM14.7 6.5h1.6v1.6h1.6v1.6h-1.6v1.6h-1.6V9.7h-1.6V8.1h1.6V6.5z"/></svg>