<svg xmlns="http://www.w3.org/2000/svg" viewBox="0 0 18 18"><path d="M9 0C4 0 0 4 0 9c0 3.7 2.2 6.9 5.4 8.2 0-.6 0-1.4.2-2.1.2-.7 1.2-4.9 1.2-4.9s-.4-.5-.4-1.4c0-1.3.8-2.3 1.7-2.3.8 0 1.2.6 1.2 1.4 0 .8-.5 2.1-.8 3.2-.2.9.5 1.7 1.5 1.7 1.7 0 2.9-2.2 2.9-4.8 0-2-1.3-3.4-3.7-3.4-2.7 0-4.4 2-4.4 4.3 0 .8.2 1.3.6 1.8.2.2.2.3.1.5 0 .2-.1.6-.2.7-.1.2-.2.3-.5.2C3.5 11.6 3 10.2 3 8.7 2.9 6.1 5.1 3 9.3 3 12.8 3 15 5.5 15 8.2c0 3.5-2 6.2-4.9 6.2-1 0-1.9-.5-2.2-1.1 0 0-.5 2.1-.6 2.5-.2.7-.6 1.4-.9 1.9.9.2 1.7.3 2.6.3 5 0 9-4 9-9s-4-9-9-9z"/></svg>