<svg xmlns="http://www.w3.org/2000/svg" viewBox="0 0 18 18"><path d="M13.6 10.8c-.1-.1-.2-.1-.4-.2s-1.3-.6-1.5-.7c-.2-.1-.3-.1-.5.1-.1.2-.6.7-.7.8-.1.1-.3.2-.5.1s-.9-.3-1.7-1.1c-.6-.6-1-1.3-1.2-1.5-.1-.2 0-.3.1-.4.1-.1.2-.3.3-.4.1-.1.1-.2.2-.4.1-.1 0-.3 0-.4 0-.1-.4-1.1-.6-1.6-.2-.4-.4-.3-.5-.3h-.4c-.2 0-.4 0-.6.2-.2.3-.7.8-.7 1.8 0 1.1.8 2.1.9 2.2.1.1 1.5 2.4 3.7 3.2 2.2.9 2.2.6 2.6.5.4 0 1.3-.5 1.5-1 .1-.4.1-.8 0-.9M9.2 1.4c-4.1 0-7.4 3.3-7.4 7.4 0 1.6.5 3.1 1.4 4.3l-.9 2.7 2.9-.9c1.2.8 2.6 1.2 4.1 1.2 4.1 0 7.4-3.3 7.4-7.4-.1-4-3.4-7.3-7.5-7.3M18 8.8c0 4.8-4 8.8-8.8 8.8-1.6 0-3-.4-4.3-1.1L0 18l1.6-4.7C.8 12 .3 10.4.3 8.8.3 4 4.3 0 9.1 0 14 0 18 3.9 18 8.8"/></svg>