<svg xmlns="http://www.w3.org/2000/svg" viewBox="0 0 20 20"><path d="M14.7 11.7c-.3-.1-1.4-.7-1.7-.7s-.4-.1-.5.1-.6.8-.8.9-.3.2-.5.1c-.7-.3-1.4-.7-1.9-1.2s-1-1-1.3-1.7c-.2-.2-.1-.3 0-.4l.4-.4c.1-.1.2-.3.2-.4.1-.1.1-.3 0-.4 0-.2-.5-1.4-.7-1.8s-.4-.4-.6-.4h-.4c-.2 0-.5.1-.6.3-.6.5-.9 1.2-.8 2 .1.9.4 1.8 1 2.5 1 1.6 2.4 2.8 4.1 3.6 2.4 1 2.4.6 2.9.6.7-.1 1.2-.6 1.6-1.2.2-.4.2-.8.1-1.1-.1-.2-.3-.2-.5-.4zM10.2 0C4.8 0 .4 4.4.4 9.8c0 1.8.5 3.5 1.4 5L0 20l5.4-1.7c4.8 2.6 10.7.9 13.4-3.9.8-1.4 1.2-3 1.2-4.6C20 4.4 15.6 0 10.2 0zM5.7 16.6l-3.2 1 1-3c-1-1.4-1.6-3.1-1.6-4.8 0-4.5 3.7-8.2 8.2-8.2h.1c4.5 0 8.2 3.6 8.3 8.2 0 4.6-3.8 8.2-8.3 8.2-1.7-.1-3.2-.5-4.5-1.4z"/></svg>