<svg data-name="vogue_small_logo" xmlns="http://www.w3.org/2000/svg" viewBox="0 0 60 60"><title>vogue-small-logo</title><path data-name="v icon" d="M56 .6h-4.3c-.6 0-.9.1-1.1.2-.1.1-.2.4-.3.8-.1.2-6.3 19.7-18.7 58.4l-.2-.4c-3-8.5-7.4-20.6-13.2-36.2-5-13.6-7.7-20.9-8-21.7-.1-.6-.2-.8-.4-.9 0-.2-.2-.2-.5-.2H4.1c-.2 0-.2-.2-.2-.2 0-.1 0-.2.1-.4h21.5c.1.1.1.2.1.3 0 .1-.1.2-.1.4h-4.4c-.9-.1-1.1.1-.9.6.1.1 5.1 13.9 15.3 41.5.1.5.3.8.5.9L49.5 2l.2-.8c0-.4-.1-.6-.5-.6h-4.8c-.1-.4-.1-.6 0-.6H56c.1.4.1.6 0 .6z"/></svg>