<svg height="841.9" viewBox="0 0 595.3 841.9" width="595.3" xmlns="http://www.w3.org/2000/svg"><path d="m555.6 129.3h-42.7c-6 0-8.9 1-10.9 2-1 1-2 4-3 7.9-1 2-62.5 195.5-185.5 579.4l-2-4c-29.8-84.3-73.4-204.4-131-359.2-49.6-134.9-76.4-207.4-79.4-215.3-1-6-2-7.9-4-8.9 0-2-2-2-5-2h-51.4c-2 0-2-2-2-2 0-1 0-2 1-4h213.3c1 1 1 2 1 3s-1 2-1 4h-43.7c-8.9-1-10.9 1-8.9 6 1 1 50.6 137.9 151.8 411.7 1 5 3 7.9 5 8.9 89.3-275.8 133.9-413.7 133.9-413.7l2-7.9c0-4-1-6-5-6h-47.6c-1-4-1-6 0-6h115.1c1 4.1 1 6.1 0 6.1z" fill="#fff"/></svg>