<svg viewBox="0 0 351.55 65.75"><title>Miss Vogue</title><path d="M95 1.82h22.6a.71.71 0 010 .67h-4.66s-1.3-.05-.92.67c.08.15 16 43.58 16 43.58a2.11 2.11 0 00.5.83l14.04-43.65c.14-.43.65-1.4-.22-1.4h-5.11a.85.85 0 010-.67h12.16a.85.85 0 010 .67h-4.52c-1.24 0-1.25.36-1.47 1-.11.32-19.65 61.24-19.65 61.24l-.17-.5c-8.26-23.91-21.08-57.16-22.1-60.71-.3-1.06-.46-1-1.08-1H95a.59.59 0 010-.69m74.39 63.63c-14.41-.05-27-14.67-27-32.62 0-17.36 13.34-32.62 27.24-32.51 13.59.11 27.3 13.59 27.26 32.51 0 18.07-14.3 32.67-27.49 32.62m-15.57-33c0 18.32 1.59 32.44 15.82 32.46 13.25 0 15.79-15 15.79-32.46 0-16.84-2.61-31.67-15.9-31.68-12.36 0-15.71 14.24-15.71 31.68M350.1 1.81h-58.72a.55.55 0 000 .64h6.4a.78.78 0 01.72.39v45.78c0 12.31-9.43 16.32-16.24 16.43-8.73.15-12.74-6.13-12.74-13.21V3.37c0-1 1.51-.92 1.51-.92h4.9a.75.75 0 000-.67h-23a.59.59 0 000 .67h4.89a1.05 1.05 0 011.16.87l.06 42.58c0 18.46 15 19.86 23.29 19.82 7.08-.12 16.92-4.29 16.89-17.1V2.84c0-.38.67-.39.67-.39H310c.16 0 .67 0 .68.42s0 55.18 0 60.47c0 .27-.27.41-.68.41h-4.61a.61.61 0 000 .67h46.14v-24.3a.51.51 0 00-.56 0c0 .11.29 23.58-21.57 23.53h-7.32a.58.58 0 01-.68-.41V32.7c0-.27.28-.41.67-.41h2.27c11.27 0 11.55 12.52 11.55 12.66s.36.11.36 0V19.33c0-.12-.47-.14-.47 0s1 12.29-11.13 12.29h-2.55c-.41 0-.67-.14-.67-.41V2.86c0-.33.26-.4.68-.4h7.63c20.34 0 19.93 21.91 19.93 22.05s.45.11.45 0V1.81m-116 36.75h5.16s1-.1.95.36v14.77c0 11.35-11.31 11.48-14.51 11.12-11.81-1.34-12.06-25.81-12.11-32.18C213.45 15.2 216.18 0 228.08.62c14.13.72 17.83 21 18.06 21.88.47.17.47-.22.47-.22V.18s-.1-.19-.38.07l-.35.35c-6.21 6.4-9.34-.3-18.43-.6-11.19-.36-25.11 15.16-25.28 33.07s11.64 31.93 24.58 32.4c7 .27 6.86-1.68 15.52-4.37 5.29-1.64 7.78 1.93 8 3.4a.21.21 0 00.36-.17V39c0-.5.7-.42.7-.42h4.77a.73.73 0 000-.7h-22c-.16 0-.16.67 0 .67" fill="#f57d20"/><path d="M29 42.11v-21.4a24.75 24.75 0 01.15-2.59 10.4 10.4 0 01-.66 1.47l-8.29 15.2h-3.1l-8.46-15.2A10.36 10.36 0 018 18.11a24.81 24.81 0 01.15 2.59v21.4H0V5h8l10 18.1a10.22 10.22 0 01.71 1.68 13.75 13.75 0 01.66-1.68L28.82 5h8.29v37.11zm11.24 0V5h8.13v37.11h-8.16zm22.76.61c-5.13 0-8.9-1.88-12.45-4.63l4.25-5.69a14.33 14.33 0 008.39 3.2c3.71 0 4.73-1.27 4.73-3.51 0-3.71-6.76-5-9.86-6.71-3.71-2-6.66-4.37-6.66-10.27 0-7.63 6.66-10.73 13.22-10.73a18.68 18.68 0 0110.73 3.2l-3.66 6a12.52 12.52 0 00-7.07-2.14c-3.76 0-5.08 2.14-5.08 3.61 0 3.36 4.73 4.37 9 6.25 3.61 1.58 7.47 4.12 7.47 10.22.04 7.08-4.94 11.2-13.01 11.2zm26.38 0c-5.13 0-8.9-1.88-12.45-4.63l4.22-5.69a14.33 14.33 0 008.39 3.2c3.71 0 4.73-1.27 4.73-3.51 0-3.71-6.76-5-9.86-6.71-3.71-2-6.66-4.37-6.66-10.27C77.78 7.49 84.44 4.39 91 4.39a18.68 18.68 0 0110.73 3.2l-3.66 6A12.52 12.52 0 0091 11.51c-3.76 0-5.08 2.14-5.08 3.61 0 3.36 4.73 4.37 9 6.25 3.61 1.58 7.47 4.12 7.47 10.22.05 7.01-4.93 11.13-12.97 11.13z" fill="#210000"/></svg>