<svg id="miss-vogue-logo" xmlns="http://www.w3.org/2000/svg" viewBox="0 0 351.55 65.75"><title>miss-vogue-logo</title><path d="M95,1.82h22.6a0.71,0.71,0,0,1,0,.67h-4.66s-1.3-.05-0.92.67c0.08,0.15,16,43.58,16,43.58a2.11,2.11,0,0,0,.5.83L142.56,3.92c0.14-.43.65-1.4-0.22-1.4h-5.11a0.85,0.85,0,0,1,0-.67h12.16a0.85,0.85,0,0,1,0,.67h-4.52c-1.24,0-1.25.36-1.47,1-0.11.32-19.65,61.24-19.65,61.24l-0.17-.5c-8.26-23.91-21.08-57.16-22.1-60.71-0.3-1.06-.46-1-1.08-1H95a0.59,0.59,0,0,1,0-.69m74.39,63.63c-14.41-.05-27-14.67-27-32.62,0-17.36,13.34-32.62,27.24-32.51,13.59,0.11,27.3,13.59,27.26,32.51,0,18.07-14.3,32.67-27.49,32.62m-15.57-33c0,18.32,1.59,32.44,15.82,32.46,13.25,0,15.79-15,15.79-32.46,0-16.84-2.61-31.67-15.9-31.68-12.36,0-15.71,14.24-15.71,31.68M350.1,1.81l-58.72,0a0.55,0.55,0,0,0,0,.64h6.4a0.78,0.78,0,0,1,.72.39c0,4.57,0,45.17,0,45.78,0,12.31-9.43,16.32-16.24,16.43-8.73.15-12.74-6.13-12.74-13.21,0-1.61,0-47.05,0-48.47,0-1,1.51-.92,1.51-0.92h4.9a0.75,0.75,0,0,0,0-.67h-23a0.59,0.59,0,0,0,0,.67h4.89a1.05,1.05,0,0,1,1.16.87c0,0.58.06,42.58,0.06,42.58,0,18.46,15,19.86,23.29,19.82v0c7.08-.12,16.92-4.29,16.89-17.1v0c0-5.17,0-41.47,0-45.78,0-.38.67-0.39,0.67-0.39H310c0.16,0,.67,0,0.68.42s0,55.18,0,60.47c0,0.27-.27.41-0.68,0.41h-4.61a0.61,0.61,0,0,0,0,.67h46.14V40.12a0.51,0.51,0,0,0-.56,0c0,0.11.29,23.58-21.57,23.53l-7.32,0a0.58,0.58,0,0,1-.68-0.41V32.7c0-.27.28-0.41,0.67-0.41h2.27c11.27,0,11.55,12.52,11.55,12.66s0.36,0.11.36,0,0-25.5,0-25.62-0.47-.14-0.47,0,1,12.29-11.13,12.29h-2.55c-0.41,0-.67-0.14-0.67-0.41V2.86c0-.33.26-0.4,0.68-0.4h7.63c20.34,0,19.93,21.91,19.93,22.05s0.45,0.11.45,0V1.81m-116,36.75h5.16s1-.1.95,0.36V53.69c0,11.35-11.31,11.48-14.51,11.12C213.91,63.47,213.66,39,213.61,32.63,213.45,15.2,216.18,0,228.08.62c14.13,0.72,17.83,21,18.06,21.88,0.47,0.17.47-.22,0.47-0.22l0-22.1s-0.1-.19-0.38.07l-0.35.35C239.67,7,236.54.3,227.45,0c-11.19-.36-25.11,15.16-25.28,33.07S213.81,65,226.75,65.47c7,0.27,6.86-1.68,15.52-4.37,5.29-1.64,7.78,1.93,8,3.4a0.21,0.21,0,0,0,.36-0.17V39c0-.5.7-0.42,0.7-0.42h4.77a0.73,0.73,0,0,0,0-.7h-22c-0.16,0-.16.67,0,0.67" style="fill:#f57d20"/><path d="M29,42.11V20.71a24.75,24.75,0,0,1,.15-2.59,10.4,10.4,0,0,1-.66,1.47l-8.29,15.2h-3.1L8.64,19.59A10.36,10.36,0,0,1,8,18.11a24.81,24.81,0,0,1,.15,2.59v21.4H0V5H8L18,23.1a10.22,10.22,0,0,1,.71,1.68,13.75,13.75,0,0,1,.66-1.68L28.82,5h8.29V42.11H29Zm11.24,0V5h8.13V42.11H40.21ZM63,42.72c-5.13,0-8.9-1.88-12.45-4.63L54.8,32.4a14.33,14.33,0,0,0,8.39,3.2c3.71,0,4.73-1.27,4.73-3.51,0-3.71-6.76-5-9.86-6.71-3.71-2-6.66-4.37-6.66-10.27,0-7.63,6.66-10.73,13.22-10.73a18.68,18.68,0,0,1,10.73,3.2l-3.66,6a12.52,12.52,0,0,0-7.07-2.14c-3.76,0-5.08,2.14-5.08,3.61,0,3.36,4.73,4.37,9,6.25,3.61,1.58,7.47,4.12,7.47,10.22C76.05,38.6,71.07,42.72,63,42.72Zm26.38,0c-5.13,0-8.9-1.88-12.45-4.63l4.22-5.69a14.33,14.33,0,0,0,8.39,3.2c3.71,0,4.73-1.27,4.73-3.51,0-3.71-6.76-5-9.86-6.71-3.71-2-6.66-4.37-6.66-10.27C77.78,7.49,84.44,4.39,91,4.39a18.68,18.68,0,0,1,10.73,3.2l-3.66,6A12.52,12.52,0,0,0,91,11.51c-3.76,0-5.08,2.14-5.08,3.61,0,3.36,4.73,4.37,9,6.25,3.61,1.58,7.47,4.12,7.47,10.22C102.44,38.6,97.46,42.72,89.42,42.72Z" style="fill:#210000"/></svg>