<svg viewBox="0 0 351.58 90.02"><title>Menu</title><path d="M288.28 88.19a2.27 2.27 0 01-.1-.41c0-.2.1-.3.1-.51h6.32c.71 0 1-.2 1-.51V3.91a.75.75 0 00-.91-.54H280.6c-.61-.1-.92.1-.92.51v62.7c.1 7.95-2.65 14.06-7.85 18.24a24.64 24.64 0 01-15.14 5.2h-.1c-21.3.1-31.89-9-31.89-27.21V4.52a1.26 1.26 0 00-1.63-1.12h-6.73a.49.49 0 01-.1-.51.62.62 0 01.1-.41h31.59a1.09 1.09 0 010 .92h-6.72c-1.43-.1-2 .31-2 1.22v66.34q0 7.8 4.28 12.84c3.16 3.57 7.54 5.4 13.14 5.3a24.05 24.05 0 0014.67-5c5.09-4.08 7.64-10 7.54-17.53V3.91c0-.41-.31-.51-.92-.51h-8.76a.56.56 0 01-.2-.51 1.41 1.41 0 01.2-.41h80.4v31.09a.51.51 0 01-.61 0 35 35 0 00-3.16-15.18q-6.72-15-24.15-15h-10.43c-.71-.1-1 .1-1 .51v38.84c0 .41.3.61 1 .61h3.46c6.83-.1 11.51-2.85 13.76-8.46a17.46 17.46 0 001.43-8.46.49.49 0 01.41-.1c.1 0 .2.1.31.1v35.06a.2.2 0 01-.4 0 23.06 23.06 0 00-2.17-8.77c-2.75-5.71-7.34-8.56-13.76-8.46h-3c-.71-.1-1 .1-1 .51v41.78c0 .31.3.51 1 .61h10c12.53 0 21.2-5.3 26.09-16a38.81 38.81 0 003.46-16.3.86.86 0 01.82 0v33.33h-63.3zM74.7 3.41h-6.11a3 3 0 00-1.58.31 1.68 1.68 0 00-.41 1.12c-.15.18-9.12 28.18-26.95 83.75l-.31-.57q-6.26-18.38-18.85-52c-7.23-19.57-11-30-11.41-31.19a2.14 2.14 0 00-.61-1.22.88.88 0 00-.81-.2H.21a.41.41 0 01-.2-.39.56.56 0 01.2-.53h30.88a1.4 1.4 0 01.2.41 1.08 1.08 0 01-.2.51h-6.32c-1.22-.1-1.63.2-1.32.92.1.1 7.34 20 21.91 59.61a1.66 1.66 0 00.71 1.22Q65.33 5.39 65.43 5.34l.31-1.12a.68.68 0 00-.53-.8h-7.12a1.09 1.09 0 010-.92H74.7a1.09 1.09 0 010 .92zm61.55 58.9a48.64 48.64 0 01-8.66 14.27 42.62 42.62 0 01-12 9.58 29.42 29.42 0 01-13.58 3.45 30.34 30.34 0 01-14.06-3.59 37.74 37.74 0 01-11.82-9.58 46.42 46.42 0 01-8-14.16 50.16 50.16 0 01-3.12-17.4A49.11 49.11 0 0176.54 13.7a38.48 38.48 0 0112.02-9.68A27.46 27.46 0 01102.32.45a30 30 0 0113.69 3.36 37.41 37.41 0 0112 9.27c7.85 8.66 11.72 19.36 11.62 31.79a46.12 46.12 0 01-3.36 17.42zm-16.3-48.1q-5.2-13.19-17.74-13.19c-14.36 0-20.57 14.61-20.57 43.45 0 14.78.19 25.27 2.64 31.59 3.16 8.56 9.17 12.84 18.14 12.84 8.25 0 14.16-4.38 17.53-13.25q4-10.4 4.08-31.18c-.1-13.35-1.43-23.54-4.08-30.26zm77.85 38.51h-7a.53.53 0 01-.2-.41.77.77 0 01.2-.41h30.06c0 .1.1.31.1.41a4.51 4.51 0 01-.1.51h-6.62c-.61-.1-.92.1-.92.51v34.75c0 .31-.2.41-.41.2-.2-1.43-1.22-2.75-3-4-2.14-1.43-4.89-1.63-8-.61a46.54 46.54 0 00-6.9 2.55l-4.48 1.94a22.55 22.55 0 01-9.78 1.43 27.43 27.43 0 01-12.84-3.77 36 36 0 01-10.9-9.35q-10.21-13.15-10.06-31.18a50.42 50.42 0 013.36-17.53 52.58 52.58 0 018.36-14.47 38.68 38.68 0 0111.11-9.88c4.07-2.39 8-3.57 11.81-3.39a23.4 23.4 0 018.05 1.53l6.11 2.24a10.43 10.43 0 005.4.61 12.28 12.28 0 005.72-3.54 1.22 1.22 0 01.51-.51c.2-.31.41-.31.51-.1l-.1 30.26c0 .31-.2.41-.61.2l-1.32-5a52.23 52.23 0 00-3.87-10C197.01 6.16 190.56 1.16 182.41.86c-7.44-.41-12.84 3.77-16 12.63-2.65 7.24-3.87 17.53-3.77 31.18q.3 42.19 16.61 44a24.45 24.45 0 0011.62-1.53q8.25-3.67 8.25-13.66V53.23c0-.41-.41-.51-1.33-.51z"/></svg>