<svg viewBox="0 0 351.55 90"><title>Vogue UK</title><path d="M288.27 88.17a2.27 2.27 0 01-.1-.41c0-.2.1-.3.1-.51h6.32c.71 0 1-.2 1-.51V3.89a.75.75 0 00-1-.51h-14c-.61-.1-.92.1-.92.51v62.67c.1 7.95-2.65 14.06-7.85 18.24a24.64 24.64 0 01-15.14 5.2h-.1c-21.3.1-31.89-9-31.89-27.21V4.5a1.26 1.26 0 00-1.63-1.12h-6.73a.49.49 0 01-.1-.51.62.62 0 01.1-.41h31.59a1.09 1.09 0 010 .92h-6.72c-1.43-.1-2 .31-2 1.22v66.34q0 7.8 4.28 12.84c3.16 3.57 7.54 5.4 13.14 5.3a24.05 24.05 0 0014.67-5c5.09-4.08 7.64-10 7.54-17.53V3.89c0-.41-.31-.51-.92-.51h-8.76a.56.56 0 01-.2-.51 1.41 1.41 0 01.2-.41h80.4v31.09a.51.51 0 01-.61 0 35 35 0 00-3.16-15.18q-6.72-15-24.15-15H311.2c-.71-.1-1 .1-1 .51v38.84c0 .41.3.61 1 .61h3.46c6.83-.1 11.51-2.85 13.76-8.46a17.46 17.46 0 001.43-8.46.49.49 0 01.41-.1c.1 0 .2.1.31.1v35.06a.22.22 0 01-.2.2.22.22 0 01-.2-.2A23.06 23.06 0 00328 52.7c-2.75-5.71-7.34-8.56-13.76-8.46h-3.04c-.71-.1-1 .1-1 .51v41.78c0 .31.3.51 1 .61h10c12.53 0 21.2-5.3 26.09-16a38.81 38.81 0 003.46-16.3.86.86 0 01.82 0v33.33zM74.69 3.39h-6.11a3 3 0 00-1.63.31 1.68 1.68 0 00-.41 1.12c-.1.18-9.07 28.18-26.9 83.75l-.31-.57q-6.26-18.38-18.85-52C13.25 16.43 9.48 6 9.07 4.81a2.14 2.14 0 00-.61-1.22.88.88 0 00-.81-.2H.2A.41.41 0 010 3a.56.56 0 01.2-.53h30.88a1.4 1.4 0 01.2.41 1.08 1.08 0 01-.2.51h-6.32c-1.22-.1-1.63.2-1.32.92.1.1 7.34 20 21.91 59.61a1.66 1.66 0 00.71 1.22Q65.32 5.37 65.42 5.32l.31-1.12a.68.68 0 00-.73-.81h-6.92a1.09 1.09 0 010-.92h16.61a1.09 1.09 0 010 .92zm61.55 58.9a48.64 48.64 0 01-8.66 14.27 42.62 42.62 0 01-12 9.58A29.42 29.42 0 01102 89.59 30.34 30.34 0 0187.94 86a37.74 37.74 0 01-11.82-9.58 46.42 46.42 0 01-8-14.16A50.16 50.16 0 0165 44.86a49.11 49.11 0 0111.53-31.18A38.48 38.48 0 0188.55 4 27.46 27.46 0 01102.31.43 30 30 0 01116 3.79a37.41 37.41 0 0112 9.27c7.85 8.66 11.72 19.36 11.62 31.79a46.12 46.12 0 01-3.36 17.42zm-16.3-48.1Q114.74 1 102.2 1C87.84 1 81.63 15.61 81.63 44.45c0 14.78.19 25.27 2.64 31.59 3.16 8.56 9.17 12.84 18.14 12.84 8.25 0 14.16-4.38 17.53-13.25 2.65-6.93 4-17.32 4.08-31.18-.1-13.35-1.43-23.54-4.08-30.26zm77.85 38.51h-7a.53.53 0 01-.2-.41.77.77 0 01.2-.41h30.06c0 .1.1.31.1.41a4.51 4.51 0 01-.1.51h-6.62c-.61-.1-.92.1-.92.51v34.75c0 .31-.2.41-.41.2-.2-1.43-1.22-2.75-3-4-2.14-1.43-4.89-1.63-8-.61a46.54 46.54 0 00-6.93 2.55l-4.48 1.94a22.55 22.55 0 01-9.78 1.43 27.43 27.43 0 01-12.84-3.77A36.05 36.05 0 01157 76.45q-10.21-13.15-10.06-31.18a50.42 50.42 0 013.36-17.53 52.58 52.58 0 018.36-14.47 38.68 38.68 0 0111.11-9.88C173.84 1 177.81-.18 181.58 0a23.4 23.4 0 018.05 1.53l6.11 2.24a10.43 10.43 0 005.4.61 12.28 12.28 0 005.72-3.54 1.22 1.22 0 01.51-.51c.2-.31.41-.31.51-.1l-.1 30.26c0 .31-.2.41-.61.2l-1.32-5a52.23 52.23 0 00-3.87-10C197 6.14 190.55 1.14 182.4.84c-7.44-.41-12.84 3.77-16 12.63-2.65 7.24-3.87 17.53-3.77 31.18q.3 42.19 16.61 44a24.45 24.45 0 0011.62-1.53c5.5-2.45 8.25-7 8.25-13.66V53.21c0-.41-.41-.51-1.33-.51zM88.41 45.87a1.42 1.42 0 00.85-1.33 1.34 1.34 0 00-.4-1A2.16 2.16 0 0087.3 43h-2.68v6h2.76c1.33 0 2.21-.57 2.21-1.64a1.46 1.46 0 00-1.18-1.49zm-2.76-1.94h1.51a.85.85 0 011 .76.92.92 0 01-1.13.81h-1.38zm2.89 3.29a.93.93 0 01-1.15.82h-1.74v-1.63h1.66c.83 0 1.23.3 1.23.8zM121.36 43v6h-1v-2.54h-2.85V49h-1v-6h1v2.48h2.85V43zM98 43h1v6h-1zm9.25 0h1v6h-1zm-11.11 1.9a1.8 1.8 0 00-.49-1.29A2.4 2.4 0 0094 43h-2.71v6h1v-2.11h1.31L95.12 49h1.25l-1.61-2.26a1.79 1.79 0 001.41-1.83zm-3.8 1.1v-2h1.53a1 1 0 011.24 1 1.06 1.06 0 01-1.23 1zm8.42-3h4.85v1h-1.89v5h-1.06v-5h-1.89v-1zm13.9 4.26a1.86 1.86 0 01-2.13 1.78 3.68 3.68 0 01-2.49-1l.63-.75a2.76 2.76 0 001.89.78.89.89 0 001.06-.75c0-.43-.24-.66-1.35-.91-1.27-.31-2-.68-2-1.78a1.83 1.83 0 012-1.73 3.31 3.31 0 012.17.75l-.56.79a2.71 2.71 0 00-1.62-.61.82.82 0 00-1 .71c0 .46.27.67 1.42.94s1.98.79 1.98 1.78z"/></svg>