<svg viewBox="0 0 351.55 90" xmlns="http://www.w3.org/2000/svg"><path d="m288.27 88.17a2.27 2.27 0 0 1 -.1-.41c0-.2.1-.3.1-.51h6.32c.71 0 1-.2 1-.51v-82.85a.75.75 0 0 0 -1-.51h-14c-.61-.1-.92.1-.92.51v62.67c.1 7.95-2.65 14.06-7.85 18.24a24.64 24.64 0 0 1 -15.14 5.2h-.1c-21.3.1-31.89-9-31.89-27.21v-58.29a1.26 1.26 0 0 0 -1.63-1.12h-6.73a.49.49 0 0 1 -.1-.51.62.62 0 0 1 .1-.41h31.59a1.09 1.09 0 0 1 0 .92h-6.72c-1.43-.1-2 .31-2 1.22v66.34q0 7.8 4.28 12.84c3.16 3.57 7.54 5.4 13.14 5.3a24.05 24.05 0 0 0 14.67-5c5.09-4.08 7.64-10 7.54-17.53v-62.66c0-.41-.31-.51-.92-.51h-8.76a.56.56 0 0 1 -.2-.51 1.41 1.41 0 0 1 .2-.41h80.4v31.09a.51.51 0 0 1 -.61 0 35 35 0 0 0 -3.16-15.18q-6.72-15-24.15-15h-10.43c-.71-.1-1 .1-1 .51v38.84c0 .41.3.61 1 .61h3.46c6.83-.1 11.51-2.85 13.76-8.46a17.46 17.46 0 0 0 1.43-8.46.49.49 0 0 1 .41-.1c.1 0 .2.1.31.1v35.06a.22.22 0 0 1 -.2.2.22.22 0 0 1 -.2-.2 23.06 23.06 0 0 0 -2.17-8.77c-2.75-5.71-7.34-8.56-13.76-8.46h-3.04c-.71-.1-1 .1-1 .51v41.78c0 .31.3.51 1 .61h10c12.53 0 21.2-5.3 26.09-16a38.81 38.81 0 0 0 3.46-16.3.86.86 0 0 1 .82 0v33.33zm-213.58-84.78h-6.11a3 3 0 0 0 -1.63.31 1.68 1.68 0 0 0 -.41 1.12c-.1.18-9.07 28.18-26.9 83.75l-.31-.57q-6.26-18.38-18.85-52c-7.23-19.57-11-30-11.41-31.19a2.14 2.14 0 0 0 -.61-1.22.88.88 0 0 0 -.81-.2h-7.45a.41.41 0 0 1 -.2-.39.56.56 0 0 1 .2-.53h30.88a1.4 1.4 0 0 1 .2.41 1.08 1.08 0 0 1 -.2.51h-6.32c-1.22-.1-1.63.2-1.32.92.1.1 7.34 20 21.91 59.61a1.66 1.66 0 0 0 .71 1.22q19.26-59.77 19.36-59.82l.31-1.12a.68.68 0 0 0 -.73-.81h-6.92a1.09 1.09 0 0 1 0-.92h16.61a1.09 1.09 0 0 1 0 .92zm61.55 58.9a48.64 48.64 0 0 1 -8.66 14.27 42.62 42.62 0 0 1 -12 9.58 29.42 29.42 0 0 1 -13.58 3.45 30.34 30.34 0 0 1 -14.06-3.59 37.74 37.74 0 0 1 -11.82-9.58 46.42 46.42 0 0 1 -8-14.16 50.16 50.16 0 0 1 -3.12-17.4 49.11 49.11 0 0 1 11.53-31.18 38.48 38.48 0 0 1 12.02-9.68 27.46 27.46 0 0 1 13.76-3.57 30 30 0 0 1 13.69 3.36 37.41 37.41 0 0 1 12 9.27c7.85 8.66 11.72 19.36 11.62 31.79a46.12 46.12 0 0 1 -3.36 17.42zm-16.3-48.1q-5.2-13.19-17.74-13.19c-14.36 0-20.57 14.61-20.57 43.45 0 14.78.19 25.27 2.64 31.59 3.16 8.56 9.17 12.84 18.14 12.84 8.25 0 14.16-4.38 17.53-13.25 2.65-6.93 4-17.32 4.08-31.18-.1-13.35-1.43-23.54-4.08-30.26zm77.85 38.51h-7a.53.53 0 0 1 -.2-.41.77.77 0 0 1 .2-.41h30.06c0 .1.1.31.1.41a4.51 4.51 0 0 1 -.1.51h-6.62c-.61-.1-.92.1-.92.51v34.75c0 .31-.2.41-.41.2-.2-1.43-1.22-2.75-3-4-2.14-1.43-4.89-1.63-8-.61a46.54 46.54 0 0 0 -6.93 2.55l-4.48 1.94a22.55 22.55 0 0 1 -9.78 1.43 27.43 27.43 0 0 1 -12.84-3.77 36.05 36.05 0 0 1 -10.87-9.35q-10.21-13.15-10.06-31.18a50.42 50.42 0 0 1 3.36-17.53 52.58 52.58 0 0 1 8.36-14.47 38.68 38.68 0 0 1 11.11-9.88c4.07-2.39 8.04-3.57 11.81-3.39a23.4 23.4 0 0 1 8.05 1.53l6.11 2.24a10.43 10.43 0 0 0 5.4.61 12.28 12.28 0 0 0 5.72-3.54 1.22 1.22 0 0 1 .51-.51c.2-.31.41-.31.51-.1l-.1 30.26c0 .31-.2.41-.61.2l-1.32-5a52.23 52.23 0 0 0 -3.87-10c-4.98-9.55-11.43-14.55-19.58-14.85-7.44-.41-12.84 3.77-16 12.63-2.65 7.24-3.87 17.53-3.77 31.18q.3 42.19 16.61 44a24.45 24.45 0 0 0 11.62-1.53c5.5-2.45 8.25-7 8.25-13.66v-20.25c0-.41-.41-.51-1.33-.51zm-109.38-6.83a1.42 1.42 0 0 0 .85-1.33 1.34 1.34 0 0 0 -.4-1 2.16 2.16 0 0 0 -1.56-.54h-2.68v6h2.76c1.33 0 2.21-.57 2.21-1.64a1.46 1.46 0 0 0 -1.18-1.49zm-2.76-1.94h1.51a.85.85 0 0 1 1 .76.92.92 0 0 1 -1.13.81h-1.38zm2.89 3.29a.93.93 0 0 1 -1.15.82h-1.74v-1.63h1.66c.83 0 1.23.3 1.23.8zm32.82-4.22v6h-1v-2.54h-2.85v2.54h-1v-6h1v2.48h2.85v-2.48zm-23.36 0h1v6h-1zm9.25 0h1v6h-1zm-11.11 1.9a1.8 1.8 0 0 0 -.49-1.29 2.4 2.4 0 0 0 -1.65-.61h-2.71v6h1v-2.11h1.31l1.52 2.11h1.25l-1.61-2.26a1.79 1.79 0 0 0 1.41-1.83zm-3.8 1.1v-2h1.53a1 1 0 0 1 1.24 1 1.06 1.06 0 0 1 -1.23 1zm8.42-3h4.85v1h-1.89v5h-1.06v-5h-1.89v-1zm13.9 4.26a1.86 1.86 0 0 1 -2.13 1.78 3.68 3.68 0 0 1 -2.49-1l.63-.75a2.76 2.76 0 0 0 1.89.78.89.89 0 0 0 1.06-.75c0-.43-.24-.66-1.35-.91-1.27-.31-2-.68-2-1.78a1.83 1.83 0 0 1 2-1.73 3.31 3.31 0 0 1 2.17.75l-.56.79a2.71 2.71 0 0 0 -1.62-.61.82.82 0 0 0 -1 .71c0 .46.27.67 1.42.94s1.98.79 1.98 1.78z"/></svg>