<svg viewBox="0 0 425.2 66.88" xmlns="http://www.w3.org/2000/svg"><path d="m406.63 32c-8.5 0-14.8 6.39-14.8 15.24s6.3 15.33 14.8 15.33 14.8-6.48 14.8-15.33-6.3-15.24-14.8-15.24m0 33.89a18.22 18.22 0 0 1 -18.57-18.65 18.57 18.57 0 0 1 37.13 0 18.22 18.22 0 0 1 -18.57 18.65m-26.04-22.22h-25.22c1-6.31 4.9-11.65 13.14-11.65 7.79 0 11.65 6.22 12.08 11.65m4.42 3.16c-.44-9-5.08-18.13-16.29-18.13-11.65 0-17.25 8.93-17.25 18 0 10.07 5.78 19.18 17.78 19.18 7.44 0 12.52-3.33 15-6.39l-2.54-2.19a16.24 16.24 0 0 1 -12.26 5.25c-9 0-14.1-6.83-14.19-15.76h29.75zm-55.94-14.83c-7.88 0-13.14 5.87-13.14 15.24 0 8.14 4.38 15.33 13 15.33 7.88 0 13.66-6.74 13.66-15.41 0-7.71-5.43-15.15-13.49-15.15m13.49 32.84v-7.25c-1.93 4.29-7.62 8.32-13.92 8.32-10.25 0-16.46-8.67-16.46-18.39 0-11.82 7.88-18.83 17.25-18.83a14.78 14.78 0 0 1 13.1 8.3v-36.06h3.59v63.93h-3.59zm-36.38-35.1h-3.59v35.12h3.59zm-3.59-16.81h3.59v7h-3.59zm-6.12 16.81h-3.59l-12.52 28.81-12.38-28.81h-3.85l16.2 37.13zm-98.57-27.91a.55.55 0 0 0 0 .64h6.44a.79.79 0 0 1 .73.39v46.1c0 12.39-9.5 16.43-16.35 16.55-8.79.15-12.83-6.17-12.83-13.31 0-1.62 0-47.38 0-48.81 0-1 1.52-.92 1.52-.92h4.93a.75.75 0 0 0 0-.67h-23.2a.59.59 0 0 0 0 .67h4.84a1.06 1.06 0 0 1 1.17.88c0 .59.06 42.88.06 42.88 0 18.59 15.07 20 23.45 20 7.13-.12 17-4.32 17-17.22 0-5.2 0-41.76 0-46.1 0-.39.67-.39.67-.39h10.28c.16 0 .68 0 .68.42s0 55.56 0 60.89c0 .27-.27.41-.68.41h-4.63a.62.62 0 0 0 0 .67h46.46v-24.52a.5.5 0 0 0 -.56 0c0 .11.3 23.74-21.72 23.69h-7.37a.59.59 0 0 1 -.69-.42v-30.74c0-.27.28-.42.68-.42h2.29c11.35 0 11.63 12.61 11.63 12.75s.36.11.36 0 0-25.68 0-25.8-.48-.14-.48 0 1 12.37-11.21 12.37h-2.57c-.41 0-.68-.14-.68-.41v-28.54c0-.33.26-.41.69-.41h7.68c20.49 0 20.06 22.07 20.06 22.21s.45.11.45 0v-22.86h-59.13m-57.64 37h5.2s1-.1 1 .37v14.86c0 11.43-11.39 11.56-14.62 11.2-11.91-1.35-12.16-25.94-12.22-32.4-.17-17.55 2.59-32.85 14.57-32.23 14.23.72 18 21.12 18.18 22 .47.17.48-.23.48-.23v-22.25s-.1-.19-.38.07l-.35.35c-6.27 6.44-9.42-.26-18.57-.56-11.27-.36-25.28 15.27-25.46 33.3s11.73 32.13 24.76 32.63c7.06.27 6.91-1.7 15.62-4.4 5.33-1.65 7.84 1.94 8 3.43a.21.21 0 0 0 .37-.17v-25.51c0-.51.7-.42.7-.42h4.8a.73.73 0 0 0 0-.7h-22.07c-.16 0-.16.67 0 .67m-92.44-5.77c0-17.48 13.43-32.85 27.42-32.74 13.68.12 27.5 13.68 27.46 32.74-.03 18.2-14.4 32.94-27.7 32.85-14.51-.05-27.2-14.77-27.2-32.85m27.47 32.35c13.35 0 15.9-15.13 15.9-32.68 0-17-2.63-31.89-16-31.9-12.45 0-15.82 14.34-15.82 31.9 0 18.45 1.6 32.67 15.93 32.68m-75.17-63.58h22.76a.71.71 0 0 1 0 .67h-4.7s-1.31-.06-.92.67c.08.15 16.07 43.89 16.07 43.89a2.13 2.13 0 0 0 .5.84l14.23-44c.15-.44.65-1.41-.22-1.41h-5.14a.86.86 0 0 1 0-.67h12.24a.86.86 0 0 1 0 .67h-4.55c-1.25 0-1.26.36-1.48 1-.12.37-19.8 61.72-19.8 61.72l-.17-.5c-8.31-24.08-21.23-57.57-22.25-61.14-.3-1.07-.46-1-1.09-1h-5.48a.6.6 0 0 1 0-.7" fill="#fff"/></svg>