<svg id="Layer_1" data-name="Layer 1" xmlns="http://www.w3.org/2000/svg" viewBox="0 0 20 18.18"><defs><style>.cls-1{fill:#231f20;fill-rule:evenodd}</style></defs><title>card-image-video</title><path class="cls-1" d="M13.94 17.52c0 .37-.42.68-.93.68H.93c-.51 0-.93-.3-.93-.68V8.73c0-.37.42-.68.93-.68H13c.51 0 .93.3.93.68zM5.81 4.49a2.36 2.36 0 0 1-2.33 2.39 2.36 2.36 0 0 1-2.32-2.39A2.36 2.36 0 0 1 3.48 2.1a2.36 2.36 0 0 1 2.33 2.39m6.97-.6a2.9 2.9 0 1 1-5.78 0 2.9 2.9 0 1 1 5.81 0M20 18.49s-.08.6-.62.6-4-3.34-4-3.78v-4.37c0-.44 3.41-3.78 4-3.78a.59.59 0 0 1 .62.6z" transform="translate(0 -.91)"/></svg>