<svg id="Layer_1" data-name="Layer 1" xmlns="http://www.w3.org/2000/svg" viewBox="0 0 20 17.11"><defs><style>.cls-1{fill:#131313}.cls-2{fill:#231f20}</style></defs><title>card-image-podcast</title><path class="cls-1" d="M0 2.48v12.16l9.91-6.08L0 2.48z"/><path class="cls-2" d="M11.95 15.54A1 1 0 0 1 11.1 14a7.7 7.7 0 0 0 0-8 1 1 0 1 1 1.69-1 9.69 9.69 0 0 1 0 10.13 1 1 0 0 1-.84.41zm4.92 3.02A1 1 0 0 1 16 17a13.48 13.48 0 0 0 0-14 1 1 0 1 1 1.69-1 15.46 15.46 0 0 1 0 16.16 1 1 0 0 1-.82.4z" transform="translate(0 -1.44)"/></svg>