<svg id="Layer_1" data-name="Layer 1" xmlns="http://www.w3.org/2000/svg" viewBox="0 0 20 20"><defs><style>.cls-1{fill:#231f20;fill-rule:evenodd;}</style></defs><title>whatsapp-20x20</title><path class="cls-1" d="M15.14 12c-.06-.1-.22-.16-.46-.28S13.26 11 13 10.93s-.38-.12-.54.12-.62.77-.76.94-.28.18-.52.06a6.62 6.62 0 0 1-1.94-1.18 7.16 7.16 0 0 1-1.31-1.66c-.14-.24 0-.37.1-.48s.24-.28.36-.42a1.62 1.62 0 0 0 .24-.4.44.44 0 0 0 0-.42c-.06-.12-.54-1.3-.74-1.77s-.4-.4-.54-.4h-.46a.87.87 0 0 0-.64.3 2.65 2.65 0 0 0-.84 2 4.62 4.62 0 0 0 1 2.47 9.86 9.86 0 0 0 4.11 3.6c2.45 1 2.45.64 2.89.6A2.43 2.43 0 0 0 15 13.13a2 2 0 0 0 .14-1.13m-5-10.43a8.23 8.23 0 0 0-8.21 8.18 8.09 8.09 0 0 0 1.57 4.8l-1 3 3.17-1a8.26 8.26 0 0 0 12.8-6.83 8.23 8.23 0 0 0-8.25-8.19M20 9.75a9.83 9.83 0 0 1-14.56 8.52L0 20l1.77-5.23a9.67 9.67 0 0 1-1.41-5A9.82 9.82 0 0 1 20 9.75"/></svg>