<svg id="Layer_1" data-name="Layer 1" xmlns="http://www.w3.org/2000/svg" viewBox="0 0 20 19.99"><defs><style>.cls-1{fill:#231f20}</style></defs><title>figure-zoom</title><path class="cls-1" d="M10.87 7.37H8.36V4.86a.5.5 0 0 0-1 0v2.51H4.85a.5.5 0 1 0 0 1h2.51v2.51a.5.5 0 0 0 1 0V8.37h2.51a.5.5 0 0 0 0-1z" transform="translate(0 -.01)"/><path class="cls-1" d="M19.71 18.29L14 12.48a7.79 7.79 0 1 0-1.4 1.43l5.73 5.8a1 1 0 0 0 1.42-1.41zM2 7.78a5.78 5.78 0 1 1 5.78 5.78A5.78 5.78 0 0 1 2 7.78z" transform="translate(0 -.01)"/></svg>