<svg xmlns="http://www.w3.org/2000/svg" viewBox="0 0 16 16"><path d="M8 0C3.6 0 0 3.6 0 8c0 3.3 2 6.1 4.8 7.3 0-.6 0-1.2.1-1.8.2-.6 1-4.4 1-4.4s-.2-.5-.2-1.2c0-1.2.7-2.1 1.5-2.1s1.1.5 1.1 1.2-.5 1.8-.7 2.8c-.2.8.4 1.5 1.3 1.5 1.5 0 2.5-1.9 2.5-4.3 0-1.8-1.2-3.1-3.3-3.1-2.4 0-3.9 1.8-3.9 3.8 0 .7.2 1.2.5 1.6.1.2.2.2.1.4 0 .1-.1.5-.2.6-.1.2-.2.3-.4.2-1.1-.5-1.6-1.7-1.6-3.1 0-2.3 1.9-5 5.7-5 3.1 0 5.1 2.2 5.1 4.6 0 3.1-1.7 5.5-4.3 5.5-.9 0-1.7-.5-2-1 0 0-.5 1.8-.6 2.2-.2.6-.5 1.2-.8 1.7.8.5 1.5.6 2.3.6 4.4 0 8-3.6 8-8s-3.6-8-8-8z"/></svg>