<svg id="Layer_1" data-name="Layer 1" xmlns="http://www.w3.org/2000/svg" viewBox="0 0 20 15"><defs><style>.cls-1{fill:#231f20}</style></defs><title>gallery-list</title><circle class="cls-1" cx="1.17" cy="1.17" r="1.17"/><circle class="cls-1" cx="1.17" cy="13.83" r="1.17"/><circle class="cls-1" cx="1.17" cy="7.5" r="1.17"/><path class="cls-1" d="M19 4.67H5.72a1 1 0 1 1 0-2H19a1 1 0 1 1 0 2zm0 12.67H5.72a1 1 0 0 1 0-2H19a1 1 0 0 1 0 2zM19 11H5.72a1 1 0 1 1 0-2H19a1 1 0 1 1 0 2z" transform="translate(0 -2.5)"/></svg>