<svg viewBox="0 0 16 16" xmlns="http://www.w3.org/2000/svg"><title>WhatsApp</title><path d="m12.1 9.6c0-.1-.2-.1-.4-.2s-1.1-.6-1.3-.6c-.2-.1-.3-.1-.4.1-.1.1-.5.6-.6.7s-.2.1-.4 0-.9-.3-1.6-.9c-.6-.5-1-1.1-1.1-1.3s0-.3.1-.4l.3-.3c.1-.1.1-.2.2-.3s0-.2 0-.3-.4-1-.6-1.4c-.2-.5-.3-.5-.4-.5h-.4c-.1 0-.3 0-.5.2-.2.3-.7.7-.7 1.7 0 .9.7 1.8.8 1.9s1.3 2.1 3.3 2.9 2 .5 2.3.5c.4 0 1.1-.5 1.3-.9.2-.5.2-.8.1-.9m-4-8.4c-3.6 0-6.6 2.9-6.6 6.6 0 1.4.5 2.8 1.3 3.8l-.8 2.5 2.5-.8c1 .7 2.3 1.1 3.6 1.1 3.6 0 6.6-2.9 6.6-6.6 0-3.6-2.9-6.6-6.6-6.6m7.9 6.6c0 4.3-3.5 7.8-7.9 7.8-1.4 0-2.7-.4-3.8-1l-4.3 1.4 1.4-4.2c-.7-1.2-1.1-2.6-1.1-4 0-4.3 3.5-7.8 7.8-7.8 4.4 0 7.9 3.5 7.9 7.8"/></svg>