<svg viewBox="0 0 16 16"><title>Instagram</title><path d="M8 1.44h3.23a4.43 4.43 0 011.49.28 2.48 2.48 0 01.92.6 2.48 2.48 0 01.6.92 4.43 4.43 0 01.28 1.49v6.46a4.43 4.43 0 01-.28 1.49 2.65 2.65 0 01-1.52 1.52 4.43 4.43 0 01-1.49.28H4.77a4.43 4.43 0 01-1.49-.28 2.48 2.48 0 01-.92-.6 2.48 2.48 0 01-.6-.92 4.43 4.43 0 01-.28-1.49V4.73a4.43 4.43 0 01.28-1.49 2.48 2.48 0 01.6-.92 2.48 2.48 0 01.92-.6 4.43 4.43 0 011.49-.28H8M8 0H4.7a5.87 5.87 0 00-1.94.42 3.92 3.92 0 00-1.42.92 3.92 3.92 0 00-.92 1.42A5.87 5.87 0 000 4.7v6.6a5.87 5.87 0 00.37 1.94 3.92 3.92 0 00.92 1.42 3.92 3.92 0 001.42.92A5.87 5.87 0 004.7 16h6.6a5.87 5.87 0 001.94-.37 4.09 4.09 0 002.34-2.34A5.87 5.87 0 0016 11.3V4.7a5.87 5.87 0 00-.37-1.94 3.92 3.92 0 00-.92-1.42 3.92 3.92 0 00-1.47-.92A5.87 5.87 0 0011.3 0H8zm0 3.89A4.11 4.11 0 1012.11 8 4.11 4.11 0 008 3.89zm0 6.77A2.67 2.67 0 1110.67 8 2.67 2.67 0 018 10.67zm4.27-7.9a1 1 0 101 1 1 1 0 00-1-.99z"/></svg>