<svg id="Layer_1" data-name="Layer 1" xmlns="http://www.w3.org/2000/svg" viewBox="0 0 20 14.12"><defs><style>.cls-1{fill:#231f20;}</style></defs><title>quote-20x20</title><path class="cls-1" d="M0 8.06c0-4.44 4-7 6.9-8l.32.75c-2.35 1.18-5 2.67-5 5.51 0 .48.21 1.23.8 1.23s1.2-.49 1.74-.49a3.23 3.23 0 0 1 3.37 3.37 3.91 3.91 0 0 1-3.58 3.69C2 14.12 0 11.93 0 8.06zm11.87 0c0-4.44 4-7 6.9-8l.32.75c-2.35 1.18-5 2.67-5 5.51 0 .48.21 1.23.8 1.23s1.21-.49 1.74-.49A3.23 3.23 0 0 1 20 10.43a3.91 3.91 0 0 1-3.58 3.69c-2.57 0-4.55-2.19-4.55-6.06z"/></svg>