<svg xmlns="http://www.w3.org/2000/svg" viewBox="0 0 16 16"><path d="M8 0a8 8 0 0 0-8 8 7.94 7.94 0 0 0 4.8 7.3 10.87 10.87 0 0 1 .1-1.8c.2-.6 1-4.4 1-4.4a3.54 3.54 0 0 1-.2-1.2 1.87 1.87 0 0 1 1.5-2.1A1 1 0 0 1 8.3 7a22.74 22.74 0 0 1-.7 2.8 1.22 1.22 0 0 0 1.3 1.5c1.5 0 2.5-1.9 2.5-4.3a3 3 0 0 0-3.3-3.1 3.76 3.76 0 0 0-3.9 3.8 2.54 2.54 0 0 0 .5 1.6c.1.2.2.2.1.4a1.42 1.42 0 0 1-.2.6c-.1.2-.2.3-.4.2a3.17 3.17 0 0 1-1.6-3.1c0-2.3 1.9-5 5.7-5A4.78 4.78 0 0 1 13.4 7c0 3.1-1.7 5.5-4.3 5.5a2.44 2.44 0 0 1-2-1s-.5 1.8-.6 2.2a8.86 8.86 0 0 1-.8 1.7A4 4 0 0 0 8 16 8 8 0 0 0 8 0z"/></svg>