<svg xmlns="http://www.w3.org/2000/svg" viewBox="0 0 16 16"><path d="M8 1.44h3.23a4.43 4.43 0 0 1 1.49.28 2.48 2.48 0 0 1 .92.6 2.48 2.48 0 0 1 .6.92 4.43 4.43 0 0 1 .28 1.49v6.46a4.43 4.43 0 0 1-.28 1.49 2.65 2.65 0 0 1-1.52 1.52 4.43 4.43 0 0 1-1.49.28H4.77a4.43 4.43 0 0 1-1.49-.28 2.48 2.48 0 0 1-.92-.6 2.48 2.48 0 0 1-.6-.92 4.43 4.43 0 0 1-.28-1.49V4.73a4.43 4.43 0 0 1 .28-1.49 2.48 2.48 0 0 1 .6-.92 2.48 2.48 0 0 1 .92-.6 4.43 4.43 0 0 1 1.49-.28H8M8 0H4.7a5.87 5.87 0 0 0-1.94.42A4 4 0 0 0 .42 2.76 5.87 5.87 0 0 0 0 4.7v6.6a5.87 5.87 0 0 0 .37 1.94 4 4 0 0 0 2.34 2.34 5.87 5.87 0 0 0 2 .42h6.6a5.87 5.87 0 0 0 1.94-.37 4.09 4.09 0 0 0 2.34-2.34 5.87 5.87 0 0 0 .42-2V4.7a5.87 5.87 0 0 0-.37-1.94 4 4 0 0 0-2.4-2.34A5.87 5.87 0 0 0 11.3 0H8zm0 3.89A4.11 4.11 0 1 0 12.11 8 4.11 4.11 0 0 0 8 3.89zm0 6.77A2.67 2.67 0 1 1 10.67 8 2.67 2.67 0 0 1 8 10.67zm4.27-7.9a1 1 0 1 0 1 1 1 1 0 0 0-1-1z"/></svg>