<svg xmlns="http://www.w3.org/2000/svg" viewBox="0 0 16 16"><path d="M0 7.7c-.2 2.1 1.2 4.2 3.2 5 2 .8 4.5.2 5.8-1.5.8-1.1 1-2.6.9-3.9H5V9h3c-.4 2.1-3.3 2.8-4.9 1.4-1.6-1.2-1.5-3.9.1-5 1.2-.9 2.8-.7 4 .1.5-.4.9-.9 1.3-1.3-1-.8-2.1-1.3-3.4-1.3C2.5 2.8.1 5.1 0 7.7zm13.1-1.9v1.5h-1.5v1.4h1.5v1.4h1.4V8.6H16V7.2h-1.5V5.7c-.4.1-.9.1-1.4.1z"/><path d="M0 7.7c0-2.6 2.5-4.9 5.1-4.8 1.3-.1 2.4.5 3.4 1.3L7.2 5.5c-1.2-.8-2.8-1-4-.1-1.7 1.1-1.7 3.8-.1 5.1 1.5 1.4 4.5.7 4.9-1.5H5.1V7.3H10c0 1.3-.1 2.8-1 3.9-1.3 1.8-3.8 2.3-5.8 1.5C1.3 12-.2 9.9 0 7.7zm13.1-1.9h1.4v1.5H16v1.4h-1.5v1.5h-1.4V8.8h-1.5V7.4h1.5V5.8z"/></svg>