<svg viewBox="0 0 16 16"><title>WhatsApp</title><path d="M12.1 9.6a.7.7 0 00-.4-.2 7.54 7.54 0 00-1.3-.6c-.2-.1-.3-.1-.4.1s-.5.6-.6.7a.3.3 0 01-.4 0 5.48 5.48 0 01-1.6-.9 4.88 4.88 0 01-1.1-1.3.3.3 0 01.1-.4l.3-.3c.1-.1.1-.2.2-.3a.32.32 0 000-.3 11.43 11.43 0 00-.6-1.4c-.2-.5-.3-.5-.4-.5h-.4a.65.65 0 00-.5.2 2.45 2.45 0 00-.7 1.7A3.38 3.38 0 005.1 8a8.08 8.08 0 003.3 2.9c2 .8 2 .5 2.3.5a2 2 0 001.3-.9 1 1 0 00.1-.9m-4-8.4a6.59 6.59 0 00-6.6 6.6 6.23 6.23 0 001.3 3.8L2 14.1l2.5-.8a6.38 6.38 0 003.6 1.1 6.6 6.6 0 100-13.2M16 7.8a7.83 7.83 0 01-7.9 7.8 8 8 0 01-3.8-1L0 16l1.4-4.2a8 8 0 01-1.1-4 7.85 7.85 0 0115.7 0"/></svg>