<svg id="share-twitter" xmlns="http://www.w3.org/2000/svg" viewBox="0 0 16 16"><title>share-twitter</title><path d="M14.4,4.7V5.1a9.26,9.26,0,0,1-9.3,9.3,8.45,8.45,0,0,1-5-1.5H0.9A6.56,6.56,0,0,0,5,11.5,3.44,3.44,0,0,1,1.9,9.2c0.2,0,.4.1,0.6,0.1a2.77,2.77,0,0,0,.9-0.1A3.13,3.13,0,0,1,.6,6.1h0a3.31,3.31,0,0,0,1.5.4A3.24,3.24,0,0,1,.7,3.7,4.71,4.71,0,0,1,1.1,2,9,9,0,0,0,7.9,5.4a1.08,1.08,0,0,1-.1-0.6,3.33,3.33,0,0,1,3.3-3.3,3.49,3.49,0,0,1,2.4,1,5.39,5.39,0,0,0,2.1-.8,3.19,3.19,0,0,1-1.4,1.8A4.07,4.07,0,0,0,16,3,5.23,5.23,0,0,1,14.4,4.7Z"/></svg>