<svg xmlns="http://www.w3.org/2000/svg" viewBox="0 0 1701 708.7"><path d="M0 0v708.7h1700V0z"/><g fill="#FFF"><path d="M429 91.5h58.1v157H429v38.7h162.1v-38.7h-58.3v-157h58.3V52.8H429zM0 340h340V0H0v340zM72.4 52.8l31.7 185.8h.8l37.4-172.2c2.3-11.4 6.4-14.3 17.2-14.3h24.3c11 0 14.9 2.7 17.2 14.3l37.3 172.2h.8L271 52.8h44.9l-46 223.2c-1.8 9.7-5.5 12.3-16.5 12.3h-31.2c-11 0-14.3-2.5-16.5-12.7l-35.1-161.8h-.8l-34.9 161.8c-2.1 10.2-5.9 12.7-16.5 12.7H86.9c-11 0-14.7-2.4-16.5-12.3L24.2 52.8h48.2zM896 154.7c3.3-3.1 6.8-9.3 6.8-30.4 0-20.9-3.4-26.1-6.6-29.1-1.9-1.7-5.2-2.7-15.9-2.7h-76.9v65.3h76.9c10.6.1 13.9-1.3 15.7-3.1z"/><path d="M680 340h340V0H680v340zm74.8-287.2h143.4c17.8 0 29.5 2.7 37.1 10.3 9.4 9.4 15.1 22 15.1 56.3 0 41.8-11.8 54.5-38.8 58.8v.8c24.4 4.9 35.2 10.6 36.4 44.8 1.1 29.8 2.3 50.7 3.7 63.4H905c-2.3-15.7-3.8-35.3-4.4-60.1-.4-18.4-2.6-22.7-7-26.5-4.1-3.5-9.6-4.7-23.4-4.7h-67v91.3h-48.5V52.8h.1zM1360 0v340h340V0h-340zm255.9 269.8c-14.2 12.5-32.3 17.4-65.5 17.4h-115.5V52.8h115.5c33.2 0 51.3 4.9 65.5 17.4 16.7 14.7 24.7 41.8 24.7 99.8 0 57.8-8 85.1-24.7 99.8z"/><path d="M1580 99.4c-7.5-5.9-14.9-6.8-32.6-6.8h-64v154.8h64c17.5 0 25.6-1.3 32.6-7 8.9-7.1 13-20 13-70.3 0-50.9-4-63.6-13-70.7zM1284.5 207.3h-42.2v41.2h-83.1v-63.3h64.3v-37.5h-64.3V91.5h80.9v36.4h42.2V52.8h-199.7v38.7h31.6v157h-31.6v38.7h201.9zM171.3 588.1h-1.7l-59.5-191.3H64.7l72.5 221.3c2.3 7.3 5 10.3 15.6 10.3h32.6c10 0 12.9-1.9 15.6-10.3l72.5-221.3h-42.7l-59.5 191.3zM487 396.8h45.8v231.3H487zM926.7 413.2c-14.6-11.9-31.3-16.4-61.7-16.4H754.9v231.3H865c30.4 0 47.1-4.4 61.7-16.4 17.5-14.6 24.9-44.3 24.9-99.3s-7.4-84.6-24.9-99.2zM893.6 586c-6.5 5.7-13.8 6.6-28.7 6.6h-65.8V432.5H865c14.7 0 21.5.6 28.7 6.6 8.5 7.2 13 21 13 73.8 0 52.1-4.6 65.9-13.1 73.1zM1114.6 628.2h170.1v-35.6h-126.8v-66.5h105v-35.6h-105v-58h126.8v-35.7h-170.1zM1616.8 406.4c-9-7.3-19-9.6-42.8-9.6h-72.6c-23.8 0-33.8 2.2-42.8 9.6-13.4 10.8-23.7 25.4-23.7 106.1s10.3 95.3 23.7 106.1c9 7.3 19 9.6 42.8 9.6h72.6c23.8 0 33.8-2.2 42.8-9.6 13.4-10.8 23.7-25.4 23.7-106.1s-10.3-95.3-23.7-106.1zm-30.4 183.1c-2.3 1.8-4.4 3.4-16.8 3.1h-63.9c-11.9 0-14.4-1.2-16.7-3.1-3.5-2.9-8.2-14-8.2-77s4.7-74.1 8.2-77c2.4-1.9 4.8-3.1 16.8-3.1h63.9c11.9 0 14.4 1.2 16.7 3.1 3.5 2.9 8.2 14 8.2 77s-4.7 74.1-8.2 77z"/></g></svg>