<svg xmlns="http://www.w3.org/2000/svg" viewBox="0 0 20 20"><path d="M10 0a10 10 0 0 0-4 19.16 8.76 8.76 0 0 1 .17-2.3l1.29-5.45a2.36 2.36 0 0 1-.32-1.58c0-1.48.86-2.59 1.93-2.59a1.34 1.34 0 0 1 1.35 1.5 21.53 21.53 0 0 1-.88 3.55 1.55 1.55 0 0 0 1.58 1.93c1.9 0 3.17-2.43 3.17-5.32 0-2.19-1.48-3.83-4.16-3.83a4.74 4.74 0 0 0-4.95 4.52v.27a2.89 2.89 0 0 0 .66 2 .48.48 0 0 1 .14.56l-.2.8a.34.34 0 0 1-.38.29h-.12c-1.4-.57-2-2.1-2-3.82 0-2.84 2.4-6.25 7.15-6.25 3.82 0 6.33 2.76 6.33 5.73 0 3.92-2.18 6.85-5.4 6.85a2.87 2.87 0 0 1-2.49-1.32c-.58 2.3-.58 2.3-.71 2.75a8.4 8.4 0 0 1-1 2.14A10 10 0 1 0 10 0"/></svg>