<svg viewBox="0 0 20 20"><title>Gallery Grid</title><path d="M1.75 0A1.75 1.75 0 110 1.75 1.75 1.75 0 011.75 0zm16.5 0a1.75 1.75 0 11-1.75 1.75A1.75 1.75 0 0118.25 0zm-8.17 0a1.75 1.75 0 11-1.75 1.75A1.75 1.75 0 0110.08 0zM1.75 8.25A1.75 1.75 0 110 10a1.75 1.75 0 011.75-1.75zm16.5 0A1.75 1.75 0 1116.5 10a1.75 1.75 0 011.75-1.75zm-8.17 0A1.75 1.75 0 118.33 10a1.75 1.75 0 011.75-1.75zM1.75 16.5A1.75 1.75 0 110 18.25a1.75 1.75 0 011.75-1.75zm16.5 0a1.75 1.75 0 11-1.75 1.75 1.75 1.75 0 011.75-1.75zm-8.17 0a1.75 1.75 0 11-1.75 1.75 1.75 1.75 0 011.75-1.75z"/></svg>