<svg xmlns="http://www.w3.org/2000/svg" viewBox="0 0 18 18"><path d="M16 4.7c0 .2-.1.4-.2.6-.2.2-.3.2-.6.2h-2c-.2 0-.4-.1-.6-.2-.2-.2-.2-.3-.2-.6V2.8c0-.2.1-.4.2-.6.1-.1.3-.2.5-.2h2c.2 0 .4.1.6.2.2.2.3.4.3.6v1.9zm0 10.5c0 .2-.1.4-.2.5-.1.1-.3.2-.5.2H2.7c-.2 0-.4-.1-.5-.2-.1-.1-.2-.3-.2-.5V7.6h1.7c-.2.5-.2 1-.2 1.5 0 1.5.5 2.8 1.6 3.8C6.2 14 7.5 14.6 9 14.6c1 0 2-.2 2.8-.7.9-.5 1.5-1.1 2-2 .5-.8.7-1.7.7-2.7 0-.5-.1-1-.2-1.5H16v7.5zM6.5 6.5c.7-.7 1.6-1 2.5-1 1 0 1.9.3 2.6 1 .7.7 1 1.5 1 2.5s-.4 1.8-1.1 2.5c-.7.7-1.6 1-2.6 1s-1.8-.3-2.5-1c-.6-.7-1-1.6-1-2.5s.4-1.8 1.1-2.5M17.3.7c-.5-.5-1-.7-1.6-.7H2.3C1.7 0 1.1.2.7.7c-.5.4-.7 1-.7 1.6v13.4c0 .6.2 1.2.7 1.6.5.5 1 .7 1.6.7h13.4c.6 0 1.2-.2 1.6-.7.5-.5.7-1 .7-1.6V2.3c0-.6-.2-1.2-.7-1.6"/></svg>