<svg xmlns="http://www.w3.org/2000/svg" viewBox="0 0 20 20"><path d="M1.75 0A1.75 1.75 0 1 1 0 1.75 1.75 1.75 0 0 1 1.75 0zm16.5 0a1.75 1.75 0 1 1-1.75 1.75A1.75 1.75 0 0 1 18.25 0zm-8.17 0a1.75 1.75 0 1 1-1.75 1.75A1.75 1.75 0 0 1 10.08 0zM1.75 8.25A1.75 1.75 0 1 1 0 10a1.75 1.75 0 0 1 1.75-1.75zm16.5 0A1.75 1.75 0 1 1 16.5 10a1.75 1.75 0 0 1 1.75-1.75zm-8.17 0A1.75 1.75 0 1 1 8.33 10a1.75 1.75 0 0 1 1.75-1.75zM1.75 16.5A1.75 1.75 0 1 1 0 18.25a1.75 1.75 0 0 1 1.75-1.75zm16.5 0a1.75 1.75 0 1 1-1.75 1.75 1.75 1.75 0 0 1 1.75-1.75zm-8.17 0a1.75 1.75 0 1 1-1.75 1.75 1.75 1.75 0 0 1 1.75-1.75z"/></svg>